<?xml version="1.0" encoding="utf-8"?>
<!-- Generator: Adobe Illustrator 25.0.1, SVG Export Plug-In . SVG Version: 6.00 Build 0)  -->
<svg version="1.1" id="Layer_1" xmlns="http://www.w3.org/2000/svg" xmlns:xlink="http://www.w3.org/1999/xlink" x="0px" y="0px"
	 viewBox="0 0 56.7 56.7" style="enable-background:new 0 0 56.7 56.7;" xml:space="preserve">
<style type="text/css">
	.st0{fill-rule:evenodd;clip-rule:evenodd;fill:url(#SVGID_1_);}
	.st1{fill-rule:evenodd;clip-rule:evenodd;fill:url(#SVGID_2_);}
	.st2{fill-rule:evenodd;clip-rule:evenodd;fill:url(#SVGID_3_);}
	.st3{fill-rule:evenodd;clip-rule:evenodd;fill:url(#SVGID_4_);}
	.st4{fill-rule:evenodd;clip-rule:evenodd;fill:url(#SVGID_5_);}
	.st5{fill-rule:evenodd;clip-rule:evenodd;fill:url(#SVGID_6_);}
</style>
<g id="Layer_12">
	<g>
		
			<linearGradient id="SVGID_1_" gradientUnits="userSpaceOnUse" x1="-18.511" y1="18.85" x2="62.9549" y2="18.85" gradientTransform="matrix(1 0 0 -1 0 58.4)">
			<stop  offset="0" style="stop-color:#3670B8"/>
			<stop  offset="0.39" style="stop-color:#3670B8"/>
			<stop  offset="0.67" style="stop-color:#19C3F0"/>
			<stop  offset="1" style="stop-color:#19C3F0"/>
		</linearGradient>
		<path class="st0" d="M49.5,29.6L28.8,41.8c0,0-0.2,0.1-0.5,0.1v7.6c0.4,0,0.8-0.1,1.2-0.3c1.1-0.6,18.6-10.9,18.6-10.9
			s1.4-1,1.5-2.8L49.5,29.6z"/>
		
			<linearGradient id="SVGID_2_" gradientUnits="userSpaceOnUse" x1="33.9829" y1="18.85" x2="1.195" y2="18.85" gradientTransform="matrix(1 0 0 -1 0 58.4)">
			<stop  offset="0" style="stop-color:#3670B8"/>
			<stop  offset="0.55" style="stop-color:#19C3F0"/>
			<stop  offset="1" style="stop-color:#19C3F0"/>
		</linearGradient>
		<path class="st1" d="M28.3,41.9c-0.2,0-0.3,0-0.5-0.1L7.1,29.6v5.9c0,0-0.1,1.5,1.5,2.9s18.5,10.8,18.5,10.8s0.6,0.2,1.3,0.3v-7.6
			H28.3z"/>
		
			<linearGradient id="SVGID_3_" gradientUnits="userSpaceOnUse" x1="43.7164" y1="35.4333" x2="13.0529" y2="35.4333" gradientTransform="matrix(1 0 0 -1 0 58.4)">
			<stop  offset="0" style="stop-color:#3670B8"/>
			<stop  offset="0.35" style="stop-color:#19C3F0"/>
			<stop  offset="0.65" style="stop-color:#19C3F0"/>
			<stop  offset="1" style="stop-color:#3670B8"/>
		</linearGradient>
		<path class="st2" d="M33.8,28.3l-4.9-2.9c0,0-0.4-0.3-1,0L23,28.3L17.5,25l-1.2-0.7c5.1-3,10.9-6.4,10.9-6.4s1.3-0.6,2.4,0
			c0.6,0.3,6,3.4,11,6.4L33.8,28.3z"/>
		
			<linearGradient id="SVGID_4_" gradientUnits="userSpaceOnUse" x1="-14.7323" y1="35.3" x2="50.5056" y2="35.3" gradientTransform="matrix(1 0 0 -1 0 58.4)">
			<stop  offset="0" style="stop-color:#3670B8"/>
			<stop  offset="0.55" style="stop-color:#19C3F0"/>
			<stop  offset="1" style="stop-color:#19C3F0"/>
		</linearGradient>
		<path class="st3" d="M28.3,31.3c-0.1,0-0.3,0-0.5-0.1L14,23l13.8-8.1c0.2-0.1,0.3-0.1,0.5-0.1V7.2c-0.7,0-1.2,0.3-1.2,0.3
			S10.3,16.9,8.6,18.3c-1.6,1.4-1.5,2.9-1.5,2.9c0,1.9,0,3.8,0,5.7c0,0.1,18.1,10.7,20,11.8c0,0,0.5,0.3,1.2,0.3
			C28.3,39,28.3,31.3,28.3,31.3z"/>
		
			<linearGradient id="SVGID_5_" gradientUnits="userSpaceOnUse" x1="22.1424" y1="41.3" x2="55.7737" y2="41.3" gradientTransform="matrix(1 0 0 -1 0 58.4)">
			<stop  offset="0" style="stop-color:#21A0DB"/>
			<stop  offset="0.55" style="stop-color:#19C3F0"/>
			<stop  offset="1" style="stop-color:#19C3F0"/>
		</linearGradient>
		<path class="st4" d="M28.3,14.8c0.3,0,0.6,0.1,0.6,0.1l20.7,12.2v-5.9c-0.1-1.9-1.5-2.8-1.5-2.8S30.7,8,29.5,7.4
			c-0.4-0.2-0.8-0.3-1.2-0.3V14.8z"/>
		
			<linearGradient id="SVGID_6_" gradientUnits="userSpaceOnUse" x1="54.1585" y1="29.8667" x2="2.4773" y2="29.8667" gradientTransform="matrix(1 0 0 -1 0 58.4)">
			<stop  offset="0" style="stop-color:#3670B8"/>
			<stop  offset="0.55" style="stop-color:#19C3F0"/>
			<stop  offset="1" style="stop-color:#19C3F0"/>
		</linearGradient>
		<path class="st5" d="M42.8,33.6l-2.3-1.3l-11,6.4c-1.1,0.6-2.4,0-2.4,0c-1.9-1.1-20-11.6-20-11.8c0-2,0-4,0-6
			c0-0.5,0.2-1.6,1.5-2.7l0,0l0.1-0.1c-0.6,0.8-0.5,1.5-0.1,1.7l19.2,11.3c0.6,0.3,1,0,1,0l11.7-6.9l6.7,4l0,0l2.2,1.3L42.8,33.6z"
			/>
	</g>
</g>
</svg>
