<?xml version="1.0" encoding="utf-8"?>
<!-- Generator: Adobe Illustrator 25.0.1, SVG Export Plug-In . SVG Version: 6.00 Build 0)  -->
<svg version="1.1" id="Layer_1" xmlns="http://www.w3.org/2000/svg" xmlns:xlink="http://www.w3.org/1999/xlink" x="0px" y="0px"
	 viewBox="0 0 56.7 56.7" style="enable-background:new 0 0 56.7 56.7;" xml:space="preserve">
<style type="text/css">
	.st0{fill:url(#SVGID_1_);}
	.st1{fill:#FFFFFF;}
</style>
<g id="Layer_11">
	
		<linearGradient id="SVGID_1_" gradientUnits="userSpaceOnUse" x1="0" y1="30.05" x2="56.7" y2="30.05" gradientTransform="matrix(1 0 0 -1 0 58.4)">
		<stop  offset="0" style="stop-color:#9177B6"/>
		<stop  offset="1" style="stop-color:#6B50A1"/>
	</linearGradient>
	<path class="st0" d="M48.7,56.7H8c-4.4,0-8-3.6-8-8V8c0-4.4,3.6-8,8-8h40.7c4.4,0,8,3.6,8,8v40.7C56.7,53.1,53.1,56.7,48.7,56.7z"
		/>
	<g>
		<g>
			<path class="st1" d="M13.1,22.4l-1,0.7c-0.4-0.7-1-1-1.8-1c-1.2,0-2,0.8-2,2s0.8,2,2,2c0.8,0,1.4-0.4,1.8-1l1,0.7
				c-0.5,0.9-1.5,1.5-2.7,1.5c-1.8,0-3.3-1.4-3.3-3.2c0-1.8,1.5-3.2,3.3-3.2C11.6,20.9,12.6,21.5,13.1,22.4"/>
			<path class="st1" d="M20.6,24.7v2.4h-1.3v-2.4L17.2,21h1.4l1.4,2.5l1.4-2.5h1.4L20.6,24.7z"/>
			<path class="st1" d="M32.4,22.4l-1,0.7c-0.4-0.7-1-1-1.8-1c-1.2,0-2,0.8-2,2s0.8,2,2,2c0.8,0,1.4-0.4,1.8-1l1,0.7
				c-0.5,0.9-1.5,1.5-2.7,1.5c-1.8,0-3.3-1.4-3.3-3.2c0-1.8,1.5-3.2,3.3-3.2C30.9,20.9,31.9,21.5,32.4,22.4 M38.2,26h2.7v1.1h-4V21
				h1.3V26z M49.5,22.1h-2.9v1.3h2.1v1.1h-2.1V26h3v1.1h-4.3V21h4.2V22.1z"/>
		</g>
		<path class="st1" d="M27.6,30.2c0.3,0,1,0,1.5,0c1.3,0,1.8,0.6,1.8,1.4c0,0.7-0.5,1.2-1.1,1.3l0,0c0.8,0.1,1.3,0.6,1.3,1.3
			c0,1.1-0.9,1.6-2,1.6c-0.5,0-1.1,0-1.5,0L27.6,30.2L27.6,30.2z M28.1,30.6v2.1h1.1c0.7,0,1.3-0.4,1.3-1.1c0-0.7-0.4-1.1-1.3-1.1
			C28.8,30.6,28.3,30.6,28.1,30.6 M28.1,33.1v2.2c0.2,0,0.7,0,1,0c1,0,1.5-0.4,1.5-1.2c0-0.7-0.5-1.1-1.5-1.1L28.1,33.1L28.1,33.1z
			 M38.1,30.2h0.4v5.6h-0.4V30.2z M45,30.2h4.6v0.4h-2.1v5.2h-0.4v-5.2H45V30.2z"/>
	</g>
</g>
</svg>
