<?xml version="1.0" encoding="utf-8"?>
<!-- Generator: Adobe Illustrator 25.0.1, SVG Export Plug-In . SVG Version: 6.00 Build 0)  -->
<svg version="1.1" id="Layer_1" xmlns="http://www.w3.org/2000/svg" xmlns:xlink="http://www.w3.org/1999/xlink" x="0px" y="0px"
	 viewBox="0 0 56.7 56.7" style="enable-background:new 0 0 56.7 56.7;" xml:space="preserve">
<style type="text/css">
	.st0{fill:#70CCD6;}
	.st1{fill:#0D1426;}
</style>
<g id="fathom">
	<path class="st0" d="M48.7,56.7H8c-4.4,0-8-3.6-8-8V8c0-4.4,3.6-8,8-8h40.7c4.4,0,8,3.6,8,8v40.7C56.7,53.1,53.1,56.7,48.7,56.7z"
		/>
	<g>
		<rect x="8.5" y="7.1" class="st1" width="39.6" height="8.7"/>
		<g>
			<path class="st1" d="M8.5,31.5c0-2.9,0-5.8,0-8.7c13.7,6.9,25.9-6.9,39.6,0c0,2.9,0,5.8,0,8.7C34.5,24.7,22.2,38.4,8.5,31.5z"/>
		</g>
		<circle class="st1" cx="14.3" cy="43.8" r="5.8"/>
	</g>
</g>
</svg>
