<?xml version="1.0" encoding="utf-8"?>
<!-- Generator: Adobe Illustrator 25.0.1, SVG Export Plug-In . SVG Version: 6.00 Build 0)  -->
<svg version="1.1" id="Layer_1" xmlns="http://www.w3.org/2000/svg" xmlns:xlink="http://www.w3.org/1999/xlink" x="0px" y="0px"
	 viewBox="0 0 56.7 56.7" style="enable-background:new 0 0 56.7 56.7;" xml:space="preserve">
<style type="text/css">
	.st0{fill:url(#SVGID_1_);}
	.st1{fill:url(#SVGID_2_);}
	.st2{fill:#6456A5;}
</style>
<g id="Layer_16">
	<g>
		
			<linearGradient id="SVGID_1_" gradientUnits="userSpaceOnUse" x1="34.2191" y1="20.0289" x2="11.7833" y2="29.4207" gradientTransform="matrix(1 0 0 -1 0 58.4)">
			<stop  offset="1.353259e-06" style="stop-color:#504A9E;stop-opacity:0.2"/>
			<stop  offset="1" style="stop-color:#6456A5"/>
		</linearGradient>
		<path class="st0" d="M16.2,21c-1.6-0.5-3.3-0.5-4.9,0.1c-3,1.1-4.2,4.1-4.2,7.1c0,9.7,8.3,13.2,9.7,13.6c4.3,1.2,8.8-0.2,12.1-3
			c2.8-2.4,4.5-5.4,5.1-9c0.1-0.6,0.1-1.2,0-1.8c0-0.2-0.1-0.4-0.2-0.5C33.3,27,33,27.6,32.7,28c-0.6,0.8-1,1.8-1.6,2.7
			c-1,1.4-2.3,2.3-4,2.3c-1.8,0-3.6-0.7-4.9-2.1c-0.9-0.9-1.4-2.1-1.6-3.4s-0.4-2.7-1.1-3.8C18.8,22.4,17.6,21.5,16.2,21z"/>
		
			<linearGradient id="SVGID_2_" gradientUnits="userSpaceOnUse" x1="22.5593" y1="33.2341" x2="49.6063" y2="33.2341" gradientTransform="matrix(1 0 0 -1 0 58.4)">
			<stop  offset="1.353259e-06" style="stop-color:#504A9E;stop-opacity:0.2"/>
			<stop  offset="1" style="stop-color:#6456A5"/>
		</linearGradient>
		<path class="st1" d="M40.5,35.6c1.6,0.5,3.3,0.5,4.9-0.1c3-1.1,4.2-4.1,4.2-7.1c0-9.7-8.3-13.2-9.7-13.6c-4.3-1.2-8.8,0.2-12.1,3
			c-2.8,2.4-4.5,5.4-5.1,9c-0.1,0.6-0.1,1.2,0,1.8c0,0.2,0.1,0.4,0.2,0.5c0.5,0.5,0.8-0.1,1.1-0.5c0.6-0.8,1-1.8,1.6-2.7
			c1-1.4,2.3-2.3,4-2.3c1.8,0,3.6,0.7,4.9,2.1c0.9,0.9,1.4,2.1,1.6,3.4c0.2,1.3,0.4,2.7,1.1,3.8C37.9,34.3,39.1,35.2,40.5,35.6z"/>
		<circle class="st2" cx="28.5" cy="28.2" r="2.1"/>
	</g>
</g>
</svg>
