<?xml version="1.0" encoding="utf-8"?>
<!-- Generator: Adobe Illustrator 25.0.1, SVG Export Plug-In . SVG Version: 6.00 Build 0)  -->
<svg version="1.1" id="Layer_1" xmlns="http://www.w3.org/2000/svg" xmlns:xlink="http://www.w3.org/1999/xlink" x="0px" y="0px"
	 viewBox="0 0 56.7 56.7" style="enable-background:new 0 0 56.7 56.7;" xml:space="preserve">
<style type="text/css">
	.st0{fill:url(#SVGID_1_);}
	.st1{fill:url(#SVGID_2_);}
	.st2{enable-background:new    ;}
	.st3{fill:#FFFFFF;}
</style>
<g id="Layer_47">
	<g>
		<g>
			<g id="Shape_1_3_">
				<g>
					
						<linearGradient id="SVGID_1_" gradientUnits="userSpaceOnUse" x1="4.252" y1="812.329" x2="52.452" y2="812.329" gradientTransform="matrix(1 0 0 1 0 -784)">
						<stop  offset="0" style="stop-color:#D8D9D8"/>
						<stop  offset="1" style="stop-color:#9B9B9E"/>
					</linearGradient>
					<path class="st0" d="M52.4,26C46.9-6,5,0.2,4.3,26c2.4,1.3,3.9,2,3.9,2s-1.3,0.8-4,2.5c4.8,31.4,46,26.9,48.2,0
						c-2.6-1.6-4-2.5-4-2.5S49.6,27.5,52.4,26z"/>
				</g>
			</g>
			<g id="Shape_1_2_">
				<g>
					
						<linearGradient id="SVGID_2_" gradientUnits="userSpaceOnUse" x1="6.2" y1="812.3082" x2="50.5" y2="812.3082" gradientTransform="matrix(1 0 0 1 0 -784)">
						<stop  offset="0" style="stop-color:#273A8A"/>
						<stop  offset="0.5112" style="stop-color:#3863AE"/>
						<stop  offset="1" style="stop-color:#393389"/>
					</linearGradient>
					<path class="st1" d="M50.5,24.8C43-3.7,8.6,4,6.2,24.8c4.8,2.7,5.9,3.3,5.9,3.3s-1.8,1.2-5.9,3.7c5.1,27.4,42.2,22.1,44.3,0
						c-3.7-2.3-6-3.7-6-3.7S49.6,25.3,50.5,24.8z"/>
				</g>
			</g>
		</g>
		<g>
			<g class="st2">
				<path class="st3" d="M14.6,37.3H17v0.2c0,0.4,0.2,0.7,0.5,1c0.3,0.3,0.7,0.4,1.2,0.4c0.4,0,0.8-0.1,1.1-0.4s0.5-0.6,0.5-0.9
					c0-0.4-0.2-0.7-0.5-1c-0.2-0.2-0.7-0.4-1.5-0.7c-1.3-0.5-2.2-1-2.8-1.6c-0.5-0.6-0.8-1.3-0.8-2.2c0-1.1,0.4-2,1.1-2.7
					c0.7-0.7,1.7-1,2.9-1c1.2,0,2.1,0.3,2.9,1c0.7,0.7,1.1,1.6,1.2,2.7h-2.5c-0.1-1-0.6-1.5-1.6-1.5c-0.4,0-0.8,0.1-1.1,0.4
					c-0.3,0.2-0.4,0.5-0.4,0.9c0,0.5,0.2,0.9,0.7,1.1c0.3,0.2,0.8,0.4,1.4,0.6c1.2,0.4,2.1,0.9,2.5,1.3c0.6,0.6,1,1.4,1,2.3
					c0,1.1-0.4,2-1.2,2.7c-0.8,0.7-1.8,1-3,1c-1.3,0-2.3-0.3-3-1C14.9,39.4,14.6,38.4,14.6,37.3z"/>
				<path class="st3" d="M24.4,40.8V28.7h6.7v2h-4.2v3h4.2v2h-4.2v3h4.2v2H24.4z"/>
				<path class="st3" d="M32.2,40.8l4.2-12.1h3.1l4.1,12.1h-2.7l-0.7-2.1h-4.6l-0.7,2.1H32.2z M36.2,36.7h3.4l-1.7-5L36.2,36.7z"/>
			</g>
			<g>
				<g class="st2">
					<path class="st3" d="M42,18.3v-2h-0.6v-0.4h1.6v0.4h-0.6v2H42z"/>
					<path class="st3" d="M43.3,18.3v-2.3h0.5l0.7,1.4l0.7-1.4h0.5v2.3h-0.5v-1.5l-0.8,1.5l-0.8-1.5v1.5H43.3z"/>
				</g>
				<g class="st2">
					<path class="st3" d="M16.4,26.8l4.3-6.4l-3.8-5.7h3.2l2.2,3.5l2.3-3.5h3.2l-3.9,5.7l4.3,6.4H25l-2.7-4.2l-2.7,4.2H16.4z"/>
					<path class="st3" d="M29.7,26.8V14.7h3.9c2.1,0,3.8,0.4,4.9,1.3c1.4,1.1,2.2,2.7,2.2,4.6c0,2-0.7,3.6-2.2,4.8
						c-1.2,0.9-2.8,1.4-4.8,1.4H29.7z M32.5,24.8h0.5c1.4,0,2.5-0.3,3.2-0.8c1-0.8,1.5-1.9,1.5-3.2c0-1.2-0.4-2.2-1.2-2.9
						c-0.8-0.7-1.8-1.1-3.1-1.1h-1V24.8z"/>
				</g>
			</g>
		</g>
	</g>
</g>
</svg>
