<?xml version="1.0" encoding="UTF-8"?>
<svg id="Layer_1" data-name="Layer 1" xmlns="http://www.w3.org/2000/svg" viewBox="0 0 283.5 141.7">
  <defs>
    <style>
      .cls-1 {
        fill: #fff;
      }
    </style>
  </defs>
  <g id="Anchorage_wallet" data-name="Anchorage wallet">
    <g>
      <path class="cls-1" d="M77.1,54.2l-12.2-7.8-12.2,7.8,12.2,7.8,12.2-7.8Z"/>
      <path class="cls-1" d="M52.8,87.5l12.2,7.8,12.2-7.8-12.2-7.8-12.2,7.8Z"/>
      <path class="cls-1" d="M47.6,68.6l-12.2,7.8,12.2,7.8,12.2-7.8-12.2-7.8Z"/>
      <path class="cls-1" d="M82.3,68.6l-12.2,7.8,12.2,7.8,12.2-7.8-12.2-7.8Z"/>
      <path class="cls-1" d="M118.3,58.1c-1.9,0-3.4.4-4.5,1.2-1.1.8-1.6,1.9-1.6,3.3s.1,1.1.3,1.6c.2.5.5.9.9,1.3.4.4.9.6,1.5.9.6.2,1.3.3,2.1.3,1.2,0,2.2-.2,3.1-.7.9-.5,1.7-1.1,2.2-2v2.4h2.6v-8.5c0-.8-.1-1.6-.4-2.3-.3-.7-.7-1.3-1.2-1.7-.5-.5-1.2-.9-1.9-1.1-.8-.3-1.6-.4-2.6-.4-1.5,0-2.7.3-3.8.9-1.1.6-1.9,1.3-2.6,2.2l2.4,1.4c.4-.7.9-1.2,1.6-1.6.7-.4,1.4-.6,2.4-.6s2.1.3,2.7.9c.6.6.9,1.3.9,2.2v.2h-4.1,0ZM122.3,61.4c-.2.5-.5.9-.9,1.2-.3.4-.7.7-1.2.9-.4.2-.9.4-1.3.6-.5.1-1,.2-1.4.2-.9,0-1.6-.2-2-.5-.4-.3-.6-.8-.6-1.4s.3-1.2.8-1.6c.5-.4,1.5-.6,2.7-.6h3.9v1.1h0Z"/>
      <path class="cls-1" d="M137.1,55.9c.6.7.9,1.6.9,2.8v7.7h2.8v-7.9c0-.9-.1-1.8-.4-2.5-.3-.8-.6-1.4-1.1-1.9-.5-.5-1.1-.9-1.8-1.2-.7-.3-1.5-.4-2.3-.4s-1.8.2-2.6.6c-.7.4-1.3.9-1.8,1.6v-2.1l-2.7,1.2v12.8h2.7v-7.6c0-.6,0-1.2.3-1.7s.4-.9.8-1.3c.3-.3.7-.6,1.2-.8.4-.2.9-.3,1.5-.3,1.2,0,2,.3,2.6,1h0Z"/>
      <path class="cls-1" d="M154.6,61.4c-.3.8-.9,1.5-1.5,2-.7.5-1.5.8-2.5.8s-1.2-.1-1.8-.4c-.5-.2-1-.6-1.4-1-.4-.4-.7-.9-1-1.5-.2-.6-.3-1.2-.3-1.8s.1-1.2.3-1.8c.2-.6.5-1,.9-1.5.4-.4.9-.7,1.4-1,.5-.2,1.1-.4,1.8-.4.9,0,1.7.2,2.5.7.7.5,1.2,1.1,1.6,2l2.5-1.1c-.3-.6-.6-1.2-1-1.7-.4-.5-.9-1-1.5-1.3-.6-.4-1.2-.7-1.8-.9-.7-.2-1.4-.3-2.1-.3s-1.9.2-2.8.5c-.9.4-1.6.9-2.3,1.5-.6.6-1.2,1.4-1.5,2.3-.4.9-.6,1.8-.6,2.8s.2,1.9.5,2.8c.4.9.9,1.6,1.5,2.3.6.6,1.4,1.2,2.3,1.5.9.4,1.8.6,2.8.6,1.6,0,2.9-.4,4.1-1.2,1.1-.8,1.9-1.8,2.5-3.1l-2.5-1h0Z"/>
      <path class="cls-1" d="M168.6,55.9c.6.7.9,1.6.9,2.8v7.7h2.8v-7.9c0-.9-.1-1.8-.4-2.5-.3-.8-.6-1.4-1.1-1.9-.5-.5-1.1-.9-1.8-1.2-.7-.3-1.5-.4-2.3-.4s-1.8.2-2.5.6c-.7.4-1.3.9-1.8,1.5v-8.1l-2.7,1.2v18.8h2.7v-7.6c0-.6,0-1.2.3-1.7.2-.5.4-.9.8-1.3.3-.3.7-.6,1.2-.8.4-.2.9-.3,1.4-.3,1.2,0,2,.3,2.6,1h0Z"/>
      <path class="cls-1" d="M187,54.5c-.6-.6-1.4-1.2-2.3-1.5-.9-.4-1.8-.6-2.8-.6s-1.9.2-2.8.6-1.6.9-2.3,1.5c-.6.6-1.2,1.4-1.5,2.3-.4.9-.6,1.8-.6,2.8s.2,1.9.6,2.8c.4.9.9,1.6,1.5,2.3.6.6,1.4,1.2,2.3,1.5.9.4,1.8.6,2.8.6s1.9-.2,2.8-.6c.9-.4,1.6-.9,2.3-1.5.6-.6,1.2-1.4,1.5-2.3.4-.9.6-1.8.6-2.8s-.2-1.9-.6-2.8c-.4-.9-.9-1.6-1.5-2.3h0ZM186,61.4c-.2.5-.5,1-.9,1.4-.4.4-.9.7-1.4,1-.5.2-1.1.4-1.7.4s-1.2-.1-1.7-.4c-.5-.2-1-.6-1.4-1-.4-.4-.7-.9-.9-1.4-.2-.5-.3-1.1-.3-1.8s.1-1.2.3-1.8c.2-.6.5-1,.9-1.5.4-.4.9-.7,1.4-1,.5-.2,1.1-.4,1.7-.4s1.2.1,1.7.4c.5.2,1,.6,1.4,1,.4.4.7.9.9,1.5.2.6.3,1.2.3,1.8s-.1,1.2-.3,1.8h0Z"/>
      <path class="cls-1" d="M198.1,52.5c-.9,0-1.7.2-2.3.6-.7.4-1.1,1.1-1.4,1.9v-2.6l-2.7,1.2v12.8h2.7v-7.7c0-1.2.3-2.1.9-2.6.6-.5,1.4-.8,2.3-.8s1.3.1,1.7.4l1.1-2.6c-.3-.2-.6-.3-1-.4s-.8-.1-1.3-.1h0Z"/>
      <path class="cls-1" d="M212.7,54c-.5-.5-1.2-.9-1.9-1.1-.8-.3-1.6-.4-2.6-.4-1.5,0-2.7.3-3.8.9-1.1.6-1.9,1.3-2.6,2.2l2.4,1.4c.4-.7.9-1.2,1.6-1.6.7-.4,1.4-.6,2.4-.6s2.1.3,2.7.9c.6.6.9,1.3.9,2.2v.2h-4.1c-1.9,0-3.4.4-4.5,1.2-1.1.8-1.6,1.9-1.6,3.3s.1,1.1.3,1.6c.2.5.5.9.9,1.3.4.4.9.6,1.5.9.6.2,1.3.3,2.1.3,1.2,0,2.2-.2,3.1-.7.9-.5,1.7-1.1,2.2-2v2.4h2.6v-8.5c0-.8-.1-1.6-.4-2.3-.3-.7-.7-1.3-1.2-1.7h0ZM211.7,61.4c-.2.5-.5.9-.9,1.2-.3.4-.7.7-1.2.9-.4.2-.9.4-1.3.6-.5.1-1,.2-1.4.2-.9,0-1.6-.2-2-.5-.4-.3-.6-.8-.6-1.4s.3-1.2.8-1.6c.5-.4,1.5-.6,2.7-.6h3.9v1.1h0Z"/>
      <path class="cls-1" d="M228.5,54.7c-.5-.7-1.2-1.3-2-1.7-.8-.4-1.7-.6-2.6-.6s-1.8.2-2.6.5-1.6.8-2.2,1.4c-.6.6-1.1,1.4-1.5,2.2-.4.9-.6,1.9-.6,2.9s.2,2,.6,2.9c.4.9.9,1.6,1.5,2.3.6.6,1.4,1.1,2.2,1.4.8.3,1.7.5,2.6.5s1.8-.2,2.7-.6c.8-.4,1.5-1,2.1-1.7v1.1c0,.6-.1,1.2-.3,1.7-.2.5-.5,1-.9,1.3-.4.4-.8.7-1.4.9-.5.2-1.1.3-1.8.3-1.1,0-2-.2-2.7-.5-.7-.3-1.3-.9-1.9-1.6l-2.2,1.8c.7.9,1.7,1.6,2.7,2.1,1.1.5,2.4.7,4.1.7s1.9-.2,2.8-.5c.9-.3,1.6-.8,2.2-1.4.6-.6,1.1-1.3,1.5-2.2.4-.8.5-1.8.5-2.8v-12.6h-2.7v2h0ZM228.3,61.4c-.2.6-.5,1.1-.9,1.5-.4.4-.9.7-1.4,1-.5.2-1.1.4-1.8.4s-1.2-.1-1.8-.4c-.5-.2-1-.6-1.4-1-.4-.4-.7-.9-1-1.5-.2-.6-.3-1.2-.3-1.8s.1-1.2.3-1.8c.2-.6.5-1.1,1-1.5.4-.4.9-.7,1.4-1,.5-.2,1.1-.4,1.8-.4s1.2.1,1.8.4c.5.2,1,.6,1.4,1,.4.4.7.9.9,1.5.2.6.3,1.2.3,1.8s-.1,1.2-.3,1.8Z"/>
      <path class="cls-1" d="M248,59.5c0-1-.2-2-.5-2.8-.4-.9-.8-1.6-1.5-2.2-.6-.6-1.4-1.1-2.2-1.5-.9-.3-1.8-.5-2.8-.5s-2,.2-2.8.6c-.9.4-1.6.9-2.3,1.5-.6.6-1.1,1.4-1.5,2.3-.4.9-.5,1.8-.5,2.8s.2,1.9.5,2.8c.3.9.8,1.6,1.5,2.2.6.6,1.4,1.1,2.3,1.5.9.4,1.9.5,3,.5s2.7-.3,3.8-.9c1-.6,1.9-1.4,2.5-2.4l-2.3-1.3c-.4.7-.9,1.2-1.6,1.6-.7.4-1.5.6-2.4.6s-2.3-.3-3.1-1c-.8-.7-1.3-1.6-1.5-2.7h11.5v-1.1h0ZM236.6,58.3c.3-1,.8-1.8,1.6-2.5.8-.6,1.7-1,2.8-1s2.1.3,2.8.9c.8.6,1.2,1.4,1.4,2.5h-8.7Z"/>
      <path class="cls-1" d="M122.3,77.7c-.5-.7-1.2-1.2-2-1.6-.8-.4-1.7-.6-2.6-.6s-1.8.2-2.6.5-1.6.8-2.2,1.4c-.6.6-1.1,1.4-1.5,2.2-.4.9-.6,1.9-.6,2.9s.2,2,.6,2.9c.4.9.9,1.6,1.5,2.3.6.6,1.4,1.1,2.2,1.4.8.3,1.7.5,2.6.5s1.8-.2,2.6-.6,1.5-1,2.1-1.7v2h2.7v-20l-2.7,1.2v7h0ZM122,84.5c-.2.6-.5,1.1-.9,1.5-.4.4-.9.7-1.4,1-.5.2-1.1.4-1.8.4s-1.2-.1-1.8-.4c-.5-.2-1-.6-1.4-1-.4-.4-.7-.9-1-1.5-.2-.6-.3-1.2-.3-1.8s.1-1.2.3-1.8c.2-.6.5-1.1,1-1.5.4-.4.9-.7,1.4-1,.5-.2,1.1-.4,1.8-.4s1.2.1,1.8.4c.5.2,1,.6,1.4,1,.4.4.7.9.9,1.5.2.6.3,1.2.3,1.8s-.1,1.2-.3,1.8Z"/>
      <path class="cls-1" d="M129.4,70c-.5,0-.9.2-1.2.5-.3.3-.5.7-.5,1.2s.2.9.5,1.2c.3.3.7.5,1.2.5s.9-.2,1.3-.5c.3-.3.5-.7.5-1.2s-.2-.9-.5-1.2c-.3-.3-.7-.5-1.3-.5h0Z"/>
      <path class="cls-1" d="M152.2,70c-.5,0-.9.2-1.2.5-.3.3-.5.7-.5,1.2s.2.9.5,1.2c.3.3.7.5,1.2.5s.9-.2,1.3-.5c.3-.3.5-.7.5-1.2s-.2-.9-.5-1.2c-.3-.3-.7-.5-1.3-.5h0Z"/>
      <path class="cls-1" d="M130.8,75.8h-2.8v13.7h2.8v-13.7Z"/>
      <path class="cls-1" d="M145,77.8c-.5-.7-1.2-1.3-2-1.7-.8-.4-1.7-.6-2.6-.6s-1.8.2-2.6.5c-.8.3-1.6.8-2.2,1.4-.6.6-1.1,1.4-1.5,2.2-.4.9-.6,1.9-.6,2.9s.2,2,.6,2.9c.4.9.9,1.6,1.5,2.3.6.6,1.4,1.1,2.2,1.4.8.3,1.7.5,2.6.5s1.8-.2,2.7-.6c.8-.4,1.5-1,2.1-1.7v1.1c0,.6-.1,1.2-.3,1.7-.2.5-.5,1-.9,1.3-.4.4-.8.7-1.4.9-.5.2-1.1.3-1.8.3-1.1,0-2-.2-2.7-.5-.7-.3-1.3-.9-1.9-1.6l-2.2,1.8c.7.9,1.7,1.6,2.7,2.1,1.1.5,2.4.7,4.1.7s1.9-.2,2.8-.5c.9-.3,1.6-.8,2.2-1.4.6-.6,1.1-1.3,1.5-2.2.4-.8.5-1.8.5-2.8v-12.6h-2.7v2h0ZM144.8,84.5c-.2.6-.5,1.1-.9,1.5-.4.4-.9.7-1.4,1-.5.2-1.1.4-1.8.4s-1.2-.1-1.8-.4c-.5-.2-1-.6-1.4-1-.4-.4-.7-.9-1-1.5-.2-.6-.3-1.2-.3-1.8s.1-1.2.3-1.8c.2-.6.5-1.1,1-1.5.4-.4.9-.7,1.4-1,.5-.2,1.1-.4,1.8-.4s1.2.1,1.8.4c.5.2,1,.6,1.4,1,.4.4.7.9.9,1.5.2.6.3,1.2.3,1.8s-.1,1.2-.3,1.8Z"/>
      <path class="cls-1" d="M153.6,75.8h-2.8v13.7h2.8v-13.7Z"/>
      <path class="cls-1" d="M163,87.2c-.5,0-1-.2-1.3-.5-.3-.3-.5-.9-.5-1.7v-6.8h3.8v-2.5h-3.8v-4.7l-2.7,1.2v3.6h-2.7v2.5h2.7v6.8c0,1.7.4,2.9,1.1,3.6.7.7,1.8,1.1,3.2,1.1s1.1,0,1.6-.2c.5-.1.9-.4,1.3-.6l-1.3-2.3c-.4.4-.9.5-1.4.5h0Z"/>
      <path class="cls-1" d="M178.2,77c-.5-.5-1.2-.9-1.9-1.1-.8-.3-1.6-.4-2.6-.4-1.5,0-2.7.3-3.8.9-1.1.6-1.9,1.3-2.6,2.2l2.4,1.4c.4-.7.9-1.2,1.6-1.6.7-.4,1.4-.6,2.4-.6s2.1.3,2.7.9c.6.6.9,1.3.9,2.2v.2h-4.1c-1.9,0-3.4.4-4.5,1.2-1.1.8-1.6,1.9-1.6,3.3s.1,1.1.3,1.6c.2.5.5.9.9,1.3.4.4.9.6,1.5.9.6.2,1.3.3,2.1.3,1.2,0,2.2-.2,3.1-.7.9-.5,1.7-1.1,2.2-2v2.4h2.6v-8.5c0-.8-.1-1.6-.4-2.3-.3-.7-.7-1.3-1.2-1.7h0ZM177.2,84.5c-.2.5-.5.9-.9,1.2-.3.4-.7.7-1.2.9-.4.2-.9.4-1.3.6-.5.1-1,.2-1.4.2-.9,0-1.6-.2-2-.5-.4-.3-.6-.8-.6-1.4s.3-1.2.8-1.6c.5-.4,1.5-.6,2.7-.6h3.9v1.1h0Z"/>
      <path class="cls-1" d="M182.9,89.5h2.8v-20l-2.8,1.2v18.8Z"/>
    </g>
  </g>
</svg>