<?xml version="1.0" encoding="UTF-8"?>
<svg id="Layer_1" data-name="Layer 1" xmlns="http://www.w3.org/2000/svg" viewBox="0 0 275.01 132.01">
  <defs>
    <style>
      .cls-1, .cls-2 {
        fill: #fff;
      }

      .cls-2 {
        fill-rule: evenodd;
      }
    </style>
  </defs>
  <g id="bitgo">
    <g>
      <path class="cls-1" d="M243.83,67.5c0,9.18-5.87,15.37-14.15,15.37s-14.15-6.19-14.15-15.37,5.87-15.37,14.15-15.37,14.15,6.19,14.15,15.37ZM222.29,67.5c0,6.03,2.85,9.69,7.38,9.69s7.38-3.66,7.38-9.69-2.85-9.69-7.38-9.69-7.38,3.66-7.38,9.69ZM206.01,82.25v-4.17c-1.62,2.7-5.54,4.79-10.8,4.79-10.4,0-18.12-8.45-18.12-20.67s7.77-21.01,18.57-21.01c8.22,0,13.76,4.45,16.22,11.6l-6.82,2.31c-1.17-4.79-4.53-7.55-9.34-7.55-6.77,0-11.47,5.8-11.47,14.53s4.7,14.59,11.58,14.59c5.82,0,9.62-4.17,9.84-9.91h-10.57v-6.31h17.45v21.79h-6.54ZM162.27,74.82v-16.39h-4.08v-5.74h4.08v-8.67h6.6v8.67h6.15v5.74h-6.15v15.32c0,2.65,1.51,2.93,3.92,2.93,1.12,0,1.73-.06,2.74-.17v5.69c-1.23.23-2.91.39-4.64.39-5.59,0-8.61-1.75-8.61-7.77ZM149.07,48.75v-6.93h6.94v6.93h-6.94ZM155.89,52.69v29.57h-6.71v-29.57h6.71ZM115.89,82.25v-40.44h15.94c8.61,0,13.2,3.77,13.2,10.64,0,5.01-2.91,7.6-5.71,8.73,4.2,1.35,6.99,4.84,6.99,9.8,0,7.1-5.2,11.26-13.48,11.26h-16.95ZM122.77,58.55h8.39c4.59,0,7.1-1.8,7.1-5.35s-2.52-5.29-7.1-5.29h-8.39v10.64ZM122.77,64.63v11.54h9.68c4.53,0,6.99-2.37,6.99-5.8s-2.46-5.74-6.99-5.74h-9.68Z"/>
      <path class="cls-2" d="M92.44,70.83c0,16.66-30.58,31.16-30.58,31.16,0,0-30.58-14.5-30.58-31.16,0-4.33,0-8.14,0-11.8,0-7.26,0-13.86,0-22.46,19.42-8.88,41.75-8.88,61.16.02v34.23ZM59.48,41.82h-3.95v3.91h-3.95v32.61h3.95v3.91h3.95v-3.91h3.95v3.91h3.95v-4.29c5.01-1.06,7.89-4.29,7.89-9.1,0-3.36-2.17-6.39-5.88-7.36,3.28-.97,5.16-3.77,5.16-6.9,0-4.45-2.69-7.57-7.17-8.55v-4.24h-3.95v3.91h-3.95v-3.91ZM62.96,50.84c3.33,0,5.26,1.52,5.26,4.09s-1.83,4.09-4.92,4.09h-5.54v-8.19h5.21ZM63.35,63.99c3.71,0,5.59,1.52,5.59,4.55,0,2.76-2.27,4.46-5.93,4.46h-5.26v-9.02h5.59Z"/>
    </g>
  </g>
</svg>