<?xml version="1.0" encoding="UTF-8"?>
<svg id="Layer_1" data-name="Layer 1" xmlns="http://www.w3.org/2000/svg" viewBox="0 0 283.5 141.7">
  <defs>
    <style>
      .cls-1 {
        fill: #2161ff;
      }
    </style>
  </defs>
  <g id="Cobo_wallet" data-name="Cobo wallet">
    <path class="cls-1" d="M182.2,78.5c0-7.6-6.1-13.7-13.7-13.7-7.6,0-13.7,6.1-13.7,13.7,0,7.6,6.1,13.7,13.7,13.7s13.7-6.1,13.7-13.7h0ZM248,78.5c0,13.8-11.2,24.9-24.9,24.9-10.2,0-19.4-6.3-23.2-15.8l9.5-9.5v.4c0,7.6,6.2,13.7,13.7,13.6,7.6,0,13.7-6.2,13.6-13.7,0-7.6-6.2-13.7-13.7-13.6-3.6,0-7.1,1.4-9.6,4l-27.2,27.2c-9.6,9.8-25.4,9.9-35.2.3-4.8-4.7-7.4-11.1-7.4-17.8v-35c.2-3.1,2.9-5.4,5.9-5.3,2.8.2,5.1,2.4,5.3,5.3v14c11.5-7.6,26.9-4.4,34.5,7.1,1.7,2.6,3,5.6,3.6,8.7l12.6-12.6c9.7-9.7,25.5-9.7,35.2,0,4.7,4.7,7.3,11.1,7.3,17.8ZM139.9,78.5c0,13.7-11.1,24.9-24.8,24.9-10.3,0-19.5-6.3-23.2-15.8l9.5-9.5v.4c0,7.6,6.2,13.7,13.7,13.6,7.6,0,13.7-6.2,13.6-13.7,0-7.6-6.2-13.7-13.7-13.6-3.6,0-7.1,1.4-9.6,4l-27.3,27.3c-9.7,9.7-25.5,9.7-35.2,0-9.7-9.7-9.7-25.5,0-35.2,9.7-9.7,25.5-9.7,35.2,0,2.2,2.2,2.2,5.8,0,7.9-2.2,2.2-5.8,2.2-7.9,0-5.4-5.3-14-5.3-19.4,0-5.3,5.4-5.3,14,0,19.4,5.3,5.3,14,5.3,19.3,0l27.3-27.4c9.7-9.7,25.5-9.7,35.2,0,4.7,4.7,7.3,11.1,7.3,17.7h0s0,0,0,0Z"/>
  </g>
</svg>