<?xml version="1.0" encoding="UTF-8"?>
<svg id="Layer_1" data-name="Layer 1" xmlns="http://www.w3.org/2000/svg" viewBox="0 0 275.01 132.01">
  <defs>
    <style>
      .cls-1 {
        fill: #363a5b;
      }
    </style>
  </defs>
  <path id="DFNS_Wallet" data-name="DFNS Wallet" class="cls-1" d="M93.52,64.87l-14.41-24.97c-.47-.8-1.31-1.29-2.24-1.29h-28.83c-.78,0-1.51.42-1.9,1.09l-14.57,25.16c-.39.68-.38,1.51,0,2.18l14.4,24.97c.47.8,1.32,1.29,2.24,1.29h28.85c.78,0,1.49-.42,1.88-1.09l14.56-25.16c.39-.67.38-1.51,0-2.19h.01s0,0,0,0v.02ZM83.23,66.81l-9.59,16.6c-.31.53-.87.85-1.48.86h-17.22c-1.31.01-2.14-1.42-1.48-2.56l8.84-15.29c.32-.54.3-1.2-.01-1.73l-8.74-14.46c-.69-1.14.13-2.59,1.47-2.59h17.15c.61,0,1.17.33,1.48.85l9.59,16.61c.31.53.31,1.18,0,1.71M120.23,47.37c10.92,0,18.65,6.4,18.65,18.59s-8.26,18.59-19.18,18.59h-12.77s0-37.18,0-37.18h13.3,0ZM206.63,80.91v3.64h-7.11c-2.27,0-4.32-1.34-5.24-3.41l-11.39-24.48v27.89h-7.57v-37.17h7.44c2.26,0,4.31,1.33,5.23,3.39l11.07,24.77v-28.18h7.57v33.55h0ZM242.64,54.03h-18.58c-2.64,0-4.34,1.37-4.34,4.02s1.76,3.92,4.4,4.13l8.74.74h0c6.62.6,10.96,3.61,10.96,10.71s-4.61,10.91-11.13,10.91h-19.81v-6.67h19.07c2.49,0,4.08-1.7,4.08-4.19s-1.7-3.76-4.24-3.97l-8.58-.8c-7.42-.69-11.29-3.6-11.29-10.65s4.76-10.91,11.6-10.91h19.11v6.67h0ZM170.01,54.06h-18.24v9.85h15.58v6.4h-15.59v14.24h-7.73v-37.17h25.98v6.67h0ZM114.74,54.27v23.4h4.54c6.52.01,11.6-3.76,11.6-11.7s-5.08-11.7-11.6-11.7h-4.54Z"/>
</svg>