<?xml version="1.0" encoding="UTF-8"?>
<svg id="Layer_1" xmlns="http://www.w3.org/2000/svg" version="1.1" viewBox="0 0 283.5 141.7">
  <!-- Generator: Adobe Illustrator 29.5.1, SVG Export Plug-In . SVG Version: 2.1.0 Build 141)  -->
  <defs>
    <style>
      .st0 {
        fill: #fff;
        fill-rule: evenodd;
      }

      .st1 {
        fill: #e2432d;
      }
    </style>
  </defs>
  <g id="Layer_4_copy">
    <g>
      <path id="_309677536" class="st1" d="M40.2,86.8h-4.7v-31.1h10.3c3.1,0,5.6,1,7.7,2.8,2.1,1.9,3.1,4.6,3.1,8s-1.1,6.3-3.4,8.3c-2.3,2-5,3-8.2,3h-4.7v9h0ZM45,60.1h-4.8v13.3h3.9c2.3,0,4.1-.6,5.5-1.9,1.4-1.2,2.1-2.9,2.1-5s-.6-3.7-1.8-4.8c-1.2-1-2.8-1.6-4.9-1.6ZM70,86.8h-4.7v-31.1h10.4c2.9,0,5.5.9,7.5,2.8,2.1,1.9,3.2,4.4,3.2,7.6s-.5,4-1.4,5.6-2.2,2.9-3.9,3.9l6.5,11v.3h-5l-5.9-9.7c-.5,0-1.3.2-2.2.2h-4.5v9.4h0ZM74.8,60.1h-4.8v12.7h4c2.2,0,4-.6,5.4-1.8,1.4-1.2,2.1-2.8,2.1-4.8s-.6-3.4-1.9-4.5c-1.2-1.1-2.8-1.6-4.8-1.6h0ZM109.9,87.1c-4.5,0-8.2-1.5-11.2-4.5s-4.4-6.8-4.4-11.4,1.5-8.3,4.4-11.3c2.9-3.1,6.7-4.6,11.3-4.6s8.2,1.5,11.2,4.6c2.9,3,4.4,6.8,4.4,11.3s-1.5,8.2-4.4,11.4c-3,3-6.7,4.5-11.3,4.5h0ZM109.9,82.5c3.1,0,5.6-1.1,7.7-3.2,2.1-2.2,3.2-4.9,3.2-8.1s-1-6-3.1-8.1c-2-2.1-4.6-3.2-7.8-3.2s-5.7,1.1-7.7,3.2c-2.1,2.1-3.1,4.8-3.1,8.1s1,5.9,3.1,8.1c2.1,2.1,4.7,3.2,7.7,3.2h0ZM139.9,86.8h-4.7v-31.1h10.3c3.1,0,5.6,1,7.7,2.8,2.1,1.9,3.1,4.6,3.1,8s-1.1,6.3-3.4,8.3c-2.3,2-5,3-8.2,3h-4.7v9h-.1ZM144.7,60.1h-4.8v13.3h3.9c2.3,0,4.1-.6,5.5-1.9,1.4-1.2,2.1-2.9,2.1-5s-.6-3.7-1.8-4.8c-1.1-1-2.8-1.6-4.9-1.6ZM192.9,86.8h-4.7v-31.5h.4l21.6,21.3v-21h4.7v31.5h-.4l-21.6-21.3v21ZM248,82.2v4.6h-20.8v-31.1h20.8v4.6h-16v9h14v4.4h-14v8.6h16Z"/>
      <path id="_309677296" class="st0" d="M164.2,68h3.4v19.2h-3.4v-19.2ZM174.4,54.5h3.4v32.7h-3.4v-32.7ZM169.3,61h3.4v26.2h-3.4v-26.2Z"/>
    </g>
  </g>
</svg>