<?xml version="1.0" encoding="UTF-8"?>
<svg id="Layer_1" data-name="Layer 1" xmlns="http://www.w3.org/2000/svg" viewBox="0 0 275.01 132.01">
  <defs>
    <style>
      .cls-1 {
        fill: #161616;
      }
    </style>
  </defs>
  <g id="Utila">
    <path class="cls-1" d="M145.43,89.81h5.6v-38.7h-5.6v22.55c0,7-4.53,11.07-11.78,11.07-7.83,0-10.22-5.45-10.22-11.07v-22.55h-5.68v23.85c0,8.06,3.38,14.9,13.92,14.9,6.84,0,12.03-3.66,13.68-10.99h.08v10.94Z"/>
    <path class="cls-1" d="M161.42,77.89c0,7,3.46,11.97,11.12,11.97,3.21,0,5.36-.41,7.91-1.22l-.82-5.13c-2.22.65-3.95.98-6.1.98-4.61,0-6.43-2.36-6.43-7.08v-21.33h12.94v-4.97h-12.94v-12.05h-5.68v12.05h-6.18v4.97h6.18v21.82Z"/>
    <path class="cls-1" d="M191.94,44.59v-5.54h-6.92v5.54h6.92ZM191.37,89.81v-38.7h-5.68v38.7h5.68Z"/>
    <path class="cls-1" d="M205.51,39.06h-5.68v50.75h5.68v-50.75Z"/>
    <path class="cls-1" d="M225.37,84.97c-6.01,0-8.16-3.18-8.16-6.27,0-3.99,2.97-6.11,8.32-6.11h12.69v2.44c0,5.7-4.86,9.93-12.85,9.93ZM238.23,89.81h5.6v-24.46c0-9.69-4.53-15.06-14.83-15.06-9.39,0-14.83,4.72-16.15,13.84l5.44.9c1.15-7,4.45-9.85,10.55-9.85,6.92,0,9.39,3.66,9.39,10.34v2.52h-13.26c-8.98,0-13.35,4.88-13.35,11.15,0,7.08,4.78,10.58,12.52,10.58,6.76,0,12.19-3.42,14.01-10.58h.08v10.62Z"/>
    <path class="cls-1" d="M52.96,39.7l10.63,10.71-11.4,11.48c-5.39,5.43-5.39,14.24,0,19.67,5.05,5.09,13.04,5.41,18.46.97l-3.29,3.32c-7.95,8.01-20.85,8.01-28.8,0l-1.31-1.32c-7.95-8.01-7.95-21,0-29.01l15.71-15.82Z"/>
    <path class="cls-1" d="M81.66,92.85l-10.63-10.71,11.4-11.48c5.39-5.43,5.39-14.24,0-19.67-5.05-5.09-13.04-5.41-18.46-.97l3.29-3.32c7.95-8.01,20.85-8.01,28.8,0l1.31,1.32c7.95,8.01,7.95,21,0,29.01l-15.71,15.82Z"/>
  </g>
</svg>