<?xml version="1.0" encoding="utf-8"?>
<!-- Generator: Adobe Illustrator 25.0.1, SVG Export Plug-In . SVG Version: 6.00 Build 0)  -->
<svg version="1.1" id="Layer_1" xmlns="http://www.w3.org/2000/svg" xmlns:xlink="http://www.w3.org/1999/xlink" x="0px" y="0px"
	 viewBox="0 0 1008 648" style="enable-background:new 0 0 1008 648;" xml:space="preserve">
<style type="text/css">
	.st0{fill:#F3F5F6;}
	.st1{fill:#14294C;}
	.st2{fill:#416CAA;}
	.st3{fill:#B7B5B1;}
	.st4{fill:#254C81;}
	.st5{fill:#416CAB;}
	.st6{fill:#FFFFFF;}
</style>
<rect x="0" class="st0" width="1008" height="648"/>
<g>
	<g>
		<g>
			<g>
				<path class="st1" d="M721.5,340.8c-7.3-7.4-11-20.1-11-38c0-17.9,3.6-30.6,10.9-38.1c7.3-7.4,21.1-11.2,41.5-11.2l65.2-0.1
					l-25.4-32l-41,0c-32.8,0-56.6,6.6-71.5,19.7c-6.8,6-12,13.6-15.7,22.7c4.1,11.1,6.2,24.1,6.2,39c0,14.9-2,27.9-6.1,39
					c3.7,9.1,8.9,16.6,15.7,22.6c14.9,13,38.8,19.6,71.6,19.5l37.9,0l25.2-32.1l-61.9,0.1C742.6,351.8,728.8,348.2,721.5,340.8z"/>
				<path class="st1" d="M545.2,221.7l-28.9,0l-8.1,0c-7.6,0.1-14.2,3.7-19.8,10.8l-31,39.5l-31.1-39.4
					c-5.7-7.2-12.3-10.7-19.8-10.7l-24.4,0c-4.2,0-6.2,1.7-6.2,5.2c0,1.7,0.8,3.6,2.4,5.5l53.9,68.1l-57,72.9
					c-1.6,2-2.4,3.9-2.4,5.6c0.5,3.4,2.6,5.1,6.4,5.1l24.1,0c7.6,0,14.1-3.6,19.7-10.7l34.5-44.1l34.6,44
					c5.6,7.1,12.2,10.6,19.7,10.6l36.6,0l-65.7-83.4L545.2,221.7z"/>
				<path class="st1" d="M651.4,364.4c6.8-6,12-13.6,15.7-22.6c1.4-3.5,2.7-7.3,3.7-11.3c2-8.2,3-17.5,3-27.7c0-10.2-1-19.4-3-27.7
					c-1-4-2.2-7.7-3.7-11.3c-3.7-9.1-8.9-16.7-15.7-22.6c-14.9-13.1-38.8-19.6-71.6-19.6l-25.9,0l-25.4,32.1l50.1-0.1
					c20.3,0,34.1,3.7,41.5,11.1c7.3,7.4,11,20.1,11,38.1s-3.6,30.6-10.9,38c-7.3,7.4-21.1,11.1-41.5,11.1l-46.8,0.1l25.2,32l22.9,0
					C612.7,384.1,636.5,377.5,651.4,364.4z"/>
				<polygon class="st2" points="524.1,342 524,259.6 491.6,300.8 				"/>
				<path class="st2" d="M777.6,408.4l12.3-12.6c0.2-0.2,0.3-0.6,0.2-0.9c-0.1-0.3-0.4-0.5-0.8-0.5l-4.4,0c-0.2,0-0.4,0.1-0.6,0.3
					l-15.8,16.4l0-15.8c0-0.5-0.4-0.8-0.8-0.8l-3.4,0c-0.5,0-0.8,0.4-0.8,0.8l0,30c0,0.5,0.4,0.8,0.8,0.8l3.4,0
					c0.5,0,0.8-0.4,0.8-0.8l0-7.7l5.5-5.6l11,13.8c0.2,0.2,0.4,0.3,0.7,0.3l4.2,0c0.3,0,0.6-0.2,0.7-0.5c0.1-0.3,0.1-0.6-0.1-0.9
					L777.6,408.4z"/>
				<path class="st2" d="M749.3,413.5c0.8-0.2,1.5-0.5,2.2-0.8c1.1-0.5,2-1.2,2.8-2c0.8-0.8,1.4-1.8,1.9-2.8
					c0.4-1.1,0.7-2.3,0.7-3.7c0-1.5-0.3-2.8-0.9-4c-0.6-1.2-1.4-2.3-2.4-3.1c-1-0.8-2.3-1.5-3.7-2c-1.4-0.5-3-0.7-4.7-0.7l-12.9,0
					c-0.5,0-0.8,0.4-0.8,0.8l0,30c0,0.5,0.4,0.8,0.8,0.8l3.4,0c0.5,0,0.8-0.4,0.8-0.8l0-10.8l7.3,0l8.5,11.3
					c0.2,0.2,0.4,0.3,0.7,0.3l4.2,0c0.3,0,0.6-0.2,0.7-0.5c0.1-0.3,0.1-0.6-0.1-0.9L749.3,413.5z M744.9,409.8l-8.4,0l0-10.5l8.4,0
					c2.2,0,4,0.5,5.2,1.4c1.1,0.9,1.7,2.1,1.7,3.7c0,0.8-0.2,1.6-0.5,2.3c-0.3,0.7-0.8,1.2-1.4,1.7c-0.6,0.5-1.3,0.8-2.2,1.1
					C746.9,409.6,745.9,409.8,744.9,409.8z"/>
				<path class="st2" d="M722.6,398.8c-1.4-1.5-3.1-2.7-5.1-3.5c-2-0.9-4.2-1.3-6.6-1.3c-2.4,0-4.6,0.5-6.6,1.3
					c-2,0.9-3.7,2.1-5.1,3.6c-1.4,1.5-2.5,3.3-3.3,5.2c-0.8,2-1.2,4.1-1.2,6.2c0,2.2,0.4,4.3,1.2,6.2c0.8,2,1.9,3.7,3.3,5.2
					c1.4,1.5,3.1,2.7,5.1,3.5c2,0.9,4.2,1.3,6.6,1.3c2.4,0,4.6-0.5,6.6-1.3c2-0.9,3.7-2.1,5.1-3.6c1.4-1.5,2.5-3.3,3.3-5.2
					c0.8-2,1.2-4.1,1.2-6.2c0-2.2-0.4-4.3-1.2-6.2C725.2,402,724.1,400.3,722.6,398.8z M721.1,414.8c-0.5,1.4-1.3,2.6-2.3,3.7
					c-0.9,1-2.1,1.8-3.4,2.4c-1.3,0.6-2.8,0.9-4.4,0.9c-1.6,0-3.1-0.3-4.4-0.9c-1.3-0.6-2.5-1.4-3.5-2.5c-1-1-1.8-2.3-2.3-3.7
					c-0.5-1.4-0.8-2.9-0.8-4.5c0-1.6,0.3-3.1,0.8-4.5c0.5-1.4,1.3-2.6,2.3-3.7c0.9-1,2.1-1.8,3.4-2.4c1.3-0.6,2.8-0.9,4.4-0.9
					c1.6,0,3.1,0.3,4.4,0.9c1.3,0.6,2.5,1.4,3.5,2.5c1,1,1.7,2.3,2.3,3.7c0.5,1.4,0.8,2.9,0.8,4.5
					C721.9,411.9,721.6,413.4,721.1,414.8z"/>
				<path class="st2" d="M692.4,394.5L692.4,394.5l-3.6,0c-0.4,0-0.7,0.2-0.8,0.6l-7.7,22.6l-7.5-22.7c-0.1-0.3-0.4-0.6-0.8-0.6
					l-2.8,0c-0.4,0-0.7,0.2-0.8,0.6l-7.4,22.7l-7.8-22.6c-0.1-0.3-0.4-0.6-0.8-0.6l-3.7,0c-0.3,0-0.5,0.1-0.7,0.4
					c-0.2,0.2-0.2,0.5-0.1,0.8l10.7,30.2c0.1,0.3,0.4,0.6,0.8,0.6l2.8,0c0.4,0,0.7-0.2,0.8-0.6l7.5-22l7.5,22
					c0.1,0.3,0.4,0.6,0.8,0.6l2.9,0c0.4,0,0.7-0.2,0.8-0.6l10.6-30.1c0.1-0.1,0.1-0.2,0.1-0.4C693.2,394.9,692.9,394.5,692.4,394.5z
					"/>
				<path class="st2" d="M644.7,394.5l-23.5,0c-0.5,0-0.8,0.4-0.8,0.8l0,3.1c0,0.5,0.4,0.8,0.8,0.8l9.2,0l0,26
					c0,0.5,0.4,0.8,0.8,0.8l3.4,0c0.5,0,0.8-0.4,0.8-0.8l0-26l9.2,0c0.5,0,0.8-0.4,0.8-0.8l0-3.1
					C645.6,394.9,645.2,394.5,644.7,394.5z"/>
				<path class="st2" d="M616.6,421.5l-17.7,0l0-8.8l15.5,0c0.5,0,0.8-0.4,0.8-0.8l0-3.1c0-0.5-0.4-0.8-0.8-0.8l-15.5,0l0-8.6
					l17.5,0c0.5,0,0.8-0.4,0.8-0.8l0-3.1c0-0.5-0.4-0.8-0.8-0.8l-21.7,0c-0.5,0-0.8,0.4-0.8,0.8l0,30c0,0.5,0.4,0.8,0.8,0.8l21.9,0
					c0.5,0,0.8-0.4,0.8-0.8l0-3.1C617.4,421.8,617,421.5,616.6,421.5z"/>
				<path class="st2" d="M586.2,394.6l-3.3,0c-0.5,0-0.8,0.4-0.8,0.8l0,21.6l-17.4-22.1c-0.2-0.2-0.4-0.3-0.7-0.3l-3.2,0
					c-0.5,0-0.8,0.4-0.8,0.8l0,30c0,0.5,0.4,0.8,0.8,0.8l3.3,0c0.5,0,0.8-0.4,0.8-0.8l0-22.2l17.9,22.7c0.2,0.2,0.4,0.3,0.7,0.3
					l2.7,0c0.5,0,0.8-0.4,0.8-0.8l0-30C587,395,586.6,394.6,586.2,394.6z"/>
			</g>
		</g>
	</g>
	<g>
		<g>
			<g id="Shape_1_3_">
				<g>
					<path class="st3" d="M342.6,294.9c-18.7-108.3-160.1-87.3-162.6,0c8.2,4.2,13.3,6.8,13.3,6.8s-4.3,2.6-13.3,8.4
						c16.3,106.1,155.2,90.7,162.6-0.1c-8.8-5.4-13.7-8.3-13.7-8.3S333.1,299.7,342.6,294.9z M273.1,332.7l-13.3-22.8l-13.5,22.8
						l-10.2-0.7l19.2-32.3L238,271.8l10.4-0.9l12.3,20.7l12.3-19.8l9.7,0.2l-16.1,27.5l17.8,33L273.1,332.7z"/>
				</g>
			</g>
		</g>
		<g id="Shape_1_2_">
			<g>
				<path class="st4" d="M336,290.7c-25.3-96.2-141.4-70.2-149.4,0c16.1,9.1,19.8,11.2,19.8,11.2s-6.2,4-19.8,12.6
					c17.3,92.5,142.6,74.7,149.4-0.1c-12.6-7.9-20.1-12.5-20.1-12.5S333,292.3,336,290.7z M273.1,332.8L259.8,310l-13.5,22.8
					l-10.2-0.7l19.2-32.3L238,271.9l10.4-0.9l12.3,20.7l12.3-19.8l9.7,0.2l-16.1,27.4l17.8,33L273.1,332.8z"/>
			</g>
		</g>
	</g>
</g>
<rect x="0" class="st5" width="1008" height="648"/>
<g>
	<g>
		<g>
			<g>
				<path class="st6" d="M721.5,340.8c-7.3-7.4-11-20.1-11-38c0-17.9,3.6-30.6,10.9-38.1c7.3-7.4,21.1-11.2,41.5-11.2l65.2-0.1
					l-25.4-32l-41,0c-32.8,0-56.6,6.6-71.5,19.7c-6.8,6-12,13.6-15.7,22.7c4.1,11.1,6.2,24.1,6.2,39c0,14.9-2,27.9-6.1,39
					c3.7,9.1,8.9,16.6,15.7,22.6c14.9,13,38.8,19.6,71.6,19.5l37.9,0l25.2-32.1l-61.9,0.1C742.6,351.8,728.8,348.2,721.5,340.8z"/>
				<path class="st6" d="M545.2,221.7l-28.9,0l-8.1,0c-7.6,0.1-14.2,3.7-19.8,10.8l-31,39.5l-31.1-39.4
					c-5.7-7.2-12.3-10.7-19.8-10.7l-24.4,0c-4.2,0-6.2,1.7-6.2,5.2c0,1.7,0.8,3.6,2.4,5.5l53.9,68.1l-57,72.9
					c-1.6,2-2.4,3.9-2.4,5.6c0.5,3.4,2.6,5.1,6.4,5.1l24.1,0c7.6,0,14.1-3.6,19.7-10.7l34.5-44.1l34.6,44
					c5.6,7.1,12.2,10.6,19.7,10.6l36.6,0l-65.7-83.4L545.2,221.7z"/>
				<path class="st6" d="M651.4,364.4c6.8-6,12-13.6,15.7-22.6c1.4-3.5,2.7-7.3,3.7-11.3c2-8.2,3-17.5,3-27.7c0-10.2-1-19.4-3-27.7
					c-1-4-2.2-7.7-3.7-11.3c-3.7-9.1-8.9-16.7-15.7-22.6c-14.9-13.1-38.8-19.6-71.6-19.6l-25.9,0l-25.4,32.1l50.1-0.1
					c20.3,0,34.1,3.7,41.5,11.1c7.3,7.4,11,20.1,11,38.1s-3.6,30.6-10.9,38c-7.3,7.4-21.1,11.1-41.5,11.1l-46.8,0.1l25.2,32l22.9,0
					C612.7,384.1,636.5,377.5,651.4,364.4z"/>
				<polygon class="st6" points="524.1,342 524,259.6 491.6,300.8 				"/>
				<path class="st6" d="M777.6,408.4l12.3-12.6c0.2-0.2,0.3-0.6,0.2-0.9c-0.1-0.3-0.4-0.5-0.8-0.5l-4.4,0c-0.2,0-0.4,0.1-0.6,0.3
					l-15.8,16.4l0-15.8c0-0.5-0.4-0.8-0.8-0.8l-3.4,0c-0.5,0-0.8,0.4-0.8,0.8l0,30c0,0.5,0.4,0.8,0.8,0.8l3.4,0
					c0.5,0,0.8-0.4,0.8-0.8l0-7.7l5.5-5.6l11,13.8c0.2,0.2,0.4,0.3,0.7,0.3l4.2,0c0.3,0,0.6-0.2,0.7-0.5c0.1-0.3,0.1-0.6-0.1-0.9
					L777.6,408.4z"/>
				<path class="st6" d="M749.3,413.5c0.8-0.2,1.5-0.5,2.2-0.8c1.1-0.5,2-1.2,2.8-2c0.8-0.8,1.4-1.8,1.9-2.8
					c0.4-1.1,0.7-2.3,0.7-3.7c0-1.5-0.3-2.8-0.9-4c-0.6-1.2-1.4-2.3-2.4-3.1c-1-0.8-2.3-1.5-3.7-2c-1.4-0.5-3-0.7-4.7-0.7l-12.9,0
					c-0.5,0-0.8,0.4-0.8,0.8l0,30c0,0.5,0.4,0.8,0.8,0.8l3.4,0c0.5,0,0.8-0.4,0.8-0.8l0-10.8l7.3,0l8.5,11.3
					c0.2,0.2,0.4,0.3,0.7,0.3l4.2,0c0.3,0,0.6-0.2,0.7-0.5c0.1-0.3,0.1-0.6-0.1-0.9L749.3,413.5z M744.9,409.8l-8.4,0l0-10.5l8.4,0
					c2.2,0,4,0.5,5.2,1.4c1.1,0.9,1.7,2.1,1.7,3.7c0,0.8-0.2,1.6-0.5,2.3c-0.3,0.7-0.8,1.2-1.4,1.7c-0.6,0.5-1.3,0.8-2.2,1.1
					C746.9,409.6,745.9,409.8,744.9,409.8z"/>
				<path class="st6" d="M722.6,398.8c-1.4-1.5-3.1-2.7-5.1-3.5c-2-0.9-4.2-1.3-6.6-1.3c-2.4,0-4.6,0.5-6.6,1.3
					c-2,0.9-3.7,2.1-5.1,3.6c-1.4,1.5-2.5,3.3-3.3,5.2c-0.8,2-1.2,4.1-1.2,6.2c0,2.2,0.4,4.3,1.2,6.2c0.8,2,1.9,3.7,3.3,5.2
					c1.4,1.5,3.1,2.7,5.1,3.5c2,0.9,4.2,1.3,6.6,1.3c2.4,0,4.6-0.5,6.6-1.3c2-0.9,3.7-2.1,5.1-3.6c1.4-1.5,2.5-3.3,3.3-5.2
					c0.8-2,1.2-4.1,1.2-6.2c0-2.2-0.4-4.3-1.2-6.2C725.2,402,724.1,400.3,722.6,398.8z M721.1,414.8c-0.5,1.4-1.3,2.6-2.3,3.7
					c-0.9,1-2.1,1.8-3.4,2.4c-1.3,0.6-2.8,0.9-4.4,0.9c-1.6,0-3.1-0.3-4.4-0.9c-1.3-0.6-2.5-1.4-3.5-2.5c-1-1-1.8-2.3-2.3-3.7
					c-0.5-1.4-0.8-2.9-0.8-4.5c0-1.6,0.3-3.1,0.8-4.5c0.5-1.4,1.3-2.6,2.3-3.7c0.9-1,2.1-1.8,3.4-2.4c1.3-0.6,2.8-0.9,4.4-0.9
					c1.6,0,3.1,0.3,4.4,0.9c1.3,0.6,2.5,1.4,3.5,2.5c1,1,1.7,2.3,2.3,3.7c0.5,1.4,0.8,2.9,0.8,4.5
					C721.9,411.9,721.6,413.4,721.1,414.8z"/>
				<path class="st6" d="M692.4,394.5L692.4,394.5l-3.6,0c-0.4,0-0.7,0.2-0.8,0.6l-7.7,22.6l-7.5-22.7c-0.1-0.3-0.4-0.6-0.8-0.6
					l-2.8,0c-0.4,0-0.7,0.2-0.8,0.6l-7.4,22.7l-7.8-22.6c-0.1-0.3-0.4-0.6-0.8-0.6l-3.7,0c-0.3,0-0.5,0.1-0.7,0.4
					c-0.2,0.2-0.2,0.5-0.1,0.8l10.7,30.2c0.1,0.3,0.4,0.6,0.8,0.6l2.8,0c0.4,0,0.7-0.2,0.8-0.6l7.5-22l7.5,22
					c0.1,0.3,0.4,0.6,0.8,0.6l2.9,0c0.4,0,0.7-0.2,0.8-0.6l10.6-30.1c0.1-0.1,0.1-0.2,0.1-0.4C693.2,394.9,692.9,394.5,692.4,394.5z
					"/>
				<path class="st6" d="M644.7,394.5l-23.5,0c-0.5,0-0.8,0.4-0.8,0.8l0,3.1c0,0.5,0.4,0.8,0.8,0.8l9.2,0l0,26
					c0,0.5,0.4,0.8,0.8,0.8l3.4,0c0.5,0,0.8-0.4,0.8-0.8l0-26l9.2,0c0.5,0,0.8-0.4,0.8-0.8l0-3.1
					C645.6,394.9,645.2,394.5,644.7,394.5z"/>
				<path class="st6" d="M616.6,421.5l-17.7,0l0-8.8l15.5,0c0.5,0,0.8-0.4,0.8-0.8l0-3.1c0-0.5-0.4-0.8-0.8-0.8l-15.5,0l0-8.6
					l17.5,0c0.5,0,0.8-0.4,0.8-0.8l0-3.1c0-0.5-0.4-0.8-0.8-0.8l-21.7,0c-0.5,0-0.8,0.4-0.8,0.8l0,30c0,0.5,0.4,0.8,0.8,0.8l21.9,0
					c0.5,0,0.8-0.4,0.8-0.8l0-3.1C617.4,421.8,617,421.5,616.6,421.5z"/>
				<path class="st6" d="M586.2,394.6l-3.3,0c-0.5,0-0.8,0.4-0.8,0.8l0,21.6l-17.4-22.1c-0.2-0.2-0.4-0.3-0.7-0.3l-3.2,0
					c-0.5,0-0.8,0.4-0.8,0.8l0,30c0,0.5,0.4,0.8,0.8,0.8l3.3,0c0.5,0,0.8-0.4,0.8-0.8l0-22.2l17.9,22.7c0.2,0.2,0.4,0.3,0.7,0.3
					l2.7,0c0.5,0,0.8-0.4,0.8-0.8l0-30C587,395,586.6,394.6,586.2,394.6z"/>
			</g>
		</g>
	</g>
	<g>
		<g>
			<g id="Shape_1_7_">
				<g>
					<path class="st3" d="M342.6,294.9c-18.7-108.3-160.1-87.3-162.6,0c8.2,4.2,13.3,6.8,13.3,6.8s-4.3,2.6-13.3,8.4
						c16.3,106.1,155.2,90.7,162.6-0.1c-8.8-5.4-13.7-8.3-13.7-8.3S333.1,299.7,342.6,294.9z M273.1,332.7l-13.3-22.8l-13.5,22.8
						l-10.2-0.7l19.2-32.3L238,271.8l10.4-0.9l12.3,20.7l12.3-19.8l9.7,0.2l-16.1,27.5l17.8,33L273.1,332.7z"/>
				</g>
			</g>
		</g>
		<g id="Shape_1_5_">
			<g>
				<path class="st6" d="M336,290.7c-25.3-96.2-141.4-70.2-149.4,0c16.1,9.1,19.8,11.2,19.8,11.2s-6.2,4-19.8,12.6
					c17.3,92.5,142.6,74.7,149.4-0.1c-12.6-7.9-20.1-12.5-20.1-12.5S333,292.3,336,290.7z M273.1,332.8L259.8,310l-13.5,22.8
					l-10.2-0.7l19.2-32.3L238,271.9l10.4-0.9l12.3,20.7l12.3-19.8l9.7,0.2l-16.1,27.4l17.8,33L273.1,332.8z"/>
			</g>
		</g>
	</g>
</g>
</svg>
