<?xml version="1.0" encoding="utf-8"?>
<!-- Generator: Adobe Illustrator 25.0.1, SVG Export Plug-In . SVG Version: 6.00 Build 0)  -->
<svg version="1.1" id="Layer_1" xmlns="http://www.w3.org/2000/svg" xmlns:xlink="http://www.w3.org/1999/xlink" x="0px" y="0px"
	 viewBox="0 0 1008 648" style="enable-background:new 0 0 1008 648;" xml:space="preserve">
<style type="text/css">
	.st0{fill:#F7F7F7;}
	.st1{fill:#B7B5B1;}
	.st2{fill:#254C81;}
</style>
<rect y="0" class="st0" width="1008" height="648"/>
<g>
	<g>
		<g>
			<g id="Shape_1_3_">
				<g>
					<path class="st1" d="M621,312.8c-26.9-155.9-230.4-125.6-234,0c11.8,6,19.1,9.8,19.1,9.8s-6.2,3.7-19.1,12.1
						c23.5,152.7,223.4,130.5,234-0.1c-12.7-7.8-19.7-11.9-19.7-11.9S607.3,319.7,621,312.8z M521,367.2l-19.1-32.8l-19.4,32.8
						l-14.7-1l27.6-46.5l-24.9-40.2l15-1.3l17.7,29.8l17.7-28.5l14,0.3l-23.2,39.6l25.6,47.5L521,367.2z"/>
				</g>
			</g>
		</g>
		<g id="Shape_1_2_">
			<g>
				<path class="st2" d="M611.5,306.7c-36.4-138.4-203.5-101-215,0c23.2,13.1,28.5,16.1,28.5,16.1s-8.9,5.8-28.5,18.1
					c24.9,133.1,205.2,107.5,215-0.1c-18.1-11.4-28.9-18-28.9-18S607.2,309,611.5,306.7z M521,367.3l-19.1-32.8l-19.4,32.8l-14.7-1
					l27.6-46.5l-24.9-40.2l15-1.3l17.7,29.8l17.7-28.5l14,0.3l-23.2,39.4l25.6,47.5L521,367.3z"/>
			</g>
		</g>
	</g>
</g>
</svg>
