<?xml version="1.0" encoding="utf-8"?>
<!-- Generator: Adobe Illustrator 25.0.1, SVG Export Plug-In . SVG Version: 6.00 Build 0)  -->
<svg version="1.1" id="Layer_1" xmlns="http://www.w3.org/2000/svg" xmlns:xlink="http://www.w3.org/1999/xlink" x="0px" y="0px"
	 viewBox="0 0 1176.4 378.4" style="enable-background:new 0 0 1176.4 378.4;" xml:space="preserve">
<style type="text/css">
	.st0{fill:#FFFFFF;}
</style>
<g id="Layer_1_1_">
</g>
<g id="Layer_2_1_">
	<g>
		<g>
			<g>
				<g>
					<path class="st0" d="M980.2,219.7c-13.2-13.3-19.9-36.2-19.9-68.5S966.8,96,980,82.6s38.1-20.2,74.7-20.2l117.5-0.1l-45.8-57.7
						l-73.9,0.1c-59.1,0.1-102.1,11.9-128.9,35.6C911.3,50.9,902,64.7,895.4,81c7.4,20,11.1,43.5,11.1,70.3s-3.7,50.2-11,70.3
						c6.7,16.3,16,30,28.3,40.7c26.9,23.5,69.9,35.3,129,35.2l68.4-0.1l45.3-57.8l-111.6,0.1C1018.4,239.7,993.5,233,980.2,219.7z"
						/>
					<path class="st0" d="M662.4,5l-52.1,0.1h-14.5c-13.8,0.2-25.7,6.6-35.7,19.4l-55.9,71.1l-56-71C437.9,11.7,426,5.3,412.4,5.3
						h-43.9c-7.5,0-11.2,3.1-11.2,9.4c0,3.1,1.4,6.5,4.3,10l97.1,122.8L355.9,279c-2.9,3.7-4.3,7-4.3,10c0.8,6.1,4.6,9.2,11.4,9.2
						h43.5c13.6,0,25.5-6.4,35.5-19.2l62.2-79.5l62.4,79.4c10.1,12.8,21.9,19.2,35.6,19.2l66-0.1L549.8,147.5L662.4,5z"/>
					<path class="st0" d="M854,262.3c12.3-10.8,21.6-24.5,28.2-40.8c2.6-6.4,4.9-13.1,6.6-20.3c3.6-14.9,5.4-31.5,5.4-49.9
						s-1.9-35.1-5.5-49.9c-1.8-7.2-4.1-14-6.7-20.3c-6.7-16.3-16-30-28.3-40.8C826.8,16.7,783.8,4.9,724.7,5L678,5l-45.7,57.9
						l90.2-0.1c36.6,0,61.6,6.6,74.8,20s19.9,36.3,19.9,68.6s-6.5,55.2-19.7,68.5c-13.2,13.4-38.1,20.1-74.7,20.1l-84.4,0.1
						l45.5,57.7h41.2C784.2,297.8,827.1,285.9,854,262.3z"/>
					<polygon class="st0" points="624.5,221.9 624.3,73.4 565.9,147.7 					"/>
					<path class="st0" d="M1081.4,341.6l22.2-22.7c0.4-0.4,0.5-1.1,0.3-1.6c-0.2-0.6-0.8-0.9-1.4-0.9h-7.9c-0.4,0-0.8,0.2-1.1,0.5
						l-28.4,29.6v-28.6c0-0.8-0.7-1.5-1.5-1.5h-6.1c-0.8,0-1.5,0.7-1.5,1.5l0.1,54.1c0,0.8,0.7,1.5,1.5,1.5h6.1
						c0.8,0,1.5-0.7,1.5-1.5v-13.9l9.9-10l19.7,24.8c0.3,0.4,0.7,0.6,1.2,0.6h7.6c0.6,0,1.1-0.3,1.3-0.8c0.2-0.5,0.2-1.1-0.2-1.6
						L1081.4,341.6z"/>
					<path class="st0" d="M1030.4,350.9c1.4-0.4,2.7-0.9,3.9-1.5c1.9-0.9,3.6-2.1,5.1-3.6c1.4-1.4,2.6-3.2,3.4-5.1
						c0.8-2,1.2-4.2,1.2-6.6c0-2.6-0.5-5.1-1.5-7.2c-1-2.2-2.5-4.1-4.3-5.6s-4.1-2.7-6.6-3.6c-2.5-0.8-5.4-1.2-8.5-1.2h-23.2
						c-0.8,0-1.5,0.7-1.5,1.5l0.1,54.1c0,0.8,0.7,1.5,1.5,1.5h6.1c0.8,0,1.5-0.7,1.5-1.5v-19.5h13.2L1036,373
						c0.3,0.4,0.7,0.6,1.2,0.6h7.5c0.6,0,1.1-0.3,1.3-0.8c0.3-0.5,0.2-1.1-0.1-1.6L1030.4,350.9z M1022.5,344.1h-15.1v-19h15.2
						c4,0,7.2,0.8,9.3,2.5c2.1,1.6,3.1,3.8,3.1,6.8c0,1.5-0.3,2.9-0.9,4.1s-1.4,2.2-2.5,3s-2.4,1.5-3.9,2
						C1026.1,343.9,1024.3,344.1,1022.5,344.1z"/>
					<path class="st0" d="M982.4,324.3c-2.5-2.7-5.6-4.8-9.2-6.4c-3.6-1.6-7.5-2.4-11.8-2.4s-8.3,0.8-11.9,2.4
						c-3.6,1.6-6.7,3.8-9.2,6.5s-4.5,5.9-5.9,9.4s-2.1,7.3-2.1,11.2c0,3.9,0.7,7.7,2.1,11.2c1.4,3.5,3.4,6.7,5.9,9.4
						c2.6,2.7,5.6,4.8,9.2,6.4c3.6,1.6,7.5,2.4,11.8,2.4s8.3-0.8,11.9-2.4c3.6-1.6,6.7-3.8,9.2-6.5s4.5-5.9,5.9-9.4
						s2.1-7.3,2.1-11.3c0-3.9-0.7-7.7-2.1-11.2C986.9,330.2,984.9,327,982.4,324.3z M979.6,353.2c-1,2.5-2.3,4.7-4.1,6.6
						c-1.7,1.8-3.8,3.3-6.2,4.4s-5,1.6-7.9,1.6s-5.5-0.5-7.9-1.6s-4.5-2.6-6.3-4.5s-3.2-4.1-4.1-6.6c-1-2.5-1.5-5.3-1.5-8.2
						c0-2.9,0.5-5.6,1.5-8.1s2.3-4.7,4.1-6.6c1.7-1.8,3.8-3.3,6.2-4.4s5.1-1.6,7.9-1.6c2.9,0,5.5,0.5,7.9,1.6s4.5,2.6,6.3,4.4
						s3.1,4.1,4.1,6.6c1,2.6,1.5,5.3,1.5,8.2C981,348,980.5,350.7,979.6,353.2z"/>
					<path class="st0" d="M927.9,316.6L927.9,316.6h-6.4c-0.6,0-1.2,0.4-1.4,1l-14,40.8l-13.5-40.9c-0.2-0.6-0.8-1-1.4-1h-5
						c-0.6,0-1.2,0.4-1.4,1l-13.4,40.9l-14-40.8c-0.2-0.6-0.8-1-1.4-1h-6.6c-0.5,0-0.9,0.2-1.2,0.6s-0.3,0.9-0.2,1.4l19.4,54.4
						c0.2,0.6,0.8,1,1.4,1h5.1c0.6,0,1.2-0.4,1.4-1l13.4-39.7L902,373c0.2,0.6,0.8,1,1.4,1h5.2c0.6,0,1.2-0.4,1.4-1l19.2-54.3
						c0.1-0.2,0.2-0.4,0.2-0.7C929.3,317.2,928.7,316.6,927.9,316.6z"/>
					<path class="st0" d="M841.9,316.7h-42.4c-0.8,0-1.5,0.7-1.5,1.5v5.6c0,0.8,0.7,1.5,1.5,1.5h16.6l0.1,46.9
						c0,0.8,0.7,1.5,1.5,1.5h6.1c0.8,0,1.5-0.7,1.5-1.5l-0.1-46.9h16.6c0.8,0,1.5-0.7,1.5-1.5v-5.6
						C843.4,317.3,842.7,316.7,841.9,316.7z"/>
					<path class="st0" d="M791.1,365.2h-31.9v-15.9h28c0.8,0,1.5-0.7,1.5-1.5v-5.6c0-0.8-0.7-1.5-1.5-1.5h-28v-15.5h31.5
						c0.8,0,1.5-0.7,1.5-1.5v-5.6c0-0.8-0.7-1.5-1.5-1.5h-39.1c-0.8,0-1.5,0.7-1.5,1.5l0.1,54.1c0,0.8,0.7,1.5,1.5,1.5h39.5
						c0.8,0,1.5-0.7,1.5-1.5v-5.6C792.6,365.9,792,365.2,791.1,365.2z"/>
					<path class="st0" d="M736.3,316.8h-5.9c-0.8,0-1.5,0.7-1.5,1.5v39l-31.4-39.9c-0.3-0.4-0.7-0.6-1.2-0.6h-5.7
						c-0.8,0-1.5,0.7-1.5,1.5l0.1,54.1c0,0.8,0.7,1.5,1.5,1.5h5.9c0.8,0,1.5-0.7,1.5-1.5v-40l32.3,40.9c0.3,0.4,0.7,0.6,1.2,0.6h4.9
						c0.8,0,1.5-0.7,1.5-1.5l-0.1-54.1C737.8,317.4,737.2,316.8,736.3,316.8z"/>
				</g>
			</g>
		</g>
		<g>
			<g>
				<g id="Shape_1_3_">
					<g>
						<path class="st0" d="M297.3,137.1C263.6-58.1,8.8-20.3,4.2,137.1c14.7,7.6,23.9,12.3,23.9,12.3s-7.8,4.7-24.1,15.1
							c29.5,191.3,280,163.5,293.3-0.3c-15.9-9.8-24.6-14.9-24.6-14.9S280.1,145.7,297.3,137.1z M171.9,205.2L148,164.1l-24.3,41.1
							l-18.4-1.3l34.6-58.3l-31.2-50.3l18.8-1.7l22.2,37.3l22.2-35.6l17.5,0.4l-29,49.5l32,59.5L171.9,205.2z"/>
					</g>
				</g>
			</g>
			<g id="Shape_1_2_">
				<g>
					<path class="st0" d="M285.4,129.4C239.8-44,30.4,2.9,16.1,129.4c29,16.3,35.6,20.2,35.6,20.2s-11.2,7.2-35.7,22.7
						C47.2,339,273,307,285.4,172.1c-22.8-14.3-36.2-22.6-36.2-22.6S279.9,132.4,285.4,129.4z M171.9,205.4L148,164.3l-24.3,41.1
						l-18.4-1.3l34.6-58.3l-31.2-50.3l18.8-1.7l22.2,37.3l22.2-35.6l17.5,0.4l-29,49.5l32,59.5L171.9,205.4z"/>
				</g>
			</g>
		</g>
	</g>
</g>
</svg>
