<?xml version="1.0" encoding="utf-8"?>
<!-- Generator: Adobe Illustrator 25.0.1, SVG Export Plug-In . SVG Version: 6.00 Build 0)  -->
<svg version="1.1" xmlns="http://www.w3.org/2000/svg" xmlns:xlink="http://www.w3.org/1999/xlink" x="0px" y="0px"
	 viewBox="0 0 1176.4 378.4" style="enable-background:new 0 0 1176.4 378.4;" xml:space="preserve">
<style type="text/css">
	.st0{fill:#15294C;}
	.st1{fill:#416BAA;}
	.st2{fill:#B8B5B1;}
	.st3{fill:#254C82;}
</style>
<g id="Layer_1">
</g>
<g id="Layer_2">
	<g>
		<g>
			<g>
				<g>
					<path class="st0" d="M980.2,219.7c-13.2-13.3-19.9-36.2-19.9-68.5c0-32.3,6.5-55.2,19.7-68.6c13.2-13.4,38.1-20.2,74.7-20.2
						l117.5-0.1l-45.8-57.7l-73.9,0.1c-59.1,0.1-102.1,11.9-128.9,35.6C911.3,50.9,902,64.7,895.4,81c7.4,20,11.1,43.5,11.1,70.3
						c0,26.8-3.7,50.2-11,70.3c6.7,16.3,16,30,28.3,40.7c26.9,23.5,69.9,35.3,129,35.2l68.4-0.1l45.3-57.8l-111.6,0.1
						C1018.4,239.7,993.5,233,980.2,219.7z"/>
					<path class="st0" d="M662.4,5l-52.1,0.1l-14.5,0c-13.8,0.2-25.7,6.6-35.7,19.4l-55.9,71.1l-56-71C437.9,11.7,426,5.3,412.4,5.3
						l-43.9,0c-7.5,0-11.2,3.1-11.2,9.4c0,3.1,1.4,6.5,4.3,10l97.1,122.8L355.9,279c-2.9,3.7-4.3,7-4.3,10c0.8,6.1,4.6,9.2,11.4,9.2
						l43.5,0c13.6,0,25.5-6.4,35.5-19.2l62.2-79.5l62.4,79.4c10.1,12.8,21.9,19.2,35.6,19.2l66-0.1L549.8,147.5L662.4,5z"/>
					<path class="st0" d="M854,262.3c12.3-10.8,21.6-24.5,28.2-40.8c2.6-6.4,4.9-13.1,6.6-20.3c3.6-14.9,5.4-31.5,5.4-49.9
						c0-18.4-1.9-35.1-5.5-49.9c-1.8-7.2-4.1-14-6.7-20.3c-6.7-16.3-16-30-28.3-40.8c-26.9-23.6-69.9-35.4-129-35.3L678,5
						l-45.7,57.9l90.2-0.1c36.6,0,61.6,6.6,74.8,20c13.2,13.4,19.9,36.3,19.9,68.6s-6.5,55.2-19.7,68.5
						c-13.2,13.4-38.1,20.1-74.7,20.1l-84.4,0.1l45.5,57.7l41.2,0C784.2,297.8,827.1,285.9,854,262.3z"/>
					<polygon class="st1" points="624.5,221.9 624.3,73.4 565.9,147.7 					"/>
					<path class="st1" d="M1081.4,341.6l22.2-22.7c0.4-0.4,0.5-1.1,0.3-1.6c-0.2-0.6-0.8-0.9-1.4-0.9l-7.9,0c-0.4,0-0.8,0.2-1.1,0.5
						l-28.4,29.6l0-28.6c0-0.8-0.7-1.5-1.5-1.5l-6.1,0c-0.8,0-1.5,0.7-1.5,1.5l0.1,54.1c0,0.8,0.7,1.5,1.5,1.5l6.1,0
						c0.8,0,1.5-0.7,1.5-1.5l0-13.9l9.9-10l19.7,24.8c0.3,0.4,0.7,0.6,1.2,0.6l7.6,0c0.6,0,1.1-0.3,1.3-0.8c0.2-0.5,0.2-1.1-0.2-1.6
						L1081.4,341.6z"/>
					<path class="st1" d="M1030.4,350.9c1.4-0.4,2.7-0.9,3.9-1.5c1.9-0.9,3.6-2.1,5.1-3.6c1.4-1.4,2.6-3.2,3.4-5.1
						c0.8-2,1.2-4.2,1.2-6.6c0-2.6-0.5-5.1-1.5-7.2c-1-2.2-2.5-4.1-4.3-5.6c-1.8-1.5-4.1-2.7-6.6-3.6c-2.5-0.8-5.4-1.2-8.5-1.2
						l-23.2,0c-0.8,0-1.5,0.7-1.5,1.5l0.1,54.1c0,0.8,0.7,1.5,1.5,1.5l6.1,0c0.8,0,1.5-0.7,1.5-1.5l0-19.5l13.2,0l15.2,20.4
						c0.3,0.4,0.7,0.6,1.2,0.6l7.5,0c0.6,0,1.1-0.3,1.3-0.8c0.3-0.5,0.2-1.1-0.1-1.6L1030.4,350.9z M1022.5,344.1l-15.1,0l0-19
						l15.2,0c4,0,7.2,0.8,9.3,2.5c2.1,1.6,3.1,3.8,3.1,6.8c0,1.5-0.3,2.9-0.9,4.1c-0.6,1.2-1.4,2.2-2.5,3c-1.1,0.8-2.4,1.5-3.9,2
						C1026.1,343.9,1024.3,344.1,1022.5,344.1z"/>
					<path class="st1" d="M982.4,324.3c-2.5-2.7-5.6-4.8-9.2-6.4c-3.6-1.6-7.5-2.4-11.8-2.4c-4.3,0-8.3,0.8-11.9,2.4
						c-3.6,1.6-6.7,3.8-9.2,6.5c-2.5,2.7-4.5,5.9-5.9,9.4c-1.4,3.5-2.1,7.3-2.1,11.2c0,3.9,0.7,7.7,2.1,11.2
						c1.4,3.5,3.4,6.7,5.9,9.4c2.6,2.7,5.6,4.8,9.2,6.4c3.6,1.6,7.5,2.4,11.8,2.4c4.3,0,8.3-0.8,11.9-2.4c3.6-1.6,6.7-3.8,9.2-6.5
						c2.5-2.7,4.5-5.9,5.9-9.4c1.4-3.5,2.1-7.3,2.1-11.3c0-3.9-0.7-7.7-2.1-11.2C986.9,330.2,984.9,327,982.4,324.3z M979.6,353.2
						c-1,2.5-2.3,4.7-4.1,6.6c-1.7,1.8-3.8,3.3-6.2,4.4c-2.4,1.1-5,1.6-7.9,1.6c-2.9,0-5.5-0.5-7.9-1.6c-2.4-1.1-4.5-2.6-6.3-4.5
						c-1.8-1.9-3.2-4.1-4.1-6.6c-1-2.5-1.5-5.3-1.5-8.2c0-2.9,0.5-5.6,1.5-8.1c1-2.5,2.3-4.7,4.1-6.6c1.7-1.8,3.8-3.3,6.2-4.4
						c2.4-1.1,5.1-1.6,7.9-1.6c2.9,0,5.5,0.5,7.9,1.6c2.4,1.1,4.5,2.6,6.3,4.4c1.8,1.8,3.1,4.1,4.1,6.6c1,2.6,1.5,5.3,1.5,8.2
						C981,348,980.5,350.7,979.6,353.2z"/>
					<path class="st1" d="M927.9,316.6L927.9,316.6l-6.4,0c-0.6,0-1.2,0.4-1.4,1l-14,40.8l-13.5-40.9c-0.2-0.6-0.8-1-1.4-1l-5,0
						c-0.6,0-1.2,0.4-1.4,1l-13.4,40.9l-14-40.8c-0.2-0.6-0.8-1-1.4-1l-6.6,0c-0.5,0-0.9,0.2-1.2,0.6c-0.3,0.4-0.3,0.9-0.2,1.4
						l19.4,54.4c0.2,0.6,0.8,1,1.4,1l5.1,0c0.6,0,1.2-0.4,1.4-1l13.4-39.7L902,373c0.2,0.6,0.8,1,1.4,1l5.2,0c0.6,0,1.2-0.4,1.4-1
						l19.2-54.3c0.1-0.2,0.2-0.4,0.2-0.7C929.3,317.2,928.7,316.6,927.9,316.6z"/>
					<path class="st1" d="M841.9,316.7l-42.4,0c-0.8,0-1.5,0.7-1.5,1.5l0,5.6c0,0.8,0.7,1.5,1.5,1.5l16.6,0l0.1,46.9
						c0,0.8,0.7,1.5,1.5,1.5l6.1,0c0.8,0,1.5-0.7,1.5-1.5l-0.1-46.9l16.6,0c0.8,0,1.5-0.7,1.5-1.5l0-5.6
						C843.4,317.3,842.7,316.7,841.9,316.7z"/>
					<path class="st1" d="M791.1,365.2l-31.9,0l0-15.9l28,0c0.8,0,1.5-0.7,1.5-1.5l0-5.6c0-0.8-0.7-1.5-1.5-1.5l-28,0l0-15.5l31.5,0
						c0.8,0,1.5-0.7,1.5-1.5l0-5.6c0-0.8-0.7-1.5-1.5-1.5l-39.1,0c-0.8,0-1.5,0.7-1.5,1.5l0.1,54.1c0,0.8,0.7,1.5,1.5,1.5l39.5,0
						c0.8,0,1.5-0.7,1.5-1.5l0-5.6C792.6,365.9,792,365.2,791.1,365.2z"/>
					<path class="st1" d="M736.3,316.8l-5.9,0c-0.8,0-1.5,0.7-1.5,1.5l0,39l-31.4-39.9c-0.3-0.4-0.7-0.6-1.2-0.6l-5.7,0
						c-0.8,0-1.5,0.7-1.5,1.5l0.1,54.1c0,0.8,0.7,1.5,1.5,1.5l5.9,0c0.8,0,1.5-0.7,1.5-1.5l0-40l32.3,40.9c0.3,0.4,0.7,0.6,1.2,0.6
						l4.9,0c0.8,0,1.5-0.7,1.5-1.5l-0.1-54.1C737.8,317.4,737.2,316.8,736.3,316.8z"/>
				</g>
			</g>
		</g>
		<g>
			<g>
				<g id="Shape_1_3_">
					<g>
						<path class="st2" d="M297.3,137.1C263.6-58.1,8.8-20.3,4.2,137.1c14.7,7.6,23.9,12.3,23.9,12.3s-7.8,4.7-24.1,15.1
							C33.5,355.8,284,328,297.3,164.2c-15.9-9.8-24.6-14.9-24.6-14.9S280.1,145.7,297.3,137.1z M171.9,205.2L148,164.1l-24.3,41.1
							l-18.4-1.3l34.6-58.3l-31.2-50.3l18.8-1.7l22.2,37.3l22.2-35.6l17.5,0.4l-29,49.5l32,59.5L171.9,205.2z"/>
					</g>
				</g>
			</g>
			<g id="Shape_1_2_">
				<g>
					<path class="st3" d="M285.4,129.4C239.8-44,30.4,2.9,16.1,129.4c29,16.3,35.6,20.2,35.6,20.2s-11.2,7.2-35.7,22.7
						c31.2,166.7,257,134.7,269.4-0.2c-22.8-14.3-36.2-22.6-36.2-22.6S279.9,132.4,285.4,129.4z M171.9,205.4L148,164.3l-24.3,41.1
						l-18.4-1.3l34.6-58.3l-31.2-50.3l18.8-1.7l22.2,37.3l22.2-35.6l17.5,0.4l-29,49.5l32,59.5L171.9,205.4z"/>
				</g>
			</g>
		</g>
	</g>
</g>
</svg>
