<svg width="20" height="20" viewBox="0 0 20 20" fill="none" xmlns="http://www.w3.org/2000/svg">
    <path fill-rule="evenodd" clip-rule="evenodd"
          d="M10.5284 2C10.8108 2.03869 11.095 2.06738 11.3753 2.11767C13.5812 2.51347 15.2961 3.66391 16.5578 5.50569C16.6547 5.64725 16.7427 5.79495 16.834 5.94038C16.8414 5.95225 16.8416 5.96864 16.8495 6.00031C16.7867 6.00031 16.7316 6.00031 16.6766 6.00031C14.4531 6.00031 12.2296 6.00063 10.0061 6.00013C9.36466 6 8.73487 6.07655 8.1529 6.36081C7.1131 6.86875 6.42497 7.68938 6.0601 8.7848C6.0408 8.84272 6.02196 8.90083 5.9953 8.98202C5.95604 8.92178 5.92782 8.88167 5.90282 8.83961C5.18752 7.63656 4.47444 6.43219 3.7544 5.23198C3.6884 5.12192 3.6993 5.05555 3.77535 4.96217C5.02271 3.43091 6.62241 2.49433 8.55763 2.12672C8.85762 2.06969 9.16308 2.04148 9.46602 2C9.82015 2 10.1742 2 10.5284 2Z"
          fill="currentColor"/>
    <path fill-rule="evenodd" clip-rule="evenodd"
          d="M2 9.4683C2.04147 9.14936 2.07403 8.82897 2.12619 8.51177C2.26992 7.63733 2.5532 6.81008 2.99175 6.01562C3.02284 6.05797 3.0487 6.08677 3.06745 6.11961C4.13245 7.98563 5.21023 9.84453 6.25464 11.722C6.66242 12.4551 7.16902 13.0744 7.88972 13.5043C8.86142 14.084 9.89398 14.2575 10.993 13.9334C11.0226 13.9246 11.0529 13.9175 11.083 13.9106C11.087 13.9097 11.0922 13.9146 11.1069 13.9217C11.0835 13.9655 11.0615 14.0098 11.0368 14.0525C10.3215 15.2916 9.60495 16.5299 8.89259 17.7705C8.83633 17.8685 8.78831 17.905 8.66447 17.8847C5.39239 17.348 2.73388 14.7614 2.13448 11.5181C2.08353 11.2424 2.06339 10.961 2.02783 10.6824C2.02133 10.6315 2.00941 10.5814 2 10.5309C2 10.1767 2 9.82248 2 9.4683Z"
          fill="currentColor"/>
    <path fill-rule="evenodd" clip-rule="evenodd"
          d="M10.0977 17.9947C10.1363 17.9235 10.1596 17.8778 10.1853 17.8335C11.2289 16.0335 12.2678 14.2308 13.3199 12.4357C13.5841 11.985 13.8424 11.5368 13.9654 11.024C14.3099 9.58798 13.9287 8.34122 12.9789 7.24311C12.9448 7.20378 12.9087 7.16617 12.8736 7.12775C12.8421 7.0933 12.8105 7.05885 12.7649 7.009C12.8167 7.00346 12.854 6.99597 12.8912 6.99597C14.3489 6.99536 15.8066 6.9971 17.2643 6.99219C17.3753 6.99183 17.417 7.03588 17.4559 7.12591C17.7967 7.91534 17.9466 8.74603 17.9887 9.59884C18.1532 12.9359 16.2585 16.0044 13.1999 17.355C12.2545 17.7725 11.2596 17.9657 10.23 17.9946C10.1942 17.9955 10.1583 17.9947 10.0977 17.9947Z"
          fill="currentColor"/>
    <path fill-rule="evenodd" clip-rule="evenodd"
          d="M10.0092 6.99219C11.6628 6.99574 13.0026 8.34469 12.9988 10.0022C12.9949 11.6557 11.6455 12.9964 9.98905 12.9924C8.33523 12.9884 6.99629 11.6399 7.00001 9.98197C7.00373 8.32744 8.35121 6.98866 10.0092 6.99219Z"
          fill="currentColor"/>
</svg>
