<?xml version="1.0" encoding="UTF-8"?>
<svg id="Layer_4" data-name="Layer 4" xmlns="http://www.w3.org/2000/svg" viewBox="0 0 56.7 56.7">
  <path id="Doru" d="M24.7,3.4h-10.8c-3.8,0-6.9,3-6.9,6.9v19.2c0,2.3,1.8,4.1,4.1,4.1s4.1-1.8,4.1-4.1V13.3c0-1,.8-1.8,1.8-1.8h7.6c9.2,0,16.8,7.5,16.8,16.8s-7.5,16.8-16.8,16.8h-6.1c-.7,0-1.1-.8-.6-1.3l7.5-9.7-1.6-4.6c0-.3.2-.7.6-.6l4.2,1.1.8-1.1-1-3c0-.3.2-.7.6-.6l2.8.7.8-1.1c.6-.7.8-1.7.8-2.5l-.2-2.4c0-1-1-1.8-2-1.7l-2.6.3c-1,0-1.8.6-2.4,1.4l-17.5,22.3c-3.5,4.5-.3,11.1,5.4,11.1h10.6c13.8,0,24.9-11.2,24.9-24.9S38.4,3.4,24.7,3.4h0Z"/>
</svg>