<?xml version="1.0" encoding="UTF-8"?>
<svg id="Layer_4" data-name="Layer 4" xmlns="http://www.w3.org/2000/svg" xmlns:xlink="http://www.w3.org/1999/xlink" viewBox="0 0 56.7 56.7">
  <defs>
    <style>
      .cls-1 {
        fill: #fff;
      }

      .cls-2 {
        fill: url(#linear-gradient);
      }
    </style>
    <linearGradient id="linear-gradient" x1="0" y1="28.35" x2="56.7" y2="28.35" gradientUnits="userSpaceOnUse">
      <stop offset="0" stop-color="#0184ff"/>
      <stop offset="1" stop-color="#0cc5ff"/>
    </linearGradient>
  </defs>
  <path id="Doru" class="cls-1" d="M24.73,3.39h-10.76c-3.79,0-6.88,3.05-6.88,6.88v19.21c0,2.26,1.85,4.11,4.11,4.11s4.11-1.85,4.11-4.11V13.32c0-.97.78-1.75,1.75-1.75h7.62c9.23,0,16.76,7.48,16.76,16.76s-7.48,16.76-16.76,16.76h-6.14c-.69,0-1.11-.78-.65-1.34l7.53-9.7-1.57-4.62c-.09-.32.18-.69.55-.6l4.25,1.06.83-1.06-1.02-3.05c-.09-.32.18-.69.55-.6l2.77.69.83-1.06c.55-.74.83-1.66.78-2.54l-.23-2.45c-.09-1.02-1.02-1.75-2.03-1.66l-2.59.32c-.97.09-1.85.6-2.45,1.39l-17.45,22.35c-3.51,4.48-.32,11.08,5.4,11.08h10.62c13.76,0,24.93-11.17,24.93-24.93S38.44,3.44,24.68,3.44h0l.05-.05Z"/>
  <g id="imToken">
    <path class="cls-2" d="M48.7,56.7H8c-4.4,0-8-3.6-8-8V8C0,3.6,3.6,0,8,0h40.7C53.1,0,56.7,3.6,56.7,8v40.7c0,4.4-3.6,8-8,8Z"/>
    <path class="cls-1" d="M49.54,14.33c1.4,19.03-10.83,28.02-21.79,28.98-10.19.89-19.79-5.37-20.63-15-.69-7.95,4.22-11.34,8.08-11.67,3.97-.35,7.31,2.39,7.6,5.71.28,3.19-1.71,4.64-3.09,4.76-1.09.1-2.47-.57-2.59-1.99-.11-1.23.36-1.39.25-2.69-.2-2.32-2.22-2.59-3.33-2.49-1.34.12-3.77,1.68-3.43,5.57.34,3.93,4.11,7.03,9.04,6.6,5.33-.47,9.03-4.61,9.31-10.43,0-.31.06-.61.19-.89h0c.06-.13.12-.25.2-.36.11-.17.26-.36.45-.56t0,0c.14-.15.3-.32.49-.5,2.33-2.2,10.71-7.37,18.63-5.73.17.04.32.13.43.25.11.13.18.29.19.46Z"/>
  </g>
</svg>