<svg width="20" height="20" viewBox="0 0 20 20" fill="none" xmlns="http://www.w3.org/2000/svg">
    <path d="M10.1085 6.59717C9.4765 6.59717 8.49819 5.87859 7.46794 5.90457C6.1087 5.92188 4.86201 6.6924 4.16075 7.91312C2.74956 10.3632 3.79713 13.9821 5.17368 15.9733C5.84897 16.943 6.64547 18.0338 7.70169 17.9992C8.71463 17.9559 9.09556 17.3412 10.3249 17.3412C11.5457 17.3412 11.892 17.9992 12.9655 17.9732C14.0564 17.9559 14.749 16.9863 15.4156 16.008C16.1861 14.8825 16.5064 13.7916 16.5238 13.731C16.4978 13.7224 14.4027 12.9172 14.3767 10.4931C14.3594 8.46721 16.0303 7.49756 16.1082 7.45427C15.1559 6.0604 13.6927 5.90457 13.1819 5.86994C11.8487 5.76604 10.7318 6.59717 10.1085 6.59717ZM12.3595 4.55398C12.9222 3.87869 13.2945 2.93502 13.1906 2C12.3854 2.03463 11.4158 2.53677 10.8357 3.21206C10.3163 3.80943 9.86609 4.77042 9.98729 5.68813C10.879 5.75739 11.7967 5.22927 12.3595 4.55398Z"
          fill="currentColor"/>
</svg>
