<svg width="20" height="20" viewBox="0 0 20 20" fill="none" xmlns="http://www.w3.org/2000/svg">
    <path d="M9.97113 15.0644C8.98981 15.0903 8.015 14.8982 7.1172 14.502C6.21939 14.1059 5.42102 13.5156 4.77985 12.7738C4.4796 12.2906 5.02198 11.991 5.26411 12.2906C5.82714 12.9867 6.54691 13.5403 7.36483 13.9064C8.18275 14.2725 9.07574 14.4408 9.97113 14.3975C10.2951 14.4069 10.6192 14.3874 10.9397 14.3395C10.8004 13.0394 10.7777 11.7294 10.8719 10.4252H8.58614V9.94199C8.65921 7.38183 9.21106 4.85784 10.2133 2.49998H2.46508C2.40112 2.49866 2.33756 2.51026 2.27821 2.53408C2.21886 2.5579 2.16495 2.59345 2.11971 2.63859C2.07448 2.68373 2.03886 2.73752 2.01499 2.79675C1.99112 2.85597 1.97949 2.9194 1.98081 2.98323V16.9974C1.98981 17.1226 2.04372 17.2404 2.13266 17.3291C2.2216 17.4179 2.33962 17.4717 2.46508 17.4806H11.4627C11.2462 16.6708 11.0845 15.8475 10.9784 15.0161C10.6447 15.0616 10.3077 15.0778 9.97113 15.0644ZM5.74837 6.7139C5.74837 6.58573 5.79939 6.46282 5.89021 6.37219C5.98102 6.28156 6.1042 6.23065 6.23263 6.23065C6.36106 6.23065 6.48424 6.28156 6.57506 6.37219C6.66587 6.46282 6.71689 6.58573 6.71689 6.7139V7.68039C6.70473 7.79913 6.64808 7.9089 6.5583 7.98775C6.46851 8.06659 6.35219 8.1087 6.23263 8.10565C6.1141 8.10852 5.99895 8.06609 5.91073 7.98705C5.82252 7.908 5.7679 7.7983 5.75805 7.68039L5.74837 6.7139Z"
          fill="currentColor"/>
    <path d="M17.4964 2.5H10.7167C9.71098 4.8669 9.15906 7.40105 9.0896 9.971H11.4431C11.3319 11.4154 11.3319 12.8662 11.4431 14.3106C12.0941 14.2216 12.7195 13.9987 13.2797 13.656C13.8398 13.3132 14.3226 12.8582 14.6973 12.3196C14.9395 12.02 15.4819 12.3196 15.1816 12.8028C14.2485 13.9343 12.9452 14.701 11.5012 14.9678C11.6055 15.8217 11.7673 16.6677 11.9855 17.5H17.4964C17.6218 17.491 17.7399 17.4372 17.8288 17.3485C17.9177 17.2597 17.9716 17.1419 17.9806 17.0168V2.98325C17.9419 2.68363 17.7579 2.5 17.4964 2.5ZM14.2034 7.68041C14.2034 7.80858 14.1524 7.93149 14.0616 8.02212C13.9707 8.11275 13.8476 8.16366 13.7191 8.16366C13.5907 8.16366 13.4675 8.11275 13.3767 8.02212C13.2859 7.93149 13.2349 7.80858 13.2349 7.68041V6.71392C13.2349 6.58575 13.2859 6.46284 13.3767 6.37221C13.4675 6.28158 13.5907 6.23067 13.7191 6.23067C13.8476 6.23067 13.9707 6.28158 14.0616 6.37221C14.1524 6.46284 14.2034 6.58575 14.2034 6.71392V7.68041Z"
          fill="currentColor"/>
</svg>
