<?xml version="1.0" encoding="UTF-8"?>
<svg id="Layer_4" data-name="Layer 4" xmlns="http://www.w3.org/2000/svg" viewBox="0 0 56.7 56.7">
  <defs>
    <style>
      .cls-1 {
        fill: #fff;
      }

      .cls-2 {
        fill: #c1cddb;
      }

      .cls-3 {
        fill: #192945;
      }
    </style>
  </defs>
  <path id="Doru" class="cls-1" d="M24.73,3.39h-10.76c-3.79,0-6.88,3.05-6.88,6.88v19.21c0,2.26,1.85,4.11,4.11,4.11s4.11-1.85,4.11-4.11V13.32c0-.97.78-1.75,1.75-1.75h7.62c9.23,0,16.76,7.48,16.76,16.76s-7.48,16.76-16.76,16.76h-6.14c-.69,0-1.11-.78-.65-1.34l7.53-9.7-1.57-4.62c-.09-.32.18-.69.55-.6l4.25,1.06.83-1.06-1.02-3.05c-.09-.32.18-.69.55-.6l2.77.69.83-1.06c.55-.74.83-1.66.78-2.54l-.23-2.45c-.09-1.02-1.02-1.75-2.03-1.66l-2.59.32c-.97.09-1.85.6-2.45,1.39l-17.45,22.35c-3.51,4.48-.32,11.08,5.4,11.08h10.62c13.76,0,24.93-11.17,24.93-24.93S38.44,3.44,24.68,3.44h0l.05-.05Z"/>
  <g id="xcelpay">
    <path class="cls-2" d="M48.7,56.7H8c-4.4,0-8-3.6-8-8V8C0,3.6,3.6,0,8,0h40.7C53.1,0,56.7,3.6,56.7,8v40.7c0,4.4-3.6,8-8,8Z"/>
    <path class="cls-3" d="M23.71,10.99c1.05-1.48,6.24-1.95,11.22,1.43,7.9,4.37,16.17,14.84,14.5,18.59-1.09,2.44-5.99,2.36-11.82,1.63-.47.82-1.69,2.33-3.4,4.07.97.46,1.76,1,2.44,1.63,1.28,1.18,1.81,3.02.86,3.53-1.06.56-3.92-1.07-7.12-1.36-.09,0-.19-.02-.28-.02-2.88,2.39-6.25,4.65-9.51,5.83-1.57.57-5.76.98-5.76-.55,0-1.07,2.13-2.02,5.3-5.48h0c.05-.05.09-.11.14-.16-.51-.04-1.04-.08-1.6-.14-4.78-.48-7.23-2.04-7.89-5.94-.25.05-.81.16-1.02.16-1.5,0-2.71-1.22-2.71-2.72,0-1.5,1.21-2.72,2.71-2.72.39,0,.76.08,1.1.23,1.38-4.52,4.96-7.51,9.26-8.78,6.39-1.88,11.83.46,14.31,3.17.79-1.43,2.14-2.55,3.57-3.17-1.78-.86-3.81-1.7-5.76-2.51-.63-.26-1.26-.53-1.87-.79-.35-.15-.7-.3-1.03-.45-.08-.04-.16-.07-.24-.11-.26-.12-.51-.23-.75-.35-.11-.05-.23-.11-.34-.16-3.31-1.58-5.5-3.16-4.29-4.87Z"/>
  </g>
</svg>