<?xml version="1.0" encoding="utf-8"?>
<!-- Generator: Adobe Illustrator 25.0.1, SVG Export Plug-In . SVG Version: 6.00 Build 0)  -->
<svg version="1.1" xmlns="http://www.w3.org/2000/svg" xmlns:xlink="http://www.w3.org/1999/xlink" x="0px" y="0px"
	 viewBox="0 0 56.7 56.7" style="enable-background:new 0 0 56.7 56.7;" xml:space="preserve">
<style type="text/css">
	.st0{display:none;}
	.st1{display:inline;fill:#1C2531;}
	.st2{display:inline;fill:#221E55;}
	.st3{display:inline;}
	.st4{fill:#FAD009;}
	.st5{display:inline;fill:#4D89C8;}
	.st6{display:inline;fill-rule:evenodd;clip-rule:evenodd;fill:#FFFFFF;}
	.st7{display:inline;fill:#D8D8D8;}
	.st8{fill:#A4A7A9;}
	.st9{fill:#3ABEB5;}
	.st10{fill:#6E6F72;}
	.st11{display:inline;fill:#4B75BA;}
	.st12{display:inline;fill:#42BFB1;}
	.st13{display:inline;fill:#DC763D;}
	.st14{fill:#FFFFFF;}
	.st15{display:inline;fill:#818FC7;}
	.st16{display:inline;fill:#1D2643;}
	.st17{fill:url(#SVGID_1_);}
	.st18{opacity:0.49;fill:url(#SVGID_2_);enable-background:new    ;}
	.st19{opacity:0.49;fill:url(#SVGID_3_);enable-background:new    ;}
	.st20{opacity:0.49;fill:url(#SVGID_4_);enable-background:new    ;}
	.st21{fill:url(#SVGID_5_);}
	.st22{opacity:0.49;fill:url(#SVGID_6_);enable-background:new    ;}
	.st23{opacity:0.49;fill:url(#SVGID_7_);enable-background:new    ;}
	.st24{opacity:0.49;fill:url(#SVGID_8_);enable-background:new    ;}
	.st25{display:inline;fill:#010101;}
	.st26{display:inline;fill:#FFFFFF;}
	.st27{display:inline;fill:#22689B;}
	.st28{fill:#FFFFFF;enable-background:new    ;}
	.st29{display:inline;fill:#4FBCE8;}
	.st30{display:inline;fill:#49BB88;}
	.st31{fill-rule:evenodd;clip-rule:evenodd;fill:#FFFFFF;}
	.st32{display:inline;fill:#232630;}
	.st33{display:inline;fill:#5154A4;}
	.st34{fill:#F7F6FB;}
	.st35{display:inline;fill:#101010;}
	.st36{fill-rule:evenodd;clip-rule:evenodd;fill:#0E6A3B;}
	.st37{fill-rule:evenodd;clip-rule:evenodd;fill:#43B97D;}
	.st38{fill:#117A45;}
	.st39{display:inline;fill:#30323D;}
	.st40{fill:#FFC73F;}
	.st41{display:inline;fill:url(#SVGID_9_);}
	.st42{display:inline;fill:#229FDA;}
	.st43{display:inline;fill:#5366AF;}
	.st44{fill-rule:evenodd;clip-rule:evenodd;fill:url(#_244633824_1_);}
	.st45{fill:url(#_244633224_1_);}
	.st46{display:inline;fill:#C4C4C4;}
	.st47{fill:#010101;}
	.st48{fill:#C4C4C4;}
	.st49{fill:#254C82;}
	.st50{fill:#E27726;stroke:#E27726;stroke-width:0.1667;stroke-linecap:round;stroke-linejoin:round;}
	.st51{fill:#E37725;stroke:#E37725;stroke-width:0.1667;stroke-linecap:round;stroke-linejoin:round;}
	.st52{fill:#D6C0B3;stroke:#D6C0B3;stroke-width:0.1667;stroke-linecap:round;stroke-linejoin:round;}
	.st53{fill:#243447;stroke:#243447;stroke-width:0.1667;stroke-linecap:round;stroke-linejoin:round;}
	.st54{fill:#CD6328;stroke:#CD6328;stroke-width:0.1667;stroke-linecap:round;stroke-linejoin:round;}
	.st55{fill:#E37525;stroke:#E37525;stroke-width:0.1667;stroke-linecap:round;stroke-linejoin:round;}
	.st56{fill:#F6851F;stroke:#F6851F;stroke-width:0.1667;stroke-linecap:round;stroke-linejoin:round;}
	.st57{fill:#C1AE9E;stroke:#C1AE9E;stroke-width:0.1667;stroke-linecap:round;stroke-linejoin:round;}
	.st58{fill:#171717;stroke:#171717;stroke-width:0.1667;stroke-linecap:round;stroke-linejoin:round;}
	.st59{fill:#763E1A;stroke:#763E1A;stroke-width:0.1667;stroke-linecap:round;stroke-linejoin:round;}
	.st60{display:inline;fill:#097997;}
	.st61{fill:#097997;}
	.st62{display:inline;fill:url(#SVGID_10_);}
	.st63{fill:url(#SVGID_11_);}
	.st64{fill:url(#SVGID_12_);}
</style>
<g id="Layer_21" class="st0">
	<rect x="-6.4" y="-6.1" class="st1" width="70.8" height="69.8"/>
</g>
<g id="bitfi" class="st0">
	<path class="st2" d="M48.7,56.7H8c-4.4,0-8-3.6-8-8V8c0-4.4,3.6-8,8-8h40.7c4.4,0,8,3.6,8,8v40.7C56.7,53.1,53.1,56.7,48.7,56.7z"
		/>
	<g class="st3">
		<path class="st4" d="M49.2,28L39,10.2c-0.1-0.2-0.3-0.3-0.6-0.3H17.8c-0.3,0-0.5,0.1-0.6,0.3L6.9,28c-0.1,0.2-0.1,0.5,0,0.7
			l10.3,17.8c0.1,0.2,0.3,0.3,0.6,0.3h20.5c0.3,0,0.5-0.1,0.6-0.3l10.3-17.8C49.4,28.4,49.4,28.2,49.2,28z M28.2,18l5.9,10.3
			c-0.9,1.6-5,8.6-5.9,10.3h-0.3L22,28.3L27.9,18H28.2z M37.9,45.4H25l-9.9-17.1l6-10.3h5.2L20.6,28c-0.1,0.2-0.1,0.5,0,0.7l6.3,11
			c0,0,0,0.1,0.1,0.1c0.1,0.1,0.2,0.2,0.4,0.2c0.1,0,0.1,0,0.2,0h7.9c0.2,0,0.4-0.1,0.6-0.3l6.3-11c0.1-0.2,0.1-0.5,0-0.7l-9.7-16.8
			h5.2l9.9,17.1L37.9,45.4z"/>
		<circle class="st4" cx="28.1" cy="28.3" r="3.4"/>
	</g>
</g>
<g id="crypterium" class="st0">
	<path class="st5" d="M48.7,56.7H8c-4.4,0-8-3.6-8-8V8c0-4.4,3.6-8,8-8h40.7c4.4,0,8,3.6,8,8v40.7C56.7,53.1,53.1,56.7,48.7,56.7z"
		/>
	<path class="st6" d="M43.2,16.1l-1.2,1.1c-2.8-2.4-6.4-3.6-10.1-3.6c-8.4,0-15.3,6.5-15.9,14.8h-1.6C14.9,19.2,22.6,12,31.9,12
		C36.1,12,40,13.5,43.2,16.1L43.2,16.1L43.2,16.1z M31.9,17.9c3.8,0,7.3,1.8,9.6,4.9l1.1-1.2c-4.4-5.9-12.8-7.1-18.7-2.7
		s-7.1,12.8-2.7,18.7S34,44.7,40,40.3c1-0.8,1.9-1.7,2.7-2.7l-1.2-1.2c-3.8,5.3-11.1,6.5-16.4,2.7c-5.3-3.8-6.5-11.1-2.7-16.4
		C24.6,19.7,28.1,17.9,31.9,17.9L31.9,17.9z M44.5,17.4l-1.2,1.2c0.4,0.4,0.7,0.8,1.1,1.2l1.1-1.2C45.3,18.1,44.9,17.7,44.5,17.4
		L44.5,17.4L44.5,17.4z M14.3,30.7c0.6,9.7,8.9,17,18.6,16.4c3.8-0.2,7.3-1.7,10.2-4.1l-1.2-1.1c-2.8,2.4-6.4,3.6-10.1,3.6
		c-8.4,0-15.3-6.5-15.9-14.8H14.3z M43.4,40.7l1.2,1.2c0.4-0.4,0.7-0.8,1.1-1.3l-1.2-1.2C44.1,39.8,43.8,40.3,43.4,40.7L43.4,40.7
		L43.4,40.7z M31.9,49.5c-11,0-19.9-8.9-19.9-19.9S20.9,9.6,31.9,9.6c5.9,0,11.6,2.7,15.3,7.2l1.2-1.1C40.7,6.6,27.1,5.4,18,13.1
		S7.7,34.3,15.4,43.5c4.1,4.9,10.2,7.7,16.5,7.7c6.4,0,12.4-2.8,16.5-7.8l-1.2-1.2C43.5,46.9,37.9,49.5,31.9,49.5L31.9,49.5z"/>
</g>
<g id="dcent" class="st0">
	<path class="st7" d="M48.7,56.7H8c-4.4,0-8-3.6-8-8V8c0-4.4,3.6-8,8-8h40.7c4.4,0,8,3.6,8,8v40.7C56.7,53.1,53.1,56.7,48.7,56.7z"
		/>
	<g class="st3">
		<path class="st8" d="M28.9,15.2l3.2-1.9V9l-3.3-1.9L28.9,15.2L28.9,15.2z"/>
		<path class="st9" d="M17.1,34.1V21.9l10.6-6.1V7.1L10.3,17.2c-0.4,0.2-0.6,0.6-0.6,1v20.2L17.1,34.1L17.1,34.1z"/>
		<path class="st10" d="M39,35l-10.7,6.1L17.7,35l-7.5,4.3l17.6,10.1c0.3,0.2,0.7,0.2,1.1,0l17.6-10.1L39,35L39,35z"/>
		<path class="st8" d="M46.5,17.2l-7-4v4.4L32,21.9l7.5,4.3V34l7.5,4.3V18.2C47,17.8,46.8,17.4,46.5,17.2z"/>
		<path class="st10" d="M24.5,26.1v8.6l7.3-4.2v-8.6L24.5,26.1z"/>
	</g>
</g>
<g id="ellipal" class="st0">
	<path class="st11" d="M48.7,56.7H8c-4.4,0-8-3.6-8-8V8c0-4.4,3.6-8,8-8h40.7c4.4,0,8,3.6,8,8v40.7C56.7,53.1,53.1,56.7,48.7,56.7z"
		/>
	<path class="st6" d="M19.1,21.1c-0.6,0-1.7,0.7-2.4-0.7c-0.2-0.5-0.2-0.9,0.1-1.4c0.5-0.8,1.5-0.9,2.4-1.1c1-0.2,0.4-0.2,1-0.7
		c0.2-0.3,0.6-0.5,1.1-0.6c0.6-0.1,0.8,0.3,0.9,0.8l4.3-0.5c3.6-0.4,7.8-0.2,11.4,0.1c0.7,0.1,1.3,0.4,1.2,1.1
		c-3.1,0.8-1.4,0.4-4.5,0.5c-3.7,0.1-5.6,0.3-9.1,0.9c-1.2,0.2-2.9,0.5-4.1,0.9c-0.4,2.4-0.7,4.1-0.9,6.6c3.4,0,6.7-0.1,10.1-0.2
		c1.6-0.1,3.2-0.2,4.8-0.3c0.8-0.1,1.6-0.2,2.4-0.2c1.3,0,1.2,0.9,0.8,1.3c-0.4,0.5-1.3,0.5-2,0.6c-0.8,0.1-1.5,0.2-2.3,0.3
		c-4.7,0.6-9.5,0.9-13.9,1.4c0.2,2.3,0.1,4.5,1.1,6.6c0.9,1.9,2.5,2.7,5.3,2.2c3.2-0.5,5.2-2.1,7.4-3.8c0.5-0.4,2-1.7,2.2-2.2
		l0.5,1.4l-0.8,1c-2.3,2.6-5.8,5-9.6,5.7c-1.3,0.2-3.3,0.2-4.5-0.1c-1.3-0.4-2.1-1.2-2.7-2.2c-1.3-2.2-1.4-5.4-1.4-8.3l-1.4-1.7
		c0-0.5,0.3-0.8,0.6-1c0.3-0.3,0.6-0.3,1-0.5L19.1,21.1L19.1,21.1z M49.6,29.1c0.3-3-1-5.6-2.4-8c-0.8-1.4-1.5-2-2.3-3
		c-0.4-0.5-2.1-2.2-2.6-2.6c-0.2-0.1-0.2-0.2-0.4-0.3c-1.3-1.1-2.8-2.2-4.2-3.1C30.8,7.7,21,5.2,14.1,11c-0.4,0.4-0.9,0.9-1.3,1.3
		c-3.9,4.3-5.5,9.1-5.7,15.3c-0.1,3,0.4,6.6,1.3,9.2c0.4,1.3,1,2.7,1.6,3.7c1.4,2.3,2.7,4.1,4.8,5.7c3.5,2.7,8,3.4,12.5,2.6
		c4-0.7,8-2.5,11.2-4.7c0.6-0.4,1-0.7,1.6-1.1c2-1.5,5.2-4.4,6.5-6.5C48.1,34.1,49.3,32.2,49.6,29.1L49.6,29.1z"/>
</g>
<g id="freewallet" class="st0">
	<path class="st3" d="M48.7,56.7H8c-4.4,0-8-3.6-8-8V8c0-4.4,3.6-8,8-8h40.7c4.4,0,8,3.6,8,8v40.7C56.7,53.1,53.1,56.7,48.7,56.7z"
		/>
	<path class="st12" d="M35.3,19.2l6.2-12.1H15.2v1.8v22.6v18.1h3.6V31.5h22.7L35.3,19.2z M18.8,10.8h16.8l-4.4,8.5l4.4,8.5H18.8
		V10.8z"/>
</g>
<g id="frontier" class="st0">
	<path class="st13" d="M48.7,56.7H8c-4.4,0-8-3.6-8-8V8c0-4.4,3.6-8,8-8h40.7c4.4,0,8,3.6,8,8v40.7C56.7,53.1,53.1,56.7,48.7,56.7z"
		/>
	<g class="st3">
		<path class="st14" d="M43.4,7.1l-0.2,0.6l-0.8,2L41.9,11C38,20.6,35,25.2,31.8,25.2c-0.8,0-1.6-0.1-2.4-0.4
			c-0.8-0.3-1.4-0.8-2-1.4L27,23c-1-0.9-1.5-1.2-2.4-1.2c-0.5,0-1.4,0.7-2.6,2.2c-1.6,2.2-2.9,4.6-3.9,7l-0.1,0.3h13.8L30,35H17.1
			v14.6h-3.8V7.1H43.4z M38.1,10.7h-21v14.2c2.5-4.4,4.9-6.6,7.5-6.6c0.9,0,1.7,0.1,2.5,0.4c0.8,0.3,1.5,0.8,2.1,1.4l0.4,0.4
			c1,0.9,1.3,1.1,2.1,1.1C32.7,21.6,35.1,17.8,38.1,10.7z"/>
	</g>
</g>
<g id="guarda" class="st0">
	<path class="st15" d="M48.7,56.7H8c-4.4,0-8-3.6-8-8V8c0-4.4,3.6-8,8-8h40.7c4.4,0,8,3.6,8,8v40.7C56.7,53.1,53.1,56.7,48.7,56.7z"
		/>
	<path id="path0_fill" class="st6" d="M46.8,11.6c0.1,0,0.2,0.1,0.2,0.3l0,0C47,12.7,49,42.6,28.4,49.6c0,0-0.1,0-0.1,0
		c0,0-0.1,0-0.1,0C7.5,42.5,9.7,12.1,9.7,11.8c0-0.1,0.1-0.2,0.2-0.3l18.3-4.5c0,0,0.1,0,0.1,0L46.8,11.6z M28.3,45.8
		C28.4,45.8,28.4,45.8,28.3,45.8C45.5,40,43.7,15,43.6,14.8c0-0.1-0.1-0.2-0.2-0.2l-15.1-3.7c0,0-0.1,0-0.1,0l-15.1,3.7
		c-0.1,0-0.2,0.1-0.2,0.2C13,15,11.2,40,28.3,45.8C28.3,45.8,28.3,45.8,28.3,45.8z M38,19c0.1,0,0.1,0.1,0.1,0.1
		c0,0.2,1.2,16.2-9.8,19.9c0,0,0,0-0.1,0c0,0,0,0-0.1,0c-11-3.7-9.8-19.8-9.8-19.9c0-0.1,0.1-0.1,0.1-0.1l9.7-2.4c0,0,0.1,0,0.1,0
		L38,19z"/>
</g>
<g id="infinity" class="st0">
	<path class="st16" d="M48.7,56.7H8c-4.4,0-8-3.6-8-8V8c0-4.4,3.6-8,8-8h40.7c4.4,0,8,3.6,8,8v40.7C56.7,53.1,53.1,56.7,48.7,56.7z"
		/>
	<g class="st3">
		<g>
			
				<linearGradient id="SVGID_1_" gradientUnits="userSpaceOnUse" x1="827.4875" y1="1391.3998" x2="827.4875" y2="1441.0066" gradientTransform="matrix(1 0 0 1 -808.61 -1379.1199)">
				<stop  offset="1.000000e-02" style="stop-color:#03C0E2"/>
				<stop  offset="0.97" style="stop-color:#34449C"/>
			</linearGradient>
			<path class="st17" d="M30.2,21.7c0-0.1-0.1-0.2-0.2-0.2c-0.1,0-0.2,0-0.3,0.1L29,22.3l-0.1,0.1l-5.4-5.3c-2-2-5.3-2-7.3,0
				l-7.6,7.6c-2,2-2,5.3,0,7.3l7.6,7.6c2,2,5.3,2,7.3,0l1.7-1.7c0.3-0.3,0.5-0.6,0.6-0.9c0.1-0.3,0.2-0.7,0.1-1
				c-0.1-0.3-0.2-0.6-0.4-0.9c-0.1-0.1-0.2-0.2-0.3-0.3c-0.8-0.8-2.2-0.8-3.1,0l-1.8,1.8c-0.1,0.1-0.3,0.2-0.4,0.2
				c-0.1,0.1-0.3,0.1-0.4,0c-0.1-0.1-0.3-0.1-0.4-0.2L11.7,29c-0.1-0.1-0.2-0.3-0.2-0.4c0-0.2,0-0.4,0.1-0.6v0
				c0.1-0.1,7.6-7.6,7.7-7.7c0.1-0.1,0.3-0.2,0.4-0.2c0.1,0,0.1,0,0.2,0c0.2,0,0.4,0.1,0.6,0.2l5.4,5.3l-0.3,0.3L25,26.3
				c-0.1,0.1-0.1,0.3,0,0.5c0,0,0.1,0.1,0.1,0.1l4.8,0.6c0.2,0,0.4-0.1,0.5-0.2c0.1-0.1,0.2-0.3,0.2-0.5L30.2,21.7z"/>
			
				<linearGradient id="SVGID_2_" gradientUnits="userSpaceOnUse" x1="818.8652" y1="1409.4059" x2="822.0577" y2="1412.0769" gradientTransform="matrix(1 0 0 1 -809.55 -1379.7299)">
				<stop  offset="3.000000e-02" style="stop-color:#272361"/>
				<stop  offset="1" style="stop-color:#272361;stop-opacity:0"/>
			</linearGradient>
			<path class="st18" d="M11.6,28.9c-0.2-0.3-0.2-0.6-0.1-0.9c0,0-2.5,2.7-1.3,5.8l1.6,1.6l2.3-3.8L11.6,28.9z"/>
			<linearGradient id="SVGID_3_" gradientUnits="userSpaceOnUse" x1="21.6662" y1="38.3257" x2="23.7189" y2="35.3942">
				<stop  offset="3.000000e-02" style="stop-color:#272361"/>
				<stop  offset="1" style="stop-color:#272361;stop-opacity:0"/>
			</linearGradient>
			<path class="st19" d="M19.4,36.7c1.6,1.5,3.9,2,5.9,1.1c0.3-0.3,0.5-0.6,0.6-0.9c-0.4-0.2-3.4-2.3-3.4-2.3l-1.9,1.8
				C20.3,36.9,19.9,36.9,19.4,36.7z"/>
			<linearGradient id="SVGID_4_" gradientUnits="userSpaceOnUse" x1="17.4618" y1="18.605" x2="16.1105" y2="21.5028">
				<stop  offset="3.000000e-02" style="stop-color:#272361"/>
				<stop  offset="1" style="stop-color:#272361;stop-opacity:0"/>
			</linearGradient>
			<path class="st20" d="M17.5,22l1.8-1.8c0.3-0.2,0.7-0.2,1,0c0,0-3-2.5-6.3-0.9l-0.9,0.9L17.5,22z"/>
		</g>
		<g>
			
				<linearGradient id="SVGID_5_" gradientUnits="userSpaceOnUse" x1="808.0741" y1="1391.2908" x2="808.0741" y2="1440.8976" gradientTransform="matrix(-1 0 0 -1 845.8895 1435.7039)">
				<stop  offset="1.000000e-02" style="stop-color:#03C0E2"/>
				<stop  offset="0.97" style="stop-color:#34449C"/>
			</linearGradient>
			<path class="st21" d="M26.5,35c0,0.1,0.1,0.2,0.2,0.2c0.1,0,0.2,0,0.3-0.1l0.7-0.7l0.1-0.1l5.4,5.3c2,2,5.3,2,7.3,0l7.6-7.6
				c2-2,2-5.3,0-7.3l-7.6-7.6c-2-2-5.3-2-7.3,0l-1.7,1.7c-0.3,0.3-0.5,0.6-0.6,0.9c-0.1,0.3-0.2,0.7-0.1,1c0.1,0.3,0.2,0.6,0.4,0.9
				c0.1,0.1,0.2,0.2,0.3,0.3c0.8,0.8,2.2,0.8,3.1,0l1.8-1.8c0.1-0.1,0.3-0.2,0.4-0.2c0.1-0.1,0.3-0.1,0.4,0c0.1,0.1,0.3,0.1,0.4,0.2
				l7.6,7.6c0.1,0.1,0.2,0.3,0.2,0.4c0,0.2,0,0.4-0.1,0.6v0c-0.1,0.1-7.6,7.6-7.7,7.7c-0.1,0.1-0.3,0.2-0.4,0.2c-0.1,0-0.1,0-0.2,0
				c-0.2,0-0.4-0.1-0.6-0.2l-5.4-5.3l0.3-0.3l0.5-0.5c0.1-0.1,0.1-0.3,0-0.5c0,0-0.1-0.1-0.1-0.1l-4.8-0.6c-0.2,0-0.4,0.1-0.5,0.2
				C26.1,29.6,26,29.8,26,30L26.5,35z"/>
			
				<linearGradient id="SVGID_6_" gradientUnits="userSpaceOnUse" x1="799.4518" y1="1409.2969" x2="802.6443" y2="1411.9679" gradientTransform="matrix(-1 0 0 -1 846.8295 1436.3138)">
				<stop  offset="3.000000e-02" style="stop-color:#272361"/>
				<stop  offset="1" style="stop-color:#272361;stop-opacity:0"/>
			</linearGradient>
			<path class="st22" d="M45.1,27.8c0.2,0.3,0.2,0.6,0.1,0.9c0,0,2.5-2.7,1.3-5.8l-1.6-1.6l-2.3,3.8L45.1,27.8z"/>
			
				<linearGradient id="SVGID_7_" gradientUnits="userSpaceOnUse" x1="2.2528" y1="38.2167" x2="4.3054" y2="35.2852" gradientTransform="matrix(-1 0 0 -1 37.2795 56.5839)">
				<stop  offset="3.000000e-02" style="stop-color:#272361"/>
				<stop  offset="1" style="stop-color:#272361;stop-opacity:0"/>
			</linearGradient>
			<path class="st23" d="M37.2,20c-1.6-1.5-3.9-2-5.9-1.1c-0.3,0.3-0.5,0.6-0.6,0.9c0.4,0.2,3.4,2.3,3.4,2.3l1.9-1.8
				C36.4,19.8,36.8,19.8,37.2,20z"/>
			
				<linearGradient id="SVGID_8_" gradientUnits="userSpaceOnUse" x1="-1.9516" y1="18.496" x2="-3.3029" y2="21.3938" gradientTransform="matrix(-1 0 0 -1 37.2795 56.5839)">
				<stop  offset="3.000000e-02" style="stop-color:#272361"/>
				<stop  offset="1" style="stop-color:#272361;stop-opacity:0"/>
			</linearGradient>
			<path class="st24" d="M39.2,34.7l-1.8,1.8c-0.3,0.2-0.7,0.2-1,0c0,0,3,2.5,6.3,0.9l0.9-0.9L39.2,34.7z"/>
		</g>
	</g>
</g>
<g id="ledger" class="st0">
	<path class="st25" d="M48.7,56.7H8c-4.4,0-8-3.6-8-8V8c0-4.4,3.6-8,8-8h40.7c4.4,0,8,3.6,8,8v40.7C56.7,53.1,53.1,56.7,48.7,56.7z"
		/>
	<path class="st26" d="M6.5,36.2v10.5h16v-2.3H8.8v-8.2H6.5z M46.7,36.2v8.2H33v2.3h16V36.2H46.7z M22.5,20.2v16H33v-2.1h-8.2V20.2
		L22.5,20.2L22.5,20.2z M6.5,9.7v10.5h2.3V12h13.7V9.7H6.5z M33,9.7V12h13.7v8.2H49V9.7H33z"/>
</g>
<g id="lumi" class="st0">
	<path class="st27" d="M48.7,56.7H8c-4.4,0-8-3.6-8-8V8c0-4.4,3.6-8,8-8h40.7c4.4,0,8,3.6,8,8v40.7C56.7,53.1,53.1,56.7,48.7,56.7z"
		/>
	<g class="st3">
		<path class="st28" d="M42,28c0-2.9-2.3-5.2-5.2-5.2c-2.9,0-5.2,2.3-5.2,5.2s2.3,5.2,5.2,5.2C39.6,33.2,42,30.9,42,28z M36.7,30.6
			c-1.5,0-2.7-1.2-2.7-2.7c0-1.5,1.2-2.7,2.7-2.7c1.5,0,2.7,1.2,2.7,2.7C39.4,29.4,38.2,30.6,36.7,30.6z"/>
		<path class="st28" d="M25.2,28c0-2.9-2.3-5.2-5.2-5.2c-2.9,0-5.2,2.3-5.2,5.2s2.3,5.2,5.2,5.2C22.9,33.2,25.2,30.9,25.2,28z
			 M20,30.6c-1.5,0-2.7-1.2-2.7-2.7c0-1.5,1.2-2.7,2.7-2.7c1.5,0,2.7,1.2,2.7,2.7C22.6,29.4,21.4,30.6,20,30.6z"/>
		<path class="st28" d="M28.2,37.3c-2.9,0-5.2,2.3-5.2,5.2c0,2.9,2.3,5.2,5.2,5.2c2.9,0,5.2-2.3,5.2-5.2
			C33.4,39.6,31.1,37.3,28.2,37.3z M28.2,45.2c-1.5,0-2.7-1.2-2.7-2.7c0-1.5,1.2-2.7,2.7-2.7c1.5,0,2.7,1.2,2.7,2.7
			C30.9,44,29.7,45.2,28.2,45.2z"/>
		<path class="st28" d="M12.3,37.3c-2.9,0-5.2,2.3-5.2,5.2c0,2.9,2.3,5.2,5.2,5.2c2.9,0,5.2-2.3,5.2-5.2
			C17.6,39.6,15.2,37.3,12.3,37.3z M12.3,45.2c-1.5,0-2.7-1.2-2.7-2.7c0-1.5,1.2-2.7,2.7-2.7c1.5,0,2.7,1.2,2.7,2.7
			C15,44,13.8,45.2,12.3,45.2z"/>
		<path class="st28" d="M44.4,37.3c-2.9,0-5.2,2.3-5.2,5.2c0,2.9,2.3,5.2,5.2,5.2c2.9,0,5.2-2.3,5.2-5.2
			C49.6,39.6,47.3,37.3,44.4,37.3z M44.4,45.2c-1.5,0-2.7-1.2-2.7-2.7c0-1.5,1.2-2.7,2.7-2.7S47,41,47,42.5
			C47,44,45.8,45.2,44.4,45.2z"/>
		<path class="st28" d="M28.3,19.4c2.9,0,5.2-2.3,5.2-5.2s-2.3-5.2-5.2-5.2c-2.9,0-5.2,2.3-5.2,5.2S25.5,19.4,28.3,19.4z M28.3,11.5
			c1.5,0,2.7,1.2,2.7,2.7c0,1.5-1.2,2.7-2.7,2.7c-1.5,0-2.7-1.2-2.7-2.7S26.9,11.5,28.3,11.5z"/>
	</g>
</g>
<g id="mixin" class="st0">
	<path class="st29" d="M48.7,56.7H8c-4.4,0-8-3.6-8-8V8c0-4.4,3.6-8,8-8h40.7c4.4,0,8,3.6,8,8v40.7C56.7,53.1,53.1,56.7,48.7,56.7z"
		/>
	<path class="st6" d="M36.4,21.3l4.4-1.9c0.2-0.1,0.4,0,0.5,0.2c0,0,0,0.1,0,0.2v18.4c0,0.2-0.2,0.4-0.4,0.4c-0.1,0-0.1,0-0.2,0
		l-4.4-2.2c-0.2-0.1-0.4-0.4-0.4-0.6V22.1C36,21.8,36.2,21.4,36.4,21.3z M19.7,22.1v13.5c0,0.4-0.2,0.7-0.5,0.8L15,38.5
		c-0.1,0-0.1,0-0.2,0c-0.2,0-0.4-0.2-0.4-0.5V19.9c0-0.4,0.3-0.6,0.5-0.5c0.2,0.1,4.4,1.9,4.4,1.9C19.6,21.5,19.7,21.7,19.7,22.1z
		 M28.2,23.5l4.3,2.5c0.2,0.1,0.4,0.3,0.4,0.6v5c0,0.2-0.1,0.5-0.3,0.6l-4.3,2.5c-0.2,0.1-0.5,0.1-0.7,0l-4.3-2.5
		c-0.2-0.1-0.3-0.3-0.3-0.6v-5c0-0.2,0.1-0.5,0.3-0.6l4.3-2.5C27.8,23.4,28,23.4,28.2,23.5z"/>
</g>
<g id="nabox" class="st0">
	<path class="st30" d="M48.7,56.7H8c-4.4,0-8-3.6-8-8V8c0-4.4,3.6-8,8-8h40.7c4.4,0,8,3.6,8,8v40.7C56.7,53.1,53.1,56.7,48.7,56.7z"
		/>
	<g class="st3">
		<polygon class="st31" points="9.7,38.8 15.4,42.1 15.4,28 21.2,31.3 21.2,45.4 26.9,48.7 26.9,28.9 9.7,19 		"/>
		<path class="st31" d="M28.5,7.1L11.2,17.2l18.7,11v21.4l5.7-3.3V24.6l5.7-3.4v21.7l5.7-3.4V17.9L28.5,7.1z M29.9,21.4l-7.1-4.2
			l5.7-3.4l7.1,4.2L29.9,21.4z"/>
	</g>
</g>
<g id="onto" class="st0">
	<path class="st32" d="M48.7,56.7H8c-4.4,0-8-3.6-8-8V8c0-4.4,3.6-8,8-8h40.7c4.4,0,8,3.6,8,8v40.7C56.7,53.1,53.1,56.7,48.7,56.7z"
		/>
	<path class="st26" d="M9.6,7.7l6.6,6.6c2.7-2.1,5.9-3.5,9.3-3.9c3.4-0.4,6.8,0.1,9.9,1.6c3.1,1.4,5.7,3.7,7.6,6.6
		c1.9,2.9,2.9,6.2,3,9.6v0.5v21.6l-6.6-6.6c-2.7,2.1-5.9,3.5-9.3,3.9c-3.4,0.4-6.8-0.1-9.9-1.6c-3.1-1.4-5.7-3.7-7.6-6.6
		c-1.9-2.9-2.9-6.2-3-9.6v-0.5L9.6,7.7z M14.2,18.6v10.7c0,2.5,0.7,5,2,7.1s3.2,3.9,5.4,5.1c2.2,1.2,4.7,1.7,7.2,1.6
		c2.5-0.1,4.9-0.9,7-2.3l0.4-0.2L15,19.4L14.2,18.6z M20,17.1l-0.4,0.2l21.1,21.1l0.9,0.9V28.6c0-2.5-0.7-5-2-7.1
		c-1.3-2.2-3.2-3.9-5.4-5.1c-2.2-1.2-4.7-1.7-7.2-1.6C24.5,14.9,22.1,15.7,20,17.1z"/>
</g>
<g id="safepal" class="st0">
	<path class="st33" d="M48.7,56.7H8c-4.4,0-8-3.6-8-8V8c0-4.4,3.6-8,8-8h40.7c4.4,0,8,3.6,8,8v40.7C56.7,53.1,53.1,56.7,48.7,56.7z"
		/>
	<g class="st3">
		<path class="st34" d="M17.3,36.3V19.6c0-1.2,1-2.3,2.2-2.3c5.3,0,18.1,0,19.8,0L49.6,7.1l-23.9,0c-1.3,0-2.5,0.5-3.5,1.4L7.9,22.9
			c-0.5,0.5-0.8,1.3-0.8,2c0,0.7,0.3,1.4,0.8,2L17.3,36.3z"/>
		<path class="st34" d="M48.8,29.9l-9.4-9.4v16.7c0,1.2-1,2.3-2.3,2.3H17.3L7.1,49.6l23.9,0c1.3,0,2.5-0.5,3.5-1.4l14.4-14.4
			c0.5-0.5,0.8-1.3,0.8-2C49.6,31.1,49.3,30.4,48.8,29.9z"/>
	</g>
</g>
<g id="simplehold" class="st0">
	<path class="st35" d="M48.7,56.7H8c-4.4,0-8-3.6-8-8V8c0-4.4,3.6-8,8-8h40.7c4.4,0,8,3.6,8,8v40.7C56.7,53.1,53.1,56.7,48.7,56.7z"
		/>
	<g class="st3">
		<path class="st36" d="M13.2,27.9c-1.4,1.4-3.5,1.6-4.9,0.2c-1.1-1.1-1.2-2.7-0.5-4c0.2-0.2,0.3-0.5,0.5-0.7l11-11
			c2.7-2.7,7-2.9,9.9-0.5c-0.2,0.2-0.4,0.4-0.6,0.5L13.2,27.9z"/>
		<path class="st37" d="M13.2,27.9c-1.4,1.4-3.5,1.6-4.9,0.2c-1.4-1.4-1.2-3.4,0.1-4.8c0,0,0.1-0.1,0.1-0.1c0,0-0.1,0.1-0.1,0.1
			C5.9,26,6,30.1,8.5,32.6l12.2,12.2c3.5,3.5,9.1,3.5,12.6,0l13.4-13.4c3.1-3.1,3.1-8.2,0-11.3l-0.9-0.9c-0.1,0.1-0.2,0.2-0.3,0.3
			l-3.7,3.7c-1.5,1.5-4,1.5-5.6,0c-1.5-1.5-1.5-4,0-5.6l3.7-3.7c0.1-0.1,0.2-0.2,0.3-0.3l-1.3-1.3c-2.9-2.9-7.6-2.9-10.5,0
			L13.2,27.9z"/>
		<path class="st38" d="M41.9,23.3l3.7-3.7c1.5-1.5,1.5-4,0-5.6s-4-1.5-5.6,0l-3.7,3.7c-1.5,1.5-1.5,4,0,5.6
			C37.9,24.8,40.4,24.8,41.9,23.3z"/>
	</g>
</g>
<g id="trezor" class="st0">
	<path class="st25" d="M48.7,56.7H8c-4.4,0-8-3.6-8-8V8c0-4.4,3.6-8,8-8h40.7c4.4,0,8,3.6,8,8v40.7C56.7,53.1,53.1,56.7,48.7,56.7z"
		/>
	<path id="path7" class="st26" d="M28.4,7.1c-5.8,0-10.6,4.7-10.6,10.6v4c-2,0.4-4.1,0.9-4.1,1.5v20.6c0,0,0,0.6,0.6,0.8
		c2.3,0.9,11.5,4.2,13.6,4.9c0.3,0.1,0.3,0.1,0.4,0.1c0.1,0,0.1,0,0.4-0.1c2.1-0.7,11.3-4,13.6-4.9c0.6-0.2,0.6-0.8,0.6-0.8V23.1
		c0-0.6-2-1.2-4.1-1.5v-4C38.9,11.8,34.2,7.1,28.4,7.1z M28.4,12.1c3.4,0,5.5,2.1,5.5,5.5v3.4c-3.9-0.3-7.1-0.3-11,0v-3.4
		C22.9,14.2,24.9,12.1,28.4,12.1z M28.3,26.1c4.8,0,8.8,0.4,8.8,1v12.9c0,0.2,0,0.2-0.2,0.3c-0.2,0.1-8.2,3-8.2,3s-0.3,0.1-0.4,0.1
		c-0.1,0-0.4-0.1-0.4-0.1s-8-2.9-8.2-3s-0.2-0.1-0.2-0.3V27.2C19.5,26.5,23.5,26.1,28.3,26.1z"/>
</g>
<g id="xcelpay" class="st0">
	<path class="st39" d="M48.7,56.7H8c-4.4,0-8-3.6-8-8V8c0-4.4,3.6-8,8-8h40.7c4.4,0,8,3.6,8,8v40.7C56.7,53.1,53.1,56.7,48.7,56.7z"
		/>
	<g class="st3">
		<path class="st14" d="M28.3,38c0-0.4,0.1-0.9,0.3-1.3c0.2-0.4,0.5-0.7,0.9-0.9c0.4-0.2,0.8-0.3,1.3-0.3c0.4,0,0.9,0.1,1.3,0.4
			l12.3,7.3v-6.3l-14.2-8.6l14.2-8.6v-6.3l-12.3,7.3c-0.4,0.2-0.8,0.4-1.3,0.4c-0.4,0-0.9-0.1-1.3-0.3c-0.4-0.2-0.7-0.5-0.9-0.9
			c-0.2-0.4-0.3-0.8-0.3-1.3L47.7,7.1v13.1c0,0.6-0.2,1.2-0.5,1.8c-0.3,0.5-0.8,1-1.3,1.3l-8.3,5l8.3,5c0.5,0.3,1,0.8,1.3,1.3
			c0.3,0.5,0.5,1.2,0.5,1.8v13.2L28.3,38z"/>
		<path class="st40" d="M10.7,33.3l8.3-5l-8.3-5c-0.5-0.3-1-0.8-1.3-1.3C9.2,21.5,9,20.9,9,20.3V7.1l19.3,11.6
			c0,0.4-0.1,0.9-0.3,1.3c-0.2,0.4-0.5,0.7-0.9,0.9c-0.4,0.2-0.8,0.3-1.3,0.3c-0.4,0-0.9-0.1-1.3-0.4l-12.3-7.3v6.3l14.2,8.6
			l-14.2,8.6v6.3l12.3-7.3c0.4-0.2,0.8-0.4,1.3-0.4c0.4,0,0.9,0.1,1.3,0.3c0.4,0.2,0.7,0.5,0.9,0.9c0.2,0.4,0.3,0.8,0.3,1.3L9,49.6
			V36.4c0-0.6,0.2-1.2,0.5-1.8S10.2,33.7,10.7,33.3z"/>
	</g>
</g>
<g id="xcelpay_copy" class="st0">
	<linearGradient id="SVGID_9_" gradientUnits="userSpaceOnUse" x1="0" y1="28.3465" x2="56.6929" y2="28.3465">
		<stop  offset="0" style="stop-color:#6860AA"/>
		<stop  offset="1" style="stop-color:#5F74B8"/>
	</linearGradient>
	<path class="st41" d="M48.7,56.7H8c-4.4,0-8-3.6-8-8V8c0-4.4,3.6-8,8-8h40.7c4.4,0,8,3.6,8,8v40.7C56.7,53.1,53.1,56.7,48.7,56.7z"
		/>
	<g id="Layer_22" class="st3">
		<g>
			<path class="st31" d="M37.5,12.8c-0.3,0.1-2.7,2.4-5.4,5.1c-3.5,3.6-4.9,5.2-4.9,5.6c0.1,1,3.3,8.4,3.7,8.4
				c0.2,0,1.4-1.1,2.6-2.4c1.2-1.3,5.4-5.6,9.2-9.4c3.8-3.9,6.9-7.2,6.9-7.3C49.6,12.7,38.6,12.6,37.5,12.8z M12.4,15.4
				c0.2,0.7,0.6,1.7,3.9,9.5c0.8,1.8,1.5,3.6,1.7,4.1c0.2,0.4,0.4,0.8,0.6,0.8c0.1,0,1.7-1.5,3.5-3.3c3.5-3.6,3.5-3.6,2.4-6
				c-0.5-1.1-1.2-1.5-9.3-4.7l-2.8-1.1L12.4,15.4z M16.1,34.1c-5.1,5.2-9.2,9.6-9,9.7s3,0.2,6.3,0.1l6-0.1l5-5.1
				c2.7-2.8,5-5.4,5-5.6c0-0.4-0.8-2.5-2.9-7.3c-0.3-0.7-0.6-1.2-0.8-1.2C25.5,24.6,21.2,28.9,16.1,34.1z M34.6,30.2
				c-1.8,1.9-3.3,3.5-3.3,3.7c0,0.2,0.4,1,0.8,1.8l0.8,1.6l5.4,2.2c4.7,1.9,6.1,2.4,6.1,2.1c0,0-1-2.4-2.2-5.2c-1.2-2.8-2.5-6-2.9-7
				C38.2,26.4,38.4,26.3,34.6,30.2z"/>
		</g>
	</g>
</g>
<g id="opolo" class="st0">
	<path class="st42" d="M48.7,56.7H8c-4.4,0-8-3.6-8-8V8c0-4.4,3.6-8,8-8h40.7c4.4,0,8,3.6,8,8v40.7C56.7,53.1,53.1,56.7,48.7,56.7z"
		/>
	<path class="st6" d="M28.3,20.1c2.3,0,4.6,0.5,6.5,1.5v-6.8c0-3.5-2.9-6.4-6.4-6.4h-0.4c-3.5,0-6.3,2.9-6.3,6.4v6.8
		C23.8,20.7,26,20.1,28.3,20.1z M35.5,22c0,0,0.1,0,0.1,0.1C35.5,22,35.5,22,35.5,22z M35.8,22.2c0.1,0,0.1,0.1,0.2,0.1
		C35.9,22.2,35.8,22.2,35.8,22.2z M36,22.3c0.1,0,0.1,0.1,0.2,0.1C36.2,22.4,36.1,22.4,36,22.3z M36.3,22.5c4,2.6,6.7,7.2,6.7,12.4
		c0,8.1-6.6,14.7-14.7,14.7S13.6,43,13.6,34.9c0-5.2,2.7-9.7,6.7-12.4v-7.7c0-4.3,3.5-7.8,7.8-7.8h0.4c4.3,0,7.8,3.5,7.8,7.8V22.5
		L36.3,22.5z M20.5,22.4c0.1,0,0.1-0.1,0.2-0.1C20.6,22.4,20.5,22.4,20.5,22.4z M20.8,22.2c0.1,0,0.1-0.1,0.2-0.1
		C20.9,22.2,20.8,22.2,20.8,22.2z M21.1,22.1c0,0,0.1,0,0.1-0.1C21.2,22,21.1,22,21.1,22.1z M21.6,28.1L21.6,28.1
		c0.3-0.3,0.8-0.3,1.1,0l1.6,1.6c0.9-0.7,2-1.2,3.2-1.3v-2.3c0-0.4,0.4-0.8,0.8-0.8l0,0c0.4,0,0.8,0.4,0.8,0.8v2.3
		c1.2,0.2,2.3,0.6,3.2,1.3l1.6-1.6c0.3-0.3,0.8-0.3,1.1,0l0,0c0.3,0.3,0.3,0.8,0,1.1l-1.6,1.6c0.7,0.9,1.2,2,1.3,3.2h2.3
		c0.4,0,0.8,0.4,0.8,0.8l0,0c0,0.4-0.4,0.8-0.8,0.8h-2.3c-0.1,1.2-0.6,2.3-1.3,3.2l1.6,1.6c0.3,0.3,0.3,0.8,0,1.1l0,0
		c-0.3,0.3-0.8,0.3-1.1,0L32.4,40c-0.9,0.7-2,1.2-3.2,1.4v2.2c0,0.4-0.4,0.8-0.8,0.8l0,0c-0.4,0-0.8-0.4-0.8-0.8v-2.2
		c-1.2-0.1-2.4-0.6-3.3-1.3l-1.5,1.5c-0.3,0.3-0.8,0.3-1.1,0l0,0c-0.3-0.3-0.3-0.8,0-1.1l1.5-1.5c-0.7-0.9-1.2-2.1-1.3-3.3h-2.2
		c-0.4,0-0.8-0.4-0.8-0.8l0,0c0-0.4,0.4-0.8,0.8-0.8h2.2c0.2-1.2,0.6-2.3,1.4-3.2l-1.6-1.6C21.3,28.9,21.3,28.4,21.6,28.1L21.6,28.1
		z M28.3,29.8c2.8,0,5.1,2.3,5.1,5.1c0,2.8-2.3,5.1-5.1,5.1s-5.1-2.3-5.1-5.1C23.2,32.1,25.5,29.8,28.3,29.8z M28.3,21.8
		c7.2,0,13.1,5.9,13.1,13.1S35.6,48,28.3,48s-13.1-5.9-13.1-13.1S21.1,21.8,28.3,21.8L28.3,21.8z"/>
</g>
<g id="bifrost" class="st0">
	<path class="st43" d="M48.7,56.7H8c-4.4,0-8-3.6-8-8V8c0-4.4,3.6-8,8-8h40.7c4.4,0,8,3.6,8,8v40.7C56.7,53.1,53.1,56.7,48.7,56.7z"
		/>
	<path class="st26" d="M12,7.1c-0.5,0-0.9,0.3-0.9,0.8c0,0,0,0.1,0,0.1v7.3c0,1.2,0.5,2.5,1.7,2.9l28.7,9.7c0.9,0.3,2.1,1.2,0.9,2.4
		c1.1-0.6,3-1.1,3-3.1v-5.3c0-2.5-1.2-3.5-3.1-4.1L12.2,7.1C12.2,7.1,12.1,7.1,12,7.1z M28.8,24.2l-7.5,2.6
		c-1.9,0.7-3.1,1.6-3.1,4.1v5.3c0,2.2,1.8,2.8,3,3.1c-1.2-1.2,0-2.1,0.9-2.4l19.4-6.5c0.5-0.1,0.9-0.6,0.8-1.1
		c-0.1-0.5-0.7-0.8-1.4-1.1L28.8,24.2z M35,33.5l-11.8,4c-0.5,0.2-1.3,0.5-1.4,1.1c-0.1,0.6,0.3,1.1,0.8,1.3l13.6,4.6
		c0.9,0.3,2,1.3,0.8,2.5c1.2-0.3,3.2-1,3.2-3.2v-5.3c0-2.5-1.2-3.5-3.1-4.1L35,33.5z M24.4,41.1v7c0,0.9,1,1.7,2,1.4l9.5-2.4
		c0.5-0.1,0.8-0.6,0.8-1.2c-0.1-0.6-0.7-1-1.2-1.2L24.4,41.1L24.4,41.1z"/>
</g>
<g id="math" class="st0">
	<path class="st3" d="M48.7,56.7H8c-4.4,0-8-3.6-8-8V8c0-4.4,3.6-8,8-8h40.7c4.4,0,8,3.6,8,8v40.7C56.7,53.1,53.1,56.7,48.7,56.7z"
		/>
	<g class="st3">
		<circle class="st14" cx="40.4" cy="24.9" r="2.3"/>
		<circle class="st14" cx="32.4" cy="32.9" r="1.7"/>
		<circle class="st14" cx="44.4" cy="28.9" r="1.7"/>
		<circle class="st14" cx="40.4" cy="32.9" r="1.7"/>
		<circle class="st14" cx="48.5" cy="32.9" r="1.1"/>
		<circle class="st14" cx="44.4" cy="37" r="1.1"/>
		<circle class="st14" cx="36.4" cy="28.9" r="2.3"/>
		<circle class="st14" cx="36.4" cy="20.9" r="2.3"/>
		<circle class="st14" cx="32.4" cy="24.9" r="2.3"/>
		<circle class="st14" cx="24.3" cy="24.9" r="2.3"/>
		<circle class="st14" cx="16.3" cy="32.9" r="1.7"/>
		<circle class="st14" cx="28.3" cy="28.9" r="1.7"/>
		<circle class="st14" cx="24.3" cy="32.9" r="1.7"/>
		<circle class="st14" cx="8.2" cy="32.9" r="1.1"/>
		<circle class="st14" cx="12.2" cy="37" r="1.1"/>
		<circle class="st14" cx="28.3" cy="37" r="1.1"/>
		<circle class="st14" cx="12.2" cy="28.9" r="1.7"/>
		<circle class="st14" cx="20.3" cy="28.9" r="2.3"/>
		<circle class="st14" cx="20.3" cy="20.9" r="2.3"/>
		<circle class="st14" cx="16.3" cy="24.9" r="2.3"/>
	</g>
</g>
<g id="math_copy" class="st0">
	<path class="st3" d="M48.7,56.7H8c-4.4,0-8-3.6-8-8V8c0-4.4,3.6-8,8-8h40.7c4.4,0,8,3.6,8,8v40.7C56.7,53.1,53.1,56.7,48.7,56.7z"
		/>
	<g id="_37552496" class="st3">
		
			<linearGradient id="_244633824_1_" gradientUnits="userSpaceOnUse" x1="-523.8964" y1="797.3405" x2="-513.9197" y2="797.3405" gradientTransform="matrix(2.8346 0 0 -2.8346 1492.1013 2295.8875)">
			<stop  offset="0" style="stop-color:#6BCCE1"/>
			<stop  offset="0.102" style="stop-color:#6BCCE1"/>
			<stop  offset="1" style="stop-color:#B1529F"/>
		</linearGradient>
		<path id="_244633824" class="st44" d="M20,34.3L16,35.4c0,0-1.6,0.3-2.4-0.5l-5.9-6c0,0-0.3-0.6-0.4-0.9c-0.1-0.3-0.1-1.2-0.1-1.2
			S7,25.9,8.5,25.5l15.6-3.6c0,0,1.5-0.4,2.5,0.3l7.6,7.4c0,0,1.2,1.4,0.7,3.1l-4.1,15.8c0,0-0.5,1.6-1.9,0.7L22,43.2
			c0,0-0.4-0.4-0.2-1.4l3.7-16.2c0,0,0.6-2.1-1.8-1.9l-13.3,3.4c0,0-1,0.3-0.9,1.4c0,0,0.2,1.6,1.8,1.3l11.2-2.9l-1.4,6.4
			C21.1,33.3,20.9,34.1,20,34.3L20,34.3z"/>
		
			<linearGradient id="_244633224_1_" gradientUnits="userSpaceOnUse" x1="-516.4871" y1="803.7181" x2="-508.6164" y2="803.7181" gradientTransform="matrix(2.8346 0 0 -2.8346 1492.1013 2295.8875)">
			<stop  offset="0" style="stop-color:#6BCCE1"/>
			<stop  offset="0.102" style="stop-color:#6BCCE1"/>
			<stop  offset="1" style="stop-color:#B1529F"/>
		</linearGradient>
		<path id="_244633224" class="st45" d="M32.1,18.8l2.1-8.3l0.4,0.1l-0.4-0.1c0,0,0,0,0-0.1c0-0.1,0.1-0.3-0.2-0.4l0.2-0.4L33.9,10
			l0,0c0,0-0.2,0-0.3,0.4c-0.3,0.9-2.5,9.2-2.5,9.2l-0.4-0.1l0.4,0.1c0,0,0,0.1,0,0.1c0,0.1-0.1,0.5,0.6,0.4l11.7-2.4c0,0,0,0,0,0v0
			l0,0c0.2,0,0.9-0.2,1.4,0.4l4.2,4.9l0,0c0,0,0,0,0,0c0.2,0.2,1.3,1.7-0.8,2.3l0,0c0,0,0,0,0,0l-11.5,2.7l0,0c0,0,0,0-0.1,0
			c-0.3,0-1.7,0.2-2.6-0.7l0,0c0,0,0,0,0,0L29,22.2c0,0,0,0,0,0l0,0c0,0,0,0,0,0c-0.2-0.2-0.9-1.1-0.4-2.9l0,0l0,0l0,0l0,0l2.8-10.8
			l0.4,0.1l-0.4-0.1c0,0,0,0,0-0.1c0.1-0.2,0.6-1.5,1.9-1.3l0,0c0,0,0,0,0,0l0.6,0.1l-0.1,0.4l0.1-0.4c0,0,0,0,0,0
			c0.1,0,0.7,0.2,1.3,0.8l0,0c0,0,0,0,0,0l3.8,4.1l0,0c0,0,0,0,0,0c0.2,0.2,0.7,1,0.3,2.3l0,0l0,0l0,0l0,0l-0.8,2.8l-0.4-0.1
			l0.4,0.1c0,0,0,0.1,0,0.1c-0.1,0.2-0.4,0.8-1.1,1l0,0c0,0,0,0-0.1,0l-4.8,1l0,0c-0.2,0-0.5-0.1-0.5-0.3
			C32.1,19,32.1,18.9,32.1,18.8L32.1,18.8z M35,10.8l-1.9,7.6l4.1-0.8c0.4-0.1,0.5-0.5,0.6-0.6l0.8-2.7c0,0,0,0,0-0.1l0,0
			c0.3-0.9-0.1-1.4-0.1-1.4c0,0,0,0,0,0l0.3-0.3l-0.3,0.3l-3.8-4.1c0,0,0,0,0,0l0,0l0,0c-0.5-0.5-0.9-0.6-0.9-0.6l0,0L33.1,8
			c0,0,0,0,0,0l0,0l0,0l0,0c-0.6-0.1-0.9,0.6-0.9,0.7l0,0l0,0l-2.8,10.8l0,0l-0.4-0.1l0.4,0.1c-0.4,1.4,0.1,1.9,0.2,2c0,0,0,0,0,0
			l-0.3,0.3l0.3-0.3l5.1,5.3l0,0l0,0l0,0c0.6,0.6,1.7,0.5,1.8,0.4l0,0l0,0l0,0l0,0l11.5-2.8l0,0c0.8-0.3,0.4-0.8,0.3-0.9
			c0,0,0,0,0,0l0,0l0,0l0,0l-4.2-4.9c-0.2-0.2-0.4-0.1-0.5-0.1c0,0,0,0-0.1,0l-0.1-0.4l0.1,0.4L31.9,21c0,0-0.1,0-0.1,0l0-0.4l0,0.4
			c-2.2,0.2-1.7-1.3-1.5-1.6c0.1-0.4,2.2-8.3,2.5-9.2c0.4-1.2,1.3-1,1.4-0.9c0,0,0,0,0,0l0,0l0,0l0,0C35.2,9.6,35.1,10.5,35,10.8
			L35,10.8L35,10.8L35,10.8L35,10.8z"/>
	</g>
</g>
<g id="Tangem" class="st0">
	<path class="st46" d="M48.7,56.7H8c-4.4,0-8-3.6-8-8V8c0-4.4,3.6-8,8-8h40.7c4.4,0,8,3.6,8,8v40.7C56.7,53.1,53.1,56.7,48.7,56.7z"
		/>
	<g id="Layer_29" class="st3">
		<g>
			<path class="st47" d="M33.3,28.3v21.3H42c0.7,0,1.3-0.6,1.3-1.4V28.3H33.3z"/>
			<path class="st47" d="M13.5,48.2c0,0.7,0.5,1.3,1.3,1.4h8.7V28.3h-9.9V48.2z"/>
			<path class="st47" d="M43.2,17.7V8.4c0-0.7-0.5-1.3-1.3-1.4H14.7c-0.7,0-1.3,0.6-1.3,1.4v9.3H43.2z"/>
		</g>
	</g>
</g>
<g id="Tangem_copy">
	<path class="st48" d="M48.7,56.7H8c-4.4,0-8-3.6-8-8V8c0-4.4,3.6-8,8-8h40.7c4.4,0,8,3.6,8,8v40.7C56.7,53.1,53.1,56.7,48.7,56.7z"
		/>
	<g id="Layer_33">
		<rect x="19.4" y="17.6" class="st14" width="17.2" height="22"/>
	</g>
	<g id="Layer_32">
		<g>
			<g id="Shape_1_3_">
				<g>
					<path class="st14" d="M49.7,26.3C44.8-2.2,7.6,3.3,7,26.3c2.1,1.1,3.5,1.8,3.5,1.8s-1.1,0.7-3.5,2.2c4.3,27.9,40.9,23.9,42.8,0
						c-2.3-1.4-3.6-2.2-3.6-2.2S47.2,27.6,49.7,26.3z M31.4,36.3l-3.5-6l-3.6,6l-2.7-0.2l5-8.5l-4.5-7.3L25,20l3.2,5.4l3.2-5.2
						l2.6,0.1l-4.2,7.2l4.7,8.7L31.4,36.3z"/>
				</g>
			</g>
			<g id="Shape_1_2_">
				<g>
					<path class="st49" d="M48,25.2c-6.7-25.3-37.2-18.5-39.3,0c4.2,2.4,5.2,2.9,5.2,2.9s-1.6,1-5.2,3.3c4.5,24.3,37.5,19.7,39.3,0
						c-3.3-2.1-5.3-3.3-5.3-3.3S47.2,25.6,48,25.2z M31.4,36.3l-3.5-6l-3.6,6l-2.7-0.2l5-8.5l-4.5-7.3L25,20l3.2,5.4l3.2-5.2
						l2.6,0.1l-4.2,7.2l4.7,8.7L31.4,36.3z"/>
				</g>
			</g>
		</g>
	</g>
</g>
<g id="metamask" class="st0">
	<path class="st3" d="M48.7,56.7H8c-4.4,0-8-3.6-8-8V8c0-4.4,3.6-8,8-8h40.7c4.4,0,8,3.6,8,8v40.7C56.7,53.1,53.1,56.7,48.7,56.7z"
		/>
	<g class="st3">
		<path class="st50" d="M47.5,8.6L30.9,21l3.1-7.3L47.5,8.6z"/>
		<path class="st51" d="M9.2,8.6l16.5,12.4l-2.9-7.4L9.2,8.6z M41.5,37.2L37.1,44l9.5,2.6l2.7-9.2L41.5,37.2z M7.4,37.4l2.7,9.2
			l9.5-2.6l-4.4-6.8L7.4,37.4z"/>
		<path class="st51" d="M19.1,25.8l-2.6,4l9.4,0.4l-0.3-10.1L19.1,25.8z M37.6,25.8L31.1,20l-0.2,10.2l9.4-0.4L37.6,25.8z M19.6,44
			l5.6-2.8l-4.9-3.8L19.6,44z M31.4,41.2l5.7,2.8l-0.8-6.6L31.4,41.2z"/>
		<path class="st52" d="M37.1,44l-5.7-2.8l0.5,3.7l-0.1,1.6L37.1,44z M19.6,44l5.3,2.5l0-1.6l0.4-3.7L19.6,44z"/>
		<path class="st53" d="M24.9,35l-4.7-1.4l3.3-1.5L24.9,35z M31.7,35l1.4-2.9l3.3,1.5L31.7,35z"/>
		<path class="st54" d="M19.6,44l0.8-6.8l-5.2,0.2L19.6,44z M36.3,37.2l0.8,6.8l4.4-6.6L36.3,37.2z M40.3,29.7l-9.4,0.4l0.9,4.8
			l1.4-2.9l3.3,1.5L40.3,29.7z M20.2,33.6l3.3-1.5l1.4,2.9l0.9-4.8l-9.4-0.4L20.2,33.6z"/>
		<path class="st55" d="M16.4,29.7l3.9,7.7l-0.1-3.8L16.4,29.7z M36.5,33.6l-0.2,3.8l4-7.7L36.5,33.6z M25.8,30.2L24.9,35l1.1,5.7
			l0.3-7.5L25.8,30.2z M30.9,30.2l-0.5,3l0.2,7.5l1.1-5.7L30.9,30.2z"/>
		<path class="st56" d="M31.8,35l-1.1,5.7l0.8,0.6l4.9-3.8l0.2-3.8L31.8,35z M20.2,33.6l0.1,3.8l4.9,3.8l0.8-0.6L24.9,35L20.2,33.6z
			"/>
		<path class="st57" d="M31.8,46.5l0.1-1.6l-0.4-0.4h-6.3l-0.4,0.4l0,1.6L19.6,44l1.8,1.5l3.7,2.6h6.4l3.7-2.6l1.8-1.5L31.8,46.5z"
			/>
		<path class="st58" d="M31.4,41.2l-0.8-0.6H26l-0.8,0.6l-0.4,3.7l0.4-0.4h6.3l0.4,0.4L31.4,41.2z"/>
		<path class="st59" d="M48.2,21.8l1.4-6.8l-2.1-6.3l-16,11.9l6.2,5.2l8.7,2.6l1.9-2.3l-0.8-0.6l1.3-1.2l-1-0.8l1.3-1L48.2,21.8z
			 M7.1,15l1.4,6.8l-0.9,0.7l1.3,1l-1,0.8l1.3,1.2l-0.8,0.6l1.9,2.3l8.7-2.6l6.2-5.2L9.2,8.6L7.1,15z"/>
		<path class="st56" d="M46.3,28.3l-8.7-2.6l2.7,4l-4,7.7l5.2-0.1h7.8L46.3,28.3z M19.1,25.8l-8.7,2.6l-2.9,9h7.7l5.2,0.1l-3.9-7.7
			L19.1,25.8z M30.9,30.2l0.6-9.6l2.5-6.9H22.7l2.5,6.9l0.6,9.6l0.2,3l0,7.5h4.6l0-7.5L30.9,30.2z"/>
	</g>
</g>
<g id="mycrypto" class="st0">
	<path class="st60" d="M48.7,56.7H8c-4.4,0-8-3.6-8-8V8c0-4.4,3.6-8,8-8h40.7c4.4,0,8,3.6,8,8v40.7C56.7,53.1,53.1,56.7,48.7,56.7z"
		/>
	<g id="Group" class="st3">
		<circle id="Oval" class="st14" cx="28.3" cy="28.3" r="21.3"/>
		<g id="Shape" transform="translate(39.000000, 51.000000)">
			<path class="st61" d="M-8.4-17.3c-0.6,0.6-1.4,0.9-2.2,0.9s-1.6-0.3-2.2-0.9l-2.8-2.8c-0.4-0.4-0.8-0.6-1.4-0.6
				c-0.5,0-1,0.2-1.4,0.6c-1.2,1.2-1.2,3.2,0,4.4l5.5,5.5c0.6,0.6,1.4,0.9,2.2,0.9c0.8,0,1.6-0.3,2.2-0.9l5.5-5.5
				c1.2-1.2,1.2-3.2,0-4.4c-0.4-0.4-0.8-0.6-1.4-0.6c-0.5,0-1,0.2-1.4,0.6L-8.4-17.3z"/>
			<g>
				<path class="st61" d="M-18.8-27c0.5-0.6,1.3-0.9,2.1-0.9s1.5,0.3,2.1,0.9l2.6,2.7c0.3,0.3,0.8,0.5,1.3,0.5c0.5,0,1-0.2,1.3-0.6
					c1.2-1.2,1.2-3.1,0-4.2l-5.2-5.3c-0.6-0.6-1.3-0.9-2.1-0.9c-0.8,0-1.5,0.3-2.1,0.9l-5.3,5.4c-1.2,1.2-1.2,3.1,0,4.2
					c0.3,0.3,0.8,0.5,1.3,0.5c0.5,0,1-0.2,1.3-0.6L-18.8-27z"/>
				<path class="st61" d="M-6.7-27.2c0.5-0.6,1.3-0.9,2.1-0.9c0.8,0,1.5,0.3,2.1,0.9l2.6,2.7C0.5-24.2,1-24,1.5-24
					c0.5,0,1-0.2,1.3-0.6c1.2-1.2,1.2-3.1,0-4.2l-5.2-5.3C-3-34.7-3.7-35-4.5-35c-0.8,0-1.5,0.3-2.1,0.9l-5.3,5.4
					c-1.2,1.2-1.2,3.1,0,4.2c0.3,0.3,0.8,0.5,1.3,0.5c0.5,0,1-0.2,1.3-0.6L-6.7-27.2z"/>
			</g>
		</g>
	</g>
</g>
<g id="myetherwallet" class="st0">
	<linearGradient id="SVGID_10_" gradientUnits="userSpaceOnUse" x1="0" y1="28.3465" x2="56.6929" y2="28.3465">
		<stop  offset="0" style="stop-color:#29B99A"/>
		<stop  offset="1" style="stop-color:#225FAC"/>
	</linearGradient>
	<path class="st62" d="M48.7,56.7H8c-4.4,0-8-3.6-8-8V8c0-4.4,3.6-8,8-8h40.7c4.4,0,8,3.6,8,8v40.7C56.7,53.1,53.1,56.7,48.7,56.7z"
		/>
	<g class="st3">
		<g>
			<g>
				
					<linearGradient id="SVGID_11_" gradientUnits="userSpaceOnUse" x1="28.3068" y1="61.3628" x2="19.3014" y2="1.2235" gradientTransform="matrix(1 0 0 -1 0 56.8832)">
					<stop  offset="0" style="stop-color:#29B99A"/>
					<stop  offset="1" style="stop-color:#225FAC"/>
				</linearGradient>
				<path class="st63" d="M30.7,39.8c-0.8,0.2-1.6,0.3-2.3,0.3c-5.6,0-10.4-4.3-10.7-10.6c0.1-1.2,0.3-2.4,0.6-3.6l-8.7-3.7
					c-0.9,2.5-1.4,5.1-1.4,7.7c0,10.9,9.3,19.6,20.1,19.6c2.5,0,5-0.5,7.3-1.4L30.7,39.8z"/>
				
					<linearGradient id="SVGID_12_" gradientUnits="userSpaceOnUse" x1="37.9628" y1="59.9144" x2="28.9474" y2="-0.2249" gradientTransform="matrix(1 0 0 -1 0 56.8832)">
					<stop  offset="0" style="stop-color:#29B99A"/>
					<stop  offset="1" style="stop-color:#225FAC"/>
				</linearGradient>
				<path class="st64" d="M28.4,9.2c-2.8,0-5.6,0.6-8.2,1.8l4.9,8.3c1.1-0.4,2.2-0.6,3.3-0.6c5,0,10.2,4.2,10.7,9.3L25,28l22,9.3
					c1.1-2.6,1.6-5.5,1.5-8.3C48.5,18.2,39.2,9.2,28.4,9.2z"/>
				<path class="st14" d="M30.7,37.6c-0.8,0.2-1.6,0.3-2.3,0.3c-5.6,0-10.4-4.3-10.7-10.6c0.1-1.2,0.3-2.4,0.6-3.6l-8.7-3.7
					c-0.9,2.5-1.4,5.1-1.4,7.7c0,10.9,9.3,19.6,20.1,19.6c2.5,0,5-0.5,7.3-1.4L30.7,37.6z M28.4,7.1c-2.8,0-5.6,0.6-8.2,1.8l4.9,8.3
					c1.1-0.4,2.2-0.6,3.3-0.6c5,0,10.2,4.2,10.7,9.3L25,25.9l22,9.4c1.1-2.6,1.6-5.5,1.5-8.3C48.5,16,39.2,7.1,28.4,7.1z"/>
			</g>
		</g>
	</g>
</g>
</svg>
