<?xml version="1.0" encoding="UTF-8"?>
<svg id="Zerion" xmlns="http://www.w3.org/2000/svg" viewBox="0 0 56.7 56.7">
  <defs>
    <style>
      .cls-1 {
        fill: #fff;
        fill-rule: evenodd;
      }

      .cls-2 {
        fill: #06003c;
      }
    </style>
  </defs>
  <path class="cls-2" d="M48.7,56.7H8c-4.4,0-8-3.6-8-8V8C0,3.6,3.6,0,8,0h40.7c4.4,0,8,3.6,8,8v40.7c0,4.4-3.6,8-8,8Z"/>
  <path class="cls-1" d="M43.14,40.23c-5.65-3.48-13.15-7.76-19.32-11.05-1.5-.8-3.5-.5-4.73,1.23-2.29,3.23-5.03,7.3-6.91,10.51-.78,1.3.26,3.02,1.82,3.02h27.95c2.01,0,2.86-2.52,1.19-3.71ZM32.82,28.11c-5.96-3.14-14.32-7.93-20.26-11.54-1.83-1.12-1.1-3.81,1.04-3.8,3.51,0,9.2,0,14.87,0,5.61,0,11.2,0,14.6,0,1.71,0,2.59,1.75,1.86,2.98-2.46,4.14-5.23,8.33-7.52,11.45-1.02,1.39-3.1,1.7-4.59.92Z"/>
</svg>