<?xml version="1.0" encoding="UTF-8"?>
<!DOCTYPE svg PUBLIC "-//W3C//DTD SVG 1.1//EN" "http://www.w3.org/Graphics/SVG/1.1/DTD/svg11.dtd">
<!-- Creator: CorelDRAW -->
<svg xmlns="http://www.w3.org/2000/svg" xml:space="preserve" width="209.259mm" height="210mm" style="shape-rendering:geometricPrecision; text-rendering:geometricPrecision; image-rendering:optimizeQuality; fill-rule:evenodd; clip-rule:evenodd"
viewBox="0 0 209.259 210"
 xmlns:xlink="http://www.w3.org/1999/xlink">
 <defs>
  <style type="text/css">
   <![CDATA[
    .fil1 {fill:#2B2A29}
    .fil0 {fill:#FDE937}
   ]]>
  </style>
 </defs>
 <g id="Layer_x0020_1">
  <metadata id="CorelCorpID_0Corel-Layer"/>
  <path class="fil0" d="M136.667 0l-53.4657 0 -66.1639 0c-9.2593,0 -17.037,7.7778 -17.037,17.037l0 175.556c0,9.6296 7.7778,17.037 17.037,17.037l73.2192 0 0 0.3704 88.9533 0 0.016 0 0.0337 0 9.5985 0 3.3645 0c9.6296,0 17.037,-7.7778 17.037,-17.037l0 -175.926c0,-9.2592 -7.7778,-17.037 -17.037,-17.037l-11.6545 0 -1.3085 0 -0.0497 0 -42.5429 0z"/>
  <path class="fil1" d="M192.29 102.211l-30.8112 -39.7915c-0.8037,-1.0682 -2.4112,-1.8695 -3.7506,-1.8695l-141.999 0 0 88.9008 143.606 0c1.3394,0 2.4112,-0.5341 3.2149,-1.6021l30.007 -38.4272c1.3375,-2.1365 1.3375,-5.074 -0.2676,-7.2105zm-109.312 31.5128l-48.226 0 0 -57.9514 47.1542 0 0 14.6881 -27.8637 0 0 6.6765 24.6489 0 0 14.1539 -24.6489 0 0 7.4775 28.9355 0 0 14.9554zm46.6183 0l-9.9133 -15.4896 -9.9129 15.4896 -22.2372 0 20.8973 -29.1092 -20.3617 -28.5752 21.9698 0 9.9128 14.6882 9.6452 -14.6882 21.166 0 -20.0942 28.0409 21.4336 29.9107 -22.5054 0 0 -0.2672z"/>
 </g>
</svg>
