<?xml version="1.0" encoding="UTF-8"?>
<svg id="Layer_2" xmlns="http://www.w3.org/2000/svg" version="1.1" xmlns:xlink="http://www.w3.org/1999/xlink" viewBox="0 0 249.4 90">
  <!-- Generator: Adobe Illustrator 29.3.1, SVG Export Plug-In . SVG Version: 2.1.0 Build 151)  -->
  <defs>
    <style>
      .st0 {
        fill: #fff;
      }

      .st1 {
        mask: url(#mask);
      }

      .st2, .st3 {
        fill: #243570;
      }

      .st3 {
        fill-rule: evenodd;
      }
    </style>
    <mask id="mask" x="0" y="0" width="284.6" height="90.8" maskUnits="userSpaceOnUse">
      <g id="mask0_10_169">
        <path class="st0" d="M284.6,0H0v90.8h284.6V0Z"/>
      </g>
    </mask>
  </defs>
  <g class="st1">
    <g>
      <path class="st3" d="M0,25.7v42.8c0,.2.1.4.3.5l19.8,11.3,8.3,4.7,8.5,4.8c.4.2.9,0,.9-.5v-18.3c0,0,0-.2,0-.3l-1.7-2.8c-.5-.9-.2-2,.7-2.5h.1c.6-.4.9-1,.9-1.7v-16.1c0-.2-.1-.4-.3-.5L9.4,31,0,25.7h0ZM52.1,73.4c0,.4.5.7.9.5l15-8.6,2.9-1.7c.2,0,.3-.3.3-.5v-4.2c0-.4-.5-.7-.9-.5l-12.5,7.1c-.4.2-.9,0-.9-.5v-9.3c0-.2.1-.4.3-.5l13.9-8,8.5-4.8c.4-.2.9,0,.9.5v25.6c0,.2-.1.4-.3.5l-19.8,11.3-8.3,4.7-8.5,4.8c-.4.2-.9,0-.9-.5v-41.8c0-.2.1-.4.3-.5l28.1-16.1,8.5-4.8c.4-.2.9,0,.9.5v9.3c0,.2-.1.4-.3.5l-12.2,7-15.6,8.9c-.2,0-.3.3-.3.5v20.5h0ZM69,26.6l8.2-4.7c.4-.2.4-.8,0-1L40.6,0c-.2,0-.4,0-.6,0l-8.2,4.7c-.4.2-.4.8,0,1,12.2,7,24.4,13.9,36.6,20.9.2,0,.4,0,.6,0h0ZM11.5,16.3l-8.2,4.7c-.4.2-.4.8,0,1l8.5,4.8,28.1,16.1c.2,0,.4,0,.6,0l8.2-4.7c.4-.2.4-.8,0-1-12.2-7-24.4-13.9-36.6-20.9-.2,0-.4,0-.6,0h0ZM40,16.3l-8.2,4.7c-.4.2-.4.8,0,1l13.3,7.6,9,5.2c.2,0,.4,0,.6,0l8.2-4.7c.4-.2.4-.8,0-1l-8.5-4.8-13.9-8c-.2,0-.4,0-.6,0ZM25.7,8.2l-8.2,4.7c-.4.2-.4.8,0,1l8.2,4.7c.2,0,.4,0,.6,0l8.2-4.7c.4-.2.4-.8,0-1l-8.2-4.7c-.2,0-.4,0-.6,0ZM9.3,47v-4.2c0-.4.5-.7.9-.5l17.9,10.2c.2,0,.3.3.3.5v4.2c0,.4-.5.7-.9.5l-17.9-10.2c-.2,0-.3-.3-.3-.5ZM27.6,73.9l-17.9-10.2c-.2,0-.3-.3-.3-.5v-4.2c0-.4.5-.7.9-.5l17.9,10.2c.2,0,.3.3.3.5v4.2c0,.4-.5.7-.9.5Z"/>
      <path class="st2" d="M93.4,25.3v-15.4h8.2c3,0,4.5,1.9,4.5,3.9s-1.2,3.2-2.7,3.5c1.7.2,3,1.8,3,3.8s-1.6,4.2-4.5,4.2h-8.5ZM102.7,14.4c0-1-.7-1.7-1.8-1.7h-4.2v3.3h4.2c1.1,0,1.8-.7,1.8-1.7h0ZM103,20.7c0-1-.7-1.8-2-1.8h-4.3v3.6h4.3c1.3,0,2-.7,2-1.8h0Z"/>
      <path class="st2" d="M108.9,25.3v-15.4h3.3v12.5h6.6v2.9h-9.9Z"/>
      <path class="st2" d="M119.7,17.6c0-4.6,3.4-8,8.1-8s8.1,3.3,8.1,8-3.4,8-8.1,8-8.1-3.3-8.1-8ZM132.5,17.6c0-2.9-1.9-5.1-4.7-5.1s-4.7,2.2-4.7,5.1,1.8,5.1,4.7,5.1,4.7-2.2,4.7-5.1Z"/>
      <path class="st2" d="M137.5,17.6c0-4.7,3.6-8,8.3-8s5.4,1.8,6.5,3.8l-2.8,1.4c-.7-1.2-2.1-2.2-3.7-2.2-2.8,0-4.9,2.1-4.9,5.1s2.1,5.1,4.9,5.1,1.5-.2,2.1-.6c.6-.4,1.2-.9,1.5-1.6l2.8,1.4c-1.1,1.9-3.1,3.8-6.5,3.8s-8.3-3.2-8.3-8h0Z"/>
      <path class="st2" d="M163.6,25.3l-4.7-6.2-1.2,1.4v4.7h-3.3v-15.4h3.3v6.9l5.5-6.9h4.1l-6.2,7.2,6.6,8.2h-4.1Z"/>
      <path class="st2" d="M167.3,17.6c0-4.7,3.6-8,8.3-8s5.4,1.8,6.5,3.8l-2.8,1.4c-.7-1.2-2.1-2.2-3.7-2.2-2.8,0-4.9,2.1-4.9,5.1s2.1,5.1,4.9,5.1,1.5-.2,2.1-.6c.6-.4,1.2-.9,1.5-1.6l2.8,1.4c-1.1,1.9-3.1,3.8-6.5,3.8s-8.3-3.2-8.3-8h0Z"/>
      <path class="st2" d="M194.7,25.3v-6.5h-7.4v6.5h-3.3v-15.4h3.3v6h7.4v-6h3.3v15.4h-3.3Z"/>
      <path class="st2" d="M211.9,25.3l-1-2.6h-6.7l-1,2.6h-3.8l6-15.4h4.2l6,15.4h-3.8ZM207.6,13.2l-2.4,6.6h4.9l-2.4-6.6h0Z"/>
      <path class="st2" d="M217.1,25.3v-15.4h3.3v15.4h-3.3Z"/>
      <path class="st2" d="M234.2,25.3l-7.4-10v10h-3.3v-15.4h3.4l7.2,9.7v-9.7h3.3v15.4h-3.2,0Z"/>
      <path class="st2" d="M93.4,53v-15.4h3.3v15.4h-3.3Z"/>
      <path class="st2" d="M110.5,53l-7.4-10v10h-3.3v-15.4h3.4l7.2,9.7v-9.7h3.3v15.4h-3.2,0Z"/>
      <path class="st2" d="M120.4,53v-12.5h-4.6v-2.9h12.4v2.9h-4.5v12.5h-3.3Z"/>
      <path class="st2" d="M130.4,53v-15.4h11v2.9h-7.7v3.3h7.5v2.9h-7.5v3.5h7.7v2.9h-11Z"/>
      <path class="st2" d="M144,53v-15.4h3.3v12.5h6.6v2.9h-9.9Z"/>
      <path class="st2" d="M156.2,53v-15.4h3.3v12.5h6.6v2.9h-9.9Z"/>
      <path class="st2" d="M168.4,53v-15.4h3.3v15.4h-3.3Z"/>
      <path class="st2" d="M174,45.3c0-4.9,3.7-8,8.3-8s5.3,1.6,6.4,3.4l-2.8,1.5c-.4-.6-.9-1.1-1.6-1.5-.6-.3-1.4-.5-2.1-.5-2.8,0-4.9,2.1-4.9,5.1s2.1,5.1,4.9,5.1,2.7-.6,3.3-1.2v-1.8h-4.1v-2.9h7.4v5.9c-1.6,1.8-3.8,2.9-6.6,2.9-4.6,0-8.3-3.1-8.3-8h0Z"/>
      <path class="st2" d="M191.6,53v-15.4h11v2.9h-7.7v3.3h7.5v2.9h-7.5v3.5h7.7v2.9h-11Z"/>
      <path class="st2" d="M215.9,53l-7.4-10v10h-3.3v-15.4h3.4l7.2,9.7v-9.7h3.3v15.4h-3.2,0Z"/>
      <path class="st2" d="M221.4,45.3c0-4.7,3.6-8,8.3-8s5.4,1.8,6.5,3.8l-2.8,1.4c-.7-1.2-2.1-2.2-3.7-2.2-2.8,0-4.9,2.1-4.9,5.1s2.1,5.1,4.9,5.1,1.5-.2,2.1-.6c.6-.4,1.2-.9,1.5-1.6l2.8,1.4c-1.1,1.9-3.1,3.8-6.5,3.8s-8.3-3.2-8.3-8h0Z"/>
      <path class="st2" d="M238.2,53v-15.4h11v2.9h-7.7v3.3h7.5v2.9h-7.5v3.5h7.7v2.9h-11Z"/>
      <path class="st2" d="M92.7,73c0-4.9,3.7-8,8.3-8s5.3,1.6,6.4,3.4l-2.8,1.5c-.4-.6-.9-1.1-1.6-1.5-.6-.3-1.4-.5-2.1-.5-2.8,0-4.9,2.1-4.9,5.1s2.1,5.1,4.9,5.1,2.7-.6,3.3-1.2v-1.8h-4.1v-2.9h7.4v5.9c-1.6,1.8-3.8,2.9-6.6,2.9-4.6,0-8.3-3.1-8.3-8h0Z"/>
      <path class="st2" d="M119,80.7l-3.1-5.5h-2.4v5.5h-3.3v-15.4h7.3c3.2,0,5.2,2.1,5.2,5s-1.7,4.2-3.4,4.6l3.5,5.9h-3.8ZM119.3,70.2c0-1.3-1-2.1-2.3-2.1h-3.5v4.2h3.5c1.3,0,2.3-.8,2.3-2.1Z"/>
      <path class="st2" d="M124.5,73c0-4.6,3.4-8,8.1-8s8.1,3.3,8.1,8-3.4,8-8.1,8-8.1-3.3-8.1-8ZM137.3,73c0-2.9-1.9-5.1-4.7-5.1s-4.7,2.2-4.7,5.1,1.8,5.1,4.7,5.1,4.7-2.2,4.7-5.1Z"/>
      <path class="st2" d="M143,74.5v-9.2h3.4v9.1c0,2.1,1.3,3.6,3.7,3.6s3.6-1.5,3.6-3.6v-9.1h3.4v9.2c0,3.8-2.3,6.4-7,6.4s-7-2.6-7-6.4Z"/>
      <path class="st2" d="M160.1,80.7v-15.4h7.3c3.4,0,5.2,2.3,5.2,5s-1.9,5-5.2,5h-4v5.5h-3.3ZM169.3,70.2c0-1.3-1-2.1-2.3-2.1h-3.5v4.2h3.5c1.3,0,2.3-.8,2.3-2.1Z"/>
    </g>
  </g>
</svg>