<?xml version="1.0" encoding="UTF-8"?>
<svg id="Layer_1" xmlns="http://www.w3.org/2000/svg" version="1.1" xmlns:xlink="http://www.w3.org/1999/xlink" viewBox="0 0 432 90">
  <!-- Generator: Adobe Illustrator 29.3.1, SVG Export Plug-In . SVG Version: 2.1.0 Build 151)  -->
  <defs>
    <style>
      .st0 {
        fill: #fff;
      }
    </style>
  </defs>
  <path class="st0" d="M17.4,54.1h4.5v5.6h27.2v9.7l-4.5,4.6v-9.7h-27.2v-10.2ZM17.4,32h4.5v5.7h21.8v9.7l-4.6,4.6v-9.7h-21.8v-10.2ZM6.9,15.7h42.2v9.7l-4.5,4.6v-9.7H2.3l4.5-4.6ZM6.1,13.9L0,20v56.2h44.9l6.1-6.1v-12.3h-27.3v-3.6h15.8l6.1-6.1v-12.3h-21.9v-3.6h21.3l6.1-6.1v-12.3H6.1Z"/>
  <path class="st0" d="M66.7,15.7h15v43.9h27.2v9.7l-4.5,4.6v-9.7h-27.2V20.3h-15l4.5-4.6ZM66,13.9l-6.1,6.1v56.2h44.9l6.1-6.1v-12.3h-27.3V13.9h-17.6Z"/>
  <path class="st0" d="M126.5,15.7h15v43.9h27.2v9.7l-4.5,4.6v-9.7h-27.2V20.3h-15l4.5-4.6ZM125.8,13.9l-6.1,6.1v56.2h44.8l6.1-6.1v-12.3h-27.2V13.9h-17.6Z"/>
  <path class="st0" d="M186.4,15.7h15v53.6l-4.5,4.6V20.3h-15l4.5-4.6ZM185.6,13.9l-6.1,6.1v56.2h17.6l6.1-6.1V13.9h-17.6Z"/>
  <path class="st0" d="M229.4,54h4.5v15.3l-4.5,4.6v-19.9ZM235.2,37.7h15.9v4.6h-20.5l4.5-4.6ZM229.4,31.3h4.5v5l-4.5,4.7v-9.7ZM235.8,31.3h15.4v4.6h-15.4v-4.6ZM218.9,15.7h47.7v31.7l-4.5,4.6v-31.7h-47.6l4.4-4.6ZM218.2,13.9l-6.1,6.1v56.2h17.6l6.1-6.1v-15.9h26.7l6.1-6.1V13.9h-50.4Z"/>
  <path class="st0" d="M311.1,32.3h4.5v37.1l-4.5,4.6v-41.7ZM284.2,15.7h53.1v9.7l-4.4,4.6v-9.7h-53.2l4.5-4.6ZM283.5,13.9l-6.1,6.1v12.3h16.3v43.9h17.9l6.1-6.1v-37.8h15.6l6.1-6.1v-12.3h-55.9Z"/>
  <path class="st0" d="M398.1,32.1h4.5v27.6h27.2v9.7l-4.5,4.6v-9.7h-27.2v-32.2ZM387.8,15.7h42.2v9.7l-4.5,4.6v-9.7h-42.4l4.7-4.6ZM387,13.9l-6.1,6.1v56.2h44.8l6.1-6.1v-12.3h-27.2v-25.6h21.3l6.1-6.1v-12.3h-45Z"/>
  <path class="st0" d="M355,15.7h15v53.6l-4.5,4.6V20.3h-15l4.5-4.6ZM354.2,13.9l-6.1,6.1v56.2h17.6l6.1-6.1V13.9h-17.6Z"/>
</svg>