<?xml version="1.0" encoding="UTF-8"?>
<svg id="Layer_2" xmlns="http://www.w3.org/2000/svg" version="1.1" viewBox="0 0 360.8 62.2">
  <!-- Generator: Adobe Illustrator 29.8.3, SVG Export Plug-In . SVG Version: 2.1.1 Build 3)  -->
  <defs>
    <style>
      .st0 {
        fill: #fff;
      }
    </style>
  </defs>
  <path class="st0" d="M166.9.6c.7,1.1.6,3.6.7,4.9.3,10.5.3,21.2,0,31.7,0,2.2,0,4.7-.2,6.9-.1,1.3-1.1,2.2-2.3,2.6v-.3c-.1-1.6,0-3.3,0-4.9,0-10.6,0-21.2.2-31.7,0-2.3,0-4.6.1-6.8,0-.6,0-1.7.4-2.2.3-.3.7-.7,1-.2h.1ZM174.7,45.2c.5,0,1,.2,1.6.2,2.1.2,4.6.2,6.7,0,8.1-.8,12.2-8,10.5-15.7-1.4-6.4-6.8-7.8-12.7-8h-6.1v23.5ZM191,12c1.4-4.6-.3-10.1-5.4-11.2C183.3.3,178.8,0,176.5.4c-.5,0-1.2,0-1.3.7-.2.7-.3,2.2-.3,2.9-.2,4.1-.1,8.2-.2,12.3v2.4c5.9.1,14.3.2,16.3-6.7ZM156.9,56.4c1.4-2.3,1.3-7.3,1.4-10,.2-12,.1-24.2,0-36.3,0-2.5,0-5.1-.2-7.6,0-.8-.3-1.6-.6-2.4h-8.1v56.9c.7.2,1.4.6,2.1.7,1.8.4,4.4.4,5.5-1.3h0ZM211.5,53.9c-.9-.9-1.9-2-2.8-2.9q-.2-.2-.4-.2c-.7,0-1.3.7-1.8.9h-.1c-1.1-1.1-2.1-2.2-3.2-3.2-.2-.2-1.9-1.7-2-1.7-1,1.4-1.8,3-2.6,4.6-1.8,3.5-3.5,7.2-5.3,10.7h18.5v-8.2h-.3ZM155.2,62h21.6l6.7-9,6.5,1.7h.2c3.1-3.1,6.1-6.3,9.2-9.4.5-.5,1.1-1,1.7-1.5h.1c.2,0,.6.5.8.7,1.3,1.2,2.5,2.6,3.9,3.8.2,0,.6.5.8.5s.8-.4,1-.6c.1,0,.7-.6.8-.5.9.9,1.9,2.1,2.9,2.9h0V.2h-15.1c1.4,1.5,2.2,3.7,2.4,5.7.5,5.2-2,8.8-6.3,11.4-1.6.9-3.4,1.6-5.2,2.3,1.6.3,3.3.5,4.9.9,5.8,1.4,9.2,5.2,9.4,11.2.3,7.7-6.4,14.3-13.4,16.3-2.3.7-4.7.6-7,.7-5,0-10.1,0-15.1.2h-1.3c-.3.9-.6,1.8-.9,2.6-1.3,3.5-3.8,6.9-6.8,9.1l-1.8,1.5h0ZM184.5,55.3c-.4,0-1.4.9-1.7,1.2-1.5,1.4-2.9,3.1-4.3,4.6l-.4.8h11.2c.2-.8.1-2.1.2-2.9,0-.6,0-1.3.1-1.9v-.3c-1.4-.5-2.9-1.1-4.3-1.4-.2,0-.5-.2-.7-.2h-.1Z"/>
</svg>