<?xml version="1.0" encoding="UTF-8"?>
<svg id="Layer_3_copy" xmlns="http://www.w3.org/2000/svg" version="1.1" viewBox="0 0 360.8 62.2">
  <!-- Generator: Adobe Illustrator 29.8.3, SVG Export Plug-In . SVG Version: 2.1.1 Build 3)  -->
  <defs>
    <style>
      .st0 {
        fill: #5fa89b;
      }
    </style>
  </defs>
  <path class="st0" d="M93.7,30.8l8.1,13.2h-8.1v-13.2ZM118.8,44h6v-26.4h-6v26.4ZM93.4,17.6l16.8,27.4,3-7.1-12.4-20.2h-7.4ZM139.7,31.1c0,16.9-13.7,30.6-30.6,30.6s-30.6-13.7-30.6-30.6S92.1.5,109,.5s30.6,13.7,30.6,30.6M136.4,31.1c0-15.1-12.3-27.4-27.4-27.4s-27.4,12.3-27.4,27.4,12.3,27.4,27.4,27.4,27.4-12.3,27.4-27.4"/>
  <path class="st0" d="M178.6,17.7c-2,0-3.5,1.5-3.5,3.6s1.4,3.6,3.5,3.6,2.1-.5,2.8-1.3l1.8,1.8c-1.1,1.2-2.7,2-4.6,2-3.5,0-6.2-2.7-6.2-6.2s2.6-6.2,6.2-6.2,3.5.8,4.6,2l-1.8,1.8c-.6-.7-1.5-1.3-2.8-1.3M190.9,10.4c5.1,0,8.9,3.7,8.9,8.5s-3.8,8.5-8.9,8.5h-5.4V10.3h5.4M190.9,24.7c3.7,0,6.1-2.6,6.1-5.9s-2.4-5.9-6.1-5.9h-2.6v11.8h2.6M185.2,50.1h2.6v-17h-2.6v17ZM156,16.9l5.6,6,5.6-6v10.4h2.8V10.2l-8.3,8.9-8.3-8.9v17.1h2.8v-10.4ZM179.6,50.1h2.6v-17h-2.6v17ZM250,15.2c3.5,0,6.2,2.7,6.2,6.2s-2.7,6.2-6.2,6.2-6.2-2.7-6.2-6.2,2.6-6.2,6.2-6.2M250,25c2,0,3.5-1.6,3.5-3.6s-1.5-3.7-3.5-3.7-3.5,1.6-3.5,3.7,1.4,3.6,3.5,3.6M166.2,42.9l-4.2-10-4.2,10-3.3-9.8h-2.8l5.8,17.1,4.6-11,4.6,11,5.8-17.1h-2.9l-3.3,9.8ZM174,50.1h2.6v-11.8h-2.6v11.8ZM213.1,22.1h-9.1c.3,1.7,1.6,2.9,3.4,2.9s2.5-.7,3.1-1.4l1.8,1.9c-1,1.2-2.8,2.1-4.9,2.1-3.5,0-6.2-2.7-6.2-6.2s2.6-6.2,6.1-6.2,5.5,2.3,5.7,6.2v.7ZM210.2,20c-.3-1.6-1.4-2.4-3-2.4s-2.7.9-3.1,2.4h6.2ZM264.6,27.3v-2.4h-1.3c-1.4,0-1.7-.5-1.7-1.8v-5.4h4v6c0,2.3,1.4,3.6,3.7,3.6h2.3v-2.4h-1.7c-1.4,0-1.7-.5-1.7-1.8v-5.4h3.1l.6-2.3h-3.6v-3.6l-2.6,1.3v2.3h-4v-3.6l-2.6,1.3v2.3h-2.3l.6,2.3h1.7v6c0,2.3,1.4,3.6,3.6,3.6h2ZM260.7,44.8h-9.1c.3,1.7,1.7,2.9,3.4,2.9s2.5-.7,3.1-1.4l1.8,1.9c-1,1.2-2.8,2.1-4.9,2.1-3.5,0-6.2-2.7-6.2-6.2s2.6-6.2,6.1-6.2,5.5,2.3,5.7,6.2v.7ZM257.8,42.8c-.3-1.6-1.4-2.4-3-2.4s-2.7.9-3.1,2.4h6.2ZM265.6,39.3v-1.2h-2.6v11.9h2.6v-8c.5-1,1.5-1.4,2.6-1.4s1,0,1.3.2v-2.8c-.3,0-.5,0-.9,0-1.3,0-2.3.4-3.1,1.3M279.6,38.1l-3.3,8.2-3.3-8.2h-2.8l4.7,11.3-2.1,5h2.8l6.8-16.4h-2.8ZM242.2,37.9c-1.2,0-2.8.4-3.9,1.8-.8-1.2-2-1.8-3.7-1.8s-2.3.4-3.1,1.3v-1.1h-2.6v11.9h2.6v-7.6c.5-1.4,1.4-2,2.6-2,1.7,0,2.5,1.4,2.5,2.7v6.9h2.6v-7c0-.2,0-.4,0-.5.5-1.4,1.4-2.1,2.6-2.1,1.7,0,2.4,1.4,2.4,2.7v6.9h2.6v-7c0-3.1-1.6-5.1-4.6-5.1M216.6,50.1h10.1v-2.7h-7.3v-4.6h5.8v-2.7h-5.8v-4.3h7.3v-2.7h-10.1v17ZM218,19.3c.5-1,1.5-1.4,2.6-1.4s1,0,1.3.2v-2.8c-.3,0-.5,0-.9,0-1.3,0-2.3.4-3.1,1.3v-1.2h-2.6v11.9h2.6v-8ZM231.5,20.4v6.9h2.6v-7c0-.2,0-.4,0-.5.5-1.4,1.4-2.1,2.6-2.1,1.7,0,2.4,1.4,2.4,2.7v6.9h2.6v-7c0-3.1-1.7-5.1-4.6-5.1s-2.8.4-3.9,1.8c-.8-1.2-2-1.8-3.7-1.8s-2.3.4-3.1,1.3v-1.1h-2.6v11.9h2.6v-7.6c.5-1.4,1.4-2,2.6-2,1.8,0,2.6,1.4,2.6,2.7M175.3,32.9c-1.1,0-1.9.9-1.9,1.9s.9,1.9,1.9,1.9,1.9-.9,1.9-1.9-.9-1.9-1.9-1.9M209.8,50.1h-2.9l-1.6-2.7c-1,1.7-2.6,2.9-4.8,2.9-3.3,0-5.7-2.4-5.7-5.5s2.5-5.5,5.4-5.5.1,0,.2,0l-3.6-6.1h9.4v2.4h-5.1l4.2,7.1,1.2-2.8h2.7l-2.5,5.1,3,5.1ZM200.6,47.8c1.5,0,2.4-.9,3.3-2.8l-1.8-3c-.5-.3-1-.5-1.6-.5-1.9,0-3.1,1.4-3.1,3.1s1.3,3.1,3.2,3.1"/>
</svg>