<?xml version="1.0" encoding="UTF-8"?>
<svg id="Layer_3_copy" xmlns="http://www.w3.org/2000/svg" version="1.1" viewBox="0 0 360.8 62.2">
  <!-- Generator: Adobe Illustrator 29.8.3, SVG Export Plug-In . SVG Version: 2.1.1 Build 3)  -->
  <defs>
    <style>
      .st0 {
        fill: #fc4c02;
      }

      .st1 {
        fill: #101820;
      }
    </style>
  </defs>
  <g>
    <path id="Group_11467" class="st1" d="M132,45h-4.9c-.2,0-.4-.2-.4-.4h0v-2.1c0-.2.2-.4.4-.4h13.2c.2,0,.4.2.4.4h0v2.1c0,.2-.2.4-.4.4h-5v16c0,.2-.2.4-.4.4h-2.4c-.2,0-.4-.2-.4-.4h0v-16ZM154.4,61c0,.2-.2.4-.4.4h-2.4c-.2,0-.4-.2-.4-.4h0v-18.6c0-.2.2-.4.4-.4h2.4c.2,0,.4.2.4.4h0v8h8.8v-8c0-.2.2-.4.4-.4h2.4c.2,0,.4.2.4.4h0v18.6c0,.2-.2.4-.4.4h-2.4c-.2,0-.4-.2-.4-.4h0v-7.6h-8.8v7.6ZM194.8,51.8c0,4-2.1,9.8-9.3,9.8s-9.5-5.7-9.5-9.8,2.1-9.8,9.5-9.8,9.3,5.7,9.3,9.8M191.4,51.8c0-1.7-.7-6.7-5.9-6.7s-6.1,5-6.1,6.7.7,6.8,6.1,6.8,5.9-5.1,5.9-6.8M208.6,49.3l-3.8,11.7c0,.2-.3.4-.5.4h-2.7c-.2,0-.3-.1-.3-.3h0l6.4-18.7c0-.2.3-.4.5-.4s.5.1.6.4l5.3,12.1,5.3-12.1c0-.2.3-.4.5-.4s.5.2.5.4l6.4,18.7c0,.2,0,.3-.2.4h-2.7c-.2,0-.5-.2-.5-.4l-3.8-11.7-5.2,11.9c0,.2-.3.3-.5.2,0,0-.2-.1-.2-.2l-5.2-11.9h.1ZM248.5,56.3c0,3-2.9,5.3-6.8,5.3s-4.7-.5-6.7-1.6c-.2,0-.3-.3-.2-.5h0l.8-1.9c0-.2.3-.3.5-.2h0c1.6.7,3.4,1.3,5.2,1.3s3.6-.8,3.6-2.3c0-4.5-10.2-2-10.2-8.8s2.5-5.4,6.1-5.4,4.4.5,6.3,1.5c.2,0,.3.3.2.6l-.8,2c0,.2-.3.3-.5.2h0c-1.5-.5-3-1-4.5-1.1-1.8,0-3.2.3-3.3,2,0,3.8,10.3,1.6,10.3,9M275.3,51.8c0,4-2.1,9.8-9.3,9.8s-9.5-5.7-9.5-9.8,2.1-9.8,9.5-9.8,9.3,5.7,9.3,9.8M271.9,51.8c0-1.7-.7-6.7-5.9-6.7s-6.1,5-6.1,6.7.7,6.8,6.1,6.8,5.9-5.1,5.9-6.8M284.6,61.5c-.2,0-.4-.2-.4-.4h0v-18.7c0-.2.1-.3.3-.3s.4,0,.6.2l11.3,11.5v-11.3c0-.2.2-.4.4-.4h2.4c.2,0,.4.2.4.4h0v18.7c0,.2-.2.3-.4.3h0c-.2,0-.4,0-.6-.3l-11.3-11.7v11.5c0,.2-.2.4-.4.4h-2.4.1Z"/>
    <path id="Group_114671" data-name="Group_11467" class="st1" d="M173.6.6h3.3c.3,0,.6.3.6.6h0v24.8c0,.3-.3.6-.6.6h-3.3c-.3,0-.6-.3-.6-.6h0V1.2c0-.3.3-.6.6-.6ZM136.4,10.4l-5.1,15.6c0,.3-.4.6-.7.6h-3.5c-.3,0-.4-.1-.4-.4h0l8.5-24.9c0-.3.4-.6.7-.6s.7.1.8.6l7.1,16.1,7.1-16.1c0-.3.4-.6.7-.6s.7.3.7.6l8.5,24.9c0,.3,0,.4-.3.6h-3.5c-.3,0-.7-.3-.7-.6l-5.1-15.6-6.9,15.8c0,.3-.4.4-.7.3,0,0-.3-.1-.3-.3l-6.9-15.8h.1ZM198.2,22.5h8.8c.3,0,.6.3.6.6h0v2.8c0,.3-.3.6-.6.6h-12.6c-.3,0-.6-.3-.6-.6h0V1.2c0-.3.3-.6.6-.6h3.3c.3,0,.6.3.6.6h0v21.4ZM226,22.5h8.8c.3,0,.6.3.6.6h0v2.8c0,.3-.3.6-.6.6h-12.6c-.3,0-.6-.3-.6-.6h0V1.2c0-.3.3-.6.6-.6h3.3c.3,0,.6.3.6.6h0v21.4ZM253.5,15.7v6.8h11.9c.3,0,.6.3.6.6h0v2.8c0,.3-.3.6-.6.6h-15.7c-.3,0-.6-.3-.6-.6h0V1.2c0-.3.3-.6.6-.6h15.7c.3,0,.6.3.6.6h0v2.8c0,.3-.3.6-.6.6h-11.9v7.2h9.2c.3,0,.6.3.6.6h0v2.8c0,.3-.3.6-.6.6h-9.2ZM285.7,25.9c0,.3-.3.6-.6.6h-3.3c-.3,0-.6-.3-.6-.6h0V1.2c0-.3.3-.6.6-.6h8.9c6.9,0,8.9,4.8,8.9,8.1s-2.1,6.4-5.4,7.5c1.3,2.8,3.5,6.9,5,9.8,0,.1,0,.4-.1.4h-3.7c-.3,0-.7-.1-.8-.6l-4.7-9.2h-4.2v9.3ZM295.3,8.7c0-2.1-1.6-4.1-3.8-4.1h-5.8v8.2h5.4c2.3,0,4.1-1.7,4.1-3.8v-.3"/>
  </g>
  <path class="st0" d="M87.4,31.9l-23,16,21.7-10.2,2.2,23.9,2.2-23.9,21.7,10.2-23-16c-.5-.4-1.3-.4-1.8,0M86.4,30.1h0c.6-.3,1-.9.9-1.7l-2.3-27.8-2.2,23.9-21.7-10,19.7,13.7-19.7,13.7,25.3-11.9h0ZM115.7,14.5l-21.7,10.2-2.2-23.9-2.3,27.8c0,.6.4,1.3.9,1.7l25.3,11.9-19.7-13.7,19.7-13.7v-.3Z"/>
</svg>