<?xml version="1.0" encoding="UTF-8"?>
<svg width="433px" height="371px" viewBox="0 0 433 371" version="1.1" xmlns="http://www.w3.org/2000/svg" xmlns:xlink="http://www.w3.org/1999/xlink">
    <title>Group 2</title>
    <defs>
        <circle id="path-1" cx="38" cy="38" r="38"></circle>
        <filter x="-60.5%" y="-40.8%" width="221.1%" height="221.1%" filterUnits="objectBoundingBox" id="filter-2">
            <feMorphology radius="1" operator="dilate" in="SourceAlpha" result="shadowSpreadOuter1"></feMorphology>
            <feOffset dx="0" dy="15" in="shadowSpreadOuter1" result="shadowOffsetOuter1"></feOffset>
            <feGaussianBlur stdDeviation="12.5" in="shadowOffsetOuter1" result="shadowBlurOuter1"></feGaussianBlur>
            <feComposite in="shadowBlurOuter1" in2="SourceAlpha" operator="out" result="shadowBlurOuter1"></feComposite>
            <feColorMatrix values="0 0 0 0 0   0 0 0 0 0   0 0 0 0 0  0 0 0 0.06 0" type="matrix" in="shadowBlurOuter1"></feColorMatrix>
        </filter>
        <circle id="path-3" cx="38" cy="38" r="38"></circle>
        <filter x="-60.5%" y="-40.8%" width="221.1%" height="221.1%" filterUnits="objectBoundingBox" id="filter-4">
            <feMorphology radius="1" operator="dilate" in="SourceAlpha" result="shadowSpreadOuter1"></feMorphology>
            <feOffset dx="0" dy="15" in="shadowSpreadOuter1" result="shadowOffsetOuter1"></feOffset>
            <feGaussianBlur stdDeviation="12.5" in="shadowOffsetOuter1" result="shadowBlurOuter1"></feGaussianBlur>
            <feComposite in="shadowBlurOuter1" in2="SourceAlpha" operator="out" result="shadowBlurOuter1"></feComposite>
            <feColorMatrix values="0 0 0 0 0   0 0 0 0 0   0 0 0 0 0  0 0 0 0.06 0" type="matrix" in="shadowBlurOuter1"></feColorMatrix>
        </filter>
        <circle id="path-5" cx="38" cy="38" r="38"></circle>
        <filter x="-60.5%" y="-40.8%" width="221.1%" height="221.1%" filterUnits="objectBoundingBox" id="filter-6">
            <feMorphology radius="1" operator="dilate" in="SourceAlpha" result="shadowSpreadOuter1"></feMorphology>
            <feOffset dx="0" dy="15" in="shadowSpreadOuter1" result="shadowOffsetOuter1"></feOffset>
            <feGaussianBlur stdDeviation="12.5" in="shadowOffsetOuter1" result="shadowBlurOuter1"></feGaussianBlur>
            <feComposite in="shadowBlurOuter1" in2="SourceAlpha" operator="out" result="shadowBlurOuter1"></feComposite>
            <feColorMatrix values="0 0 0 0 0   0 0 0 0 0   0 0 0 0 0  0 0 0 0.06 0" type="matrix" in="shadowBlurOuter1"></feColorMatrix>
        </filter>
        <circle id="path-7" cx="38" cy="38" r="38"></circle>
        <filter x="-60.5%" y="-40.8%" width="221.1%" height="221.1%" filterUnits="objectBoundingBox" id="filter-8">
            <feMorphology radius="1" operator="dilate" in="SourceAlpha" result="shadowSpreadOuter1"></feMorphology>
            <feOffset dx="0" dy="15" in="shadowSpreadOuter1" result="shadowOffsetOuter1"></feOffset>
            <feGaussianBlur stdDeviation="12.5" in="shadowOffsetOuter1" result="shadowBlurOuter1"></feGaussianBlur>
            <feComposite in="shadowBlurOuter1" in2="SourceAlpha" operator="out" result="shadowBlurOuter1"></feComposite>
            <feColorMatrix values="0 0 0 0 0   0 0 0 0 0   0 0 0 0 0  0 0 0 0.06 0" type="matrix" in="shadowBlurOuter1"></feColorMatrix>
        </filter>
        <circle id="path-9" cx="32" cy="32" r="32"></circle>
        <filter x="-60.7%" y="-40.4%" width="221.4%" height="221.4%" filterUnits="objectBoundingBox" id="filter-10">
            <feMorphology radius="0.842105263" operator="dilate" in="SourceAlpha" result="shadowSpreadOuter1"></feMorphology>
            <feOffset dx="0" dy="13" in="shadowSpreadOuter1" result="shadowOffsetOuter1"></feOffset>
            <feGaussianBlur stdDeviation="10.5" in="shadowOffsetOuter1" result="shadowBlurOuter1"></feGaussianBlur>
            <feComposite in="shadowBlurOuter1" in2="SourceAlpha" operator="out" result="shadowBlurOuter1"></feComposite>
            <feColorMatrix values="0 0 0 0 0   0 0 0 0 0   0 0 0 0 0  0 0 0 0.06 0" type="matrix" in="shadowBlurOuter1"></feColorMatrix>
        </filter>
        <linearGradient x1="0.332677621%" y1="99.8843905%" x2="100.095464%" y2="99.8843905%" id="linearGradient-11">
            <stop stop-color="#E96F0B" offset="0%"></stop>
            <stop stop-color="#F37901" offset="100%"></stop>
        </linearGradient>
    </defs>
    <g id="[NEW-UPDATE-Landing]" stroke="none" stroke-width="1" fill="none" fill-rule="evenodd">
        <g id="59---SaaS-03" transform="translate(-98.000000, -3295.000000)">
            <g id="Integrated" transform="translate(124.000000, 3294.000000)">
                <g id="Group-2" transform="translate(0.000000, 12.000000)">
                    <g id="Item" transform="translate(195.000000, 127.000000)">
                        <g id="Oval">
                            <use fill="black" fill-opacity="1" filter="url(#filter-2)" xlink:href="#path-1"></use>
                            <use stroke="#FFFFFF" stroke-width="2" fill="#FFFFFF" fill-rule="evenodd" xlink:href="#path-1"></use>
                        </g>
                        <g id="Digital-Ocean" transform="translate(18.000000, 18.000000)" fill="#0080FF">
                            <path d="M20.0021818,40.000001 L20.0021818,32.2481818 C28.2116364,32.2481818 34.5841818,24.1110909 31.4318182,15.4752364 C30.2752727,12.2793636 27.7127273,9.71809091 24.5150909,8.56209091 C15.8746909,5.43425455 7.73318182,11.7806727 7.73318182,19.9858182 L0,19.9858182 C0,6.90750909 12.6543818,-3.29227273 26.3747273,0.991636364 C32.3616364,2.87289091 37.1467273,7.63278182 39.0063636,13.6166182 C43.2925455,27.3523636 33.11,40.000001 20.0021818,40.000001 Z" id="Path"></path>
                            <path d="M12.3142364,32.2707273 L20.0247273,32.2707273 L20.0247273,24.5641818 L12.3142364,24.5641818 L12.3142364,32.2707273 Z M6.37267273,38.2094545 L12.3142364,38.2094545 L12.3142364,32.2709091 L6.37274545,32.2709091 L6.37267273,38.2094545 Z M1.40705455,32.2705455 L6.37369091,32.2705455 L6.37369091,27.3067273 L1.40705455,27.3067273 L1.40705455,32.2705455 Z" id="Shape"></path>
                        </g>
                    </g>
                    <g id="Item" transform="translate(0.000000, 127.000000)">
                        <g id="Oval">
                            <use fill="black" fill-opacity="1" filter="url(#filter-4)" xlink:href="#path-3"></use>
                            <use stroke="#FFFFFF" stroke-width="2" fill="#FFFFFF" fill-rule="evenodd" xlink:href="#path-3"></use>
                        </g>
                        <g id="trello" transform="translate(18.000000, 18.000000)" fill="#000000" fill-rule="nonzero">
                            <path d="M35.0378619,0 L5.08685969,0 C2.32516704,0 0.0890868597,2.23608018 0.0890868597,4.98886414 C0.0801781737,4.98886414 0.0890868597,4.6325167 0.0890868597,34.922049 C0.0890868597,37.674833 2.32516704,39.9109131 5.077951,39.9109131 L35.0289532,39.9109131 C37.7728285,39.8930958 39.9911181,37.6659243 39.9911181,34.922049 L39.9911181,4.98886414 C40,2.24498886 37.7817372,0.0178173719 35.0378619,0 L35.0378619,0 Z M17.6391982,30.2271715 C17.6213808,31.5367483 16.5612472,32.5969377 15.2427617,32.5969377 L7.8752784,32.5969377 C6.55679287,32.6057906 5.47884187,31.545657 5.46993318,30.2271715 L5.46993318,7.58129176 C5.46993318,6.26280624 6.5389755,5.18485523 7.86636971,5.18485523 L15.2516704,5.18485523 C16.5701559,5.18485523 17.6481069,6.25389755 17.6481069,7.58129176 L17.6481069,30.2271715 L17.6391982,30.2271715 Z M34.8418708,20.2494432 C34.8418708,21.5679287 33.7728285,22.6458797 32.4454343,22.6458797 L25.2293987,22.6458797 C23.9109131,22.6458797 22.8329621,21.5768374 22.8329621,20.2494432 L22.8329621,7.59020045 C22.8329621,6.27171492 23.9020045,5.19376392 25.22049,5.19376392 L32.4454343,5.19376392 C33.7639198,5.19376392 34.8418708,6.26280624 34.8418708,7.59020045 L34.8418708,20.2494432 Z" id="Shape"></path>
                        </g>
                    </g>
                    <g id="Item" transform="translate(305.000000, 0.000000)">
                        <g id="Oval">
                            <use fill="black" fill-opacity="1" filter="url(#filter-6)" xlink:href="#path-5"></use>
                            <use stroke="#FFFFFF" stroke-width="2" fill="#FFFFFF" fill-rule="evenodd" xlink:href="#path-5"></use>
                        </g>
                        <g id="slack-new-logo" transform="translate(18.000000, 18.000000)" fill-rule="nonzero">
                            <path d="M14.63351,-4.4408921e-16 C12.427232,0.00163065634 10.6416633,1.79209132 10.6432928,3.99836934 C10.6416633,6.20464737 12.4288626,7.99510803 14.6351406,7.99673869 L18.6269885,7.99673869 L18.6269885,4 C18.628618,1.79372197 16.8414187,0.00326131268 14.63351,-4.4408921e-16 C14.6351406,-4.4408921e-16 14.6351406,-4.4408921e-16 14.63351,-4.4408921e-16 M14.63351,10.6644925 L3.99184672,10.6644925 C1.78556869,10.6661231 -0.00163065634,12.4565838 -4.45638172e-06,14.6628618 C-0.00326131268,16.8691398 1.78393804,18.6596005 3.99021606,18.6628618 L14.63351,18.6628618 C16.839788,18.6612311 18.6269874,16.8707705 18.6253578,14.6644925 C18.6269874,12.4565838 16.839788,10.6661231 14.63351,10.6644925 Z" id="Shape" fill="#36C5F0"></path>
                            <path d="M39.9119457,14.6628618 C39.9135752,12.4565838 38.1263759,10.6661231 35.9200978,10.6644925 C33.7138198,10.6661231 31.9266205,12.4565838 31.92825,14.6628618 L31.92825,18.6628618 L35.9200978,18.6628618 C38.1263759,18.6612311 39.9135752,16.8707705 39.9119457,14.6628618 Z M29.2686517,14.6628618 L29.2686517,3.99836934 C29.2702813,1.79372197 27.4847126,0.00326131268 25.2784346,3.55271368e-15 C23.0721565,0.00163065634 21.2849572,1.79209132 21.2865834,3.99836934 L21.2865834,14.6628618 C21.2833265,16.8691398 23.0705259,18.6596005 25.2768039,18.6628618 C27.4830819,18.6612311 29.2702813,16.8707705 29.2686517,14.6628618 Z" id="Shape" fill="#2EB67D"></path>
                            <path d="M25.2768039,39.9918467 C27.4830819,39.9902161 29.2702813,38.1997554 29.2686517,35.9934774 C29.2702813,33.7871993 27.4830819,31.9967387 25.2768039,31.995108 L21.2849561,31.995108 L21.2849561,35.9934774 C21.2833265,38.1981247 23.0705259,39.9885854 25.2768039,39.9918467 Z M25.2768039,29.3257236 L35.9200978,29.3257236 C38.1263759,29.3240929 39.9135752,27.5336323 39.911949,25.3273543 C39.9152059,23.1210762 38.1280065,21.3306156 35.9217285,21.3273543 L25.2784346,21.3273543 C23.0721565,21.3289849 21.2849572,23.1194456 21.2865867,25.3257236 C21.2849572,27.5336323 23.0705259,29.3240929 25.2768039,29.3257236 L25.2768039,29.3257236 Z" id="Shape" fill="#ECB22E"></path>
                            <path d="M-1.11498138e-06,25.3273543 C-0.00163065634,27.5336323 1.78556869,29.3240929 3.99184672,29.3257236 C6.19812475,29.3240929 7.98532409,27.5336323 7.98369455,25.3273543 L7.98369455,21.3289849 L3.99184672,21.3289849 C1.78556869,21.3306156 -0.00163065634,23.1210762 -1.11498138e-06,25.3273543 Z M10.6432895,25.3273543 L10.6432895,35.9918467 C10.6400326,38.1981247 12.427232,39.9885854 14.63351,39.9918467 C16.839788,39.9902161 18.6269874,38.1997554 18.6253612,35.9934774 L18.6253612,25.3306156 C18.628618,23.1243375 16.8414187,21.3338769 14.6351406,21.3306156 C12.427232,21.3306156 10.6416633,23.1210762 10.6432895,25.3273543 C10.6432895,25.3273543 10.6432895,25.3289849 10.6432895,25.3273543" id="Shape" fill="#E01E5A"></path>
                        </g>
                    </g>
                    <g id="Item" transform="translate(118.000000, 0.000000)">
                        <g id="Oval">
                            <use fill="black" fill-opacity="1" filter="url(#filter-8)" xlink:href="#path-7"></use>
                            <use stroke="#FFFFFF" stroke-width="2" fill="#FFFFFF" fill-rule="evenodd" xlink:href="#path-7"></use>
                        </g>
                        <g id="Shopify" transform="translate(21.000000, 18.000000)">
                            <path d="M28.8585,7.45381667 C29.0106667,7.45381667 29.1628333,7.58233333 29.1933333,7.7751 C29.2236667,8 33.3333333,37.3333333 33.3333333,37.3333333 L21.6133333,40 L0,35.7268333 C0,35.7268333 2.77016667,13.0763 2.89193333,12.3052167 C3.0137,11.2449833 3.04413333,11.21285 4.10958333,10.8594333 C4.2618,10.7951833 5.63166667,10.3453833 7.51903333,9.73493333 C8.24961667,6.45783333 10.5936,0 15.4946667,0 C16.134,0 16.8645,0.353413333 17.4733333,1.188755 L17.656,1.188755 C19.7565,1.188755 20.9436667,3.08433333 21.6133333,5.14056667 C22.2831667,4.91566667 22.7093333,4.78715 22.7396667,4.78715 C22.892,4.72288333 23.3485,4.65863333 23.5616667,4.88353333 C23.8051667,5.10843333 25.8143333,7.22891667 25.8143333,7.22891667 C25.8143333,7.22891667 28.7061667,7.45381667 28.8585,7.45381667 Z M19.3,5.8946 C19.6888333,5.76661667 20.0541667,5.64641667 20.3958333,5.52623333 C19.9391667,4.0162 19.2391667,2.73105 18.1431667,2.60253333 C18.3866667,3.40575 18.5693333,4.43386667 18.5693333,5.719 L18.5693333,6.13668333 C18.8211667,6.0521 19.0645,5.97205 19.2991667,5.89485 L19.2998333,5.8946 L19.3,5.8946 Z M16.8036667,2.82715 C17.108,3.63036667 17.2906667,4.75486667 17.2906667,6.29703333 L17.2906667,6.52193333 C16.7918333,6.68391667 16.2716667,6.85156667 15.741,7.02251667 C15.009,7.25843333 14.2573333,7.50063333 13.516,7.74281667 C14.2465,4.81911667 15.6165,3.37333333 16.8036667,2.82715 Z M15.9816667,1.60632833 C15.7685,1.44568667 15.5555,1.38142833 15.3423333,1.38142833 C11.8416333,1.38142833 9.86293333,6.23283333 9.04101667,9.22078333 C9.9847,8.93163333 10.9892667,8.61035 12.0242833,8.25693333 C12.7244333,4.33725 14.4291667,2.37741667 15.9816667,1.60632833 Z" id="Shape" fill="#95BF47"></path>
                            <path d="M28.8585,7.45381667 C28.7063333,7.45381667 25.8143333,7.22891667 25.8143333,7.22891667 C25.8143333,7.22891667 23.8051667,5.10845 23.5616667,4.88355 C23.4703333,4.78715 23.379,4.75503333 23.2571667,4.7229 L21.6133333,40 L33.3333333,37.3333333 C33.3333333,37.3333333 29.2238333,8.00001667 29.1933333,7.80723333 C29.1628333,7.58233333 28.9801667,7.48595 28.8585,7.45381667 Z" id="Path" fill="#5E8E3E" fill-rule="nonzero"></path>
                            <path d="M17.6255,14.2973667 L16.1948333,18.8275 C16.1948333,18.8275 14.9163333,18.1206667 13.3941667,18.1206667 C11.1111,18.1206667 11.0197667,19.6306667 11.0197667,20.0161667 C11.0197667,22.0725 16.134,22.8756667 16.134,27.7271667 C16.134,31.5503333 13.8508333,33.9921667 10.7458,33.9921667 C7.03195,33.9921667 5.14458333,31.5503333 5.14458333,31.5503333 L6.14915,28.0805 C6.14915,28.0805 8.0974,29.8475 9.74123333,29.8475 C10.8066833,29.8475 11.2633,28.948 11.2633,28.3053333 C11.2633,25.6066667 7.06238333,25.4781667 7.06238333,21.0443333 C7.06238333,17.3175 9.58901667,13.6869333 14.7336667,13.6869333 C16.6515,13.6869333 17.6255,14.2973667 17.6255,14.2973667 Z" id="Path" fill="#FFFFFF" fill-rule="nonzero"></path>
                        </g>
                    </g>
                    <g id="Item" transform="translate(143.000000, 261.000000)">
                        <g id="Oval">
                            <use fill="black" fill-opacity="1" filter="url(#filter-10)" xlink:href="#path-9"></use>
                            <use stroke="#FFFFFF" stroke-width="1.68421053" fill="#FFFFFF" fill-rule="evenodd" xlink:href="#path-9"></use>
                        </g>
                        <g id="Google-Analytics" transform="translate(14.000000, 14.000000)">
                            <path d="M16.19442,36 L14.179824,36 L2.94444,36 C1.317258,36 0,34.6851 0,33.0606 L0,26.7174 C0,25.0929 1.317258,23.77782 2.94444,23.77782 L11.312856,23.77782 L11.312856,14.49522 C11.312856,12.870684 12.630114,11.55564 14.257314,11.55564 L23.55552,11.55564 L23.55552,35.92278 L16.19442,35.92278 L16.19442,36 Z" id="Path" fill="#FFC517"></path>
                            <path d="M33.00714,36 L23.5557,36 L23.5557,2.961036 C23.5557,1.324674 24.89472,0 26.54874,0 L33.00714,0 C34.66116,0 36.00018,1.324674 36.00018,2.961036 L36.00018,33.039 C35.92134,34.67538 34.5825,36 33.00714,36 Z" id="Path" fill="#F57E02"></path>
                            <path d="M36.00018,23.77782 L36.00018,33.0606 C36.00018,34.6851 34.66134,36 33.00732,36 L23.5557,36 L23.5557,11.55564 L36.00018,23.77782 Z" id="Path" fill="url(#linearGradient-11)"></path>
                        </g>
                    </g>
                </g>
            </g>
        </g>
    </g>
</svg>