<?xml version="1.0" encoding="utf-8"?>
<!-- Generator: Adobe Illustrator 25.0.1, SVG Export Plug-In . SVG Version: 6.00 Build 0)  -->
<svg version="1.1" id="Layer_1" xmlns="http://www.w3.org/2000/svg" xmlns:xlink="http://www.w3.org/1999/xlink" x="0px" y="0px"
	 viewBox="0 0 360 115.8" style="enable-background:new 0 0 360 115.8;" xml:space="preserve">
<style type="text/css">
	.st0{fill:#FFFFFF;}
	.st1{fill:#B8B5B1;}
</style>
<g id="Layer_1_1_">
</g>
<g id="Layer_2_1_">
	<g>
		<g>
			<g>
				<g>
					<path class="st0" d="M300.8,67.2c-4.1-4.1-6.1-11.2-6.1-21.1s2-17,6.1-21.1c4.1-4.1,11.7-6.2,23-6.2l36.2,0L345.9,0.9l-22.8,0
						c-18.2,0-31.5,3.7-39.7,11c-3.8,3.3-6.7,7.5-8.7,12.5c2.3,6.2,3.4,13.4,3.4,21.7s-1.1,15.5-3.4,21.7c2.1,5,4.9,9.2,8.7,12.5
						c8.3,7.2,21.5,10.9,39.8,10.8l21.1,0l14-17.8l-34.4,0C312.6,73.4,304.9,71.3,300.8,67.2z"/>
					<path class="st0" d="M202.9,1.1l-16.1,0h-4.5c-4.3,0.1-7.9,2-11,6L154.1,29L136.9,7.1c-3.2-4-6.8-5.9-11-5.9h-13.5
						c-2.3,0-3.5,1-3.5,2.9c0,1,0.4,2,1.3,3.1L140.1,45l-31.7,40.5c-0.9,1.1-1.3,2.2-1.3,3.1c0.2,1.9,1.4,2.8,3.5,2.8H124
						c4.2,0,7.9-2,10.9-5.9L154.1,61l19.2,24.5c3.1,3.9,6.7,5.9,11,5.9l20.3,0L168.2,45L202.9,1.1z"/>
					<path class="st0" d="M261.9,80.3c3.8-3.3,6.7-7.6,8.7-12.6c0.8-2,1.5-4,2-6.3c1.1-4.6,1.7-9.7,1.7-15.4s-0.6-10.8-1.7-15.4
						c-0.6-2.2-1.3-4.3-2.1-6.3c-2.1-5-4.9-9.2-8.7-12.6C253.6,4.7,240.3,1,222.1,1.1h-14.4l-14.1,17.8l27.8,0c11.3,0,19,2,23.1,6.2
						c4.1,4.1,6.1,11.2,6.1,21.1s-2,17-6.1,21.1c-4.1,4.1-11.7,6.2-23,6.2l-26,0l14,17.8h12.7C240.4,91.3,253.7,87.6,261.9,80.3z"/>
					<polygon class="st0" points="191.2,67.9 191.2,22.1 173.2,45 					"/>
					<path class="st0" d="M332,104.8l6.8-7c0.1-0.1,0.2-0.3,0.1-0.5c-0.1-0.2-0.2-0.3-0.4-0.3h-2.4c-0.1,0-0.2,0.1-0.3,0.2l-8.8,9.1
						v-8.8c0-0.2-0.2-0.5-0.5-0.5h-1.9c-0.2,0-0.5,0.2-0.5,0.5l0,16.7c0,0.2,0.2,0.5,0.5,0.5h1.9c0.2,0,0.5-0.2,0.5-0.5v-4.3
						l3.1-3.1l6.1,7.6c0.1,0.1,0.2,0.2,0.4,0.2h2.3c0.2,0,0.3-0.1,0.4-0.2c0.1-0.2,0.1-0.3-0.1-0.5L332,104.8z"/>
					<path class="st0" d="M316.3,107.7c0.4-0.1,0.8-0.3,1.2-0.5c0.6-0.3,1.1-0.6,1.6-1.1c0.4-0.4,0.8-1,1-1.6c0.2-0.6,0.4-1.3,0.4-2
						c0-0.8-0.2-1.6-0.5-2.2c-0.3-0.7-0.8-1.3-1.3-1.7s-1.3-0.8-2-1.1c-0.8-0.2-1.7-0.4-2.6-0.4h-7.1c-0.2,0-0.5,0.2-0.5,0.5l0,16.7
						c0,0.2,0.2,0.5,0.5,0.5h1.9c0.2,0,0.5-0.2,0.5-0.5v-6h4.1l4.7,6.3c0.1,0.1,0.2,0.2,0.4,0.2h2.3c0.2,0,0.3-0.1,0.4-0.2
						c0.1-0.2,0.1-0.3,0-0.5L316.3,107.7z M313.9,105.6h-4.7v-5.9h4.7c1.2,0,2.2,0.2,2.9,0.8c0.6,0.5,1,1.2,1,2.1
						c0,0.5-0.1,0.9-0.3,1.3c-0.2,0.4-0.4,0.7-0.8,0.9c-0.3,0.2-0.7,0.5-1.2,0.6C315,105.5,314.4,105.6,313.9,105.6z"/>
					<path class="st0" d="M301.5,99.5c-0.8-0.8-1.7-1.5-2.8-2c-1.1-0.5-2.3-0.7-3.6-0.7s-2.6,0.2-3.7,0.7c-1.1,0.5-2.1,1.2-2.8,2
						s-1.4,1.8-1.8,2.9c-0.4,1.1-0.6,2.2-0.6,3.5c0,1.2,0.2,2.4,0.6,3.5c0.4,1.1,1,2.1,1.8,2.9c0.8,0.8,1.7,1.5,2.8,2
						c1.1,0.5,2.3,0.7,3.6,0.7c1.3,0,2.6-0.2,3.7-0.7c1.1-0.5,2.1-1.2,2.8-2s1.4-1.8,1.8-2.9c0.4-1.1,0.6-2.2,0.6-3.5
						c0-1.2-0.2-2.4-0.6-3.5C302.9,101.3,302.3,100.3,301.5,99.5z M300.6,108.4c-0.3,0.8-0.7,1.4-1.3,2c-0.5,0.6-1.2,1-1.9,1.4
						c-0.7,0.3-1.5,0.5-2.4,0.5c-0.9,0-1.7-0.2-2.4-0.5c-0.7-0.3-1.4-0.8-1.9-1.4c-0.6-0.6-1-1.3-1.3-2c-0.3-0.8-0.5-1.6-0.5-2.5
						c0-0.9,0.2-1.7,0.5-2.5s0.7-1.4,1.3-2c0.5-0.6,1.2-1,1.9-1.4c0.7-0.3,1.6-0.5,2.4-0.5c0.9,0,1.7,0.2,2.4,0.5
						c0.7,0.3,1.4,0.8,1.9,1.4c0.6,0.6,1,1.3,1.3,2c0.3,0.8,0.5,1.6,0.5,2.5C301.1,106.8,300.9,107.6,300.6,108.4z"/>
					<path class="st0" d="M284.7,97.1L284.7,97.1h-2c-0.2,0-0.4,0.1-0.4,0.3L278,110l-4.2-12.6c-0.1-0.2-0.2-0.3-0.4-0.3h-1.5
						c-0.2,0-0.4,0.1-0.4,0.3l-4.1,12.6L263,97.4c-0.1-0.2-0.2-0.3-0.4-0.3h-2c-0.2,0-0.3,0.1-0.4,0.2c-0.1,0.1-0.1,0.3-0.1,0.4
						l6,16.8c0.1,0.2,0.2,0.3,0.4,0.3h1.6c0.2,0,0.4-0.1,0.4-0.3l4.1-12.2l4.1,12.2c0.1,0.2,0.2,0.3,0.4,0.3h1.6
						c0.2,0,0.4-0.1,0.4-0.3l5.9-16.7c0-0.1,0.1-0.1,0.1-0.2C285.1,97.3,285,97.1,284.7,97.1z"/>
					<path class="st0" d="M258.2,97.1h-13.1c-0.2,0-0.5,0.2-0.5,0.5v1.7c0,0.2,0.2,0.5,0.5,0.5h5.1l0,14.5c0,0.2,0.2,0.5,0.5,0.5
						h1.9c0.2,0,0.5-0.2,0.5-0.5l0-14.5h5.1c0.2,0,0.5-0.2,0.5-0.5v-1.7C258.7,97.3,258.5,97.1,258.2,97.1z"/>
					<path class="st0" d="M242.6,112.1h-9.8v-4.9h8.6c0.2,0,0.5-0.2,0.5-0.5V105c0-0.2-0.2-0.5-0.5-0.5h-8.6v-4.8h9.7
						c0.2,0,0.5-0.2,0.5-0.5v-1.7c0-0.2-0.2-0.5-0.5-0.5h-12c-0.2,0-0.5,0.2-0.5,0.5l0,16.7c0,0.2,0.2,0.5,0.5,0.5h12.2
						c0.2,0,0.5-0.2,0.5-0.5v-1.7C243,112.3,242.8,112.1,242.6,112.1z"/>
					<path class="st0" d="M225.7,97.1h-1.8c-0.2,0-0.5,0.2-0.5,0.5v12l-9.7-12.3c-0.1-0.1-0.2-0.2-0.4-0.2h-1.8
						c-0.2,0-0.5,0.2-0.5,0.5l0,16.7c0,0.2,0.2,0.5,0.5,0.5h1.8c0.2,0,0.5-0.2,0.5-0.5V102l10,12.6c0.1,0.1,0.2,0.2,0.4,0.2h1.5
						c0.2,0,0.5-0.2,0.5-0.5l0-16.7C226.1,97.3,225.9,97.1,225.7,97.1z"/>
				</g>
			</g>
		</g>
		<g>
			<g>
				<g id="Shape_1_3_">
					<g>
						<path class="st1" d="M90.4,41.8C80-18.4,1.5-6.7,0.1,41.8c4.5,2.3,7.4,3.8,7.4,3.8S5,47,0,50.2c9.1,59,86.3,50.4,90.4-0.1
							c-4.9-3-7.6-4.6-7.6-4.6S85.1,44.4,90.4,41.8z M51.7,62.8l-7.4-12.7l-7.5,12.7l-5.7-0.4l10.7-18l-9.6-15.5l5.8-0.5l6.8,11.5
							l6.8-11l5.4,0.1l-8.9,15.3l9.9,18.3L51.7,62.8z"/>
					</g>
				</g>
			</g>
			<g id="Shape_1_2_">
				<g>
					<path class="st0" d="M86.7,39.4c-14.1-53.4-78.6-39-83,0c8.9,5,11,6.2,11,6.2s-3.5,2.2-11,7c9.6,51.4,79.2,41.5,83-0.1
						c-7-4.4-11.2-7-11.2-7S85,40.3,86.7,39.4z M51.7,62.8l-7.4-12.7l-7.5,12.7l-5.7-0.4l10.7-18l-9.6-15.5l5.8-0.5l6.8,11.5l6.8-11
						l5.4,0.1l-8.9,15.3l9.9,18.3L51.7,62.8z"/>
				</g>
			</g>
		</g>
	</g>
</g>
</svg>
