<?xml version="1.0" encoding="UTF-8"?>
<svg id="Layer_2" xmlns="http://www.w3.org/2000/svg" version="1.1" viewBox="0 0 360.8 62.2">
  <!-- Generator: Adobe Illustrator 30.4.0, SVG Export Plug-In . SVG Version: 2.1.4 Build 226)  -->
  <defs>
    <style>
      .st0 {
        fill: #12acec;
        fill-rule: evenodd;
      }
    </style>
  </defs>
  <path class="st0" d="M184.7,21.83s-.01,0-.02-.02c0,0,0,0,.02.02ZM165.26,20.92l1.72-.16c.55-.05.91-.44.91-.96v-9.4c0-.44.17-.87.5-1.25.33-.36.74-.57,1.23-.61l2.32-.21c.46-.04.86.09,1.2.42.34.31.5.69.5,1.13v9.4c0,.53.37.85.91.8l1.75-.16c.09,0,.17-.04.25-.08.52-.28.63-.63.63-.88v-9.4c0-.44.17-.87.5-1.25.33-.36.74-.57,1.23-.61l2.32-.21c.47-.04.87.09,1.23.42.34.31.5.69.5,1.13v9.4c0,.53.37.85.91.8l1.72-.16c.55-.05.91-.44.91-.96v-9.4c0-1.4-.54-2.51-1.58-3.28-1.01-.78-2.26-1.11-3.7-.98l-2.32.21c-1.37.12-2.54.61-3.51,1.46-.96-.67-2.13-.95-3.48-.83l-2.32.21c-1.43.13-2.68.68-3.73,1.65-1.01.96-1.55,2.19-1.55,3.56v9.4c0,.53.37.85.91.8h0ZM157.89,4.11l2.88-.26c.55-.05.91-.44.91-.96v-1.32c0-.42-.28-.83-.91-.77l-2.88.26c-.63.06-.91.51-.91.93v1.32c0,.53.37.85.91.8ZM168.98,32.82l4.86-.4-2.45-6.51-2.41,6.91ZM206.67,19.88s-.04,0-.04,0c0,0,.03,0,.04,0ZM211.75,15.4c1.01.78,2.25,1.11,3.7.98,2-.18,3.51-.51,4.64-1.01.39-.18.61-.5.61-.9v-1.14c0-.74-.62-.92-1.06-.77-1.06.35-2.43.6-4.19.76-.48.04-.89-.09-1.23-.39-.33-.31-.5-.7-.5-1.16v-5.49c0-.46.17-.88.5-1.25.33-.37.75-.57,1.23-.62,1.76-.16,3.17-.16,4.19,0,.5.08,1.06-.22,1.06-.96v-1.14c0-.37-.2-.66-.59-.79-1.12-.3-2.64-.35-4.66-.17-1.44.13-2.7.7-3.73,1.68-1.01.96-1.55,2.2-1.55,3.56v5.49c0,1.39.53,2.5,1.58,3.31h0ZM188.3,4.95c.21-.11.37-.27.51-.44l3.49,3.59-2.08.7c-.07-.2-.18-.38-.36-.52-.52-.4-1.29-.27-1.73.28-.44.55-.39,1.32.13,1.72.51.4,1.29.27,1.73-.28.12-.15.2-.32.25-.49l2.09.97s0,.08,0,.12c0,4.46,3.62,7.76,8.09,7.35,4.47-.4,8.09-4.35,8.09-8.81s-3.62-7.76-8.09-7.35c-1.67.15-3.23.8-4.52,1.79l-1.76-1.22c.13-.2.21-.44.23-.69.03-.72-.52-1.28-1.24-1.26-.72.03-1.33.64-1.37,1.37-.03.72.52,1.28,1.24,1.25.2,0,.38-.06.56-.15l.39,2.42-4.76-1.62c.03-.27,0-.54-.12-.78-.34-.72-1.23-.96-1.98-.55-.75.41-1.08,1.33-.73,2.04.34.72,1.23.96,1.98.55h0ZM202.19,12.63c.59-.05,1.07.38,1.07.97s-.48,1.12-1.07,1.17c-.59.05-1.07-.38-1.07-.97s.48-1.12,1.07-1.17h0ZM198.46,12.97c.59-.05,1.07.38,1.07.97s-.48,1.12-1.07,1.17c-.59.05-1.07-.38-1.07-.97s.48-1.12,1.07-1.17h0ZM184.74,21.86c.16.15.32.35.49.59.17.25.34.5.52.77l6.34,9.06v-9.68c0-.63.13-1.11.41-1.45,0,0,.02-.02.02-.02l-7.81.69s.03.02.04.03h0ZM204.22,22.61l-2.18.18v11.04l2.5-.21c.55-.04.98-.1,1.29-.15.31-.06.63-.16.97-.3.33-.15.62-.34.87-.57,1.1-1.02,1.65-2.67,1.65-4.95,0-1.61-.24-2.79-.73-3.55-.49-.76-1.08-1.22-1.79-1.38-.71-.16-1.57-.2-2.58-.11h0ZM160.21,6.36l-1.75.16c-.63.06-.91.51-.91.94v13.28c0,.53.37.85.91.8l1.75-.16c.54-.05.91-.44.91-.96V7.14c0-.42-.28-.83-.91-.77ZM227.38,21.64c-.16,0-.16.11-.16.11,0,.01,0,.03,0,.04,0,.39-.14.76-.42,1.09-.28.34-.62.52-1.04.56-.38.03-.66-.04-.86-.21-.2-.17-.41-.46-.64-.87-.3-.59-.65-1.04-1.07-1.35-.41-.31-1.08-.43-2-.35-.85.07-1.54.31-2.06.73-.52.42-.78.89-.78,1.41,0,.33.09.6.27.82.18.22.42.41.73.55.31.15.63.25.94.32.32.07.84.17,1.58.29.92.14,1.75.31,2.49.5.74.2,1.38.46,1.9.79.52.33.93.76,1.22,1.3.02.03.03.06.05.09v-5.72s-.02-.11-.16-.11h0ZM224.94,34.17c-.98.52-2.14.84-3.48.95-1.61.13-2.93-.06-3.97-.58-.74-.37-1.34-.91-1.8-1.6-.46-.69-.69-1.38-.69-2.07,0-.4.14-.75.42-1.06.28-.31.63-.48,1.06-.52.35-.03.64.06.88.26.24.2.45.51.62.94.21.5.43.91.67,1.24s.58.59,1.02.78c.44.19,1.01.25,1.72.2.98-.08,1.77-.37,2.38-.88.61-.51.92-1.1.92-1.78,0-.54-.16-.96-.49-1.27-.33-.31-.76-.53-1.28-.67-.52-.13-1.22-.27-2.09-.39-1.17-.18-2.15-.42-2.94-.72-.79-.3-1.41-.75-1.88-1.34-.46-.59-.69-1.36-.69-2.3s.24-1.71.73-2.45c.49-.74,1.2-1.33,2.12-1.78.26-.13.53-.24.82-.34l-12.27,1.09c.45.01.86.05,1.24.12.8.14,1.53.47,2.18.99,1.69,1.31,2.54,3.44,2.54,6.4,0,.98-.08,1.88-.26,2.7-.17.82-.43,1.57-.79,2.25-.36.68-.81,1.29-1.37,1.85-.44.43-.91.78-1.43,1.06-.52.28-1.07.49-1.67.64-.6.14-1.27.25-2.02.31l-4.3.35c-.6.05-1.05,0-1.35-.16-.3-.16-.5-.39-.59-.72-.09-.32-.14-.75-.14-1.27v-11.93c0-.71.16-1.24.48-1.58.15-.17.36-.3.6-.4l-5.16.46s.02.02.04.03c.27.29.41.75.41,1.38v12.8c0,1.43-.59,2.19-1.78,2.29-.3.02-.56,0-.8-.06-.24-.07-.46-.18-.67-.35-.21-.17-.4-.37-.58-.6-.18-.23-.35-.47-.53-.72l-6.18-8.97v9.53c0,.62-.14,1.1-.43,1.45-.29.34-.66.53-1.11.57-.47.04-.84-.09-1.12-.39-.28-.3-.42-.75-.42-1.37v-12.55c0-.53.06-.95.18-1.27.1-.25.25-.47.45-.66l-9.14.81c.12.1.23.21.32.34.19.26.35.54.48.84.13.3.29.71.49,1.22l4.25,10.15c.33.77.5,1.34.5,1.7s-.16.74-.47,1.08c-.31.34-.69.53-1.14.57-.26.02-.48,0-.67-.08-.19-.08-.34-.19-.47-.34-.13-.15-.26-.38-.41-.7-.14-.32-.27-.6-.37-.84l-.78-1.98-6.62.55-.78,2.15c-.3.84-.56,1.41-.78,1.71s-.57.47-1.05.51c-.41.03-.78-.09-1.1-.36s-.48-.61-.48-.99c0-.22.04-.45.11-.7.07-.24.2-.58.37-1.02l4.16-10.91c.12-.31.26-.69.43-1.13.17-.44.34-.81.53-1.1.09-.14.19-.27.31-.39l-10.68.94c.09.03.18.06.27.09.51.17.96.44,1.35.81.39.37.69.81.89,1.32.2.51.31,1.06.31,1.66,0,1.21-.34,2.21-1.03,2.99-.68.78-1.72,1.38-3.11,1.8.58.26,1.14.68,1.68,1.24.53.56,1.01,1.17,1.43,1.82.42.65.74,1.24.98,1.77.23.53.35.9.35,1.11s-.07.43-.21.66c-.14.22-.32.4-.56.55s-.51.23-.82.25c-.37.03-.68-.03-.93-.18-.25-.15-.47-.35-.65-.61-.18-.25-.43-.62-.74-1.12l-1.32-2.09c-.47-.77-.9-1.35-1.27-1.74-.37-.39-.75-.65-1.14-.77-.39-.12-.87-.16-1.45-.11l-1.16.1v5.23c0,.69-.15,1.21-.46,1.56-.3.35-.7.55-1.19.59-.53.04-.93-.09-1.22-.41-.29-.32-.43-.8-.43-1.46v-12.52c0-.71.16-1.24.48-1.58.02-.02.04-.04.06-.06l-6.52.58c.16.06.31.12.45.2.39.2.72.46,1.02.79.3.33.52.7.68,1.11.16.41.23.86.23,1.33,0,1.63-.81,2.89-2.44,3.77,2.14.5,3.21,1.74,3.21,3.71,0,.91-.23,1.75-.7,2.52-.47.77-1.09,1.36-1.89,1.77-.5.25-1.07.44-1.71.58-.64.14-1.4.24-2.25.31l-4.98.41c-.72.06-1.23-.06-1.54-.36-.03-.03-.06-.06-.08-.09v.64s.06.12.18.15c4.08,1.07,75.66,19.82,75.66,19.82l18.96-29.87v-.92c-.1.25-.22.49-.37.72-.51.83-1.25,1.5-2.23,2.03h0ZM206.7,19.88h-.02.02ZM227.56,31.36s-.02.04-.02.05c0-.02.02-.04.02-.05ZM200.02,20.42c-.07.02-.13.04-.19.07l.19-.02v-.05ZM233.88,1c-1.01-.78-2.26-1.11-3.7-.98-1.81.16-3.16.4-4.06.71-.64.25-.71.72-.71.92v1.19c0,.23.06.42.18.56.15.18.38.27.64.25.04,0,.15-.02.19-.04.7-.21,1.96-.4,3.76-.56.46-.04.86.09,1.2.42.34.31.5.69.5,1.13v.79l-4.02.36c-1.44.13-2.7.69-3.73,1.68-1.03.98-1.55,2.17-1.55,3.54s.53,2.5,1.58,3.31c1.01.78,2.26,1.11,3.7.97l6.68-.6c.52-.05.88-.44.88-.96V4.29c0-1.37-.54-2.5-1.55-3.28h0ZM231.88,11.84l-4.02.36c-.48.04-.89-.09-1.23-.39-.33-.31-.51-.7-.51-1.16s.17-.86.51-1.22c.33-.36.74-.57,1.23-.61l4.02-.36v3.39ZM141.67,34.76c-.58-.32-1.44-.44-2.59-.34l-3.43.28v4.75l3.54-.29c2.23-.18,3.34-1.08,3.34-2.68,0-.82-.29-1.39-.87-1.72h0ZM152.01,31.26l2.95-.24c.79-.06,1.46-.19,2-.37.54-.18.95-.45,1.24-.8.29-.35.43-.82.43-1.39,0-.45-.11-.84-.34-1.16-.23-.33-.55-.56-.95-.69-.39-.13-1.14-.15-2.28-.06l-3.04.25v4.47h0ZM142.73,25.54s-.01,0-.02,0c0,0,.02,0,.02,0ZM142.38,22.99l1.72-.16c.55-.05.91-.44.91-.96v-9.4c0-.44.17-.87.51-1.25.33-.36.74-.57,1.23-.61l2.32-.21c.46-.04.86.09,1.2.42.33.31.5.69.5,1.13v9.4c0,.53.37.85.91.8l1.75-.16c.52-.05.88-.44.88-.96v-9.4c0-1.4-.54-2.51-1.58-3.28-1.01-.78-2.25-1.11-3.67-.98l-2.32.21c-1.43.13-2.68.68-3.73,1.65-1.01.96-1.55,2.19-1.55,3.56v9.4c0,.53.37.85.91.8h0ZM135.65,32.34l3.02-.25c.82-.07,1.46-.2,1.9-.39.45-.19.79-.52,1.03-.97.19-.33.28-.68.28-1.07,0-.82-.29-1.34-.88-1.56-.58-.22-1.48-.28-2.68-.18l-2.68.22v4.21h0ZM138.22,22.49v-9.4c0-1.37-.54-2.5-1.55-3.28-1.01-.78-2.26-1.11-3.7-.98-1.81.16-3.17.4-4.07.71-.64.25-.71.72-.71.92v1.19c0,.23.06.42.18.56.15.18.38.27.64.25.04,0,.15-.02.19-.04.7-.21,1.96-.4,3.76-.56.46-.04.86.09,1.2.42.33.31.5.69.5,1.13v.79l-4.02.36c-1.44.13-2.7.69-3.73,1.67-1.03.98-1.55,2.17-1.55,3.54s.53,2.5,1.58,3.31c1.01.78,2.26,1.11,3.7.98l6.68-.6c.52-.05.88-.44.88-.96h0ZM134.67,20.64l-4.02.36c-.48.04-.89-.09-1.23-.39-.34-.31-.5-.7-.5-1.16s.17-.86.5-1.22c.33-.36.74-.57,1.23-.61l4.02-.36v3.39Z"/>
</svg>