<?xml version="1.0" encoding="UTF-8"?>
<svg id="Layer_1" data-name="Layer 1" xmlns="http://www.w3.org/2000/svg" xmlns:xlink="http://www.w3.org/1999/xlink" viewBox="0 0 368.5 56.69">
  <defs>
    <style>
      .cls-1 {
        fill: #25376b;
      }

      .cls-2 {
        fill: url(#linear-gradient);
      }
    </style>
    <linearGradient id="linear-gradient" x1="77.71" y1="-6994.95" x2="164.02" y2="-6994.95" gradientTransform="translate(0 -6966.6084) scale(1 -1)" gradientUnits="userSpaceOnUse">
      <stop offset="0" stop-color="#19a59d"/>
      <stop offset=".36" stop-color="#1ea19b"/>
      <stop offset="1" stop-color="#263168"/>
    </linearGradient>
  </defs>
  <path class="cls-2" d="M148.86,43.8l15.16-15.39-14.98-15.18v.02l-13.08-13.24-28.06,28.11,9.67,9.71-4.19,4.19-13.44-13.65L124.24,3.91l-3.44-3.45-7.28,7.29-7.71-7.74-28.09,28.29,28.02,28.41,28.18-28.24-9.69-9.78,4.16-4.06,13.88,13.95-24.43,24.5,3.42,3.46,7.6-7.61,7.53,7.64,11.06-11.26,1.44-1.5-1.51.11,1.51-.11h0ZM105.74,49.67l-21.16-21.27,21.22-21.34,4.19,4.18-17.03,17.05,16.93,17.17-4.18,4.21h0ZM127,28.37l-5.98,6.02-6.24-6.26,6-6.06,6.22,6.31h0ZM136.3,49.58l-4.06-4.05,10.77-10.93c2.01-2.05,3.97-3.75,5.95-6.26l-17.18-17.3,4.23-4.18,13.03,13.16,8.1,8.25-15.56,16.06h0l-5.28,5.25h0Z"/>
  <path class="cls-1" d="M286.92,10.47h3.88l-11.63,34.62-4.17.05-10.5-29.78-10.31,29.61-4.2.19-11.47-34.67,3.99-.02,9.65,29.91,10.26-29.83,4.46-.09,10.31,29.93,9.73-29.9h0ZM193.89,26.67c3.37-.94,5.93-3.4,5.94-6.86.59-4.68-2.69-9.18-7.68-9.22l-21.66-.15v34.67l20.3-.03c2.94,0,5.6-1.31,7.8-3.01,2.94-3.12,3.69-7.81,1.38-11.64-1.41-2.33-3.74-3.29-6.08-3.77h0ZM190.77,25.34c-5.53.36-11,.26-16.59.2v-11.81l17.04.05c2.94.29,5.21,2.22,5.1,5.25.38,3.36-2.06,6.09-5.54,6.31,0,0,0,0,0,0ZM191.09,41.68l-16.92.13v-13.02l18.04.05c3.01.6,4.84,2.19,5.19,5.36.44,4.03-2.11,7.45-6.32,7.49h0ZM215.79,13.82c7.66-2.58,17.94-.31,19.31,8.3l3.55-.02c-1.12-8.75-8.58-12.59-17.29-12.53-4.95.04-9.74,1.65-13.12,5.31-4.33,4.69-5.64,11.14-4.44,17.34,1.25,6.51,5.75,11.38,12.15,12.99,10.72,2.7,21.5-1.95,23.03-13.31l-3.71.11c-.77,5.37-4.19,9.3-9.45,10.27-7.48,1.37-14.95-.81-17.52-8.25-2.65-7.68-.58-17.49,7.49-20.21h0Z"/>
</svg>