<?xml version="1.0" encoding="UTF-8"?>
<svg id="Layer_2" data-name="Layer 2" xmlns="http://www.w3.org/2000/svg" xmlns:xlink="http://www.w3.org/1999/xlink" viewBox="0 0 360.8 62.2">
  <defs>
    <style>
      .cls-1 {
        fill: url(#linear-gradient);
      }
    </style>
    <linearGradient id="linear-gradient" x1="-979.67" y1="2358.61" x2="-979.67" y2="2360.69" gradientTransform="translate(25809.79 -70758.4) scale(26.25 30)" gradientUnits="userSpaceOnUse">
      <stop offset="0" stop-color="#fde175"/>
      <stop offset="1" stop-color="#efb634"/>
    </linearGradient>
  </defs>
  <path d="M140.44,39.29c0,1.15.23,2.22.65,3.21s.99,1.87,1.72,2.64c1.49,1.53,3.56,2.41,5.7,2.41s4.21-.88,5.7-2.41c1.53-1.57,2.37-3.67,2.33-5.85,0-2.18-.84-4.28-2.33-5.85-.73-.77-1.61-1.34-2.56-1.76-.99-.42-2.07-.65-3.14-.65-2.14,0-4.21.88-5.7,2.41-.73.77-1.34,1.64-1.72,2.64-.46.99-.65,2.1-.65,3.21h0ZM133.67,16.56c0-.5.08-.96.27-1.42.15-.42.42-.8.73-1.15.31-.31.69-.57,1.07-.77.42-.19.88-.27,1.34-.27.5,0,.92.08,1.34.27.8.38,1.45,1.07,1.76,1.91.15.42.23.92.23,1.42v11.71c.34-.61.8-1.15,1.38-1.68s1.26-.96,1.99-1.34c.73-.38,1.49-.69,2.3-.92s1.61-.34,2.41-.34c1.99,0,3.94.38,5.74,1.19,1.76.77,3.37,1.87,4.71,3.29s2.41,3.06,3.18,4.86c.77,1.87,1.19,3.9,1.19,5.93s-.38,4.05-1.19,5.89c-.77,1.8-1.84,3.4-3.18,4.82-1.34,1.38-2.95,2.49-4.71,3.25-1.8.8-3.75,1.22-5.74,1.19-1.99,0-3.94-.38-5.74-1.19-1.76-.77-3.37-1.87-4.71-3.25-1.38-1.38-2.45-3.02-3.21-4.82-.8-1.87-1.19-3.86-1.19-5.89v-22.68h.04ZM167.72,27.47c0-1.38.84-2.64,2.1-3.18.42-.19.88-.27,1.34-.27s.88.08,1.3.27c.8.38,1.42,1.03,1.72,1.84.15.42.27.88.27,1.34v23.49c0,.92-.34,1.76-.96,2.45-.31.31-.65.57-1.07.73-.42.19-.84.27-1.3.27s-.92-.08-1.3-.27c-.8-.34-1.49-.99-1.84-1.84-.19-.42-.27-.88-.27-1.34v-23.49h0ZM167.45,17.14c0-.99.38-1.95,1.07-2.68.34-.34.73-.61,1.15-.8.46-.19.92-.31,1.45-.31.5,0,.96.11,1.42.31s.84.46,1.15.8c.34.34.61.73.8,1.19s.31.96.31,1.45c0,.54-.11,1.03-.31,1.49-.19.46-.46.84-.8,1.19s-.73.61-1.15.8c-.46.19-.92.31-1.42.31-.54,0-.99-.11-1.45-.31-.42-.19-.84-.46-1.15-.8-.69-.69-1.07-1.64-1.07-2.64h0ZM178.85,18.48c0-1.42.8-2.68,2.1-3.25.42-.19.84-.27,1.3-.27.92,0,1.8.34,2.45.99.31.31.57.69.77,1.11s.31.88.31,1.38v5.05h10.63c.46,0,.92.08,1.34.27.8.34,1.45,1.03,1.8,1.84.19.42.27.88.27,1.34s-.08.88-.27,1.3c-.54,1.22-1.76,2.03-3.14,2.03h-10.63v9.1c0,1.15.19,2.22.61,3.21s.96,1.84,1.68,2.6c.69.73,1.53,1.3,2.49,1.72s1.99.61,3.14.61c.99,0,1.91-.15,2.75-.42.84-.31,1.64-.77,2.37-1.42.42-.34.8-.65,1.19-.84.38-.23.84-.34,1.38-.34.38,0,.77.08,1.11.27.38.15.69.38.96.69s.5.65.69,1.07c.19.42.27.84.27,1.3,0,.54-.11,1.07-.31,1.57-.19.5-.5.96-.92,1.34-1.22,1.22-2.72,2.18-4.32,2.79-1.61.61-3.33.92-5.16.92-1.99,0-3.98-.38-5.81-1.19-1.76-.77-3.37-1.84-4.71-3.21s-2.41-3.02-3.18-4.78c-.8-1.87-1.19-3.9-1.19-5.93v-20.85h.04ZM208.84,39.97c0-2.14.42-4.25,1.22-6.2.77-1.87,1.91-3.63,3.33-5.09s3.1-2.6,4.93-3.44c1.87-.84,3.94-1.26,6.01-1.26h.08c1.11,0,1.99.31,2.56.96.61.65.92,1.49.92,2.49,0,.5-.08.96-.27,1.38-.15.42-.42.8-.73,1.11-.65.65-1.57.99-2.49.99h-.15c-1.15,0-2.26.27-3.29.73-1.03.46-1.95,1.11-2.75,1.91s-1.42,1.72-1.91,2.79-.73,2.26-.73,3.44v10.9c0,.46-.08.92-.27,1.34s-.42.77-.69,1.11c-.31.31-.65.57-1.03.73-.84.34-1.76.34-2.6,0-.42-.19-.8-.42-1.11-.73-.65-.65-1.03-1.53-1.03-2.45v-10.71h0ZM232.29,27.43c0-.92.34-1.76.96-2.45.31-.31.65-.57,1.07-.73.42-.19.84-.27,1.3-.27.92,0,1.76.34,2.41.99.31.31.54.69.73,1.11s.27.88.27,1.34v12.36c0,1.11.19,2.1.57,3.06.73,1.84,2.18,3.29,3.98,4.09.92.38,1.91.57,2.98.57,1.91.04,3.79-.8,5.05-2.26.61-.73,1.11-1.57,1.38-2.45.31-.96.5-1.99.5-3.06v-12.28c0-.92.38-1.8,1.03-2.45.31-.31.69-.57,1.11-.73.42-.19.84-.27,1.3-.27.88,0,1.72.34,2.33.99s.96,1.53.96,2.45v12.28c0,2.03-.34,3.94-1.03,5.74-.65,1.72-1.61,3.29-2.87,4.67-1.22,1.34-2.68,2.41-4.32,3.18-1.68.77-3.48,1.15-5.43,1.15s-3.83-.38-5.59-1.15c-1.72-.77-3.25-1.84-4.55-3.18-2.68-2.79-4.17-6.5-4.17-10.41v-12.32h.04ZM272.19,42.38c.54,1.57,1.49,2.91,2.79,3.9.65.46,1.34.84,2.14,1.11.77.27,1.61.42,2.45.42.92,0,1.64-.08,2.26-.23.57-.15,1.15-.42,1.68-.73.73-.42,1.38-.65,1.99-.65.46,0,.92.11,1.3.31.42.19.77.46,1.03.8.61.69.96,1.57.96,2.49,0,.69-.23,1.34-.65,1.91-.46.57-1.07,1.07-1.87,1.49-.92.46-1.91.77-2.91.92-1.22.23-2.49.34-3.75.34-1.99,0-3.94-.38-5.78-1.19-1.76-.77-3.4-1.87-4.74-3.25-1.38-1.38-2.45-3.02-3.21-4.82-.8-1.87-1.19-3.86-1.19-5.89s.38-4.05,1.19-5.97c.77-1.8,1.84-3.44,3.21-4.82,1.38-1.38,2.98-2.49,4.74-3.25,1.84-.8,3.79-1.22,5.78-1.19,2.03,0,3.94.38,5.74,1.19s3.37,1.87,4.71,3.21c1.38,1.38,2.45,2.98,3.21,4.78.8,1.84,1.22,3.79,1.26,5.89,0,.99-.31,1.8-.92,2.41-.61.61-1.42.92-2.37.92l-19.05-.11ZM287.53,36.57c-.23-.84-.61-1.68-1.11-2.41-.5-.73-1.07-1.34-1.76-1.87s-1.45-.96-2.3-1.22c-.84-.31-1.76-.42-2.72-.42s-1.84.15-2.68.46c-.84.31-1.61.73-2.26,1.26s-1.26,1.19-1.72,1.87c-.46.73-.84,1.49-1.03,2.33h15.57Z"/>
  <path class="cls-1" d="M111.64,41.62V10.6l9.07,5.16v31.06l-16.64,9.49-9.07-5.16,16.64-9.53ZM66.27,27.77l9.07-5.16v18.94h0l27.24,15.49h0l-9.07,5.16-27.24-15.49v-18.94ZM93.51,0h0l16.64,9.45v10.37l-16.64-9.45h0l-27.24,15.53h0v-10.33h0L93.51,0ZM83.33,18.44l6.16-3.48v13.01c.65-.46,2.1-1.61,4.36-1.61,2.91,0,5.39.99,7.46,3.02s3.06,4.48,3.06,7.34-1.03,5.32-3.06,7.34c-2.07,2.03-4.51,3.06-7.46,3.06s-5.43-1.03-7.46-3.06c-2.07-2.03-3.06-4.48-3.06-7.34v-18.29ZM90.75,39.75c.84.84,1.87,1.26,3.1,1.26s2.22-.42,3.06-1.26c.84-.8,1.3-1.91,1.3-3.06s-.42-2.18-1.3-3.02c-.8-.8-1.91-1.26-3.06-1.26s-2.22.42-3.1,1.26c-.84.77-1.3,1.87-1.3,3.02.04,1.19.46,2.22,1.3,3.06Z"/>
</svg>