<?xml version="1.0" encoding="utf-8"?>
<!-- Generator: Adobe Illustrator 25.0.1, SVG Export Plug-In . SVG Version: 6.00 Build 0)  -->
<svg version="1.1" id="Layer_3" xmlns="http://www.w3.org/2000/svg" xmlns:xlink="http://www.w3.org/1999/xlink" x="0px" y="0px"
	 viewBox="0 0 360.8 62.2" style="enable-background:new 0 0 360.8 62.2;" xml:space="preserve">
<style type="text/css">
	.st0{fill-rule:evenodd;clip-rule:evenodd;fill:#FFFFFF;}
</style>
<g>
	<path class="st0" d="M54.1,12.9l7.3-4.2l7.5,4.3L84.5,0.3v21.8v26.8L61.4,62.2L38.2,48.8V26h0V0L54.1,12.9z M42.3,28.2v18.2
		l19.1,11l19.1-11v-18L61.4,39.7L42.3,28.2z M43,24L61.4,35L80,24.1L61.4,13.4L43,24z M73,14.8l7.5,4.4V8.8
		C78,10.8,75.5,12.8,73,14.8z M42.3,18.9l7.5-4.4l-7.5-6C42.3,12,42.3,15.5,42.3,18.9z"/>
	<path class="st0" d="M107.4,31.4h0.4c1.3,0,3.1-0.2,3.1,1.6c0,1.6-1.9,1.6-3.1,1.6h-0.5V31.4z M109.4,37.5c2.7,0,5.3-1,5.3-4.1
		c0-2.1-0.9-3.5-3-3.8v0c1.2-0.6,1.6-1.7,1.6-3c0-2.8-1.8-3.8-4.4-3.8h-5.5v14.8H109.4L109.4,37.5z M107.4,25.7h0.3
		c1,0,2.2,0.1,2.2,1.4c0,1.3-1.1,1.4-2.1,1.4h-0.4L107.4,25.7L107.4,25.7z"/>
	<path class="st0" d="M126.5,22.7h-3.8v14.8h8.5v-3.3h-4.6V22.7z"/>
	<path class="st0" d="M145.7,22.2c-4.2,0-8.2,3.1-8.2,7.6c0,4.8,3.4,8.2,8.2,8.2c4.7,0,8.2-3.4,8.2-8.2
		C153.8,25.4,149.9,22.2,145.7,22.2z M145.7,26c2.3,0,4.2,1.9,4.2,3.9c0,2.5-1.9,4.4-4.2,4.4s-4.2-1.9-4.2-4.4
		C141.5,27.8,143.4,26,145.7,26z"/>
	<path class="st0" d="M172,23.1c-1.1-0.5-2.3-0.7-3.5-0.7c-2.1,0-4.2,0.9-5.6,2.4c-1.4,1.4-2.2,3.4-2.2,5.4c0,2.2,0.7,4.1,2.4,5.6
		c1.5,1.4,3.5,2.2,5.5,2.2c1.2,0,2.1-0.3,3.4-0.7v-4.6c-0.8,1-2.1,1.6-3.3,1.6c-2.4,0-4-1.7-4-4c0-2.3,1.6-4.1,3.9-4.1
		c1.3,0,2.6,0.6,3.4,1.6L172,23.1L172,23.1z"/>
	<path class="st0" d="M184.2,28.8L184.2,28.8l0-6.1h-3.8v14.8h3.8v-6.4h0l4.9,6.4h5l-6.4-7.8l5.9-7h-4.8L184.2,28.8z"/>
	<path class="st0" d="M201,37.5h5.4c4.1,0,7.5-3.2,7.5-7.4c0-4.2-3.4-7.4-7.5-7.4H201V37.5z M204.9,26h0.9c2.5,0,4.2,1.5,4.2,4.1
		c0,2.9-2,4.1-4.2,4.1h-0.9V26z"/>
	<path class="st0" d="M230.7,34.9l1,2.6h4.1l-5.6-14.8H226l-5.7,14.8h4.1l1-2.6H230.7z M229.7,32h-3.2l1.6-4.7h0L229.7,32z"/>
	<path class="st0" d="M251.2,26v-3.3h-8.4v14.8h8.4v-3.3h-4.6v-2.5h4.3v-3.2h-4.3V26H251.2z"/>
	<path class="st0" d="M258.6,37.5h3.8l1.2-8.5h0l3.4,8.5h1.5l3.5-8.5h0l1.1,8.5h3.8l-2.2-14.8h-3.8l-3.2,7.9l-3-7.9h-3.8L258.6,37.5
		z"/>
	<path class="st0" d="M292,22.2c-4.2,0-8.2,3.1-8.2,7.6c0,4.8,3.4,8.2,8.2,8.2c4.7,0,8.2-3.4,8.2-8.2
		C300.2,25.4,296.3,22.2,292,22.2z M292,26c2.3,0,4.2,1.9,4.2,3.9c0,2.5-1.9,4.4-4.2,4.4s-4.2-1.9-4.2-4.4
		C287.9,27.8,289.7,26,292,26z"/>
	<path class="st0" d="M307.9,37.5h3.8v-9h0l7,9h3.8V22.7h-3.8v9h0l-7-9h-3.8V37.5z"/>
</g>
</svg>
