<?xml version="1.0" encoding="UTF-8"?>
<svg id="Blueprint" xmlns="http://www.w3.org/2000/svg" viewBox="0 0 360 61.92">
  <defs>
    <style>
      .cls-1, .cls-2 {
        fill: #fff;
      }

      .cls-2 {
        fill-rule: evenodd;
      }
    </style>
  </defs>
  <path class="cls-1" d="M106.54,1.33h13.34c3.51,0,6.22.43,8.13,1.28,1.95.85,3.31,2.02,4.09,3.51.78,1.45,1.17,3.1,1.17,4.94,0,1.74-.41,3.3-1.22,4.68-.78,1.38-2.13,2.53-4.04,3.46,2.45.96,4.13,2.25,5.05,3.88.92,1.59,1.38,3.33,1.38,5.21,0,2.09-.46,3.97-1.38,5.64-.89,1.67-2.34,2.98-4.36,3.93-2.02.96-4.71,1.44-8.08,1.44h-14.09V1.33ZM128.65,28.28c0-2.09-.62-3.69-1.86-4.78-1.24-1.1-3.3-1.65-6.17-1.65h-8.4v12.76h8.08c2.16,0,3.85-.25,5.05-.74,1.21-.53,2.06-1.26,2.55-2.18.5-.96.74-2.09.74-3.4ZM127.59,11.43c0-1.88-.62-3.24-1.86-4.09-1.24-.89-3.33-1.33-6.27-1.33h-7.23v11.16h7.92c2.62,0,4.52-.48,5.69-1.44,1.17-.99,1.75-2.43,1.75-4.31Z"/>
  <path class="cls-1" d="M137.88,1.33h5.58v37.96h-5.58V1.33Z"/>
  <path class="cls-1" d="M148.11,30.04V11.7h5.58v17.33c0,2.3.39,3.95,1.17,4.94.78.96,2.02,1.44,3.72,1.44,1.95,0,3.67-.69,5.16-2.07.78-.71,1.36-1.45,1.75-2.23.43-.82.64-1.84.64-3.08V11.7h5.58v27.59h-5.48v-4.09c-1.31,1.7-2.73,2.96-4.25,3.77-1.52.78-3.17,1.17-4.94,1.17-3.08,0-5.35-.85-6.8-2.55-1.42-1.7-2.13-4.22-2.13-7.55Z"/>
  <path class="cls-1" d="M175.56,25.73c0-3.19.55-5.88,1.65-8.08,1.13-2.23,2.69-3.92,4.68-5.05,1.98-1.17,4.27-1.75,6.86-1.75,2.84,0,5.16.58,6.96,1.75,1.84,1.13,3.21,2.73,4.09,4.78.89,2.02,1.33,4.36,1.33,7.02v2.45h-19.99c.14,2.84.83,5.05,2.07,6.65,1.28,1.56,3.12,2.34,5.53,2.34,2.09,0,3.63-.39,4.63-1.17,1.03-.82,1.72-1.91,2.07-3.3h5.26c-.46,2.73-1.68,4.87-3.67,6.43-1.95,1.56-4.71,2.34-8.29,2.34-4.22,0-7.48-1.28-9.78-3.83-2.27-2.55-3.4-6.08-3.4-10.58ZM182.2,18.93c-.53,1.21-.87,2.59-1.01,4.15h14.46c-.14-2.62-.71-4.63-1.7-6.01-.96-1.38-2.71-2.07-5.26-2.07-1.7,0-3.08.35-4.15,1.06-1.03.71-1.81,1.67-2.34,2.87Z"/>
  <path class="cls-1" d="M204.91,11.7h5.42v3.77c1.1-1.49,2.39-2.62,3.88-3.4,1.49-.82,3.21-1.22,5.16-1.22,2.59,0,4.73.6,6.43,1.81,1.74,1.21,3.03,2.89,3.88,5.05.85,2.16,1.28,4.68,1.28,7.55,0,4.61-1.08,8.24-3.24,10.9-2.16,2.66-5.12,3.99-8.88,3.99-1.52,0-3.03-.3-4.52-.9-1.45-.64-2.75-1.72-3.88-3.24v13.61h-5.53V11.7ZM225.17,25.41c0-2.52-.34-4.5-1.01-5.95-.67-1.45-1.54-2.48-2.61-3.08-1.06-.64-2.2-.96-3.4-.96-2.52,0-4.43.85-5.74,2.55-1.31,1.7-1.97,3.88-1.97,6.54v1.7c0,2.91.6,5.19,1.81,6.86,1.24,1.67,3.1,2.5,5.58,2.5,2.13,0,3.88-.78,5.26-2.34,1.38-1.56,2.07-4.16,2.07-7.81Z"/>
  <path class="cls-1" d="M234.82,11.7h5.48v4.09c1.03-1.45,2.22-2.57,3.56-3.35,1.35-.82,2.82-1.22,4.41-1.22.5,0,.94.04,1.33.11.43.04.82.09,1.17.16l-.69,5c-.35-.07-.73-.12-1.12-.16-.39-.07-.8-.11-1.22-.11-.85,0-1.7.14-2.55.43-.85.28-1.67.74-2.45,1.38-.74.67-1.33,1.44-1.75,2.29-.43.85-.64,1.84-.64,2.98v16h-5.53V11.7Z"/>
  <path class="cls-1" d="M252.84,11.7h5.58v27.59h-5.58V11.7ZM252.73,1.28h5.69v5.69h-5.69V1.28Z"/>
  <path class="cls-1" d="M263.28,11.7h5.48v3.99c1.38-1.74,2.85-2.98,4.41-3.72,1.59-.74,3.24-1.12,4.95-1.12,3.08,0,5.39.87,6.91,2.61,1.52,1.7,2.29,4.18,2.29,7.44v18.39h-5.53v-17.33c0-2.3-.43-3.93-1.28-4.89-.85-.99-2.14-1.49-3.88-1.49-.96,0-1.91.18-2.87.53-.92.35-1.77.89-2.55,1.59-.78.67-1.38,1.42-1.81,2.23-.39.82-.58,1.84-.58,3.08v16.27h-5.53V11.7Z"/>
  <path class="cls-1" d="M293.64,30.09v-13.98h-4.31v-4.41h4.31v-7.44h5.53v7.44h7.07v4.41h-7.07v14.94c0,1.31.28,2.36.85,3.14.6.74,1.51,1.12,2.71,1.12.71,0,1.35-.05,1.91-.16.6-.11,1.13-.23,1.59-.37l.9,4.2c-.78.25-1.61.46-2.5.64-.89.18-1.91.27-3.08.27-2.13,0-3.76-.39-4.89-1.17-1.14-.82-1.93-1.95-2.39-3.4-.43-1.49-.64-3.23-.64-5.21Z"/>
  <path class="cls-2" d="M85.06,0C87.31,0,89.13,1.82,89.13,4.06v26.99c0,1.62-.64,3.17-1.79,4.31l-3.57,3.55c-1.15,1.14-2.7,1.78-4.32,1.78h-22.56c-2.25,0-4.07-1.82-4.07-4.06V9.64c0-1.62.64-3.16,1.79-4.31l3.57-3.55C59.32.64,60.88,0,62.5,0h22.56ZM63.69,8.32c-1.08,0-2.12.43-2.88,1.19l-4.76,4.74c-.76.76-1.19,1.79-1.19,2.87v12.19c0,1.68,1.37,3.05,3.06,3.05h20.34c1.08,0,2.12-.43,2.88-1.19l4.76-4.74c.76-.76,1.19-1.79,1.19-2.87v-12.19c0-1.68-1.37-3.05-3.06-3.05h-20.34Z"/>
  <path class="cls-2" d="M276.24,52.99c.71,0,1.29.14,1.75.43.46.29.79.69,1.02,1.19.22.51.33,1.09.33,1.76v.61h-4.99c.04.71.21,1.26.52,1.65.31.39.77.59,1.37.59.52,0,.91-.1,1.16-.3.25-.2.42-.47.51-.82h1.32c-.12.68-.42,1.22-.91,1.61-.49.39-1.18.58-2.08.58-1.05,0-1.86-.32-2.44-.96-.57-.64-.86-1.52-.86-2.64h0c0-.8.14-1.47.42-2.03.28-.55.67-.97,1.16-1.26.5-.29,1.07-.43,1.71-.43ZM276.23,54.02c-.42,0-.77.09-1.03.27-.26.18-.46.42-.59.72h0c-.13.3-.22.65-.25,1.04h3.61c-.04-.65-.18-1.16-.42-1.5-.24-.34-.68-.52-1.32-.52Z"/>
  <path class="cls-2" d="M307.18,60.09h-1.35v-.94c-.28.37-.6.66-.96.86-.36.2-.79.3-1.28.3-.66,0-1.2-.16-1.63-.47-.43-.31-.75-.74-.96-1.29-.21-.54-.31-1.16-.31-1.85h0c0-1.14.27-2.05.81-2.71.54-.66,1.28-1,2.22-1,.36,0,.73.07,1.08.22.36.15.69.41.99.79v-3.38h1.39v9.48ZM303.96,54.13c-.52,0-.96.19-1.31.58-.35.38-.53,1.03-.53,1.94h0c0,.63.09,1.12.26,1.49.17.36.39.62.66.78.27.15.55.23.84.23.58,0,1.05-.19,1.41-.58.35-.39.53-.95.53-1.69v-.42c0-.8-.17-1.39-.51-1.76-.34-.37-.79-.56-1.35-.56Z"/>
  <path class="cls-1" d="M256.69,54.51h4.48v1.35h-4.48v4.22h-1.47v-4.22h-1.47v-1.35h1.47v-3.9h1.47v3.9Z"/>
  <path class="cls-1" d="M265.39,60.09h-1.4v-6.89h1.4v6.89Z"/>
  <path class="cls-1" d="M292.67,60.09h-1.4v-6.89h1.4v6.89Z"/>
  <path class="cls-1" d="M297.59,52.98c.77,0,1.35.22,1.73.64.38.43.57,1.05.57,1.86v4.59h-1.38v-4.33c0-.58-.11-.98-.32-1.23s-.54-.36-.97-.36c-.24,0-.48.04-.71.13-.23.09-.45.22-.64.4-.2.17-.34.35-.45.56-.1.2-.15.46-.15.77v4.06h-1.38v-6.89h1.37v1c.34-.43.72-.74,1.11-.93.39-.19.8-.28,1.23-.28Z"/>
  <path class="cls-1" d="M262.64,60.09h-1.47v-4.22h1.47s0,4.22,0,4.22Z"/>
  <path class="cls-1" d="M287.98,52.98c.68,0,1.21.19,1.57.57.37.38.55.97.55,1.78v4.75h-1.38v-4.46c0-.57-.09-.95-.28-1.16-.19-.2-.46-.31-.82-.31-.19,0-.39.03-.6.1-.2.07-.4.18-.6.35-.16.14-.29.31-.39.5-.1.19-.15.41-.15.66v4.31h-1.4v-4.46c0-.54-.09-.92-.29-1.14-.19-.22-.46-.33-.82-.33-.42,0-.81.17-1.17.52-.14.12-.27.29-.39.48-.12.2-.18.47-.18.8v4.11h-1.38v-6.89h1.37v1.01c.3-.41.63-.71,1-.92.36-.2.73-.31,1.12-.31.49,0,.9.11,1.22.33.32.22.55.52.7.92.62-.83,1.39-1.25,2.3-1.25Z"/>
  <path class="cls-1" d="M269.28,58.87h.24l1.94-5.68h1.5l-2.71,6.89h-1.72l-2.7-6.89h1.57l1.88,5.68Z"/>
  <path class="cls-1" d="M262.64,54.51h-1.47v-3.9h1.47v3.9Z"/>
  <path class="cls-1" d="M265.39,52.02h-1.42v-1.42h1.42v1.42Z"/>
  <path class="cls-1" d="M292.67,52.02h-1.42v-1.42h1.42v1.42Z"/>
  <path class="cls-1" d="M238.58,59.25h-1.33v-9.31h1.36v3.43c.27-.35.58-.62.94-.81.37-.19.78-.29,1.25-.29.63,0,1.16.15,1.58.44.43.3.74.71.95,1.24.21.53.31,1.15.31,1.85,0,1.13-.27,2.02-.8,2.67-.53.65-1.26.98-2.18.98-.38,0-.76-.08-1.12-.23-.37-.16-.69-.44-.96-.82v.85ZM238.61,55.62v.42c0,.81.17,1.4.51,1.76.34.36.77.53,1.3.53s.95-.19,1.29-.57c.34-.38.51-1.02.51-1.92,0-.62-.08-1.1-.25-1.46-.17-.36-.38-.61-.64-.76-.26-.16-.54-.23-.83-.23-.55,0-1,.19-1.36.57-.36.37-.53.93-.53,1.66ZM244.65,60.66c.26.09.51.13.74.13.27,0,.48-.08.63-.25.15-.16.3-.45.47-.87l.25-.65-2.86-6.53h1.54l1.98,5.03,1.81-5.03h1.46l-2.91,7.3c-.18.47-.37.86-.56,1.17-.18.32-.4.56-.65.72-.25.17-.57.25-.96.25-.22,0-.42-.02-.6-.05-.18-.03-.38-.07-.59-.14l.25-1.07Z"/>
</svg>