<?xml version="1.0" encoding="UTF-8"?>
<svg id="Certik" xmlns="http://www.w3.org/2000/svg" viewBox="0 0 360 61.92">
  <defs>
    <style>
      .cls-1 {
        fill-rule: evenodd;
      }
    </style>
  </defs>
  <path d="M54.96,0l-20.68,6.9L54.96,0Z"/>
  <path d="M54.96,0l20.68,6.9L54.96,0Z"/>
  <path d="M34.28,6.9l2.05,3.8-2.05-3.8Z"/>
  <path d="M73.59,10.7l2.05-3.8-2.05,3.8Z"/>
  <path d="M79.96,8.34l3.31,1.11-3.31-1.11Z"/>
  <path d="M54.96,4.48l18.63,6.22-18.63-6.22Z"/>
  <path d="M29.96,8.34l-3.31,1.11,3.31-1.11Z"/>
  <path d="M36.33,10.7l18.63-6.22-18.63,6.22Z"/>
  <path d="M54.96,0l-20.68,6.9,2.05,3.8,18.63-6.22,18.63,6.22,2.05-3.8L54.96,0Z"/>
  <path class="cls-1" d="M66.25,33.79h-22.58l11.29,20.96,11.29-20.96ZM41.25,29.31h27.41l11.29-20.96,3.31,1.11c2.06,10.67.37,21.72-4.79,31.28-5.16,9.56-13.47,17.05-23.52,21.19-10.05-4.14-18.36-11.63-23.52-21.19-5.16-9.56-6.85-20.62-4.79-31.28l3.31-1.11,11.29,20.96ZM35.37,38.58c-3.34-6.2-5.09-13.14-5.09-20.18l19.14,35.54c-5.88-3.88-10.71-9.16-14.05-15.36ZM79.64,18.4l-19.14,35.54c5.88-3.88,10.71-9.16,14.05-15.36,3.34-6.2,5.09-13.14,5.09-20.18Z"/>
  <path d="M113.18,46.44c-1.08,0-2.06-.24-2.96-.73-.87-.52-1.57-1.19-2.11-2.02-.51-.86-.76-1.81-.76-2.84v-19.78c0-1.03.25-1.96.76-2.79.54-.86,1.24-1.53,2.11-2.02.9-.52,1.88-.77,2.96-.77h26.38v4.64h-25.71c-.48,0-.88.16-1.21.47-.3.29-.45.66-.45,1.12v18.49c0,.46.15.85.45,1.16.33.29.73.43,1.21.43h25.71v4.64h-26.38Z"/>
  <path d="M153.02,46.44V15.48h29.61v4.64h-24.72v8.51h19.88v4.64h-19.88v8.51h24.72v4.64h-29.61Z"/>
  <path d="M222.57,46.42l-10.1-11.57h6.33l9.42,10.71v.86h-5.65ZM196.1,46.42V15.5h26.43c1.08,0,2.06.26,2.96.77.9.52,1.6,1.2,2.11,2.06.54.83.81,1.75.81,2.75v8.69c0,1.03-.27,1.98-.81,2.84-.51.83-1.21,1.5-2.11,2.02-.9.49-1.88.73-2.96.73l-21.58.04v11.01h-4.85ZM202.06,30.68h20.37c.3,0,.55-.1.76-.3s.31-.44.31-.73v-8.43c0-.29-.1-.53-.31-.73-.21-.23-.46-.34-.76-.34h-20.37c-.3,0-.57.11-.81.34-.21.2-.31.44-.31.73v8.43c0,.29.1.53.31.73.24.2.51.3.81.3Z"/>
  <path d="M254.25,46.44v-26.32h-13.73v-4.64h32.31v4.64h-13.73v26.32h-4.85Z"/>
  <path d="M284.94,46.44V15.48h4.85v30.96h-4.85Z"/>
  <path d="M303.25,46.44V15.48h4.89v13.16h8.93l11.49-13.16h5.61v.86l-12.79,14.62,12.83,14.62v.86h-5.65l-11.49-13.16h-8.93v13.16h-4.89Z"/>
</svg>