<?xml version="1.0" encoding="UTF-8"?>
<svg id="Layer_2" xmlns="http://www.w3.org/2000/svg" version="1.1" viewBox="0 0 360.8 62.2">
  <!-- Generator: Adobe Illustrator 30.4.0, SVG Export Plug-In . SVG Version: 2.1.4 Build 226)  -->
  <defs>
    <style>
      .st0 {
        fill: #fff;
      }

      .st1 {
        fill: #1b2a32;
        fill-rule: evenodd;
      }

      .st2 {
        fill: #50acd6;
      }
    </style>
  </defs>
  <path class="st0" d="M84.98,36.02c-2.35,4.33-6.92,7.26-12.17,7.26-7.6,0-13.85-6.18-13.85-13.81s6.2-13.81,13.85-13.81c5.25,0,9.82,2.93,12.17,7.26l6.88-3.7c-3.66-6.77-10.81-11.32-19.05-11.32-11.94,0-21.63,9.65-21.63,21.57s9.68,21.57,21.63,21.57c8.23,0,15.38-4.6,19.05-11.32l-6.88-3.7ZM97.19,6.92h6.42v43.31h-6.42V6.92ZM125.2,45.13c3.57,0,6.24-1.62,7.69-3.7l5.29,3.07c-2.76,4.02-7.19,6.45-13.03,6.45-9.82,0-16.2-6.72-16.2-15.61s6.38-15.61,15.7-15.61,14.93,7.13,14.93,15.66c0,.9-.14,1.85-.23,2.66h-23.66c1,4.74,4.75,7.08,9.5,7.08ZM133.12,32.9c-.9-5.1-4.66-7.31-8.51-7.31-4.84,0-8.1,2.84-9,7.31h17.51ZM175.06,20.59v29.64h-6.43v-4.29c-2.26,3.16-5.79,5.05-10.41,5.05-8.1,0-14.8-6.81-14.8-15.61s6.74-15.61,14.8-15.61c4.66,0,8.14,1.89,10.41,4.96v-4.2h6.43v.05ZM168.64,35.43c0-5.5-4.03-9.47-9.41-9.47s-9.41,3.97-9.41,9.47,4.03,9.47,9.41,9.47,9.41-3.97,9.41-9.47ZM197.59,20.05v6.95c-4.21-.32-9.19,1.67-9.19,8.3v14.93h-6.42v-29.69h6.42v4.96c1.81-3.97,5.43-5.46,9.19-5.46ZM234.56,35.43c0,8.8-6.79,15.61-15.07,15.61-5.07,0-8.87-2.26-11.27-5.87v16.96h-5.16V20.59h5.16v5.1c2.4-3.61,6.2-5.87,11.27-5.87,8.28,0,15.07,6.81,15.07,15.61ZM229.36,35.43c0-6.05-4.57-10.6-10.54-10.6s-10.59,4.56-10.59,10.6,4.57,10.6,10.59,10.6,10.54-4.56,10.54-10.6ZM239.08,35.43c0-8.8,6.97-15.61,15.66-15.61s15.7,6.81,15.7,15.61-7.01,15.61-15.7,15.61-15.66-6.86-15.66-15.61ZM265.28,35.43c0-6-4.57-10.56-10.54-10.56s-10.45,4.56-10.45,10.56,4.57,10.56,10.45,10.56,10.54-4.6,10.54-10.56ZM274.92,35.43c0-8.8,6.97-15.61,15.65-15.61s15.7,6.81,15.7,15.61-7.01,15.61-15.7,15.61-15.65-6.86-15.65-15.61ZM301.07,35.43c0-6-4.57-10.56-10.54-10.56s-10.45,4.56-10.45,10.56,4.57,10.56,10.45,10.56,10.54-4.6,10.54-10.56ZM312.38,6.92h5.16v43.31h-5.16V6.92Z"/>
  <path class="st2" d="M43.26,29.48C43.26,13.23,56.47.06,72.76.06v58.83c-16.24,0-29.5-13.13-29.5-29.42Z"/>
  <path class="st1" d="M72.81,43.28v7.76c-11.94,0-21.63-9.65-21.63-21.57s9.68-21.57,21.63-21.57v7.76c-7.6,0-13.85,6.18-13.85,13.81s6.2,13.81,13.85,13.81Z"/>
</svg>