<?xml version="1.0" encoding="UTF-8"?>
<svg id="Layer_2" data-name="Layer 2" xmlns="http://www.w3.org/2000/svg" viewBox="0 0 360.8 62.2">
  <defs>
    <style>
      .cls-1 {
        fill: #232328;
        fill-rule: evenodd;
      }
    </style>
  </defs>
  <path class="cls-1" d="M84.26,54.09h3.75l.75,2.39h1.88l-3.38-10.13h-2.02l-3.52,10.13h1.74l.8-2.39ZM87.5,52.49h-2.77l1.36-3.99,1.41,3.99ZM98.52,56.48h4.13c3.61,0,4.74-2.39,4.74-5.11,0-2.86-1.5-5.02-4.74-5.02h-4.13v10.13ZM100.4,47.85h2.39c1.74,0,2.77,1.27,2.77,3.38,0,2.39-.99,3.52-2.77,3.52h-2.39v-6.9h0ZM117.38,51.6c1.13-.23,1.88-.99,1.88-2.49,0-2.02-1.64-2.86-3.52-2.86h-4.74v10.13h1.88v-4.13h2.25c1.5,0,1.88.61,2.02,2.11.14,1.27.23,1.74.38,2.11h1.88c-.23-.38-.38-.99-.52-2.25,0-1.5-.66-2.25-1.5-2.63ZM112.73,50.61v-2.77h3c.89,0,1.64.38,1.64,1.27,0,.99-.61,1.36-1.74,1.36-.05.14-2.91.14-2.91.14ZM128.59,48.74l2.11,7.6h1.88l2.86-10.13h-1.88l-2.02,7.36-2.02-7.36h-2.02l-2.02,7.36-1.88-7.36h-2.02l2.77,10.13h2.02c.09.14,2.2-7.6,2.2-7.6ZM151.95,53.85l-1.64-.89c-.38,1.13-1.13,1.88-2.63,1.88-2.25,0-3-1.36-3-3.61,0-2.11.89-3.61,3-3.61,1.5,0,2.11.89,2.49,2.02l1.64-.89c-.61-1.74-2.02-2.77-4.13-2.77-3.24,0-5.02,2.25-5.02,5.25s1.64,5.25,4.88,5.25c2.67.14,3.94-1.13,4.41-2.63ZM154.72,51.36c0,3.14,2.02,5.25,5.11,5.25s4.97-2.25,4.97-5.25-2.02-5.25-5.11-5.25-4.97,2.25-4.97,5.25ZM159.83,47.75c2.02,0,3.14,1.36,3.14,3.52,0,2.49-.99,3.61-3.14,3.61-2.02,0-3.14-1.36-3.14-3.61,0-2.06,1.13-3.52,3.14-3.52ZM178.45,46.25h-2.49l-2.63,6.99-2.49-6.99h-2.63v10.13h1.64v-7.6l2.77,7.6h1.27l2.77-7.6v7.6h1.74v-10.13h.05ZM187.93,46.25h-5.11v10.13h1.88v-4.27h3.24c2.02,0,3.38-.99,3.38-3,0-1.88-1.64-2.86-3.38-2.86ZM184.69,50.61v-2.63h3.14c.89,0,1.5.38,1.5,1.27,0,.99-.61,1.36-1.5,1.36h-3.14ZM195.15,54.09h3.75l.75,2.39h1.88l-3.38-10.13h-2.02l-3.52,10.13h1.74l.8-2.39ZM198.44,52.49h-2.63l1.36-3.99,1.27,3.99ZM211.29,53.24l-4.36-6.99h-2.11v10.13h1.64v-7.6l4.74,7.6h1.88v-10.13h-1.64l-.14,6.99ZM219.64,52.58v3.75h1.88v-3.89l3.52-6.24h-2.02l-2.39,4.36-2.49-4.36h-2.11l3.61,6.38ZM92,31.76c5.86,0,8.87-2.77,10.88-6.24l-5.25-3.14c-.99,2.39-2.86,3.99-5.63,3.99-3.61,0-6.1-2.39-6.1-6.99s2.39-6.85,6-6.85c2.77,0,4.36,1.27,5.49,3.89l4.97-3c-1.88-3.52-4.88-6-10.51-6-7.22,0-12.24,5.11-12.24,12.1.05,6.99,4.27,12.24,12.38,12.24ZM118.6,31.76c6.85,0,11.26-3.14,11.26-10.13V7.88h-6v13.37c0,3.75-1.13,5.11-5.11,5.11s-5.11-1.5-5.11-5.11V7.74h-6v13.74c-.23,6.9,3.61,10.27,10.98,10.27ZM136.09,31.24h5.49v-15.71l6,15.62h4.27l6-15.62v15.62h5.86V7.79h-8.26l-5.63,15.34-5.49-15.34h-8.26v23.45h0ZM170.2,31.24h13.6c6.61,0,8.63-2.77,8.63-6.75,0-3.14-1.36-4.5-3.52-5.35,2.11-.99,3-2.39,3-5.02,0-3-1.88-6.38-8.26-6.38h-13.6l.14,23.5ZM176.3,21.48h7.13c2.49,0,3.24.75,3.24,2.39s-.61,2.39-3,2.39h-7.36v-4.78ZM176.3,16.89v-3.99h7.13c2.25,0,2.86.61,2.86,2.02,0,1.64-.75,2.02-2.86,2.02h-7.13v-.05ZM198.15,31.24h20.73v-4.74h-14.59v-4.97h10.6v-4.64h-10.6v-4.5h14.12v-4.64h-20.22l-.05,23.5ZM230.15,22.75h5.25c3,0,4.13.99,4.13,3.75.14,3,.23,3.99.52,4.74h6.24v-.23c-.23-.23-.38-.89-.52-1.88-.23-2.11-.23-4.5-.89-6.24-.38-.99-1.64-2.02-3-2.25,2.25-.61,4.27-2.25,4.27-5.72,0-4.5-2.63-6.85-8.87-6.85h-13.13v23.36h6.1l-.09-8.68ZM230.15,17.87v-5.11h6.61c2.39,0,3.24.75,3.24,2.39,0,1.74-.89,2.77-3.24,2.77h-6.61v-.05ZM251.77,31.24h16.46l1.74-4.88h-12.24V7.74h-6v23.5h.05ZM280.1,26.88h9.62l1.5,4.36h6.38l-8.87-23.36h-7.22l-8.87,23.36h5.86l1.59-4.36ZM287.98,22.38h-6.38l3.14-9.01,3.24,9.01ZM301.82,31.24h5.72l-.23-16.46,9.99,16.46h7.13V7.74h-5.72l.23,15.62-9.38-15.62h-7.6l-.14,23.5ZM330.95,31.24h10.13c8.35,0,12.76-4.88,12.76-11.87s-4.88-11.49-12.62-11.49h-10.23l-.05,23.36ZM337.05,26.27v-13.51h4.5c3.52,0,6,2.02,6,6.61s-2.39,6.75-6,6.75h-4.5v.14Z"/>
  <path class="cls-1" d="M12.73,36.35h20.22l-13.37,13.37c3.61,3.75,8.26,6.38,13.23,7.51v-13.13h2.63l5.25,5.25-5.25,5.25h4.27c1.27-.61,2.39-1.36,3.52-2.25v-8.12h-2.49v-2.63h-5.25l5.25-5.25-5.25-5.25h7.74v12.99h2.63l2.77,2.77c1.27-1.64,2.25-3.38,3-5.25h-5.63l5.25-5.25-5.25-5.25h7.74v-5.25h-20.73L53.72,5.25h-20.73v12.99h-2.63l-5.25-5.25,5.25-5.25h-5.3v-2.49h-2.63v12.99h2.63v2.63h5.25l-5.25,5.25,5.25,5.25h-7.74v-13.13h-2.63l-5.25-5.25,5.25-5.25h-5.25v-2.49h-2.49v12.99h2.63v2.63h5.25l-5.25,5.25,5.25,5.25h-7.88c0,1.59.14,3.38.52,4.97Z"/>
  <path class="cls-1" d="M56.3,31.24c0,14.12-9.99,25.85-23.36,28.47-13.37-2.77-23.36-14.49-23.36-28.47V2.63h46.72v28.61ZM6.96,0v31.1c0,7.51,2.63,14.64,7.22,20.22,2.25,2.77,5.02,5.11,8.12,6.85,3.14,1.88,6.47,3.24,10.13,3.89l.52.14.52-.14c3.61-.75,6.99-2.02,10.13-3.89,3-1.88,5.72-4.13,8.12-6.85,4.74-5.63,7.22-12.85,7.22-20.22V0H6.96Z"/>
</svg>