<?xml version="1.0" encoding="utf-8"?>
<!-- Generator: Adobe Illustrator 25.0.1, SVG Export Plug-In . SVG Version: 6.00 Build 0)  -->
<svg version="1.1" xmlns="http://www.w3.org/2000/svg" xmlns:xlink="http://www.w3.org/1999/xlink" x="0px" y="0px"
	 viewBox="0 0 100 100" style="enable-background:new 0 0 100 100;" xml:space="preserve">
<style type="text/css">
	.st0{display:none;}
	.st1{display:inline;fill:url(#SVGID_1_);}
	.st2{display:inline;fill:url(#SVGID_2_);}
	.st3{display:inline;fill:url(#SVGID_3_);}
	.st4{display:inline;}
	.st5{fill:url(#SVGID_4_);}
	.st6{fill:url(#SVGID_5_);}
	.st7{fill:url(#SVGID_6_);}
	.st8{fill:url(#SVGID_7_);}
	.st9{fill:url(#SVGID_8_);}
	.st10{fill:url(#SVGID_9_);}
	.st11{fill:url(#SVGID_10_);}
	.st12{fill-rule:evenodd;clip-rule:evenodd;fill:url(#SVGID_11_);}
	.st13{fill:url(#SVGID_12_);}
	.st14{fill:url(#SVGID_13_);}
	.st15{fill:url(#SVGID_14_);}
	.st16{fill:url(#SVGID_15_);}
	.st17{fill:url(#SVGID_16_);}
	.st18{fill:url(#SVGID_17_);}
	.st19{fill:url(#SVGID_18_);}
	.st20{fill:url(#SVGID_19_);}
	.st21{fill:url(#SVGID_20_);}
	.st22{fill:url(#SVGID_21_);}
	.st23{fill:url(#SVGID_22_);}
	.st24{fill:url(#SVGID_23_);}
	.st25{fill:url(#SVGID_24_);}
	.st26{fill:url(#SVGID_25_);}
	.st27{fill:url(#SVGID_26_);}
	.st28{display:inline;fill:url(#SVGID_27_);}
	.st29{fill-rule:evenodd;clip-rule:evenodd;fill:url(#SVGID_28_);}
	.st30{fill-rule:evenodd;clip-rule:evenodd;fill:url(#SVGID_29_);}
	.st31{display:inline;fill:url(#SVGID_30_);}
	.st32{fill:url(#SVGID_31_);}
	.st33{fill:url(#SVGID_32_);}
	.st34{display:inline;fill:url(#SVGID_33_);}
	.st35{display:inline;fill:url(#SVGID_34_);}
	.st36{display:inline;fill:url(#SVGID_35_);}
	.st37{display:inline;fill:url(#SVGID_36_);}
	.st38{display:inline;fill:url(#SVGID_37_);}
	.st39{fill:url(#SVGID_38_);}
	.st40{fill:url(#SVGID_39_);}
	.st41{display:inline;fill:url(#SVGID_40_);}
	.st42{fill:url(#SVGID_41_);}
	.st43{fill:url(#SVGID_42_);}
	.st44{fill:url(#SVGID_43_);}
	.st45{fill:url(#SVGID_44_);}
	.st46{fill:url(#SVGID_45_);}
	.st47{fill-rule:evenodd;clip-rule:evenodd;fill:url(#SVGID_46_);}
	.st48{fill-rule:evenodd;clip-rule:evenodd;fill:url(#SVGID_47_);}
	.st49{fill-rule:evenodd;clip-rule:evenodd;fill:url(#SVGID_48_);}
	.st50{fill-rule:evenodd;clip-rule:evenodd;fill:url(#SVGID_49_);}
	.st51{fill-rule:evenodd;clip-rule:evenodd;fill:url(#SVGID_50_);}
	.st52{fill-rule:evenodd;clip-rule:evenodd;fill:url(#SVGID_51_);}
	.st53{fill-rule:evenodd;clip-rule:evenodd;fill:url(#SVGID_52_);}
	.st54{fill-rule:evenodd;clip-rule:evenodd;fill:url(#SVGID_53_);}
	.st55{fill-rule:evenodd;clip-rule:evenodd;fill:url(#SVGID_54_);}
	.st56{display:inline;fill:url(#SVGID_55_);}
	.st57{fill:url(#SVGID_56_);}
	.st58{fill:url(#SVGID_57_);}
	.st59{fill:url(#SVGID_58_);}
	.st60{fill:url(#SVGID_59_);}
	.st61{fill:url(#SVGID_60_);}
	.st62{fill:url(#SVGID_61_);}
	.st63{fill:url(#SVGID_62_);}
	.st64{fill:url(#SVGID_63_);}
	.st65{fill:url(#SVGID_64_);}
	.st66{fill:url(#SVGID_65_);}
	.st67{fill:url(#SVGID_66_);}
	.st68{fill:url(#SVGID_67_);}
	.st69{fill:url(#SVGID_68_);}
	.st70{fill:url(#SVGID_69_);}
	.st71{fill:url(#SVGID_70_);}
	.st72{fill:url(#SVGID_71_);}
	.st73{fill:url(#SVGID_72_);}
	.st74{fill:url(#SVGID_73_);}
</style>
<g id="Layer_1" class="st0">
	<linearGradient id="SVGID_1_" gradientUnits="userSpaceOnUse" x1="5.8637" y1="5.8637" x2="94.1363" y2="94.1363">
		<stop  offset="0" style="stop-color:#1B2E50"/>
		<stop  offset="0.2841" style="stop-color:#1A2C4A"/>
		<stop  offset="0.7907" style="stop-color:#17253C"/>
		<stop  offset="1" style="stop-color:#142135"/>
	</linearGradient>
	<path class="st1" d="M20,0h60c11.1,0,20,9,20,20v60c0,11.1-9,20-20,20H20C9,100,0,91,0,80V20C0,9,9,0,20,0z"/>
</g>
<g id="Light" class="st0">
	<linearGradient id="SVGID_2_" gradientUnits="userSpaceOnUse" x1="5.8637" y1="5.8637" x2="94.1363" y2="94.1363">
		<stop  offset="0" style="stop-color:#E5E6E5"/>
		<stop  offset="0.7099" style="stop-color:#F0F1F1"/>
		<stop  offset="1" style="stop-color:#F7F8F9"/>
	</linearGradient>
	<path class="st2" d="M20,0h60c11.1,0,20,9,20,20v60c0,11.1-9,20-20,20H20C9,100,0,91,0,80V20C0,9,9,0,20,0z"/>
</g>
<g id="Layer_3" class="st0">
	<linearGradient id="SVGID_3_" gradientUnits="userSpaceOnUse" x1="12.5" y1="50" x2="87.5" y2="50">
		<stop  offset="0" style="stop-color:#63AF45"/>
		<stop  offset="0.1065" style="stop-color:#62AF4B"/>
		<stop  offset="0.2972" style="stop-color:#5BB060"/>
		<stop  offset="0.5501" style="stop-color:#4DB183"/>
		<stop  offset="0.8523" style="stop-color:#33B3AE"/>
		<stop  offset="1" style="stop-color:#13B4C5"/>
	</linearGradient>
	<path class="st3" d="M87.5,39c0-3.3-2.7-6.1-6.1-6.1c-1,0-1.9,0.2-2.7,0.6l-10.9-7.1c0.1-0.5,0.2-1,0.2-1.6c0-3.3-2.7-6.1-6.1-6.1
		c-3.3,0-5.9,2.6-6,5.8l-7.5,2.4l-3.3-3.7c0.4-0.8,0.7-1.8,0.7-2.8c0-3.3-2.7-6.1-6.1-6.1s-6.1,2.7-6.1,6.1c0,1.4,0.5,2.8,1.4,3.8
		l-3.5,8.1l-7.3,2.4c-1.1-1.1-2.6-1.9-4.4-1.9c-3.3,0-6.1,2.7-6.1,6.1s2.7,6.1,6.1,6.1c0.2,0,0.3,0,0.5,0l3,6.2l-3.5,8
		c-0.4-0.1-0.9-0.2-1.3-0.2c-3.3,0-6.1,2.7-6.1,6.1s2.7,6.1,6.1,6.1c3.3,0,5.9-2.6,6-5.8l4.8-2l4.9,10.1c-0.9,1-1.4,2.4-1.4,3.8
		c0,3.3,2.7,6.1,6.1,6.1c1.9,0,3.6-0.9,4.7-2.3l14.1,0.7c0.9,2.2,3.1,3.7,5.6,3.7c3.3,0,6.1-2.7,6.1-6.1s-2.7-6.1-6.1-6.1
		c-2.8,0-5.1,1.9-5.8,4.4l-12.2-0.6l26.7-10.7c0.9,0.5,1.8,0.7,2.9,0.7c3.3,0,6.1-2.7,6.1-6.1c0-1.4-0.5-2.7-1.3-3.7L83,44.9
		C85.6,44.2,87.5,41.8,87.5,39z M75.3,55.1l-3.7-9.5l5.5-2.3c0.5,0.5,1.1,1,1.8,1.3l-2.8,10.6C75.9,55.1,75.6,55.1,75.3,55.1z
		 M65.4,29.9c0.1,0,0.1-0.1,0.2-0.1l10.3,6.8c-0.3,0.7-0.5,1.6-0.5,2.5c0,0.2,0,0.4,0,0.6l-5.3,2.2L65.4,29.9z M69.1,50.4l-2.4-2.8
		l1.2-0.5L69.1,50.4z M58.3,38.1l3.2-7.2c0,0,0,0,0.1,0l4.9,12.5l-2.5,1.1L58.3,38.1z M59.9,46.1l-6.3,2.7l2.9-6.6L59.9,46.1z
		 M57.2,28.5c0.2,0.2,0.4,0.5,0.6,0.7l-2.5,5.6l-3.9-4.4L57.2,28.5z M38.6,26.5c0.4,0.1,0.8,0.1,1.2,0.1c0.9,0,1.7-0.2,2.4-0.5
		l2,2.3l-7.6,2.4L38.6,26.5z M25.9,39c0-0.2,0-0.3,0-0.5l3.5-1.1l-3.9,9l-1.5-3C25.2,42.3,25.9,40.8,25.9,39z M23.4,61.5
		C23.4,61.5,23.3,61.4,23.4,61.5l2.3-5.5l1.9,3.8L23.4,61.5z M27.8,51.1l6.7-15.4l12.6-4l6.3,7.2h0L48.2,51l-16.9,7.1L27.8,51.1z
		 M45.9,56.4l-6.5,14.8c-0.1,0-0.3,0-0.4,0c-0.4,0-0.8,0-1.2,0.1l-4.7-9.5L45.9,56.4z M43.7,73.4c-0.2-0.2-0.4-0.4-0.6-0.6l8.2-18.7
		l11.5-4.8l7.3,8.3c-0.7,1-1.2,2.2-1.2,3.6c0,0.7,0.1,1.5,0.4,2.1L43.7,73.4z"/>
</g>
<g id="Layer_4" class="st0">
	<g class="st4">
		<linearGradient id="SVGID_4_" gradientUnits="userSpaceOnUse" x1="16.9369" y1="61.7489" x2="31.3042" y2="61.7489">
			<stop  offset="0" style="stop-color:#63AF45"/>
			<stop  offset="0.1065" style="stop-color:#62AF4B"/>
			<stop  offset="0.2972" style="stop-color:#5BB060"/>
			<stop  offset="0.5501" style="stop-color:#4DB183"/>
			<stop  offset="0.8523" style="stop-color:#33B3AE"/>
			<stop  offset="1" style="stop-color:#13B4C5"/>
		</linearGradient>
		<path class="st5" d="M20.2,58.5c-1.8,0-3.2,1.4-3.2,3.2v0c0,1.8,1.5,3.2,3.2,3.2h7.9c1.8,0,3.2-1.5,3.2-3.2v0
			c0-1.8-1.4-3.2-3.2-3.2H20.2z"/>
		<linearGradient id="SVGID_5_" gradientUnits="userSpaceOnUse" x1="12.7408" y1="49.9999" x2="28.7866" y2="49.9999">
			<stop  offset="0" style="stop-color:#63AF45"/>
			<stop  offset="0.1065" style="stop-color:#62AF4B"/>
			<stop  offset="0.2972" style="stop-color:#5BB060"/>
			<stop  offset="0.5501" style="stop-color:#4DB183"/>
			<stop  offset="0.8523" style="stop-color:#33B3AE"/>
			<stop  offset="1" style="stop-color:#13B4C5"/>
		</linearGradient>
		<path class="st6" d="M16,53.2h9.6c1.8,0,3.2-1.5,3.2-3.2v0c0-1.8-1.4-3.2-3.2-3.2H16c-1.8,0-3.2,1.4-3.2,3.2v0
			C12.7,51.8,14.2,53.2,16,53.2z"/>
		<linearGradient id="SVGID_6_" gradientUnits="userSpaceOnUse" x1="16.9369" y1="38.251" x2="31.3042" y2="38.251">
			<stop  offset="0" style="stop-color:#63AF45"/>
			<stop  offset="0.1065" style="stop-color:#62AF4B"/>
			<stop  offset="0.2972" style="stop-color:#5BB060"/>
			<stop  offset="0.5501" style="stop-color:#4DB183"/>
			<stop  offset="0.8523" style="stop-color:#33B3AE"/>
			<stop  offset="1" style="stop-color:#13B4C5"/>
		</linearGradient>
		<path class="st7" d="M31.3,38.3c0-1.8-1.4-3.2-3.2-3.2h-7.9c-1.8,0-3.2,1.4-3.2,3.2v0c0,1.8,1.5,3.2,3.2,3.2h7.9
			C29.9,41.5,31.3,40,31.3,38.3L31.3,38.3z"/>
		<linearGradient id="SVGID_7_" gradientUnits="userSpaceOnUse" x1="12.7408" y1="50" x2="87.2558" y2="50">
			<stop  offset="0" style="stop-color:#63AF45"/>
			<stop  offset="0.1065" style="stop-color:#62AF4B"/>
			<stop  offset="0.2972" style="stop-color:#5BB060"/>
			<stop  offset="0.5501" style="stop-color:#4DB183"/>
			<stop  offset="0.8523" style="stop-color:#33B3AE"/>
			<stop  offset="1" style="stop-color:#13B4C5"/>
		</linearGradient>
		<path class="st8" d="M86.8,48L86.8,48c-0.2-0.3-0.5-0.4-0.9-0.5c-0.5-0.6-1-1.2-1.7-1.8L47.8,15.1c-0.5-0.4-1-0.8-1.5-1.1
			c-0.6-0.9-1.6-1.5-2.7-1.5h0c-0.9,0-1.8,0.4-2.4,1.1c0,0-0.1,0-0.1,0.1l0,0c0,0,0,0.1-0.1,0.1c-0.4,0.5-0.7,1.2-0.7,2v8.4H16
			c-1.8,0-3.2,1.4-3.2,3.2v0c0,1.8,1.4,3.2,3.2,3.2h27.6h0h0c1.8,0,3.2-1.4,3.2-3.2v0c0,0,0,0,0,0v-4.8L79.4,50L46.8,77.4v-4.8
			c0,0,0,0,0,0v0c0-1.8-1.4-3.2-3.2-3.2h0h0H16c-1.8,0-3.2,1.4-3.2,3.2v0c0,1.8,1.4,3.2,3.2,3.2h24.4v8.4c0,0.7,0.3,1.4,0.7,2
			c0,0,0,0.1,0.1,0.1l0,0c0,0,0.1,0,0.1,0.1c0.6,0.7,1.4,1.1,2.4,1.1h0c1.1,0,2.2-0.6,2.7-1.5c0.5-0.3,1-0.6,1.5-1.1l36.4-30.5
			c0.7-0.6,1.3-1.2,1.7-1.8c0.3-0.1,0.7-0.3,0.9-0.5l0,0c0.4-0.5,0.5-1.2,0.4-2C87.3,49.2,87.2,48.5,86.8,48z"/>
		<linearGradient id="SVGID_8_" gradientUnits="userSpaceOnUse" x1="44.7806" y1="45.0738" x2="46.6173" y2="45.0738">
			<stop  offset="0" style="stop-color:#63AF45"/>
			<stop  offset="0.1065" style="stop-color:#62AF4B"/>
			<stop  offset="0.2972" style="stop-color:#5BB060"/>
			<stop  offset="0.5501" style="stop-color:#4DB183"/>
			<stop  offset="0.8523" style="stop-color:#33B3AE"/>
			<stop  offset="1" style="stop-color:#13B4C5"/>
		</linearGradient>
		<path class="st9" d="M44.8,45.1c0,0.7,0.2,1.2,0.6,1.6c0.3,0.3,0.7,0.5,1.3,0.8v-4.6c-0.5,0.2-0.9,0.4-1.2,0.7
			C45,43.8,44.8,44.4,44.8,45.1z"/>
		<linearGradient id="SVGID_9_" gradientUnits="userSpaceOnUse" x1="49.3558" y1="54.319" x2="51.4907" y2="54.319">
			<stop  offset="0" style="stop-color:#63AF45"/>
			<stop  offset="0.1065" style="stop-color:#62AF4B"/>
			<stop  offset="0.2972" style="stop-color:#5BB060"/>
			<stop  offset="0.5501" style="stop-color:#4DB183"/>
			<stop  offset="0.8523" style="stop-color:#33B3AE"/>
			<stop  offset="1" style="stop-color:#13B4C5"/>
		</linearGradient>
		<path class="st10" d="M51.5,54.2c0-0.8-0.2-1.3-0.7-1.7c-0.4-0.3-0.8-0.6-1.4-0.8V57c0.6-0.2,1.1-0.5,1.4-0.9
			C51.3,55.6,51.5,54.9,51.5,54.2z"/>
		<linearGradient id="SVGID_10_" gradientUnits="userSpaceOnUse" x1="32.3328" y1="50" x2="63.4188" y2="50">
			<stop  offset="0" style="stop-color:#63AF45"/>
			<stop  offset="0.1065" style="stop-color:#62AF4B"/>
			<stop  offset="0.2972" style="stop-color:#5BB060"/>
			<stop  offset="0.5501" style="stop-color:#4DB183"/>
			<stop  offset="0.8523" style="stop-color:#33B3AE"/>
			<stop  offset="1" style="stop-color:#13B4C5"/>
		</linearGradient>
		<path class="st11" d="M63.4,50c0-8.6-7-15.5-15.5-15.5c-8.6,0-15.5,7-15.5,15.5s7,15.5,15.5,15.5C56.5,65.5,63.4,58.6,63.4,50z
			 M46.6,61v-1.3c-0.8-0.1-1.5-0.3-2.2-0.7c-0.8-0.4-1.4-0.8-1.9-1.4c-0.5-0.5-0.9-1.1-1.1-1.7c-0.2-0.6-0.4-1.2-0.4-1.7
			c0-0.4,0.2-0.8,0.5-1.1c0.3-0.3,0.7-0.5,1.2-0.5c0.4,0,0.7,0.1,1,0.3c0.3,0.2,0.5,0.4,0.6,0.8c0.2,0.7,0.4,1.3,0.6,1.6
			c0.2,0.4,0.4,0.7,0.8,1c0.2,0.2,0.6,0.4,0.9,0.6v-6c-1-0.3-1.8-0.6-2.4-0.9c-0.8-0.4-1.4-1-1.9-1.7c-0.5-0.7-0.7-1.7-0.7-2.8
			c0-1.5,0.5-2.7,1.4-3.7c0.9-0.9,2.1-1.4,3.6-1.6V39c0-0.8,0.6-1.4,1.4-1.4s1.4,0.6,1.4,1.4v1.1c0.7,0.1,1.3,0.3,1.8,0.5
			c0.7,0.3,1.2,0.7,1.7,1.3c0.4,0.4,0.7,0.9,0.9,1.4c0.2,0.5,0.3,0.9,0.3,1.3c0,0.4-0.2,0.8-0.5,1.1c-0.3,0.3-0.7,0.5-1.2,0.5
			c-0.9,0-1.4-0.5-1.7-1.4c-0.2-0.9-0.7-1.5-1.5-1.9v5.3c0.8,0.2,1.4,0.4,2,0.6c0.6,0.2,1.2,0.6,1.7,1.1c0.5,0.5,1,1,1.2,1.7
			c0.3,0.7,0.4,1.4,0.4,2.2c0,1-0.2,1.9-0.7,2.8c-0.5,0.9-1.1,1.6-2,2.1c-0.8,0.5-1.6,0.8-2.6,0.9V61c0,0.8-0.6,1.4-1.4,1.4
			S46.6,61.7,46.6,61z"/>
	</g>
</g>
<g id="Layer_5" class="st0">
	<g id="Layer_x0020_1_1_" class="st4">
		<linearGradient id="SVGID_11_" gradientUnits="userSpaceOnUse" x1="12.5" y1="50" x2="87.5" y2="50">
			<stop  offset="0" style="stop-color:#63AF45"/>
			<stop  offset="0.1065" style="stop-color:#62AF4B"/>
			<stop  offset="0.2972" style="stop-color:#5BB060"/>
			<stop  offset="0.5501" style="stop-color:#4DB183"/>
			<stop  offset="0.8523" style="stop-color:#33B3AE"/>
			<stop  offset="1" style="stop-color:#13B4C5"/>
		</linearGradient>
		<path class="st12" d="M20.8,12.6h58.5c4.5,0,8.3,3.7,8.3,8.3v26.6h-4.7V21c0-2.1-1.7-3.8-3.8-3.8H21c-2.1,0-3.8,1.7-3.8,3.8v32.9
			c0,2.1,1.7,3.8,3.8,3.8h21.2v4.8H20.8c-4.5,0-8.3-3.7-8.3-8.3V20.9C12.5,16.3,16.2,12.6,20.8,12.6L20.8,12.6z M63.5,74.9l-1-0.9
			l-4.9-4.4C57,69,56.9,68,57.5,67.4l0.9-1c0.6-0.6,1.5-0.7,2.2-0.1l3.7,3.4l9.1-10.1c0.6-0.6,1.5-0.7,2.2-0.1l1,0.9
			c0.6,0.6,0.7,1.5,0.1,2.2L66.6,73.7l-0.9,1l0,0l0,0l0,0c0,0,0,0,0,0l0,0l0,0l0,0l0,0c-0.5,0.5-1.4,0.5-1.9,0.1L63.5,74.9
			L63.5,74.9C63.6,74.9,63.6,74.9,63.5,74.9L63.5,74.9C63.5,74.9,63.5,74.9,63.5,74.9L63.5,74.9C63.5,74.9,63.5,74.9,63.5,74.9
			L63.5,74.9L63.5,74.9z M24.1,24.6h26.4v5H24.1V24.6z M24.1,45.4h21.5v5H24.1V45.4z M24.1,35h26.4v5H24.1V35z M67.1,24.6
			c5.2,0,9.4,4.2,9.4,9.4c0,5.2-4.2,9.4-9.4,9.4c-5.2,0-9.4-4.2-9.4-9.4C57.7,28.8,61.9,24.6,67.1,24.6z M67.1,29.3
			c2.6,0,4.7,2.1,4.7,4.7c0,2.6-2.1,4.7-4.7,4.7c-2.6,0-4.7-2.1-4.7-4.7C62.4,31.4,64.5,29.3,67.1,29.3z M67.1,46.9
			c11.2,0,20.3,9.1,20.3,20.3s-9.1,20.3-20.3,20.3s-20.3-9.1-20.3-20.3S55.9,46.9,67.1,46.9L67.1,46.9z M67.1,51.5
			c8.6,0,15.6,7,15.6,15.6c0,8.6-7,15.6-15.6,15.6c-8.6,0-15.6-7-15.6-15.6C51.5,58.5,58.5,51.5,67.1,51.5z"/>
	</g>
</g>
<g id="Layer_7" class="st0">
	<g class="st4">
		<g>
			<linearGradient id="SVGID_12_" gradientUnits="userSpaceOnUse" x1="12.7067" y1="37.3165" x2="66.9014" y2="37.3165">
				<stop  offset="0" style="stop-color:#63AF45"/>
				<stop  offset="0.1065" style="stop-color:#62AF4B"/>
				<stop  offset="0.2972" style="stop-color:#5BB060"/>
				<stop  offset="0.5501" style="stop-color:#4DB183"/>
				<stop  offset="0.8523" style="stop-color:#33B3AE"/>
				<stop  offset="1" style="stop-color:#13B4C5"/>
			</linearGradient>
			<path class="st13" d="M40.6,45.6c5.2-6.6,13.2-10.8,22.3-10.8c1.3,0,2.7,0.1,4,0.3v-6c-4.1,3.7-14.7,6.3-27.1,6.3
				c-12.4,0-22.9-2.6-27.1-6.2v7.8C14.8,45.3,40.4,45.6,40.6,45.6z"/>
			<linearGradient id="SVGID_13_" gradientUnits="userSpaceOnUse" x1="12.6761" y1="51.1865" x2="38.2884" y2="51.1865">
				<stop  offset="0" style="stop-color:#63AF45"/>
				<stop  offset="0.1065" style="stop-color:#62AF4B"/>
				<stop  offset="0.2972" style="stop-color:#5BB060"/>
				<stop  offset="0.5501" style="stop-color:#4DB183"/>
				<stop  offset="0.8523" style="stop-color:#33B3AE"/>
				<stop  offset="1" style="stop-color:#13B4C5"/>
			</linearGradient>
			<path class="st14" d="M12.7,42.9l0,7.9c1,4.4,10.2,7.9,22.2,8.7c0.5-3.7,1.7-7.2,3.4-10.3C26.5,48.9,16.6,46.4,12.7,42.9z"/>
			<linearGradient id="SVGID_14_" gradientUnits="userSpaceOnUse" x1="12.6607" y1="65.271" x2="36.6963" y2="65.271">
				<stop  offset="0" style="stop-color:#63AF45"/>
				<stop  offset="0.1065" style="stop-color:#62AF4B"/>
				<stop  offset="0.2972" style="stop-color:#5BB060"/>
				<stop  offset="0.5501" style="stop-color:#4DB183"/>
				<stop  offset="0.8523" style="stop-color:#33B3AE"/>
				<stop  offset="1" style="stop-color:#13B4C5"/>
			</linearGradient>
			<path class="st15" d="M12.7,56.9l0,7.5c0,0,0.1-0.1,0.1-0.1c0.3,4.8,10.6,8.8,23.9,9.4c-1.3-3.3-2.1-6.8-2.1-10.6v0
				C24.5,62.4,16.2,60.1,12.7,56.9z"/>
			<linearGradient id="SVGID_15_" gradientUnits="userSpaceOnUse" x1="12.6454" y1="79.1105" x2="47.9792" y2="79.1105">
				<stop  offset="0" style="stop-color:#63AF45"/>
				<stop  offset="0.1065" style="stop-color:#62AF4B"/>
				<stop  offset="0.2972" style="stop-color:#5BB060"/>
				<stop  offset="0.5501" style="stop-color:#4DB183"/>
				<stop  offset="0.8523" style="stop-color:#33B3AE"/>
				<stop  offset="1" style="stop-color:#13B4C5"/>
			</linearGradient>
			<path class="st16" d="M38.5,77.2c-12-0.2-22-2.8-25.8-6.5l0,7.1c0,5.3,12.1,9.6,27.1,9.6c2.9,0,5.6-0.2,8.2-0.4
				C44.1,84.6,40.8,81.2,38.5,77.2z"/>
			<linearGradient id="SVGID_16_" gradientUnits="userSpaceOnUse" x1="12.6148" y1="22.1295" x2="66.932" y2="22.1295">
				<stop  offset="0" style="stop-color:#63AF45"/>
				<stop  offset="0.1065" style="stop-color:#62AF4B"/>
				<stop  offset="0.2972" style="stop-color:#5BB060"/>
				<stop  offset="0.5501" style="stop-color:#4DB183"/>
				<stop  offset="0.8523" style="stop-color:#33B3AE"/>
				<stop  offset="1" style="stop-color:#13B4C5"/>
			</linearGradient>
			<ellipse class="st17" cx="39.8" cy="22.1" rx="27.2" ry="9.6"/>
		</g>
	</g>
	<g id="Layer_10" class="st4">
		<g>
			<g id="Shape_1_3_">
				<g>
					<linearGradient id="SVGID_17_" gradientUnits="userSpaceOnUse" x1="38.35" y1="63.0712" x2="87.35" y2="63.0712">
						<stop  offset="0" style="stop-color:#63AF45"/>
						<stop  offset="0.1065" style="stop-color:#62AF4B"/>
						<stop  offset="0.2972" style="stop-color:#5BB060"/>
						<stop  offset="0.5501" style="stop-color:#4DB183"/>
						<stop  offset="0.8523" style="stop-color:#33B3AE"/>
						<stop  offset="1" style="stop-color:#13B4C5"/>
					</linearGradient>
					<path class="st18" d="M87.3,60.7c-5.6-32.6-48.2-26.3-49,0c2.5,1.3,4,2.1,4,2.1s-1.3,0.8-4,2.5c4.9,32,46.8,27.3,49,0
						c-2.7-1.6-4.1-2.5-4.1-2.5S84.5,62.2,87.3,60.7z M66.4,72.1l-4-6.9l-4.1,6.9l-3.1-0.2l5.8-9.7l-5.2-8.4l3.1-0.3l3.7,6.2l3.7-6
						l2.9,0.1l-4.9,8.3l5.4,10L66.4,72.1z"/>
				</g>
			</g>
			<g id="Shape_1_2_">
				<g>
					<linearGradient id="SVGID_18_" gradientUnits="userSpaceOnUse" x1="40.3373" y1="63.0531" x2="85.3627" y2="63.0531">
						<stop  offset="0" style="stop-color:#63AF45"/>
						<stop  offset="0.1065" style="stop-color:#62AF4B"/>
						<stop  offset="0.2972" style="stop-color:#5BB060"/>
						<stop  offset="0.5501" style="stop-color:#4DB183"/>
						<stop  offset="0.8523" style="stop-color:#33B3AE"/>
						<stop  offset="1" style="stop-color:#13B4C5"/>
					</linearGradient>
					<path class="st19" d="M85.4,59.5c-7.6-29-42.6-21.1-45,0c4.9,2.7,6,3.4,6,3.4s-1.9,1.2-6,3.8c5.2,27.9,42.9,22.5,45,0
						c-3.8-2.4-6.1-3.8-6.1-3.8S84.4,59.9,85.4,59.5z M66.4,72.1l-4-6.9l-4.1,6.9l-3.1-0.2l5.8-9.7l-5.2-8.4l3.1-0.3l3.7,6.2l3.7-6
						l2.9,0.1l-4.9,8.3l5.3,9.9L66.4,72.1z"/>
				</g>
			</g>
		</g>
	</g>
</g>
<g id="Layer_8" class="st0">
	<g class="st4">
		<linearGradient id="SVGID_19_" gradientUnits="userSpaceOnUse" x1="8.1085" y1="41.9791" x2="73.8477" y2="41.9791">
			<stop  offset="0" style="stop-color:#63AF45"/>
			<stop  offset="0.1065" style="stop-color:#62AF4B"/>
			<stop  offset="0.2972" style="stop-color:#5BB060"/>
			<stop  offset="0.5501" style="stop-color:#4DB183"/>
			<stop  offset="0.8523" style="stop-color:#33B3AE"/>
			<stop  offset="1" style="stop-color:#13B4C5"/>
		</linearGradient>
		<path class="st20" d="M22.6,60.7c0.4-1.4,0.7-2.5,1-3.7c0.2-0.6,0.3-1.1,0.6-1.6c0.7-1.3,2.2-1.9,3.5-1.5c1.4,0.4,2.3,1.8,2.1,3.3
			c-0.1,0.9-0.4,1.7-0.6,2.6c-0.7,2.4-1.4,4.9-2.2,7.3c-0.3,1-0.9,2-1.5,2.8c-1.1,1.5-2.6,1.8-4.4,1.3c-1.4-0.4-2.9-0.5-4.4-0.7
			c-1.9-0.3-3.8-0.5-5.8-0.8c-1.8-0.3-3-1.6-2.8-3.3c0.2-1.6,1.5-2.6,3.3-2.5c1.6,0.1,3.2,0.4,4.7,0.7c0.3,0,0.6,0.1,1.1,0.1
			c-0.1-0.4-0.2-0.7-0.3-1c-2.1-5.2-2.5-10.6-2.4-16.1c0.1-4.2,0.6-8.4,2-12.4C19,28.1,23.8,22.9,30.2,19c5.7-3.5,11.8-5.8,18.4-6.3
			c7.7-0.6,15.1,1,21.5,5.6c1,0.7,2,1.6,2.8,2.6c0.5,0.6,0.9,1.5,0.9,2.2c0.1,2-1.9,3.2-3.7,2.3c-0.3-0.2-0.6-0.4-0.9-0.6
			c-4-3.7-8.9-5.4-14.2-6c-7.9-0.9-15,1.6-21.6,5.7C25.8,29,21.7,35.8,21.1,44.7c-0.4,5-0.4,10,1.1,14.9
			C22.3,59.9,22.4,60.2,22.6,60.7z"/>
		<linearGradient id="SVGID_20_" gradientUnits="userSpaceOnUse" x1="28.505" y1="57.2053" x2="91.8915" y2="57.2053">
			<stop  offset="0" style="stop-color:#63AF45"/>
			<stop  offset="0.1065" style="stop-color:#62AF4B"/>
			<stop  offset="0.2972" style="stop-color:#5BB060"/>
			<stop  offset="0.5501" style="stop-color:#4DB183"/>
			<stop  offset="0.8523" style="stop-color:#33B3AE"/>
			<stop  offset="1" style="stop-color:#13B4C5"/>
		</linearGradient>
		<path class="st21" d="M80,38.3c-0.2,1-0.4,1.9-0.5,2.9c-0.1,0.4-0.2,0.7-0.3,1.1c-0.5,1.2-1.5,2-2.7,1.9c-1.1-0.1-2.1-0.9-2.2-2.2
			c-0.1-1.8-0.1-3.6,0.1-5.3c0.1-1.8,0.4-3.6,0.7-5.4c0.4-2.9,2.1-4.5,5-4.2c3.2,0.3,6.4,0.9,9.6,1.6c1.6,0.3,2.5,1.9,2.2,3.5
			c-0.3,1.5-1.6,2.5-3.3,2.3c-1-0.1-2.1-0.3-3.2-0.5c0.2,0.5,0.3,0.9,0.5,1.4c1.9,4.6,3.2,9.5,3.2,14.5c-0.2,12.1-5,22-14.5,29.5
			c-5.7,4.6-12.2,7.4-19.6,8.1c-8.5,0.9-16.5-0.5-23.6-5.6c-0.7-0.5-1.4-1.2-2-1.9c-1.1-1.2-1.1-2.8-0.1-3.9c1-1.1,2.5-1.2,3.9-0.3
			c0.2,0.1,0.3,0.2,0.5,0.3c5.8,4.6,12.5,6.2,19.8,5.6c9.3-0.8,16.8-5,22.6-12.1c4.7-5.7,7.2-12.4,7-19.9
			C82.8,45.5,81.5,41.9,80,38.3z"/>
		<linearGradient id="SVGID_21_" gradientUnits="userSpaceOnUse" x1="32.8876" y1="48.0863" x2="51.2488" y2="48.0863">
			<stop  offset="0" style="stop-color:#63AF45"/>
			<stop  offset="0.1065" style="stop-color:#62AF4B"/>
			<stop  offset="0.2972" style="stop-color:#5BB060"/>
			<stop  offset="0.5501" style="stop-color:#4DB183"/>
			<stop  offset="0.8523" style="stop-color:#33B3AE"/>
			<stop  offset="1" style="stop-color:#13B4C5"/>
		</linearGradient>
		<path class="st22" d="M40.9,57.6c1.9,0,3.7,0,5.5,0c0.8,0,1.7,0,2.5,0.1c1.5,0.3,2.5,1.5,2.4,3c-0.1,1.4-1.2,2.7-2.7,2.7
			c-3.6,0.1-7.2,0-10.9,0c-0.4,0-0.9-0.1-1.3-0.2c-3-0.8-4.1-3.5-2.5-6.1c1.3-2,2.7-4,4.1-5.9c1.6-2.4,3.3-4.8,4.8-7.2
			c0.7-1.1,1.3-2.4,1.7-3.6c0.5-1.2-0.1-2-1.5-2c-1.1,0-2.2,0.3-2.9,1.2c-0.8,0.9-1.4,2-2.1,3c-0.3,0.6-0.5,1.3-0.8,1.8
			c-0.6,1-1.6,1.5-2.6,1.2c-1-0.2-1.7-1.1-1.8-2.2c-0.1-3.6,1.6-6.4,4.3-8.6c2.1-1.7,4.6-2.5,7.4-2c4.4,0.8,6.9,4.7,5.7,9
			c-0.6,1.9-1.5,3.8-2.6,5.6c-1.9,3.1-4,6.1-6,9.1C41.5,56.8,41.2,57.2,40.9,57.6z"/>
		<linearGradient id="SVGID_22_" gradientUnits="userSpaceOnUse" x1="48.9364" y1="46.873" x2="69.6308" y2="46.873">
			<stop  offset="0" style="stop-color:#63AF45"/>
			<stop  offset="0.1065" style="stop-color:#62AF4B"/>
			<stop  offset="0.2972" style="stop-color:#5BB060"/>
			<stop  offset="0.5501" style="stop-color:#4DB183"/>
			<stop  offset="0.8523" style="stop-color:#33B3AE"/>
			<stop  offset="1" style="stop-color:#13B4C5"/>
		</linearGradient>
		<path class="st23" d="M55.7,50.6c1.6-0.1,3.1-0.1,4.5-0.3c0.2,0,0.5-0.5,0.5-0.8c0.2-2.1,0.4-4.3,0.6-6.4c0.2-1.5,1.1-2.5,2.4-2.5
			c1.2-0.1,2.2,0.6,2.6,1.8c0.2,0.6,0.2,1.2,0.2,1.8c-0.1,1.9-0.2,3.8-0.3,5.7c0.2,0,0.4,0.1,0.5,0.1c1.6,0.1,2.8,1.1,2.9,2.6
			c0.1,1.5-0.9,2.8-2.5,3.1c-1.5,0.3-1.4,0.3-1.5,1.8c0,0.7-0.1,1.4-0.2,2.1c-0.2,1.6-1.4,2.7-2.9,2.6C61,62.2,60,61,60,59.3
			c0-1,0.1-2,0.2-3c-0.7,0-1.3,0-2,0c-1.7,0-3.5,0.1-5.2-0.1c-3.4-0.3-5-3.1-3.3-6.1c3.1-5.3,6.2-10.6,9.4-15.9
			c0.5-0.8,1.1-1.5,1.8-2.1c0.9-0.8,2.2-0.9,3.1-0.3c0.9,0.6,1.3,1.8,0.8,3c-0.3,0.7-0.6,1.4-1,2.1c-2.5,4.2-5,8.4-7.5,12.6
			C56,49.9,55.9,50.1,55.7,50.6z"/>
	</g>
</g>
<g id="Layer_11" class="st0">
	<g class="st4">
		<linearGradient id="SVGID_23_" gradientUnits="userSpaceOnUse" x1="14.3482" y1="51.76" x2="89.38" y2="51.76">
			<stop  offset="0" style="stop-color:#63AF45"/>
			<stop  offset="0.1065" style="stop-color:#62AF4B"/>
			<stop  offset="0.2972" style="stop-color:#5BB060"/>
			<stop  offset="0.5501" style="stop-color:#4DB183"/>
			<stop  offset="0.8523" style="stop-color:#33B3AE"/>
			<stop  offset="1" style="stop-color:#13B4C5"/>
		</linearGradient>
		<path class="st24" d="M51.9,11.8c-4,0-8,0.6-11.8,1.9c-0.2,0.1-0.4,0.2-0.6,0.3c-0.1,0-0.3,0.1-0.4,0.1c-3.5,1.3-6.7,3.1-9.6,5.3
			c-0.1,0.1-0.2,0.1-0.3,0.2c-9.3,7.1-14.7,17.9-14.7,29.6c0,4.6,0.8,9.1,2.4,13.3c0.5,1.3,1.8,2.2,3.1,2.2c0.4,0,0.8-0.1,1.2-0.2
			c1.7-0.6,2.6-2.6,2-4.3c-1.3-3.5-2-7.2-2-11c0-1.8,0.2-3.5,0.5-5.2c0.4-1.3,0.9-2.7,1.3-4c2.8-9.2,9.6-16.4,18.6-19.8
			c0.2-0.1,0.3-0.2,0.5-0.3c0.1,0,0.2,0,0.3-0.1c3.1-1,6.4-1.6,9.7-1.6c17,0,30.8,13.8,30.8,30.8c0,17-13.8,30.8-30.8,30.8
			c-4,0-7.8-0.8-11.4-2.2l4-0.5c1.8-0.2,3.1-1.9,2.9-3.8c-0.2-1.8-1.9-3.1-3.8-2.9l-12.8,1.7c-1.8,0.2-3.1,1.9-2.9,3.8
			c0,0.2,0.1,0.3,0.1,0.5c0,0.5,0.1,1,0.4,1.5l6.1,11.7c0.6,1.1,1.8,1.8,3,1.8c0.5,0,1.1-0.1,1.6-0.4c1.6-0.9,2.3-2.9,1.4-4.5
			l-1.1-2.1c4,1.4,8.2,2.1,12.5,2.1c20.7,0,37.5-16.8,37.5-37.5S72.6,11.8,51.9,11.8z"/>
		<linearGradient id="SVGID_24_" gradientUnits="userSpaceOnUse" x1="38.9297" y1="49.1933" x2="50.339" y2="49.1933">
			<stop  offset="0" style="stop-color:#63AF45"/>
			<stop  offset="0.1065" style="stop-color:#62AF4B"/>
			<stop  offset="0.2972" style="stop-color:#5BB060"/>
			<stop  offset="0.5501" style="stop-color:#4DB183"/>
			<stop  offset="0.8523" style="stop-color:#33B3AE"/>
			<stop  offset="1" style="stop-color:#13B4C5"/>
		</linearGradient>
		<path class="st25" d="M50.3,45.7c0-2.9-2.4-4.7-5.4-4.7c-2.2,0-3.9,0.5-5.2,1.2c-0.4,0.2-0.5,0.5-0.5,0.9c0,0.5,0.4,0.9,0.9,0.9
			c0.2,0,0.4-0.1,0.4-0.1c1.1-0.5,2.4-0.8,4-0.8c2.7,0,3.7,1.2,3.7,2.9c0,3.8-9.4,5.5-9.4,10.4c0,0.7,0.5,1.2,1.2,1.2h9
			c0.6,0,1-0.4,1-1c0-0.6-0.4-1-1-1h-8.1C42.3,52.7,50.3,50.5,50.3,45.7z"/>
		<linearGradient id="SVGID_25_" gradientUnits="userSpaceOnUse" x1="52.6734" y1="49.3085" x2="66.0229" y2="49.3085">
			<stop  offset="0" style="stop-color:#63AF45"/>
			<stop  offset="0.1065" style="stop-color:#62AF4B"/>
			<stop  offset="0.2972" style="stop-color:#5BB060"/>
			<stop  offset="0.5501" style="stop-color:#4DB183"/>
			<stop  offset="0.8523" style="stop-color:#33B3AE"/>
			<stop  offset="1" style="stop-color:#13B4C5"/>
		</linearGradient>
		<path class="st26" d="M62.2,57.6c0.6,0,1.1-0.5,1.1-1.1v-3.2h1.8c0.5,0,1-0.4,1-0.9c0-0.5-0.4-1-1-1h-1.8v-9.1
			c0-0.7-0.5-1.4-1.4-1.4h-0.5c-0.5,0-0.9,0.2-1.2,0.6L53,51c-0.2,0.2-0.3,0.5-0.3,0.8V52c0,0.7,0.6,1.3,1.4,1.3h7.1v3.2
			C61.2,57.1,61.6,57.6,62.2,57.6z M54.9,51.5l6.2-8v8H54.9z"/>
		<linearGradient id="SVGID_26_" gradientUnits="userSpaceOnUse" x1="35.2482" y1="38.608" x2="75.0182" y2="38.608">
			<stop  offset="0" style="stop-color:#63AF45"/>
			<stop  offset="0.1065" style="stop-color:#62AF4B"/>
			<stop  offset="0.2972" style="stop-color:#5BB060"/>
			<stop  offset="0.5501" style="stop-color:#4DB183"/>
			<stop  offset="0.8523" style="stop-color:#33B3AE"/>
			<stop  offset="1" style="stop-color:#13B4C5"/>
		</linearGradient>
		<path class="st27" d="M38,34.3c3.7-3.2,8.4-5,13.4-5c11.2,0,20.3,9.1,20.3,20.3c0,0.9,0.7,1.7,1.7,1.7c0.9,0,1.7-0.7,1.7-1.7
			c0-13-10.6-23.7-23.7-23.7c-5.7,0-11.2,2.1-15.5,5.8c-0.7,0.6-0.8,1.7-0.2,2.4C36.3,34.8,37.3,34.9,38,34.3z"/>
	</g>
</g>
<g id="Layer_9" class="st0">
	<linearGradient id="SVGID_27_" gradientUnits="userSpaceOnUse" x1="12.5" y1="50" x2="87.5" y2="50">
		<stop  offset="0" style="stop-color:#63AF45"/>
		<stop  offset="0.1065" style="stop-color:#62AF4B"/>
		<stop  offset="0.2972" style="stop-color:#5BB060"/>
		<stop  offset="0.5501" style="stop-color:#4DB183"/>
		<stop  offset="0.8523" style="stop-color:#33B3AE"/>
		<stop  offset="1" style="stop-color:#13B4C5"/>
	</linearGradient>
	<path class="st28" d="M61.2,68.8c-2.1,0-3.8,1.7-3.8,3.8s1.7,3.8,3.8,3.8s3.8-1.7,3.8-3.8S63.3,68.8,61.2,68.8z M38.8,68.8H27.5
		c-2.1,0-3.8,1.7-3.8,3.8s1.7,3.8,3.8,3.8h11.2c2.1,0,3.8-1.7,3.8-3.8S40.8,68.8,38.8,68.8z M72.5,68.8c-2.1,0-3.8,1.7-3.8,3.8
		s1.7,3.8,3.8,3.8s3.8-1.7,3.8-3.8S74.6,68.8,72.5,68.8z M61.2,46.2c-2.1,0-3.8,1.7-3.8,3.8s1.7,3.8,3.8,3.8S65,52.1,65,50
		S63.3,46.2,61.2,46.2z M38.8,46.2H27.5c-2.1,0-3.8,1.7-3.8,3.8s1.7,3.8,3.8,3.8h11.2c2.1,0,3.8-1.7,3.8-3.8S40.8,46.2,38.8,46.2z
		 M72.5,23.8c-2.1,0-3.8,1.7-3.8,3.8s1.7,3.8,3.8,3.8s3.8-1.7,3.8-3.8S74.6,23.8,72.5,23.8z M72.5,46.2c-2.1,0-3.8,1.7-3.8,3.8
		s1.7,3.8,3.8,3.8s3.8-1.7,3.8-3.8S74.6,46.2,72.5,46.2z M87.5,23.8c0-6.2-5-11.2-11.2-11.2H23.8c-6.2,0-11.2,5-11.2,11.2v7.5
		c0,2.8,1.1,5.4,2.9,7.5c-1.9,2.1-2.9,4.7-2.9,7.5v7.5c0,2.8,1.1,5.4,2.9,7.5c-1.9,2.1-2.9,4.7-2.9,7.5v7.5c0,6.2,5,11.2,11.2,11.2
		h52.5c6.2,0,11.2-5,11.2-11.2v-7.5c0-2.8-1.1-5.4-2.9-7.5c1.9-2.1,2.9-4.7,2.9-7.5v-7.5c0-2.8-1.1-5.4-2.9-7.5
		c1.9-2.1,2.9-4.7,2.9-7.5V23.8z M80,76.2c0,2.1-1.7,3.8-3.8,3.8H23.8c-2.1,0-3.8-1.7-3.8-3.8v-7.5c0-2.1,1.7-3.8,3.8-3.8h52.5
		c2.1,0,3.8,1.7,3.8,3.8V76.2z M80,53.8c0,2.1-1.7,3.8-3.8,3.8H23.8c-2.1,0-3.8-1.7-3.8-3.8v-7.5c0-2.1,1.7-3.8,3.8-3.8h52.5
		c2.1,0,3.8,1.7,3.8,3.8V53.8z M80,31.2c0,2.1-1.7,3.8-3.8,3.8H23.8c-2.1,0-3.8-1.7-3.8-3.8v-7.5c0-2.1,1.7-3.8,3.8-3.8h52.5
		c2.1,0,3.8,1.7,3.8,3.8V31.2z M61.2,23.8c-2.1,0-3.8,1.7-3.8,3.8s1.7,3.8,3.8,3.8s3.8-1.7,3.8-3.8S63.3,23.8,61.2,23.8z M38.8,23.8
		H27.5c-2.1,0-3.8,1.7-3.8,3.8s1.7,3.8,3.8,3.8h11.2c2.1,0,3.8-1.7,3.8-3.8S40.8,23.8,38.8,23.8z"/>
</g>
<g id="Layer_12" class="st0">
	<g class="st4">
		<linearGradient id="SVGID_28_" gradientUnits="userSpaceOnUse" x1="15.8773" y1="50" x2="84.1226" y2="50">
			<stop  offset="0" style="stop-color:#63AF45"/>
			<stop  offset="0.1065" style="stop-color:#62AF4B"/>
			<stop  offset="0.2972" style="stop-color:#5BB060"/>
			<stop  offset="0.5501" style="stop-color:#4DB183"/>
			<stop  offset="0.8523" style="stop-color:#33B3AE"/>
			<stop  offset="1" style="stop-color:#13B4C5"/>
		</linearGradient>
		<path class="st29" d="M84,23.5c-9.9,0.9-21.4-2.9-34.1-11c-11,8.6-22.4,11.1-34,10.4C15,59.8,28,79.5,50,87.5
			C72.8,78.9,85.7,58.3,84,23.5z M50,83.2c-19.5-7.1-31-24.5-30.2-57.1c10.3,0.5,20.3-1.7,30.1-9.3c11.3,7.1,21.4,10.5,30.2,9.7
			C81.6,57.4,70.2,75.6,50,83.2z"/>
		<linearGradient id="SVGID_29_" gradientUnits="userSpaceOnUse" x1="26.4434" y1="50" x2="73.5512" y2="50">
			<stop  offset="0" style="stop-color:#63AF45"/>
			<stop  offset="0.1065" style="stop-color:#62AF4B"/>
			<stop  offset="0.2972" style="stop-color:#5BB060"/>
			<stop  offset="0.5501" style="stop-color:#4DB183"/>
			<stop  offset="0.8523" style="stop-color:#33B3AE"/>
			<stop  offset="1" style="stop-color:#13B4C5"/>
		</linearGradient>
		<path class="st30" d="M73.4,31.9c-6.7,0.6-14.6-2-23.2-7.5L50,24.6l-0.2-0.2c-8.7,5.5-16.5,8.1-23.2,7.5
			c-1.2,23.8,7.6,37.8,23.2,43.7c0.1,0,0.2-0.1,0.3-0.1c0.1,0,0.2,0.1,0.3,0.1C65.8,69.7,74.6,55.7,73.4,31.9z M61.9,39.4
			c-3.1,3.4-5,6.1-7.5,9.7c-2.5,3.7-4.8,7.4-6.8,11.3l-0.6,1.2l-0.6-1.2c-1.1-2.3-2.3-4.4-3.8-6.2s-3.3-3.5-5.3-4.9l0.4-1.2l4.6-0.1
			l0.3,0.1c0.9,0.5,1.8,1.1,2.6,1.8c0.6,0.5,1.1,1,1.7,1.6c1.6-2.6,3.4-5.1,5.2-7.3c2-2.4,3.3-3.8,5.5-5.8l0.4-0.2h5L61.9,39.4z"/>
	</g>
</g>
<g id="Layer_13" class="st0">
	<linearGradient id="SVGID_30_" gradientUnits="userSpaceOnUse" x1="12.5" y1="50" x2="87.5" y2="50">
		<stop  offset="0" style="stop-color:#63AF45"/>
		<stop  offset="0.1065" style="stop-color:#62AF4B"/>
		<stop  offset="0.2972" style="stop-color:#5BB060"/>
		<stop  offset="0.5501" style="stop-color:#4DB183"/>
		<stop  offset="0.8523" style="stop-color:#33B3AE"/>
		<stop  offset="1" style="stop-color:#13B4C5"/>
	</linearGradient>
	<path class="st31" d="M84.4,28.2c1.7,0,3.1,1.4,3.1,3.1v50.1c0,3.4-2.7,6.1-6.5,6.1H31.3c-1.7,0-3.1-1.4-3.1-3.1s1.4-3.1,3.1-3.1
		H78c1.7,0,3.1-1.4,3.1-3.1v-47C81.4,29.5,82.7,28.2,84.4,28.2L84.4,28.2z M71.8,12.5c1.7,0,3.1,1.4,3.1,3.1v56.3
		c0,1.7-1.4,3.1-3.1,3.1H15.6c-1.7,0-3.1-1.4-3.1-3.1V15.6c0-1.7,1.4-3.1,3.1-3.1L71.8,12.5L71.8,12.5z M47.6,26.5c-1-1-3.1-1-4.1,0
		h-0.3c-1,1-1,2.7,0.3,3.8l13,13l-13,13h-0.3c-1,1-1,2.7,0.3,3.7c1,1,3.1,1,4.1,0l17-16.7L47.6,26.5L47.6,26.5z M27.5,39.8
		c-2,0-3.4,1.7-3.4,3.4c0,2,1.7,3.4,3.4,3.4c2,0,3.4-1.7,3.4-3.4C31.3,41.5,29.5,39.8,27.5,39.8z M39.1,39.8c-2,0-3.4,1.7-3.4,3.4
		c0,2,1.7,3.4,3.4,3.4c2,0,3.4-1.7,3.4-3.4S41.1,39.8,39.1,39.8z"/>
</g>
<g id="Layer_19" class="st0">
	<g class="st4">
		<linearGradient id="SVGID_31_" gradientUnits="userSpaceOnUse" x1="16.8033" y1="68.674" x2="83.1967" y2="68.674">
			<stop  offset="0" style="stop-color:#63AF45"/>
			<stop  offset="0.1065" style="stop-color:#62AF4B"/>
			<stop  offset="0.2972" style="stop-color:#5BB060"/>
			<stop  offset="0.5501" style="stop-color:#4DB183"/>
			<stop  offset="0.8523" style="stop-color:#33B3AE"/>
			<stop  offset="1" style="stop-color:#13B4C5"/>
		</linearGradient>
		<path class="st32" d="M81.7,50.1L81.7,50.1c0,0-0.1,0-0.1-0.1c-1.1-0.4-2.3,0.1-2.7,1.1l-4.6,11.1c-0.7,1.8-2.1,3.3-3.8,4.2
			l-7.2,3.8l1.4-7.2c0-0.1,0-0.2,0-0.3c0-0.8-0.7-1.5-1.5-1.5c-1.2,0-2.3,0.5-3,1.5l-8.6,11.4c-0.8,2.4-1.3,4.8-1.6,7.2
			c0,0.3,0,0.5-0.1,0.8c0-0.2,0-0.5-0.1-0.8c-0.2-2.4-0.8-4.8-1.6-7.2l-8.6-11.4c-0.7-0.9-1.8-1.5-3-1.5c-0.1,0-0.2,0-0.3,0
			c-0.8,0.2-1.4,1-1.2,1.8l1.4,7.2l-7.2-3.8c-1.7-0.9-3.1-2.4-3.8-4.2l-4.6-11.1c0,0,0-0.1-0.1-0.1c-0.5-1-1.7-1.4-2.8-0.9
			c-1.2,0.6-1.7,1.9-1.4,3.1l3.8,15.2c0.5,2,1.7,3.7,3.3,4.9L36.5,82l0.9,3.4c0.4,1.4,1.8,2.3,3.3,2l8.8-1.8
			c0.3-0.2,0.4-0.7,0.5-1.4c0.1,0.7,0.2,1.2,0.5,1.4l8.8,1.8c1.4,0.3,2.9-0.6,3.3-2l0.9-3.4L76,73.3c1.7-1.2,2.8-2.9,3.3-4.9
			l3.8-15.2C83.4,51.9,82.8,50.6,81.7,50.1z"/>
		<linearGradient id="SVGID_32_" gradientUnits="userSpaceOnUse" x1="16.8033" y1="37.629" x2="83.1967" y2="37.629">
			<stop  offset="0" style="stop-color:#63AF45"/>
			<stop  offset="0.1065" style="stop-color:#62AF4B"/>
			<stop  offset="0.2972" style="stop-color:#5BB060"/>
			<stop  offset="0.5501" style="stop-color:#4DB183"/>
			<stop  offset="0.8523" style="stop-color:#33B3AE"/>
			<stop  offset="1" style="stop-color:#13B4C5"/>
		</linearGradient>
		<path class="st33" d="M54.4,60.9c2.5-2.5,2.5-6.5,0-9c-0.3-0.3-0.6-0.6-1-0.8l6.9-12.6c0.7,0.3,1.5,0.5,2.3,0.5
			c3,0,5.5-2.3,5.8-5.3c0,0,0.1,0,0.1,0h7.3c0.3,1.8,1.8,3.2,3.7,3.2c2,0,3.7-1.7,3.7-3.7s-1.7-3.7-3.7-3.7c-1.9,0-3.4,1.4-3.7,3.2
			h-7.3c0,0-0.1,0-0.1,0c-0.2-2.8-2.5-5-5.3-5.3c0,0,0-0.1,0-0.1v-7.3c1.8-0.3,3.2-1.8,3.2-3.7c0-2-1.7-3.7-3.7-3.7
			c-2,0-3.7,1.7-3.7,3.7c0,1.9,1.4,3.4,3.2,3.7v7.3c0,0,0,0.1,0,0.1c-2.8,0.2-5,2.5-5.3,5.3H43c-0.3-2.8-2.5-5-5.3-5.3v-7.2
			c1.8-0.3,3.2-1.8,3.2-3.7c0-2-1.7-3.7-3.7-3.7c-2,0-3.7,1.7-3.7,3.7c0,1.9,1.4,3.4,3.2,3.7v7.2c-2.8,0.3-5,2.5-5.3,5.3h-7.2
			c0,0,0,0,0,0c-0.3-1.8-1.8-3.2-3.7-3.2c-2,0-3.7,1.7-3.7,3.7s1.7,3.7,3.7,3.7c1.9,0,3.4-1.4,3.7-3.2c0,0,0,0,0,0h7.2
			c0.3,3,2.8,5.3,5.8,5.3c0.8,0,1.6-0.2,2.3-0.5l6.9,12.6c-0.4,0.2-0.7,0.5-1,0.8c-2.5,2.5-2.5,6.5,0,9
			C47.9,63.4,51.9,63.4,54.4,60.9C54.4,60.9,54.4,60.9,54.4,60.9z M47.3,50.6L40.4,38c1.4-1,2.4-2.5,2.6-4.3h13.8
			c0.2,1.8,1.1,3.4,2.6,4.3l-6.9,12.6C50.8,49.9,48.9,49.9,47.3,50.6z"/>
	</g>
</g>
<g id="Layer_15" class="st0">
	<linearGradient id="SVGID_33_" gradientUnits="userSpaceOnUse" x1="12.5" y1="50" x2="87.5" y2="50">
		<stop  offset="0" style="stop-color:#63AF45"/>
		<stop  offset="0.1065" style="stop-color:#62AF4B"/>
		<stop  offset="0.2972" style="stop-color:#5BB060"/>
		<stop  offset="0.5501" style="stop-color:#4DB183"/>
		<stop  offset="0.8523" style="stop-color:#33B3AE"/>
		<stop  offset="1" style="stop-color:#13B4C5"/>
	</linearGradient>
	<path class="st34" d="M73.3,38.1C71,27.4,61.4,19.3,50,19.3s-21,8-23.3,18.8c1.7,0.3,2.9,1.7,2.9,3.4v17c0,1.9-1.5,3.4-3.4,3.4l0,0
		H21c-4.7,0-8.5-3.8-8.5-8.5v-6.8c0-4.2,3.1-7.8,7.2-8.4c2.4-14.6,15-25.7,30.3-25.7s27.9,11.1,30.3,25.7c4.2,0.6,7.2,4.2,7.2,8.4
		v6.8c0,4.5-3.5,8.2-8,8.5c-3.1,10.9-12.1,19.2-23.3,21.5c-1.5,3.4-5.6,5-9,3.5c-3.4-1.5-5-5.6-3.5-9c1.5-3.4,5.6-5,9-3.5
		c1.1,0.5,2,1.2,2.7,2.2c7.8-1.9,14.2-7.5,16.9-15c-1.2-0.6-2-1.8-2-3.1v-17C70.5,39.8,71.7,38.4,73.3,38.1z M21,44.9
		c-0.9,0-1.7,0.8-1.7,1.7v6.8c0,0.9,0.8,1.7,1.7,1.7h1.7V44.9H21z M77.3,44.9v10.2H79c0.9,0,1.7-0.8,1.7-1.7v-6.8
		c0-0.9-0.8-1.7-1.7-1.7H77.3z"/>
</g>
<g id="Layer_16" class="st0">
	<linearGradient id="SVGID_34_" gradientUnits="userSpaceOnUse" x1="22.2302" y1="50" x2="77.7698" y2="50">
		<stop  offset="0" style="stop-color:#63AF45"/>
		<stop  offset="0.1065" style="stop-color:#62AF4B"/>
		<stop  offset="0.2972" style="stop-color:#5BB060"/>
		<stop  offset="0.5501" style="stop-color:#4DB183"/>
		<stop  offset="0.8523" style="stop-color:#33B3AE"/>
		<stop  offset="1" style="stop-color:#13B4C5"/>
	</linearGradient>
	<path class="st35" d="M77.8,55.1c-0.5-2.5-2.9-4.2-5.4-3.7c-1.9,0.4-3.3,1.8-3.7,3.7c-0.5-3.1-3.4-5.3-6.6-4.8
		c-2.5,0.4-4.4,2.3-4.8,4.8c-0.6-3.3-3.8-5.5-7.1-4.9c-2.2,0.4-4,2-4.7,4.1v-19c3-2.6,3.3-7.1,0.8-10c-2.6-3-7.1-3.3-10-0.8
		s-3.3,7.1-0.8,10c0.2,0.3,0.5,0.5,0.8,0.8v30.9l-4.4-5.1c-1.7-2.4-5-2.9-7.4-1.1s-2.9,5-1.1,7.4c0.1,0.2,0.3,0.4,0.4,0.5l17,19.5
		H71c3.7,0,6.8-3,6.8-6.8V55.1z M28.3,41.1c1-0.6,1.2-1.9,0.7-2.8c0,0,0,0,0,0c-4.2-6.4-2.5-15.1,4-19.3c2.3-1.5,5-2.3,7.8-2.3
		c7.7-0.1,14,6.1,14.1,13.8c0,3-0.9,5.9-2.6,8.3c-0.7,0.9-0.5,2.2,0.5,2.9c0.4,0.3,0.8,0.4,1.2,0.4c0.7,0,1.3-0.3,1.7-0.9
		c2.2-3.1,3.3-6.7,3.3-10.5c0-10-8-18.2-18-18.2s-18.2,8-18.2,18c0,3.5,1,7,2.9,9.9C26.1,41.4,27.4,41.7,28.3,41.1
		C28.3,41.1,28.3,41.1,28.3,41.1L28.3,41.1z"/>
</g>
<g id="Layer_17" class="st0">
	<linearGradient id="SVGID_35_" gradientUnits="userSpaceOnUse" x1="25.2559" y1="50" x2="74.7441" y2="50">
		<stop  offset="0" style="stop-color:#63AF45"/>
		<stop  offset="0.1065" style="stop-color:#62AF4B"/>
		<stop  offset="0.2972" style="stop-color:#5BB060"/>
		<stop  offset="0.5501" style="stop-color:#4DB183"/>
		<stop  offset="0.8523" style="stop-color:#33B3AE"/>
		<stop  offset="1" style="stop-color:#13B4C5"/>
	</linearGradient>
	<path class="st36" d="M70.2,63.8L55.1,50h0l15.2-13.8c4.2-3.8,5.6-9.7,3.6-15c-2.1-5.3-7.1-8.7-12.8-8.7H39
		c-5.7,0-10.7,3.4-12.7,8.7c-2,5.3-0.6,11.2,3.6,15L45,50h0L29.8,63.8c-4.2,3.8-5.6,9.7-3.6,15c2.1,5.3,7.1,8.7,12.7,8.7H61
		c5.7,0,10.7-3.4,12.8-8.7C75.8,73.5,74.5,67.6,70.2,63.8z M43.2,32.1c-1.4,0-2.5-1.2-2.5-2.5c0-1.4,1.2-2.6,2.5-2.6h13.6
		c1.4,0,2.6,1.2,2.6,2.6c0,1.4-1.2,2.5-2.6,2.5H43.2z M56.8,73H43.2c-1.4,0-2.6-1.2-2.6-2.6c0-1.4,1.2-2.5,2.6-2.5h13.6
		c1.4,0,2.6,1.2,2.6,2.5C59.4,71.9,58.2,73,56.8,73z"/>
</g>
<g id="Layer_18" class="st0">
	<linearGradient id="SVGID_36_" gradientUnits="userSpaceOnUse" x1="18.7631" y1="50" x2="81.2369" y2="50">
		<stop  offset="0" style="stop-color:#63AF45"/>
		<stop  offset="0.1065" style="stop-color:#62AF4B"/>
		<stop  offset="0.2972" style="stop-color:#5BB060"/>
		<stop  offset="0.5501" style="stop-color:#4DB183"/>
		<stop  offset="0.8523" style="stop-color:#33B3AE"/>
		<stop  offset="1" style="stop-color:#13B4C5"/>
	</linearGradient>
	<path class="st37" d="M75,45.3H34.4V38c0-8.3,6.2-15.6,14.5-16.1C56.6,21.4,63,26.3,65,33.1c0.2,0.6,0.8,1.2,1.6,1.2H73
		c0.9,0,1.7-0.9,1.6-1.9c-2.5-11.9-13.1-20.6-25.8-20c-13.3,0.6-23.4,12-23.7,25.1c0,0.2,0,0.3,0,0.5v7.2c-3.4,0-6.2,2.8-6.2,6.2
		v29.7c0,3.4,2.8,6.2,6.2,6.2h50c3.4,0,6.2-2.8,6.2-6.2V51.6C81.2,48.1,78.4,45.3,75,45.3z M57.2,76.1c0.3,0.9-0.5,2-1.6,2H44.2
		c-1.1,0-1.9-0.9-1.6-2l2.8-9.4c-2.3-1.6-3.7-4.4-3.1-7.5c0.6-3,3-5.3,6.1-5.9c5-0.9,9.4,2.7,9.4,7.3c0,2.5-1.2,4.8-3.3,6.1
		L57.2,76.1z"/>
</g>
<g id="Layer_20" class="st0">
	<linearGradient id="SVGID_37_" gradientUnits="userSpaceOnUse" x1="18.0718" y1="50" x2="81.9282" y2="50">
		<stop  offset="0" style="stop-color:#63AF45"/>
		<stop  offset="0.1065" style="stop-color:#62AF4B"/>
		<stop  offset="0.2972" style="stop-color:#5BB060"/>
		<stop  offset="0.5501" style="stop-color:#4DB183"/>
		<stop  offset="0.8523" style="stop-color:#33B3AE"/>
		<stop  offset="1" style="stop-color:#13B4C5"/>
	</linearGradient>
	<path class="st38" d="M79.9,72.6c-2.2-0.9-3.1-2.1-3-3.9c0.1-2.1-1.1-3.6-1.6-4.2c0.3-1.3,1.3-5.8,0-9.6
		c-1.4-4.2-5.8-10.5-10.2-16.7c-1.8-2.6-1.9-5.3-2-8.6c-0.1-3.1-0.2-6.6-1.9-10.4c-1.9-4.2-5.6-6.6-10.3-6.6c-2.8,0-5.6,0.9-7.8,2.4
		c-4.5,3.1-3.9,9.8-3.5,14.3c0.1,0.6,0.1,1.2,0.1,1.7c0.3,4.4,0,6.7-0.3,7.4c-0.2,0.5-1.2,1.8-2.2,3.1c-1.1,1.4-2.3,3-3.3,4.5
		c-1.2,1.8-2.2,4.6-3.1,7.3c-0.7,2-1.3,3.8-2,4.9c-1.2,2.1-0.9,4.1-0.6,5c-0.5,0.3-1.1,0.9-1.7,2.1c-0.7,1.4-2,2.2-4.8,2.7
		c-1.3,0.3-2.2,0.8-2.6,1.6c-0.7,1.2-0.3,2.7,0,3.7c0.5,1.5,0.2,2.4-0.4,4.1c-0.1,0.4-0.3,0.8-0.4,1.3c-0.2,0.8-0.2,1.5,0.3,2.1
		c1.1,1.6,4.2,2.2,7.3,2.6c1.9,0.2,4,1,6,1.7c2,0.7,4,1.5,5.9,1.7c0.3,0,0.6,0.1,0.8,0.1c2.8,0,4.1-1.9,4.5-2.6c1-0.2,4.5-0.9,8.1-1
		c3.6-0.1,7,0.6,8,0.8c0.3,0.6,1.1,1.9,2.4,2.6c0.7,0.4,1.7,0.6,2.7,0.6l0,0c1.1,0,3.1-0.3,4.8-2c1.6-1.7,5.7-3.9,8.7-5.5
		c0.7-0.4,1.3-0.7,1.8-1c1.7-0.9,2.6-2.2,2.5-3.6C81.9,74.1,81.1,73.1,79.9,72.6z M43.1,72.3c-0.2-1.5-2.1-2.9-4.3-4.6
		c-1.8-1.4-3.8-2.9-4.4-4.2c-1.1-2.7-0.2-7.5,1.3-10c0.8-1.2,1.4-3.1,2-4.9c0.7-2,1.4-4,2.1-4.8c1.2-1.4,2.3-4.1,2.5-6.2
		c1.1,1.1,2.9,2.5,4.5,2.5c0.3,0,0.5,0,0.7-0.1c1.1-0.3,2.8-1.3,4.4-2.2c1.4-0.8,3.1-1.8,3.7-1.9c1.1,1.6,7.4,15.6,8.1,20.1
		c0.5,3.6,0,6.5-0.3,7.7c-0.2,0-0.5-0.1-0.8-0.1c-1.8,0-2.2,1-2.4,1.5c-0.3,1.5-0.3,6.3-0.4,7.4c-0.6,0.8-3.9,4.6-8.5,5.3
		c-1.9,0.3-3.7,0.4-5.2,0.4c-1.4,0-2.2-0.1-2.6-0.2l-2.3-2.7C42.4,75,43.3,74,43.1,72.3z M46,28.3c-0.1,0-0.1,0.1-0.2,0.1
		c0-0.2,0-0.3,0-0.5c-0.3-1.5-1.2-2.5-2.3-2.5c-0.1,0-0.2,0-0.2,0c-0.6,0.1-1.1,0.6-1.4,1.3c0.2-1.5,1.1-2.6,2.1-2.6
		c1.2,0,2.2,1.6,2.2,3.5C46.1,27.8,46.1,28.1,46,28.3z M55.3,29.5c0.1-0.3,0.2-0.7,0.2-1.1c0-1.7-1.1-3.1-2.5-3.1
		c-1.4,0-2.5,1.4-2.5,3.1c0,0.1,0,0.2,0,0.3c-0.1,0-0.1-0.1-0.2-0.1c-0.2-0.5-0.2-1-0.2-1.5c0-2.1,1.3-3.7,2.9-3.7
		c1.6,0,2.9,1.7,2.9,3.7C55.9,28,55.7,28.8,55.3,29.5z M54.1,33.5c0,0.1-0.1,0.2-0.6,0.4c-0.3,0.1-0.6,0.3-1.1,0.6l-0.3,0.2
		c-1.2,0.7-3.9,2.3-4.6,2.4C47,37.2,46.7,37,46,36.5c-0.2-0.1-0.3-0.2-0.5-0.3c-1.3-0.8-2.1-1.7-2.1-2.1c0.4-0.3,1.4-1.1,1.9-1.6
		c1.1-1,2.1-1.6,2.6-1.6c0,0,0.1,0,0.1,0c0.6,0.1,2.1,0.7,3.2,1.2c0.5,0.2,1,0.4,1.3,0.5C53.5,32.9,54,33.3,54.1,33.5z M62.9,79.2
		c0.6-2.5,1.2-5.9,1.1-7.9c0-0.5-0.1-0.9-0.1-1.4c-0.1-0.9-0.2-2.2-0.1-2.6c0,0,0,0,0.1,0c0,1.1,0.3,3.4,2.1,4.2
		c0.5,0.2,1.2,0.4,1.8,0.4c1.8,0,3.9-0.9,4.7-1.7c0.5-0.5,0.9-1.1,1.2-1.6c0.1,0.2,0.1,0.4,0.1,0.7c-0.1,1.7,0.7,3.9,2.3,4.8
		l0.2,0.1c0.6,0.3,2,1.1,2.1,1.4c0,0,0,0-0.1,0.1c-0.4,0.3-1.7,1-2.9,1.6c-2.2,1.1-4.8,2.4-5.9,3.6c-1.6,1.7-3.4,2.8-4.5,2.8
		c-0.1,0-0.3,0-0.4-0.1C63.3,83.3,62.4,81.6,62.9,79.2z M22.4,72.8c-0.1-0.6-0.2-1-0.1-1.4c0.1-0.3,1.7-0.7,2.3-0.8
		c1-0.2,1.9-0.4,2.6-0.8c0.9-0.5,1.3-1.5,1.8-2.4c0.3-0.6,0.6-1.3,1-1.5c0,0,0.1,0,0.1,0c0.7,0,2.1,1.5,3,2.8c0.2,0.3,0.6,1,1.1,1.8
		c1.4,2.3,3.2,5.4,4.2,6.4c0.9,0.9,2.3,2.7,1.9,4.3c-0.3,1.2-1.6,2.2-1.9,2.4c-0.1,0-0.3,0-0.4,0c-1.9,0-5.6-1.6-7.5-2.4l-0.3-0.1
		c-1.1-0.5-2.9-0.8-4.7-1c-1.4-0.2-3.3-0.5-3.6-0.8c-0.3-0.3,0-1.2,0.3-2c0.2-0.6,0.4-1.2,0.5-1.8C22.7,74.3,22.5,73.5,22.4,72.8z"
		/>
</g>
<g id="Layer_21" class="st0">
	<g class="st4">
		<linearGradient id="SVGID_38_" gradientUnits="userSpaceOnUse" x1="12.6159" y1="49.9547" x2="56.9257" y2="49.9547">
			<stop  offset="0" style="stop-color:#63AF45"/>
			<stop  offset="0.1065" style="stop-color:#62AF4B"/>
			<stop  offset="0.2972" style="stop-color:#5BB060"/>
			<stop  offset="0.5501" style="stop-color:#4DB183"/>
			<stop  offset="0.8523" style="stop-color:#33B3AE"/>
			<stop  offset="1" style="stop-color:#13B4C5"/>
		</linearGradient>
		<path class="st39" d="M50,73.7c-4.6,0.1-9.1-0.8-13.3-2.6c-4.2-1.9-7.9-4.6-10.9-8.1c-1.4-2.3,1.1-3.7,2.3-2.3
			c2.6,3.3,6,5.8,9.8,7.6c3.8,1.7,8,2.5,12.2,2.3c1.5,0,3,0,4.5-0.3c-0.7-6.1-0.8-12.2-0.3-18.3H43.5v-2.3c0.3-12,2.9-23.8,7.6-34.8
			H14.9c-0.3,0-0.6,0-0.9,0.2c-0.3,0.1-0.5,0.3-0.7,0.5c-0.2,0.2-0.4,0.5-0.5,0.7c-0.1,0.3-0.2,0.6-0.2,0.9v65.5
			c0,0.6,0.3,1.1,0.7,1.5c0.4,0.4,1,0.7,1.6,0.7h42c-1-3.8-1.8-7.6-2.3-11.5C53.1,73.7,51.5,73.7,50,73.7z M30.9,33
			c0.4-0.4,1-0.7,1.6-0.7c0.6,0,1.2,0.2,1.6,0.7c0.4,0.4,0.7,1,0.7,1.6v4.5c-0.1,0.6-0.3,1.1-0.7,1.4c-0.4,0.4-1,0.6-1.5,0.6
			c-0.6,0-1.1-0.2-1.5-0.6c-0.4-0.4-0.7-0.9-0.7-1.4l0-4.5C30.2,34,30.5,33.5,30.9,33z"/>
		<linearGradient id="SVGID_39_" gradientUnits="userSpaceOnUse" x1="45.836" y1="50.0002" x2="87.3841" y2="50.0002">
			<stop  offset="0" style="stop-color:#63AF45"/>
			<stop  offset="0.1065" style="stop-color:#62AF4B"/>
			<stop  offset="0.2972" style="stop-color:#5BB060"/>
			<stop  offset="0.5501" style="stop-color:#4DB183"/>
			<stop  offset="0.8523" style="stop-color:#33B3AE"/>
			<stop  offset="1" style="stop-color:#13B4C5"/>
		</linearGradient>
		<path class="st40" d="M85.1,15H53.4c-4.7,11.1-7.3,22.9-7.6,34.9h11c-0.5,6.7-0.5,13.5,0,20.3c3-0.4,6-1.5,8.6-3.1
			c2.6-1.6,4.9-3.7,6.6-6.2c1.1-1.4,3.7,0,2.3,2.3c-4.4,5.3-10.5,8.9-17.2,10.1c0.5,4,1.2,7.9,2.3,11.8h25.8c0.6,0,1.1-0.3,1.6-0.7
			c0.4-0.4,0.7-1,0.7-1.5V17.2C87.2,15.8,86.3,15,85.1,15z M69.7,39.2c0,0.6-0.2,1.2-0.7,1.6c-0.4,0.4-1,0.7-1.6,0.7
			c-0.6,0-1.2-0.2-1.6-0.7c-0.4-0.4-0.7-1-0.7-1.6v-4.5c0-0.6,0.2-1.2,0.7-1.6c0.4-0.4,1-0.7,1.6-0.7c0.6,0,1.2,0.2,1.6,0.7
			c0.4,0.4,0.7,1,0.7,1.6V39.2z"/>
	</g>
</g>
<g id="Layer_22" class="st0">
	<linearGradient id="SVGID_40_" gradientUnits="userSpaceOnUse" x1="12.6156" y1="50" x2="87.3844" y2="50">
		<stop  offset="0" style="stop-color:#63AF45"/>
		<stop  offset="0.1065" style="stop-color:#62AF4B"/>
		<stop  offset="0.2972" style="stop-color:#5BB060"/>
		<stop  offset="0.5501" style="stop-color:#4DB183"/>
		<stop  offset="0.8523" style="stop-color:#33B3AE"/>
		<stop  offset="1" style="stop-color:#13B4C5"/>
	</linearGradient>
	<path class="st41" d="M12.6,23.1L43.2,19l0,29.5l-30.5,0.2L12.6,23.1z M43.2,51.8l0,29.5l-30.5-4.2l0-25.5L43.2,51.8z M46.9,18.4
		l40.5-5.9v35.6l-40.5,0.3V18.4z M87.4,52.1l0,35.4l-40.5-5.7L46.8,52L87.4,52.1z"/>
</g>
<g id="Layer_23" class="st0">
	<g id="Layer_24" class="st4">
		<g>
			<linearGradient id="SVGID_41_" gradientUnits="userSpaceOnUse" x1="25.941" y1="74.8478" x2="73.8446" y2="74.8478">
				<stop  offset="0" style="stop-color:#63AF45"/>
				<stop  offset="0.1065" style="stop-color:#62AF4B"/>
				<stop  offset="0.2972" style="stop-color:#5BB060"/>
				<stop  offset="0.5501" style="stop-color:#4DB183"/>
				<stop  offset="0.8523" style="stop-color:#33B3AE"/>
				<stop  offset="1" style="stop-color:#13B4C5"/>
			</linearGradient>
			<path class="st42" d="M25.9,63.4l3.3,22.8h41.3l3.3-22.8H25.9z M47.4,72.9l-4.6,1.7l4.6,1.8v1.8l-6.6-2.9v-1.6l6.6-2.8V72.9z
				 M49.4,79.6H48l2.4-9.9h1.4L49.4,79.6z M58.9,75.5l-6.6,2.9v-1.8l4.6-1.8l-4.6-1.8v-1.8l6.6,2.8V75.5z"/>
			<linearGradient id="SVGID_42_" gradientUnits="userSpaceOnUse" x1="37.7699" y1="25.4841" x2="62.0157" y2="25.4841">
				<stop  offset="0" style="stop-color:#63AF45"/>
				<stop  offset="0.1065" style="stop-color:#62AF4B"/>
				<stop  offset="0.2972" style="stop-color:#5BB060"/>
				<stop  offset="0.5501" style="stop-color:#4DB183"/>
				<stop  offset="0.8523" style="stop-color:#33B3AE"/>
				<stop  offset="1" style="stop-color:#13B4C5"/>
			</linearGradient>
			<path class="st43" d="M49.9,37.6c6.7,0,12.1-5.4,12.1-12.1c0-6.7-5.4-12.1-12.1-12.1c-6.7,0-12.1,5.4-12.1,12.1
				C37.8,32.2,43.2,37.6,49.9,37.6z"/>
			<linearGradient id="SVGID_43_" gradientUnits="userSpaceOnUse" x1="12.3929" y1="61.0335" x2="87.3929" y2="61.0335">
				<stop  offset="0" style="stop-color:#63AF45"/>
				<stop  offset="0.1065" style="stop-color:#62AF4B"/>
				<stop  offset="0.2972" style="stop-color:#5BB060"/>
				<stop  offset="0.5501" style="stop-color:#4DB183"/>
				<stop  offset="0.8523" style="stop-color:#33B3AE"/>
				<stop  offset="1" style="stop-color:#13B4C5"/>
			</linearGradient>
			<path class="st44" d="M86.9,73.5l-11-25.4c-2.1-4.9-7-8.1-12.4-8.1h-4.3L52.5,50l-1.4-6.6l2.3-3.5h-7l2.3,3.5l-1.4,6.6l-6.8-10.1
				h-4.3c-5.4,0-10.2,3.2-12.4,8.1l-11,25.4c-1.7,4.1,1.2,8.6,5.6,8.6h7.7l-3.1-21h53.3l-3.1,21h7.7C85.7,82.1,88.6,77.6,86.9,73.5z
				"/>
		</g>
	</g>
</g>
<g id="Layer_25" class="st0">
	<g class="st4">
		<linearGradient id="SVGID_44_" gradientUnits="userSpaceOnUse" x1="18.8511" y1="64.3986" x2="81.1489" y2="64.3986">
			<stop  offset="0" style="stop-color:#63AF45"/>
			<stop  offset="0.1065" style="stop-color:#62AF4B"/>
			<stop  offset="0.2972" style="stop-color:#5BB060"/>
			<stop  offset="0.5501" style="stop-color:#4DB183"/>
			<stop  offset="0.8523" style="stop-color:#33B3AE"/>
			<stop  offset="1" style="stop-color:#13B4C5"/>
		</linearGradient>
		<path class="st45" d="M76.5,41.3c-1.3,0-2.4,0.5-3.3,1.4c-0.8,0.8-1.4,2-1.4,3.3v12.2c-0.4-0.1-1-0.2-1.5-0.2
			c-1.1,0-2.1,0.4-2.9,1.1l-17,13.6c-0.3,0.3-0.4,0.5-0.5,0.8c-0.1-0.3-0.2-0.6-0.5-0.7l-17-13.6c-0.8-0.7-1.8-1.1-2.9-1.1
			c-0.5,0-1,0-1.5,0.2V45.9c0-1.3-0.5-2.4-1.4-3.3c-0.8-0.8-2-1.4-3.3-1.4c-2.5,0-4.7,2.1-4.7,4.7v21.9c0,0.3,0.1,0.7,0.4,1l15,14
			l0.7,3.7c0.1,0.6,0.6,1.1,1.3,1.1h12.5c0.6,0,1.2-0.4,1.2-1c0.2,0.6,0.7,1,1.3,1h12.5c0.6,0,1.2-0.4,1.3-1.1l0.7-3.7l14.9-13.9
			c0.3-0.2,0.4-0.6,0.4-1v-22C81.1,43.4,79,41.3,76.5,41.3z M47.4,84.9h-10l-0.2-1.5h10.3V84.9z M47.4,80.6H36.1L21.5,67.2V45.8
			c0-1.1,0.8-2,2-2c0.6,0,1.1,0.2,1.5,0.6c0.4,0.4,0.6,1,0.6,1.5v14.8c-0.6,1.7-0.1,3.6,1.2,4.8l8.8,8.2c0.5,0.4,1.4,0.4,1.9-0.1
			c0.4-0.5,0.4-1.4-0.1-1.9l-8.8-8c-0.4-0.4-0.6-1.1-0.5-1.7c0.1-0.2,0.2-0.3,0.2-0.5c0.1-0.2,0.2-0.4,0.4-0.5
			c0.3-0.3,0.6-0.4,1.1-0.4s0.8,0.1,1.2,0.4l16.5,13.3V80.6z M62.8,84.9h-10v-1.5h10.4L62.8,84.9z M78.7,67.3L64.3,80.6H52.7v-6.3
			L69.3,61c0.3-0.3,0.7-0.4,1.2-0.4c0.3,0,0.7,0.2,1.1,0.4c0.2,0.2,0.3,0.3,0.4,0.5c0,0.2,0.1,0.4,0.2,0.5c0.1,0.6-0.1,1.3-0.5,1.7
			l-8.8,8c-0.5,0.5-0.6,1.4-0.1,1.9c0.5,0.5,1.4,0.6,1.9,0.1l8.8-8c1.3-1.3,1.8-3.1,1.2-4.8V46.1c0-0.6,0.2-1.1,0.6-1.5
			c0.4-0.4,1-0.6,1.5-0.6c1.1,0,2,0.8,2,2V67.3z"/>
		<linearGradient id="SVGID_45_" gradientUnits="userSpaceOnUse" x1="29.6119" y1="32.6038" x2="71.7381" y2="32.6038">
			<stop  offset="0" style="stop-color:#63AF45"/>
			<stop  offset="0.1065" style="stop-color:#62AF4B"/>
			<stop  offset="0.2972" style="stop-color:#5BB060"/>
			<stop  offset="0.5501" style="stop-color:#4DB183"/>
			<stop  offset="0.8523" style="stop-color:#33B3AE"/>
			<stop  offset="1" style="stop-color:#13B4C5"/>
		</linearGradient>
		<path class="st46" d="M71.2,22.5L51,12.6c-0.3-0.1-0.6-0.1-0.8,0c-3.8,1.7-6.9,3.3-10,4.9c-3.3,1.6-6.4,3.2-10.1,4.9
			c-0.4,0.1-0.6,0.6-0.5,1c0.1,0.4,0.4,0.7,0.9,0.7h2.9V25c0,1.1,0.7,2.1,1.8,2.5v17.1h-1.7c-0.5,0-0.9,0.4-0.9,0.9v2.6h-0.9
			c-0.5,0-0.9,0.4-0.9,0.9v2.7c0,0.5,0.4,0.9,0.9,0.9c0.5,0,0.9-0.4,0.9-0.9V50H69v1.8c0,0.5,0.4,0.9,0.9,0.9c0.5,0,0.9-0.4,0.9-0.9
			v-2.7c0-0.5-0.4-0.9-0.9-0.9h-0.9v-2.6c0-0.5-0.4-0.9-0.9-0.9h-1.7v-17c0.4-0.1,0.7-0.4,1-0.6c0.5-0.6,0.8-1.2,0.8-1.9v-0.9h2.6
			c0.4,0,0.7-0.4,0.9-0.7C71.8,23,71.6,22.7,71.2,22.5z M47.6,44.6h-6.1v-17c0.4-0.1,0.7-0.4,1-0.6c0.5-0.6,0.8-1.2,0.8-1.9v-0.9
			h2.6V25c0,1.1,0.7,2.1,1.8,2.5V44.6z M50.7,21.5c-1.5,0-2.7-1.2-2.7-2.7c0-1.5,1.2-2.7,2.7-2.7s2.7,1.2,2.7,2.7
			C53.4,20.2,52.2,21.5,50.7,21.5z M60.1,44.6H54v-17c0.4-0.1,0.7-0.4,1-0.6c0.5-0.6,0.8-1.2,0.8-1.9v-0.9h2.6V25
			c0,1.1,0.7,2.1,1.8,2.5V44.6z"/>
	</g>
</g>
<g id="Layer_18_copy" class="st0">
	<g class="st4">
		<linearGradient id="SVGID_46_" gradientUnits="userSpaceOnUse" x1="46.5701" y1="56.8871" x2="53.4298" y2="56.8871">
			<stop  offset="0" style="stop-color:#63AF45"/>
			<stop  offset="0.1065" style="stop-color:#62AF4B"/>
			<stop  offset="0.2972" style="stop-color:#5BB060"/>
			<stop  offset="0.5501" style="stop-color:#4DB183"/>
			<stop  offset="0.8523" style="stop-color:#33B3AE"/>
			<stop  offset="1" style="stop-color:#13B4C5"/>
		</linearGradient>
		<path class="st47" d="M50.7,51.5C50.7,51.5,50.7,51.5,50.7,51.5c-0.2,0-0.3,0-0.4-0.1c0,0-0.1,0-0.1,0c-0.1,0-0.1,0-0.2,0
			c-0.1,0-0.1,0-0.2,0c0,0-0.1,0-0.1,0c-0.1,0-0.2,0-0.3,0c0,0,0,0-0.1,0c-1.4,0.3-2.4,1.3-2.6,2.6c-0.1,0.3-0.1,0.7,0,1
			c0,0,0,0,0,0c0,0.2,0,0.3,0.1,0.4c0,0,0,0.1,0,0.1c0,0.1,0.1,0.2,0.1,0.4c0,0,0,0,0,0c0.3,0.6,0.7,1,1.2,1.4l-1.2,4.1
			c-0.1,0.4,0.2,0.9,0.7,0.9h4.9c0.5,0,0.8-0.5,0.7-0.9L52,57.4c0.5-0.3,0.9-0.8,1.2-1.4c0,0,0,0,0,0c0-0.1,0.1-0.2,0.1-0.4
			c0,0,0-0.1,0-0.1c0-0.1,0.1-0.3,0.1-0.4c0,0,0,0,0,0c0-0.3,0-0.6,0-1C53.1,52.8,52.1,51.7,50.7,51.5z"/>
		<linearGradient id="SVGID_47_" gradientUnits="userSpaceOnUse" x1="43.1297" y1="42.7947" x2="56.8703" y2="42.7947">
			<stop  offset="0" style="stop-color:#63AF45"/>
			<stop  offset="0.1065" style="stop-color:#62AF4B"/>
			<stop  offset="0.2972" style="stop-color:#5BB060"/>
			<stop  offset="0.5501" style="stop-color:#4DB183"/>
			<stop  offset="0.8523" style="stop-color:#33B3AE"/>
			<stop  offset="1" style="stop-color:#13B4C5"/>
		</linearGradient>
		<path class="st48" d="M53.2,38.4c-0.7-0.4-1.5-0.6-2.4-0.7c0,0,0,0,0,0c-0.2,0-0.3,0-0.5,0c-0.1,0-0.2,0-0.3,0c-0.1,0-0.2,0-0.3,0
			c-0.2,0-0.3,0-0.5,0c0,0,0,0,0,0c-0.9,0.1-1.7,0.4-2.4,0.7c-2.2,1.2-3.7,3.6-3.7,6.3V48h13.7v-3.2C56.9,42.1,55.4,39.6,53.2,38.4z
			"/>
		<linearGradient id="SVGID_48_" gradientUnits="userSpaceOnUse" x1="15.8773" y1="50" x2="84.1226" y2="50">
			<stop  offset="0" style="stop-color:#63AF45"/>
			<stop  offset="0.1065" style="stop-color:#62AF4B"/>
			<stop  offset="0.2972" style="stop-color:#5BB060"/>
			<stop  offset="0.5501" style="stop-color:#4DB183"/>
			<stop  offset="0.8523" style="stop-color:#33B3AE"/>
			<stop  offset="1" style="stop-color:#13B4C5"/>
		</linearGradient>
		<path class="st49" d="M84,23.5c-9.9,0.9-21.4-2.9-34.1-11c-11,8.6-22.4,11.1-34,10.4C15,59.8,28,79.5,50,87.5
			C72.8,78.9,85.7,58.3,84,23.5z M63.7,63.8c0,1.5-1.2,2.7-2.7,2.7H39c-1.5,0-2.7-1.2-2.7-2.7V50.7c0-1.5,1.2-2.7,2.7-2.7v-3.2
			c0-0.1,0-0.1,0-0.2c0-0.7,0.1-1.3,0.2-2c0-0.1,0-0.2,0-0.3c0.9-4.2,4-7.5,8.1-8.5c0,0,0,0,0,0c0.1,0,0.3-0.1,0.4-0.1
			c0.2-0.1,0.5-0.1,0.7-0.1c0.1,0,0.1,0,0.2,0c0.3,0,0.5-0.1,0.8-0.1c0,0,0,0,0,0c0.2,0,0.4,0,0.5,0c0.2,0,0.4,0,0.5,0c0,0,0,0,0,0
			c0.3,0,0.6,0,0.8,0.1c0.1,0,0.1,0,0.2,0c0.2,0,0.5,0.1,0.7,0.1c0.1,0,0.3,0.1,0.4,0.1c0,0,0,0,0,0c4.1,1,7.2,4.3,8.1,8.5
			c0,0.1,0,0.2,0,0.3c0.1,0.6,0.2,1.3,0.2,2c0,0.1,0,0.1,0,0.2V48c1.5,0,2.7,1.2,2.7,2.7V63.8z"/>
	</g>
</g>
<g id="Layer_27" class="st0">
	<g class="st4">
		<linearGradient id="SVGID_49_" gradientUnits="userSpaceOnUse" x1="48.1085" y1="51.3468" x2="54.733" y2="51.3468">
			<stop  offset="0" style="stop-color:#63AF45"/>
			<stop  offset="0.1065" style="stop-color:#62AF4B"/>
			<stop  offset="0.2972" style="stop-color:#5BB060"/>
			<stop  offset="0.5501" style="stop-color:#4DB183"/>
			<stop  offset="0.8523" style="stop-color:#33B3AE"/>
			<stop  offset="1" style="stop-color:#13B4C5"/>
		</linearGradient>
		<path class="st50" d="M53.6,53c1.3-1.5,1.4-3.7,0.6-4.9c-2,2-4.1,4.1-6.1,6.1C50,55.1,52.3,54.6,53.6,53z"/>
		<linearGradient id="SVGID_50_" gradientUnits="userSpaceOnUse" x1="45.3446" y1="48.5562" x2="51.9395" y2="48.5562">
			<stop  offset="0" style="stop-color:#63AF45"/>
			<stop  offset="0.1065" style="stop-color:#62AF4B"/>
			<stop  offset="0.2972" style="stop-color:#5BB060"/>
			<stop  offset="0.5501" style="stop-color:#4DB183"/>
			<stop  offset="0.8523" style="stop-color:#33B3AE"/>
			<stop  offset="1" style="stop-color:#13B4C5"/>
		</linearGradient>
		<path class="st51" d="M46.7,46.6c-1.4,1.4-1.8,3.7-0.9,5.2c2-2,4.1-4.1,6.1-6.1C50.4,44.8,48.1,45.2,46.7,46.6z"/>
		<linearGradient id="SVGID_51_" gradientUnits="userSpaceOnUse" x1="15.8773" y1="50" x2="84.1226" y2="50">
			<stop  offset="0" style="stop-color:#63AF45"/>
			<stop  offset="0.1065" style="stop-color:#62AF4B"/>
			<stop  offset="0.2972" style="stop-color:#5BB060"/>
			<stop  offset="0.5501" style="stop-color:#4DB183"/>
			<stop  offset="0.8523" style="stop-color:#33B3AE"/>
			<stop  offset="1" style="stop-color:#13B4C5"/>
		</linearGradient>
		<path class="st52" d="M84,23.5c-9.9,0.9-21.4-2.9-34.1-11c-11,8.6-22.4,11.1-34,10.4C15,59.8,28,79.5,50,87.5
			C72.8,78.9,85.7,58.3,84,23.5z M71.9,50.2c-0.3,0.5-0.6,1-0.9,1.4c-2.5,3.1-5.4,5.9-8.8,8.2c-3,2-6.2,3.5-9.9,4
			c-2.7,0.4-5.4,0.1-8-0.8c-1.1-0.4-2.2-0.9-3.3-1.4c-0.3-0.1-0.5-0.1-0.7,0.1c-2.1,2.1-4.2,4.2-6.3,6.3c-0.4,0.4-0.8,0.6-1.4,0.6
			c-0.6-0.1-1.1-0.4-1.3-1c-0.2-0.6-0.1-1.2,0.4-1.7c1.5-1.5,3-3,4.6-4.6c0.5-0.5,1-1,1.6-1.6c-0.2-0.1-0.3-0.3-0.5-0.4
			c-3.3-2.4-6.3-5.2-8.8-8.4c-0.6-0.8-0.7-1.5,0-2.3c3.1-4,6.7-7.4,11.1-9.9c3.1-1.8,6.3-2.9,9.9-3c2.7,0,5.2,0.5,7.7,1.5
			c0.6,0.2,1.1,0.5,1.7,0.8c0.3,0.1,0.4,0.1,0.6-0.1c2.1-2.1,4.2-4.2,6.3-6.3c0.4-0.4,0.9-0.7,1.5-0.6c1.2,0.2,1.7,1.6,0.9,2.5
			c-0.2,0.3-0.5,0.5-0.8,0.8c-1.8,1.8-3.6,3.6-5.5,5.5c0.1,0.1,0.3,0.2,0.4,0.3c3.3,2.3,6.2,5.1,8.7,8.2c0.3,0.3,0.5,0.7,0.7,1.1
			C71.9,49.9,71.9,50,71.9,50.2z"/>
		<linearGradient id="SVGID_52_" gradientUnits="userSpaceOnUse" x1="31.702" y1="48.2964" x2="56.9459" y2="48.2964">
			<stop  offset="0" style="stop-color:#63AF45"/>
			<stop  offset="0.1065" style="stop-color:#62AF4B"/>
			<stop  offset="0.2972" style="stop-color:#5BB060"/>
			<stop  offset="0.5501" style="stop-color:#4DB183"/>
			<stop  offset="0.8523" style="stop-color:#33B3AE"/>
			<stop  offset="1" style="stop-color:#13B4C5"/>
		</linearGradient>
		<path class="st53" d="M44.5,44.5c2-2,6-3.5,9.8-1.1c0.9-0.9,1.8-1.8,2.6-2.7c0,0-0.1-0.1-0.2-0.1c-2-0.9-4.1-1.5-6.3-1.6
			c-2.9-0.1-5.7,0.7-8.3,2.1c-3,1.5-5.6,3.6-7.9,6c-0.9,0.9-1.7,1.8-2.6,2.8c2.5,3,5.3,5.5,8.4,7.6c1.1-1.1,2.2-2.2,3.4-3.3
			C41.2,50.5,42.4,46.6,44.5,44.5z"/>
		<linearGradient id="SVGID_53_" gradientUnits="userSpaceOnUse" x1="43.1039" y1="51.6262" x2="68.3598" y2="51.6262">
			<stop  offset="0" style="stop-color:#63AF45"/>
			<stop  offset="0.1065" style="stop-color:#62AF4B"/>
			<stop  offset="0.2972" style="stop-color:#5BB060"/>
			<stop  offset="0.5501" style="stop-color:#4DB183"/>
			<stop  offset="0.8523" style="stop-color:#33B3AE"/>
			<stop  offset="1" style="stop-color:#13B4C5"/>
		</linearGradient>
		<path class="st54" d="M60,42.4c-1.1,1.1-2.2,2.2-3.3,3.4c2.1,3.5,1.2,7.3-0.8,9.5c-1.1,1.2-2.4,2-4,2.4c-2.2,0.5-4.2,0.1-6-1.1
			c-0.9,0.9-1.8,1.8-2.7,2.7c0.1,0,0.2,0.1,0.3,0.1c2,0.9,4.1,1.5,6.3,1.5c2.9,0.1,5.6-0.7,8.2-2.1c3.8-2,6.9-4.7,9.7-7.8
			c0.3-0.3,0.6-0.7,0.9-1C65.9,47,63.1,44.4,60,42.4z"/>
	</g>
</g>
<g id="Layer_29" class="st0">
	<g id="Layer_28" class="st4">
		<g id="Layer_x0020_1">
			<linearGradient id="SVGID_54_" gradientUnits="userSpaceOnUse" x1="16.2995" y1="49.8406" x2="91.2995" y2="49.8406">
				<stop  offset="0" style="stop-color:#63AF45"/>
				<stop  offset="0.1065" style="stop-color:#62AF4B"/>
				<stop  offset="0.2972" style="stop-color:#5BB060"/>
				<stop  offset="0.5501" style="stop-color:#4DB183"/>
				<stop  offset="0.8523" style="stop-color:#33B3AE"/>
				<stop  offset="1" style="stop-color:#13B4C5"/>
			</linearGradient>
			<path class="st55" d="M71.6,23c-2.8-0.1-5.1-2.4-5.2-5.2c-0.1-2.8,2.2-5,5-5l14.4,0.3c2.8,0.1,5.1,2.4,5.2,5.2l0.3,14.4
				c0.1,2.8-2.2,5-5,5c-2.8-0.1-5.1-2.4-5.2-5.2l0-2.1L81,30.3L58.6,52.6c-2,2-5.3,2-7.3,0l0,0c-2-2-2-5.3,0-7.3L73.7,23L71.6,23z
				 M36,76.7c2.8,0.1,5.1,2.4,5.2,5.2c0.1,2.8-2.2,5-5,5l-14.4-0.3c-2.8-0.1-5.1-2.4-5.2-5.2L16.3,67c-0.1-2.8,2.2-5,5-5
				c2.8,0.1,5.1,2.4,5.2,5.2l0,2.1l0.1,0.1l7.5-7.5c2-2,5.3-2,7.3,0l0,0c2,2,2,5.3,0,7.3l-7.5,7.5L36,76.7L36,76.7z M71.6,76.7
				c-2.8,0.1-5.1,2.4-5.2,5.2c-0.1,2.8,2.2,5,5,5l14.4-0.3c2.8-0.1,5.1-2.4,5.2-5.2L91.3,67c0.1-2.8-2.2-5-5-5
				c-2.8,0.1-5.1,2.4-5.2,5.2l0,2.1L81,69.4l-7.5-7.5c-2-2-5.3-2-7.3,0l0,0c-2,2-2,5.3,0,7.3l7.5,7.5L71.6,76.7L71.6,76.7z M36,23
				c2.8-0.1,5.1-2.4,5.2-5.2c0.1-2.8-2.2-5-5-5l-14.4,0.3c-2.8,0.1-5.1,2.4-5.2,5.2l-0.3,14.4c-0.1,2.8,2.2,5,5,5
				c2.8-0.1,5.1-2.4,5.2-5.2l0-2.1l0.1-0.1l7.5,7.5c2,2,5.3,2,7.3,0l0,0c2-2,2-5.3,0-7.3L33.9,23L36,23L36,23z"/>
		</g>
	</g>
</g>
<g id="Layer_27_copy" class="st0">
	<linearGradient id="SVGID_55_" gradientUnits="userSpaceOnUse" x1="12.5448" y1="49.9582" x2="87.5448" y2="49.9582">
		<stop  offset="0" style="stop-color:#63AF45"/>
		<stop  offset="0.1065" style="stop-color:#62AF4B"/>
		<stop  offset="0.2972" style="stop-color:#5BB060"/>
		<stop  offset="0.5501" style="stop-color:#4DB183"/>
		<stop  offset="0.8523" style="stop-color:#33B3AE"/>
		<stop  offset="1" style="stop-color:#13B4C5"/>
	</linearGradient>
	<path class="st56" d="M87.5,50.4c-0.5,0.8-0.9,1.7-1.6,2.5c-4.3,5.4-9.3,10.1-15.1,14c-5.2,3.5-10.7,6.1-16.9,6.9
		c-4.7,0.6-9.3,0.1-13.7-1.4c-1.9-0.6-3.8-1.5-5.6-2.3c-0.5-0.2-0.8-0.2-1.2,0.2c-3.6,3.6-7.2,7.2-10.8,10.8c-0.7,0.7-1.4,1.1-2.3,1
		c-1.1-0.1-1.9-0.7-2.3-1.7c-0.4-1.1-0.1-2.1,0.7-2.9c2.6-2.6,5.2-5.2,7.8-7.8c0.9-0.9,1.8-1.8,2.7-2.7c-0.3-0.2-0.6-0.4-0.8-0.6
		c-5.7-4.1-10.7-8.9-15-14.4c-1.1-1.4-1.2-2.6,0-4c5.3-6.8,11.5-12.6,19.1-17c5.3-3,10.9-5,17-5.1c4.6-0.1,9,0.9,13.2,2.6
		c1,0.4,1.9,0.9,2.8,1.3c0.5,0.2,0.7,0.2,1.1-0.2c3.6-3.6,7.3-7.3,10.9-10.9c0.7-0.7,1.6-1.1,2.6-0.9c2,0.4,2.8,2.7,1.6,4.3
		c-0.4,0.5-0.9,0.9-1.3,1.4c-3.1,3.1-6.2,6.2-9.4,9.4c0.2,0.2,0.5,0.4,0.7,0.5c5.6,4,10.6,8.7,14.9,14.1c0.5,0.6,0.8,1.3,1.2,1.9
		C87.5,49.8,87.5,50.1,87.5,50.4z M38.8,57.3c-3.9-6.4-1.9-13.1,1.7-16.8c3.4-3.4,10.3-5.9,16.8-1.8c1.5-1.5,3-3.1,4.5-4.6
		c0,0-0.2-0.1-0.3-0.2c-3.4-1.6-7-2.5-10.8-2.7c-5.1-0.2-9.7,1.3-14.2,3.6c-5.1,2.7-9.5,6.2-13.6,10.3c-1.5,1.5-3,3.2-4.4,4.8
		c4.2,5.1,9.1,9.5,14.4,13.1C35,61.1,36.9,59.2,38.8,57.3z M38.1,65.8c0.1,0.1,0.3,0.2,0.5,0.3c3.4,1.6,7,2.5,10.7,2.6
		c5,0.2,9.7-1.3,14.1-3.6C69.8,61.8,75.2,57,80,51.7c0.5-0.6,1-1.1,1.5-1.7c-4.2-5.1-9-9.5-14.4-13c-2,2-3.8,3.9-5.7,5.8
		c3.6,5.9,2.1,12.4-1.3,16.2c-1.9,2.1-4.2,3.4-6.9,4.1c-3.7,0.8-7.2,0.2-10.4-1.8C41.2,62.7,39.7,64.3,38.1,65.8z M53.3,42.7
		c-2.6-1.5-6.5-0.8-8.9,1.6c-2.4,2.4-3.1,6.4-1.6,8.9C46.3,49.7,49.8,46.2,53.3,42.7z M46.7,57.2c3.2,1.6,7.1,0.7,9.5-2.1
		c2.1-2.5,2.4-6.3,1-8.4C53.8,50.2,50.3,53.7,46.7,57.2z"/>
</g>
<g id="Layer_30" class="st0">
	<g class="st4">
		<g>
			<g>
				<linearGradient id="SVGID_56_" gradientUnits="userSpaceOnUse" x1="12.5" y1="50" x2="87.5" y2="50">
					<stop  offset="0" style="stop-color:#63AF45"/>
					<stop  offset="0.1065" style="stop-color:#62AF4B"/>
					<stop  offset="0.2972" style="stop-color:#5BB060"/>
					<stop  offset="0.5501" style="stop-color:#4DB183"/>
					<stop  offset="0.8523" style="stop-color:#33B3AE"/>
					<stop  offset="1" style="stop-color:#13B4C5"/>
				</linearGradient>
				<path class="st57" d="M85.9,28.8H14.1c-0.9,0-1.6,0.7-1.6,1.6v29.3c0,0.9,0.7,1.6,1.6,1.6h1.6v8.2c0,0.9,0.7,1.6,1.6,1.6h65.2
					c0.9,0,1.6-0.7,1.6-1.6v-8.2h1.6c0.9,0,1.6-0.7,1.6-1.6V30.4C87.5,29.5,86.8,28.8,85.9,28.8z M81,67.9h-4.9h-6.5H63h-6.5H50
					h-6.5H37h-6.5h-6.5H19v-6.5h4.9h6.5H37h6.5H50h6.5H63h6.5h6.5H81L81,67.9L81,67.9z M84.2,58.2h-1.6H17.4h-1.6V32.1h68.5V58.2z"
					/>
				<linearGradient id="SVGID_57_" gradientUnits="userSpaceOnUse" x1="19.0217" y1="45.1087" x2="32.0652" y2="45.1087">
					<stop  offset="0" style="stop-color:#63AF45"/>
					<stop  offset="0.1065" style="stop-color:#62AF4B"/>
					<stop  offset="0.2972" style="stop-color:#5BB060"/>
					<stop  offset="0.5501" style="stop-color:#4DB183"/>
					<stop  offset="0.8523" style="stop-color:#33B3AE"/>
					<stop  offset="1" style="stop-color:#13B4C5"/>
				</linearGradient>
				<path class="st58" d="M20.7,54.9h9.8c0.9,0,1.6-0.7,1.6-1.6V37c0-0.9-0.7-1.6-1.6-1.6h-9.8c-0.9,0-1.6,0.7-1.6,1.6v16.3
					C19,54.2,19.8,54.9,20.7,54.9z M22.3,38.6h6.5v13h-6.5V38.6z"/>
				<linearGradient id="SVGID_58_" gradientUnits="userSpaceOnUse" x1="35.3261" y1="45.1087" x2="48.3696" y2="45.1087">
					<stop  offset="0" style="stop-color:#63AF45"/>
					<stop  offset="0.1065" style="stop-color:#62AF4B"/>
					<stop  offset="0.2972" style="stop-color:#5BB060"/>
					<stop  offset="0.5501" style="stop-color:#4DB183"/>
					<stop  offset="0.8523" style="stop-color:#33B3AE"/>
					<stop  offset="1" style="stop-color:#13B4C5"/>
				</linearGradient>
				<path class="st59" d="M37,54.9h9.8c0.9,0,1.6-0.7,1.6-1.6V37c0-0.9-0.7-1.6-1.6-1.6H37c-0.9,0-1.6,0.7-1.6,1.6v16.3
					C35.3,54.2,36.1,54.9,37,54.9z M38.6,38.6h6.5v13h-6.5L38.6,38.6L38.6,38.6z"/>
				<linearGradient id="SVGID_59_" gradientUnits="userSpaceOnUse" x1="51.6304" y1="45.1087" x2="64.6739" y2="45.1087">
					<stop  offset="0" style="stop-color:#63AF45"/>
					<stop  offset="0.1065" style="stop-color:#62AF4B"/>
					<stop  offset="0.2972" style="stop-color:#5BB060"/>
					<stop  offset="0.5501" style="stop-color:#4DB183"/>
					<stop  offset="0.8523" style="stop-color:#33B3AE"/>
					<stop  offset="1" style="stop-color:#13B4C5"/>
				</linearGradient>
				<path class="st60" d="M53.3,54.9H63c0.9,0,1.6-0.7,1.6-1.6V37c0-0.9-0.7-1.6-1.6-1.6h-9.8c-0.9,0-1.6,0.7-1.6,1.6v16.3
					C51.6,54.2,52.4,54.9,53.3,54.9z M54.9,38.6h6.5v13h-6.5V38.6z"/>
				<linearGradient id="SVGID_60_" gradientUnits="userSpaceOnUse" x1="67.9348" y1="45.1087" x2="80.9783" y2="45.1087">
					<stop  offset="0" style="stop-color:#63AF45"/>
					<stop  offset="0.1065" style="stop-color:#62AF4B"/>
					<stop  offset="0.2972" style="stop-color:#5BB060"/>
					<stop  offset="0.5501" style="stop-color:#4DB183"/>
					<stop  offset="0.8523" style="stop-color:#33B3AE"/>
					<stop  offset="1" style="stop-color:#13B4C5"/>
				</linearGradient>
				<path class="st61" d="M69.6,54.9h9.8c0.9,0,1.6-0.7,1.6-1.6V37c0-0.9-0.7-1.6-1.6-1.6h-9.8c-0.9,0-1.6,0.7-1.6,1.6v16.3
					C67.9,54.2,68.7,54.9,69.6,54.9z M71.2,38.6h6.5v13h-6.5V38.6L71.2,38.6z"/>
				<linearGradient id="SVGID_61_" gradientUnits="userSpaceOnUse" x1="22.2826" y1="64.6739" x2="25.5435" y2="64.6739">
					<stop  offset="0" style="stop-color:#63AF45"/>
					<stop  offset="0.1065" style="stop-color:#62AF4B"/>
					<stop  offset="0.2972" style="stop-color:#5BB060"/>
					<stop  offset="0.5501" style="stop-color:#4DB183"/>
					<stop  offset="0.8523" style="stop-color:#33B3AE"/>
					<stop  offset="1" style="stop-color:#13B4C5"/>
				</linearGradient>
				<path class="st62" d="M25.5,66.3V63c0-0.9-0.7-1.6-1.6-1.6c-0.9,0-1.6,0.7-1.6,1.6v3.3c0,0.9,0.7,1.6,1.6,1.6
					C24.8,67.9,25.5,67.2,25.5,66.3z"/>
				<linearGradient id="SVGID_62_" gradientUnits="userSpaceOnUse" x1="28.8044" y1="64.6739" x2="32.0652" y2="64.6739">
					<stop  offset="0" style="stop-color:#63AF45"/>
					<stop  offset="0.1065" style="stop-color:#62AF4B"/>
					<stop  offset="0.2972" style="stop-color:#5BB060"/>
					<stop  offset="0.5501" style="stop-color:#4DB183"/>
					<stop  offset="0.8523" style="stop-color:#33B3AE"/>
					<stop  offset="1" style="stop-color:#13B4C5"/>
				</linearGradient>
				<path class="st63" d="M32.1,66.3V63c0-0.9-0.7-1.6-1.6-1.6c-0.9,0-1.6,0.7-1.6,1.6v3.3c0,0.9,0.7,1.6,1.6,1.6
					C31.3,67.9,32.1,67.2,32.1,66.3z"/>
				<linearGradient id="SVGID_63_" gradientUnits="userSpaceOnUse" x1="35.3261" y1="64.6739" x2="38.587" y2="64.6739">
					<stop  offset="0" style="stop-color:#63AF45"/>
					<stop  offset="0.1065" style="stop-color:#62AF4B"/>
					<stop  offset="0.2972" style="stop-color:#5BB060"/>
					<stop  offset="0.5501" style="stop-color:#4DB183"/>
					<stop  offset="0.8523" style="stop-color:#33B3AE"/>
					<stop  offset="1" style="stop-color:#13B4C5"/>
				</linearGradient>
				<path class="st64" d="M38.6,66.3V63c0-0.9-0.7-1.6-1.6-1.6s-1.6,0.7-1.6,1.6v3.3c0,0.9,0.7,1.6,1.6,1.6
					C37.9,67.9,38.6,67.2,38.6,66.3z"/>
				<linearGradient id="SVGID_64_" gradientUnits="userSpaceOnUse" x1="41.8478" y1="64.6739" x2="45.1087" y2="64.6739">
					<stop  offset="0" style="stop-color:#63AF45"/>
					<stop  offset="0.1065" style="stop-color:#62AF4B"/>
					<stop  offset="0.2972" style="stop-color:#5BB060"/>
					<stop  offset="0.5501" style="stop-color:#4DB183"/>
					<stop  offset="0.8523" style="stop-color:#33B3AE"/>
					<stop  offset="1" style="stop-color:#13B4C5"/>
				</linearGradient>
				<path class="st65" d="M45.1,66.3V63c0-0.9-0.7-1.6-1.6-1.6c-0.9,0-1.6,0.7-1.6,1.6v3.3c0,0.9,0.7,1.6,1.6,1.6
					C44.4,67.9,45.1,67.2,45.1,66.3z"/>
				<linearGradient id="SVGID_65_" gradientUnits="userSpaceOnUse" x1="48.3696" y1="64.6739" x2="51.6304" y2="64.6739">
					<stop  offset="0" style="stop-color:#63AF45"/>
					<stop  offset="0.1065" style="stop-color:#62AF4B"/>
					<stop  offset="0.2972" style="stop-color:#5BB060"/>
					<stop  offset="0.5501" style="stop-color:#4DB183"/>
					<stop  offset="0.8523" style="stop-color:#33B3AE"/>
					<stop  offset="1" style="stop-color:#13B4C5"/>
				</linearGradient>
				<path class="st66" d="M51.6,66.3V63c0-0.9-0.7-1.6-1.6-1.6s-1.6,0.7-1.6,1.6v3.3c0,0.9,0.7,1.6,1.6,1.6S51.6,67.2,51.6,66.3z"/>
				<linearGradient id="SVGID_66_" gradientUnits="userSpaceOnUse" x1="54.8913" y1="64.6739" x2="58.1522" y2="64.6739">
					<stop  offset="0" style="stop-color:#63AF45"/>
					<stop  offset="0.1065" style="stop-color:#62AF4B"/>
					<stop  offset="0.2972" style="stop-color:#5BB060"/>
					<stop  offset="0.5501" style="stop-color:#4DB183"/>
					<stop  offset="0.8523" style="stop-color:#33B3AE"/>
					<stop  offset="1" style="stop-color:#13B4C5"/>
				</linearGradient>
				<path class="st67" d="M58.2,66.3V63c0-0.9-0.7-1.6-1.6-1.6s-1.6,0.7-1.6,1.6v3.3c0,0.9,0.7,1.6,1.6,1.6
					C57.4,67.9,58.2,67.2,58.2,66.3z"/>
				<linearGradient id="SVGID_67_" gradientUnits="userSpaceOnUse" x1="61.413" y1="64.6739" x2="64.6739" y2="64.6739">
					<stop  offset="0" style="stop-color:#63AF45"/>
					<stop  offset="0.1065" style="stop-color:#62AF4B"/>
					<stop  offset="0.2972" style="stop-color:#5BB060"/>
					<stop  offset="0.5501" style="stop-color:#4DB183"/>
					<stop  offset="0.8523" style="stop-color:#33B3AE"/>
					<stop  offset="1" style="stop-color:#13B4C5"/>
				</linearGradient>
				<path class="st68" d="M64.7,66.3V63c0-0.9-0.7-1.6-1.6-1.6s-1.6,0.7-1.6,1.6v3.3c0,0.9,0.7,1.6,1.6,1.6
					C63.9,67.9,64.7,67.2,64.7,66.3z"/>
				<linearGradient id="SVGID_68_" gradientUnits="userSpaceOnUse" x1="67.9348" y1="64.6739" x2="71.1957" y2="64.6739">
					<stop  offset="0" style="stop-color:#63AF45"/>
					<stop  offset="0.1065" style="stop-color:#62AF4B"/>
					<stop  offset="0.2972" style="stop-color:#5BB060"/>
					<stop  offset="0.5501" style="stop-color:#4DB183"/>
					<stop  offset="0.8523" style="stop-color:#33B3AE"/>
					<stop  offset="1" style="stop-color:#13B4C5"/>
				</linearGradient>
				<path class="st69" d="M71.2,66.3V63c0-0.9-0.7-1.6-1.6-1.6s-1.6,0.7-1.6,1.6v3.3c0,0.9,0.7,1.6,1.6,1.6
					C70.5,67.9,71.2,67.2,71.2,66.3z"/>
				<linearGradient id="SVGID_69_" gradientUnits="userSpaceOnUse" x1="74.4565" y1="64.6739" x2="77.7174" y2="64.6739">
					<stop  offset="0" style="stop-color:#63AF45"/>
					<stop  offset="0.1065" style="stop-color:#62AF4B"/>
					<stop  offset="0.2972" style="stop-color:#5BB060"/>
					<stop  offset="0.5501" style="stop-color:#4DB183"/>
					<stop  offset="0.8523" style="stop-color:#33B3AE"/>
					<stop  offset="1" style="stop-color:#13B4C5"/>
				</linearGradient>
				<path class="st70" d="M77.7,66.3V63c0-0.9-0.7-1.6-1.6-1.6s-1.6,0.7-1.6,1.6v3.3c0,0.9,0.7,1.6,1.6,1.6
					C77,67.9,77.7,67.2,77.7,66.3z"/>
			</g>
		</g>
	</g>
</g>
<g id="Layer_31">
	<g>
		<linearGradient id="SVGID_70_" gradientUnits="userSpaceOnUse" x1="17.2708" y1="39.6033" x2="82.7292" y2="39.6033">
			<stop  offset="0" style="stop-color:#63AF45"/>
			<stop  offset="0.1065" style="stop-color:#62AF4B"/>
			<stop  offset="0.2972" style="stop-color:#5BB060"/>
			<stop  offset="0.5501" style="stop-color:#4DB183"/>
			<stop  offset="0.8523" style="stop-color:#33B3AE"/>
			<stop  offset="1" style="stop-color:#13B4C5"/>
		</linearGradient>
		<path class="st71" d="M76.8,29c-0.5-1.8-2.2-3-4-3H27.2c-1.9,0-3.5,1.3-4,3.1l-5.9,24h65.5L76.8,29z"/>
		<linearGradient id="SVGID_71_" gradientUnits="userSpaceOnUse" x1="16.6667" y1="64.5633" x2="83.3333" y2="64.5633">
			<stop  offset="0" style="stop-color:#63AF45"/>
			<stop  offset="0.1065" style="stop-color:#62AF4B"/>
			<stop  offset="0.2972" style="stop-color:#5BB060"/>
			<stop  offset="0.5501" style="stop-color:#4DB183"/>
			<stop  offset="0.8523" style="stop-color:#33B3AE"/>
			<stop  offset="1" style="stop-color:#13B4C5"/>
		</linearGradient>
		<path class="st72" d="M16.7,55.2v14.6c0,2.3,1.9,4.2,4.2,4.2h58.3c2.3,0,4.2-1.9,4.2-4.2V55.2H16.7z M75,65.6h-8.3v-4.2H75V65.6z"
			/>
	</g>
</g>
<g id="Layer_32" class="st0">
	<g class="st4">
		<linearGradient id="SVGID_72_" gradientUnits="userSpaceOnUse" x1="15.89" y1="50" x2="84.11" y2="50">
			<stop  offset="0" style="stop-color:#63AF45"/>
			<stop  offset="0.1065" style="stop-color:#62AF4B"/>
			<stop  offset="0.2972" style="stop-color:#5BB060"/>
			<stop  offset="0.5501" style="stop-color:#4DB183"/>
			<stop  offset="0.8523" style="stop-color:#33B3AE"/>
			<stop  offset="1" style="stop-color:#13B4C5"/>
		</linearGradient>
		<path class="st73" d="M81.9,52.3c1.2,0,2.3-1,2.3-2.3s-1-2.3-2.3-2.3h-7.9v-5.3h7.9c1.2,0,2.3-1,2.3-2.3c0-1.2-1-2.3-2.3-2.3h-7.9
			v-8.7c0-2.3-1.9-4.2-4.2-4.2h-7.7v-6.9c0-1.2-1-2.3-2.3-2.3c-1.2,0-2.3,1-2.3,2.3v6.9h-5.3v-6.9c0-1.2-1-2.3-2.3-2.3
			s-2.3,1-2.3,2.3v6.9h-5.3v-6.9c0-1.2-1-2.3-2.3-2.3c-1.2,0-2.3,1-2.3,2.3v6.9h-9.6c-2.3,0-4.2,1.9-4.2,4.2v8.7h-6
			c-1.2,0-2.3,1-2.3,2.3c0,1.2,1,2.3,2.3,2.3h6v5.3h-6c-1.2,0-2.3,1-2.3,2.3s1,2.3,2.3,2.3h6v5.3h-6c-1.2,0-2.3,1-2.3,2.3
			c0,1.2,1,2.3,2.3,2.3h6v8.7c0,2.3,1.9,4.2,4.2,4.2h9.6v6.9c0,1.2,1,2.3,2.3,2.3c1.2,0,2.3-1,2.3-2.3v-6.9h5.3v6.9
			c0,1.2,1,2.3,2.3,2.3s2.3-1,2.3-2.3v-6.9h5.3v6.9c0,1.2,1,2.3,2.3,2.3c1.2,0,2.3-1,2.3-2.3v-6.9h7.7c2.3,0,4.2-1.9,4.2-4.2v-8.7
			h7.9c1.2,0,2.3-1,2.3-2.3c0-1.2-1-2.3-2.3-2.3h-7.9v-5.3H81.9z M67.1,64.7c0,1.9-1.5,3.4-3.4,3.4H34.4c-1.9,0-3.4-1.5-3.4-3.4
			V35.3c0-1.9,1.5-3.4,3.4-3.4h29.4c1.9,0,3.4,1.5,3.4,3.4V64.7z"/>
		<linearGradient id="SVGID_73_" gradientUnits="userSpaceOnUse" x1="36.3425" y1="50" x2="61.7225" y2="50">
			<stop  offset="0" style="stop-color:#63AF45"/>
			<stop  offset="0.1065" style="stop-color:#62AF4B"/>
			<stop  offset="0.2972" style="stop-color:#5BB060"/>
			<stop  offset="0.5501" style="stop-color:#4DB183"/>
			<stop  offset="0.8523" style="stop-color:#33B3AE"/>
			<stop  offset="1" style="stop-color:#13B4C5"/>
		</linearGradient>
		<path class="st74" d="M58.3,37.3H39.8c-1.9,0-3.4,1.5-3.4,3.4v18.6c0,1.9,1.5,3.4,3.4,3.4h18.6c1.9,0,3.4-1.5,3.4-3.4V40.7
			C61.7,38.8,60.2,37.3,58.3,37.3z"/>
	</g>
</g>
</svg>
