<?xml version="1.0" encoding="UTF-8"?>
<svg id="Layer_1" data-name="Layer 1" xmlns="http://www.w3.org/2000/svg" xmlns:xlink="http://www.w3.org/1999/xlink" viewBox="0 0 100 100">
  <defs>
    <style>
      .cls-1 {
        fill: url(#linear-gradient);
      }
    </style>
    <linearGradient id="linear-gradient" x1="7.03" y1="50" x2="92.97" y2="50" gradientUnits="userSpaceOnUse">
      <stop offset="0" stop-color="#63af45"/>
      <stop offset=".11" stop-color="#62af4b"/>
      <stop offset=".3" stop-color="#5bb060"/>
      <stop offset=".55" stop-color="#4db183"/>
      <stop offset=".85" stop-color="#33b3ae"/>
      <stop offset="1" stop-color="#13b4c5"/>
    </linearGradient>
  </defs>
  <path class="cls-1" d="M36.99,81.18h-5.69v-25.51h-4.5v25.51h-6.76v-38.01h55.02v10.39c.61-.1,1.23-.16,1.87-.16.05,0,.1,0,.15,0,.84,0,1.67.11,2.48.3v-10.52h5.19c1.83,0,3.31-1.48,3.31-3.31v-6.13c0-1.67-.93-3.17-2.42-3.92L49.47,9.59c-1.22-.59-2.67-.59-3.88.02L9.01,30.06c-1.21.75-1.98,2.14-1.98,3.67v6.13c0,1.83,1.48,3.32,3.32,3.32h5.19v38.01h-6.25c-1.24,0-2.25,1.01-2.25,2.25s.56,2.1,2.25,2.25h25.74c.48-1.58,1.14-3.09,1.96-4.5ZM11.54,38.66v-4.79L47.55,13.61l36.02,20.26v4.79H11.54ZM51.81,28.15c0,2.35-1.91,4.25-4.25,4.25s-4.25-1.91-4.25-4.25,1.91-4.25,4.25-4.25,4.25,1.91,4.25,4.25ZM40.81,55.67h4.5v2.27c-.05.06-.11.11-.16.18-3.58,4.43-3.75,10.77-.47,15.42-1.41.81-2.71,1.77-3.88,2.86v-20.73ZM47.29,73.57c.2.21.41.4.64.61,4.07,3.66,10.25,3.66,14.32,0,.22-.2.44-.39.63-.61s.4-.44.59-.66c3.74-4.63,3.02-11.4-1.61-15.14-4.63-3.74-11.4-3.02-15.14,1.61-3.19,3.95-3.19,9.59,0,13.54.18.21.38.45.58.66ZM70.32,70.85c.17.18.35.35.54.53,3.47,3.12,8.73,3.12,12.19,0,.19-.17.36-.34.54-.53.18-.18.34-.36.5-.56,3.2-3.88,2.65-9.62-1.22-12.82-1.65-1.36-3.72-2.1-5.86-2.08-5.03-.03-9.14,4.02-9.17,9.05-.01,2.14.72,4.21,2.08,5.86.07.19.23.38.4.56ZM37.79,90.85h34.58c.45,0,.88-.19,1.18-.53.25-.27.36-.64.31-1.01-.79-6.14-4.53-11.51-10.02-14.39-4.84,4.84-12.69,4.85-17.53,0,0,0,0,0,0,0-5.49,2.87-9.23,8.25-10.03,14.39-.05.37.07.74.31,1.01.3.34.74.53,1.19.53ZM37.79,90.85h34.58c.45,0,.88-.19,1.18-.53.25-.27.36-.64.31-1.01-.79-6.14-4.53-11.51-10.02-14.39-4.84,4.84-12.69,4.85-17.53,0,0,0,0,0,0,0-5.49,2.87-9.23,8.25-10.03,14.39-.05.37.07.74.31,1.01.3.34.74.53,1.19.53ZM92.96,84.25c-.68-5.23-3.85-9.8-8.52-12.26-4.1,4.12-10.77,4.14-14.9.04-.01-.01-.03-.03-.04-.04-1.14.6-2.2,1.34-3.17,2.19,4.14,2.58,7.13,6.65,8.36,11.38h16.98c.39,0,.75-.16,1.01-.45.21-.23.31-.55.27-.86Z"/>
</svg>