<?xml version="1.0" encoding="UTF-8"?>
<svg id="Layer_2" data-name="Layer 2" xmlns="http://www.w3.org/2000/svg" viewBox="0 0 360.8 62.2">
  <defs>
    <style>
      .cls-1 {
        fill: #5e92c5;
      }
    </style>
  </defs>
  <path d="M180.47,30.75h16.17v1.52c-3.81.56-5.15,1.16-5.15,6.42v16.84c-5.51,3.49-11.9,5.33-18.39,5.26-18.22,0-29.9-12.07-29.9-29.16S156.54,1.55,175.1,1.55c7.73,0,13.73,1.59,18.92,4.17v9.28h-1.59c-2.75-7.48-8.51-11.01-17.58-11.01-16.17,0-27.5,11.4-27.5,27.22s11.16,26.97,26.58,26.97c5.01,0,9.67-.99,13.84-3.11v-16.38c0-5.33-1.16-5.93-7.24-6.5l-.07-1.45ZM201.37,55.07v-9.81h1.59c3.32,9.74,9.5,12.99,16.42,12.99s13.91-4.24,13.91-12.07c0-5.08-3-8.01-9.81-11.16l-8.51-3.92c-7.17-3.32-11.58-7.91-11.58-14.83,0-7.91,6.57-14.76,17.51-14.76,5.75,0,11.76,1.84,15.39,4.09v9.25h-1.59c-2.65-8.33-8.33-10.8-14.23-10.8-8.01,0-13.41,4.84-13.41,11.83,0,5.93,3.74,9.07,9.5,11.65l8.58,3.92c7.66,3.49,11.83,7.48,11.83,14.09,0,8.83-7.84,15.25-17.93,15.25-6.32-.04-12.5-2.01-17.65-5.72h0ZM290.33,59.84v.25h-5.08l-28.38-29.58h-4.48v20.47c0,6.81,1.24,7.24,5.26,7.59v1.52h-14.26v-1.52c4.17-.32,5.26-.74,5.26-7.59V11.75c0-6.25-.92-7.59-5.26-8.08v-1.48h17.97c12.43,0,20.33,5.33,20.33,13.91s-7.59,14.16-19.56,14.58l28.21,29.16ZM252.34,27.99h8.26c10.91,0,16.98-4.34,16.98-11.83s-6-11.47-16.91-11.47h-8.33v23.3h0Z"/>
  <path class="cls-1" d="M102.63,21.15V0h-2.37v21.15c.78-.11,1.55-.11,2.37,0ZM85.62,4.31l-2.01,1.27,11.44,17.79c.6-.49,1.27-.95,2.01-1.27l-11.44-17.79ZM73.65,17.09l-.99,2.15,19.24,8.79c.25-.74.56-1.48.99-2.15l-19.24-8.79h0ZM70.47,34.35l.35,2.37,20.93-3c-.21-.78-.32-1.55-.35-2.37l-20.93,3ZM93.14,36.71l-15.99,13.84,1.55,1.8,15.99-13.84c-.56-.53-1.09-1.16-1.55-1.8h0ZM91.55,60.61l2.29.67,5.97-20.3c-.78-.14-1.55-.35-2.29-.67l-5.97,20.3h0ZM109.06,61.28l2.29-.67-5.93-20.3c-.74.32-1.48.53-2.29.67l5.93,20.3h0ZM108.17,38.51l15.99,13.84,1.55-1.8-15.99-13.84c-.46.67-.95,1.27-1.55,1.8ZM111.1,33.68l20.93,3,.35-2.37-20.93-3c-.04.81-.14,1.62-.35,2.37ZM130.24,19.27l-.99-2.15-19.24,8.79c.42.67.74,1.41.99,2.15l19.24-8.79ZM119.26,5.58l-2.01-1.27-11.44,17.79c.71.35,1.38.78,2.01,1.27l11.44-17.79h0ZM91.55,1.59l2.29-.67,3.92,13.34-2.29.67-3.92-13.34ZM105.14,14.26l3.92-13.34,2.29.67-3.92,13.34-2.29-.67ZM77.14,11.61l1.55-1.8,10.52,9.11-1.55,1.8-10.52-9.11ZM70.47,27.85l.35-2.37,13.77,1.98-.35,2.37-13.77-1.98ZM72.84,42.93l12.67-5.86.99,2.15-12.67,5.86-.99-2.15ZM83.64,56.62l7.52-11.72,2.01,1.27-7.52,11.72-2.01-1.27ZM100.27,48.29h2.37v13.91h-2.37v-13.91ZM109.73,46.17l2.01-1.31,7.52,11.72-2.01,1.31-7.52-11.72ZM116.58,39.33l.99-2.15,12.67,5.79-.99,2.15-12.67-5.79ZM118.27,27.46l13.77-1.98.35,2.37-13.77,1.98-.35-2.37ZM113.65,18.96l10.52-9.11,1.55,1.8-10.52,9.11-1.55-1.8Z"/>
</svg>