<?xml version="1.0" encoding="UTF-8"?>
<svg id="Layer_2" xmlns="http://www.w3.org/2000/svg" version="1.1" xmlns:xlink="http://www.w3.org/1999/xlink" viewBox="0 0 360.8 62.2">
  <!-- Generator: Adobe Illustrator 30.3.0, SVG Export Plug-In . SVG Version: 2.1.3 Build 182)  -->
  <defs>
    <style>
      .st0 {
        fill: #34488f;
      }

      .st1 {
        fill: none;
      }

      .st2 {
        fill: #6e84d1;
      }

      .st3, .st4 {
        fill: #1b2c69;
      }

      .st4 {
        fill-rule: evenodd;
      }

      .st5 {
        fill: #9eb0f1;
      }

      .st6 {
        fill: #4960b2;
      }

      .st7 {
        clip-path: url(#clippath);
      }

      .st8 {
        fill: #1b2126;
      }
    </style>
    <clipPath id="clippath">
      <rect class="st1" x="80.07" y=".06" width="200.66" height="62.08"/>
    </clipPath>
  </defs>
  <g class="st7">
    <g>
      <path class="st8" d="M88.5,1.91L80.34.07c-.14-.03-.27.07-.27.21v32.2c0,.14.13.24.26.21l8.16-1.68c.1-.02.17-.11.17-.21V2.13c0-.1-.07-.19-.17-.21h0Z"/>
      <path class="st8" d="M102.45,1.91L110.61.07c.14-.03.27.07.27.21v32.2c0,.14-.13.24-.26.21l-8.16-1.68c-.1-.02-.17-.11-.17-.21V2.13c0-.1.07-.19.17-.21h0Z"/>
      <g>
        <path class="st6" d="M91.18,11.97h8.6l-8.6,8.6s0-8.6,0-8.6Z"/>
        <path class="st0" d="M99.77,20.57h-8.6l8.6-8.6v8.6Z"/>
      </g>
      <path class="st8" d="M195.35.82c-.12,0-.22.1-.22.22v11.83c0,.12-.1.22-.22.22h-12.14c-.12,0-.22-.1-.22-.22V1.04c0-.12-.1-.22-.22-.22h-6.38c-.12,0-.22.1-.22.22v30.56c0,.12.1.22.22.22h6.38c.12,0,.22-.1.22-.22v-12.01c0-.12.1-.22.22-.22h12.14c.12,0,.22.1.22.22v12.01c0,.12.1.22.22.22h6.38c.12,0,.22-.1.22-.22V1.04c0-.12-.1-.22-.22-.22,0,0-6.38,0-6.38,0Z"/>
      <path class="st8" d="M130.14,9.09c.04-.11.2-.11.24,0l3.92,9.58c.04.09-.03.18-.12.18h-7.85c-.09,0-.16-.09-.12-.18l3.92-9.58h0ZM127.35.6c-.09,0-.17.05-.2.13l-13.1,30.78c-.06.14.04.3.2.3h6.48c.09,0,.17-.05.2-.14l2.72-6.68c.03-.08.11-.14.2-.14h12.81c.09,0,.17.05.2.14l2.72,6.68c.03.08.11.14.2.14h6.65c.16,0,.26-.16.2-.3L133.56.74c-.03-.08-.11-.13-.2-.13h-6.01Z"/>
      <path class="st8" d="M147.39,27.45c-.09-.08-.1-.21-.02-.3l3.76-4.5c.08-.09.21-.1.31-.03,2.74,2.22,5.62,3.63,9.09,3.63,2.79,0,4.47-1.11,4.47-2.92v-.09c0-1.73-1.06-2.61-6.24-3.94-6.24-1.59-10.27-3.32-10.27-9.48v-.09c0-5.63,4.52-9.34,10.85-9.34,4.44,0,8.24,1.37,11.36,3.82.09.07.11.2.04.29l-3.3,4.79c-.07.1-.21.12-.3.06-2.69-1.83-5.33-2.93-7.88-2.93s-3.98,1.19-3.98,2.7v.09c0,2.04,1.33,2.7,6.69,4.07,6.29,1.64,9.83,3.9,9.83,9.3v.09c0,6.16-4.69,9.61-11.38,9.61-4.63,0-9.3-1.59-13-4.82h-.03Z"/>
      <path class="st8" d="M225.77.82c-.12,0-.22.1-.22.22v30.56c0,.12.1.22.22.22h23.17c.12,0,.22-.1.22-.22v-5.63c0-.12-.1-.22-.22-.22h-16.39c-.12,0-.22-.1-.22-.22v-6.07c0-.12.1-.22.22-.22h14.18c.12,0,.22-.1.22-.22v-5.63c0-.12-.1-.22-.22-.22h-14.18c-.12,0-.22-.1-.22-.22v-5.85c0-.12.1-.22.22-.22h16.17c.12,0,.22-.1.22-.22V1.04c0-.12-.1-.22-.22-.22h-22.95Z"/>
      <path class="st8" d="M273.28.82c-.08,0-.15.04-.19.11l-7.27,12.03c-.09.14-.29.14-.38,0l-7.15-12.02c-.04-.07-.11-.11-.19-.11h-7.45c-.17,0-.28.19-.18.34l11.67,18.39s.03.08.03.12v11.94c0,.12.1.22.22.22h6.38c.12,0,.22-.1.22-.22v-12.07s.01-.08.03-.12l11.66-18.26c.09-.15-.01-.34-.18-.34h-7.23,0Z"/>
      <path class="st8" d="M213.44.83c-.06,0-.11.02-.15.06l-4.76,4.75-4.67,4.67c-.09.09-.09.22,0,.31l4.51,4.51c.09.09.22.09.31,0l4.67-4.66,4.82-4.82,4.6-4.59c.08-.08.02-.22-.09-.22h-9.24Z"/>
      <g>
        <path class="st3" d="M213.35,22.31l-4.76-4.76-4.76,4.76h9.52,0Z"/>
        <path class="st0" d="M203.83,22.31l4.76,4.76,4.76-4.76h-9.52,0Z"/>
        <path class="st6" d="M218.11,27.07l-4.76-4.76-4.76,4.76h9.52,0Z"/>
        <path class="st2" d="M208.59,27.07l4.76,4.76,4.76-4.76h-9.52,0Z"/>
        <path class="st5" d="M213.35,31.83h9.52l-4.76-4.76-4.76,4.76h0Z"/>
      </g>
      <path class="st8" d="M175.38,45.76c0-.17.2-.25.32-.13l7.51,7.46c.07.07.07.19,0,.27l-7.51,7.56c-.12.12-.32.04-.32-.13v-15.02h0Z"/>
      <path class="st3" d="M255.31,61.47c-.18,0-.29-.11-.29-.29v-15.73c0-.18.11-.29.29-.29h5.42c5.42,0,8.24,3.02,8.24,8.15s-2.82,8.15-8.24,8.15h-5.42ZM260.4,47.98h-2.38v10.66h2.38c3.62,0,5.47-1.91,5.47-5.33s-1.84-5.33-5.47-5.33Z"/>
      <path class="st3" d="M244.69,61.78c-3.2,0-6.6-1.78-6.6-6.95v-9.38c0-.18.11-.29.29-.29h2.42c.18,0,.29.11.29.29v8.84c0,3.2,1.56,4.55,3.6,4.55s3.62-1.36,3.62-4.55v-8.84c0-.18.11-.29.29-.29h2.42c.18,0,.29.11.29.29v9.38c0,5.18-3.42,6.95-6.62,6.95h0Z"/>
      <path class="st3" d="M226.24,61.78c-4.75,0-8.22-3.36-8.22-8.47s3.47-8.47,8.22-8.47,8.22,3.36,8.22,8.47-3.47,8.47-8.22,8.47ZM226.24,58.85c3.13,0,5.11-2.31,5.11-5.53s-1.98-5.53-5.11-5.53-5.11,2.31-5.11,5.53,1.98,5.53,5.11,5.53Z"/>
      <path class="st3" d="M205.65,61.47c-.18,0-.29-.11-.29-.29v-15.73c0-.18.11-.29.29-.29h2.42c.18,0,.29.11.29.29v13.15h7.87c.18,0,.29.11.29.29v2.29c0,.18-.11.29-.29.29h-10.58,0Z"/>
      <path class="st4" d="M200.51,49.8c.08.08.22.08.29,0l1.68-2.12c.06-.07.05-.18,0-.25-1.67-1.63-4.02-2.59-6.36-2.59-4.98,0-8.82,3.65-8.82,8.42s3.79,8.51,8.7,8.51c2.42,0,4.78-1.1,6.49-2.78.07-.07.07-.18,0-.26l-1.7-1.9c-.07-.08-.2-.08-.27,0-1.18,1.09-2.73,1.83-4.36,1.83-3.09,0-5.5-2.39-5.5-5.45s2.41-5.43,5.5-5.43c1.66,0,3.22.84,4.35,2.02v.02Z"/>
    </g>
  </g>
</svg>