<?xml version="1.0" encoding="UTF-8"?>
<svg id="Hivemint" xmlns="http://www.w3.org/2000/svg" viewBox="0 0 360 61.92">
  <defs>
    <style>
      .cls-1 {
        fill: #aac9c2;
      }
    </style>
  </defs>
  <path class="cls-1" d="M153.11,15.25c4.52,0,8.23.92,11.14,2.75,2.9,1.84,5.07,4.38,6.48,7.62,1.41,3.25,2.11,6.98,2.11,11.22v3.9h-31.84c.23,4.52,1.34,8.03,3.34,10.55,2,2.51,4.93,3.77,8.77,3.77,3.33,0,5.8-.64,7.41-1.9,1.61-1.27,2.69-3,3.26-5.21h8.39c-.74,4.34-2.67,7.76-5.8,10.24-3.13,2.49-7.55,3.73-13.25,3.73-6.72,0-11.9-2.03-15.54-6.1-3.64-4.06-5.46-9.68-5.46-16.86h0c0-5.09.89-9.39,2.67-12.92,1.78-3.53,4.25-6.21,7.41-8.05,3.16-1.84,6.8-2.75,10.93-2.75ZM350.35,60.56h-8.64v-6.01c-1.8,2.37-3.85,4.19-6.14,5.46-2.29,1.27-5.01,1.9-8.17,1.9-4.18,0-7.64-1-10.37-3-2.74-2-4.77-4.75-6.1-8.21-1.33-3.47-1.99-7.41-1.99-11.81h0c0-7.29,1.72-13.05,5.16-17.28,3.44-4.23,8.16-6.35,14.14-6.35,2.31,0,4.62.46,6.9,1.4,2.29.93,4.39,2.61,6.31,5.03V.08h8.89v60.47ZM228.43,15.27c4.35,0,7.69,1.21,10.03,3.64,2.34,2.43,3.52,6.21,3.52,11.35v30.32h-8.81v-28.46c0-3.61-.59-6.07-1.78-7.37-1.18-1.3-2.94-1.95-5.25-1.95-1.24,0-2.51.21-3.81.64-1.3.42-2.57,1.18-3.81,2.24-1.02.9-1.84,1.96-2.46,3.18-.62,1.21-.93,2.62-.93,4.19v27.53h-8.89v-28.46c0-3.44-.61-5.85-1.82-7.24-1.21-1.38-2.95-2.08-5.21-2.08-2.65,0-5.14,1.1-7.45,3.31-.9.79-1.74,1.82-2.5,3.09-.77,1.27-1.15,2.98-1.15,5.13v26.25h-8.81V16.62h8.73v6.44c1.92-2.59,4.03-4.54,6.35-5.85,2.31-1.3,4.69-1.95,7.11-1.95,3.16,0,5.76.69,7.79,2.08,2.03,1.39,3.53,3.34,4.49,5.88,3.95-5.31,8.83-7.96,14.65-7.96ZM28.45,24.99h28.54V.08h9.4v24.9h-9.4v8.63h9.4v26.93h-9.4v-26.93h-28.54v26.93h-9.39v-26.93h-9.4v-8.64h9.4V.08h9.39v24.9ZM289.2,15.24c4.91,0,8.58,1.37,11.01,4.11,2.43,2.74,3.64,6.7,3.64,11.9v29.3h-8.81v-27.61c0-3.67-.67-6.28-2.03-7.83-1.36-1.55-3.42-2.33-6.18-2.33-1.52,0-3.03.28-4.53.85-1.49.57-2.87,1.41-4.11,2.54-1.24,1.08-2.19,2.26-2.84,3.56-.65,1.3-.98,2.93-.98,4.91v25.92h-8.81V16.6h8.74v6.35c2.2-2.77,4.56-4.74,7.07-5.93,2.51-1.18,5.13-1.78,7.83-1.78ZM83.92,60.56h-8.89V16.6h8.89v43.96ZM257.87,60.56h-8.89V16.6h8.89v43.96ZM108.72,52.79h1.51l12.39-36.22h9.57l-17.27,43.96h-11l-17.19-43.96h9.99l12,36.22ZM329.85,22.54c-3.33,0-6.13,1.23-8.39,3.69-2.26,2.46-3.39,6.59-3.39,12.41h0c0,4,.55,7.17,1.65,9.48,1.1,2.31,2.51,3.97,4.23,4.95,1.72.99,3.51,1.49,5.38,1.49,3.72,0,6.72-1.24,8.98-3.73,2.26-2.49,3.39-6.07,3.39-10.75v-2.71c0-5.13-1.09-8.89-3.26-11.26-2.17-2.37-5.04-3.56-8.6-3.56ZM153.03,21.85c-2.71,0-4.9.57-6.57,1.69-1.67,1.13-2.92,2.65-3.77,4.57h0c-.85,1.93-1.39,4.13-1.61,6.61h23.04c-.23-4.18-1.11-7.37-2.67-9.57-1.55-2.2-4.36-3.31-8.42-3.31ZM83.92,9.06h-9.06V0h9.06v9.06ZM257.87,9.06h-9.06V0h9.06v9.06Z"/>
</svg>