<?xml version="1.0" encoding="UTF-8"?>
<svg id="Layer_1" data-name="Layer 1" xmlns="http://www.w3.org/2000/svg" xmlns:xlink="http://www.w3.org/1999/xlink" viewBox="0 0 100 100">
  <defs>
    <style>
      .cls-1 {
        fill: url(#linear-gradient);
      }
    </style>
    <linearGradient id="linear-gradient" x1="14.57" y1="50" x2="85.43" y2="50" gradientUnits="userSpaceOnUse">
      <stop offset="0" stop-color="#63af45"/>
      <stop offset=".11" stop-color="#62af4b"/>
      <stop offset=".3" stop-color="#5bb060"/>
      <stop offset=".55" stop-color="#4db183"/>
      <stop offset=".85" stop-color="#33b3ae"/>
      <stop offset="1" stop-color="#13b4c5"/>
    </linearGradient>
  </defs>
  <path class="cls-1" d="M55.81,47.33c-.32.61-.77,1.12-1.34,1.53-.57.42-1.25.72-2.03.93-.35.09-.71.15-1.07.2v2.3h-2.74v-2.25c-.78-.07-1.53-.19-2.23-.38-1.07-.29-2.48-1.48-2.48-1.48-.12-.07-.2-.19-.22-.33s.03-.28.13-.37l1.37-1.37c.15-.15.38-.17.56-.07,0,0,1.03.89,1.81,1.11s1.55.32,2.32.32c.97,0,1.78-.17,2.41-.52.64-.35.96-.88.96-1.61,0-.53-.16-.94-.47-1.25-.31-.3-.84-.49-1.59-.58l-2.46-.21c-1.46-.14-2.58-.55-3.37-1.22-.79-.67-1.19-1.68-1.19-3.04,0-.75.15-1.42.46-2,.3-.59.72-1.08,1.24-1.49.53-.4,1.14-.71,1.84-.91.29-.08.6-.14.91-.19v-1.98h2.74v1.94c.64.06,1.25.17,1.82.32.96.26,1.97,1.05,1.97,1.05.13.07.21.19.23.33.02.14-.02.28-.12.39l-1.29,1.31c-.14.14-.35.17-.52.08,0,0-.76-.54-1.42-.72-.66-.17-1.35-.26-2.08-.26-.95,0-1.66.18-2.11.55-.46.37-.68.84-.68,1.43,0,.53.16.93.49,1.22.32.28.87.47,1.64.55l2.16.18c1.6.14,2.81.57,3.63,1.27.82.71,1.23,1.74,1.23,3.1,0,.81-.16,1.52-.49,2.13ZM72.01,27.77c.22-.86-.3-1.73-1.15-1.95l-5.75-1.48,5.06-2.77c.77-.42,1.06-1.39.63-2.17-.42-.77-1.39-1.06-2.17-.64l-6.4,3.5,3.92-9.52c.05-.12.05-.25,0-.36-.05-.11-.15-.2-.27-.24,0,0-3.17-1.64-4.96-1.64-3.7,0-7.3,1.94-10.58,1.94-.99,0-1.95-.18-2.88-.64-2.18-1.09-4.07-1.51-5.87-1.51-2.71,0-7.53,1.88-7.53,1.88-.13.03-.23.12-.29.24-.06.12-.07.26-.02.38l4.32,10.48c-.53.26-.9.8-.9,1.43,0,.54.27,1.02.69,1.31-2.11,2.51-7.31,9.25-9.27,16.7-2.83,10.74,3.48,18.77,21.36,18.77s24.18-8.03,21.36-18.77c-1.73-6.57-5.98-12.58-8.41-15.64l7.17,1.84c.86.22,1.73-.29,1.95-1.15ZM41.59,14.3c1.31,0,2.61.35,4.08,1.08,1.41.71,2.98,1.06,4.67,1.06,2.13,0,4.11-.54,6.02-1.07,1.64-.45,3.19-.87,4.56-.87h.19s-3.54,8.6-3.54,8.6h-15.24l-3.45-8.39c.95-.26,1.84-.41,2.72-.41ZM66.37,52.4c-2.53,3.28-8.37,5.09-16.43,5.09s-13.9-1.81-16.43-5.09c-1.65-2.14-2.01-5.06-1.06-8.66,2.19-8.32,9.18-15.97,9.25-16.04l1.28-1.38h13.92l1.28,1.38c.07.08,7.05,7.67,9.25,16.04.95,3.6.59,6.52-1.06,8.66ZM45.66,61.81h11.93c2.4,0,4.34-1.94,4.34-4.34s-1.94-4.34-4.34-4.34h-17.35c-10.85,0-14.28,4.52-18.08,8.31l-6.89,6.02c-.45.39-.7.95-.7,1.55v19.99c0,.27.16.51.4.62.24.11.53.07.73-.1l13.31-11.41c.47-.4,1.1-.57,1.7-.46l20.75,3.77c1.45.26,2.94-.07,4.14-.92,0,0,26.48-18.41,28.43-20.04h0c1.86-1.71,1.84-4.19.13-6.06-1.71-1.87-4.9-1.47-7.03.11-1.95,1.62-15.28,10.38-15.28,10.38h-16.19l-.05.03c-.85-.03-1.52-.74-1.49-1.6.03-.85.75-1.52,1.6-1.49l-.05-.03Z"/>
</svg>