<?xml version="1.0" encoding="utf-8"?>
<!-- Generator: Adobe Illustrator 25.0.1, SVG Export Plug-In . SVG Version: 6.00 Build 0)  -->
<svg version="1.1" id="Layer_2_1_" xmlns="http://www.w3.org/2000/svg" xmlns:xlink="http://www.w3.org/1999/xlink" x="0px" y="0px"
	 viewBox="0 0 360.8 62.2" style="enable-background:new 0 0 360.8 62.2;" xml:space="preserve">
<style type="text/css">
	.st0{fill:#353434;}
	.st1{fill-rule:evenodd;clip-rule:evenodd;fill:#F5C115;}
</style>
<g id="Layer_x0020_1_1_">
	<g id="_570486048">
		<path id="_570485808" class="st0" d="M83.4,44h9.9V1h-9.9V44z M99.3,44h9.1V26.9c0-1.8,0.4-3.4,1.2-4.7c0.8-1.3,2-2,3.8-2
			c1.3,0,2.2,0.2,2.9,0.7c0.6,0.5,1,1.1,1.3,1.9c0.2,0.8,0.4,1.7,0.4,2.8c0,1.1-0.1,2.1-0.1,3.2V44h9.1V24c0-1.2-0.1-2.4-0.2-3.9
			c-0.2-1.4-0.6-2.7-1.3-3.9c-0.7-1.3-1.6-2.4-3-3.2c-1.3-0.8-3.2-1.2-5.5-1.2c-1.7,0-3.4,0.4-5,1.3c-1.6,0.9-2.9,2.2-3.7,3.9h-0.1
			v-4.3h-8.8L99.3,44L99.3,44z M146.8,19.3c2,0,3.4,1.3,4.2,3s1.2,3.7,1.2,6.1c0,1,0,2-0.2,3c-0.1,1-0.4,2.4-0.8,3.2
			c-0.4,0.8-0.9,1.5-1.6,2.1c-0.8,0.6-1.7,0.8-2.8,0.8c-1,0-1.9-0.3-2.6-0.8c-0.8-0.6-1.4-1.7-1.8-2.5c-0.8-1.8-1.1-3.9-1.1-6.1
			c0-2.1,0.3-4,1.1-5.7c0.4-0.8,1-1.8,1.8-2.3C145,19.5,145.8,19.3,146.8,19.3L146.8,19.3z M161,1h-9.1v15.1h-0.1
			c-1.8-2.8-4.5-4.3-7.9-4.3c-3.9,0.1-6.8,1.7-8.8,4.8c-1.9,3.1-2.9,6.8-2.9,11c0,4.5,1,8.5,3,11.8c2,3.5,5.1,5.4,9.4,5.4
			c3.3,0,5.8-1.5,7.6-4.5h0.1V44h8.6L161,1L161,1z M164.5,33.5c0.4,1,0.7,1.9,1.3,2.8c1.4,2.1,3.3,3.8,5,5.1c3.1,2.4,7,3.5,11.5,3.6
			c4.4,0,8.2-1,11.5-3.2c3.4-2.2,5.1-5.9,5.2-11.3c0-2-0.3-3.7-0.9-5c-0.6-1.4-1.4-2.6-2.5-3.5c-2.2-1.9-4.8-3.1-7.7-4
			c-0.7-0.2-1.3-0.5-2-0.7s-1.4-0.4-2-0.6c-1.3-0.4-2.5-0.7-3.6-1.1c-1-0.4-1.8-0.9-2.5-1.4c-0.7-0.6-1-1.2-1-2c0-1.4,0.6-2.4,1.6-3
			c1-0.5,2-0.7,3.2-0.7c1.7,0,3.1,0.4,4.3,1.1c1.1,0.7,2.7,1.9,3.4,3.7l8.6-3.9c-1.3-3-2.5-4.4-5-6.2c-3-2.2-6.6-3.3-10.5-3.3
			c-3.8,0-7.3,1-10.4,2.9c-1.6,1-2.8,2.4-3.7,4.1c-1,1.7-1.5,3.7-1.4,6.1c0,3.8,1.3,6.6,3.6,8.5c2.2,1.8,4.7,3.2,7.6,4
			c2.9,0.8,5.4,1.5,7.6,2.3c1,0.4,1.9,0.9,2.5,1.6c0.6,0.6,0.9,1.5,0.9,2.4c0,1.5-0.7,2.7-1.9,3.4c-0.6,0.3-1.2,0.6-1.9,0.7
			c-3.7,0.9-8.5-0.2-10.8-3.3c-0.8-1.1-0.9-1.4-1.3-2.2L164.5,33.5L164.5,33.5z M212,28.4c0-2.1,0.4-4.1,1.2-5.9s2.3-2.8,4.4-2.8
			c2.1,0,3.6,1,4.4,2.8c0.8,1.8,1.2,3.8,1.2,5.9c0,1-0.1,2-0.2,3c-0.2,1-0.5,2-0.9,2.8s-1,1.5-1.7,2.1s-1.7,0.8-2.7,0.8
			s-1.9-0.3-2.6-0.8c-0.7-0.5-1.3-1.2-1.8-2.1c-0.4-0.8-0.7-1.8-0.9-2.8C212.1,30.4,212,29.4,212,28.4L212,28.4z M203,28.4
			c0,4.8,1.4,8.7,4.1,11.7c2.7,3.1,6.1,4.8,10.5,4.8s7.9-1.7,10.6-4.8c2.7-3.1,4.1-7,4.1-11.7c0-4.8-1.4-8.8-4.1-11.9
			c-2.6-3.1-6.1-4.7-10.6-4.7c-4.4,0-7.8,1.6-10.5,4.7C204.4,19.7,203,23.6,203,28.4z M239.3,44h9.1V19.3h5.5v-6.6h-5.5v-1.4
			c0-1.4,0.3-2.3,0.9-2.6c0.6-0.3,1.4-0.5,2.5-0.5c0.8,0,1.6,0.1,2.5,0.2V1.2c-1.5-0.1-2.9-0.2-4.4-0.2c-3.8-0.1-6.5,0.8-8.1,2.5
			s-2.5,4.8-2.4,9.3H235v6.6h4.4L239.3,44L239.3,44z M276.8,12.8h-5.6V3.3h-9.1v9.4h-4.6v6.6h4.6v13.9c-0.1,4.1,0.6,7,2,8.7
			c1.4,1.6,3.9,2.4,7.7,2.4c1.7,0,4.7-0.2,6.3-0.4v-7.4c-0.8,0.1-3,0.1-3.7,0.1c-1,0-1.8-0.2-2.4-0.6c-0.6-0.4-0.9-1.2-0.9-2.4V19.3
			h5.6C276.8,19.3,276.8,12.8,276.8,12.8z"/>
		<path id="_570486000" class="st1" d="M156,52.5h8.1v-8h4v8h8.1h0.1v0.1v9.5v0.1h-0.1H156h-0.1v-0.1L156,52.5L156,52.5L156,52.5z
			 M179.7,54.7h98.4h0.1v0.1v5v0.1h-0.1h-98.4h-0.1v-0.1L179.7,54.7L179.7,54.7L179.7,54.7z M82.7,54.7h69.7h0.1v0.1v5v0.1h-0.1
			H82.7h-0.1v-0.1L82.7,54.7L82.7,54.7L82.7,54.7z"/>
	</g>
</g>
</svg>
