<?xml version="1.0" encoding="UTF-8"?>
<svg id="investax" xmlns="http://www.w3.org/2000/svg" viewBox="0 0 360 61.92">
  <defs>
    <style>
      .cls-1, .cls-2 {
        fill: #fff;
      }

      .cls-2 {
        fill-rule: evenodd;
      }
    </style>
  </defs>
  <path class="cls-1" d="M178.44,12.77c9.33,0,16.22,4.9,17.52,12.97.2,1.26-.81,2.32-2.04,2.32h-4.24c-1.19,0-2.13-1.01-2.48-2.19-.99-3.4-4.17-5.7-8.62-5.7-5.14,0-8.39,2.84-8.39,6.43,0,3.15,2.44,5.05,6.51,6.03l7.71,1.77c8.82,2.04,12.85,6.12,12.85,12.9,0,8.91-7.71,14.4-18.24,14.4-9.51,0-16.93-4.37-18.58-12.93-.25-1.29.77-2.4,2.04-2.4h4.59c1.12,0,2.03.89,2.36,2,1.14,3.79,4.38,5.89,9.42,5.89,5.74,0,9.29-2.7,9.29-6.43,0-3.19-2.61-5.05-6.51-5.94l-7.5-1.73c-8.52-1.95-12.98-6.43-12.98-13.38,0-8.29,6.94-14,17.3-14Z"/>
  <path class="cls-2" d="M133.3,12.72c12.81,0,21.11,10.01,21.11,24.46v.26c0,1.25-.98,2.27-2.19,2.27h-31.08c.3,8.42,4.84,14.14,12.76,14.14,5.18,0,8.85-2.35,10.54-5.92.43-.9,1.26-1.57,2.23-1.57h4.41c1.38,0,2.42,1.3,1.96,2.65-2.62,7.59-10.06,12.64-19.26,12.64-13.41,0-21.54-10.24-21.54-24.37s8.74-24.55,21.07-24.55ZM133.38,20.52c-6.81,0-11.39,4.65-12.16,12.1h24.37c-.73-7.44-5.35-12.1-12.21-12.1Z"/>
  <path class="cls-2" d="M254.46,12.86c11.14,0,17.95,6.12,17.95,15.64v29.81c0,1.25-.98,2.27-2.19,2.27h-4.52c-1.21,0-2.19-1.02-2.19-2.27v-4.38h-.17c-1.88,3.77-5.57,7.4-13.36,7.4-8.99,0-15.68-4.79-15.68-14.14,0-10.68,8.65-12.98,17.86-14.09,8.48-1.06,11.31-.97,11.31-4.39v-.4c0-4.52-3.38-7.8-9.12-7.8-4.83,0-8.37,2.26-9.61,5.5-.42,1.1-1.33,2.03-2.47,2.03h-4.54c-1.25,0-2.27-1.09-2.02-2.36,1.51-7.64,8.5-12.84,18.77-12.84ZM263.5,37.58c-1.24,1.02-6.04,1.77-10.84,2.48-4.93.75-9.38,2.57-9.38,7.31,0,4.03,3.25,6.43,8.52,6.43,7.97,0,11.69-4.96,11.69-10.72v-5.5Z"/>
  <path class="cls-1" d="M7.32.23c1.21,0,2.19.93,2.19,2.07v56.21c0,1.15-.98,2.07-2.19,2.07H2.19C.98,60.58,0,59.66,0,58.51V2.3C0,1.16.98.23,2.19.23h5.12Z"/>
  <path class="cls-1" d="M44.05,12.86c9.29,0,16.36,6.34,16.36,18.57v26.89c0,1.25-.98,2.27-2.19,2.27h-4.65c-1.21,0-2.19-1.02-2.19-2.27v-25.74c0-7.49-3.64-11.34-9.89-11.34s-10.92,3.72-10.92,12.41v24.67c0,1.25-.98,2.27-2.19,2.27h-4.65c-1.21,0-2.19-1.02-2.19-2.27V16.06c0-1.25.98-2.27,2.19-2.27h4.48c1.21,0,2.19,1.02,2.19,2.27v4.78c3.08-5.32,7.71-7.98,13.66-7.98Z"/>
  <path class="cls-1" d="M74.07,13.79c.92,0,1.75.6,2.06,1.5l8.47,24.16c1.24,3.63,2.4,7.31,3.51,10.95,1.11-3.63,2.27-7.31,3.47-10.95l8.35-24.15c.31-.9,1.14-1.51,2.07-1.51h4.82c1.54,0,2.6,1.59,2.05,3.08l-15.59,42.26c-.32.88-1.14,1.46-2.05,1.46h-6.57c-.91,0-1.73-.58-2.05-1.46l-15.55-42.26c-.55-1.48.51-3.08,2.05-3.08h4.96Z"/>
  <path class="cls-1" d="M216.55,1.03c1.21,0,2.19,1.02,2.19,2.27v10.49h6.97c1.21,0,2.19,1.02,2.19,2.27v3.17c0,1.25-.98,2.27-2.19,2.27h-6.97v26.72c0,3.46,1.16,4.65,4.75,4.65h2.22c1.21,0,2.19,1.02,2.19,2.27v3.17c0,1.25-.98,2.27-2.19,2.27h-3.5c-8.48,0-12.55-3.63-12.55-11.17v-27.92h-5.77c-1.21,0-2.19-1.02-2.19-2.27v-3.17c0-1.25.98-2.27,2.19-2.27h5.77V3.29c0-1.25.98-2.27,2.19-2.27h4.69Z"/>
  <path class="cls-1" d="M287.57.23c.73,0,1.41.34,1.82.92l39.49,54.32,1.5,2.1c.73,1.35-.29,3.02-1.96,3.02h-5.68c-.73,0-1.4-.34-1.81-.91l-9.88-13.72c-2.27-3.12-4.45-6.24-6.64-9.4-2.18,3.16-4.41,6.28-6.72,9.4l-10.05,13.73c-.41.56-1.08.89-1.8.89h-5.39c-1.77,0-2.81-1.89-1.8-3.26l20.45-27.6-18.95-26.24c-.99-1.38.05-3.24,1.81-3.24h5.6Z"/>
  <path class="cls-2" d="M350.32,6.23c1.24-.02,3.13,1.05,3.13,3.31,0,1.46-.75,2.5-1.66,3.06l1.24,2.43c.38.75-.14,1.64-.96,1.64-.4,0-.77-.23-.96-.6l-1.49-2.95h-2.2v2.41c0,.63-.49,1.13-1.09,1.13h-.03c-.61,0-1.1-.51-1.1-1.13V7.37c0-.63.49-1.13,1.1-1.13h4.02ZM347.41,11.42h2.07c.6.02,1.51-.6,1.51-1.87s-.94-1.64-1.47-1.64h-2.11v3.51Z"/>
  <path class="cls-2" d="M349.04.23c6.06,0,10.96,5.09,10.96,11.34s-4.9,11.34-10.96,11.34-10.96-5.09-10.96-11.34S342.99.23,349.04.23ZM349.04,2.96c-4.6,0-8.33,3.86-8.33,8.62s3.73,8.62,8.33,8.62,8.33-3.86,8.33-8.62-3.71-8.62-8.33-8.62Z"/>
  <path class="cls-1" d="M327.02.23c1.76,0,2.8,1.87,1.81,3.25l-13.05,17.53c-.89,1.19-2.63,1.18-3.5-.04l-2.55-3.56c-.58-.82-.57-1.93.03-2.74l10.11-13.54c.41-.56,1.09-.9,1.81-.9h5.34Z"/>
</svg>