<?xml version="1.0" encoding="UTF-8"?>
<svg id="ixs" xmlns="http://www.w3.org/2000/svg" viewBox="0 0 360 61.92">
  <defs>
    <style>
      .cls-1 {
        isolation: isolate;
        opacity: .7;
      }
    </style>
  </defs>
  <path d="M264.53,24.42c-4.04,0-7.32-3.28-7.32-7.32s3.27-7.32,7.32-7.32,7.33,3.28,7.33,7.32-3.26,7.32-7.33,7.32ZM264.53,22.55c3.04.01,5.48-2.43,5.48-5.45s-2.44-5.45-5.48-5.45-5.45,2.44-5.45,5.45,2.44,5.46,5.45,5.45ZM262.5,20.39c-.32,0-.58-.26-.58-.58v-5.59c0-.32.26-.58.58-.58h2.77c1.11-.01,2.24.76,2.24,2.19,0,.92-.45,1.57-1.08,1.94l.9,1.78c.19.38-.09.84-.52.84h-.51c-.22,0-.42-.13-.52-.32l-.95-1.95h-1.26v1.7c0,.32-.26.58-.58.58h-.5ZM263.57,16.33c0,.32.26.58.58.58h.63c.48,0,.97-.35.97-1.07s-.52-.99-.96-.99h-.64c-.32,0-.58.26-.58.58v.91Z"/>
  <path class="cls-1" d="M119.85,61.6c-.41.41-1.07.43-1.46.03l-14.27-14.27,16.03-.38.02,13.81c.01.28-.1.58-.32.8Z"/>
  <path d="M104.12,47.37c-.39-.39-.38-1.05.03-1.46l15.97-15.97,28.91.03c.27,0,.53.09.73.29.39.39.38,1.05-.03,1.46l-15.62,15.62c-.21.21-.48.32-.75.32h-28.47c-.29.03-.57-.07-.79-.28Z"/>
  <path class="cls-1" d="M118.35.32c.41-.41,1.07-.43,1.46-.03l14.27,14.27-16.01.38-.03-13.81c-.01-.29.1-.58.32-.8Z"/>
  <path d="M134.08,14.55c.39.39.38,1.05-.03,1.46l-15.94,15.94h-28.95c-.27.02-.53-.08-.73-.28-.39-.39-.38-1.05.03-1.46l15.62-15.62c.21-.21.48-.32.75-.32h28.47c.29-.03.57.07.79.28Z"/>
  <path d="M160.95,11.72c0-.58.47-1.05,1.05-1.05h8.08c.58,0,1.05.47,1.05,1.05v38.3c0,.58-.47,1.05-1.05,1.05h-8.08c-.58,0-1.05-.47-1.05-1.05V11.72Z"/>
  <path d="M187.47,30.45l-11.27-18.18c-.43-.7.07-1.6.89-1.6h8.26c.37,0,.71.19.9.51l7.1,11.81h.11l7.15-11.81c.19-.31.53-.5.89-.5h8.26c.82,0,1.32.9.89,1.6l-11.26,18.06,12.35,19.12c.45.7-.05,1.61-.88,1.61h-8.79c-.36,0-.7-.19-.89-.5l-7.72-12.61h-.11l-7.66,12.6c-.19.31-.53.5-.89.5h-8.78c-.83,0-1.33-.92-.88-1.62l12.34-19.01Z"/>
  <path d="M231.04,25.99c7.63,2.09,15.48,4.58,15.48,13.22,0,7.74-5.88,12.77-15.99,12.77s-17.79-4.79-18.38-13.13c-.04-.58.43-1.05,1.01-1.05h8.08c.58,0,1.03.47,1.13,1.04.56,3.51,4.04,4.83,8.17,4.83,3.79,0,5.82-1.47,5.82-3.5,0-3.22-4.35-3.95-10.06-5.65-6.95-2.03-13.05-5.03-13.05-12.49,0-8.81,6.89-12.26,15.59-12.26s16.17,4.54,17.04,12.08c.07.59-.41,1.08-1,1.08h-8.18c-.52,0-.95-.38-1.1-.88-.79-2.52-3.24-3.98-6.75-3.98-3.05,0-5.42.96-5.42,3.22,0,2.49,2.54,3.28,7.63,4.69Z"/>
</svg>