<?xml version="1.0" encoding="UTF-8"?>
<svg id="Layer_33" data-name="Layer 33" xmlns="http://www.w3.org/2000/svg" xmlns:xlink="http://www.w3.org/1999/xlink" viewBox="0 0 360.8 62.2">
  <defs>
    <style>
      .cls-1 {
        fill: url(#linear-gradient-2);
      }

      .cls-2 {
        fill: #e5ffc5;
      }

      .cls-3 {
        fill: #6b9385;
      }

      .cls-4 {
        fill: none;
      }

      .cls-5 {
        fill: url(#linear-gradient-4);
      }

      .cls-6 {
        fill: url(#linear-gradient-3);
      }

      .cls-7 {
        fill: url(#linear-gradient);
      }

      .cls-8 {
        clip-path: url(#clippath);
      }
    </style>
    <clipPath id="clippath">
      <rect class="cls-4" x="38.41" y=".37" width="283.97" height="61.47"/>
    </clipPath>
    <linearGradient id="linear-gradient" x1="45.39" y1="14.59" x2="66.28" y2="3.23" gradientTransform="translate(0 62.11) scale(1 -1)" gradientUnits="userSpaceOnUse">
      <stop offset="0" stop-color="#e5ffc5"/>
      <stop offset="1" stop-color="#6b9385"/>
    </linearGradient>
    <linearGradient id="linear-gradient-2" x1="110.79" y1="44.93" x2="77.63" y2="26.43" gradientTransform="translate(0 62.11) scale(1 -1)" gradientUnits="userSpaceOnUse">
      <stop offset=".16" stop-color="#e5ffc5"/>
      <stop offset=".54" stop-color="#e5ffc5"/>
    </linearGradient>
    <linearGradient id="linear-gradient-3" x1="39.85" y1="19.88" x2="75.31" y2="33.43" gradientTransform="translate(0 62.11) scale(1 -1)" gradientUnits="userSpaceOnUse">
      <stop offset=".11" stop-color="#e5ffc5"/>
      <stop offset=".64" stop-color="#e5ffc5"/>
    </linearGradient>
    <linearGradient id="linear-gradient-4" x1="109.45" y1="49.35" x2="74.05" y2="63.03" gradientTransform="translate(0 62.11) scale(1 -1)" gradientUnits="userSpaceOnUse">
      <stop offset="0" stop-color="#e5ffc5"/>
      <stop offset=".78" stop-color="#6b9385"/>
    </linearGradient>
  </defs>
  <g class="cls-8">
    <g>
      <path class="cls-7" d="M76.39,61.81v-5c-18.86,0-32.98-6.12-32.98-11.61h-5c.02,9.47,16.33,16.61,37.97,16.61Z"/>
      <path class="cls-1" d="M76.39,33.59c21.65,0,37.96-7.14,37.96-16.61l-2.27-.08-2.7.08c0,5.49-14.09,11.61-32.98,11.61l-.15,2.54.15,2.46h-.01Z"/>
      <path class="cls-6" d="M38.44,45.2l2.74.06,2.24-.06c0-5.49,14.09-11.61,32.98-11.61v-5c-21.65,0-37.95,7.13-37.95,16.61Z"/>
      <path class="cls-5" d="M109.36,16.97h5C114.36,7.51,98.03.37,76.4.37v5c18.84,0,32.96,6.12,32.96,11.61h.01Z"/>
      <path class="cls-3" d="M48.45,28.44c2.21-.99,4.72-1.86,7.48-2.57-7.72-2.29-12.52-5.71-12.52-8.91,0-5.49,14.09-11.61,32.98-11.61l.25-2.43-.25-2.56c-21.65,0-37.95,7.14-37.95,16.61,0,4.53,3.74,8.53,10.01,11.47Z"/>
      <path class="cls-3" d="M104.35,33.74c-2.21.99-4.72,1.86-7.48,2.57,7.72,2.29,12.52,5.71,12.52,8.91,0,5.49-14.09,11.61-32.98,11.61l-.09,2.56.09,2.45c21.65,0,37.96-7.14,37.96-16.61,0-4.55-3.75-8.53-10.01-11.48h-.01Z"/>
      <path class="cls-2" d="M142.19,43.63V9.3h4.44v34.32h-4.44Z"/>
      <path class="cls-2" d="M157.31,14.39c-.86,0-1.58-.28-2.15-.84-.57-.56-.86-1.23-.86-2.03s.28-1.53.86-2.08c.57-.56,1.29-.84,2.15-.84s1.58.27,2.15.8c.57.54.86,1.21.86,2.01s-.28,1.53-.84,2.1c-.56.57-1.29.86-2.18.86h.01ZM155.08,43.63v-24.52h4.44v24.52h-4.44Z"/>
      <path class="cls-2" d="M181.09,18.87c2,0,3.77.39,5.3,1.15,1.53.77,2.72,1.94,3.59,3.52.86,1.58,1.3,3.57,1.3,5.97v14.1h-4.44v-13.6c0-2.37-.58-4.17-1.73-5.36-1.15-1.2-2.78-1.8-4.88-1.8-1.58,0-2.95.31-4.11.93-1.17.61-2.08,1.53-2.7,2.73-.64,1.21-.95,2.69-.95,4.48v12.63h-4.44v-24.52h4.26v6.62l-.69-1.75c.81-1.6,2.03-2.85,3.7-3.74,1.67-.89,3.61-1.34,5.83-1.34h-.02Z"/>
      <path class="cls-2" d="M199.49,43.63V9.3h4.44v34.32h-4.44ZM203.1,37.7l.09-5.69,14.1-12.91h5.36l-10.83,10.64-2.4,2.03-6.34,5.92h.01ZM218.22,43.63l-9.62-11.94,2.87-3.57,12.21,15.5h-5.46Z"/>
      <path class="cls-2" d="M227.67,52.6V19.11h4.26v6.62l-.28,5.69.46,5.69v15.5h-4.44ZM240.66,43.91c-2.03,0-3.89-.47-5.58-1.41-1.68-.94-3.02-2.34-4.02-4.19-1.01-1.86-1.51-4.17-1.51-6.94s.49-5.08,1.45-6.94c.96-1.86,2.3-3.24,3.98-4.17,1.68-.93,3.57-1.39,5.67-1.39,2.4,0,4.54.53,6.38,1.58,1.86,1.05,3.32,2.5,4.39,4.37s1.62,4.05,1.62,6.55-.54,4.68-1.62,6.57c-1.08,1.88-2.55,3.34-4.39,4.39-1.86,1.05-3.98,1.58-6.38,1.58h.01ZM240.29,40.02c1.58,0,2.98-.36,4.24-1.06,1.25-.7,2.23-1.72,2.96-3.03.73-1.31,1.08-2.83,1.08-4.56s-.36-3.27-1.08-4.56c-.73-1.29-1.71-2.27-2.96-2.98-1.25-.7-2.66-1.06-4.24-1.06s-2.94.36-4.19,1.06c-1.25.72-2.23,1.7-2.96,2.98-.73,1.29-1.08,2.79-1.08,4.56s.36,3.24,1.08,4.56c.73,1.31,1.71,2.32,2.96,3.03,1.25.72,2.65,1.06,4.19,1.06Z"/>
      <path class="cls-2" d="M269.71,43.91c-2.47,0-4.66-.54-6.57-1.62-1.91-1.08-3.42-2.57-4.54-4.46-1.11-1.9-1.66-4.05-1.66-6.45s.56-4.59,1.66-6.47c1.11-1.88,2.63-3.35,4.54-4.41,1.91-1.06,4.1-1.6,6.57-1.6s4.62.54,6.55,1.6c1.92,1.06,3.44,2.53,4.54,4.39,1.1,1.87,1.64,4.03,1.64,6.5s-.55,4.59-1.64,6.47c-1.1,1.88-2.6,3.36-4.54,4.44-1.92,1.08-4.11,1.62-6.55,1.62h0ZM269.71,40.02c1.58,0,2.98-.36,4.24-1.06,1.25-.7,2.22-1.72,2.94-3.03.7-1.31,1.06-2.83,1.06-4.56s-.36-3.27-1.06-4.56c-.7-1.29-1.69-2.27-2.94-2.98-1.25-.7-2.66-1.06-4.24-1.06s-2.97.36-4.21,1.06c-1.23.72-2.22,1.7-2.96,2.98-.74,1.29-1.11,2.79-1.11,4.56s.37,3.24,1.11,4.56c.74,1.31,1.72,2.32,2.96,3.03,1.23.72,2.64,1.06,4.21,1.06Z"/>
      <path class="cls-2" d="M299.08,43.91c-2.47,0-4.66-.54-6.57-1.62-1.91-1.08-3.42-2.57-4.54-4.46-1.11-1.9-1.66-4.05-1.66-6.45s.56-4.59,1.66-6.47c1.11-1.88,2.63-3.35,4.54-4.41,1.91-1.06,4.1-1.6,6.57-1.6s4.62.54,6.55,1.6c1.92,1.06,3.44,2.53,4.54,4.39,1.1,1.87,1.64,4.03,1.64,6.5s-.55,4.59-1.64,6.47c-1.1,1.88-2.6,3.36-4.54,4.44-1.92,1.08-4.11,1.62-6.55,1.62h0ZM299.08,40.02c1.58,0,2.98-.36,4.24-1.06,1.25-.7,2.22-1.72,2.94-3.03.7-1.31,1.06-2.83,1.06-4.56s-.36-3.27-1.06-4.56c-.7-1.29-1.69-2.27-2.94-2.98-1.25-.7-2.66-1.06-4.24-1.06s-2.97.36-4.21,1.06c-1.23.72-2.22,1.7-2.96,2.98-.74,1.29-1.11,2.79-1.11,4.56s.37,3.24,1.11,4.56c.74,1.31,1.72,2.32,2.96,3.03,1.23.72,2.64,1.06,4.21,1.06Z"/>
      <path class="cls-2" d="M317.95,43.63V9.3h4.44v34.32h-4.44Z"/>
    </g>
  </g>
</svg>