<?xml version="1.0" encoding="utf-8"?>
<!-- Generator: Adobe Illustrator 25.0.1, SVG Export Plug-In . SVG Version: 6.00 Build 0)  -->
<svg version="1.1" xmlns="http://www.w3.org/2000/svg" xmlns:xlink="http://www.w3.org/1999/xlink" x="0px" y="0px"
	 viewBox="0 0 56.7 56.7" style="enable-background:new 0 0 56.7 56.7;" xml:space="preserve">
<style type="text/css">
	.st0{display:none;}
	.st1{display:inline;fill:#234156;}
	.st2{fill:#70CCD6;}
	.st3{display:inline;}
	.st4{fill:#E0F2F7;}
	.st5{fill:url(#SVGID_1_);}
	.st6{fill:url(#SVGID_2_);}
</style>
<g id="hitbtc" class="st0">
	<path class="st1" d="M48.7,56.7H8c-4.4,0-8-3.6-8-8V8c0-4.4,3.6-8,8-8h40.7c4.4,0,8,3.6,8,8v40.7C56.7,53.1,53.1,56.7,48.7,56.7z"
		/>
</g>
<g id="fathom" class="st0">
	<path class="st2" d="M48.7,56.7H8c-4.4,0-8-3.6-8-8V8c0-4.4,3.6-8,8-8h40.7c4.4,0,8,3.6,8,8v40.7C56.7,53.1,53.1,56.7,48.7,56.7z"
		/>
	<g class="st3">
		<path class="st4" d="M45.7,18c0,0.3,0,0.7,0,1c-3.9,1.9,1.6-5.2-3.2-2.4c-0.1,0-0.3,0.2-0.6,0.3c0.3-0.2,0.4-0.5-0.2-0.8
			c-3-1.8-6.4-3.7-9.2-5.3c-4.8,2.8-9.9,5.8-14.6,8.5c-0.5,0.3-2,1.1-2.7,1.1c0.9,0.6,1.6,1.2,1.2,2.3c-0.8-0.5-1.6-0.9-2.4-1.4
			c0,5.5,0,11,0,16.6c0,0.5,0.1,2.1-0.4,2.5c3.5,2.1,7,4.1,10.7,6.3c0.8,1.1,2,1.3,3,2.1c-0.4,0.2-0.7,0.4-1.1,0.6
			c1.7,1.3,3.2,2.3,5.5,0.9c5.3-3.3,10.7-6.3,16.1-9.4c1-0.6,1.3-1.2,1.3-2.3c0-4.8-0.2-9.5,0-14.3C49.2,21.4,48.8,19,45.7,18z
			 M41.2,17.3c-0.2,0.1-0.5,0.3-0.7,0.4c0.1-0.1,0.2-0.1,0.3-0.2C40.9,17.4,41,17.4,41.2,17.3z"/>
		<linearGradient id="SVGID_1_" gradientUnits="userSpaceOnUse" x1="7.5866" y1="28.0784" x2="46.7401" y2="28.0784">
			<stop  offset="0" style="stop-color:#63B046"/>
			<stop  offset="0.1065" style="stop-color:#62B049"/>
			<stop  offset="0.2972" style="stop-color:#5BB05F"/>
			<stop  offset="0.5501" style="stop-color:#4CB184"/>
			<stop  offset="0.8523" style="stop-color:#35B3AE"/>
			<stop  offset="1" style="stop-color:#15B4C5"/>
		</linearGradient>
		<path class="st5" d="M27.1,50.4c-6.2-3.6-12.4-7.1-18.6-10.7c-0.9-0.5-0.9-1.2-0.9-2c0-6.5,0.1-13,0.1-19.4c0-1,0.3-1.7,1.3-2.3
			c5.6-3.2,11.2-6.5,16.7-9.8c1-0.6,1.8-0.6,2.7,0c5.4,3.2,10.8,6.4,16.2,9.5c1.4,0.8,2.2,1.7,2,3.3c0,6.1-0.1,12.2,0,18.3
			c0,1.4-0.4,2.3-1.7,2.9c-3,1.6-5.8,3.4-8.8,5.1C33.2,46.9,30.3,49,27.1,50.4z M33.4,12c-2.4-1.4-3.2-2-5.3-3.2
			c-0.8-0.6-1.4-0.5-2.1,0c-1.9,1.2-3.9,2.3-5.9,3.4c-2.9,1.7-5.8,3.4-8.9,5.2c2.2,1.2,4,2.3,5.9,3.3c2.6,1.4,5.4,3,8,4.4
			c2.4,1.3,2.8,1.1,5.4-0.4c5-2.8,7.4-4.2,11.2-6.5c0.4-0.3,1.4-0.7,0.5-1.3C39.2,15.2,37.1,14,33.4,12z M14.5,40.5
			c3.8,2.2,7.6,4.4,11.5,6.8c0-6.1,0-11.9,0-17.7c0-0.5-0.1-0.9-0.6-1.2c-3.5-2-7-4-10.5-6c-1.6-0.9-3.1-1.9-4.8-2.9
			c0,4.8,0,8-0.1,13.5C9.9,38,9.1,37.3,14.5,40.5z M44.4,19.4C39,22.5,34,25.4,29,28.4c-0.7,0.4-0.7,0.9-0.7,1.6
			c0,5.3,0,10.6,0,15.9c0,1.3,0.4,1.3,1.4,0.7c4.6-2.7,9.1-5.4,13.7-8c0.8-0.4,1.1-1,1.1-1.9C44.4,31,44.4,25.4,44.4,19.4z"/>
	</g>
</g>
<g id="Layer_3">
	<linearGradient id="SVGID_2_" gradientUnits="userSpaceOnUse" x1="7.0866" y1="28.3465" x2="49.6063" y2="28.3465">
		<stop  offset="0" style="stop-color:#63B046"/>
		<stop  offset="0.1065" style="stop-color:#62B049"/>
		<stop  offset="0.2972" style="stop-color:#5BB05F"/>
		<stop  offset="0.5501" style="stop-color:#4CB184"/>
		<stop  offset="0.8523" style="stop-color:#35B3AE"/>
		<stop  offset="1" style="stop-color:#15B4C5"/>
	</linearGradient>
	<path class="st6" d="M18,23.3c-0.9-0.9-0.9-2.3,0-3.1c0.9-0.9,2.3-0.9,3.1,0l5,5V11.5c0-1.2,1-2.2,2.2-2.2s2.2,1,2.2,2.2v13.8l5-5
		c0.9-0.9,2.3-0.9,3.1,0c0.9,0.9,0.9,2.3,0,3.1l-8.8,8.8c0,0,0,0,0,0c0,0-0.1,0.1-0.2,0.1c0,0-0.1,0-0.1,0.1c0,0-0.1,0-0.1,0.1
		c0,0-0.1,0-0.1,0.1c0,0-0.1,0-0.1,0.1c0,0-0.1,0-0.1,0c0,0-0.1,0-0.1,0c0,0-0.1,0-0.1,0c0,0-0.1,0-0.1,0c0,0-0.1,0-0.1,0
		c0,0-0.1,0-0.1,0c0,0-0.1,0-0.1,0c0,0-0.1,0-0.1,0c-0.1,0-0.1,0-0.2,0c-0.1,0-0.1,0-0.2,0c0,0-0.1,0-0.1,0c0,0-0.1,0-0.1,0
		c0,0-0.1,0-0.1,0c0,0-0.1,0-0.1,0c0,0-0.1,0-0.1,0c0,0-0.1,0-0.1,0c0,0-0.1,0-0.1,0c0,0-0.1,0-0.1,0c0,0-0.1,0-0.1-0.1
		c0,0-0.1,0-0.1-0.1c0,0-0.1,0-0.1-0.1c0,0-0.1,0-0.1-0.1c-0.1,0-0.1-0.1-0.2-0.1c0,0,0,0,0,0L18,23.3z M42.3,37.9
		c0-1.6-1.3-2.9-2.9-2.9c-1.6,0-2.9,1.3-2.9,2.9c0,1.6,1.3,2.9,2.9,2.9C41,40.8,42.3,39.5,42.3,37.9z M45.9,28.3h-7.2
		c-1.2,0-2.2,1-2.2,2.2c0,1.2,1,2.2,2.2,2.2h6.5V43H11.5V32.7H18c1.2,0,2.2-1,2.2-2.2c0-1.2-1-2.2-2.2-2.2h-7.2
		c-2,0-3.7,1.6-3.7,3.7v11.7c0,2,1.6,3.7,3.7,3.7h35.2c2,0,3.7-1.6,3.7-3.7V32C49.6,30,48,28.3,45.9,28.3z"/>
</g>
</svg>
