<?xml version="1.0" encoding="UTF-8"?>
<svg id="Layer_2" xmlns="http://www.w3.org/2000/svg" version="1.1" viewBox="0 0 342.62 62.36">
  <!-- Generator: Adobe Illustrator 30.5.0, SVG Export Plug-In . SVG Version: 2.1.4 Build 167)  -->
  <defs>
    <style>
      .st0 {
        fill: #fff;
      }
    </style>
  </defs>
  <path class="st0" d="M115.66,46.99l-2.48-7.75c-.89-2.18-1.62-3.42-3.06-3.97v-.43c5.22-1.97,8.21-6.4,8.21-12.17,0-8.26-5.99-13.6-15.25-13.6h-17.91v46.34h7.37v-17.28h10.59c1.55,0,1.89.27,2.57,2.02l3.75,10.6c1.61,4,2.64,4.66,7.32,4.66h2.51v-7.13h-1.79c-1.15,0-1.39-.17-1.85-1.28h.02ZM92.56,16.13h9.57c5.19,0,8.54,2.98,8.54,7.58,0,4.35-3.12,7.27-7.75,7.27h-10.35v-14.86h-.01Z"/>
  <path class="st0" d="M136.17,22.13c-9.16,0-15.31,6.86-15.31,17.07s6.27,17.07,15.61,17.07c7.27,0,13.15-4.33,14.64-10.76l.06-.27h-6.58l-.06.14c-1.2,3.02-4.13,4.82-7.83,4.82-5.1,0-8.51-3.3-9.18-8.85h24.06v-2.14c0-10.21-6.2-17.07-15.43-17.07h.02ZM136.17,28.27c4.81,0,7.97,3.11,8.69,8.54h-17.32c.72-5.43,3.86-8.54,8.63-8.54Z"/>
  <path class="st0" d="M177.67,27.46h-.38c-1.96-3.39-5.45-5.33-9.6-5.33-3.48,0-6.58,1.3-8.96,3.75-3,3.1-4.63,7.83-4.6,13.32,0,10.05,5.58,17.07,13.56,17.07,4.3,0,7.75-1.96,9.72-5.51h.26v4.65h6.95V9.06h-6.95v18.4h0ZM169.38,49.63c-4.89,0-8.18-4.19-8.18-10.43s3.29-10.37,8.18-10.37,8.24,4.17,8.24,10.37-3.31,10.43-8.24,10.43Z"/>
  <path class="st0" d="M211.41,28.7l-7.43-1.05c-4.2-.53-6.51-2.68-6.51-6.03,0-4.09,3.53-6.84,8.78-6.84s9.02,2.94,9.81,7.87l.03.19h7.74l-.04-.25c-1.3-8.9-8.07-14.44-17.66-14.44s-16.22,5.64-16.22,14.03c0,6.97,4.6,11.58,12.62,12.67l7.49,1.05c4.55.61,7.06,2.9,7.06,6.47,0,4.32-3.86,7.34-9.38,7.34-6.05,0-10.39-3.63-11.32-9.48l-.03-.19h-7.62l.04.26c1.47,9.71,8.94,15.98,19.05,15.98s16.88-5.95,16.88-14.47c0-7.25-4.72-11.9-13.29-13.1h0Z"/>
  <path class="st0" d="M238.3,15.01h-6.89v8.05h-5.98v6.26h5.92v19.35c0,4.59,2.08,6.72,6.56,6.72h7.46v-6.33h-5.83c-.84,0-1.23-.4-1.23-1.27v-18.48h7.06v-6.26h-7.06v-8.05h-.01Z"/>
  <path class="st0" d="M262.26,22.13c-9.38,0-15.67,6.86-15.67,17.07s6.3,17.07,15.67,17.07,15.61-6.86,15.61-17.07-6.28-17.07-15.61-17.07ZM262.26,49.63c-5.14,0-8.6-4.19-8.6-10.43s3.45-10.37,8.6-10.37,8.54,4.17,8.54,10.37-3.43,10.43-8.54,10.43Z"/>
  <path class="st0" d="M297.88,22.13c-4.05,0-7.64,2.2-9.61,5.88h-.32v-4.96h-6.59v32.34h6.95v-16.51c0-5.83,2.9-9.75,7.21-9.75,3.94,0,6.49,3.03,6.49,7.71v18.55h6.95v-21.34c0-7.14-4.45-11.93-11.08-11.93h0Z"/>
  <path class="st0" d="M342.62,39.2c0-10.21-6.2-17.07-15.43-17.07s-15.31,6.86-15.31,17.07,6.27,17.07,15.61,17.07c7.27,0,13.15-4.33,14.64-10.76l.06-.27h-6.58l-.06.14c-1.2,3.02-4.13,4.82-7.83,4.82-5.1,0-8.51-3.3-9.18-8.85h24.06v-2.14h.02ZM327.19,28.27c4.81,0,7.97,3.11,8.69,8.54h-17.32c.72-5.43,3.86-8.54,8.63-8.54Z"/>
  <path class="st0" d="M55.13.11l-.06-.11H18.42L0,31.18l18.35,31.07.06.11h36.65l18.42-31.18L55.13.11ZM23.91,13.77l-8.84,14.97H6.68L19.69,6.71l4.21,7.07h0ZM27.79,50.61h17.88l4.18,7.16h-26.25l4.18-7.16h.01ZM45.72,11.46h-17.94l-4.1-6.87h26.13l-4.1,6.87h.01ZM27.79,46.02l-8.85-14.98,8.85-14.98h17.89l8.85,14.98-8.85,14.98h-17.89ZM58.42,28.74l-8.84-14.96,4.21-7.07,13.01,22.03h-8.39.01ZM23.92,48.32l-4.26,7.29-13.15-22.27h8.56s8.85,14.98,8.85,14.98ZM66.98,33.33l-13.17,22.29-4.26-7.29,8.86-15h8.57Z"/>
</svg>