<?xml version="1.0" encoding="UTF-8"?>
<svg id="Layer_10" data-name="Layer 10" xmlns="http://www.w3.org/2000/svg" viewBox="0 0 359.3 61.92">
  <defs>
    <style>
      .cls-1 {
        fill: #fff;
      }
    </style>
  </defs>
  <path class="cls-1" d="M124.4,46.66l-2.46-7.7c-.88-2.16-1.61-3.4-3.04-3.94v-.43c5.18-1.96,8.15-6.35,8.15-12.08,0-8.2-5.95-13.5-15.14-13.5h-17.78v46.01h7.32v-17.16h10.52c1.54,0,1.88.27,2.55,2.01l3.72,10.53c1.6,3.97,2.62,4.63,7.27,4.63h2.49v-7.08h-1.78c-1.14,0-1.38-.17-1.84-1.27h.02ZM101.47,16.02h9.5c5.15,0,8.48,2.96,8.48,7.53,0,4.32-3.1,7.22-7.7,7.22h-10.28v-14.76h0Z"/>
  <path class="cls-1" d="M144.77,21.97c-9.1,0-15.2,6.81-15.2,16.95s6.23,16.95,15.5,16.95c7.22,0,13.06-4.3,14.54-10.68l.06-.27h-6.53l-.06.14c-1.19,3-4.1,4.79-7.77,4.79-5.06,0-8.45-3.28-9.12-8.79h23.89v-2.12c0-10.14-6.16-16.95-15.32-16.95h.02ZM144.77,28.07c4.78,0,7.91,3.09,8.63,8.48h-17.2c.71-5.39,3.83-8.48,8.57-8.48Z"/>
  <path class="cls-1" d="M185.97,27.27h-.38c-1.95-3.37-5.41-5.29-9.53-5.29-3.46,0-6.53,1.29-8.9,3.72-2.98,3.08-4.6,7.77-4.57,13.23,0,9.98,5.54,16.95,13.46,16.95,4.27,0,7.7-1.95,9.65-5.47h.26v4.62h6.9V9h-6.9v18.27h0ZM177.74,49.28c-4.86,0-8.12-4.16-8.12-10.36s3.27-10.3,8.12-10.3,8.18,4.14,8.18,10.3-3.29,10.36-8.18,10.36Z"/>
  <path class="cls-1" d="M219.48,28.5l-7.38-1.04c-4.17-.53-6.46-2.66-6.46-5.99,0-4.06,3.51-6.79,8.72-6.79s8.96,2.92,9.74,7.81l.03.19h7.69l-.04-.25c-1.29-8.84-8.01-14.34-17.54-14.34s-16.11,5.6-16.11,13.93c0,6.92,4.57,11.5,12.53,12.58l7.44,1.04c4.52.61,7.01,2.88,7.01,6.42,0,4.29-3.83,7.29-9.31,7.29-6.01,0-10.32-3.6-11.24-9.41l-.03-.19h-7.57l.04.26c1.46,9.64,8.88,15.87,18.92,15.87s16.76-5.91,16.76-14.37c0-7.2-4.69-11.82-13.2-13.01h0Z"/>
  <path class="cls-1" d="M246.18,14.9h-6.84v7.99h-5.94v6.22h5.88v19.21c0,4.56,2.07,6.67,6.51,6.67h7.41v-6.29h-5.79c-.83,0-1.22-.4-1.22-1.26v-18.35h7.01v-6.22h-7.01v-7.99h0Z"/>
  <path class="cls-1" d="M269.97,21.97c-9.31,0-15.56,6.81-15.56,16.95s6.26,16.95,15.56,16.95,15.5-6.81,15.5-16.95-6.24-16.95-15.5-16.95ZM269.97,49.28c-5.1,0-8.54-4.16-8.54-10.36s3.43-10.3,8.54-10.3,8.48,4.14,8.48,10.3-3.41,10.36-8.48,10.36Z"/>
  <path class="cls-1" d="M305.34,21.97c-4.02,0-7.59,2.18-9.54,5.84h-.32v-4.93h-6.54v32.11h6.9v-16.39c0-5.79,2.88-9.68,7.16-9.68,3.91,0,6.44,3.01,6.44,7.66v18.42h6.9v-21.19c0-7.09-4.42-11.85-11-11.85h0Z"/>
  <path class="cls-1" d="M349.76,38.92c0-10.14-6.16-16.95-15.32-16.95s-15.2,6.81-15.2,16.95,6.23,16.95,15.5,16.95c7.22,0,13.06-4.3,14.54-10.68l.06-.27h-6.53l-.06.14c-1.19,3-4.1,4.79-7.77,4.79-5.06,0-8.45-3.28-9.12-8.79h23.89v-2.12h.02,0ZM334.44,28.07c4.78,0,7.91,3.09,8.63,8.48h-17.2c.71-5.39,3.83-8.48,8.57-8.48Z"/>
  <path class="cls-1" d="M64.3.11L64.24,0H27.85L9.56,30.96l18.22,30.85.06.11h36.39l18.29-30.96L64.3.11ZM33.3,13.67l-8.78,14.86h-8.33L29.11,6.66l4.18,7.02h0ZM37.15,50.25h17.75l4.15,7.11h-26.06l4.15-7.11h0ZM54.96,11.38h-17.81l-4.07-6.82h25.95l-4.07,6.82h0ZM37.15,45.7l-8.79-14.87,8.79-14.87h17.76l8.79,14.87-8.79,14.87h-17.76ZM67.57,28.54l-8.78-14.85,4.18-7.02,12.92,21.87h-8.33,0ZM33.31,47.98l-4.23,7.24-13.06-22.11h8.5s8.79,14.87,8.79,14.87ZM76.07,33.09l-13.08,22.13-4.23-7.24,8.8-14.89h8.51Z"/>
</svg>