<?xml version="1.0" encoding="UTF-8"?>
<svg id="Layer_2" xmlns="http://www.w3.org/2000/svg" version="1.1" viewBox="0 0 360.8 62.2">
  <!-- Generator: Adobe Illustrator 30.3.0, SVG Export Plug-In . SVG Version: 2.1.3 Build 182)  -->
  <defs>
    <style>
      .st0 {
        fill: #0049ff;
      }

      .st1 {
        fill: #191919;
        fill-rule: evenodd;
      }
    </style>
  </defs>
  <path class="st0" d="M105.96,58.8l-15.04-23.58c2.66-1.2,5-3.01,6.83-5.28,2.65-3.3,4.1-7.4,4.1-11.63C101.85,8.1,93.54-.21,83.32-.21h-29.1c-1.14,0-2.07.93-2.07,2.07v58.06c0,1.14.93,2.07,2.07,2.07h50c1.14,0,2.07-.93,2.07-2.07,0-.4-.11-.78-.33-1.12h0ZM83.32,3.8c8.01,0,14.52,6.52,14.52,14.52,0,3.36-1.11,6.51-3.21,9.11-1.56,1.93-3.59,3.43-5.89,4.37L70.87,3.8h12.45ZM74.66,32.43l4.85-7.63,4.87,7.63h-9.72ZM77.47,36.44v21.54h-19.06l13.7-21.54h5.36,0ZM56.16,3.8h9.95l11.02,17.27-7.22,11.36h-13.75V3.8ZM67.36,36.44l-11.2,17.61v-17.6h11.2,0ZM81.48,57.98v-21.54h5.45l13.74,21.54h-19.2Z"/>
  <path class="st1" d="M130.98,31.49h5.61c1.54,0,2.78-.21,3.75-.63.96-.43,1.66-1.04,2.12-1.84.47-.81.71-1.82.71-3.02s-.24-2.22-.71-3.06c-.46-.85-1.17-1.49-2.14-1.92h0c-.96-.45-2.21-.68-3.76-.68h-5.58v11.15h0ZM124.4,49.66V14.79h13.12c2.67,0,4.93.46,6.75,1.4,1.84.94,3.23,2.25,4.17,3.94.95,1.68,1.42,3.64,1.42,5.86s-.48,4.19-1.44,5.85c-.95,1.65-2.35,2.92-4.2,3.83-.16.08-.33.15-.5.23l7.52,13.76h-7.35l-6.79-12.65h-6.11v12.65h-6.58ZM158.52,33.94h11.85c-.03-1.08-.28-2.04-.74-2.88-.46-.88-1.16-1.61-2.01-2.11-.85-.51-1.84-.77-2.99-.77-1.22,0-2.29.3-3.2.89-.91.57-1.65,1.36-2.15,2.3-.43.8-.68,1.68-.75,2.58h0ZM158.05,48.52c-1.9-1.11-3.37-2.67-4.4-4.69-1.03-2.03-1.54-4.41-1.54-7.14s.51-5.05,1.54-7.09c1.04-2.05,2.48-3.65,4.34-4.79,1.86-1.15,4.05-1.73,6.54-1.73,1.61,0,3.14.26,4.58.78,1.44.51,2.75,1.32,3.84,2.4,1.12,1.09,2,2.47,2.64,4.14.64,1.66.95,3.64.95,5.93v2.03h-18.04c.04,1.35.3,2.52.8,3.49.54,1.04,1.29,1.84,2.25,2.4.96.55,2.09.82,3.39.82.87,0,1.66-.12,2.36-.36.67-.24,1.29-.61,1.82-1.1.51-.48.9-1.07,1.16-1.78l.04-.12,6.01.68-.04.18c-.37,1.53-1.06,2.87-2.1,4.02-1.02,1.13-2.32,2.01-3.91,2.64-1.58.62-3.39.92-5.42.92-2.62,0-4.89-.54-6.81-1.64h0ZM197.5,40.82c.46-1.25.7-2.68.7-4.28,0-1.6-.23-3-.68-4.23-.45-1.22-1.12-2.18-2.01-2.86-.88-.68-1.98-1.03-3.31-1.03s-2.35.33-3.23,1c-.88.66-1.56,1.6-2.02,2.81-.45,1.22-.68,2.65-.68,4.31,0,1.66.23,3.11.7,4.35.47,1.24,1.15,2.19,2.02,2.88.88.67,1.94,1.01,3.21,1.01s2.41-.35,3.29-1.04c.89-.71,1.56-1.68,2.01-2.92h0ZM179.96,59.38V23.43h6.33v4.29h.1c.32-.62.75-1.26,1.31-1.95.59-.74,1.39-1.37,2.38-1.88,1.01-.53,2.29-.79,3.82-.79,2.03,0,3.86.52,5.5,1.56,1.65,1.03,2.95,2.56,3.91,4.57.97,2.01,1.45,4.46,1.45,7.36s-.47,5.3-1.42,7.32c-.94,2.01-2.23,3.56-3.87,4.62-1.64,1.06-3.49,1.6-5.55,1.6-1.5,0-2.76-.25-3.77-.76-.99-.5-1.8-1.11-2.41-1.83h0c-.56-.68-1.01-1.33-1.34-1.94v13.79h-6.43ZM224.74,23.43h6.43v26.23h-6.24v-4.61h0c-.6,1.44-1.57,2.61-2.9,3.53-1.36.94-3.03,1.41-5,1.41-1.72,0-3.25-.38-4.58-1.15h0c-1.32-.78-2.35-1.91-3.1-3.39-.74-1.49-1.11-3.28-1.11-5.37v-16.66h6.43v15.71c0,1.61.44,2.87,1.31,3.8.87.93,2,1.4,3.43,1.4.87,0,1.72-.21,2.54-.64.82-.42,1.49-1.06,2.01-1.9.53-.85.8-1.91.8-3.21v-15.17h0ZM253.5,40.82c.46-1.25.7-2.68.7-4.28,0-1.6-.23-3-.68-4.23-.45-1.22-1.12-2.18-2.01-2.86-.88-.68-1.98-1.03-3.31-1.03s-2.35.33-3.23,1c-.88.66-1.56,1.6-2.02,2.81-.45,1.22-.68,2.65-.68,4.31,0,1.66.23,3.11.7,4.35.47,1.24,1.15,2.19,2.02,2.88.88.67,1.95,1.01,3.21,1.01s2.41-.35,3.29-1.04c.89-.71,1.56-1.68,2.01-2.91h0ZM235.97,49.66V14.79h6.43v12.91c.32-.61.75-1.26,1.3-1.94.59-.74,1.39-1.37,2.38-1.88,1.01-.53,2.28-.79,3.82-.79,2.03,0,3.86.52,5.5,1.56,1.65,1.03,2.95,2.56,3.91,4.57.97,2.01,1.45,4.46,1.45,7.36s-.47,5.3-1.42,7.32c-.94,2.01-2.23,3.56-3.87,4.62-1.64,1.06-3.49,1.6-5.55,1.6-1.5,0-2.76-.25-3.77-.76-.99-.5-1.8-1.11-2.41-1.83h0c-.56-.69-1.01-1.34-1.34-1.95h-.1v4.08h-6.33ZM290.83,48.44c-1.87-1.15-3.31-2.74-4.33-4.77-1-2.04-1.5-4.38-1.5-7.02s.51-5,1.54-7.04c1.03-2.05,2.47-3.65,4.34-4.79,1.89-1.15,4.11-1.73,6.66-1.73,2.12,0,4.01.39,5.65,1.18,1.66.78,2.98,1.88,3.96,3.31.99,1.42,1.54,3.08,1.68,4.97v.17s-6.13,0-6.13,0l-.02-.13c-.23-1.22-.78-2.23-1.64-3.03h0c-.84-.81-1.97-1.22-3.41-1.22-1.22,0-2.28.33-3.2.98-.92.64-1.64,1.57-2.15,2.8-.51,1.22-.76,2.7-.76,4.43s.26,3.25.76,4.49c.51,1.24,1.22,2.18,2.12,2.85.91.65,1.99.98,3.23.98.88,0,1.66-.16,2.34-.49.69-.33,1.29-.83,1.75-1.45.47-.63.79-1.4.97-2.31l.03-.13h6.14v.17c-.16,1.86-.71,3.51-1.66,4.95-.95,1.43-2.24,2.55-3.87,3.36-1.63.8-3.55,1.2-5.74,1.2-2.61,0-4.86-.57-6.75-1.73h0ZM275.78,19.07c-.73-.68-1.1-1.51-1.1-2.46s.37-1.79,1.1-2.46c.73-.68,1.6-1.02,2.61-1.02s1.89.34,2.61,1.02c.73.67,1.1,1.49,1.1,2.46s-.37,1.78-1.1,2.46c-.72.67-1.59,1.01-2.61,1.01s-1.88-.34-2.61-1h0ZM275.15,49.66v-26.23h6.43v26.23h-6.43ZM270.62,14.79v34.87h-6.43V14.79h6.43Z"/>
</svg>