<?xml version="1.0" encoding="UTF-8"?>
<svg id="Layer_2" data-name="Layer 2" xmlns="http://www.w3.org/2000/svg" viewBox="0 0 360.8 62.2">
  <defs>
    <style>
      .cls-1 {
        fill: #7e7e7e;
      }

      .cls-2 {
        fill: #005d9d;
      }

      .cls-3 {
        fill: #e42e38;
      }
    </style>
  </defs>
  <g id="SBI_VC" data-name="SBI VC">
    <path class="cls-1" d="M164.08,61.33l-5.66-28.27h4.13l3.49,20.54c.28,1.65.49,3.19.61,4.63.74-1.54,1.56-3.09,2.45-4.63l11.77-20.54h3.89l-16.77,28.27h-3.91ZM204.08,51.41l3.63.94c-1.4,3.07-3.29,5.42-5.68,7.03-2.39,1.61-5.08,2.42-8.08,2.42s-5.51-.62-7.21-1.86c-1.7-1.24-2.83-3.04-3.39-5.39-.56-2.35-.57-4.88-.05-7.58.57-2.94,1.64-5.51,3.22-7.7,1.57-2.19,3.53-3.86,5.86-4.99,2.34-1.14,4.77-1.71,7.32-1.71,2.88,0,5.16.72,6.85,2.16,1.69,1.44,2.66,3.47,2.93,6.07l-3.92.87c-.27-2.06-.95-3.55-2.03-4.49-1.09-.94-2.59-1.41-4.52-1.41-2.21,0-4.17.52-5.85,1.56-1.69,1.04-3.01,2.44-3.95,4.19s-1.6,3.56-1.96,5.43c-.47,2.4-.52,4.5-.15,6.3.37,1.79,1.21,3.13,2.55,4.02,1.33.89,2.88,1.33,4.63,1.33,2.13,0,4.06-.6,5.77-1.81,1.71-1.21,3.07-3,4.05-5.38h0ZM225.86,61.33l4.85-24.94h-9.49l.65-3.34h22.83l-.65,3.34h-9.53l-4.85,24.94h-3.81ZM240.08,61.33l3.98-20.48h3.18l-.6,3.1c1.09-1.45,2.03-2.41,2.81-2.87.78-.46,1.58-.69,2.4-.69,1.19,0,2.33.37,3.42,1.12l-1.84,3.22c-.77-.5-1.58-.75-2.45-.75-.77,0-1.51.23-2.22.68-.7.46-1.27,1.09-1.69,1.9-.63,1.23-1.09,2.58-1.38,4.05l-2.08,10.72h-3.54,0ZM269.56,51.05c-1.38.51-3.39.95-6.03,1.31-1.49.21-2.57.44-3.22.69-.65.26-1.19.63-1.61,1.13-.42.49-.69,1.04-.81,1.65-.18.93.03,1.7.62,2.31.59.62,1.58.93,2.95.93s2.63-.29,3.81-.88c1.17-.58,2.11-1.39,2.8-2.4.53-.78.95-1.94,1.24-3.47l.25-1.27h0ZM268.35,58.8c-1.52,1.09-2.93,1.86-4.23,2.31-1.3.45-2.64.67-4.03.67-2.29,0-3.95-.55-4.96-1.65-1.02-1.1-1.36-2.5-1.03-4.21.19-1,.61-1.92,1.23-2.75.63-.83,1.36-1.49,2.22-2,.85-.5,1.77-.88,2.77-1.14.73-.18,1.81-.35,3.24-.52,2.92-.33,5.1-.73,6.54-1.2.11-.48.17-.78.2-.91.27-1.41.13-2.41-.42-2.99-.75-.78-2.02-1.18-3.8-1.18-1.66,0-2.95.29-3.85.86-.9.57-1.69,1.58-2.35,3.04l-3.37-.46c.6-1.45,1.34-2.63,2.24-3.52.89-.89,2.07-1.58,3.52-2.06,1.46-.48,3.08-.72,4.88-.72s3.19.21,4.22.62c1.03.41,1.75.93,2.15,1.55.4.62.62,1.41.64,2.36,0,.59-.15,1.66-.45,3.2l-.9,4.63c-.63,3.23-.95,5.27-.96,6.12-.02.86.12,1.67.42,2.46h-3.69c-.23-.72-.3-1.56-.22-2.53h0ZM280.48,51.11c-.51,2.62-.33,4.58.55,5.88.87,1.3,2.08,1.95,3.61,1.95s2.98-.62,4.3-1.86c1.32-1.24,2.23-3.13,2.72-5.68.54-2.8.39-4.86-.45-6.17-.85-1.31-2.07-1.97-3.68-1.97s-3.01.63-4.31,1.89c-1.3,1.26-2.21,3.25-2.74,5.96h0ZM289.68,61.33l.5-2.58c-1.72,2.03-3.86,3.05-6.43,3.05-1.66,0-3.11-.45-4.32-1.35-1.22-.9-2.06-2.16-2.51-3.77-.45-1.61-.48-3.47-.07-5.56.4-2.04,1.1-3.9,2.12-5.56,1.02-1.66,2.31-2.94,3.87-3.83,1.56-.89,3.2-1.33,4.91-1.33,1.26,0,2.33.26,3.21.78.88.52,1.55,1.2,2,2.03l1.97-10.14h3.52l-5.5,28.27h-3.28,0ZM302.84,49.12h11.65c.18-1.72-.02-3.02-.58-3.88-.87-1.34-2.2-2.01-3.99-2.01-1.62,0-3.09.53-4.41,1.6-1.31,1.07-2.2,2.49-2.67,4.28ZM313.36,54.73l3.57.44c-.98,2.1-2.37,3.72-4.15,4.88-1.78,1.16-3.89,1.74-6.31,1.74-3.05,0-5.29-.92-6.72-2.77-1.43-1.84-1.82-4.43-1.17-7.76.67-3.45,2.09-6.12,4.27-8.02,2.18-1.9,4.71-2.85,7.59-2.85s4.89.93,6.29,2.8c1.41,1.86,1.78,4.49,1.12,7.87-.04.21-.11.51-.2.93h-15.56c-.31,2.25,0,3.97.94,5.17.93,1.2,2.27,1.79,4.01,1.79,1.3,0,2.47-.33,3.52-1,1.05-.67,1.98-1.74,2.8-3.2h0Z"/>
    <g>
      <path class="cls-2" d="M65.99,49.31c-.78,4.25,1.4,5.61,5.17,5.61,2.67,0,5.67-1.02,6.28-3.69.72-3.18-4.01-3.79-8.6-5.26-4.54-1.46-9.12-3.79-7.62-10.42,1.79-7.88,9.98-10.97,16.38-10.97,6.78,0,12.82,3.49,11.02,11.64h-8.88c.89-3.29-1.78-4.35-4.5-4.35-1.91,0-4.46.7-5,3.08-.63,2.78,4.17,3.29,8.8,4.76,4.59,1.46,9,3.89,7.52,10.41-2.07,9.15-10.09,12.08-17.59,12.08s-13.93-3.64-11.88-12.89h8.89Z"/>
      <polygon class="cls-2" points="127.44 25.34 136.32 25.34 128.13 61.44 119.25 61.44 127.44 25.34"/>
      <path class="cls-2" d="M97.48,53.91h7.12c2.82,0,5.01-1.06,5.69-4.04.72-3.19-1.14-4.25-3.82-4.25h-7.11l-1.88,8.29h0ZM100.73,39.55h6.87c1.53,0,3.82-.86,4.41-3.44.6-2.63-.97-3.49-2.83-3.49h-6.88l-1.57,6.93ZM95.07,25.34h15.94c5.9-.1,11.98,1.52,10.27,9.05-.74,3.24-3.14,5.87-6.14,7.28,3.38,1.11,4.86,4.46,3.94,8.55-1.95,8.6-8.51,11.22-15.82,11.22h-16.37l8.18-36.1h0Z"/>
      <path class="cls-3" d="M148.72,10.84c-4.91-13.04-33-14.52-62.73-3.33-21.2,7.99-37.51,20.28-43.35,31.4,8.07-8.43,21.1-16.71,36.82-22.63,29.73-11.21,57.82-9.71,62.73,3.33,1.41,3.74.76,8.02-1.59,12.5,7.19-7.51,10.43-15.12,8.12-21.26h0Z"/>
    </g>
  </g>
</svg>