<?xml version="1.0" encoding="UTF-8"?>
<svg id="Settlemint" xmlns="http://www.w3.org/2000/svg" xmlns:xlink="http://www.w3.org/1999/xlink" viewBox="0 0 359.3 61.92">
  <defs>
    <style>
      .cls-1 {
        fill: #fff;
      }

      .cls-2 {
        fill: url(#radial-gradient);
      }
    </style>
    <radialGradient id="radial-gradient" cx="-51.17" cy=".11" fx="-51.17" fy=".11" r="1.09" gradientTransform="translate(1418.0126 28.0863) scale(26.3955 25.742)" gradientUnits="userSpaceOnUse">
      <stop offset="0" stop-color="#2b3086"/>
      <stop offset=".15" stop-color="#2c3e98"/>
      <stop offset=".29" stop-color="#344b9f"/>
      <stop offset=".43" stop-color="#3953a3"/>
      <stop offset=".57" stop-color="#4058a6"/>
      <stop offset=".72" stop-color="#4972b7"/>
      <stop offset=".86" stop-color="#4dafd7"/>
      <stop offset="1" stop-color="#80ccbd"/>
    </radialGradient>
  </defs>
  <g id="Settlemint-2" data-name="Settlemint">
    <path class="cls-2" d="M94.08,45.98V15.93L67.39.91l-26.69,15.02v30.05l26.69,15.03,26.69-15.03h0Z"/>
    <path class="cls-1" d="M67.08.08l-26.95,15.17c-.19.12-.32.32-.32.54v30.34c0,.22.12.43.32.54l26.95,15.17c.2.11.44.11.64,0l26.95-15.17c.2-.11.32-.31.32-.54V15.79c0-.22-.12-.43-.32-.54L67.7.08c-.2-.11-.44-.11-.63,0ZM81.13,21.87l-10.29-5.82c-.42-.24-.42-.83,0-1.06l9.56-5.38c.2-.11.44-.11.64,0l10.32,5.81c.42.24.42.83,0,1.06l-9.6,5.4c-.2.11-.44.11-.64,0h0ZM42.53,17.94l23.66,13.31c.2.11.32.31.32.54v11.29c0,.47-.52.77-.94.54l-23.67-13c-.2-.11-.32-.32-.32-.54v-11.61c0-.48.53-.77.94-.54h0ZM68.59,45.95l11.02-6.21c.42-.24.94.06.94.54v11.97c0,.22-.12.43-.32.54l-11.02,6.21c-.42.24-.94-.06-.94-.54v-11.97c0-.23.12-.43.32-.54ZM80.24,37.39l-11.02,6.21c-.42.24-.94-.06-.94-.54v-11.26c0-.22.12-.43.32-.54l11.02-6.21c.42-.24.94.06.94.54v11.26c0,.22-.12.42-.32.53h0ZM67.08,29.77l-10.31-5.81c-.42-.24-.42-.83,0-1.06l11.05-6.23c.2-.11.44-.11.64,0l10.29,5.82c.42.24.42.83,0,1.06l-11.03,6.21c-.2.12-.45.12-.64,0h0ZM78.01,8.95l-23.65,13.31c-.2.11-.44.11-.64,0l-10.49-5.91c-.34-.19-.34-.67,0-.85l23.85-13.42c.2-.11.44-.11.64,0l10.31,5.81c.42.24.42.83,0,1.06h0ZM42.53,32.95l23.66,13c.2.11.32.32.32.54v11.97c0,.48-.53.77-.94.54l-23.66-13.32c-.2-.11-.32-.31-.32-.54v-11.65c0-.48.52-.77.94-.54ZM82.33,50.54v-26.65c0-.22.12-.43.32-.54l9.6-5.4c.42-.24.94.06.94.54v26.64c0,.22-.12.43-.32.54l-9.6,5.4c-.42.24-.94-.06-.94-.54h0Z"/>
    <path class="cls-1" d="M212.03,33.58h8.74c-.15-1.14-.57-1.93-1.31-2.52-1.01-.79-2.26-1.05-3.93-.8-1.81.27-3.11,1.53-3.49,3.32h0ZM226.68,42.44c-.43.79-.97,1.51-1.61,2.12-1.98,1.9-4.49,2.96-7.51,3.15-.36.02-.7.03-1.03.03-2.1,0-3.95-.43-5.61-1.29-2.81-1.47-4.62-3.8-5.39-6.92-.82-3.35-.52-6.45.91-9.26,1.6-3.14,4.24-5.03,7.85-5.66,2.96-.52,5.66-.14,8.02,1.1,2.69,1.41,4.46,3.74,5.27,6.91.45,1.75.42,3.52.39,5.26v.72h-16.14c.19.92.6,1.6,1.26,2.12,1.74,1.37,4.89,1.45,6.63.17.25-.18.48-.42.69-.67l6.25,2.21h.02ZM147.82,30.27c1.67-.25,2.92,0,3.93.8.74.59,1.16,1.37,1.32,2.52h-8.74c.38-1.8,1.69-3.05,3.49-3.32h0ZM152.72,40.22c-.21.25-.44.48-.69.67-1.74,1.27-4.89,1.19-6.63-.17-.67-.53-1.07-1.2-1.26-2.11h16.13v-.73c.04-1.73.07-3.51-.38-5.26-.81-3.18-2.59-5.5-5.27-6.91-2.36-1.24-5.05-1.61-8.02-1.1-3.61.63-6.26,2.53-7.85,5.66-1.43,2.81-1.74,5.93-.91,9.26.77,3.13,2.59,5.45,5.39,6.92,1.66.86,3.49,1.29,5.6,1.29.34,0,.69,0,1.03-.03,3.01-.19,5.53-1.24,7.51-3.15.64-.62,1.17-1.33,1.61-2.12l-6.25-2.21h0ZM264.68,16.24v30.91h-7.22v-15.61l-6.28,15.65h-6.76l-6.17-15.46v15.43h-7.02v-30.91h7.49l9.11,22.05,9.14-22.05h7.71,0ZM268.94,47.16h7.02v-22.1h-7.02v22.1ZM194.85,16.24h7.03v30.91h-7.03v-30.91ZM315.37,25.02v-8.77h-6.99v8.79h-4.16v5.83h4.17v16.29h7.02v-16.27h4.09v-5.87h-4.13ZM302.3,47.19h-7.06s0-8.63,0-11.91c0-.7-.05-1.31-.15-1.88-.25-1.51-1.29-2.4-3.08-2.66-1.03-.15-2.05.07-3.13.65-.97.53-1.49,1.39-1.63,2.72-.04.36-.06.73-.06,1.24v11.83h-7.06l.05-22.14h6.64l.14,1.38c1.07-.99,2.42-1.61,4.12-1.89,2.19-.36,4.26-.16,6.15.59,2.62,1.05,4.24,3.07,4.81,6.02.15.78.23,1.65.24,2.63v13.42h.02ZM192.33,25.02h-4.19v-8.77h-6.96v8.77h-8.62v-8.77h-6.97v8.81h-4.17v5.83h4.18v16.29h6.96v-16.29h8.62v16.29h6.95v-16.3l4.19.02v-5.87h0ZM133.15,32.09c1.52,1.94,2.11,4.24,1.79,6.87-.52,4.06-2.91,6.76-7.13,8.05-1.74.53-3.47.79-5.15.79-2.17,0-4.31-.44-6.36-1.31-3.08-1.29-5.05-3.44-5.89-6.36-.07-.23-.12-.46-.17-.7-.03-.12-.05-.23-.08-.35l-.08-.37,6.93-1.73.11.35c.03.1.06.21.1.31.06.21.12.41.2.59.48,1.19,1.44,2,2.97,2.44,1.61.48,3.25.51,4.87.09,1.09-.28,1.81-.79,2.18-1.58.65-1.34.13-2.86-1.2-3.53-.68-.35-1.46-.55-2.21-.74-.81-.21-1.61-.41-2.38-.59-1.37-.33-2.78-.67-4.14-1.1-2.85-.91-4.84-2.66-5.92-5.19-1.03-2.44-1.02-5.46.05-7.87,1.01-2.3,2.91-4.02,5.49-4.99,3.81-1.43,7.61-1.37,11.28.18,3.05,1.29,4.98,3.56,5.73,6.77.06.24.15.7.15.7,0,0-.45.13-.68.19-1.86.47-3.73.95-5.55,1.42-.11.03-.75.19-.75.19,0,0-.12-.46-.17-.69-.64-2.45-2.99-2.92-3.96-3.01-1.29-.12-2.25,0-3.1.37-1.25.55-1.87,1.44-1.88,2.71,0,1.21.6,2.07,1.82,2.55.65.26,1.35.45,2.03.62l.6.15c.64.17,1.28.34,1.92.5,1.2.3,2.44.62,3.64.99,2.1.67,3.78,1.77,4.98,3.3h-.03ZM272.49,14.3h-.02c-2.29,0-4.09,1.73-4.1,3.93,0,1.06.41,2.06,1.16,2.79.76.75,1.81,1.17,2.92,1.17h.02c2.19,0,3.99-1.76,4-3.93,0-1.07-.41-2.09-1.16-2.82s-1.76-1.14-2.82-1.14Z"/>
  </g>
</svg>