<?xml version="1.0" encoding="UTF-8"?>
<svg id="Layer_1" data-name="Layer 1" xmlns="http://www.w3.org/2000/svg" viewBox="0 0 368.5 56.69">
  <defs>
    <style>
      .cls-1, .cls-2 {
        fill: #fff;
      }

      .cls-2 {
        fill-rule: evenodd;
      }
    </style>
  </defs>
  <path class="cls-2" d="M43.7.62h56.45c1.71,0,3.11,1.4,3.11,3.11v9.63c0,1.71-1.4,3.11-3.11,3.11h-56.45c-1.71,0-3.11-1.4-3.11-3.11V3.73c0-1.71,1.4-3.11,3.11-3.11Z"/>
  <path class="cls-2" d="M38.39,40.23h57.58c1.73,0,3.14,1.41,3.14,3.14v9.58c0,1.73-1.41,3.14-3.14,3.14h-57.58c-1.73,0-3.14-1.41-3.14-3.14v-9.58c0-1.73,1.41-3.14,3.14-3.14Z"/>
  <path class="cls-2" d="M30.52,17.74l56.76,4.28c1.7.13,2.99,1.63,2.86,3.33l-.72,9.61c-.13,1.7-1.63,2.99-3.33,2.86l-56.76-4.28c-1.7-.13-2.99-1.63-2.86-3.33l.72-9.61c.13-1.7,1.63-2.99,3.33-2.86Z"/>
  <path class="cls-1" d="M296.12,55.74V1.69h32.41v5.81h-25.87v18.26h23.44v5.81h-23.44v24.18h-6.55Z"/>
  <path class="cls-1" d="M334.44,55.74V15.2h6.23v40.54h-6.23ZM337.61,8.45c-1.22,0-2.26-.41-3.14-1.24-.86-.83-1.29-1.82-1.29-2.98s.43-2.16,1.29-2.98c.88-.83,1.93-1.24,3.14-1.24s2.25.41,3.11,1.24c.88.83,1.32,1.82,1.32,2.98s-.44,2.16-1.32,2.98c-.86.83-1.9,1.24-3.11,1.24Z"/>
  <path class="cls-1" d="M156.56,24.28l-5.6,1.58c-.35-.93-.87-1.84-1.56-2.72-.67-.9-1.58-1.64-2.74-2.22-1.16-.58-2.65-.87-4.46-.87-2.48,0-4.55.57-6.2,1.72-1.64,1.13-2.45,2.56-2.45,4.3,0,1.55.56,2.77,1.69,3.67,1.13.9,2.89,1.65,5.28,2.24l6.02,1.48c3.62.88,6.33,2.23,8.1,4.04,1.78,1.79,2.67,4.11,2.67,6.94,0,2.32-.67,4.4-2.01,6.23-1.32,1.83-3.17,3.27-5.54,4.33-2.38,1.06-5.14,1.58-8.29,1.58-4.13,0-7.56-.9-10.27-2.69-2.71-1.79-4.43-4.42-5.15-7.87l5.91-1.48c.56,2.18,1.63,3.82,3.19,4.91,1.58,1.09,3.65,1.64,6.2,1.64,2.9,0,5.21-.62,6.92-1.85,1.72-1.25,2.59-2.74,2.59-4.49,0-1.41-.49-2.59-1.48-3.54-.99-.97-2.5-1.69-4.54-2.16l-6.76-1.58c-3.71-.88-6.44-2.24-8.18-4.09-1.72-1.87-2.59-4.2-2.59-6.99,0-2.29.64-4.31,1.93-6.07,1.3-1.76,3.07-3.14,5.31-4.14,2.25-1,4.8-1.5,7.65-1.5,4.01,0,7.16.88,9.45,2.64,2.3,1.76,3.94,4.08,4.91,6.97Z"/>
  <path class="cls-1" d="M179.85,15.2v5.28h-21.01v-5.28h21.01ZM164.96,5.49h6.23v38.64c0,1.76.26,3.08.77,3.96.53.86,1.2,1.44,2.01,1.74.83.28,1.7.42,2.61.42.69,0,1.25-.04,1.69-.11.44-.09.79-.16,1.06-.21l1.27,5.6c-.42.16-1.01.32-1.77.48-.76.18-1.72.26-2.88.26-1.76,0-3.48-.38-5.17-1.14-1.67-.76-3.06-1.91-4.17-3.46-1.09-1.55-1.64-3.5-1.64-5.86V5.49Z"/>
  <path class="cls-1" d="M196.69,56.69c-2.57,0-4.9-.48-6.99-1.45-2.09-.99-3.76-2.4-4.99-4.25-1.23-1.87-1.85-4.12-1.85-6.76,0-2.32.46-4.21,1.37-5.65.91-1.46,2.14-2.6,3.67-3.43,1.53-.83,3.22-1.44,5.07-1.85,1.87-.42,3.74-.76,5.62-1,2.46-.32,4.46-.55,5.99-.71,1.55-.18,2.67-.47,3.38-.87.72-.4,1.08-1.11,1.08-2.11v-.21c0-2.6-.71-4.63-2.14-6.07-1.41-1.44-3.55-2.16-6.41-2.16s-5.31.65-6.99,1.95c-1.69,1.3-2.88,2.69-3.56,4.17l-5.91-2.11c1.06-2.46,2.46-4.38,4.22-5.75,1.78-1.39,3.71-2.36,5.81-2.9,2.11-.56,4.19-.84,6.23-.84,1.3,0,2.8.16,4.49.48,1.71.3,3.35.92,4.94,1.87,1.6.95,2.93,2.38,3.99,4.3,1.06,1.92,1.58,4.49,1.58,7.71v26.71h-6.23v-5.49h-.32c-.42.88-1.13,1.82-2.11,2.82-.99,1-2.3,1.86-3.93,2.56-1.64.7-3.63,1.06-5.99,1.06ZM197.64,51.1c2.46,0,4.54-.48,6.23-1.45,1.71-.97,2.99-2.22,3.85-3.75.88-1.53,1.32-3.14,1.32-4.83v-5.7c-.26.32-.84.61-1.74.87-.88.25-1.9.47-3.06.66-1.14.18-2.26.33-3.35.48-1.07.12-1.94.23-2.61.32-1.62.21-3.13.55-4.54,1.03-1.39.46-2.52,1.15-3.38,2.09-.84.91-1.27,2.16-1.27,3.75,0,2.16.8,3.8,2.4,4.91,1.62,1.09,3.67,1.64,6.15,1.64Z"/>
  <path class="cls-1" d="M227.99,40.96l-.11-7.71h1.27l17.74-18.05h7.71l-18.9,19.11h-.53l-7.18,6.65ZM222.18,55.74V1.69h6.23v54.05h-6.23ZM247.94,55.74l-15.84-20.06,4.43-4.33,19.32,24.39h-7.92Z"/>
  <path class="cls-1" d="M273.48,56.59c-3.91,0-7.28-.86-10.11-2.59-2.82-1.74-4.99-4.17-6.52-7.28-1.51-3.13-2.27-6.77-2.27-10.93s.76-7.81,2.27-10.98c1.53-3.18,3.66-5.67,6.39-7.44,2.74-1.79,5.95-2.69,9.61-2.69,2.11,0,4.2.35,6.26,1.06,2.06.7,3.93,1.85,5.62,3.43,1.69,1.57,3.04,3.64,4.04,6.23,1,2.59,1.5,5.77,1.5,9.55v2.64h-31.25v-5.38h24.92c0-2.29-.46-4.33-1.37-6.12-.9-1.79-2.18-3.21-3.85-4.25-1.65-1.04-3.61-1.56-5.86-1.56-2.48,0-4.63.62-6.44,1.85-1.79,1.21-3.18,2.8-4.14,4.75-.97,1.95-1.45,4.05-1.45,6.28v3.59c0,3.06.53,5.66,1.58,7.79,1.07,2.11,2.56,3.72,4.46,4.83,1.9,1.09,4.11,1.64,6.62,1.64,1.64,0,3.11-.23,4.43-.69,1.34-.48,2.49-1.18,3.46-2.11.97-.95,1.72-2.13,2.24-3.54l6.02,1.69c-.63,2.04-1.7,3.84-3.19,5.38-1.5,1.53-3.34,2.73-5.54,3.59-2.2.84-4.67,1.27-7.42,1.27Z"/>
</svg>