<?xml version="1.0" encoding="utf-8"?>
<!-- Generator: Adobe Illustrator 25.0.1, SVG Export Plug-In . SVG Version: 6.00 Build 0)  -->
<svg version="1.1" xmlns="http://www.w3.org/2000/svg" xmlns:xlink="http://www.w3.org/1999/xlink" x="0px" y="0px"
	 viewBox="0 0 360.8 62.2" style="enable-background:new 0 0 360.8 62.2;" xml:space="preserve">
<style type="text/css">
	.st0{display:none;}
	.st1{display:inline;}
	.st2{fill:#0717A3;}
	.st3{fill:none;stroke:#FFFFFF;stroke-width:1.6;stroke-miterlimit:10;}
	.st4{fill:#FFFFFF;}
	.st5{clip-path:url(#SVGID_2_);}
	.st6{clip-path:url(#SVGID_4_);}
	.st7{fill:url(#SVGID_5_);}
	.st8{fill:url(#SVGID_6_);fill-opacity:0.66;}
	.st9{fill:#FFFFFF;fill-opacity:0.2;}
	.st10{fill:#0F0F0F;}
	.st11{fill:#973EDF;}
	.st12{fill:#202020;}
	.st13{fill-rule:evenodd;clip-rule:evenodd;fill:#1D1D1B;}
	.st14{clip-path:url(#SVGID_8_);}
	.st15{fill-rule:evenodd;clip-rule:evenodd;fill:url(#SVGID_9_);}
	.st16{fill:#4F37FD;}
	.st17{fill:#2CCD9A;}
	.st18{display:inline;fill-rule:evenodd;clip-rule:evenodd;fill:#356DF3;}
</style>
<g id="Asternodes" class="st0">
	<g class="st1">
		<g>
			<circle class="st2" cx="31.1" cy="31.1" r="30.3"/>
			<path class="st3" d="M30.1,29.5L29,17.6 M13.9,33.8l14.2-2.7 M32.6,28.4l12.8-7.8 M40,46.8L32,33.6"/>
			<path class="st4" d="M34.6,13.3c0,2.9-2.4,5.3-5.3,5.3s-5.3-2.4-5.3-5.3s2.4-5.3,5.3-5.3S34.6,10.3,34.6,13.3z M6.4,30.7
				c-2.3,1.8-2.7,5.2-0.8,7.5c1.8,2.3,5.2,2.7,7.5,0.8c2.3-1.8,2.7-5.2,0.8-7.5S8.6,28.8,6.4,30.7z M49.3,12.2
				c-3.1,0-5.5,2.5-5.5,5.5s2.5,5.5,5.5,5.5c3.1,0,5.5-2.5,5.5-5.5S52.3,12.2,49.3,12.2z M40.9,43.7c-2.5,0-4.5,2-4.5,4.5
				s2,4.5,4.5,4.5c2.5,0,4.5-2,4.5-4.5S43.3,43.7,40.9,43.7z M30.2,25.8c-2.5,0-4.5,2-4.5,4.5c0,2.5,2,4.5,4.5,4.5s4.5-2,4.5-4.5
				C34.7,27.8,32.7,25.8,30.2,25.8z"/>
		</g>
		<g>
			<path class="st2" d="M78.2,50.3h-5l14.3-39h4.9l14.3,39h-5l-3.9-11.1H82.1L78.2,50.3z M83.6,35.1h12.8l-6.3-17.6h-0.3L83.6,35.1z
				"/>
			<path class="st2" d="M133,27.6l-4,1.1c-0.4-1-1.1-2-2-2.9c-0.9-0.9-2.4-1.3-4.3-1.3c-1.8,0-3.3,0.4-4.5,1.2
				c-1.2,0.8-1.8,1.9-1.8,3.1c0,1.1,0.4,2,1.2,2.6c0.8,0.6,2.1,1.2,3.8,1.6l4.3,1.1c5.2,1.3,7.8,3.9,7.8,7.9c0,1.7-0.5,3.2-1.4,4.5
				c-1,1.3-2.3,2.4-4,3.1c-1.7,0.8-3.7,1.1-6,1.1c-3,0-5.5-0.6-7.4-1.9c-2-1.3-3.2-3.2-3.7-5.7l4.3-1.1c0.8,3.2,3.1,4.7,6.8,4.7
				c2.1,0,3.8-0.4,5-1.3s1.9-2,1.9-3.2c0-2.1-1.4-3.4-4.3-4.1l-4.9-1.1c-2.7-0.6-4.6-1.6-5.9-3c-1.3-1.3-1.9-3-1.9-5
				c0-1.7,0.5-3.1,1.4-4.4s2.2-2.3,3.8-3c1.6-0.7,3.5-1.1,5.5-1.1c2.9,0,5.2,0.6,6.8,1.9C131.1,23.8,132.3,25.5,133,27.6z"/>
			<path class="st2" d="M153.1,21v3.8h-6.3v17.1c0,1.3,0.2,2.2,0.6,2.8c0.4,0.6,0.9,1,1.4,1.3c0.6,0.2,1.2,0.3,1.9,0.3
				c0.5,0,0.9,0,1.2-0.1c0.3-0.1,0.6-0.1,0.8-0.1l0.9,4c-0.3,0.1-0.7,0.2-1.3,0.4c-0.5,0.1-1.2,0.2-2.1,0.2c-1.3,0-2.5-0.3-3.7-0.8
				c-1.2-0.5-2.2-1.4-3-2.5c-0.8-1.1-1.2-2.5-1.2-4.2V24.8h-4.4V21h4.4v-7h4.5v7H153.1z"/>
			<path class="st2" d="M171.8,50.9c-2.8,0-5.3-0.6-7.3-1.9c-2-1.3-3.6-3-4.7-5.3c-1.1-2.3-1.6-4.9-1.6-7.9c0-3,0.5-5.6,1.6-7.9
				c1.1-2.3,2.6-4.1,4.6-5.4c2-1.3,4.3-1.9,6.9-1.9c1.5,0,3,0.3,4.5,0.8c1.5,0.5,2.8,1.3,4.1,2.5c1.2,1.1,2.2,2.6,2.9,4.5
				c0.7,1.9,1.1,4.2,1.1,6.9v1.9h-21.3c0.1,3.1,1,5.5,2.7,7.2c1.7,1.7,3.8,2.5,6.5,2.5c1.8,0,3.3-0.4,4.6-1.1
				c1.3-0.8,2.2-1.9,2.8-3.4l4.3,1.2c-0.7,2.2-2.1,4-4.1,5.4C177.3,50.2,174.8,50.9,171.8,50.9z M162.7,33.3h16.7
				c0-2.5-0.7-4.5-2.2-6.2c-1.4-1.6-3.4-2.4-5.8-2.4c-1.7,0-3.2,0.4-4.5,1.2c-1.3,0.8-2.2,1.9-3,3.2
				C163.2,30.4,162.8,31.8,162.7,33.3z"/>
			<path class="st2" d="M190.8,50.3V21h4.3v4.4h0.3c0.5-1.4,1.5-2.6,2.9-3.5c1.4-0.9,3-1.4,4.7-1.4c0.3,0,0.7,0,1.2,0
				c0.5,0,0.9,0,1.1,0.1v4.6c-0.2,0-0.5-0.1-1-0.2c-0.5-0.1-1.1-0.1-1.7-0.1c-2.1,0-3.9,0.6-5.3,1.9c-1.4,1.3-2.1,2.9-2.1,4.9v18.5
				H190.8z"/>
			<path class="st2" d="M215.3,32.7v17.6h-4.5V21h4.3v4.6h0.4c0.7-1.5,1.7-2.7,3.1-3.6c1.4-0.9,3.2-1.4,5.4-1.4c3,0,5.4,0.9,7.2,2.7
				c1.8,1.8,2.7,4.6,2.7,8.3v18.6h-4.5V32c0-2.3-0.6-4.1-1.8-5.4c-1.2-1.3-2.8-1.9-4.9-1.9c-2.1,0-3.9,0.7-5.3,2.1
				C216,28.2,215.3,30.1,215.3,32.7z"/>
			<path class="st2" d="M254.1,50.9c-2.6,0-5-0.6-6.9-1.9c-2-1.3-3.5-3-4.7-5.3c-1.1-2.3-1.7-4.9-1.7-7.9c0-3,0.6-5.7,1.7-8
				c1.1-2.3,2.7-4,4.7-5.3c2-1.3,4.3-1.9,6.9-1.9c2.6,0,5,0.6,6.9,1.9s3.5,3,4.7,5.3c1.1,2.3,1.7,4.9,1.7,8c0,3-0.6,5.7-1.7,7.9
				c-1.1,2.3-2.7,4-4.7,5.3C259,50.3,256.7,50.9,254.1,50.9z M254.1,46.9c2,0,3.7-0.5,5-1.5s2.3-2.4,2.9-4.1
				c0.6-1.7,0.9-3.5,0.9-5.5c0-2-0.3-3.8-0.9-5.5c-0.6-1.7-1.6-3.1-2.9-4.1c-1.3-1-2.9-1.6-5-1.6c-2,0-3.7,0.5-5,1.6
				c-1.3,1-2.3,2.4-2.9,4.1c-0.6,1.7-0.9,3.5-0.9,5.5c0,2,0.3,3.8,0.9,5.5c0.6,1.7,1.6,3,2.9,4.1S252.1,46.9,254.1,46.9z"/>
			<path class="st2" d="M285.2,50.9c-2.4,0-4.6-0.6-6.5-1.9c-1.9-1.2-3.3-3-4.4-5.3c-1.1-2.3-1.6-5-1.6-8.1c0-3.1,0.5-5.7,1.6-8
				c1.1-2.3,2.5-4,4.4-5.2c1.9-1.2,4.1-1.8,6.5-1.8c1.9,0,3.4,0.3,4.5,0.9c1.1,0.6,2,1.3,2.6,2.1c0.6,0.8,1.1,1.4,1.4,2h0.4V11.3
				h4.5v39h-4.3v-4.5h-0.5c-0.3,0.5-0.8,1.2-1.4,2c-0.6,0.8-1.5,1.5-2.6,2.2C288.6,50.6,287.1,50.9,285.2,50.9z M285.9,46.9
				c2.7,0,4.8-1,6.2-3.1c1.4-2.1,2.2-4.8,2.2-8.1c0-3.3-0.7-5.9-2.1-7.9c-1.4-2-3.5-3-6.3-3c-1.9,0-3.5,0.5-4.8,1.5
				c-1.3,1-2.2,2.3-2.8,3.9c-0.6,1.7-0.9,3.5-0.9,5.6c0,2.1,0.3,4,1,5.7c0.6,1.7,1.6,3,2.9,4C282.4,46.4,284,46.9,285.9,46.9z"/>
			<path class="st2" d="M319.8,50.9c-2.8,0-5.3-0.6-7.3-1.9c-2-1.3-3.6-3-4.7-5.3c-1.1-2.3-1.6-4.9-1.6-7.9c0-3,0.5-5.6,1.6-7.9
				c1.1-2.3,2.6-4.1,4.6-5.4c2-1.3,4.3-1.9,6.9-1.9c1.5,0,3,0.3,4.5,0.8c1.5,0.5,2.8,1.3,4.1,2.5c1.2,1.1,2.2,2.6,2.9,4.5
				c0.7,1.9,1.1,4.2,1.1,6.9v1.9h-21.3c0.1,3.1,1,5.5,2.7,7.2c1.7,1.7,3.8,2.5,6.5,2.5c1.8,0,3.3-0.4,4.6-1.1
				c1.3-0.8,2.2-1.9,2.8-3.4l4.3,1.2c-0.7,2.2-2.1,4-4.1,5.4C325.3,50.2,322.8,50.9,319.8,50.9z M310.7,33.3h16.7
				c0-2.5-0.7-4.5-2.2-6.2c-1.4-1.6-3.4-2.4-5.8-2.4c-1.7,0-3.2,0.4-4.5,1.2c-1.3,0.8-2.2,1.9-3,3.2
				C311.2,30.4,310.8,31.8,310.7,33.3z"/>
			<path class="st2" d="M359.5,27.6l-4,1.1c-0.4-1-1.1-2-2-2.9c-0.9-0.9-2.4-1.3-4.3-1.3c-1.8,0-3.3,0.4-4.5,1.2
				c-1.2,0.8-1.8,1.9-1.8,3.1c0,1.1,0.4,2,1.2,2.6c0.8,0.6,2.1,1.2,3.8,1.6l4.3,1.1c5.2,1.3,7.8,3.9,7.8,7.9c0,1.7-0.5,3.2-1.4,4.5
				c-1,1.3-2.3,2.4-4,3.1c-1.7,0.8-3.7,1.1-6,1.1c-3,0-5.5-0.6-7.4-1.9c-2-1.3-3.2-3.2-3.7-5.7l4.3-1.1c0.8,3.2,3.1,4.7,6.8,4.7
				c2.1,0,3.8-0.4,5-1.3c1.2-0.9,1.9-2,1.9-3.2c0-2.1-1.4-3.4-4.3-4.1l-4.9-1.1c-2.7-0.6-4.6-1.6-5.9-3c-1.3-1.3-1.9-3-1.9-5
				c0-1.7,0.5-3.1,1.4-4.4s2.2-2.3,3.8-3c1.6-0.7,3.5-1.1,5.5-1.1c2.9,0,5.2,0.6,6.8,1.9C357.6,23.8,358.8,25.5,359.5,27.6z"/>
		</g>
	</g>
</g>
<g id="Goldsky" class="st0">
	<g class="st1">
		<g>
			<defs>
				<rect id="SVGID_1_" x="60.4" y="0.1" width="61.9" height="61.9"/>
			</defs>
			<clipPath id="SVGID_2_">
				<use xlink:href="#SVGID_1_"  style="overflow:visible;"/>
			</clipPath>
			<g class="st5">
				<g>
					<g>
						<defs>
							<path id="SVGID_3_" d="M91.4,0.1L91.4,0.1c17.1,0,31,13.9,31,31l0,0c0,17.1-13.9,31-31,31l0,0c-17.1,0-31-13.9-31-31l0,0
								C60.4,14,74.3,0.1,91.4,0.1z"/>
						</defs>
						<clipPath id="SVGID_4_">
							<use xlink:href="#SVGID_3_"  style="overflow:visible;"/>
						</clipPath>
						<g class="st6">
							
								<radialGradient id="SVGID_5_" cx="-1295.3774" cy="1392.9294" r="2.58" gradientTransform="matrix(1.469576e-15 -24 -38.6375 -2.365865e-15 53910.7148 -31027)" gradientUnits="userSpaceOnUse">
								<stop  offset="0" style="stop-color:#FE5117"/>
								<stop  offset="1" style="stop-color:#FFC61C"/>
							</radialGradient>
							<circle class="st7" cx="91.4" cy="31.1" r="31"/>
							<g>
								<path class="st4" d="M73.3,31.1c0-10,8.1-18.1,18.1-18.1l0,0c10,0,18.1,8.1,18.1,18.1l0,0H73.3L73.3,31.1z"/>
							</g>
							
								<radialGradient id="SVGID_6_" cx="-1039.5571" cy="1521.0287" r="2.58" gradientTransform="matrix(4.286264e-16 7 14 -8.572528e-16 -21203 7308)" gradientUnits="userSpaceOnUse">
								<stop  offset="0" style="stop-color:#FFFFFF"/>
								<stop  offset="1" style="stop-color:#D9D9D9;stop-opacity:0"/>
								<stop  offset="1" style="stop-color:#FFFFFF;stop-opacity:0"/>
							</radialGradient>
							<path class="st8" d="M73.3,31.1h36.1l0,0c0,10-8.1,18.1-18.1,18.1l0,0C81.4,49.2,73.3,41.1,73.3,31.1L73.3,31.1z"/>
							<g>
								<path class="st9" d="M60.4,31.1c0-17.1,13.9-31,31-31l0,0c17.1,0,31,13.9,31,31l0,0H60.4L60.4,31.1z"/>
							</g>
						</g>
					</g>
				</g>
			</g>
		</g>
		<path class="st10" d="M144.5,45.8c3.8,0,6-2.2,6.6-3.7l0.8,3.1h3.3V31.1h-11.2v4.1h6.5c0,3.8-2,6.2-5.5,6.2
			c-5.3,0-5.7-6.1-5.7-9.9c0-3.8,0.5-9.8,6-9.8c3.7,0,4.9,2.5,5,4.7h5c0-4.6-3-9.2-10-9.2c-2.8,0-5.5,0.8-7.5,2.8
			c-3,3-3.6,7-3.6,11.4c0,4.4,0.4,8.6,3.4,11.6C139.5,45.1,142,45.8,144.5,45.8z M168.7,41.3c-1.5,0-2.8-0.5-3.9-1.5
			c-1.9-1.9-1.9-6-1.9-8.2c0-2.3,0-6.3,1.9-8.2c1-1,2.4-1.5,3.9-1.5c1.5,0,2.8,0.5,3.9,1.5c1.9,1.9,1.9,6,1.9,8.2
			c0,2.3,0,6.3-1.9,8.2C171.5,40.9,170.2,41.3,168.7,41.3z M168.7,45.8c2.8,0,5.3-0.9,7.3-2.9c3-3,3.5-7,3.5-11.4
			c0-4.4-0.5-8.4-3.5-11.4c-2-2-4.5-2.9-7.3-2.9c-2.8,0-5.3,0.9-7.3,2.9c-3,3-3.5,7-3.5,11.4c0,4.4,0.5,8.4,3.5,11.4
			C163.4,45,165.9,45.8,168.7,45.8z M184.8,45.3h18.3v-4.7h-13.3V17.9h-5V45.3z M227.3,31.5c0-3.7-0.5-6.7-2.1-9.2
			c-1.5-2.5-4.7-4.5-9-4.5h-8.9v27.4h8.9c4.3,0,7.4-1.8,8.9-4.3C226.8,38.5,227.3,35.2,227.3,31.5z M222.2,31.5c0,3-0.3,5.9-1.9,7.6
			c-0.9,1-2.4,1.7-4.6,1.7h-3.4V22.3h3.4c2.1,0,3.5,0.6,4.5,1.5C221.9,25.6,222.2,28.4,222.2,31.5z M251.1,37.2
			c0-4.6-3.3-7.2-7.7-7.9l-3.8-0.6c-2.5-0.4-3.8-1.5-3.8-3.2c0-2.6,2.4-3.9,4.9-3.9c3.2,0,4.9,1.9,5,4.4h5c-0.1-5-4.3-8.6-10-8.6
			c-5.5,0-9.9,3.6-9.9,8.6c0,4.4,3,6.8,7.6,7.6l4.1,0.7c2,0.3,3.6,1.4,3.6,3.3c0,2.9-2.8,4.1-5.5,4.1c-2.7,0-5.5-1.5-5.5-5h-5.1
			c0,6.3,5.5,9.3,10.5,9.3C245.9,45.8,251.1,43,251.1,37.2z M260.4,30.1V17.9h-5v27.4h5v-8.1l3.2-3.8l7,12h6l-9.6-15.9l9.6-11.5
			h-6.3L260.4,30.1z M291.2,33.6l9.2-15.8h-5.3L288.8,29l-6.3-11.2H277l9.2,15.8v11.7h5V33.6z"/>
	</g>
</g>
<g id="Nownodes" class="st0">
	<g class="st1">
		<path class="st11" d="M0.8,54.8V9.3h10.5l20.5,27.9c-0.2-1.9-0.4-3.7-0.6-5.3c-0.1-1.7-0.2-3.5-0.3-5.4c0-1.9-0.1-4.1-0.1-6.6V9.3
			h11.4v45.5H31.5L11.3,27.5c0.2,1.9,0.4,3.5,0.5,4.8c0.1,1.3,0.2,2.6,0.3,3.8c0,1.2,0.1,2.6,0.1,4.2v14.5H0.8z"/>
		<path class="st11" d="M74.2,55.5c-3.4,0-6.6-0.6-9.5-1.8c-2.9-1.2-5.4-2.8-7.5-4.9c-2.1-2.1-3.8-4.6-4.9-7.5
			c-1.2-2.9-1.8-6-1.8-9.4s0.6-6.6,1.8-9.4c1.2-2.9,2.8-5.4,4.9-7.5c2.1-2.1,4.6-3.8,7.5-4.9c2.9-1.2,6.1-1.8,9.5-1.8
			c3.5,0,6.6,0.6,9.5,1.8c2.9,1.2,5.4,2.8,7.5,4.9s3.8,4.6,4.9,7.5c1.2,2.9,1.8,6,1.8,9.4c0,3.4-0.6,6.5-1.8,9.4
			c-1.2,2.9-2.8,5.3-4.9,7.5c-2.1,2.1-4.6,3.8-7.5,4.9C80.8,54.9,77.7,55.5,74.2,55.5z M74.2,44.5c2.3,0,4.3-0.5,6.1-1.6
			c1.8-1.1,3.2-2.6,4.2-4.5c1-1.9,1.6-4.1,1.6-6.5c0-2.5-0.5-4.7-1.6-6.6c-1-1.9-2.4-3.4-4.2-4.5c-1.8-1.1-3.8-1.6-6.1-1.6
			s-4.3,0.5-6.1,1.6c-1.8,1.1-3.2,2.6-4.2,4.5c-1,1.9-1.5,4.1-1.5,6.6c0,2.4,0.5,4.6,1.5,6.5c1,1.9,2.4,3.4,4.2,4.5
			C69.9,44,71.9,44.5,74.2,44.5z"/>
		<path class="st11" d="M114,54.8L100.5,9.3h11.9l6.4,23.2c0.3,1.1,0.6,2.2,0.8,3.2c0.2,1.1,0.4,2.1,0.6,3.1c0.2-1,0.4-2.1,0.6-3.1
			c0.3-1,0.6-2.1,1-3.3l6.5-17.5h9.2l6.4,17.5c0.4,1.1,0.7,2.2,1,3.2c0.3,1,0.6,1.9,0.8,2.8c0.1-0.8,0.2-1.7,0.4-2.7
			c0.2-1,0.4-2.1,0.8-3.3l6.4-23.1h11.6l-13.6,45.5h-9l-9.9-24l-9,24H114z"/>
		<path class="st12" d="M170.9,54.8V9.3h4.7l28.5,37.7c-0.1-1.3-0.2-2.8-0.3-4.6c-0.1-1.8-0.2-3.7-0.2-5.7s-0.1-3.9-0.1-5.7
			c0-1.9,0-3.6,0-5.1V9.3h5.1v45.5h-4.7l-28.6-37.4c0.2,2.6,0.3,5.1,0.4,7.4c0.1,2.3,0.2,4.4,0.3,6c0,1.6,0.1,2.7,0.1,3.3v20.7
			H170.9z"/>
		<path class="st12" d="M235.1,55.5c-3.3,0-6.3-0.8-9-2.3c-2.6-1.6-4.7-3.7-6.2-6.3c-1.5-2.7-2.3-5.7-2.3-9.2c0-3.4,0.8-6.4,2.3-9
			c1.5-2.7,3.6-4.8,6.2-6.3c2.6-1.5,5.6-2.3,9-2.3c3.3,0,6.3,0.8,8.9,2.3c2.6,1.5,4.7,3.6,6.2,6.3c1.5,2.6,2.3,5.7,2.3,9
			c0,3.4-0.8,6.5-2.3,9.2c-1.5,2.6-3.5,4.7-6.2,6.3C241.4,54.7,238.4,55.5,235.1,55.5z M235.1,50.8c2.4,0,4.5-0.6,6.3-1.7
			c1.9-1.1,3.3-2.7,4.3-4.6c1-2,1.6-4.2,1.6-6.8c0-2.5-0.5-4.7-1.6-6.6c-1-1.9-2.5-3.5-4.3-4.6c-1.8-1.1-3.9-1.7-6.3-1.7
			c-2.4,0-4.5,0.6-6.4,1.7c-1.9,1.1-3.3,2.7-4.4,4.6c-1,1.9-1.6,4.2-1.6,6.6c0,2.5,0.5,4.8,1.6,6.8c1,1.9,2.5,3.5,4.4,4.6
			C230.6,50.2,232.7,50.8,235.1,50.8z"/>
		<path class="st12" d="M273.4,55.5c-3.1,0-5.9-0.8-8.4-2.3c-2.4-1.5-4.4-3.6-5.8-6.2c-1.4-2.7-2.1-5.7-2.1-9.2c0-3.4,0.7-6.4,2.1-9
			c1.4-2.7,3.4-4.8,5.8-6.3c2.4-1.6,5.2-2.3,8.2-2.3c2.6,0,5,0.6,7.1,1.8c2.2,1.2,3.9,2.6,5.1,4.4V6.7h4.9v48.1h-4.9l-0.1-5.7
			c-1.1,1.8-2.7,3.3-4.9,4.5C278.3,54.8,275.9,55.5,273.4,55.5z M274,50.9c2.3,0,4.3-0.6,6-1.7c1.8-1.1,3.2-2.7,4.2-4.6
			c1-2,1.6-4.3,1.6-6.8s-0.5-4.8-1.6-6.8c-1-2-2.4-3.6-4.2-4.7c-1.8-1.1-3.8-1.7-6-1.7c-2.3,0-4.3,0.6-6.1,1.7
			c-1.8,1.1-3.2,2.7-4.2,4.7c-1,1.9-1.5,4.2-1.5,6.8c0,2.5,0.5,4.8,1.5,6.8c1,2,2.4,3.6,4.2,4.7C269.7,50.3,271.7,50.9,274,50.9z"/>
		<path class="st12" d="M314.9,55.5c-3.4,0-6.5-0.7-9.1-2.2c-2.6-1.5-4.6-3.5-6.1-6.2c-1.5-2.6-2.2-5.7-2.2-9.1
			c0-3.5,0.7-6.5,2.1-9.2c1.4-2.7,3.4-4.8,6-6.3c2.6-1.6,5.5-2.3,8.8-2.3c3,0,5.7,0.7,8,2.1c2.3,1.4,4.1,3.3,5.4,5.8
			c1.3,2.4,1.8,5.2,1.8,8.4l-0.1,2.3h-26.9c0.2,3.7,1.5,6.6,3.8,8.8c2.3,2.2,5.3,3.2,9.2,3.2c1.6,0,3.2-0.3,4.8-0.8
			c1.6-0.6,3.4-1.6,5.3-3.2l2.5,3.6c-1.5,1.5-3.4,2.7-5.8,3.7C320,55,317.5,55.5,314.9,55.5z M314.4,24.8c-3.1,0-5.7,0.8-7.7,2.5
			c-2,1.6-3.3,4.1-3.8,7.3h21.8v-0.4c-0.1-1.6-0.5-3.1-1.4-4.5c-0.8-1.5-2-2.7-3.5-3.6C318.2,25.3,316.4,24.8,314.4,24.8z"/>
		<path class="st12" d="M347.7,55.5c-2.9,0-5.6-0.5-7.9-1.6c-2.3-1.1-4.1-2.5-5.5-4.4l3.5-3.1c2.5,3.1,5.9,4.6,10.2,4.6
			c2.1,0,3.8-0.5,5.1-1.4c1.3-1,2-2.3,2-3.9c0-1.4-0.6-2.5-1.8-3.4c-0.6-0.4-1.4-0.8-2.4-1.2c-1-0.4-2.3-0.8-3.8-1.2
			c-2.4-0.6-4.4-1.3-6-2.1c-1.6-0.7-2.9-1.6-3.8-2.5c-1.3-1.5-1.9-3.3-1.9-5.5c0-1.9,0.5-3.5,1.5-4.9c1-1.5,2.4-2.6,4.2-3.4
			c1.8-0.9,3.9-1.3,6.1-1.3c2.4,0,4.8,0.5,7,1.6c2.3,1,4.2,2.3,5.6,3.9l-3.1,3.3c-1.3-1.3-2.7-2.4-4.4-3.2c-1.6-0.8-3.2-1.2-4.9-1.2
			c-2.1,0-3.8,0.5-5.1,1.4c-1.3,1-1.9,2.2-1.9,3.8c0,1.3,0.5,2.3,1.5,3.1c0.6,0.5,1.5,0.9,2.5,1.4c1.1,0.4,2.5,0.8,4.2,1.2
			c1.9,0.5,3.5,1.1,4.8,1.6c1.3,0.5,2.4,1.1,3.3,1.9c2.2,1.6,3.2,3.9,3.2,6.8c0,1.9-0.5,3.6-1.6,5.1c-1.1,1.5-2.6,2.6-4.4,3.5
			C352.1,55,350,55.5,347.7,55.5z"/>
	</g>
</g>
<g id="Thirdweb" class="st0">
	<g class="st1">
		<g>
			<path class="st13" d="M168.5,6.7c-3,0-5.5,2.5-5.5,5.6c0,3.1,2.5,5.5,5.5,5.5c3,0,5.5-2.5,5.5-5.5C174.1,9.1,171.6,6.7,168.5,6.7
				z M173.4,20.6h-9.7v33.2h9.7V20.6z M107.3,7.9h9.4v12.7h7.3v8.9h-7.3v11.7c0,1.7,1.3,3.1,3,3.1h4.2v9.4h-4.2
				c-6.8,0-12.4-5.6-12.4-12.6V29.4h-4.4v-8.9h4.4L107.3,7.9L107.3,7.9z M147,19.9c-4.4,0-7.8,1.9-9.2,4.7V7.9h-9.7v45.9h9.7V35.2
				c0-3.9,2.5-6.6,6-6.6c3.6,0,5.6,2.3,5.6,6.3v19h9.7V33.6C159.1,25,154.7,19.9,147,19.9z M187.2,20.5v4.5c1.4-3.3,5-5.2,9.4-5.3
				c0.7,0,1.5,0.1,2.6,0.2v9.2c-1-0.2-2.1-0.3-3.2-0.3c-5.5,0-8.7,3.1-8.7,8.6v16.2h-9.7V20.5H187.2z M226.4,24.9
				c-1-2.9-4.8-4.9-9.7-4.9c-4.6,0-8.5,1.7-11.6,5c-3,3.3-4.6,7.4-4.6,12.2s1.6,8.9,4.6,12.3c3.1,3.3,7,4.9,11.6,4.9
				c4.9,0,8.7-2,9.7-4.9v4.4h9.7V7.9h-9.7V24.9z M224.4,43.1c-1.7,1.6-3.6,2.3-6,2.3c-2.3,0-4.3-0.8-5.9-2.3
				c-1.7-1.7-2.5-3.6-2.5-5.9c0-2.3,0.8-4.3,2.5-5.9c1.7-1.7,3.6-2.5,5.9-2.5c2.5,0,4.4,0.8,6,2.5c1.7,1.6,2.6,3.6,2.6,5.9
				C227,39.5,226.1,41.4,224.4,43.1z M264,20.8l8.7,15.8l5.9-15.9h9.5l-13.5,35.1L264,36.6l-10.7,19.1l-13.4-35.1h9.5l5.9,15.9
				L264,20.8z M304.1,19.8c-5,0-9.2,1.6-12.5,4.8c-3.2,3.1-4.9,7.3-4.9,12.5v0.3c0,5.2,1.7,9.4,4.9,12.5c3.4,3.1,7.6,4.7,13,4.7
				c5,0,9.1-1,12.2-3V43c-3,2.1-6.9,3.2-11.6,3.2c-5.1,0-8.5-2.5-8.6-6.5h24.1c0.1-1,0.2-2.1,0.2-3.2c0-4.7-1.6-8.7-4.6-11.9
				C313,21.4,309,19.8,304.1,19.8z M296.5,33.4c0.1-1.5,0.9-2.8,2.3-3.9c1.5-1.1,3.2-1.6,5.3-1.6c3.8,0,6.8,2.5,6.8,5.5H296.5z
				 M343.8,20c4.6,0,8.5,1.7,11.6,5c3.1,3.3,4.7,7.3,4.7,12.1s-1.6,8.9-4.7,12.3c-3,3.3-6.9,4.9-11.6,4.9c-4.9,0-8.7-2-9.7-4.9v4.4
				h-9.7V7.9h9.7V25C335,22,338.9,20,343.8,20z M342,45.4c2.3,0,4.3-0.7,5.9-2.3c1.7-1.7,2.5-3.6,2.5-5.9c0-2.3-0.8-4.3-2.5-5.9
				c-1.6-1.7-3.6-2.5-5.9-2.5c-2.3,0-4.4,0.8-6.1,2.5c-1.7,1.6-2.5,3.6-2.5,5.9c0,2.3,0.9,4.3,2.5,5.9
				C337.6,44.6,339.6,45.4,342,45.4z"/>
		</g>
		<g>
			<g>
				<defs>
					<rect id="SVGID_7_" x="0.8" y="4.8" width="84.6" height="52.6"/>
				</defs>
				<clipPath id="SVGID_8_">
					<use xlink:href="#SVGID_7_"  style="overflow:visible;"/>
				</clipPath>
				<g class="st14">
					
						<linearGradient id="SVGID_9_" gradientUnits="userSpaceOnUse" x1="47.8193" y1="2190.0977" x2="106.2696" y2="2268.7788" gradientTransform="matrix(1 0 0 1 -20.9449 -2185.6377)">
						<stop  offset="0" style="stop-color:#F213A4"/>
						<stop  offset="1" style="stop-color:#5204BF"/>
					</linearGradient>
					<path class="st15" d="M1,9.2C0.1,7.1,1.7,4.8,4,4.8h14.3c1.3,0,2.5,0.8,3,2l11.4,28.3c0.3,0.7,0.3,1.6,0,2.4l-7.1,17.8
						c-1.1,2.7-5,2.7-6.1,0L1,9.2z M28.6,9.1c-0.7-2.1,0.8-4.3,3-4.3h12.5c1.4,0,2.6,0.9,3,2.1l10.3,28.3c0.3,0.7,0.3,1.5,0,2.2
						l-6.2,17c-1,2.8-5.1,2.8-6.1,0L28.6,9.1z M56.5,4.8c-2.3,0-3.9,2.3-3,4.4L72,55.4c1.1,2.7,5,2.7,6.1,0l7.1-17.8
						c0.3-0.8,0.3-1.7,0-2.4L73.8,6.8c-0.5-1.2-1.7-2-3-2L56.5,4.8L56.5,4.8z"/>
				</g>
			</g>
		</g>
	</g>
</g>
<g id="Tatum">
	<g>
		<path class="st16" d="M84.2,26.5H65v35.3h19.3V26.5z"/>
		<path class="st17" d="M109,0.1H73.6v17.7h35.4L109,0.1z"/>
		<path class="st16" d="M65,8.8H29.6v17.7H65V8.8z"/>
		<path d="M295.1,20.3h-7.5V62h7.2V34.5h0.3l14.2,27.5h0.3l14.3-27.5h0.3V62h7.1V20.3h-6.8l-14.6,28.3h-0.2L295.1,20.3z M132.9,62
			h7.1V26.5h18.7v-6.2H140v6.2H118v6.2h14.9V62z M195.3,20.3v5.6h13.5V62h7.2V25.9h13.5v-5.6H195.3z M268.8,52.2
			c0,0.5-0.1,0.9-0.2,1.4c-0.2,0.4-0.4,0.8-0.8,1.2c-0.3,0.4-0.7,0.6-1.2,0.8c-0.4,0.2-0.9,0.2-1.4,0.2h-15.5
			c-0.5,0-0.9-0.1-1.4-0.2c-0.5-0.2-0.9-0.4-1.2-0.8c-0.3-0.3-0.6-0.7-0.8-1.2c-0.2-0.4-0.2-0.9-0.2-1.4v-32h-7.2v31.6
			c-0.1,1.3,0.1,2.5,0.5,3.7c0.4,1.2,1.1,2.3,1.9,3.2c0.9,0.9,1.9,1.7,3,2.3c1.1,0.5,2.4,0.9,3.7,0.9c0.3,0,0.7,0,1,0h16.7
			c1.3,0.1,2.5-0.1,3.7-0.5c1.2-0.4,2.3-1.1,3.2-1.9c0.9-0.8,1.7-1.9,2.3-3c0.5-1.1,0.9-2.4,0.9-3.7c0-0.3,0-0.7,0-1V20.3h-7.2V52.2
			z M180.8,45.2h-13.9l6.8-16.8h0.2L180.8,45.2z M177.7,20.3h-7.4L152.9,62h7l4.3-10.6h19l4.3,10.6h7.4L177.7,20.3z"/>
	</g>
</g>
<g id="Ankor" class="st0">
	<path class="st18" d="M272,47.9c0.2,0,0.3-0.1,0.3-0.3v-0.2c0-0.2-0.1-0.3-0.3-0.3h-0.7v0.7C271.3,47.9,272,47.9,272,47.9z
		 M271.3,48.2v0.9h-0.4v-2.3h1.1c0.5,0,0.7,0.3,0.7,0.7c0,0.4-0.2,0.6-0.5,0.7l0.5,0.9h-0.5l-0.5-0.9
		C271.7,48.2,271.3,48.2,271.3,48.2z M271.6,49.9c1.1,0.1,2-0.7,2.1-1.8c0-0.1,0-0.3,0-0.4c-0.1-1-0.9-1.7-1.8-1.8
		c-1.1-0.1-2,0.7-2.2,1.8c0,0.1,0,0.3,0,0.4C269.8,49,270.6,49.8,271.6,49.9L271.6,49.9z M271.3,45.5L271.3,45.5z M179.6,35.7
		l-0.4,0.1c-2.8,0.8-5.8,0.8-8.5,0l-0.4-0.1l4.3-14.1c0.1-0.3,0.6-0.3,0.7,0L179.6,35.7L179.6,35.7z M169.7,15.3l-12,35h8.1l2.6-8.5
		l0.4,0.1c4,1.2,8.3,1.2,12.3,0l0.4-0.1l2.6,8.5h8l-11.9-35c-0.8-2.2-2.8-3.7-5.2-3.7h-0.1C172.6,11.6,170.5,13.1,169.7,15.3z
		 M252.7,21.3h-8.6l-8.4,11.2V11.6h-7.2v38.7h7.2V36.4l9.8,13.9h8l-10.7-15.1c-0.4-0.5-0.4-1.2,0-1.7
		C243,33.5,252.7,21.3,252.7,21.3z M214.8,21.3h-11.6c-3.6,0-6.5,2.9-6.5,6.5l0,0v22.6h7.2V29.4c0-0.9,0.7-1.7,1.7-1.7l0,0h7.5
		c0.9,0,1.7,0.7,1.7,1.7l0,0v20.9h7.2V27.7c0-3.6-2.9-6.5-6.5-6.5L214.8,21.3L214.8,21.3z M274.2,21.3h-9.8c-3.6,0-6.5,2.9-6.5,6.5
		l0,0v22.6h7.2V29.4c0-0.9,0.7-1.7,1.7-1.7l0,0h7.4C274.2,27.7,274.2,21.3,274.2,21.3z M119.8,1.1L140,11.5c2.9,1.5,4.8,4.5,4.8,7.8
		v4.7h-7.5v-4.7c0-0.5-0.3-1-0.7-1.2L116.3,7.8c-0.4-0.2-0.8-0.2-1.2,0L94.8,18.2c-0.4,0.2-0.7,0.7-0.7,1.2v4.7h-7.5v-4.7
		c0-3.3,1.8-6.3,4.8-7.8l20.3-10.4C114.2-0.2,117.2-0.2,119.8,1.1z M122.1,30.8c0-3.5-2.9-6.4-6.4-6.4c-3.5,0-6.4,2.9-6.4,6.4
		c0,3.5,2.9,6.4,6.4,6.4S122.1,34.3,122.1,30.8z M136.6,44.1c0.4-0.2,0.7-0.7,0.7-1.2v-4.7h7.5v4.7c0,3.3-1.8,6.3-4.8,7.8
		l-20.3,10.4c-1.3,0.6-2.6,1-4,1s-2.8-0.3-4-1L91.4,50.7c-2.9-1.5-4.8-4.5-4.8-7.8v-4.7h7.5v4.7c0,0.5,0.3,1,0.7,1.2l17.2,8.8v-8.7
		c-5.8-1.6-10.1-7-10.1-13.4c0-7.6,6.2-13.9,13.9-13.9s13.9,6.2,13.9,13.9c0,6.3-4.3,11.7-10.1,13.4v8.7L136.6,44.1L136.6,44.1z"/>
</g>
</svg>
