<?xml version="1.0" encoding="UTF-8"?>
<svg id="Layer_3" xmlns="http://www.w3.org/2000/svg" version="1.1" viewBox="0 0 360.8 62.2">
  <!-- Generator: Adobe Illustrator 30.3.0, SVG Export Plug-In . SVG Version: 2.1.3 Build 182)  -->
  <defs>
    <style>
      .st0 {
        fill: #e92c4d;
      }

      .st1 {
        fill: #30489d;
      }
    </style>
  </defs>
  <path class="st0" d="M49.15,58.53c0,1.56-3.39,1.73-5.33,1.15-.6-.18-1-.64-1-1.3v-23.75s-4.9,0-4.9,0v23.89c-.03.54-.37.95-.87,1.1-2.01.62-5.46.56-5.46-1.25v-23.75s-4.9,0-4.9,0v23.89c-.03.54-.37.95-.87,1.1-2.01.62-5.46.57-5.46-1.25v-23.75s-4.9,0-4.9,0v23.89c-.03.54-.37.95-.87,1.1-2.01.62-5.46.56-5.46-1.25v-23.74s-7.26-.02-7.26-.02c-.46,0-.83-.66-.99-1.05-.32-1.42-.33-2.83-.02-4.21.26-.71.71-1.08,1.44-1.08h6.82s0-23.75,0-23.75c0-.63.4-1.14.97-1.3,1.91-.55,5.4-.54,5.36,1.3v23.75s4.9-.02,4.9-.02V4.54c.02-.63.38-1.13.97-1.3,1.91-.54,5.39-.54,5.36,1.3v23.75s4.9,0,4.9,0V4.54c0-.63.4-1.14.97-1.3,1.98-.56,5.36-.53,5.36,1.3v23.75s4.9-.01,4.9-.01V4.54c-.03-1.84,3.52-1.85,5.37-1.3.59.18.96.66.96,1.3v23.74s7.13.02,7.13.02c.64,0,1.01.79,1.2,1.29.19,1.29.19,2.45,0,3.74-.19.49-.57,1.28-1.2,1.29l-7.13.02v23.89Z"/>
  <path class="st1" d="M193.49,29.73c2.96-1.3,5.2-3.04,5.84-6.35.79-4.06.27-9.5-2.77-12.38-3.14-2.97-8.05-3.12-12.4-3.12h-19.12c-.82.01-1.5.73-1.5,1.56v44.03c0,.82.72,1.53,1.5,1.53l23.15-.02c2.08,0,4-.21,5.95-.71,3.37-.86,5.98-3.13,7.19-6.42,2.17-5.92,1.1-14.6-4.7-16.89l-3.13-1.23ZM186.28,27.08l-1.7.28h-11.18s0-12.89,0-12.89h11.04c1.02.05,1.95.17,2.9.42,1.35.5,2.33,1.52,2.63,2.96.77,3.77.42,8.32-3.69,9.22ZM189.68,47.5c-1.08.42-2.13.6-3.32.74h-12.99s0-14.19,0-14.19h12.08c1.19.06,2.27.22,3.36.55,1.72.62,2.9,1.95,3.25,3.79.57,3.02.55,7.77-2.38,9.11ZM157.8,37.74c.63-4.75.6-9.51-.19-14.23-1.01-6.08-3.81-11.38-9.5-14.04-4.94-2.31-11.32-2.57-16.7-1.86-9.62,1.27-14.76,6.93-16.19,16.43-.71,4.68-.73,9.35-.05,14.03,1.12,7.8,4.97,14.13,12.75,16.44,5.32,1.58,12.57,1.56,17.83-.23,7.48-2.55,11.04-8.93,12.05-16.53ZM131.98,47.94c-4.78-1.3-6.63-5.77-7.22-10.45-.52-4.13-.52-8.22-.02-12.35.58-4.75,2.48-9.14,7.39-10.27,2.83-.65,5.78-.66,8.6,0,4.88,1.12,6.82,5.4,7.41,10.12.52,4.18.52,8.34,0,12.53-.6,4.81-2.56,9.38-7.62,10.54-2.88.66-5.77.64-8.54-.11ZM100.99,7.98c-.73.18-1.28.61-1.6,1.31v30.93c-.01,1.25-.01,2.51-.52,3.61-.84,1.82-2.71,2.94-4.66,3.33-2.66.53-5.36.52-8.02.04-1.93-.35-3.7-1.36-4.69-3.03-.53-.89-.63-1.98-.63-3.07l-.02-31.65c0-.71-.88-1.23-1.45-1.4-2.93-.83-8.55-.7-8.54,1.56v29.32c.01,2.33.23,4.51.79,6.71,1.17,4.62,5.23,7.74,9.79,8.85,2.83.69,5.65.83,8.58.84,6.22,0,12.46-.56,16.55-5.58,1.29-1.58,2.01-3.45,2.35-5.46s.48-3.86.48-5.93V9.51c0-2.12-5.49-2.24-8.38-1.53ZM239.7,51.52l-2.31-15.46h-2.97s-3.81,11.73-3.81,11.73l-3.93-11.72h-2.97s-2.33,15.46-2.33,15.46h2.41s1.69-11.94,1.69-11.94l3.97,11.96,2.19-.03,3.95-12.02,1.67,12.05,2.43-.02ZM290.11,55.93c2.22-.58,3.97-2.48,3.98-4.89l.05-10.84-2.02-.04-.31,1.8c-1.59-2.27-4.68-2.75-6.92-.87-2.66,2.23-2.75,6.54-.23,8.92,2.12,2,5.36,1.69,7-.63.02.67.07,1.46-.08,2.15-.31,1.45-1.69,2.33-3.12,2.43-1.66.12-3.01-.5-4.43-1.54l-.07,2.39c1.87,1.26,3.99,1.69,6.14,1.13ZM289.85,48.83c-1.22.55-2.65.34-3.59-.67-1.32-1.42-1.29-3.7.06-5.09.97-1,2.46-1.16,3.65-.57s1.84,1.83,1.76,3.31c-.07,1.38-.8,2.53-1.89,3.02ZM319.04,44.16c0-1.19,1.07-2.01,2.2-1.97.91.03,1.76.62,1.76,1.63l.04,7.7h2.46s-.01-7.82-.01-7.82c0-1.01-.33-2.07-1.01-2.8-1.49-1.57-4.61-1.34-5.88.96-.57-1.31-1.74-1.95-3.04-1.97s-2.52.62-3.22,1.96l-.36-1.7-1.87.03v11.34s2.46,0,2.46,0l.05-7.52c0-1.15,1.13-1.84,2.13-1.82.9.02,1.77.61,1.78,1.61l.03,7.74,2.47-.02v-7.35ZM280.15,40.19l-2.03-.03-.29,1.93c-.77-1.26-2.04-2-3.36-2.16-1.43-.17-2.83.32-3.87,1.38-2.33,2.37-2.4,6.38-.2,8.86,1.04,1.17,2.45,1.72,3.94,1.6,1.39-.11,2.65-.85,3.5-2.17l.27,1.92,2.06-.03v-11.3ZM274.66,49.57c-1.02.04-2.01-.41-2.64-1.28-1.01-1.38-1.02-3.35-.06-4.77.64-.95,1.64-1.4,2.71-1.37s2.04.62,2.58,1.64c.7,1.31.71,2.94-.09,4.27-.57.95-1.56,1.47-2.5,1.5ZM253.1,40.19l-2.01-.03-.29,1.95c-1.47-2.44-4.59-2.91-6.79-1.18-2.91,2.29-2.99,7.33-.15,9.73,2.2,1.86,5.41,1.4,6.93-1.04l.3,1.93,2.01-.06v-11.29ZM247.45,49.56c-1.23-.01-2.32-.72-2.85-1.93-.96-2.19,0-4.97,2.24-5.4,1.2-.23,2.34.15,3.07,1.11.94,1.24,1.09,2.93.41,4.39-.57,1.22-1.67,1.85-2.86,1.84ZM302.66,49.74c-1.77-.08-3.21-1.36-3.44-3.14h8.13c.22-1.43.03-2.88-.64-4.17-1.06-2.07-3.4-2.91-5.62-2.35-3.74.95-5.11,5.12-3.71,8.48,1.46,3.51,6.21,4.15,9.39,2.08l-.04-2.14c-1.42.95-2.57,1.34-4.06,1.24ZM299.22,44.96c.15-1.22.87-2.31,2.03-2.79.89-.36,1.88-.32,2.64.23.71.5,1.16,1.27,1.2,2.54l-5.87.02ZM333.75,49.74c-1.7-.15-3.07-1.43-3.3-3.15h8.14c.17-1.18.06-2.34-.33-3.46-.71-2.05-2.6-3.32-4.78-3.23s-4.18,1.46-4.97,3.6c-.58,1.57-.57,3.27.02,4.85,1.38,3.68,6.2,4.4,9.48,2.29l-.04-2.15c-1.46,1-2.66,1.35-4.21,1.25ZM330.46,44.96c.15-1.25.92-2.37,2.13-2.83.87-.33,1.81-.25,2.54.27s1.16,1.27,1.2,2.54l-5.88.02ZM346.43,42.18c1.22.02,2.16.83,2.16,2.11l.02,7.23h2.48s-.04-7.94-.04-7.94c0-1.95-1.45-3.41-3.31-3.64-1.71-.21-3.22.44-4.18,1.95l-.33-1.73-1.87.03v11.34s2.45,0,2.45,0l.03-7.09c0-1.44,1.34-2.27,2.59-2.25ZM263.73,44.3l.02,7.23h2.45s-.06-8.23-.06-8.23c-.01-1.59-1.24-2.81-2.63-3.2-1.88-.53-3.71.07-4.84,1.82l-.3-1.75-1.88.05v11.31s2.46.01,2.46.01v-6.82c-.01-1.52,1.13-2.61,2.75-2.52,1.18.07,2.02.93,2.02,2.11ZM359.01,49.52c-1.07-.02-1.75-1.02-1.75-2.06v-5.19s3.12-.02,3.12-.02v-2.08s-3.13,0-3.13,0v-2.6s-2.38-.02-2.38-.02v2.61s-1.7.01-1.7.01v2.09s1.66,0,1.66,0l.04,5.75c.01,1.66,1.13,3.04,2.66,3.48,1.05.3,2.06.27,3.11.08v-2.02s-1.63-.04-1.63-.04ZM241.42,25.1c-1.81-.04-3.34-1.32-3.6-3.17h8.15c.36-2.79-.7-5.58-3.29-6.42-2.91-.94-5.97.66-6.89,3.57-.96,3.01.1,6.5,3.1,7.61,2.19.81,4.62.55,6.52-.75l-.05-2.14c-1.32.95-2.47,1.34-3.93,1.3ZM237.82,20.29c.18-1.29.91-2.3,2.03-2.78.88-.38,1.91-.33,2.68.23.7.51,1.15,1.3,1.18,2.54h-5.88ZM256.15,20.29l.02,7.23h2.45s-.06-8.23-.06-8.23c-.01-1.59-1.24-2.81-2.63-3.2-1.88-.53-3.71.07-4.84,1.82l-.3-1.75-1.88.05v11.31s2.46.01,2.46.01v-6.82c-.01-1.52,1.13-2.61,2.75-2.52,1.18.07,2.02.93,2.02,2.11ZM266.48,25.17c-.99,0-1.85-.88-1.85-1.93l-.02-5.36h3.15s0-2.08,0-2.08h-3.14s-.02-2.64-.02-2.64h-2.35s-.02,2.65-.02,2.65l-1.71.03v2.04s1.65,0,1.65,0l.06,5.81c.02,1.54,1.04,2.88,2.42,3.37,1.09.38,2.12.36,3.3.16l.03-2.02-1.51-.02ZM298.68,24.72c-1.81-.04-3.34-1.32-3.6-3.17h8.15c.36-2.79-.7-5.58-3.29-6.42-2.91-.94-5.97.66-6.89,3.57-.96,3.01.1,6.5,3.1,7.61,2.19.81,4.62.55,6.52-.75l-.05-2.14c-1.32.95-2.47,1.34-3.93,1.3ZM295.08,19.91c.18-1.29.91-2.3,2.03-2.78.88-.38,1.91-.33,2.68.23.7.51,1.15,1.3,1.18,2.54h-5.88ZM226.49,27.39l-5.1-15.78h3.14l2.15,7.16c.61,1.99,1.12,3.84,1.55,5.76h.05c.42-1.87.98-3.79,1.62-5.71l2.29-7.21h3.07l-5.45,15.78h-3.3ZM273.09,23.14l-.02-7.23h-2.45s.06,8.23.06,8.23c.01,1.59,1.24,2.81,2.63,3.2,1.88.53,3.71-.07,4.84-1.82l.3,1.75,1.88-.05v-11.31s-2.46-.01-2.46-.01v6.82c.01,1.52-1.13,2.61-2.75,2.52-1.18-.07-2.02-.93-2.02-2.11ZM284.07,19.67c0-1.54-.02-2.65-.09-3.68h2.5l.09,2.18h.09c.56-1.62,1.9-2.43,3.11-2.43.28,0,.44.02.68.07v2.72c-.23-.05-.49-.09-.84-.09-1.38,0-2.32.89-2.57,2.18-.05.26-.09.56-.09.89v5.9h-2.88v-7.73Z"/>
</svg>