<?xml version="1.0" encoding="utf-8"?>
<!-- Generator: Adobe Illustrator 25.0.1, SVG Export Plug-In . SVG Version: 6.00 Build 0)  -->
<svg version="1.1" id="Layer_3" xmlns="http://www.w3.org/2000/svg" xmlns:xlink="http://www.w3.org/1999/xlink" x="0px" y="0px"
	 viewBox="0 0 360.8 62.2" style="enable-background:new 0 0 360.8 62.2;" xml:space="preserve">
<style type="text/css">
	.st0{fill-rule:evenodd;clip-rule:evenodd;fill:#172430;}
	.st1{fill-rule:evenodd;clip-rule:evenodd;fill:url(#SVGID_1_);}
</style>
<g id="Layer_2_2_">
	<g id="Background">
		<path class="st0" d="M164.3,6.8c0,3.5,2.9,6.3,6.3,6.3c3.5,0,6.3-2.9,6.3-6.3c0-3.5-2.8-6.3-6.3-6.3
			C167.1,0.5,164.3,3.3,164.3,6.8z"/>
		
			<linearGradient id="SVGID_1_" gradientUnits="userSpaceOnUse" x1="180.6658" y1="32.9135" x2="180.699" y2="64.6544" gradientTransform="matrix(1 0 0 -1 0 64.4)">
			<stop  offset="0" style="stop-color:#0085B2"/>
			<stop  offset="1" style="stop-color:#38BFB2"/>
		</linearGradient>
		<path class="st1" d="M164.8,26.1c0,3.5,2.8,6.3,6.3,6.3c0,0,0,0,0,0c1.3,0,2.7-0.4,3.7-1.2c1.7-0.6,5.7-2.6,11.2,0.1
			c1.2,1.1,2.7,1.7,4.2,1.7c3.5,0,6.4-2.8,6.4-6.3s-2.8-6.4-6.3-6.4c-2.4,0-4.6,1.3-5.7,3.4c-1.1,0.7-1.2,2.8-6.8,1.6
			c2.3-6.7,9.6-11.6,12.8-12.7c3.4-0.7,5.6-4.1,4.9-7.5s-4.1-5.6-7.5-4.9c-2.9,0.6-5,3.2-5,6.2c0,0.2,0,0.4,0,0.6
			c-1.9,9.9-10.5,12.3-12.5,12.8C167.2,20.1,164.8,22.8,164.8,26.1z"/>
		<path class="st0" d="M134.5,61.7h14.4v-3.2h-9.1l9-11.1l0-2.7h-14.1v3.2h8.8l-9,11.1V61.7z M160.8,47.9c2.4,0,3.9,1.5,4.3,3.7h-9
			C156.8,49.3,158.6,47.9,160.8,47.9z M160.9,58.5c-2.4,0-4.2-1.7-4.7-4H169c0-6.2-3.1-10.2-8.3-10.2c-4.8,0-8.7,3.7-8.7,8.8
			c0,5.2,4,8.9,8.9,8.9c2.5,0,5.4-1,6.9-2.6l-2.5-2.7C164.3,57.8,162.4,58.5,160.9,58.5L160.9,58.5z M180.2,47.9
			c2.4,0,3.9,1.5,4.3,3.7h-9C176.2,49.3,178,47.9,180.2,47.9L180.2,47.9z M180.3,58.5c-2.4,0-4.2-1.7-4.7-4h12.9
			c0-6.2-3.1-10.2-8.3-10.2c-4.8,0-8.7,3.7-8.7,8.8c0,5.2,4,8.9,8.9,8.9c2.5,0,5.4-1,6.9-2.6l-2.5-2.7
			C183.7,57.8,181.9,58.5,180.3,58.5L180.3,58.5z M197.5,61.7h3.8l7.2-17h-4.3l-4.8,12.4l-4.9-12.4h-4.3L197.5,61.7z M218.1,47.9
			c2.4,0,3.9,1.5,4.3,3.7h-9C214,49.3,215.8,47.9,218.1,47.9L218.1,47.9z M218.1,58.5c-2.4,0-4.2-1.7-4.7-4h12.9
			c0-6.2-3.1-10.2-8.3-10.2c-4.8,0-8.7,3.7-8.7,8.8c0,5.2,4,8.9,8.9,8.9c2.5,0,5.4-1,6.9-2.6l-2.5-2.7
			C221.6,57.8,219.7,58.5,218.1,58.5L218.1,58.5z"/>
	</g>
</g>
</svg>
