<?xml version="1.0" encoding="utf-8"?>
<!-- Generator: Adobe Illustrator 25.0.1, SVG Export Plug-In . SVG Version: 6.00 Build 0)  -->
<svg version="1.1" id="Layer_1" xmlns="http://www.w3.org/2000/svg" xmlns:xlink="http://www.w3.org/1999/xlink" x="0px" y="0px"
	 viewBox="0 0 283.5 141.7" style="enable-background:new 0 0 283.5 141.7;" xml:space="preserve">
<style type="text/css">
	.st0{display:none;}
	.st1{display:inline;fill-rule:evenodd;clip-rule:evenodd;fill:#FFFFFF;}
	.st2{display:inline;}
	.st3{fill-rule:evenodd;clip-rule:evenodd;fill:#303030;}
	.st4{fill-rule:evenodd;clip-rule:evenodd;fill:url(#SVGID_1_);}
	.st5{opacity:0.6;fill-rule:evenodd;clip-rule:evenodd;fill:url(#SVGID_2_);enable-background:new    ;}
	.st6{opacity:0.6016;fill-rule:evenodd;clip-rule:evenodd;fill:url(#SVGID_3_);enable-background:new    ;}
	.st7{fill:#010101;}
	.st8{fill:#E2432D;}
	.st9{fill-rule:evenodd;clip-rule:evenodd;fill:#45417D;}
	.st10{fill:#272D36;}
	.st11{fill-rule:evenodd;clip-rule:evenodd;fill:#2DB674;}
	.st12{fill:#224084;}
	.st13{fill:#303030;}
	.st14{display:inline;fill-rule:evenodd;clip-rule:evenodd;fill:#383838;}
	.st15{fill-rule:evenodd;clip-rule:evenodd;fill:#FFFFFF;}
	.st16{fill-rule:evenodd;clip-rule:evenodd;fill:url(#SVGID_4_);}
	.st17{opacity:0.6;fill-rule:evenodd;clip-rule:evenodd;fill:url(#SVGID_5_);enable-background:new    ;}
	.st18{opacity:0.6016;fill-rule:evenodd;clip-rule:evenodd;fill:url(#SVGID_6_);enable-background:new    ;}
	.st19{fill:#FFFFFF;}
</style>
<g id="Light" class="st0">
	<rect x="4.2" y="4.9" class="st1" width="275" height="132"/>
</g>
<g id="Layer_1_1_" class="st0">
	<g class="st2">
		<g>
			<path class="st3" d="M143.2,69c0-4.4-3-7.6-6.9-7.6c-4,0-6.9,3.1-6.9,7.6c0,4.4,3,7.6,6.9,7.6C140.3,76.5,143.2,73.4,143.2,69z
				 M123.6,69c0-7.2,5.6-12.8,12.8-12.8s12.8,5.6,12.8,12.8c0,7.2-5.6,12.8-12.8,12.8C129.1,81.8,123.6,76.2,123.6,69z"/>
			<path class="st3" d="M157.2,68.9c0,4.5,3,7.6,6.9,7.6s6.9-3.1,6.9-7.6s-3-7.6-6.9-7.6C160.2,61.3,157.2,64.4,157.2,68.9z
				 M157.4,78.5L157.4,78.5l-0.1,11.9h-5.6V56.6h5.6v2.8h0.1c1.6-1.6,4-3.3,7.8-3.3c6.5,0,11.6,5.1,11.6,12.8
				c0,7.7-5.1,12.8-11.6,12.8C161.5,81.8,159,80.1,157.4,78.5z"/>
			<path class="st3" d="M185.2,68.9c0,4.5,3,7.6,6.9,7.6s6.9-3.1,6.9-7.6s-3-7.6-6.9-7.6C188.2,61.3,185.2,64.4,185.2,68.9z
				 M185.4,78.5L185.4,78.5l-0.1,11.9h-5.6V56.6h5.6v2.8h0.1c1.6-1.6,4-3.3,7.8-3.3c6.5,0,11.6,5.1,11.6,12.8
				c0,7.7-5.1,12.8-11.6,12.8C189.4,81.8,187,80.1,185.4,78.5z"/>
			<path class="st3" d="M212.8,66.5H225c-0.6-3.1-3.2-5.4-6.1-5.4S213.4,63.3,212.8,66.5z M224.9,73.4l5.9,0.8
				c-2.4,5.7-6.4,7.6-11.5,7.6c-7.2,0-12.5-5.1-12.5-12.8s5.3-12.8,12.1-12.8c6.6,0,12.5,4.7,12.5,14.7H213c0.4,4,3.2,6.1,6.4,6.1
				C221.9,76.8,223.9,75.5,224.9,73.4z"/>
			<path class="st3" d="M239.7,56.6v2.8h0.1c1.3-1.6,3.1-3,6.4-3c0.4,0,1.3,0.1,1.8,0.3v5.6c-0.8-0.2-1.7-0.3-2.4-0.3
				c-4.2,0-6,1.8-6,5.8v13.5H234V56.6H239.7z"/>
			<path class="st3" d="M114.7,72.9c-1,2.4-3.1,3.8-5.7,3.8c-2.4,0-4.3-1.2-5.4-3.2c-0.2-0.5-0.4-1-0.6-1.5l0,0
				c-0.3-0.9-0.4-1.9-0.4-3s0.1-2.1,0.4-3l0,0c0.2-0.6,0.4-1.1,0.6-1.5c1.1-2,3-3.2,5.4-3.2c2.6,0,4.7,1.5,5.7,3.8
				c0.1,0.3,0.2,0.6,0.3,0.9l0,0v0.1h6c-0.2-0.8-0.4-1.6-0.7-2.4c-1.8-4.7-5.8-7.6-11.1-7.6c-0.1,0-0.2,0-0.3,0c-0.1,0-0.2,0-0.3,0
				c-4.6,0-8.3,2.3-10.3,6c-1.1,1.9-1.7,4.2-1.7,6.8c0,2.6,0.6,4.9,1.7,6.8c2,3.7,5.7,6,10.3,6c0.1,0,0.2,0,0.3,0c0.1,0,0.2,0,0.3,0
				c5.2,0,9.3-2.9,11.1-7.6c0.2-0.4,0.3-0.9,0.5-1.4h-6.1V72.9z"/>
		</g>
		<g>
			
				<linearGradient id="SVGID_1_" gradientUnits="userSpaceOnUse" x1="78.2997" y1="2218.2085" x2="43.7073" y2="2170.4846" gradientTransform="matrix(1 0 0 1 0 -2125.6365)">
				<stop  offset="0" style="stop-color:#B9785D"/>
				<stop  offset="0.2189" style="stop-color:#E99178"/>
				<stop  offset="0.7394" style="stop-color:#FABCA4"/>
				<stop  offset="1" style="stop-color:#B5745A"/>
			</linearGradient>
			<path class="st4" d="M80.5,85.1L80.5,85.1c-2.3,2.6-4.9,4-6.6,4.6c-4.9,1.9-9.8,1.8-14.6-0.2c-4.9-2-9.3-6.3-11.5-11
				c-1-2.1-1.5-4.4-1.5-6.6c0-0.5,0-1,0-1.1v-0.1l0,0l0,0l0,0v-0.1l0,0c0-0.1,0-0.2,0-0.4c0.1-3.3,1.3-6.4,3.6-8.8
				c1-1.1,2.2-1.9,3.5-2.5s2.8-0.9,4.3-0.9c-0.5,0.4-1,0.9-1.5,1.4c-2.7,2.9-4.2,6.9-4.2,11.3s1.5,8.4,4.2,11.3
				c1.5,1.7,3.4,2.9,5.5,3.6c1.5,0.5,3.1,0.8,4.8,0.8c2.8,0,6.9-0.8,10.2-4.4c1.1-1.2,2.1-2.7,2.7-4.3h5.5
				C84,80.3,82.5,82.9,80.5,85.1z M44,85.1c-3.6-3.8-5.5-9.1-5.5-14.7c0-5.7,2-10.9,5.5-14.8c3.6-3.9,8.6-6.1,14-6.1
				c1.4,0,2.7,0.1,4,0.4l0,0c6.9,1.4,12.3,6.5,14.4,13.5h-5.5c-0.7-1.6-1.6-3-2.7-4.3c-1.5-1.7-3.4-2.9-5.4-3.6
				c-1.5-0.5-3.1-0.8-4.8-0.8c-2.1,0-4,0.4-5.8,1.2c-1.7,0.8-3.2,1.8-4.5,3.2c-0.3,0.3-0.6,0.7-0.9,1.1c-1.8,2-3,4.7-3.3,8
				c-0.1,0.6-0.1,1.2-0.1,1.8l0,0l0,0c0,0.1,0,0.3,0,0.4l0,0l0,0v0.1l0,0l0,0l0,0l0,0l0,0l0,0v0.1c0,0.4,0,0.7,0,1.1
				c0,0.1,0,0.1,0,0.2c0.1,2.7,0.7,5.3,1.8,7.8c2,4.5,5.8,8.6,10.2,11.2C51,90.3,47,88.3,44,85.1z M78.8,53.9
				c2.9,2.5,4.9,5.7,5.9,9.5h-5.2c-1.6-5.9-5.1-10.7-9.9-13.7C73.1,50.2,76.2,51.6,78.8,53.9z M68.2,81.6c1.1-1.2,2.1-2.7,2.7-4.3
				H76c-0.5,0.8-1,1.6-1.6,2.2c-2.5,2.7-5.5,3.4-7.7,3.4C67.2,82.6,67.7,82.1,68.2,81.6z M88.4,74.3h-8.1H68.8l-0.4,1
				c-0.6,1.6-1.4,3.1-2.5,4.2c-1.1,1.2-2.4,2.1-3.8,2.7c-1.4-0.6-2.7-1.5-3.8-2.7c-2.2-2.3-3.3-5.6-3.3-9.2s1.2-6.8,3.3-9.2
				c1-1.1,2.2-1.9,3.5-2.5c0.1-0.1,0.2-0.1,0.3-0.1c1.4,0.6,2.7,1.5,3.7,2.6c1.1,1.2,1.9,2.6,2.5,4.2l0.4,1h9.5l0,0h1.9h8.1
				c0-6-3.8-11.6-7.6-14.9c-3.9-3.3-8.9-5.1-14.3-5.1c-1.4,0-2.8,0.1-4.2,0.4c-1.4-0.3-2.8-0.4-4.3-0.4c-6.3,0-12,2.5-16.2,7.1
				c-4.1,4.4-6.3,10.4-6.3,16.9c0,6.4,2.3,12.4,6.3,16.8c4.2,4.5,9.9,6.9,16.2,6.9c1.4,0,3.5,0,5.1-0.4c1.3,0.2,2.6,0.4,3.9,0.4
				c2.7,0,5.4-0.5,8.1-1.5c2.1-0.8,5.1-2.4,7.7-5.4l0,0l0,0l0,0C85.5,84.1,88.1,79.7,88.4,74.3z"/>
			<g>
				
					<linearGradient id="SVGID_2_" gradientUnits="userSpaceOnUse" x1="36.9" y1="2213.1365" x2="64.7" y2="2213.1365" gradientTransform="matrix(1 0 0 1 0 -2125.6365)">
					<stop  offset="0" style="stop-color:#30363C;stop-opacity:1.000000e-02"/>
					<stop  offset="1" style="stop-color:#30363C;stop-opacity:0.6"/>
				</linearGradient>
				<path class="st5" d="M36.9,79.7v15.6h27.8V94c-10-1.2-17.4-8.7-19.5-14.3H36.9z"/>
				
					<linearGradient id="SVGID_3_" gradientUnits="userSpaceOnUse" x1="59.2979" y1="2192.0544" x2="59.2979" y2="2183.3105" gradientTransform="matrix(1 0 0 1 0 -2125.6365)">
					<stop  offset="0" style="stop-color:#30363C;stop-opacity:1.000000e-02"/>
					<stop  offset="1" style="stop-color:#30363C;stop-opacity:0.6"/>
				</linearGradient>
				<path class="st6" d="M52,66.4h10.2v-4.2c0.8,0.5,1.5,1,2.2,1.6c1.5-0.9,3-0.9,1.7-2.5s-3.6-3-6.1-3.5c-2.5-0.4-5.6,0.3-6.9,1.1
					c-0.6,0.3-0.5,1.5,0.2,2.6L52,66.4z"/>
			</g>
		</g>
	</g>
</g>
<g id="Layer_3" class="st0">
	<g class="st2">
		<path class="st7" d="M48.6,77.1c-3.1,0-5.6-1-7.5-2.9v2.4h-5.7V40.9l5.6-1.8v14.2c1.8-1.9,4.3-2.9,7.5-2.9c3.7,0,6.8,1.3,9.2,3.9
			c2.4,2.6,3.6,5.7,3.6,9.4s-1.2,6.8-3.6,9.4C55.4,75.8,52.3,77.1,48.6,77.1z M47.9,72c2.2,0,4.1-0.8,5.5-2.4s2.2-3.5,2.2-5.8
			c0-2.3-0.7-4.2-2.2-5.8c-1.4-1.6-3.3-2.4-5.5-2.4c-2.9,0-5.2,1.2-6.9,3.5v9.3C42.7,70.8,45,72,47.9,72z"/>
		<path class="st7" d="M69.5,46.4c-1,0-1.9-0.4-2.6-1.1c-0.7-0.7-1.1-1.7-1.1-2.7c0-2.1,1.7-3.7,3.7-3.7c1,0,2,0.4,2.7,1.1
			c0.7,0.7,1.1,1.6,1.1,2.6C73.3,44.7,71.6,46.4,69.5,46.4L69.5,46.4z M66.7,76.6V51h5.6v25.6H66.7z"/>
		<path class="st7" d="M91.5,76.9c-2.6,0-4.8-0.7-6.4-2.2c-1.7-1.5-2.5-3.6-2.5-6.3V56h-6.4v-5h6.3v-5.7l5.6-1.8V51h7.8v5h-7.8v11.4
			c0,2.9,1.3,4.4,4,4.4c1.4,0,2.6-0.3,3.6-0.9l1.7,4.7C95.8,76.4,93.8,76.9,91.5,76.9z"/>
		<path class="st7" d="M101.3,88.3V51h5.6v2.4c1.9-1.9,4.3-2.9,7.5-2.9c3.7,0,6.8,1.3,9.2,3.9c2.4,2.6,3.6,5.7,3.6,9.4
			s-1.2,6.8-3.6,9.4s-5.5,3.9-9.2,3.9c-3.1,0-5.6-1-7.5-2.9v12.4L101.3,88.3z M113.8,72c2.2,0,4.1-0.8,5.5-2.4s2.2-3.5,2.2-5.8
			c0-2.3-0.7-4.2-2.2-5.8c-1.4-1.6-3.3-2.4-5.5-2.4c-2.9,0-5.2,1.2-6.9,3.5v9.3C108.6,70.8,110.9,72,113.8,72z"/>
		<path class="st7" d="M143.5,77.1c-3.7,0-6.8-1.3-9.2-3.9s-3.6-5.7-3.6-9.4c0-3.7,1.2-6.8,3.6-9.4c2.4-2.6,5.5-3.9,9.2-3.9
			c3.1,0,5.6,1,7.5,2.9V51h5.6v25.6H151v-2.4C149.2,76.1,146.7,77.1,143.5,77.1z M144.2,72c2.9,0,5.2-1.2,6.8-3.6v-9.3
			c-1.6-2.4-3.9-3.5-6.8-3.5c-2.2,0-4.1,0.8-5.5,2.4c-1.4,1.6-2.2,3.5-2.2,5.8c0,2.3,0.7,4.2,2.2,5.8S142,72,144.2,72z"/>
		<path class="st7" d="M162.7,76.6V51h5.6v2.7c1.7-2.2,4.3-3.2,7.5-3.2c3,0,5.5,1,7.3,3s2.7,4.6,2.7,7.9v15.3h-5.6V62.2
			c0-2.1-0.5-3.7-1.5-4.9s-2.4-1.7-4.2-1.7c-3,0-5.1,1.3-6.3,4v17H162.7z"/>
		<path class="st7" d="M203.7,77.1c-3.7,0-6.8-1.3-9.2-3.9s-3.6-5.7-3.6-9.4c0-3.7,1.2-6.8,3.6-9.4c2.4-2.6,5.5-3.9,9.2-3.9
			c3.1,0,5.6,1,7.5,2.9V40.9l5.6-1.8v37.4h-5.6v-2.4C209.3,76.1,206.8,77.1,203.7,77.1z M204.3,72c2.9,0,5.2-1.2,6.8-3.6v-9.3
			c-1.6-2.4-3.9-3.5-6.8-3.5c-2.2,0-4.1,0.8-5.5,2.4c-1.4,1.6-2.2,3.5-2.2,5.8c0,2.3,0.7,4.2,2.2,5.8C200.3,71.2,202.1,72,204.3,72z
			"/>
		<path class="st7" d="M234.9,77.1c-3.7,0-6.8-1.3-9.2-3.9s-3.6-5.7-3.6-9.4c0-3.7,1.2-6.8,3.6-9.4c2.4-2.6,5.5-3.9,9.2-3.9
			c3.1,0,5.6,1,7.5,2.9V51h5.6v25.6h-5.6v-2.4C240.5,76.1,238,77.1,234.9,77.1z M235.6,72c2.9,0,5.2-1.2,6.8-3.6v-9.3
			c-1.6-2.4-3.9-3.5-6.8-3.5c-2.2,0-4.1,0.8-5.5,2.4c-1.4,1.6-2.2,3.5-2.2,5.8c0,2.3,0.7,4.2,2.2,5.8C231.5,71.2,233.3,72,235.6,72z
			"/>
		<path class="st7" d="M124.2,91.9c0-3.5,2.7-6.4,6.5-6.4c2.5,0,4.6,1.3,5.7,3.2l-1.5,0.9c-0.7-1.5-2.2-2.5-4.2-2.5
			c-2.8,0-4.7,2.2-4.7,4.8c0,2.6,1.9,4.8,4.7,4.8c1.9,0,3.4-1,4.2-2.5l1.5,0.9c-1.1,1.9-3.1,3.2-5.7,3.2
			C126.9,98.3,124.2,95.4,124.2,91.9z"/>
		<path class="st7" d="M149.3,98.1h-1.7v-1.7c-0.9,1.4-2.4,2-3.9,2c-2.6,0-4.5-1.9-4.5-4.9v-7.7h1.7v7.5c0,2.3,1.3,3.5,3.2,3.5
			c1.8,0,3-1.2,3.5-2.8v-8.2h1.7V98.1L149.3,98.1z"/>
		<path class="st7" d="M152.4,95.3l1.6-0.6c0.4,1.4,1.9,2.1,3.3,2.1c1.3,0,2.4-0.7,2.4-1.9c0-1-0.6-1.6-2.3-2.2l-1.3-0.4
			c-2-0.6-3-1.8-3-3.5c0-2.1,1.8-3.3,4.1-3.3c1.8,0,3.2,0.8,4,2.2l-1.4,0.9c-0.5-0.8-1.4-1.5-2.7-1.5c-1.2,0-2.3,0.7-2.3,1.7
			c0,0.9,0.5,1.5,1.9,2l1.4,0.4c2.1,0.7,3.3,1.8,3.3,3.6c0,2.3-1.8,3.6-4.2,3.6C154.9,98.3,153,97.3,152.4,95.3L152.4,95.3z"/>
		<path class="st7" d="M165.8,94.6v-7.3h-3.1v-1.6h3.1v-3.4h1.7v3.4h3.9v1.6h-3.9v7.1c0,1.6,0.9,2.2,2,2.2c0.9,0,1.4-0.2,1.8-0.5
			l0.5,1.5c-0.5,0.2-1.3,0.5-2.5,0.5C167.6,98.2,165.8,97.1,165.8,94.6L165.8,94.6z"/>
		<path class="st7" d="M173.1,91.9c0-3.5,2.7-6.4,6.5-6.4s6.5,2.9,6.5,6.4s-2.7,6.4-6.5,6.4S173.1,95.4,173.1,91.9z M184.3,91.9
			c0-2.6-1.9-4.8-4.7-4.8s-4.7,2.2-4.7,4.8c0,2.6,1.9,4.8,4.7,4.8C182.4,96.7,184.3,94.5,184.3,91.9z"/>
		<path class="st7" d="M188.2,91.9c0-3.5,2.6-6.4,6.3-6.4c1.7,0,3.2,0.6,4.3,1.8V80h1.7v18.1h-1.7v-1.5c-1.1,1.2-2.6,1.8-4.3,1.8
			C190.8,98.3,188.2,95.4,188.2,91.9L188.2,91.9z M198.8,94.5v-5.1c-0.8-1.3-2.2-2.3-4.2-2.3c-2.7,0-4.6,2.2-4.6,4.8
			c0,2.7,1.9,4.8,4.6,4.8C196.6,96.7,198,95.7,198.8,94.5L198.8,94.5z"/>
		<path class="st7" d="M205.9,102.9l2.5-5.4l-5.5-11.7h1.9l4.5,9.8l4.5-9.8h2l-8,17.2L205.9,102.9L205.9,102.9z"/>
	</g>
</g>
<g id="Layer_4" class="st0">
	<g class="st2">
		<path id="_309677536" class="st8" d="M40.2,86.8h-4.7V55.7h10.3c3.1,0,5.6,1,7.7,2.8c2.1,1.9,3.1,4.6,3.1,8c0,3.5-1.1,6.3-3.4,8.3
			c-2.3,2-5,3-8.2,3h-4.7L40.2,86.8L40.2,86.8z M45,60.1h-4.8v13.3h3.9c2.3,0,4.1-0.6,5.5-1.9c1.4-1.2,2.1-2.9,2.1-5
			s-0.6-3.7-1.8-4.8C48.7,60.7,47.1,60.1,45,60.1z M70,86.8h-4.7V55.7h10.4c2.9,0,5.5,0.9,7.5,2.8c2.1,1.9,3.2,4.4,3.2,7.6
			c0,2.1-0.5,4-1.4,5.6s-2.2,2.9-3.9,3.9l6.5,11l-0.1,0.3h-4.9l-5.9-9.7c-0.5,0.1-1.3,0.2-2.2,0.2H70V86.8L70,86.8z M74.8,60.1H70
			v12.7h4c2.2,0,4-0.6,5.4-1.8c1.4-1.2,2.1-2.8,2.1-4.8c0-1.9-0.6-3.4-1.9-4.5C78.4,60.6,76.8,60.1,74.8,60.1L74.8,60.1z
			 M109.9,87.1c-4.5,0-8.2-1.5-11.2-4.5s-4.4-6.8-4.4-11.4c0-4.5,1.5-8.3,4.4-11.3c2.9-3.1,6.7-4.6,11.3-4.6c4.5,0,8.2,1.5,11.2,4.6
			c2.9,3,4.4,6.8,4.4,11.3c0,4.4-1.5,8.2-4.4,11.4C118.2,85.6,114.5,87.1,109.9,87.1L109.9,87.1z M109.9,82.5c3.1,0,5.6-1.1,7.7-3.2
			c2.1-2.2,3.2-4.9,3.2-8.1c0-3.3-1-6-3.1-8.1c-2-2.1-4.6-3.2-7.8-3.2c-3.1,0-5.7,1.1-7.7,3.2c-2.1,2.1-3.1,4.8-3.1,8.1
			c0,3.2,1,5.9,3.1,8.1C104.3,81.4,106.9,82.5,109.9,82.5L109.9,82.5z M139.9,86.8h-4.7V55.7h10.3c3.1,0,5.6,1,7.7,2.8
			c2.1,1.9,3.1,4.6,3.1,8c0,3.5-1.1,6.3-3.4,8.3c-2.3,2-5,3-8.2,3H140v9H139.9z M144.7,60.1h-4.8v13.3h3.9c2.3,0,4.1-0.6,5.5-1.9
			c1.4-1.2,2.1-2.9,2.1-5s-0.6-3.7-1.8-4.8C148.5,60.7,146.8,60.1,144.7,60.1z M192.9,86.8h-4.7V55.3h0.4l21.6,21.3v-21h4.7v31.5
			h-0.4l-21.6-21.3V86.8z M248,82.2v4.6h-20.8V55.7H248v4.6h-16v9h14v4.4h-14v8.6h16V82.2z"/>
		<path id="_309677296" class="st9" d="M164.2,68h3.4v19.2h-3.4V68z M174.4,54.5h3.4v32.7h-3.4V54.5z M169.3,61h3.4v26.2h-3.4V61z"
			/>
	</g>
</g>
<g id="Layer_5" class="st0">
	<g class="st2">
		<g>
			<polygon class="st10" points="108.7,55.4 102.7,55.4 102.7,84.9 121.7,84.9 121.7,80 108.7,80 			"/>
			<path id="_x31_" class="st10" d="M128.6,60c0.5,0,1-0.1,1.4-0.2c0.4-0.1,0.8-0.4,1-0.6c0.3-0.3,0.5-0.6,0.7-0.9
				c0.1-0.4,0.2-0.8,0.2-1.2s-0.1-0.9-0.2-1.2c-0.2-0.4-0.4-0.7-0.7-1s-0.7-0.5-1.1-0.6c-0.4-0.1-0.9-0.2-1.4-0.2s-0.9,0.1-1.4,0.2
				c-0.4,0.1-0.7,0.3-1,0.6s-0.5,0.6-0.7,1s-0.2,0.8-0.2,1.2s0.1,0.8,0.2,1.2c0.2,0.4,0.4,0.7,0.7,0.9c0.3,0.3,0.6,0.5,1,0.6
				C127.6,59.9,128.1,60,128.6,60L128.6,60z M131.4,84.9V62.8h-5.6V85L131.4,84.9L131.4,84.9z"/>
			<path id="_x31_2" class="st10" d="M162.9,62.3c-0.9,0-1.7,0.1-2.5,0.4c-0.8,0.3-1.5,0.7-2.1,1.2c-0.7,0.5-1.2,1.2-1.7,1.9
				c-0.4,0.7-0.8,1.6-1,2.5c-0.2-1-0.5-1.9-0.8-2.6c-0.3-0.8-0.8-1.4-1.3-1.9c-0.5-0.5-1.2-0.8-2-1.1c-0.8-0.2-1.7-0.4-2.8-0.4
				c-1.8,0-3.2,0.4-4.2,1.2c-1.1,0.8-1.8,2-2.2,3.7l-0.4-4.5h-5.2v22.2h5.6V73.7c0.1-1,0.2-1.9,0.4-2.7c0.2-0.8,0.5-1.5,0.9-2
				c0.4-0.6,0.9-1,1.4-1.3s1.1-0.4,1.8-0.4s1.3,0.1,1.8,0.3c0.5,0.2,0.9,0.5,1.2,0.9s0.5,1,0.7,1.6c0.1,0.7,0.2,1.5,0.2,2.4v12.4
				h5.6V73.7c0.1-2,0.6-3.5,1.4-4.7c0.4-0.6,0.9-1,1.4-1.3s1.2-0.4,1.8-0.4c0.7,0,1.3,0.1,1.8,0.3c0.5,0.2,0.9,0.5,1.2,0.9
				s0.5,1,0.6,1.6c0.1,0.7,0.2,1.5,0.2,2.4v12.4h5.6V71.7c0-1.6-0.1-3-0.4-4.1c-0.3-1.2-0.7-2.2-1.2-2.9c-0.6-0.8-1.3-1.3-2.3-1.7
				C165.4,62.5,164.2,62.3,162.9,62.3L162.9,62.3z"/>
			<path id="_x31_23" class="st10" d="M178.4,60c0.5,0,1-0.1,1.4-0.2c0.4-0.1,0.8-0.4,1-0.6c0.3-0.3,0.5-0.6,0.7-0.9
				c0.1-0.4,0.2-0.8,0.2-1.2s-0.1-0.9-0.2-1.2c-0.2-0.4-0.4-0.7-0.7-1s-0.7-0.5-1.1-0.6c-0.4-0.1-0.9-0.2-1.4-0.2s-0.9,0.1-1.4,0.2
				c-0.4,0.1-0.7,0.3-1,0.6s-0.5,0.6-0.7,1s-0.2,0.8-0.2,1.2s0.1,0.8,0.2,1.2c0.2,0.4,0.4,0.7,0.7,0.9c0.3,0.3,0.6,0.5,1,0.6
				C177.4,59.9,177.9,60,178.4,60L178.4,60z M181.2,84.9V62.8h-5.6V85L181.2,84.9L181.2,84.9z"/>
			<path id="_x31_234" class="st10" d="M207.1,84.9V72.5c0-3.4-0.7-5.9-2-7.6c-1.3-1.7-3.3-2.5-5.9-2.5c-1.8,0-3.3,0.3-4.5,1
				c-1.2,0.6-2.1,1.6-2.7,2.9l-0.4-3.5h-5.2V85h5.6V73.7c0-1,0.2-1.9,0.4-2.7c0.3-0.8,0.6-1.5,1.1-2c0.5-0.6,1-1,1.6-1.3
				s1.3-0.4,2-0.4s1.4,0.1,1.9,0.3c0.5,0.2,1,0.5,1.4,1c0.7,0.9,1,2.3,1,4.3V85L207.1,84.9L207.1,84.9z"/>
			<path id="_x31_2345" class="st10" d="M232.7,80.8c-0.5-0.1-0.8-0.4-1-0.9s-0.3-1.1-0.3-2V71c0-1.3-0.2-2.6-0.6-3.6
				c-0.4-1.1-1-2-1.9-2.7c-0.8-0.8-1.8-1.3-3-1.7s-2.5-0.6-4.1-0.6c-1.3,0-2.5,0.1-3.5,0.4c-1.1,0.3-2,0.7-2.9,1.3
				c-0.9,0.6-1.5,1.3-2,2.1c-0.5,0.8-0.7,1.7-0.8,2.8l5.3,1c0.1-0.5,0.2-0.9,0.4-1.3s0.5-0.7,0.9-1s0.8-0.5,1.2-0.6s0.9-0.2,1.4-0.2
				c0.6,0,1.2,0.1,1.7,0.3c0.5,0.2,0.9,0.4,1.2,0.8c0.3,0.3,0.6,0.7,0.8,1.2c0.2,0.4,0.3,1,0.3,1.5v1c-1-0.1-1.9-0.2-2.9-0.3
				c-0.9-0.1-1.9-0.1-2.8-0.1c-1.4,0-2.6,0.2-3.7,0.5c-1.1,0.3-2,0.9-2.8,1.6s-1.4,1.5-1.8,2.4c-0.4,0.9-0.6,1.9-0.6,3
				c0,1,0.2,1.9,0.5,2.7c0.4,0.8,0.9,1.5,1.6,2.1c0.7,0.6,1.6,1,2.6,1.3s2.1,0.4,3.4,0.4c0.8,0,1.5-0.1,2.2-0.3
				c0.7-0.2,1.4-0.4,2-0.8c0.6-0.3,1.2-0.7,1.6-1c0.4-0.4,0.7-0.8,0.9-1.2c0.4,1.1,0.9,1.9,1.7,2.4s1.8,0.8,3,0.8
				c0.8,0,1.4-0.1,2.1-0.3c0.6-0.2,1.2-0.4,1.8-0.8l0.3-3.8c-0.5,0.2-0.9,0.3-1.3,0.4C233.4,80.9,233,80.9,232.7,80.8L232.7,80.8z
				 M220.8,81c-0.6,0-1.1-0.1-1.6-0.2s-0.9-0.3-1.3-0.5c-0.4-0.2-0.7-0.5-0.9-0.8s-0.3-0.7-0.3-1.1s0.1-0.9,0.3-1.2
				c0.2-0.4,0.5-0.7,0.9-1s0.8-0.5,1.3-0.7s1.1-0.3,1.7-0.3c0.7-0.1,1.4-0.1,2.2,0c0.8,0,1.7,0.2,2.6,0.3v2.9
				c-0.2,0.4-0.4,0.7-0.7,1s-0.7,0.6-1.1,0.9c-0.4,0.3-0.9,0.4-1.4,0.6C222,80.9,221.4,81,220.8,81L220.8,81z"/>
			<path id="_x31_23456" class="st10" d="M244.3,53.3h-5.6v25.5c0,2.1,0.4,3.8,1.3,4.8c0.9,1.1,2.2,1.6,4,1.6c0.8,0,1.4-0.1,2.1-0.3
				c0.6-0.2,1.2-0.4,1.8-0.8l0.3-3.8c-0.5,0.2-0.9,0.3-1.3,0.4c-0.4,0-0.8,0-1.1-0.1c-0.5-0.1-0.8-0.4-1-0.9s-0.3-1.1-0.3-2
				L244.3,53.3L244.3,53.3z"/>
		</g>
		<path class="st11" d="M71.6,51.3c10.8,0,19.6,8.8,19.6,19.6s-8.8,19.6-19.6,19.6c-3,0-5.8-0.7-8.3-1.8c-2.5,1.2-5.3,1.8-8.3,1.8
			c-10.8,0-19.6-8.8-19.6-19.6S44.2,51.3,55,51.3c3,0,5.8,0.7,8.3,1.8C65.8,52,68.6,51.3,71.6,51.3L71.6,51.3z M57.7,84.6
			c-3.5-3.5-5.7-8.4-5.7-13.8s2.2-10.2,5.7-13.8c-0.9-0.2-1.8-0.3-2.7-0.3c-7.7,0-14,6.3-14,14s6.3,14,14,14
			C55.9,84.9,56.8,84.8,57.7,84.6L57.7,84.6z M68.9,57.1c3.5,3.5,5.7,8.4,5.7,13.8V71H69v-0.1c0-4.6-2.3-8.7-5.7-11.3
			c-3.5,2.6-5.7,6.7-5.7,11.3c0,7.7,6.3,14,14,14s14-6.3,14-14s-6.3-14-14-14C70.7,56.8,69.8,56.9,68.9,57.1L68.9,57.1z"/>
	</g>
</g>
<g id="Layer_6" class="st0">
	<g class="st2">
		<g transform="translate(36.576271, 2.777778)">
			<path class="st12" d="M113.8,58.1v7.1h0.1c1.2-1.5,2.8-2.3,5-2.3c1,0,1.9,0.2,2.8,0.5s1.6,0.8,2.3,1.4c0.7,0.6,1.2,1.4,1.6,2.4
				s0.6,2.1,0.6,3.3c0,1.4-0.3,2.7-0.8,3.9c-0.5,1.2-1.3,2.2-2.4,2.9s-2.5,1.1-4.1,1.1c-2.4,0-4-0.8-5-2.3h-0.1V78h-4.5V58.1H113.8z
				 M96.6,62.5c8.7,0,7.9,9.3,7.9,9.3l0,0H92.7c0.5,1.8,2.1,3.1,4.3,3.1c2.7,0,4.1-1.6,4.1-1.6l0,0l2.5,2.6c-1.3,1.3-3,2.5-6.6,2.5
				c-5.6,0-8.5-3.7-8.5-7.6S90.6,62.5,96.6,62.5z M204.7,62.5c3.7,0,6.1,1.4,6.1,1.4l0,0l-1.5,3.3c-5-2.6-7.2-0.8-7.2,0.2
				s0.9,1,4.4,1.6s5.1,2.1,5.1,4.4s-2,4.9-6.9,4.9s-7.1-1.6-7.1-1.6l0,0l1.5-3.3c3.8,2.4,8.2,1.6,8.2,0.2c0-1.1-1.4-1.3-3-1.5
				l-0.7-0.1c-0.3,0-0.6-0.1-0.9-0.1c-2-0.3-4.9-1.4-4.9-4.4S200.9,62.5,204.7,62.5z M182.8,57.1v12l6.5-6.2h5.3l-6.4,6.2l7.1,9.2
				H190l-4.8-6.3l-2.3,2.2v4.1h-4.3V57.1H182.8z M167.3,62.4c3.1,0,5.8,1.5,7.3,3.8l0,0l-3.7,2.2c-0.7-1.3-2-2.2-3.6-2.2
				c-2.3,0-4.1,1.9-4.1,4.2c0,2.3,1.8,4.2,4.1,4.2c1.5,0,2.8-0.8,3.5-2l0,0l3.7,2.1c-1.5,2.2-4.2,3.7-7.2,3.7
				c-4.7,0-8.5-3.6-8.5-7.9C158.8,65.9,162.6,62.4,167.3,62.4z M147.1,62.4c4.7,0,8.5,3.6,8.5,7.9s-3.8,7.9-8.5,7.9
				s-8.5-3.6-8.5-7.9C138.6,65.9,142.4,62.4,147.1,62.4z M70,62.8v15.3h-4.7V62.8H70z M61.1,58.2V62H50.5v5.1h9.3v3.8h-9.3v7.2h-4.7
				V58.2H61.1z M80.1,64.7c0,0,1.7-2.6,5.1-2.2l0,0v4.3c0,0-3.7-1-5.1,2.9l0,0v8.4h-4.5V62.8h4.3L80.1,64.7L80.1,64.7z M134.1,57v21
				h-4.7V57H134.1z M117.5,66.3c-2.6,0-3.9,1.6-3.9,4.8c0,1.2,0.3,2.2,1,3s1.7,1.2,3,1.2c0.9,0,1.6-0.2,2.2-0.7s1-1,1.2-1.7
				s0.4-1.4,0.4-2c0-1.3-0.3-2.4-0.9-3.2C119.8,66.7,118.8,66.3,117.5,66.3z M147.1,66.2c-2.3,0-4.1,1.9-4.1,4.2
				c0,2.3,1.8,4.2,4.1,4.2s4.1-1.9,4.1-4.2C151.2,68,149.4,66.2,147.1,66.2z M96.7,65.8c-2.3,0-3.6,1.4-4,3.3l0,0h7.7
				C100.4,68.6,99.6,65.8,96.7,65.8z M67.7,55.6c1.5,0,2.8,1.1,2.8,2.5s-1.2,2.5-2.8,2.5s-2.8-1.1-2.8-2.5
				C64.9,56.7,66.1,55.6,67.7,55.6z"/>
		</g>
		<g>
			<path class="st12" d="M66.7,54.8c0.7,0,1.3,0.6,1.3,1.3l0,0v29.5c0,0.7-0.6,1.3-1.3,1.3l0,0h-30c-0.7,0-1.3-0.6-1.3-1.3l0,0V56.1
				c0-0.7,0.6-1.3,1.3-1.3l0,0H66.7L66.7,54.8z M51.7,63.7l-9,14.3h18.1L51.7,63.7z"/>
		</g>
	</g>
</g>
<g id="Layer_7">
	<g>
		<path class="st13" d="M99.8,71.2c0-10.5,8.3-18.6,19.4-18.6c11.2,0,19.4,8.1,19.4,18.6c0,10.4-8.3,18.6-19.4,18.6
			C108.1,89.8,99.8,81.8,99.8,71.2z M130,71.2c0-6.1-4.5-10.8-10.8-10.8s-10.9,4.7-10.9,10.8S112.8,82,119.2,82S130,77.4,130,71.2z"
			/>
		<path class="st13" d="M146.4,53.3h14.3c7.5,0,13,4.8,13,11.8c0,4.8-2.8,8.6-6.5,10.4l7.8,13.6h-9.2l-6.2-12h-4.9v12h-8.3
			L146.4,53.3L146.4,53.3z M159.9,70.2c3,0,5.2-1.8,5.2-5.1c0-3-2.1-4.9-5.3-4.9h-5.2v10H159.9L159.9,70.2z"/>
		<path class="st13" d="M189.5,75.3l-12.7-21.9h9l7.5,13.8h0.5l7.4-13.8h9.1l-12.5,21.9v13.9h-8.3V75.3L189.5,75.3z"/>
		<path class="st13" d="M227.2,75.3l-12.7-21.9h9l7.5,13.8h0.5l7.4-13.8h9.1l-12.5,21.9v13.9h-8.3V75.3L227.2,75.3z"/>
		<g>
			<g>
				<path class="st13" d="M76.8,46.6H44c-3.3,3.2-5.2,5.1-8.5,8.3v32c3.3,3.2,5.2,5.1,8.5,8.3h13.2V81.9H53
					c-1.5-1.5-2.4-2.3-3.9-3.8V63.6c1.5-1.5,2.4-2.3,3.9-3.8h15c1.5,1.5,2.4,2.3,3.9,3.8v14.6c-1.5,1.5-2.4,2.3-3.9,3.8h-4v13.2
					h12.9c3.3-3.2,5.2-5.1,8.5-8.3v-32C82,51.6,80.2,49.8,76.8,46.6z"/>
			</g>
		</g>
	</g>
</g>
<g id="Light_copy" class="st0">
	<rect x="4.2" y="4.9" class="st14" width="275" height="132"/>
</g>
<g id="Layer_1_copy" class="st0">
	<g class="st2">
		<g>
			<path class="st15" d="M143.2,69c0-4.4-3-7.6-6.9-7.6c-4,0-6.9,3.1-6.9,7.6c0,4.4,3,7.6,6.9,7.6C140.3,76.5,143.2,73.4,143.2,69z
				 M123.6,69c0-7.2,5.6-12.8,12.8-12.8s12.8,5.6,12.8,12.8c0,7.2-5.6,12.8-12.8,12.8C129.1,81.8,123.6,76.2,123.6,69z"/>
			<path class="st15" d="M157.2,68.9c0,4.5,3,7.6,6.9,7.6s6.9-3.1,6.9-7.6s-3-7.6-6.9-7.6C160.2,61.3,157.2,64.4,157.2,68.9z
				 M157.4,78.5L157.4,78.5l-0.1,11.9h-5.6V56.6h5.6v2.8h0.1c1.6-1.6,4-3.3,7.8-3.3c6.5,0,11.6,5.1,11.6,12.8
				c0,7.7-5.1,12.8-11.6,12.8C161.5,81.8,159,80.1,157.4,78.5z"/>
			<path class="st15" d="M185.2,68.9c0,4.5,3,7.6,6.9,7.6s6.9-3.1,6.9-7.6s-3-7.6-6.9-7.6C188.2,61.3,185.2,64.4,185.2,68.9z
				 M185.4,78.5L185.4,78.5l-0.1,11.9h-5.6V56.6h5.6v2.8h0.1c1.6-1.6,4-3.3,7.8-3.3c6.5,0,11.6,5.1,11.6,12.8
				c0,7.7-5.1,12.8-11.6,12.8C189.4,81.8,187,80.1,185.4,78.5z"/>
			<path class="st15" d="M212.8,66.5H225c-0.6-3.1-3.2-5.4-6.1-5.4S213.4,63.3,212.8,66.5z M224.9,73.4l5.9,0.8
				c-2.4,5.7-6.4,7.6-11.5,7.6c-7.2,0-12.5-5.1-12.5-12.8s5.3-12.8,12.1-12.8c6.6,0,12.5,4.7,12.5,14.7H213c0.4,4,3.2,6.1,6.4,6.1
				C221.9,76.8,223.9,75.5,224.9,73.4z"/>
			<path class="st15" d="M239.7,56.6v2.8h0.1c1.3-1.6,3.1-3,6.4-3c0.4,0,1.3,0.1,1.8,0.3v5.6c-0.8-0.2-1.7-0.3-2.4-0.3
				c-4.2,0-6,1.8-6,5.8v13.5H234V56.6H239.7z"/>
			<path class="st15" d="M114.7,72.9c-1,2.4-3.1,3.8-5.7,3.8c-2.4,0-4.3-1.2-5.4-3.2c-0.2-0.5-0.4-1-0.6-1.5l0,0
				c-0.3-0.9-0.4-1.9-0.4-3s0.1-2.1,0.4-3l0,0c0.2-0.6,0.4-1.1,0.6-1.5c1.1-2,3-3.2,5.4-3.2c2.6,0,4.7,1.5,5.7,3.8
				c0.1,0.3,0.2,0.6,0.3,0.9l0,0v0.1h6c-0.2-0.8-0.4-1.6-0.7-2.4c-1.8-4.7-5.8-7.6-11.1-7.6c-0.1,0-0.2,0-0.3,0c-0.1,0-0.2,0-0.3,0
				c-4.6,0-8.3,2.3-10.3,6c-1.1,1.9-1.7,4.2-1.7,6.8c0,2.6,0.6,4.9,1.7,6.8c2,3.7,5.7,6,10.3,6c0.1,0,0.2,0,0.3,0c0.1,0,0.2,0,0.3,0
				c5.2,0,9.3-2.9,11.1-7.6c0.2-0.4,0.3-0.9,0.5-1.4h-6.1V72.9z"/>
		</g>
		<g>
			
				<linearGradient id="SVGID_4_" gradientUnits="userSpaceOnUse" x1="78.2997" y1="2218.2085" x2="43.7073" y2="2170.4846" gradientTransform="matrix(1 0 0 1 0 -2125.6365)">
				<stop  offset="0" style="stop-color:#B9785D"/>
				<stop  offset="0.2189" style="stop-color:#E99178"/>
				<stop  offset="0.7394" style="stop-color:#FABCA4"/>
				<stop  offset="1" style="stop-color:#B5745A"/>
			</linearGradient>
			<path class="st16" d="M80.5,85.1L80.5,85.1c-2.3,2.6-4.9,4-6.6,4.6c-4.9,1.9-9.8,1.8-14.6-0.2c-4.9-2-9.3-6.3-11.5-11
				c-1-2.1-1.5-4.4-1.5-6.6c0-0.5,0-1,0-1.1v-0.1l0,0l0,0l0,0v-0.1l0,0c0-0.1,0-0.2,0-0.4c0.1-3.3,1.3-6.4,3.6-8.8
				c1-1.1,2.2-1.9,3.5-2.5s2.8-0.9,4.3-0.9c-0.5,0.4-1,0.9-1.5,1.4c-2.7,2.9-4.2,6.9-4.2,11.3s1.5,8.4,4.2,11.3
				c1.5,1.7,3.4,2.9,5.5,3.6c1.5,0.5,3.1,0.8,4.8,0.8c2.8,0,6.9-0.8,10.2-4.4c1.1-1.2,2.1-2.7,2.7-4.3h5.5
				C84,80.3,82.5,82.9,80.5,85.1z M44,85.1c-3.6-3.8-5.5-9.1-5.5-14.7c0-5.7,2-10.9,5.5-14.8c3.6-3.9,8.6-6.1,14-6.1
				c1.4,0,2.7,0.1,4,0.4l0,0c6.9,1.4,12.3,6.5,14.4,13.5h-5.5c-0.7-1.6-1.6-3-2.7-4.3c-1.5-1.7-3.4-2.9-5.4-3.6
				c-1.5-0.5-3.1-0.8-4.8-0.8c-2.1,0-4,0.4-5.8,1.2c-1.7,0.8-3.2,1.8-4.5,3.2c-0.3,0.3-0.6,0.7-0.9,1.1c-1.8,2-3,4.7-3.3,8
				c-0.1,0.6-0.1,1.2-0.1,1.8l0,0l0,0c0,0.1,0,0.3,0,0.4l0,0l0,0v0.1l0,0l0,0l0,0l0,0l0,0l0,0v0.1c0,0.4,0,0.7,0,1.1
				c0,0.1,0,0.1,0,0.2c0.1,2.7,0.7,5.3,1.8,7.8c2,4.5,5.8,8.6,10.2,11.2C51,90.3,47,88.3,44,85.1z M78.8,53.9
				c2.9,2.5,4.9,5.7,5.9,9.5h-5.2c-1.6-5.9-5.1-10.7-9.9-13.7C73.1,50.2,76.2,51.6,78.8,53.9z M68.2,81.6c1.1-1.2,2.1-2.7,2.7-4.3
				H76c-0.5,0.8-1,1.6-1.6,2.2c-2.5,2.7-5.5,3.4-7.7,3.4C67.2,82.6,67.7,82.1,68.2,81.6z M88.4,74.3h-8.1H68.8l-0.4,1
				c-0.6,1.6-1.4,3.1-2.5,4.2c-1.1,1.2-2.4,2.1-3.8,2.7c-1.4-0.6-2.7-1.5-3.8-2.7c-2.2-2.3-3.3-5.6-3.3-9.2s1.2-6.8,3.3-9.2
				c1-1.1,2.2-1.9,3.5-2.5c0.1-0.1,0.2-0.1,0.3-0.1c1.4,0.6,2.7,1.5,3.7,2.6c1.1,1.2,1.9,2.6,2.5,4.2l0.4,1h9.5l0,0h1.9h8.1
				c0-6-3.8-11.6-7.6-14.9c-3.9-3.3-8.9-5.1-14.3-5.1c-1.4,0-2.8,0.1-4.2,0.4c-1.4-0.3-2.8-0.4-4.3-0.4c-6.3,0-12,2.5-16.2,7.1
				c-4.1,4.4-6.3,10.4-6.3,16.9c0,6.4,2.3,12.4,6.3,16.8c4.2,4.5,9.9,6.9,16.2,6.9c1.4,0,3.5,0,5.1-0.4c1.3,0.2,2.6,0.4,3.9,0.4
				c2.7,0,5.4-0.5,8.1-1.5c2.1-0.8,5.1-2.4,7.7-5.4l0,0l0,0l0,0C85.5,84.1,88.1,79.7,88.4,74.3z"/>
			<g>
				
					<linearGradient id="SVGID_5_" gradientUnits="userSpaceOnUse" x1="36.9" y1="2213.1365" x2="64.7" y2="2213.1365" gradientTransform="matrix(1 0 0 1 0 -2125.6365)">
					<stop  offset="0" style="stop-color:#30363C;stop-opacity:1.000000e-02"/>
					<stop  offset="1" style="stop-color:#30363C;stop-opacity:0.6"/>
				</linearGradient>
				<path class="st17" d="M36.9,79.7v15.6h27.8V94c-10-1.2-17.4-8.7-19.5-14.3H36.9z"/>
				
					<linearGradient id="SVGID_6_" gradientUnits="userSpaceOnUse" x1="59.2979" y1="2192.0544" x2="59.2979" y2="2183.3105" gradientTransform="matrix(1 0 0 1 0 -2125.6365)">
					<stop  offset="0" style="stop-color:#30363C;stop-opacity:1.000000e-02"/>
					<stop  offset="1" style="stop-color:#30363C;stop-opacity:0.6"/>
				</linearGradient>
				<path class="st18" d="M52,66.4h10.2v-4.2c0.8,0.5,1.5,1,2.2,1.6c1.5-0.9,3-0.9,1.7-2.5s-3.6-3-6.1-3.5c-2.5-0.4-5.6,0.3-6.9,1.1
					c-0.6,0.3-0.5,1.5,0.2,2.6L52,66.4z"/>
			</g>
		</g>
	</g>
</g>
<g id="Layer_3_copy" class="st0">
	<g class="st2">
		<path class="st19" d="M48.6,77.1c-3.1,0-5.6-1-7.5-2.9v2.4h-5.7V40.9l5.6-1.8v14.2c1.8-1.9,4.3-2.9,7.5-2.9c3.7,0,6.8,1.3,9.2,3.9
			c2.4,2.6,3.6,5.7,3.6,9.4s-1.2,6.8-3.6,9.4C55.4,75.8,52.3,77.1,48.6,77.1z M47.9,72c2.2,0,4.1-0.8,5.5-2.4s2.2-3.5,2.2-5.8
			c0-2.3-0.7-4.2-2.2-5.8c-1.4-1.6-3.3-2.4-5.5-2.4c-2.9,0-5.2,1.2-6.9,3.5v9.3C42.7,70.8,45,72,47.9,72z"/>
		<path class="st19" d="M69.5,46.4c-1,0-1.9-0.4-2.6-1.1c-0.7-0.7-1.1-1.7-1.1-2.7c0-2.1,1.7-3.7,3.7-3.7c1,0,2,0.4,2.7,1.1
			c0.7,0.7,1.1,1.6,1.1,2.6C73.3,44.7,71.6,46.4,69.5,46.4L69.5,46.4z M66.7,76.6V51h5.6v25.6H66.7z"/>
		<path class="st19" d="M91.5,76.9c-2.6,0-4.8-0.7-6.4-2.2c-1.7-1.5-2.5-3.6-2.5-6.3V56h-6.4v-5h6.3v-5.7l5.6-1.8V51h7.8v5h-7.8
			v11.4c0,2.9,1.3,4.4,4,4.4c1.4,0,2.6-0.3,3.6-0.9l1.7,4.7C95.8,76.4,93.8,76.9,91.5,76.9z"/>
		<path class="st19" d="M101.3,88.3V51h5.6v2.4c1.9-1.9,4.3-2.9,7.5-2.9c3.7,0,6.8,1.3,9.2,3.9c2.4,2.6,3.6,5.7,3.6,9.4
			s-1.2,6.8-3.6,9.4s-5.5,3.9-9.2,3.9c-3.1,0-5.6-1-7.5-2.9v12.4L101.3,88.3z M113.8,72c2.2,0,4.1-0.8,5.5-2.4s2.2-3.5,2.2-5.8
			c0-2.3-0.7-4.2-2.2-5.8c-1.4-1.6-3.3-2.4-5.5-2.4c-2.9,0-5.2,1.2-6.9,3.5v9.3C108.6,70.8,110.9,72,113.8,72z"/>
		<path class="st19" d="M143.5,77.1c-3.7,0-6.8-1.3-9.2-3.9s-3.6-5.7-3.6-9.4c0-3.7,1.2-6.8,3.6-9.4c2.4-2.6,5.5-3.9,9.2-3.9
			c3.1,0,5.6,1,7.5,2.9V51h5.6v25.6H151v-2.4C149.2,76.1,146.7,77.1,143.5,77.1z M144.2,72c2.9,0,5.2-1.2,6.8-3.6v-9.3
			c-1.6-2.4-3.9-3.5-6.8-3.5c-2.2,0-4.1,0.8-5.5,2.4c-1.4,1.6-2.2,3.5-2.2,5.8c0,2.3,0.7,4.2,2.2,5.8S142,72,144.2,72z"/>
		<path class="st19" d="M162.7,76.6V51h5.6v2.7c1.7-2.2,4.3-3.2,7.5-3.2c3,0,5.5,1,7.3,3s2.7,4.6,2.7,7.9v15.3h-5.6V62.2
			c0-2.1-0.5-3.7-1.5-4.9s-2.4-1.7-4.2-1.7c-3,0-5.1,1.3-6.3,4v17H162.7z"/>
		<path class="st19" d="M203.7,77.1c-3.7,0-6.8-1.3-9.2-3.9s-3.6-5.7-3.6-9.4c0-3.7,1.2-6.8,3.6-9.4c2.4-2.6,5.5-3.9,9.2-3.9
			c3.1,0,5.6,1,7.5,2.9V40.9l5.6-1.8v37.4h-5.6v-2.4C209.3,76.1,206.8,77.1,203.7,77.1z M204.3,72c2.9,0,5.2-1.2,6.8-3.6v-9.3
			c-1.6-2.4-3.9-3.5-6.8-3.5c-2.2,0-4.1,0.8-5.5,2.4c-1.4,1.6-2.2,3.5-2.2,5.8c0,2.3,0.7,4.2,2.2,5.8C200.3,71.2,202.1,72,204.3,72z
			"/>
		<path class="st19" d="M234.9,77.1c-3.7,0-6.8-1.3-9.2-3.9s-3.6-5.7-3.6-9.4c0-3.7,1.2-6.8,3.6-9.4c2.4-2.6,5.5-3.9,9.2-3.9
			c3.1,0,5.6,1,7.5,2.9V51h5.6v25.6h-5.6v-2.4C240.5,76.1,238,77.1,234.9,77.1z M235.6,72c2.9,0,5.2-1.2,6.8-3.6v-9.3
			c-1.6-2.4-3.9-3.5-6.8-3.5c-2.2,0-4.1,0.8-5.5,2.4c-1.4,1.6-2.2,3.5-2.2,5.8c0,2.3,0.7,4.2,2.2,5.8C231.5,71.2,233.3,72,235.6,72z
			"/>
		<path class="st19" d="M124.2,91.9c0-3.5,2.7-6.4,6.5-6.4c2.5,0,4.6,1.3,5.7,3.2l-1.5,0.9c-0.7-1.5-2.2-2.5-4.2-2.5
			c-2.8,0-4.7,2.2-4.7,4.8c0,2.6,1.9,4.8,4.7,4.8c1.9,0,3.4-1,4.2-2.5l1.5,0.9c-1.1,1.9-3.1,3.2-5.7,3.2
			C126.9,98.3,124.2,95.4,124.2,91.9z"/>
		<path class="st19" d="M149.3,98.1h-1.7v-1.7c-0.9,1.4-2.4,2-3.9,2c-2.6,0-4.5-1.9-4.5-4.9v-7.7h1.7v7.5c0,2.3,1.3,3.5,3.2,3.5
			c1.8,0,3-1.2,3.5-2.8v-8.2h1.7V98.1L149.3,98.1z"/>
		<path class="st19" d="M152.4,95.3l1.6-0.6c0.4,1.4,1.9,2.1,3.3,2.1c1.3,0,2.4-0.7,2.4-1.9c0-1-0.6-1.6-2.3-2.2l-1.3-0.4
			c-2-0.6-3-1.8-3-3.5c0-2.1,1.8-3.3,4.1-3.3c1.8,0,3.2,0.8,4,2.2l-1.4,0.9c-0.5-0.8-1.4-1.5-2.7-1.5c-1.2,0-2.3,0.7-2.3,1.7
			c0,0.9,0.5,1.5,1.9,2l1.4,0.4c2.1,0.7,3.3,1.8,3.3,3.6c0,2.3-1.8,3.6-4.2,3.6C154.9,98.3,153,97.3,152.4,95.3L152.4,95.3z"/>
		<path class="st19" d="M165.8,94.6v-7.3h-3.1v-1.6h3.1v-3.4h1.7v3.4h3.9v1.6h-3.9v7.1c0,1.6,0.9,2.2,2,2.2c0.9,0,1.4-0.2,1.8-0.5
			l0.5,1.5c-0.5,0.2-1.3,0.5-2.5,0.5C167.6,98.2,165.8,97.1,165.8,94.6L165.8,94.6z"/>
		<path class="st19" d="M173.1,91.9c0-3.5,2.7-6.4,6.5-6.4s6.5,2.9,6.5,6.4s-2.7,6.4-6.5,6.4S173.1,95.4,173.1,91.9z M184.3,91.9
			c0-2.6-1.9-4.8-4.7-4.8s-4.7,2.2-4.7,4.8c0,2.6,1.9,4.8,4.7,4.8C182.4,96.7,184.3,94.5,184.3,91.9z"/>
		<path class="st19" d="M188.2,91.9c0-3.5,2.6-6.4,6.3-6.4c1.7,0,3.2,0.6,4.3,1.8V80h1.7v18.1h-1.7v-1.5c-1.1,1.2-2.6,1.8-4.3,1.8
			C190.8,98.3,188.2,95.4,188.2,91.9L188.2,91.9z M198.8,94.5v-5.1c-0.8-1.3-2.2-2.3-4.2-2.3c-2.7,0-4.6,2.2-4.6,4.8
			c0,2.7,1.9,4.8,4.6,4.8C196.6,96.7,198,95.7,198.8,94.5L198.8,94.5z"/>
		<path class="st19" d="M205.9,102.9l2.5-5.4l-5.5-11.7h1.9l4.5,9.8l4.5-9.8h2l-8,17.2L205.9,102.9L205.9,102.9z"/>
	</g>
</g>
<g id="Layer_4_copy" class="st0">
	<g class="st2">
		<path id="_309677536_1_" class="st8" d="M40.2,86.8h-4.7V55.7h10.3c3.1,0,5.6,1,7.7,2.8c2.1,1.9,3.1,4.6,3.1,8
			c0,3.5-1.1,6.3-3.4,8.3c-2.3,2-5,3-8.2,3h-4.7L40.2,86.8L40.2,86.8z M45,60.1h-4.8v13.3h3.9c2.3,0,4.1-0.6,5.5-1.9
			c1.4-1.2,2.1-2.9,2.1-5s-0.6-3.7-1.8-4.8C48.7,60.7,47.1,60.1,45,60.1z M70,86.8h-4.7V55.7h10.4c2.9,0,5.5,0.9,7.5,2.8
			c2.1,1.9,3.2,4.4,3.2,7.6c0,2.1-0.5,4-1.4,5.6s-2.2,2.9-3.9,3.9l6.5,11l-0.1,0.3h-4.9l-5.9-9.7c-0.5,0.1-1.3,0.2-2.2,0.2H70V86.8
			L70,86.8z M74.8,60.1H70v12.7h4c2.2,0,4-0.6,5.4-1.8c1.4-1.2,2.1-2.8,2.1-4.8c0-1.9-0.6-3.4-1.9-4.5
			C78.4,60.6,76.8,60.1,74.8,60.1L74.8,60.1z M109.9,87.1c-4.5,0-8.2-1.5-11.2-4.5s-4.4-6.8-4.4-11.4c0-4.5,1.5-8.3,4.4-11.3
			c2.9-3.1,6.7-4.6,11.3-4.6c4.5,0,8.2,1.5,11.2,4.6c2.9,3,4.4,6.8,4.4,11.3c0,4.4-1.5,8.2-4.4,11.4
			C118.2,85.6,114.5,87.1,109.9,87.1L109.9,87.1z M109.9,82.5c3.1,0,5.6-1.1,7.7-3.2c2.1-2.2,3.2-4.9,3.2-8.1c0-3.3-1-6-3.1-8.1
			c-2-2.1-4.6-3.2-7.8-3.2c-3.1,0-5.7,1.1-7.7,3.2c-2.1,2.1-3.1,4.8-3.1,8.1c0,3.2,1,5.9,3.1,8.1C104.3,81.4,106.9,82.5,109.9,82.5
			L109.9,82.5z M139.9,86.8h-4.7V55.7h10.3c3.1,0,5.6,1,7.7,2.8c2.1,1.9,3.1,4.6,3.1,8c0,3.5-1.1,6.3-3.4,8.3c-2.3,2-5,3-8.2,3H140
			v9H139.9z M144.7,60.1h-4.8v13.3h3.9c2.3,0,4.1-0.6,5.5-1.9c1.4-1.2,2.1-2.9,2.1-5s-0.6-3.7-1.8-4.8
			C148.5,60.7,146.8,60.1,144.7,60.1z M192.9,86.8h-4.7V55.3h0.4l21.6,21.3v-21h4.7v31.5h-0.4l-21.6-21.3V86.8z M248,82.2v4.6h-20.8
			V55.7H248v4.6h-16v9h14v4.4h-14v8.6h16V82.2z"/>
		<path id="_309677296_1_" class="st9" d="M164.2,68h3.4v19.2h-3.4V68z M174.4,54.5h3.4v32.7h-3.4V54.5z M169.3,61h3.4v26.2h-3.4V61
			z"/>
	</g>
</g>
<g id="Layer_5_copy" class="st0">
	<g class="st2">
		<g>
			<polygon class="st19" points="108.7,55.4 102.7,55.4 102.7,84.9 121.7,84.9 121.7,80 108.7,80 			"/>
			<path id="_x31__1_" class="st19" d="M128.6,60c0.5,0,1-0.1,1.4-0.2c0.4-0.1,0.8-0.4,1-0.6c0.3-0.3,0.5-0.6,0.7-0.9
				c0.1-0.4,0.2-0.8,0.2-1.2s-0.1-0.9-0.2-1.2c-0.2-0.4-0.4-0.7-0.7-1s-0.7-0.5-1.1-0.6c-0.4-0.1-0.9-0.2-1.4-0.2s-0.9,0.1-1.4,0.2
				c-0.4,0.1-0.7,0.3-1,0.6s-0.5,0.6-0.7,1s-0.2,0.8-0.2,1.2s0.1,0.8,0.2,1.2c0.2,0.4,0.4,0.7,0.7,0.9c0.3,0.3,0.6,0.5,1,0.6
				C127.6,59.9,128.1,60,128.6,60L128.6,60z M131.4,84.9V62.8h-5.6V85L131.4,84.9L131.4,84.9z"/>
			<path id="_x31_2_1_" class="st19" d="M162.9,62.3c-0.9,0-1.7,0.1-2.5,0.4c-0.8,0.3-1.5,0.7-2.1,1.2c-0.7,0.5-1.2,1.2-1.7,1.9
				c-0.4,0.7-0.8,1.6-1,2.5c-0.2-1-0.5-1.9-0.8-2.6c-0.3-0.8-0.8-1.4-1.3-1.9c-0.5-0.5-1.2-0.8-2-1.1c-0.8-0.2-1.7-0.4-2.8-0.4
				c-1.8,0-3.2,0.4-4.2,1.2c-1.1,0.8-1.8,2-2.2,3.7l-0.4-4.5h-5.2v22.2h5.6V73.7c0.1-1,0.2-1.9,0.4-2.7c0.2-0.8,0.5-1.5,0.9-2
				c0.4-0.6,0.9-1,1.4-1.3s1.1-0.4,1.8-0.4s1.3,0.1,1.8,0.3c0.5,0.2,0.9,0.5,1.2,0.9s0.5,1,0.7,1.6c0.1,0.7,0.2,1.5,0.2,2.4v12.4
				h5.6V73.7c0.1-2,0.6-3.5,1.4-4.7c0.4-0.6,0.9-1,1.4-1.3s1.2-0.4,1.8-0.4c0.7,0,1.3,0.1,1.8,0.3c0.5,0.2,0.9,0.5,1.2,0.9
				s0.5,1,0.6,1.6c0.1,0.7,0.2,1.5,0.2,2.4v12.4h5.6V71.7c0-1.6-0.1-3-0.4-4.1c-0.3-1.2-0.7-2.2-1.2-2.9c-0.6-0.8-1.3-1.3-2.3-1.7
				C165.4,62.5,164.2,62.3,162.9,62.3L162.9,62.3z"/>
			<path id="_x31_23_1_" class="st19" d="M178.4,60c0.5,0,1-0.1,1.4-0.2c0.4-0.1,0.8-0.4,1-0.6c0.3-0.3,0.5-0.6,0.7-0.9
				c0.1-0.4,0.2-0.8,0.2-1.2s-0.1-0.9-0.2-1.2c-0.2-0.4-0.4-0.7-0.7-1s-0.7-0.5-1.1-0.6c-0.4-0.1-0.9-0.2-1.4-0.2s-0.9,0.1-1.4,0.2
				c-0.4,0.1-0.7,0.3-1,0.6s-0.5,0.6-0.7,1s-0.2,0.8-0.2,1.2s0.1,0.8,0.2,1.2c0.2,0.4,0.4,0.7,0.7,0.9c0.3,0.3,0.6,0.5,1,0.6
				C177.4,59.9,177.9,60,178.4,60L178.4,60z M181.2,84.9V62.8h-5.6V85L181.2,84.9L181.2,84.9z"/>
			<path id="_x31_234_1_" class="st19" d="M207.1,84.9V72.5c0-3.4-0.7-5.9-2-7.6c-1.3-1.7-3.3-2.5-5.9-2.5c-1.8,0-3.3,0.3-4.5,1
				c-1.2,0.6-2.1,1.6-2.7,2.9l-0.4-3.5h-5.2V85h5.6V73.7c0-1,0.2-1.9,0.4-2.7c0.3-0.8,0.6-1.5,1.1-2c0.5-0.6,1-1,1.6-1.3
				s1.3-0.4,2-0.4s1.4,0.1,1.9,0.3c0.5,0.2,1,0.5,1.4,1c0.7,0.9,1,2.3,1,4.3V85L207.1,84.9L207.1,84.9z"/>
			<path id="_x31_2345_1_" class="st19" d="M232.7,80.8c-0.5-0.1-0.8-0.4-1-0.9s-0.3-1.1-0.3-2V71c0-1.3-0.2-2.6-0.6-3.6
				c-0.4-1.1-1-2-1.9-2.7c-0.8-0.8-1.8-1.3-3-1.7s-2.5-0.6-4.1-0.6c-1.3,0-2.5,0.1-3.5,0.4c-1.1,0.3-2,0.7-2.9,1.3
				c-0.9,0.6-1.5,1.3-2,2.1c-0.5,0.8-0.7,1.7-0.8,2.8l5.3,1c0.1-0.5,0.2-0.9,0.4-1.3s0.5-0.7,0.9-1s0.8-0.5,1.2-0.6s0.9-0.2,1.4-0.2
				c0.6,0,1.2,0.1,1.7,0.3c0.5,0.2,0.9,0.4,1.2,0.8c0.3,0.3,0.6,0.7,0.8,1.2c0.2,0.4,0.3,1,0.3,1.5v1c-1-0.1-1.9-0.2-2.9-0.3
				c-0.9-0.1-1.9-0.1-2.8-0.1c-1.4,0-2.6,0.2-3.7,0.5c-1.1,0.3-2,0.9-2.8,1.6s-1.4,1.5-1.8,2.4c-0.4,0.9-0.6,1.9-0.6,3
				c0,1,0.2,1.9,0.5,2.7c0.4,0.8,0.9,1.5,1.6,2.1c0.7,0.6,1.6,1,2.6,1.3s2.1,0.4,3.4,0.4c0.8,0,1.5-0.1,2.2-0.3
				c0.7-0.2,1.4-0.4,2-0.8c0.6-0.3,1.2-0.7,1.6-1c0.4-0.4,0.7-0.8,0.9-1.2c0.4,1.1,0.9,1.9,1.7,2.4s1.8,0.8,3,0.8
				c0.8,0,1.4-0.1,2.1-0.3c0.6-0.2,1.2-0.4,1.8-0.8l0.3-3.8c-0.5,0.2-0.9,0.3-1.3,0.4C233.4,80.9,233,80.9,232.7,80.8L232.7,80.8z
				 M220.8,81c-0.6,0-1.1-0.1-1.6-0.2s-0.9-0.3-1.3-0.5c-0.4-0.2-0.7-0.5-0.9-0.8s-0.3-0.7-0.3-1.1s0.1-0.9,0.3-1.2
				c0.2-0.4,0.5-0.7,0.9-1s0.8-0.5,1.3-0.7s1.1-0.3,1.7-0.3c0.7-0.1,1.4-0.1,2.2,0c0.8,0,1.7,0.2,2.6,0.3v2.9
				c-0.2,0.4-0.4,0.7-0.7,1s-0.7,0.6-1.1,0.9c-0.4,0.3-0.9,0.4-1.4,0.6C222,80.9,221.4,81,220.8,81L220.8,81z"/>
			<path id="_x31_23456_1_" class="st19" d="M244.3,53.3h-5.6v25.5c0,2.1,0.4,3.8,1.3,4.8c0.9,1.1,2.2,1.6,4,1.6
				c0.8,0,1.4-0.1,2.1-0.3c0.6-0.2,1.2-0.4,1.8-0.8l0.3-3.8c-0.5,0.2-0.9,0.3-1.3,0.4c-0.4,0-0.8,0-1.1-0.1c-0.5-0.1-0.8-0.4-1-0.9
				s-0.3-1.1-0.3-2L244.3,53.3L244.3,53.3z"/>
		</g>
		<path class="st11" d="M71.6,51.3c10.8,0,19.6,8.8,19.6,19.6s-8.8,19.6-19.6,19.6c-3,0-5.8-0.7-8.3-1.8c-2.5,1.2-5.3,1.8-8.3,1.8
			c-10.8,0-19.6-8.8-19.6-19.6S44.2,51.3,55,51.3c3,0,5.8,0.7,8.3,1.8C65.8,52,68.6,51.3,71.6,51.3L71.6,51.3z M57.7,84.6
			c-3.5-3.5-5.7-8.4-5.7-13.8s2.2-10.2,5.7-13.8c-0.9-0.2-1.8-0.3-2.7-0.3c-7.7,0-14,6.3-14,14s6.3,14,14,14
			C55.9,84.9,56.8,84.8,57.7,84.6L57.7,84.6z M68.9,57.1c3.5,3.5,5.7,8.4,5.7,13.8V71H69v-0.1c0-4.6-2.3-8.7-5.7-11.3
			c-3.5,2.6-5.7,6.7-5.7,11.3c0,7.7,6.3,14,14,14s14-6.3,14-14s-6.3-14-14-14C70.7,56.8,69.8,56.9,68.9,57.1L68.9,57.1z"/>
	</g>
</g>
<g id="Layer_6_copy" class="st0">
	<g class="st2">
		<g transform="translate(36.576271, 2.777778)">
			<path class="st19" d="M113.8,58.1v7.1h0.1c1.2-1.5,2.8-2.3,5-2.3c1,0,1.9,0.2,2.8,0.5s1.6,0.8,2.3,1.4c0.7,0.6,1.2,1.4,1.6,2.4
				s0.6,2.1,0.6,3.3c0,1.4-0.3,2.7-0.8,3.9c-0.5,1.2-1.3,2.2-2.4,2.9s-2.5,1.1-4.1,1.1c-2.4,0-4-0.8-5-2.3h-0.1V78h-4.5V58.1H113.8z
				 M96.6,62.5c8.7,0,7.9,9.3,7.9,9.3l0,0H92.7c0.5,1.8,2.1,3.1,4.3,3.1c2.7,0,4.1-1.6,4.1-1.6l0,0l2.5,2.6c-1.3,1.3-3,2.5-6.6,2.5
				c-5.6,0-8.5-3.7-8.5-7.6S90.6,62.5,96.6,62.5z M204.7,62.5c3.7,0,6.1,1.4,6.1,1.4l0,0l-1.5,3.3c-5-2.6-7.2-0.8-7.2,0.2
				s0.9,1,4.4,1.6s5.1,2.1,5.1,4.4s-2,4.9-6.9,4.9s-7.1-1.6-7.1-1.6l0,0l1.5-3.3c3.8,2.4,8.2,1.6,8.2,0.2c0-1.1-1.4-1.3-3-1.5
				l-0.7-0.1c-0.3,0-0.6-0.1-0.9-0.1c-2-0.3-4.9-1.4-4.9-4.4S200.9,62.5,204.7,62.5z M182.8,57.1v12l6.5-6.2h5.3l-6.4,6.2l7.1,9.2
				H190l-4.8-6.3l-2.3,2.2v4.1h-4.3V57.1H182.8z M167.3,62.4c3.1,0,5.8,1.5,7.3,3.8l0,0l-3.7,2.2c-0.7-1.3-2-2.2-3.6-2.2
				c-2.3,0-4.1,1.9-4.1,4.2c0,2.3,1.8,4.2,4.1,4.2c1.5,0,2.8-0.8,3.5-2l0,0l3.7,2.1c-1.5,2.2-4.2,3.7-7.2,3.7
				c-4.7,0-8.5-3.6-8.5-7.9C158.8,65.9,162.6,62.4,167.3,62.4z M147.1,62.4c4.7,0,8.5,3.6,8.5,7.9s-3.8,7.9-8.5,7.9
				s-8.5-3.6-8.5-7.9C138.6,65.9,142.4,62.4,147.1,62.4z M70,62.8v15.3h-4.7V62.8H70z M61.1,58.2V62H50.5v5.1h9.3v3.8h-9.3v7.2h-4.7
				V58.2H61.1z M80.1,64.7c0,0,1.7-2.6,5.1-2.2l0,0v4.3c0,0-3.7-1-5.1,2.9l0,0v8.4h-4.5V62.8h4.3L80.1,64.7L80.1,64.7z M134.1,57v21
				h-4.7V57H134.1z M117.5,66.3c-2.6,0-3.9,1.6-3.9,4.8c0,1.2,0.3,2.2,1,3s1.7,1.2,3,1.2c0.9,0,1.6-0.2,2.2-0.7s1-1,1.2-1.7
				s0.4-1.4,0.4-2c0-1.3-0.3-2.4-0.9-3.2C119.8,66.7,118.8,66.3,117.5,66.3z M147.1,66.2c-2.3,0-4.1,1.9-4.1,4.2
				c0,2.3,1.8,4.2,4.1,4.2s4.1-1.9,4.1-4.2C151.2,68,149.4,66.2,147.1,66.2z M96.7,65.8c-2.3,0-3.6,1.4-4,3.3l0,0h7.7
				C100.4,68.6,99.6,65.8,96.7,65.8z M67.7,55.6c1.5,0,2.8,1.1,2.8,2.5s-1.2,2.5-2.8,2.5s-2.8-1.1-2.8-2.5
				C64.9,56.7,66.1,55.6,67.7,55.6z"/>
		</g>
		<g>
			<path class="st19" d="M66.7,54.8c0.7,0,1.3,0.6,1.3,1.3l0,0v29.5c0,0.7-0.6,1.3-1.3,1.3l0,0h-30c-0.7,0-1.3-0.6-1.3-1.3l0,0V56.1
				c0-0.7,0.6-1.3,1.3-1.3l0,0H66.7L66.7,54.8z M51.7,63.7l-9,14.3h18.1L51.7,63.7z"/>
		</g>
	</g>
</g>
<g id="Layer_7_copy" class="st0">
	<g class="st2">
		<path class="st19" d="M99.8,71.2c0-10.5,8.3-18.6,19.4-18.6c11.2,0,19.4,8.1,19.4,18.6c0,10.4-8.3,18.6-19.4,18.6
			C108.1,89.8,99.8,81.8,99.8,71.2z M130,71.2c0-6.1-4.5-10.8-10.8-10.8s-10.9,4.7-10.9,10.8S112.8,82,119.2,82S130,77.4,130,71.2z"
			/>
		<path class="st19" d="M146.4,53.3h14.3c7.5,0,13,4.8,13,11.8c0,4.8-2.8,8.6-6.5,10.4l7.8,13.6h-9.2l-6.2-12h-4.9v12h-8.3
			L146.4,53.3L146.4,53.3z M159.9,70.2c3,0,5.2-1.8,5.2-5.1c0-3-2.1-4.9-5.3-4.9h-5.2v10H159.9L159.9,70.2z"/>
		<path class="st19" d="M189.5,75.3l-12.7-21.9h9l7.5,13.8h0.5l7.4-13.8h9.1l-12.5,21.9v13.9h-8.3V75.3L189.5,75.3z"/>
		<path class="st19" d="M227.2,75.3l-12.7-21.9h9l7.5,13.8h0.5l7.4-13.8h9.1l-12.5,21.9v13.9h-8.3V75.3L227.2,75.3z"/>
		<g>
			<g>
				<path class="st19" d="M76.8,46.6H44c-3.3,3.2-5.2,5.1-8.5,8.3v32c3.3,3.2,5.2,5.1,8.5,8.3h13.2V81.9H53
					c-1.5-1.5-2.4-2.3-3.9-3.8V63.6c1.5-1.5,2.4-2.3,3.9-3.8h15c1.5,1.5,2.4,2.3,3.9,3.8v14.6c-1.5,1.5-2.4,2.3-3.9,3.8h-4v13.2
					h12.9c3.3-3.2,5.2-5.1,8.5-8.3v-32C82,51.6,80.2,49.8,76.8,46.6z"/>
			</g>
		</g>
	</g>
</g>
</svg>
