<?xml version="1.0" encoding="UTF-8"?>
<svg id="Layer_1" data-name="Layer 1" xmlns="http://www.w3.org/2000/svg" viewBox="0 0 283.5 141.7">
  <defs>
    <style>
      .cls-1 {
        fill: #1a1a1a;
      }
    </style>
  </defs>
  <g id="Safe_Wallet" data-name="Safe Wallet">
    <g>
      <g>
        <path class="cls-1" d="M61.1,70.8h-2.9c-.9,0-1.6.7-1.6,1.5v4.1c0,.9-.7,1.5-1.6,1.5h-11.7c-.9,0-1.6.7-1.6,1.5v2.9c0,.9.7,1.5,1.6,1.5h12.4c.9,0,1.6-.7,1.6-1.5v-2.3c0-.9.7-1.5,1.6-1.5h2.3c.9,0,1.6-.7,1.6-1.5v-4.8c0-.9-.7-1.5-1.6-1.5h0Z"/>
        <path class="cls-1" d="M41.6,65.2c0-.9.7-1.5,1.6-1.5h11.7c.9,0,1.6-.7,1.6-1.5v-2.9c0-.9-.7-1.5-1.6-1.5h-12.4c-.9,0-1.6.7-1.6,1.5v2.2c0,.9-.7,1.5-1.6,1.5h-2.3c-.9,0-1.6.7-1.6,1.5v4.8c0,.9.7,1.5,1.6,1.5h2.9c.9,0,1.6-.7,1.6-1.5v-4.1s0,0,0,0Z"/>
        <path class="cls-1" d="M47.7,67.8h2.8c.9,0,1.7.7,1.7,1.6v2.7c0,.9-.7,1.6-1.7,1.6h-2.8c-.9,0-1.7-.7-1.7-1.6v-2.7c0-.9.7-1.6,1.7-1.6Z"/>
      </g>
      <path class="cls-1" d="M87.6,69.9c-1-.4-2.3-.8-3.8-1.1h0c-1.5-.3-2.6-.5-3.3-.7-.7-.2-1.3-.5-1.7-.9-.4-.4-.6-.9-.6-1.6,0-1,.4-1.7,1.1-2.2.7-.5,1.7-.8,2.8-.8s2.3.3,3.1,1c.7.6,1.1,1.4,1.3,2.3,0,.2.2.3.4.3h3.6c.2,0,.4-.2.4-.4-.1-1.2-.5-2.4-1.2-3.4-.7-1.1-1.8-2-3.1-2.6-1.3-.6-2.8-.9-4.5-.9s-3,.3-4.3.9c-1.3.6-2.3,1.4-3,2.5-.7,1.1-1.1,2.3-1.1,3.6s.3,2.7.9,3.5c.6.9,1.4,1.6,2.5,2,1,.5,2.2.8,3.7,1.1h.2c1.5.3,2.6.6,3.4.8.7.2,1.3.5,1.8.9.4.4.6.9.6,1.6,0,1-.4,1.8-1.2,2.3-.8.6-1.8.8-3,.8s-2.7-.4-3.6-1.2c-.8-.7-1.3-1.6-1.5-2.7,0-.2-.2-.3-.4-.3h-3.6c-.2,0-.4.1-.4.4.1,1.3.5,2.6,1.2,3.6.8,1.2,1.9,2.1,3.3,2.8,1.4.7,3,1,4.8,1s3.2-.3,4.5-.9c1.3-.6,2.4-1.5,3.1-2.6.7-1.1,1.1-2.3,1.1-3.7s-.3-2.7-1-3.6c-.6-.9-1.5-1.6-2.5-2h0Z"/>
      <path class="cls-1" d="M109.7,79h-.6c-.3,0-.6,0-.8-.3-.2-.2-.3-.5-.3-.9v-6.4c0-2-.6-3.6-1.9-4.6-1.3-1.1-2.7-1.6-5-1.6s-3.9.5-5.2,1.4c-1.2.9-2,2.1-2.2,3.6,0,.2.1.5.4.5h3.3c.2,0,.3-.1.4-.3.2-.6.5-1,1-1.4.6-.4,1.3-.6,2.2-.6,1.8,0,3,1.1,3,2.8v.5c0,.2-.2.4-.4.4h-3c-2.4,0-4.3.5-5.5,1.5-1.3,1-1.9,2.4-1.9,4.2s.6,2.8,1.7,3.7c.9.7,1.9,1.1,2.9,1.2.8.1,1.6.2,2.5,0,.8-.1,1.5-.5,2.2-1,.6-.5,1.1-1.1,1.6-1.8.2-.4.8-.2.8.2v.6c0,1,.8,1.9,1.8,1.9h2.9c.2,0,.4-.2.4-.4v-2.8c0-.2-.2-.4-.4-.4h0ZM104,75.5c0,.8-.2,1.5-.5,2.2-.7,1.3-2,2-3.4,2s-1.5-.2-2-.6c-.5-.4-.7-.9-.7-1.6s.3-1.3.8-1.8c.6-.4,1.3-.6,2.4-.6h3.1c.2,0,.4.2.4.4h0Z"/>
      <path class="cls-1" d="M121.7,59.2h-4.3c-2.3,0-4.1,1.9-4.1,4.2v1.9c0,.2-.2.4-.4.4h-2.5c-.2,0-.4.2-.4.4v2.9c0,.2.2.4.4.4h2.5c.2,0,.4.2.4.4v12.5c0,.2.2.4.4.4h3.3c.2,0,.4-.2.4-.4v-12.5c0-.2.2-.4.4-.4h3.9c.2,0,.4-.2.4-.4v-2.9c0-.2-.2-.4-.4-.4h-3.9c-.2,0-.4-.2-.4-.4v-1.7c0-.4.3-.8.7-.8h3.6c.2,0,.4-.2.4-.4v-2.9c0-.2-.2-.4-.4-.4h0Z"/>
      <path class="cls-1" d="M138.1,69.1c-.7-1.2-1.7-2.2-3-2.9-1.3-.7-2.7-1-4.4-1s-3.1.4-4.3,1.1c-1.3.7-2.2,1.8-2.9,3.1-.7,1.3-1,2.9-1,4.7s.4,3.3,1.1,4.6c.7,1.3,1.7,2.3,3.1,3.1,1.3.7,2.9,1.1,4.7,1.1s2.6-.3,3.7-.8c1.1-.5,2-1.2,2.6-2.2.6-.8,1-1.6,1.2-2.6,0-.2-.1-.5-.4-.5h-3.4c-.2,0-.3.1-.4.3-.2.7-.7,1.3-1.3,1.7-.7.5-1.5.7-2.5.7s-1.5-.2-2.2-.5c-.6-.4-1.1-.9-1.5-1.5-.1-.3-.3-.5-.3-.8,0-.3-.2-.6-.2-.9,0-.1,0-.2,0-.3,0-.2.1-.4.4-.4h11.6c.2,0,.3-.1.4-.3,0-.1,0-.3,0-.4,0-.3,0-.5,0-.7,0-1.7-.4-3.1-1.1-4.4h0ZM134.6,72h-7.3c-.2,0-.4-.2-.4-.5.1-.5.3-1,.6-1.4.4-.5.8-1,1.4-1.3.6-.3,1.2-.4,1.9-.4,1.1,0,2.1.3,2.8.9.6.5,1,1.3,1.2,2.2,0,.2-.1.5-.4.5Z"/>
      <path class="cls-1" d="M143.6,57.4v27c0,.6.5,1.2,1.2,1.2h1.8c.9,0,1.7.7,1.7,1.7v1.8c0,.6.5,1.2,1.2,1.2h3.5c.6,0,1.2-.5,1.2-1.2v-2.5c0-.6-.5-1.2-1.2-1.2h-2.8c-.9,0-1.7-.7-1.7-1.7v-25.6c0-.9.7-1.7,1.7-1.7h2.8c.6,0,1.2-.5,1.2-1.2v-2.5c0-.6-.5-1.2-1.2-1.2h-3.5c-.6,0-1.2.5-1.2,1.2v1.8c0,.9-.7,1.7-1.7,1.7h-1.8c-.6,0-1.2.5-1.2,1.2h0Z"/>
      <path class="cls-1" d="M154.8,63.3v-1.3h4.4l2.2,11.5c.3,1.4.4,2.7.6,4.4h.6c.1-1.7.4-3.1.7-4.4l2.3-10.5h5.5l2.2,10.5c.3,1.3.6,2.7.7,4.4h.6c.1-1.7.3-3,.6-4.4l2.2-11.5h4.3v1.3l-3.8,18h-6.5l-2-9.3c-.3-1.4-.5-2.6-.7-4.4h-.6c-.2,1.8-.4,3-.7,4.4l-2.1,9.3h-6.5l-3.8-18ZM195.3,78h.6v3.3h-1.8c-1.3,0-2.4-.5-2.8-2.2h-.4c-.7,1.6-2.5,2.7-4.8,2.7s-4.6-1.3-4.6-3.7,1.3-3.3,3.6-4l5.1-1.4c-.1-1.1-.9-1.7-2-1.7s-1.9.6-2.2,1.8h-3.8v-1.1c.8-2.3,2.9-3.9,6.1-3.9s6.2,2.2,6.2,5.5v3.7c0,.7.3,1,.9,1ZM187.4,78.9c1.8,0,2.8-1.5,2.8-2.9v-.6l-2.9.8c-1.1.3-1.5.8-1.5,1.5s.6,1.2,1.7,1.2ZM197.8,81.3v-19.4h4.3v19.4h-4.3ZM205,81.3v-19.4h4.3v19.4h-4.3ZM225.3,74.7v1h-9.7c.3,1.8,1.4,2.9,3.1,2.9s2.2-.7,2.6-1.8h3.8v1.1c-.8,2.1-3,3.8-6.3,3.8s-7.1-2.9-7.1-7,2.9-7,7.1-7,6.7,2.6,6.7,6.9ZM218.5,70.7c-1.3,0-2.4.9-2.8,2.4h5.6c-.3-1.5-1.3-2.4-2.7-2.4ZM233.6,77.9h2.4v3.4h-3.6c-2.7,0-4.1-1.3-4.1-4v-5.6h-2.2v-3.4h2.2v-4.5h4.2v4.5h3.3v3.4h-3.3v5.3c0,.7.3,1,1,1Z"/>
      <path class="cls-1" d="M248,84.3v-27c0-.6-.5-1.2-1.2-1.2h-1.8c-.9,0-1.7-.7-1.7-1.7v-1.8c0-.6-.5-1.2-1.2-1.2h-3.5c-.6,0-1.2.5-1.2,1.2v2.5c0,.6.5,1.2,1.2,1.2h2.8c.9,0,1.7.7,1.7,1.7v25.6c0,.9-.7,1.7-1.7,1.7h-2.8c-.6,0-1.2.5-1.2,1.2v2.5c0,.6.5,1.2,1.2,1.2h3.5c.6,0,1.2-.5,1.2-1.2v-1.8c0-.9.7-1.7,1.7-1.7h1.8c.6,0,1.2-.5,1.2-1.2h0Z"/>
    </g>
  </g>
</svg>