<?xml version="1.0" encoding="utf-8"?>
<!-- Generator: Adobe Illustrator 25.0.1, SVG Export Plug-In . SVG Version: 6.00 Build 0)  -->
<svg version="1.1" id="Layer_1" xmlns="http://www.w3.org/2000/svg" xmlns:xlink="http://www.w3.org/1999/xlink" x="0px" y="0px"
	 viewBox="0 0 117.4 117.4" style="enable-background:new 0 0 117.4 117.4;" xml:space="preserve">
<style type="text/css">
	.st0{fill-rule:evenodd;clip-rule:evenodd;fill:#00A0E3;}
	.st1{fill-rule:evenodd;clip-rule:evenodd;fill:#00CCFF;}
	.st2{fill-rule:evenodd;clip-rule:evenodd;fill:url(#_251085984_1_);}
	.st3{fill-rule:evenodd;clip-rule:evenodd;fill:url(#_251085936_1_);}
	.st4{fill-rule:evenodd;clip-rule:evenodd;fill:#FFED00;}
	.st5{fill-rule:evenodd;clip-rule:evenodd;fill:url(#_251084904_1_);}
	.st6{fill-rule:evenodd;clip-rule:evenodd;fill:url(#_251084592_1_);}
	.st7{fill-rule:evenodd;clip-rule:evenodd;fill:url(#_251084520_1_);}
</style>
<g id="Layer_2">
	<g>
		<path id="_251085672" class="st0" d="M116.7,62.1L59.9,95.5c0,0-1.2,0.7-2.8,0L0.4,62.2v16.2c0,0-0.4,4.2,4.1,7.9
			C8.9,90.1,55.1,116,55.1,116s3.5,1.6,6.6,0c3.1-1.6,51-29.8,51-29.8s3.8-2.6,4-7.7L116.7,62.1L116.7,62.1z"/>
		<path id="_251085480" class="st1" d="M116.7,62.1L59.9,95.5c0,0-1.2,0.7-2.8,0L0.4,62.2v16.2c0,0-0.4,4.2,4.1,7.9
			C8.9,90.1,55.1,116,55.1,116s3.5,1.6,6.6,0c3.1-1.6,51-29.8,51-29.8s3.8-2.6,4-7.7L116.7,62.1L116.7,62.1z"/>
		
			<linearGradient id="_251085984_1_" gradientUnits="userSpaceOnUse" x1="722.5892" y1="-492.5088" x2="571.6978" y2="-492.5088" gradientTransform="matrix(0.388 0 0 -0.388 -221.8017 -101.687)">
			<stop  offset="0" style="stop-color:#0079E4"/>
			<stop  offset="0.549" style="stop-color:#00CCFF"/>
			<stop  offset="1" style="stop-color:#00CCFF"/>
		</linearGradient>
		<path id="_251085984" class="st2" d="M58.6,95.8c-0.4,0-0.9-0.1-1.4-0.3L0.4,62.2v16.2c0,0-0.4,4.2,4.1,7.9
			C8.9,90.1,55.1,116,55.1,116s1.5,0.7,3.4,0.7L58.6,95.8L58.6,95.8z"/>
		
			<linearGradient id="_251085936_1_" gradientUnits="userSpaceOnUse" x1="808.9757" y1="-375.6092" x2="637.276" y2="-375.6092" gradientTransform="matrix(0.388 0 0 -0.388 -221.8017 -101.687)">
			<stop  offset="0" style="stop-color:#0079E4"/>
			<stop  offset="0.349" style="stop-color:#00CCFF"/>
			<stop  offset="0.651" style="stop-color:#00CCFF"/>
			<stop  offset="1" style="stop-color:#0079E4"/>
		</linearGradient>
		<path id="_251085936" class="st3" d="M73.6,58.5l-13.5-7.9c0,0-1.2-0.7-2.8,0l-13.3,8l-15.2-8.9l-3.4-2
			c14-8.3,29.9-17.6,29.9-17.6s3.5-1.6,6.6,0c1.6,0.8,16.3,9.4,30.1,17.5L73.6,58.5L73.6,58.5z"/>
		<path id="_251085576" class="st4" d="M60.1,66.5c0,0-1.1,0.7-2.8,0L19.4,44.2l37.9-22.3c1.6-0.7,2.8,0,2.8,0l56.8,33.4l0.1-16.3
			c-0.2-5.1-4-7.7-4-7.7S65.1,2.9,61.9,1.4c-3.1-1.6-6.6,0-6.6,0S9.1,27.3,4.7,31C0.2,34.8,0.6,39,0.6,39c0,5.3,0,10.5-0.1,15.7
			C0.5,55.1,50.1,84,55.3,87c0,0,3.6,1.8,6.6,0L92,69.4l18.5-10.8l0,0L92.1,47.7L60.1,66.5L60.1,66.5z"/>
		
			<linearGradient id="_251084904_1_" gradientUnits="userSpaceOnUse" x1="572.2124" y1="-375.9945" x2="722.5885" y2="-375.9945" gradientTransform="matrix(0.388 0 0 -0.388 -221.8017 -101.687)">
			<stop  offset="0" style="stop-color:#D9DADA"/>
			<stop  offset="0.2784" style="stop-color:#EBECEC"/>
			<stop  offset="1" style="stop-color:#FEFEFE"/>
		</linearGradient>
		<path id="_251084904" class="st5" d="M58.6,66.8c-0.4,0-0.8-0.1-1.2-0.3L19.4,44.2l37.9-22.3c0.5-0.2,0.9-0.3,1.2-0.3V0.7
			c-1.8,0.1-3.2,0.7-3.2,0.7S9.1,27.3,4.7,31C0.2,34.8,0.6,39,0.6,39c0,5.3,0,10.5-0.1,15.7C0.5,55.1,50.1,84,55.3,87
			c0,0,1.4,0.7,3.2,0.8L58.6,66.8L58.6,66.8z"/>
		
			<linearGradient id="_251084592_1_" gradientUnits="userSpaceOnUse" x1="722.5885" y1="-334.1032" x2="872.9976" y2="-334.1032" gradientTransform="matrix(0.388 0 0 -0.388 -221.8017 -101.687)">
			<stop  offset="0" style="stop-color:#D9DADA"/>
			<stop  offset="0.2784" style="stop-color:#EBECEC"/>
			<stop  offset="1" style="stop-color:#FEFEFE"/>
		</linearGradient>
		<path id="_251084592" class="st6" d="M58.6,21.6c0.9,0,1.5,0.3,1.5,0.3l56.8,33.4l0.1-16.3c-0.2-5.1-4-7.7-4-7.7
			S65.1,2.9,61.9,1.4c-1.1-0.6-2.3-0.7-3.4-0.7L58.6,21.6L58.6,21.6z"/>
		
			<linearGradient id="_251084520_1_" gradientUnits="userSpaceOnUse" x1="646.5813" y1="-317.5458" x2="802.0746" y2="-511.9113" gradientTransform="matrix(0.388 0 0 -0.388 -221.8017 -101.687)">
			<stop  offset="0" style="stop-color:#FEFEFE"/>
			<stop  offset="0.6588" style="stop-color:#FEFEFE"/>
			<stop  offset="1" style="stop-color:#C7C7C7"/>
		</linearGradient>
		<path id="_251084520" class="st7" d="M98.2,73L92,69.4L61.9,87c-3,1.8-6.6,0-6.6,0C50.1,84,0.5,55.1,0.5,54.7
			c0.1-5.4,0.1-10.9,0.1-16.3c0.1-1.3,0.6-4.4,4.1-7.3c0,0,0,0,0,0c0.1-0.1,0.2-0.2,0.3-0.2c-1.7,2.1-1.3,4-0.4,4.7l52.7,31
			c1.6,0.7,2.8,0,2.8,0l32-18.8l18.5,10.9l0,0l6.1,3.6L98.2,73L98.2,73z"/>
	</g>
</g>
</svg>
