<?xml version="1.0" encoding="utf-8"?>
<!-- Generator: Adobe Illustrator 25.0.1, SVG Export Plug-In . SVG Version: 6.00 Build 0)  -->
<svg version="1.1" xmlns="http://www.w3.org/2000/svg" xmlns:xlink="http://www.w3.org/1999/xlink" x="0px" y="0px"
	 viewBox="0 0 56.7 56.7" style="enable-background:new 0 0 56.7 56.7;" xml:space="preserve">
<style type="text/css">
	.st0{display:none;}
	.st1{display:inline;fill:#234156;}
	.st2{fill:url(#SVGID_1_);}
	.st3{fill:url(#SVGID_2_);}
	.st4{fill:url(#SVGID_3_);}
	.st5{fill:url(#SVGID_4_);}
	.st6{display:inline;fill:url(#SVGID_5_);}
	.st7{display:inline;}
	.st8{fill:url(#SVGID_6_);}
	.st9{fill:url(#SVGID_7_);}
	.st10{fill:url(#SVGID_8_);}
	.st11{fill:url(#SVGID_9_);}
	.st12{fill:url(#SVGID_10_);}
	.st13{fill:url(#SVGID_11_);}
	.st14{fill:url(#SVGID_12_);}
	.st15{fill:url(#SVGID_13_);}
</style>
<g id="hitbtc" class="st0">
	<path class="st1" d="M48.7,56.7H8c-4.4,0-8-3.6-8-8V8c0-4.4,3.6-8,8-8h40.7c4.4,0,8,3.6,8,8v40.7C56.7,53.1,53.1,56.7,48.7,56.7z"
		/>
</g>
<g id="fathom">
	<g>
		<g>
			<linearGradient id="SVGID_1_" gradientUnits="userSpaceOnUse" x1="23.1303" y1="32.7324" x2="42.0452" y2="32.7324">
				<stop  offset="0" style="stop-color:#63B046"/>
				<stop  offset="0.1065" style="stop-color:#62B049"/>
				<stop  offset="0.2972" style="stop-color:#5BB05F"/>
				<stop  offset="0.5501" style="stop-color:#4CB184"/>
				<stop  offset="0.8523" style="stop-color:#35B3AE"/>
				<stop  offset="1" style="stop-color:#15B4C5"/>
			</linearGradient>
			<path class="st2" d="M40.2,38.3c2.7-3.7,2.4-8.9-1-12.2c-3.7-3.7-9.7-3.7-13.4,0c-3.7,3.7-3.7,9.7,0,13.4c3.3,3.3,8.5,3.7,12.2,1
				l0.7,0.7L41,39L40.2,38.3z M37.4,37.6c-2.7,2.7-7,2.7-9.7,0c-2.7-2.7-2.7-7,0-9.7c2.7-2.7,7-2.7,9.7,0
				C40.1,30.6,40.1,34.9,37.4,37.6z"/>
			<linearGradient id="SVGID_2_" gradientUnits="userSpaceOnUse" x1="27.6043" y1="32.4996" x2="29.4257" y2="32.4996">
				<stop  offset="0" style="stop-color:#63B046"/>
				<stop  offset="0.1065" style="stop-color:#62B049"/>
				<stop  offset="0.2972" style="stop-color:#5BB05F"/>
				<stop  offset="0.5501" style="stop-color:#4CB184"/>
				<stop  offset="0.8523" style="stop-color:#35B3AE"/>
				<stop  offset="1" style="stop-color:#15B4C5"/>
			</linearGradient>
			<path class="st3" d="M29.3,29.3c-0.2-0.1-0.4-0.1-0.5,0.1c-1.4,1.8-1.5,4.3-0.3,6.2c0.1,0.2,0.3,0.2,0.5,0.1
				c0.2-0.1,0.2-0.3,0.1-0.5v0c-1-1.6-0.9-3.8,0.3-5.3C29.5,29.7,29.4,29.5,29.3,29.3z"/>
			<linearGradient id="SVGID_3_" gradientUnits="userSpaceOnUse" x1="39.3406" y1="44.5452" x2="49.4451" y2="44.5452">
				<stop  offset="0" style="stop-color:#63B046"/>
				<stop  offset="0.1065" style="stop-color:#62B049"/>
				<stop  offset="0.2972" style="stop-color:#5BB05F"/>
				<stop  offset="0.5501" style="stop-color:#4CB184"/>
				<stop  offset="0.8523" style="stop-color:#35B3AE"/>
				<stop  offset="1" style="stop-color:#15B4C5"/>
			</linearGradient>
			<path class="st4" d="M48.9,45.8l-7.1-6.3L39.3,42l6.3,7.1c0.6,0.8,1.8,0.7,2.9-0.3C49.6,47.7,49.7,46.5,48.9,45.8z"/>
			<linearGradient id="SVGID_4_" gradientUnits="userSpaceOnUse" x1="7.2478" y1="26.1692" x2="42.1368" y2="26.1692">
				<stop  offset="0" style="stop-color:#63B046"/>
				<stop  offset="0.1065" style="stop-color:#62B049"/>
				<stop  offset="0.2972" style="stop-color:#5BB05F"/>
				<stop  offset="0.5501" style="stop-color:#4CB184"/>
				<stop  offset="0.8523" style="stop-color:#35B3AE"/>
				<stop  offset="1" style="stop-color:#15B4C5"/>
			</linearGradient>
			<path class="st5" d="M26.3,41.4c0,0-0.1,0-0.1,0c0,0,0-0.1,0-0.2c-0.4-0.3-0.8-0.6-1.1-0.9c-0.7-0.7-1.3-1.5-1.7-2.3v3.4
				l-9.3-5.3l-0.6-0.3C10,34,10,34,10.1,31.7c0-0.4,0-0.9,0-1.5c0.1-4.4,0.1-7,0.1-10.6c0.8,0.4,1.5,0.9,2.2,1.3l1.5,0.8
				c3,1.6,6,3.3,9,4.9c0.2,0.1,0.3,0.3,0.3,0.7v0.1c0.5-0.8,1-1.6,1.7-2.3c2.6-2.6,6.2-3.6,9.6-2.9c1.5-0.9,3.1-1.7,4.6-2.6
				c0,1.6,0,3.2,0,4.7c0.3,0.3,0.7,0.5,1,0.8c0.8,0.8,1.4,1.7,1.9,2.6c0-1.4,0-2.8,0-4.1c0-1.7,0-3.4,0-5c0.2-1.7-0.8-2.5-2-3.2
				c-3.4-1.9-6.9-3.8-10.2-5.7C28.6,9,27.3,8.3,26,7.5c-1-0.6-1.9-0.6-2.8,0l-1,0.6c-4.4,2.5-9,5.1-13.5,7.6
				c-1.1,0.6-1.4,1.4-1.4,2.3c0,1.8,0,3.6,0,5.5c0,3.6-0.1,7.2-0.1,10.8c0,0.7,0,1.5,1,2c3.9,2.1,7.8,4.3,11.7,6.4l4.6,2.6l0.2-0.1
				c1.5-0.7,3-1.5,4.4-2.3C28.1,42.5,27.2,42,26.3,41.4z M11.8,17.2c2.4-1.4,4.7-2.6,6.9-3.9c0.6-0.3,1.1-0.6,1.7-0.9
				c1.1-0.6,2.3-1.3,3.4-1.9c0.6-0.4,0.9-0.4,1.4,0c1.1,0.6,1.8,1,2.7,1.5c0.5,0.3,1.1,0.7,1.9,1.1l0,0c3.2,1.7,5,2.7,7.6,4.2
				c0,0,0.1,0,0.1,0.1c-0.1,0.1-0.3,0.2-0.4,0.3l-0.1,0.1c-3.1,1.8-5.1,2.9-8.9,5l-0.9,0.5c-2.3,1.3-2.4,1.3-4.3,0.3
				c-0.9-0.5-1.9-1-2.8-1.5c-1.4-0.8-2.8-1.5-4.2-2.2c-1.4-0.8-2.8-1.6-4.5-2.4L11.8,17.2z"/>
		</g>
	</g>
</g>
<g id="Layer_3" class="st0">
	<linearGradient id="SVGID_5_" gradientUnits="userSpaceOnUse" x1="7.0866" y1="28.3465" x2="49.6063" y2="28.3465">
		<stop  offset="0" style="stop-color:#63B046"/>
		<stop  offset="0.1065" style="stop-color:#62B049"/>
		<stop  offset="0.2972" style="stop-color:#5BB05F"/>
		<stop  offset="0.5501" style="stop-color:#4CB184"/>
		<stop  offset="0.8523" style="stop-color:#35B3AE"/>
		<stop  offset="1" style="stop-color:#15B4C5"/>
	</linearGradient>
	<path class="st6" d="M18,23.3c-0.9-0.9-0.9-2.3,0-3.1c0.9-0.9,2.3-0.9,3.1,0l5,5V11.5c0-1.2,1-2.2,2.2-2.2s2.2,1,2.2,2.2v13.8l5-5
		c0.9-0.9,2.3-0.9,3.1,0c0.9,0.9,0.9,2.3,0,3.1l-8.8,8.8c0,0,0,0,0,0c0,0-0.1,0.1-0.2,0.1c0,0-0.1,0-0.1,0.1c0,0-0.1,0-0.1,0.1
		c0,0-0.1,0-0.1,0.1c0,0-0.1,0-0.1,0.1c0,0-0.1,0-0.1,0c0,0-0.1,0-0.1,0c0,0-0.1,0-0.1,0c0,0-0.1,0-0.1,0c0,0-0.1,0-0.1,0
		c0,0-0.1,0-0.1,0c0,0-0.1,0-0.1,0c0,0-0.1,0-0.1,0c-0.1,0-0.1,0-0.2,0c-0.1,0-0.1,0-0.2,0c0,0-0.1,0-0.1,0c0,0-0.1,0-0.1,0
		c0,0-0.1,0-0.1,0c0,0-0.1,0-0.1,0c0,0-0.1,0-0.1,0c0,0-0.1,0-0.1,0c0,0-0.1,0-0.1,0c0,0-0.1,0-0.1,0c0,0-0.1,0-0.1-0.1
		c0,0-0.1,0-0.1-0.1c0,0-0.1,0-0.1-0.1c0,0-0.1,0-0.1-0.1c-0.1,0-0.1-0.1-0.2-0.1c0,0,0,0,0,0L18,23.3z M42.3,37.9
		c0-1.6-1.3-2.9-2.9-2.9c-1.6,0-2.9,1.3-2.9,2.9c0,1.6,1.3,2.9,2.9,2.9C41,40.8,42.3,39.5,42.3,37.9z M45.9,28.3h-7.2
		c-1.2,0-2.2,1-2.2,2.2c0,1.2,1,2.2,2.2,2.2h6.5V43H11.5V32.7H18c1.2,0,2.2-1,2.2-2.2c0-1.2-1-2.2-2.2-2.2h-7.2
		c-2,0-3.7,1.6-3.7,3.7v11.7c0,2,1.6,3.7,3.7,3.7h35.2c2,0,3.7-1.6,3.7-3.7V32C49.6,30,48,28.3,45.9,28.3z"/>
</g>
<g id="Layer_4" class="st0">
	<g class="st7">
		<g>
			<linearGradient id="SVGID_6_" gradientUnits="userSpaceOnUse" x1="39.624" y1="39.1048" x2="50.4701" y2="39.1048">
				<stop  offset="0" style="stop-color:#63B046"/>
				<stop  offset="0.1065" style="stop-color:#62B049"/>
				<stop  offset="0.2972" style="stop-color:#5BB05F"/>
				<stop  offset="0.5501" style="stop-color:#4CB184"/>
				<stop  offset="0.8523" style="stop-color:#35B3AE"/>
				<stop  offset="1" style="stop-color:#15B4C5"/>
			</linearGradient>
			<path class="st8" d="M48.5,35.2l-1,0h-5.4c-1.4,0-2.5,1.1-2.5,2.5v3c0,1.4,1.1,2.5,2.5,2.5h5.2c0,0,0.8,0,1.2-0.1
				c1.1-0.2,2-1.2,2-2.4v-3C50.5,36.4,49.6,35.4,48.5,35.2z M49.5,40.6c0,0.8-0.7,1.5-1.5,1.5h-5.9c-0.8,0-1.5-0.7-1.5-1.5
				c0,0,0,0,0,0v-3c0-0.8,0.7-1.5,1.5-1.5c0,0,0,0,0,0l5.9,0c0.8,0,1.5,0.7,1.5,1.5V40.6z"/>
			<linearGradient id="SVGID_7_" gradientUnits="userSpaceOnUse" x1="43.6137" y1="39.0619" x2="46.9215" y2="39.0619">
				<stop  offset="0" style="stop-color:#63B046"/>
				<stop  offset="0.1065" style="stop-color:#62B049"/>
				<stop  offset="0.2972" style="stop-color:#5BB05F"/>
				<stop  offset="0.5501" style="stop-color:#4CB184"/>
				<stop  offset="0.8523" style="stop-color:#35B3AE"/>
				<stop  offset="1" style="stop-color:#15B4C5"/>
			</linearGradient>
			<path class="st9" d="M45.3,37.4c-0.9,0-1.7,0.7-1.6,1.7c0,0.9,0.7,1.7,1.7,1.6c0.9,0,1.6-0.7,1.6-1.6c0,0,0,0,0,0
				C46.9,38.1,46.2,37.4,45.3,37.4z"/>
			<linearGradient id="SVGID_8_" gradientUnits="userSpaceOnUse" x1="24.7233" y1="37.9976" x2="48.511" y2="37.9976">
				<stop  offset="0" style="stop-color:#63B046"/>
				<stop  offset="0.1065" style="stop-color:#62B049"/>
				<stop  offset="0.2972" style="stop-color:#5BB05F"/>
				<stop  offset="0.5501" style="stop-color:#4CB184"/>
				<stop  offset="0.8523" style="stop-color:#35B3AE"/>
				<stop  offset="1" style="stop-color:#15B4C5"/>
			</linearGradient>
			<path class="st10" d="M41.5,34.2h5.9l1.1,0.1v-3.8c0-1.5-1.2-2.7-2.7-2.7h-4.9c0,0-0.2,0-1.1,0l-2.2,0H27.4
				c-1.5,0-2.7,1.2-2.7,2.7v15.1c0,1.5,1.2,2.7,2.7,2.7h10.2h2.2h1.1h4.9c1.5,0,2.7-1.2,2.7-2.7v-1.6L47.4,44h-5.9
				c-1.5,0-2.7-1.2-2.7-2.7V37C38.8,35.5,40,34.2,41.5,34.2z M33.9,43.9h-4.3c-0.3,0-0.5-0.2-0.5-0.5c0-0.3,0.2-0.6,0.5-0.6h4.3
				c0,0,0.1,0,0.1,0c0.3,0,0.5,0.3,0.5,0.6C34.5,43.8,34.2,44,33.9,43.9z M35.4,39.6h-5.8c-0.3,0-0.5-0.2-0.5-0.5
				c0-0.3,0.2-0.6,0.5-0.6h5.8c0,0,0.1,0,0.1,0c0.3,0,0.5,0.3,0.5,0.6C36,39.4,35.7,39.7,35.4,39.6z M29.1,34.8
				c0-0.3,0.2-0.6,0.5-0.6h4.3c0,0,0.1,0,0.1,0c0.3,0,0.5,0.3,0.5,0.6c0,0.3-0.3,0.5-0.6,0.5h-4.3C29.3,35.3,29.1,35.1,29.1,34.8z
				 M39.8,28.8h6c0.9,0,1.6,0.7,1.6,1.6c-0.5-0.3-1-0.5-1.6-0.5h-6h-2.2H27.4c-0.6,0-1.1,0.2-1.6,0.5c0-0.9,0.7-1.6,1.6-1.6h10.2
				H39.8z"/>
		</g>
		<linearGradient id="SVGID_9_" gradientUnits="userSpaceOnUse" x1="7.9504" y1="28.3058" x2="45.223" y2="28.3058">
			<stop  offset="0" style="stop-color:#63B046"/>
			<stop  offset="0.1065" style="stop-color:#62B049"/>
			<stop  offset="0.2972" style="stop-color:#5BB05F"/>
			<stop  offset="0.5501" style="stop-color:#4CB184"/>
			<stop  offset="0.8523" style="stop-color:#35B3AE"/>
			<stop  offset="1" style="stop-color:#15B4C5"/>
		</linearGradient>
		<path class="st11" d="M23.8,45.6v-2.1c-1.1-0.8-2.1-1.9-2.9-3.5c-0.4-0.7-0.7-1.4-1-2.1c1.2-0.4,2.6-0.7,3.9-0.8v-2.5
			c-1.6,0.2-3.2,0.5-4.7,1c-0.5-1.9-0.8-4-0.8-6h5.7c0.4-1.6,1.8-2.8,3.5-2.8l0.5,0v-4.5c2.1-0.1,4.2-0.5,6.2-1.1
			c0.5,1.8,0.8,3.7,0.9,5.6l2.4,0c-0.1-2.2-0.4-4.4-1-6.6c1.1-0.5,2.1-1.1,3-1.8c1.9,2.4,3,5.3,3.3,8.3l2.5,0
			c-0.3-3.8-1.8-7.3-4.2-10.2L40.5,16c-3.5-3.9-8.6-6.2-13.8-6.2h-0.1c-1,0-1.9,0.1-2.8,0.3c-0.2,0-0.5,0.1-0.6,0.1
			c-4,0.8-7.7,2.9-10.3,5.9l-0.5,0.5c-6.5,7.9-5.5,19.6,2.4,26.2c2.7,2.2,5.9,3.6,9.4,4.1C23.9,46.4,23.8,46,23.8,45.6z M33.7,13.7
			l0.4,0.2h0c0,0,0.1,0,0.1,0c0,0,0,0,0,0c0.1,0.1,0.2,0.1,0.2,0.1c0.1,0.1,0.2,0.1,0.2,0.1c0.1,0.1,0.2,0.1,0.2,0.1
			c0.1,0.1,0.2,0.1,0.2,0.1c0.1,0.1,0.2,0.1,0.2,0.1h0c0.1,0.1,0.2,0.1,0.2,0.1c0.1,0.1,0.2,0.1,0.2,0.1c0.1,0.1,0.2,0.1,0.2,0.1
			c0.1,0.1,0.2,0.1,0.2,0.1c0.1,0.1,0.2,0.1,0.2,0.1c0.1,0.1,0.2,0.1,0.2,0.1c0.1,0.1,0.1,0.1,0.2,0.1c0.1,0.1,0.2,0.1,0.2,0.1
			c0.1,0.1,0.2,0.1,0.2,0.1c0.1,0.1,0.2,0.1,0.2,0.1c0.1,0.1,0.2,0.2,0.4,0.2c0,0,0,0,0,0c0.1,0.1,0.1,0.1,0.3,0.2
			c0.1,0.1,0.2,0.2,0.3,0.3l0,0c-0.7,0.5-1.4,0.9-2.1,1.3c-0.3-0.8-0.7-1.7-1.2-2.5C34.4,14.8,34,14.2,33.7,13.7
			C33.6,13.7,33.6,13.7,33.7,13.7z M27.8,12.4c1.7,0.5,3.3,2,4.5,4.3c0.4,0.7,0.7,1.4,1,2.2c-1.8,0.6-3.7,0.9-5.5,1V12.4z
			 M25.4,27.2l-7.2,0c0.1-2,0.4-4.1,0.9-6c2,0.7,4.1,1.1,6.3,1.2V27.2z M25.4,12.4l0,7.4c-1.9-0.1-3.7-0.4-5.5-1
			c0.3-0.7,0.6-1.5,1-2.2C22.1,14.5,23.7,13,25.4,12.4z M15.7,16.5L15.7,16.5l0.3-0.3c0.1-0.1,0.2-0.1,0.3-0.2
			c0.1-0.1,0.2-0.1,0.3-0.2c0,0,0.1-0.1,0.2-0.1c0,0,0.1-0.1,0.2-0.1c0,0,0.1-0.1,0.2-0.1c0,0,0.1-0.1,0.2-0.1c0,0,0.1-0.1,0.2-0.1
			c0,0,0.1-0.1,0.2-0.1c0,0,0.1-0.1,0.2-0.1c0,0,0.1-0.1,0.2-0.1c0,0,0.1-0.1,0.2-0.1c0,0,0.1-0.1,0.2-0.1c0,0,0.1-0.1,0.2-0.1
			c0,0,0.1-0.1,0.2-0.1c0,0,0.1,0,0.1-0.1c0.1,0,0.2-0.1,0.4-0.1c0.1,0,0.2-0.1,0.2-0.1l0.3-0.1c0.1,0,0.2-0.1,0.2-0.1c0,0,0,0,0,0
			c-0.5,0.6-0.9,1.2-1.2,1.9c-0.4,0.8-0.8,1.6-1.2,2.4c-0.7-0.4-1.5-0.9-2.1-1.4L15.7,16.5z M13.8,18.5c0.9,0.7,1.9,1.3,3,1.7
			c-0.6,2.3-0.9,4.6-1,6.9h-5.3C10.8,24,11.9,21,13.8,18.5z M13.9,38.3c-1.9-2.5-3.1-5.5-3.3-8.6h5.3c0.1,2.3,0.4,4.6,1,6.8
			C15.8,37,14.8,37.6,13.9,38.3z M15.5,40.1c0.7-0.5,1.4-0.9,2.2-1.3c0.3,0.8,0.7,1.7,1.2,2.5c0.3,0.7,0.7,1.3,1.2,1.9
			C18.3,42.4,16.8,41.4,15.5,40.1z"/>
	</g>
</g>
<g id="Layer_5" class="st0">
	<g class="st7">
		<linearGradient id="SVGID_10_" gradientUnits="userSpaceOnUse" x1="30.9476" y1="26.0671" x2="42.4847" y2="26.0671">
			<stop  offset="0" style="stop-color:#63B046"/>
			<stop  offset="0.1065" style="stop-color:#62B049"/>
			<stop  offset="0.2972" style="stop-color:#5BB05F"/>
			<stop  offset="0.5501" style="stop-color:#4CB184"/>
			<stop  offset="0.8523" style="stop-color:#35B3AE"/>
			<stop  offset="1" style="stop-color:#15B4C5"/>
		</linearGradient>
		<path class="st12" d="M40.4,21.9l-1.1-0.1h-5.7c-1.5,0-2.6,1.2-2.6,2.6v3.2c0,1.5,1.2,2.6,2.6,2.6h5.6c0,0,0.9,0,1.3-0.1
			c1.2-0.3,2.1-1.3,2.1-2.6v-3.2C42.5,23.2,41.6,22.1,40.4,21.9z M41.4,27.6c0,0.9-0.7,1.6-1.6,1.6h-6.3c-0.9,0-1.6-0.7-1.6-1.6
			c0,0,0,0,0,0v-3.2c0-0.9,0.7-1.6,1.6-1.6c0,0,0,0,0,0l6.3,0c0.9,0,1.6,0.7,1.6,1.6V27.6z"/>
		<linearGradient id="SVGID_11_" gradientUnits="userSpaceOnUse" x1="35.1914" y1="26.0216" x2="38.7099" y2="26.0216">
			<stop  offset="0" style="stop-color:#63B046"/>
			<stop  offset="0.1065" style="stop-color:#62B049"/>
			<stop  offset="0.2972" style="stop-color:#5BB05F"/>
			<stop  offset="0.5501" style="stop-color:#4CB184"/>
			<stop  offset="0.8523" style="stop-color:#35B3AE"/>
			<stop  offset="1" style="stop-color:#15B4C5"/>
		</linearGradient>
		<path class="st13" d="M36.9,24.3c-1,0-1.8,0.8-1.8,1.8c0,1,0.8,1.8,1.8,1.8c1,0,1.8-0.8,1.8-1.8c0,0,0,0,0,0
			C38.7,25,37.9,24.3,36.9,24.3z"/>
		<linearGradient id="SVGID_12_" gradientUnits="userSpaceOnUse" x1="33.4505" y1="44.4081" x2="36.9691" y2="44.4081">
			<stop  offset="0" style="stop-color:#63B046"/>
			<stop  offset="0.1065" style="stop-color:#62B049"/>
			<stop  offset="0.2972" style="stop-color:#5BB05F"/>
			<stop  offset="0.5501" style="stop-color:#4CB184"/>
			<stop  offset="0.8523" style="stop-color:#35B3AE"/>
			<stop  offset="1" style="stop-color:#15B4C5"/>
		</linearGradient>
		<path class="st14" d="M35.2,42.6c-1,0-1.8,0.8-1.8,1.8c0,1,0.8,1.8,1.8,1.8c1,0,1.8-0.8,1.8-1.8c0,0,0,0,0,0
			C37,43.4,36.2,42.6,35.2,42.6z"/>
		<linearGradient id="SVGID_13_" gradientUnits="userSpaceOnUse" x1="7.0975" y1="28.3465" x2="49.5954" y2="28.3465">
			<stop  offset="0" style="stop-color:#63B046"/>
			<stop  offset="0.1065" style="stop-color:#62B049"/>
			<stop  offset="0.2972" style="stop-color:#5BB05F"/>
			<stop  offset="0.5501" style="stop-color:#4CB184"/>
			<stop  offset="0.8523" style="stop-color:#35B3AE"/>
			<stop  offset="1" style="stop-color:#15B4C5"/>
		</linearGradient>
		<path class="st15" d="M46.7,7.1h-23c-1.6,0-2.9,1.3-2.9,2.9v4H10c-1.6,0-2.9,1.3-2.9,2.9V33c0,1.6,1.3,2.8,2.9,2.8h10.9v10.9
			c0,1.6,1.3,2.9,2.9,2.9h23c1.6,0,2.9-1.3,2.9-2.9V10C49.6,8.4,48.3,7.1,46.7,7.1z M16.8,31.2h-4.6c-0.3,0-0.5-0.2-0.5-0.5
			c0-0.3,0.2-0.6,0.5-0.6h4.6c0,0,0.1,0,0.1,0c0.3,0,0.5,0.3,0.5,0.6S17.2,31.3,16.8,31.2z M18.4,26.6h-6.2c-0.3,0-0.5-0.2-0.5-0.5
			c0-0.3,0.2-0.6,0.5-0.6h6.2c0,0,0.1,0,0.1,0c0.3,0,0.5,0.3,0.5,0.6C19,26.4,18.8,26.7,18.4,26.6z M11.7,21.5
			c0-0.3,0.2-0.6,0.5-0.6h4.6c0,0,0.1,0,0.1,0c0.3,0,0.5,0.3,0.5,0.6c0,0.3-0.3,0.5-0.6,0.5h-4.6C12,22,11.8,21.8,11.7,21.5z
			 M10,16.3c-0.6,0-1.2,0.2-1.7,0.6c0-0.9,0.8-1.7,1.7-1.7h10.9v1.1H10z M23.2,15.2h14.3c0.9,0,1.7,0.8,1.7,1.7
			c-0.5-0.4-1.1-0.6-1.7-0.6H23.2L23.2,15.2z M38,44.4c0,1.6-1.3,2.8-2.8,2.8c-1.6,0-2.8-1.3-2.8-2.8c0-1.6,1.3-2.8,2.8-2.8
			C36.8,41.6,38,42.9,38,44.4C38,44.4,38,44.4,38,44.4z M47.3,38.7c0,1-0.8,1.7-1.7,1.7H24.9c-1,0-1.7-0.8-1.7-1.7v-2.9h1.2h13.2
			c1.6,0,2.9-1.3,2.9-2.9v-1.8l-1.2,0.1h-6.3c-1.6,0-2.9-1.3-2.9-2.9v-4.6c0-1.6,1.3-2.9,2.9-2.9h6.3l1.2,0.1v-4.1
			c0-1.6-1.3-2.9-2.9-2.9H24.3c0,0-0.2,0-1.2,0v-2.8c0-1,0.8-1.7,1.7-1.7h20.7c0,0,0,0,0,0c0.9,0,1.7,0.8,1.7,1.7V38.7z"/>
	</g>
</g>
</svg>
