<?xml version="1.0" encoding="utf-8"?>
<!-- Generator: Adobe Illustrator 25.0.1, SVG Export Plug-In . SVG Version: 6.00 Build 0)  -->
<svg version="1.1" id="Layer_1" xmlns="http://www.w3.org/2000/svg" xmlns:xlink="http://www.w3.org/1999/xlink" x="0px" y="0px"
	 viewBox="0 0 100 100" style="enable-background:new 0 0 100 100;" xml:space="preserve">
<style type="text/css">
	.st0{fill:url(#SVGID_1_);}
	.st1{fill:url(#SVGID_2_);}
	.st2{fill:url(#SVGID_3_);}
	.st3{fill:url(#SVGID_4_);}
	.st4{fill:url(#SVGID_5_);}
	.st5{fill:url(#SVGID_6_);}
	.st6{fill:url(#SVGID_7_);}
</style>
<g id="Layer_7">
	<g>
		<g>
			
				<linearGradient id="SVGID_1_" gradientUnits="userSpaceOnUse" x1="12.7" y1="65.05" x2="66.9" y2="65.05" gradientTransform="matrix(1 0 0 -1 0 102.4)">
				<stop  offset="0" style="stop-color:#63AF45"/>
				<stop  offset="0.1065" style="stop-color:#62AF4B"/>
				<stop  offset="0.2972" style="stop-color:#5BB060"/>
				<stop  offset="0.5501" style="stop-color:#4DB183"/>
				<stop  offset="0.8523" style="stop-color:#33B3AE"/>
				<stop  offset="1" style="stop-color:#13B4C5"/>
			</linearGradient>
			<path class="st0" d="M40.6,45.6c5.2-6.6,13.2-10.8,22.3-10.8c1.3,0,2.7,0.1,4,0.3v-6c-4.1,3.7-14.7,6.3-27.1,6.3
				s-22.9-2.6-27.1-6.2V37C14.8,45.3,40.4,45.6,40.6,45.6z"/>
			
				<linearGradient id="SVGID_2_" gradientUnits="userSpaceOnUse" x1="12.7" y1="51.2" x2="38.3" y2="51.2" gradientTransform="matrix(1 0 0 -1 0 102.4)">
				<stop  offset="0" style="stop-color:#63AF45"/>
				<stop  offset="0.1065" style="stop-color:#62AF4B"/>
				<stop  offset="0.2972" style="stop-color:#5BB060"/>
				<stop  offset="0.5501" style="stop-color:#4DB183"/>
				<stop  offset="0.8523" style="stop-color:#33B3AE"/>
				<stop  offset="1" style="stop-color:#13B4C5"/>
			</linearGradient>
			<path class="st1" d="M12.7,42.9v7.9c1,4.4,10.2,7.9,22.2,8.7c0.5-3.7,1.7-7.2,3.4-10.3C26.5,48.9,16.6,46.4,12.7,42.9z"/>
			
				<linearGradient id="SVGID_3_" gradientUnits="userSpaceOnUse" x1="12.6607" y1="37.1" x2="36.6963" y2="37.1" gradientTransform="matrix(1 0 0 -1 0 102.4)">
				<stop  offset="0" style="stop-color:#63AF45"/>
				<stop  offset="0.1065" style="stop-color:#62AF4B"/>
				<stop  offset="0.2972" style="stop-color:#5BB060"/>
				<stop  offset="0.5501" style="stop-color:#4DB183"/>
				<stop  offset="0.8523" style="stop-color:#33B3AE"/>
				<stop  offset="1" style="stop-color:#13B4C5"/>
			</linearGradient>
			<path class="st2" d="M12.7,56.9v7.5l0.1-0.1c0.3,4.8,10.6,8.8,23.9,9.4c-1.3-3.3-2.1-6.8-2.1-10.6l0,0
				C24.5,62.4,16.2,60.1,12.7,56.9z"/>
			
				<linearGradient id="SVGID_4_" gradientUnits="userSpaceOnUse" x1="12.6454" y1="23.35" x2="47.9454" y2="23.35" gradientTransform="matrix(1 0 0 -1 0 102.4)">
				<stop  offset="0" style="stop-color:#63AF45"/>
				<stop  offset="0.1065" style="stop-color:#62AF4B"/>
				<stop  offset="0.2972" style="stop-color:#5BB060"/>
				<stop  offset="0.5501" style="stop-color:#4DB183"/>
				<stop  offset="0.8523" style="stop-color:#33B3AE"/>
				<stop  offset="1" style="stop-color:#13B4C5"/>
			</linearGradient>
			<path class="st3" d="M38.5,77.2c-12-0.2-22-2.8-25.8-6.5v7.1c0,5.3,12.1,9.6,27.1,9.6c2.9,0,5.6-0.2,8.2-0.4
				C44.1,84.6,40.8,81.2,38.5,77.2z"/>
			
				<linearGradient id="SVGID_5_" gradientUnits="userSpaceOnUse" x1="12.6" y1="80.3" x2="66.9172" y2="80.3" gradientTransform="matrix(1 0 0 -1 0 102.4)">
				<stop  offset="0" style="stop-color:#63AF45"/>
				<stop  offset="0.1065" style="stop-color:#62AF4B"/>
				<stop  offset="0.2972" style="stop-color:#5BB060"/>
				<stop  offset="0.5501" style="stop-color:#4DB183"/>
				<stop  offset="0.8523" style="stop-color:#33B3AE"/>
				<stop  offset="1" style="stop-color:#13B4C5"/>
			</linearGradient>
			<ellipse class="st4" cx="39.8" cy="22.1" rx="27.2" ry="9.6"/>
		</g>
	</g>
	<g id="Layer_10">
		<g>
			<g id="Shape_1_3_">
				<g>
					
						<linearGradient id="SVGID_6_" gradientUnits="userSpaceOnUse" x1="38.35" y1="39.339" x2="87.35" y2="39.339" gradientTransform="matrix(1 0 0 -1 0 102.4)">
						<stop  offset="0" style="stop-color:#63AF45"/>
						<stop  offset="0.1065" style="stop-color:#62AF4B"/>
						<stop  offset="0.2972" style="stop-color:#5BB060"/>
						<stop  offset="0.5501" style="stop-color:#4DB183"/>
						<stop  offset="0.8523" style="stop-color:#33B3AE"/>
						<stop  offset="1" style="stop-color:#13B4C5"/>
					</linearGradient>
					<path class="st5" d="M87.3,60.7c-5.6-32.6-48.2-26.3-49,0c2.5,1.3,4,2.1,4,2.1s-1.3,0.8-4,2.5c4.9,32,46.8,27.3,49,0
						c-2.7-1.6-4.1-2.5-4.1-2.5S84.5,62.2,87.3,60.7z M66.4,72.1l-4-6.9l-4.1,6.9l-3.1-0.2l5.8-9.7l-5.2-8.4l3.1-0.3l3.7,6.2l3.7-6
						l2.9,0.1l-4.9,8.3l5.4,10L66.4,72.1z"/>
				</g>
			</g>
			<g id="Shape_1_2_">
				<g>
					
						<linearGradient id="SVGID_7_" gradientUnits="userSpaceOnUse" x1="40.3373" y1="39.2745" x2="85.3373" y2="39.2745" gradientTransform="matrix(1 0 0 -1 0 102.4)">
						<stop  offset="0" style="stop-color:#63AF45"/>
						<stop  offset="0.1065" style="stop-color:#62AF4B"/>
						<stop  offset="0.2972" style="stop-color:#5BB060"/>
						<stop  offset="0.5501" style="stop-color:#4DB183"/>
						<stop  offset="0.8523" style="stop-color:#33B3AE"/>
						<stop  offset="1" style="stop-color:#13B4C5"/>
					</linearGradient>
					<path class="st6" d="M85.4,59.5c-7.6-29-42.6-21.1-45,0c4.9,2.7,6,3.4,6,3.4s-1.9,1.2-6,3.8c5.2,27.9,42.9,22.5,45,0
						c-3.8-2.4-6.1-3.8-6.1-3.8S84.4,59.9,85.4,59.5z M66.4,72.1l-4-6.9l-4.1,6.9l-3.1-0.2l5.8-9.7l-5.2-8.4l3.1-0.3l3.7,6.2l3.7-6
						l2.9,0.1l-4.9,8.3l5.3,9.9L66.4,72.1z"/>
				</g>
			</g>
		</g>
	</g>
</g>
</svg>
