<?xml version="1.0" encoding="utf-8"?>
<!-- Generator: Adobe Illustrator 25.0.1, SVG Export Plug-In . SVG Version: 6.00 Build 0)  -->
<svg version="1.1" xmlns="http://www.w3.org/2000/svg" xmlns:xlink="http://www.w3.org/1999/xlink" x="0px" y="0px"
	 viewBox="0 0 100 100" style="enable-background:new 0 0 100 100;" xml:space="preserve">
<style type="text/css">
	.st0{display:none;}
	.st1{display:inline;fill:url(#SVGID_1_);}
	.st2{display:inline;fill:url(#SVGID_2_);}
	.st3{fill:url(#SVGID_3_);}
	.st4{display:inline;}
	.st5{fill:url(#SVGID_4_);}
	.st6{fill:url(#SVGID_5_);}
	.st7{fill:url(#SVGID_6_);}
	.st8{fill:url(#SVGID_7_);}
	.st9{fill:url(#SVGID_8_);}
	.st10{fill:url(#SVGID_9_);}
	.st11{fill:url(#SVGID_10_);}
	.st12{fill-rule:evenodd;clip-rule:evenodd;fill:url(#SVGID_11_);}
	.st13{fill:url(#SVGID_12_);}
	.st14{fill:url(#SVGID_13_);}
	.st15{fill:url(#SVGID_14_);}
	.st16{fill:url(#SVGID_15_);}
	.st17{fill:url(#SVGID_16_);}
	.st18{fill:url(#SVGID_17_);}
	.st19{fill:url(#SVGID_18_);}
	.st20{fill:url(#SVGID_19_);}
	.st21{fill:url(#SVGID_20_);}
	.st22{fill:url(#SVGID_21_);}
	.st23{fill:url(#SVGID_22_);}
	.st24{fill:url(#SVGID_23_);}
	.st25{fill:url(#SVGID_24_);}
	.st26{fill:url(#SVGID_25_);}
	.st27{fill:url(#SVGID_26_);}
	.st28{display:inline;fill:url(#SVGID_27_);}
</style>
<g id="Layer_1" class="st0">
	<linearGradient id="SVGID_1_" gradientUnits="userSpaceOnUse" x1="5.8637" y1="5.8637" x2="94.1363" y2="94.1363">
		<stop  offset="0" style="stop-color:#1B2E50"/>
		<stop  offset="0.2841" style="stop-color:#1A2C4A"/>
		<stop  offset="0.7907" style="stop-color:#17253C"/>
		<stop  offset="1" style="stop-color:#142135"/>
	</linearGradient>
	<path class="st1" d="M20,0h60c11.1,0,20,9,20,20v60c0,11.1-9,20-20,20H20C9,100,0,91,0,80V20C0,9,9,0,20,0z"/>
</g>
<g id="Light" class="st0">
	<linearGradient id="SVGID_2_" gradientUnits="userSpaceOnUse" x1="5.8637" y1="5.8637" x2="94.1363" y2="94.1363">
		<stop  offset="0" style="stop-color:#E5E6E5"/>
		<stop  offset="0.7099" style="stop-color:#F0F1F1"/>
		<stop  offset="1" style="stop-color:#F7F8F9"/>
	</linearGradient>
	<path class="st2" d="M20,0h60c11.1,0,20,9,20,20v60c0,11.1-9,20-20,20H20C9,100,0,91,0,80V20C0,9,9,0,20,0z"/>
</g>
<g id="Layer_3">
	<linearGradient id="SVGID_3_" gradientUnits="userSpaceOnUse" x1="12.5" y1="50" x2="87.5" y2="50">
		<stop  offset="0" style="stop-color:#63AF45"/>
		<stop  offset="0.1065" style="stop-color:#62AF4B"/>
		<stop  offset="0.2972" style="stop-color:#5BB060"/>
		<stop  offset="0.5501" style="stop-color:#4DB183"/>
		<stop  offset="0.8523" style="stop-color:#33B3AE"/>
		<stop  offset="1" style="stop-color:#13B4C5"/>
	</linearGradient>
	<path class="st3" d="M87.5,39c0-3.3-2.7-6.1-6.1-6.1c-1,0-1.9,0.2-2.7,0.6l-10.9-7.1c0.1-0.5,0.2-1,0.2-1.6c0-3.3-2.7-6.1-6.1-6.1
		c-3.3,0-5.9,2.6-6,5.8l-7.5,2.4l-3.3-3.7c0.4-0.8,0.7-1.8,0.7-2.8c0-3.3-2.7-6.1-6.1-6.1s-6.1,2.7-6.1,6.1c0,1.4,0.5,2.8,1.4,3.8
		l-3.5,8.1l-7.3,2.4c-1.1-1.1-2.6-1.9-4.4-1.9c-3.3,0-6.1,2.7-6.1,6.1s2.7,6.1,6.1,6.1c0.2,0,0.3,0,0.5,0l3,6.2l-3.5,8
		c-0.4-0.1-0.9-0.2-1.3-0.2c-3.3,0-6.1,2.7-6.1,6.1s2.7,6.1,6.1,6.1c3.3,0,5.9-2.6,6-5.8l4.8-2l4.9,10.1c-0.9,1-1.4,2.4-1.4,3.8
		c0,3.3,2.7,6.1,6.1,6.1c1.9,0,3.6-0.9,4.7-2.3l14.1,0.7c0.9,2.2,3.1,3.7,5.6,3.7c3.3,0,6.1-2.7,6.1-6.1s-2.7-6.1-6.1-6.1
		c-2.8,0-5.1,1.9-5.8,4.4l-12.2-0.6l26.7-10.7c0.9,0.5,1.8,0.7,2.9,0.7c3.3,0,6.1-2.7,6.1-6.1c0-1.4-0.5-2.7-1.3-3.7L83,44.9
		C85.6,44.2,87.5,41.8,87.5,39z M75.3,55.1l-3.7-9.5l5.5-2.3c0.5,0.5,1.1,1,1.8,1.3l-2.8,10.6C75.9,55.1,75.6,55.1,75.3,55.1z
		 M65.4,29.9c0.1,0,0.1-0.1,0.2-0.1l10.3,6.8c-0.3,0.7-0.5,1.6-0.5,2.5c0,0.2,0,0.4,0,0.6l-5.3,2.2L65.4,29.9z M69.1,50.4l-2.4-2.8
		l1.2-0.5L69.1,50.4z M58.3,38.1l3.2-7.2c0,0,0,0,0.1,0l4.9,12.5l-2.5,1.1L58.3,38.1z M59.9,46.1l-6.3,2.7l2.9-6.6L59.9,46.1z
		 M57.2,28.5c0.2,0.2,0.4,0.5,0.6,0.7l-2.5,5.6l-3.9-4.4L57.2,28.5z M38.6,26.5c0.4,0.1,0.8,0.1,1.2,0.1c0.9,0,1.7-0.2,2.4-0.5
		l2,2.3l-7.6,2.4L38.6,26.5z M25.9,39c0-0.2,0-0.3,0-0.5l3.5-1.1l-3.9,9l-1.5-3C25.2,42.3,25.9,40.8,25.9,39z M23.4,61.5
		C23.4,61.5,23.3,61.4,23.4,61.5l2.3-5.5l1.9,3.8L23.4,61.5z M27.8,51.1l6.7-15.4l12.6-4l6.3,7.2h0L48.2,51l-16.9,7.1L27.8,51.1z
		 M45.9,56.4l-6.5,14.8c-0.1,0-0.3,0-0.4,0c-0.4,0-0.8,0-1.2,0.1l-4.7-9.5L45.9,56.4z M43.7,73.4c-0.2-0.2-0.4-0.4-0.6-0.6l8.2-18.7
		l11.5-4.8l7.3,8.3c-0.7,1-1.2,2.2-1.2,3.6c0,0.7,0.1,1.5,0.4,2.1L43.7,73.4z"/>
</g>
<g id="Layer_4" class="st0">
	<g class="st4">
		<linearGradient id="SVGID_4_" gradientUnits="userSpaceOnUse" x1="16.9369" y1="61.7489" x2="31.3042" y2="61.7489">
			<stop  offset="0" style="stop-color:#63AF45"/>
			<stop  offset="0.1065" style="stop-color:#62AF4B"/>
			<stop  offset="0.2972" style="stop-color:#5BB060"/>
			<stop  offset="0.5501" style="stop-color:#4DB183"/>
			<stop  offset="0.8523" style="stop-color:#33B3AE"/>
			<stop  offset="1" style="stop-color:#13B4C5"/>
		</linearGradient>
		<path class="st5" d="M20.2,58.5c-1.8,0-3.2,1.4-3.2,3.2v0c0,1.8,1.5,3.2,3.2,3.2h7.9c1.8,0,3.2-1.5,3.2-3.2v0
			c0-1.8-1.4-3.2-3.2-3.2H20.2z"/>
		<linearGradient id="SVGID_5_" gradientUnits="userSpaceOnUse" x1="12.7408" y1="49.9999" x2="28.7866" y2="49.9999">
			<stop  offset="0" style="stop-color:#63AF45"/>
			<stop  offset="0.1065" style="stop-color:#62AF4B"/>
			<stop  offset="0.2972" style="stop-color:#5BB060"/>
			<stop  offset="0.5501" style="stop-color:#4DB183"/>
			<stop  offset="0.8523" style="stop-color:#33B3AE"/>
			<stop  offset="1" style="stop-color:#13B4C5"/>
		</linearGradient>
		<path class="st6" d="M16,53.2h9.6c1.8,0,3.2-1.5,3.2-3.2v0c0-1.8-1.4-3.2-3.2-3.2H16c-1.8,0-3.2,1.4-3.2,3.2v0
			C12.7,51.8,14.2,53.2,16,53.2z"/>
		<linearGradient id="SVGID_6_" gradientUnits="userSpaceOnUse" x1="16.9369" y1="38.251" x2="31.3042" y2="38.251">
			<stop  offset="0" style="stop-color:#63AF45"/>
			<stop  offset="0.1065" style="stop-color:#62AF4B"/>
			<stop  offset="0.2972" style="stop-color:#5BB060"/>
			<stop  offset="0.5501" style="stop-color:#4DB183"/>
			<stop  offset="0.8523" style="stop-color:#33B3AE"/>
			<stop  offset="1" style="stop-color:#13B4C5"/>
		</linearGradient>
		<path class="st7" d="M31.3,38.3c0-1.8-1.4-3.2-3.2-3.2h-7.9c-1.8,0-3.2,1.4-3.2,3.2v0c0,1.8,1.5,3.2,3.2,3.2h7.9
			C29.9,41.5,31.3,40,31.3,38.3L31.3,38.3z"/>
		<linearGradient id="SVGID_7_" gradientUnits="userSpaceOnUse" x1="12.7408" y1="50" x2="87.2558" y2="50">
			<stop  offset="0" style="stop-color:#63AF45"/>
			<stop  offset="0.1065" style="stop-color:#62AF4B"/>
			<stop  offset="0.2972" style="stop-color:#5BB060"/>
			<stop  offset="0.5501" style="stop-color:#4DB183"/>
			<stop  offset="0.8523" style="stop-color:#33B3AE"/>
			<stop  offset="1" style="stop-color:#13B4C5"/>
		</linearGradient>
		<path class="st8" d="M86.8,48L86.8,48c-0.2-0.3-0.5-0.4-0.9-0.5c-0.5-0.6-1-1.2-1.7-1.8L47.8,15.1c-0.5-0.4-1-0.8-1.5-1.1
			c-0.6-0.9-1.6-1.5-2.7-1.5h0c-0.9,0-1.8,0.4-2.4,1.1c0,0-0.1,0-0.1,0.1l0,0c0,0,0,0.1-0.1,0.1c-0.4,0.5-0.7,1.2-0.7,2v8.4H16
			c-1.8,0-3.2,1.4-3.2,3.2v0c0,1.8,1.4,3.2,3.2,3.2h27.6h0h0c1.8,0,3.2-1.4,3.2-3.2v0c0,0,0,0,0,0v-4.8L79.4,50L46.8,77.4v-4.8
			c0,0,0,0,0,0v0c0-1.8-1.4-3.2-3.2-3.2h0h0H16c-1.8,0-3.2,1.4-3.2,3.2v0c0,1.8,1.4,3.2,3.2,3.2h24.4v8.4c0,0.7,0.3,1.4,0.7,2
			c0,0,0,0.1,0.1,0.1l0,0c0,0,0.1,0,0.1,0.1c0.6,0.7,1.4,1.1,2.4,1.1h0c1.1,0,2.2-0.6,2.7-1.5c0.5-0.3,1-0.6,1.5-1.1l36.4-30.5
			c0.7-0.6,1.3-1.2,1.7-1.8c0.3-0.1,0.7-0.3,0.9-0.5l0,0c0.4-0.5,0.5-1.2,0.4-2C87.3,49.2,87.2,48.5,86.8,48z"/>
		<linearGradient id="SVGID_8_" gradientUnits="userSpaceOnUse" x1="44.7806" y1="45.0738" x2="46.6173" y2="45.0738">
			<stop  offset="0" style="stop-color:#63AF45"/>
			<stop  offset="0.1065" style="stop-color:#62AF4B"/>
			<stop  offset="0.2972" style="stop-color:#5BB060"/>
			<stop  offset="0.5501" style="stop-color:#4DB183"/>
			<stop  offset="0.8523" style="stop-color:#33B3AE"/>
			<stop  offset="1" style="stop-color:#13B4C5"/>
		</linearGradient>
		<path class="st9" d="M44.8,45.1c0,0.7,0.2,1.2,0.6,1.6c0.3,0.3,0.7,0.5,1.3,0.8v-4.6c-0.5,0.2-0.9,0.4-1.2,0.7
			C45,43.8,44.8,44.4,44.8,45.1z"/>
		<linearGradient id="SVGID_9_" gradientUnits="userSpaceOnUse" x1="49.3558" y1="54.319" x2="51.4907" y2="54.319">
			<stop  offset="0" style="stop-color:#63AF45"/>
			<stop  offset="0.1065" style="stop-color:#62AF4B"/>
			<stop  offset="0.2972" style="stop-color:#5BB060"/>
			<stop  offset="0.5501" style="stop-color:#4DB183"/>
			<stop  offset="0.8523" style="stop-color:#33B3AE"/>
			<stop  offset="1" style="stop-color:#13B4C5"/>
		</linearGradient>
		<path class="st10" d="M51.5,54.2c0-0.8-0.2-1.3-0.7-1.7c-0.4-0.3-0.8-0.6-1.4-0.8V57c0.6-0.2,1.1-0.5,1.4-0.9
			C51.3,55.6,51.5,54.9,51.5,54.2z"/>
		<linearGradient id="SVGID_10_" gradientUnits="userSpaceOnUse" x1="32.3328" y1="50" x2="63.4188" y2="50">
			<stop  offset="0" style="stop-color:#63AF45"/>
			<stop  offset="0.1065" style="stop-color:#62AF4B"/>
			<stop  offset="0.2972" style="stop-color:#5BB060"/>
			<stop  offset="0.5501" style="stop-color:#4DB183"/>
			<stop  offset="0.8523" style="stop-color:#33B3AE"/>
			<stop  offset="1" style="stop-color:#13B4C5"/>
		</linearGradient>
		<path class="st11" d="M63.4,50c0-8.6-7-15.5-15.5-15.5c-8.6,0-15.5,7-15.5,15.5s7,15.5,15.5,15.5C56.5,65.5,63.4,58.6,63.4,50z
			 M46.6,61v-1.3c-0.8-0.1-1.5-0.3-2.2-0.7c-0.8-0.4-1.4-0.8-1.9-1.4c-0.5-0.5-0.9-1.1-1.1-1.7c-0.2-0.6-0.4-1.2-0.4-1.7
			c0-0.4,0.2-0.8,0.5-1.1c0.3-0.3,0.7-0.5,1.2-0.5c0.4,0,0.7,0.1,1,0.3c0.3,0.2,0.5,0.4,0.6,0.8c0.2,0.7,0.4,1.3,0.6,1.6
			c0.2,0.4,0.4,0.7,0.8,1c0.2,0.2,0.6,0.4,0.9,0.6v-6c-1-0.3-1.8-0.6-2.4-0.9c-0.8-0.4-1.4-1-1.9-1.7c-0.5-0.7-0.7-1.7-0.7-2.8
			c0-1.5,0.5-2.7,1.4-3.7c0.9-0.9,2.1-1.4,3.6-1.6V39c0-0.8,0.6-1.4,1.4-1.4s1.4,0.6,1.4,1.4v1.1c0.7,0.1,1.3,0.3,1.8,0.5
			c0.7,0.3,1.2,0.7,1.7,1.3c0.4,0.4,0.7,0.9,0.9,1.4c0.2,0.5,0.3,0.9,0.3,1.3c0,0.4-0.2,0.8-0.5,1.1c-0.3,0.3-0.7,0.5-1.2,0.5
			c-0.9,0-1.4-0.5-1.7-1.4c-0.2-0.9-0.7-1.5-1.5-1.9v5.3c0.8,0.2,1.4,0.4,2,0.6c0.6,0.2,1.2,0.6,1.7,1.1c0.5,0.5,1,1,1.2,1.7
			c0.3,0.7,0.4,1.4,0.4,2.2c0,1-0.2,1.9-0.7,2.8c-0.5,0.9-1.1,1.6-2,2.1c-0.8,0.5-1.6,0.8-2.6,0.9V61c0,0.8-0.6,1.4-1.4,1.4
			S46.6,61.7,46.6,61z"/>
	</g>
</g>
<g id="Layer_5" class="st0">
	<g id="Layer_x0020_1_1_" class="st4">
		<linearGradient id="SVGID_11_" gradientUnits="userSpaceOnUse" x1="12.5" y1="50" x2="87.5" y2="50">
			<stop  offset="0" style="stop-color:#63AF45"/>
			<stop  offset="0.1065" style="stop-color:#62AF4B"/>
			<stop  offset="0.2972" style="stop-color:#5BB060"/>
			<stop  offset="0.5501" style="stop-color:#4DB183"/>
			<stop  offset="0.8523" style="stop-color:#33B3AE"/>
			<stop  offset="1" style="stop-color:#13B4C5"/>
		</linearGradient>
		<path class="st12" d="M20.8,12.6h58.5c4.5,0,8.3,3.7,8.3,8.3v26.6h-4.7V21c0-2.1-1.7-3.8-3.8-3.8H21c-2.1,0-3.8,1.7-3.8,3.8v32.9
			c0,2.1,1.7,3.8,3.8,3.8h21.2v4.8H20.8c-4.5,0-8.3-3.7-8.3-8.3V20.9C12.5,16.3,16.2,12.6,20.8,12.6L20.8,12.6z M63.5,74.9l-1-0.9
			l-4.9-4.4C57,69,56.9,68,57.5,67.4l0.9-1c0.6-0.6,1.5-0.7,2.2-0.1l3.7,3.4l9.1-10.1c0.6-0.6,1.5-0.7,2.2-0.1l1,0.9
			c0.6,0.6,0.7,1.5,0.1,2.2L66.6,73.7l-0.9,1l0,0l0,0l0,0c0,0,0,0,0,0l0,0l0,0l0,0l0,0c-0.5,0.5-1.4,0.5-1.9,0.1L63.5,74.9
			L63.5,74.9C63.6,74.9,63.6,74.9,63.5,74.9L63.5,74.9C63.5,74.9,63.5,74.9,63.5,74.9L63.5,74.9C63.5,74.9,63.5,74.9,63.5,74.9
			L63.5,74.9L63.5,74.9z M24.1,24.6h26.4v5H24.1V24.6z M24.1,45.4h21.5v5H24.1V45.4z M24.1,35h26.4v5H24.1V35z M67.1,24.6
			c5.2,0,9.4,4.2,9.4,9.4c0,5.2-4.2,9.4-9.4,9.4c-5.2,0-9.4-4.2-9.4-9.4C57.7,28.8,61.9,24.6,67.1,24.6z M67.1,29.3
			c2.6,0,4.7,2.1,4.7,4.7c0,2.6-2.1,4.7-4.7,4.7c-2.6,0-4.7-2.1-4.7-4.7C62.4,31.4,64.5,29.3,67.1,29.3z M67.1,46.9
			c11.2,0,20.3,9.1,20.3,20.3s-9.1,20.3-20.3,20.3s-20.3-9.1-20.3-20.3S55.9,46.9,67.1,46.9L67.1,46.9z M67.1,51.5
			c8.6,0,15.6,7,15.6,15.6c0,8.6-7,15.6-15.6,15.6c-8.6,0-15.6-7-15.6-15.6C51.5,58.5,58.5,51.5,67.1,51.5z"/>
	</g>
</g>
<g id="Layer_7" class="st0">
	<g class="st4">
		<g>
			<linearGradient id="SVGID_12_" gradientUnits="userSpaceOnUse" x1="12.7067" y1="37.3165" x2="66.9014" y2="37.3165">
				<stop  offset="0" style="stop-color:#63AF45"/>
				<stop  offset="0.1065" style="stop-color:#62AF4B"/>
				<stop  offset="0.2972" style="stop-color:#5BB060"/>
				<stop  offset="0.5501" style="stop-color:#4DB183"/>
				<stop  offset="0.8523" style="stop-color:#33B3AE"/>
				<stop  offset="1" style="stop-color:#13B4C5"/>
			</linearGradient>
			<path class="st13" d="M40.6,45.6c5.2-6.6,13.2-10.8,22.3-10.8c1.3,0,2.7,0.1,4,0.3v-6c-4.1,3.7-14.7,6.3-27.1,6.3
				c-12.4,0-22.9-2.6-27.1-6.2v7.8C14.8,45.3,40.4,45.6,40.6,45.6z"/>
			<linearGradient id="SVGID_13_" gradientUnits="userSpaceOnUse" x1="12.6761" y1="51.1865" x2="38.2884" y2="51.1865">
				<stop  offset="0" style="stop-color:#63AF45"/>
				<stop  offset="0.1065" style="stop-color:#62AF4B"/>
				<stop  offset="0.2972" style="stop-color:#5BB060"/>
				<stop  offset="0.5501" style="stop-color:#4DB183"/>
				<stop  offset="0.8523" style="stop-color:#33B3AE"/>
				<stop  offset="1" style="stop-color:#13B4C5"/>
			</linearGradient>
			<path class="st14" d="M12.7,42.9l0,7.9c1,4.4,10.2,7.9,22.2,8.7c0.5-3.7,1.7-7.2,3.4-10.3C26.5,48.9,16.6,46.4,12.7,42.9z"/>
			<linearGradient id="SVGID_14_" gradientUnits="userSpaceOnUse" x1="12.6607" y1="65.271" x2="36.6963" y2="65.271">
				<stop  offset="0" style="stop-color:#63AF45"/>
				<stop  offset="0.1065" style="stop-color:#62AF4B"/>
				<stop  offset="0.2972" style="stop-color:#5BB060"/>
				<stop  offset="0.5501" style="stop-color:#4DB183"/>
				<stop  offset="0.8523" style="stop-color:#33B3AE"/>
				<stop  offset="1" style="stop-color:#13B4C5"/>
			</linearGradient>
			<path class="st15" d="M12.7,56.9l0,7.5c0,0,0.1-0.1,0.1-0.1c0.3,4.8,10.6,8.8,23.9,9.4c-1.3-3.3-2.1-6.8-2.1-10.6v0
				C24.5,62.4,16.2,60.1,12.7,56.9z"/>
			<linearGradient id="SVGID_15_" gradientUnits="userSpaceOnUse" x1="12.6454" y1="79.1105" x2="47.9792" y2="79.1105">
				<stop  offset="0" style="stop-color:#63AF45"/>
				<stop  offset="0.1065" style="stop-color:#62AF4B"/>
				<stop  offset="0.2972" style="stop-color:#5BB060"/>
				<stop  offset="0.5501" style="stop-color:#4DB183"/>
				<stop  offset="0.8523" style="stop-color:#33B3AE"/>
				<stop  offset="1" style="stop-color:#13B4C5"/>
			</linearGradient>
			<path class="st16" d="M38.5,77.2c-12-0.2-22-2.8-25.8-6.5l0,7.1c0,5.3,12.1,9.6,27.1,9.6c2.9,0,5.6-0.2,8.2-0.4
				C44.1,84.6,40.8,81.2,38.5,77.2z"/>
			<linearGradient id="SVGID_16_" gradientUnits="userSpaceOnUse" x1="12.6148" y1="22.1295" x2="66.932" y2="22.1295">
				<stop  offset="0" style="stop-color:#63AF45"/>
				<stop  offset="0.1065" style="stop-color:#62AF4B"/>
				<stop  offset="0.2972" style="stop-color:#5BB060"/>
				<stop  offset="0.5501" style="stop-color:#4DB183"/>
				<stop  offset="0.8523" style="stop-color:#33B3AE"/>
				<stop  offset="1" style="stop-color:#13B4C5"/>
			</linearGradient>
			<ellipse class="st17" cx="39.8" cy="22.1" rx="27.2" ry="9.6"/>
		</g>
	</g>
	<g id="Layer_10" class="st4">
		<g>
			<g id="Shape_1_3_">
				<g>
					<linearGradient id="SVGID_17_" gradientUnits="userSpaceOnUse" x1="38.35" y1="63.0712" x2="87.35" y2="63.0712">
						<stop  offset="0" style="stop-color:#63AF45"/>
						<stop  offset="0.1065" style="stop-color:#62AF4B"/>
						<stop  offset="0.2972" style="stop-color:#5BB060"/>
						<stop  offset="0.5501" style="stop-color:#4DB183"/>
						<stop  offset="0.8523" style="stop-color:#33B3AE"/>
						<stop  offset="1" style="stop-color:#13B4C5"/>
					</linearGradient>
					<path class="st18" d="M87.3,60.7c-5.6-32.6-48.2-26.3-49,0c2.5,1.3,4,2.1,4,2.1s-1.3,0.8-4,2.5c4.9,32,46.8,27.3,49,0
						c-2.7-1.6-4.1-2.5-4.1-2.5S84.5,62.2,87.3,60.7z M66.4,72.1l-4-6.9l-4.1,6.9l-3.1-0.2l5.8-9.7l-5.2-8.4l3.1-0.3l3.7,6.2l3.7-6
						l2.9,0.1l-4.9,8.3l5.4,10L66.4,72.1z"/>
				</g>
			</g>
			<g id="Shape_1_2_">
				<g>
					<linearGradient id="SVGID_18_" gradientUnits="userSpaceOnUse" x1="40.3373" y1="63.0531" x2="85.3627" y2="63.0531">
						<stop  offset="0" style="stop-color:#63AF45"/>
						<stop  offset="0.1065" style="stop-color:#62AF4B"/>
						<stop  offset="0.2972" style="stop-color:#5BB060"/>
						<stop  offset="0.5501" style="stop-color:#4DB183"/>
						<stop  offset="0.8523" style="stop-color:#33B3AE"/>
						<stop  offset="1" style="stop-color:#13B4C5"/>
					</linearGradient>
					<path class="st19" d="M85.4,59.5c-7.6-29-42.6-21.1-45,0c4.9,2.7,6,3.4,6,3.4s-1.9,1.2-6,3.8c5.2,27.9,42.9,22.5,45,0
						c-3.8-2.4-6.1-3.8-6.1-3.8S84.4,59.9,85.4,59.5z M66.4,72.1l-4-6.9l-4.1,6.9l-3.1-0.2l5.8-9.7l-5.2-8.4l3.1-0.3l3.7,6.2l3.7-6
						l2.9,0.1l-4.9,8.3l5.3,9.9L66.4,72.1z"/>
				</g>
			</g>
		</g>
	</g>
</g>
<g id="Layer_8" class="st0">
	<g class="st4">
		<linearGradient id="SVGID_19_" gradientUnits="userSpaceOnUse" x1="8.1085" y1="41.9791" x2="73.8477" y2="41.9791">
			<stop  offset="0" style="stop-color:#63AF45"/>
			<stop  offset="0.1065" style="stop-color:#62AF4B"/>
			<stop  offset="0.2972" style="stop-color:#5BB060"/>
			<stop  offset="0.5501" style="stop-color:#4DB183"/>
			<stop  offset="0.8523" style="stop-color:#33B3AE"/>
			<stop  offset="1" style="stop-color:#13B4C5"/>
		</linearGradient>
		<path class="st20" d="M22.6,60.7c0.4-1.4,0.7-2.5,1-3.7c0.2-0.6,0.3-1.1,0.6-1.6c0.7-1.3,2.2-1.9,3.5-1.5c1.4,0.4,2.3,1.8,2.1,3.3
			c-0.1,0.9-0.4,1.7-0.6,2.6c-0.7,2.4-1.4,4.9-2.2,7.3c-0.3,1-0.9,2-1.5,2.8c-1.1,1.5-2.6,1.8-4.4,1.3c-1.4-0.4-2.9-0.5-4.4-0.7
			c-1.9-0.3-3.8-0.5-5.8-0.8c-1.8-0.3-3-1.6-2.8-3.3c0.2-1.6,1.5-2.6,3.3-2.5c1.6,0.1,3.2,0.4,4.7,0.7c0.3,0,0.6,0.1,1.1,0.1
			c-0.1-0.4-0.2-0.7-0.3-1c-2.1-5.2-2.5-10.6-2.4-16.1c0.1-4.2,0.6-8.4,2-12.4C19,28.1,23.8,22.9,30.2,19c5.7-3.5,11.8-5.8,18.4-6.3
			c7.7-0.6,15.1,1,21.5,5.6c1,0.7,2,1.6,2.8,2.6c0.5,0.6,0.9,1.5,0.9,2.2c0.1,2-1.9,3.2-3.7,2.3c-0.3-0.2-0.6-0.4-0.9-0.6
			c-4-3.7-8.9-5.4-14.2-6c-7.9-0.9-15,1.6-21.6,5.7C25.8,29,21.7,35.8,21.1,44.7c-0.4,5-0.4,10,1.1,14.9
			C22.3,59.9,22.4,60.2,22.6,60.7z"/>
		<linearGradient id="SVGID_20_" gradientUnits="userSpaceOnUse" x1="28.505" y1="57.2053" x2="91.8915" y2="57.2053">
			<stop  offset="0" style="stop-color:#63AF45"/>
			<stop  offset="0.1065" style="stop-color:#62AF4B"/>
			<stop  offset="0.2972" style="stop-color:#5BB060"/>
			<stop  offset="0.5501" style="stop-color:#4DB183"/>
			<stop  offset="0.8523" style="stop-color:#33B3AE"/>
			<stop  offset="1" style="stop-color:#13B4C5"/>
		</linearGradient>
		<path class="st21" d="M80,38.3c-0.2,1-0.4,1.9-0.5,2.9c-0.1,0.4-0.2,0.7-0.3,1.1c-0.5,1.2-1.5,2-2.7,1.9c-1.1-0.1-2.1-0.9-2.2-2.2
			c-0.1-1.8-0.1-3.6,0.1-5.3c0.1-1.8,0.4-3.6,0.7-5.4c0.4-2.9,2.1-4.5,5-4.2c3.2,0.3,6.4,0.9,9.6,1.6c1.6,0.3,2.5,1.9,2.2,3.5
			c-0.3,1.5-1.6,2.5-3.3,2.3c-1-0.1-2.1-0.3-3.2-0.5c0.2,0.5,0.3,0.9,0.5,1.4c1.9,4.6,3.2,9.5,3.2,14.5c-0.2,12.1-5,22-14.5,29.5
			c-5.7,4.6-12.2,7.4-19.6,8.1c-8.5,0.9-16.5-0.5-23.6-5.6c-0.7-0.5-1.4-1.2-2-1.9c-1.1-1.2-1.1-2.8-0.1-3.9c1-1.1,2.5-1.2,3.9-0.3
			c0.2,0.1,0.3,0.2,0.5,0.3c5.8,4.6,12.5,6.2,19.8,5.6c9.3-0.8,16.8-5,22.6-12.1c4.7-5.7,7.2-12.4,7-19.9
			C82.8,45.5,81.5,41.9,80,38.3z"/>
		<linearGradient id="SVGID_21_" gradientUnits="userSpaceOnUse" x1="32.8876" y1="48.0863" x2="51.2488" y2="48.0863">
			<stop  offset="0" style="stop-color:#63AF45"/>
			<stop  offset="0.1065" style="stop-color:#62AF4B"/>
			<stop  offset="0.2972" style="stop-color:#5BB060"/>
			<stop  offset="0.5501" style="stop-color:#4DB183"/>
			<stop  offset="0.8523" style="stop-color:#33B3AE"/>
			<stop  offset="1" style="stop-color:#13B4C5"/>
		</linearGradient>
		<path class="st22" d="M40.9,57.6c1.9,0,3.7,0,5.5,0c0.8,0,1.7,0,2.5,0.1c1.5,0.3,2.5,1.5,2.4,3c-0.1,1.4-1.2,2.7-2.7,2.7
			c-3.6,0.1-7.2,0-10.9,0c-0.4,0-0.9-0.1-1.3-0.2c-3-0.8-4.1-3.5-2.5-6.1c1.3-2,2.7-4,4.1-5.9c1.6-2.4,3.3-4.8,4.8-7.2
			c0.7-1.1,1.3-2.4,1.7-3.6c0.5-1.2-0.1-2-1.5-2c-1.1,0-2.2,0.3-2.9,1.2c-0.8,0.9-1.4,2-2.1,3c-0.3,0.6-0.5,1.3-0.8,1.8
			c-0.6,1-1.6,1.5-2.6,1.2c-1-0.2-1.7-1.1-1.8-2.2c-0.1-3.6,1.6-6.4,4.3-8.6c2.1-1.7,4.6-2.5,7.4-2c4.4,0.8,6.9,4.7,5.7,9
			c-0.6,1.9-1.5,3.8-2.6,5.6c-1.9,3.1-4,6.1-6,9.1C41.5,56.8,41.2,57.2,40.9,57.6z"/>
		<linearGradient id="SVGID_22_" gradientUnits="userSpaceOnUse" x1="48.9364" y1="46.873" x2="69.6308" y2="46.873">
			<stop  offset="0" style="stop-color:#63AF45"/>
			<stop  offset="0.1065" style="stop-color:#62AF4B"/>
			<stop  offset="0.2972" style="stop-color:#5BB060"/>
			<stop  offset="0.5501" style="stop-color:#4DB183"/>
			<stop  offset="0.8523" style="stop-color:#33B3AE"/>
			<stop  offset="1" style="stop-color:#13B4C5"/>
		</linearGradient>
		<path class="st23" d="M55.7,50.6c1.6-0.1,3.1-0.1,4.5-0.3c0.2,0,0.5-0.5,0.5-0.8c0.2-2.1,0.4-4.3,0.6-6.4c0.2-1.5,1.1-2.5,2.4-2.5
			c1.2-0.1,2.2,0.6,2.6,1.8c0.2,0.6,0.2,1.2,0.2,1.8c-0.1,1.9-0.2,3.8-0.3,5.7c0.2,0,0.4,0.1,0.5,0.1c1.6,0.1,2.8,1.1,2.9,2.6
			c0.1,1.5-0.9,2.8-2.5,3.1c-1.5,0.3-1.4,0.3-1.5,1.8c0,0.7-0.1,1.4-0.2,2.1c-0.2,1.6-1.4,2.7-2.9,2.6C61,62.2,60,61,60,59.3
			c0-1,0.1-2,0.2-3c-0.7,0-1.3,0-2,0c-1.7,0-3.5,0.1-5.2-0.1c-3.4-0.3-5-3.1-3.3-6.1c3.1-5.3,6.2-10.6,9.4-15.9
			c0.5-0.8,1.1-1.5,1.8-2.1c0.9-0.8,2.2-0.9,3.1-0.3c0.9,0.6,1.3,1.8,0.8,3c-0.3,0.7-0.6,1.4-1,2.1c-2.5,4.2-5,8.4-7.5,12.6
			C56,49.9,55.9,50.1,55.7,50.6z"/>
	</g>
</g>
<g id="Layer_11" class="st0">
	<g class="st4">
		<linearGradient id="SVGID_23_" gradientUnits="userSpaceOnUse" x1="14.3482" y1="51.76" x2="89.38" y2="51.76">
			<stop  offset="0" style="stop-color:#63AF45"/>
			<stop  offset="0.1065" style="stop-color:#62AF4B"/>
			<stop  offset="0.2972" style="stop-color:#5BB060"/>
			<stop  offset="0.5501" style="stop-color:#4DB183"/>
			<stop  offset="0.8523" style="stop-color:#33B3AE"/>
			<stop  offset="1" style="stop-color:#13B4C5"/>
		</linearGradient>
		<path class="st24" d="M51.9,11.8c-4,0-8,0.6-11.8,1.9c-0.2,0.1-0.4,0.2-0.6,0.3c-0.1,0-0.3,0.1-0.4,0.1c-3.5,1.3-6.7,3.1-9.6,5.3
			c-0.1,0.1-0.2,0.1-0.3,0.2c-9.3,7.1-14.7,17.9-14.7,29.6c0,4.6,0.8,9.1,2.4,13.3c0.5,1.3,1.8,2.2,3.1,2.2c0.4,0,0.8-0.1,1.2-0.2
			c1.7-0.6,2.6-2.6,2-4.3c-1.3-3.5-2-7.2-2-11c0-1.8,0.2-3.5,0.5-5.2c0.4-1.3,0.9-2.7,1.3-4c2.8-9.2,9.6-16.4,18.6-19.8
			c0.2-0.1,0.3-0.2,0.5-0.3c0.1,0,0.2,0,0.3-0.1c3.1-1,6.4-1.6,9.7-1.6c17,0,30.8,13.8,30.8,30.8c0,17-13.8,30.8-30.8,30.8
			c-4,0-7.8-0.8-11.4-2.2l4-0.5c1.8-0.2,3.1-1.9,2.9-3.8c-0.2-1.8-1.9-3.1-3.8-2.9l-12.8,1.7c-1.8,0.2-3.1,1.9-2.9,3.8
			c0,0.2,0.1,0.3,0.1,0.5c0,0.5,0.1,1,0.4,1.5l6.1,11.7c0.6,1.1,1.8,1.8,3,1.8c0.5,0,1.1-0.1,1.6-0.4c1.6-0.9,2.3-2.9,1.4-4.5
			l-1.1-2.1c4,1.4,8.2,2.1,12.5,2.1c20.7,0,37.5-16.8,37.5-37.5S72.6,11.8,51.9,11.8z"/>
		<linearGradient id="SVGID_24_" gradientUnits="userSpaceOnUse" x1="38.9297" y1="49.1933" x2="50.339" y2="49.1933">
			<stop  offset="0" style="stop-color:#63AF45"/>
			<stop  offset="0.1065" style="stop-color:#62AF4B"/>
			<stop  offset="0.2972" style="stop-color:#5BB060"/>
			<stop  offset="0.5501" style="stop-color:#4DB183"/>
			<stop  offset="0.8523" style="stop-color:#33B3AE"/>
			<stop  offset="1" style="stop-color:#13B4C5"/>
		</linearGradient>
		<path class="st25" d="M50.3,45.7c0-2.9-2.4-4.7-5.4-4.7c-2.2,0-3.9,0.5-5.2,1.2c-0.4,0.2-0.5,0.5-0.5,0.9c0,0.5,0.4,0.9,0.9,0.9
			c0.2,0,0.4-0.1,0.4-0.1c1.1-0.5,2.4-0.8,4-0.8c2.7,0,3.7,1.2,3.7,2.9c0,3.8-9.4,5.5-9.4,10.4c0,0.7,0.5,1.2,1.2,1.2h9
			c0.6,0,1-0.4,1-1c0-0.6-0.4-1-1-1h-8.1C42.3,52.7,50.3,50.5,50.3,45.7z"/>
		<linearGradient id="SVGID_25_" gradientUnits="userSpaceOnUse" x1="52.6734" y1="49.3085" x2="66.0229" y2="49.3085">
			<stop  offset="0" style="stop-color:#63AF45"/>
			<stop  offset="0.1065" style="stop-color:#62AF4B"/>
			<stop  offset="0.2972" style="stop-color:#5BB060"/>
			<stop  offset="0.5501" style="stop-color:#4DB183"/>
			<stop  offset="0.8523" style="stop-color:#33B3AE"/>
			<stop  offset="1" style="stop-color:#13B4C5"/>
		</linearGradient>
		<path class="st26" d="M62.2,57.6c0.6,0,1.1-0.5,1.1-1.1v-3.2h1.8c0.5,0,1-0.4,1-0.9c0-0.5-0.4-1-1-1h-1.8v-9.1
			c0-0.7-0.5-1.4-1.4-1.4h-0.5c-0.5,0-0.9,0.2-1.2,0.6L53,51c-0.2,0.2-0.3,0.5-0.3,0.8V52c0,0.7,0.6,1.3,1.4,1.3h7.1v3.2
			C61.2,57.1,61.6,57.6,62.2,57.6z M54.9,51.5l6.2-8v8H54.9z"/>
		<linearGradient id="SVGID_26_" gradientUnits="userSpaceOnUse" x1="35.2482" y1="38.608" x2="75.0182" y2="38.608">
			<stop  offset="0" style="stop-color:#63AF45"/>
			<stop  offset="0.1065" style="stop-color:#62AF4B"/>
			<stop  offset="0.2972" style="stop-color:#5BB060"/>
			<stop  offset="0.5501" style="stop-color:#4DB183"/>
			<stop  offset="0.8523" style="stop-color:#33B3AE"/>
			<stop  offset="1" style="stop-color:#13B4C5"/>
		</linearGradient>
		<path class="st27" d="M38,34.3c3.7-3.2,8.4-5,13.4-5c11.2,0,20.3,9.1,20.3,20.3c0,0.9,0.7,1.7,1.7,1.7c0.9,0,1.7-0.7,1.7-1.7
			c0-13-10.6-23.7-23.7-23.7c-5.7,0-11.2,2.1-15.5,5.8c-0.7,0.6-0.8,1.7-0.2,2.4C36.3,34.8,37.3,34.9,38,34.3z"/>
	</g>
</g>
<g id="Layer_9" class="st0">
	<linearGradient id="SVGID_27_" gradientUnits="userSpaceOnUse" x1="12.5" y1="50" x2="87.5" y2="50">
		<stop  offset="0" style="stop-color:#63AF45"/>
		<stop  offset="0.1065" style="stop-color:#62AF4B"/>
		<stop  offset="0.2972" style="stop-color:#5BB060"/>
		<stop  offset="0.5501" style="stop-color:#4DB183"/>
		<stop  offset="0.8523" style="stop-color:#33B3AE"/>
		<stop  offset="1" style="stop-color:#13B4C5"/>
	</linearGradient>
	<path class="st28" d="M61.2,68.8c-2.1,0-3.8,1.7-3.8,3.8s1.7,3.8,3.8,3.8s3.8-1.7,3.8-3.8S63.3,68.8,61.2,68.8z M38.8,68.8H27.5
		c-2.1,0-3.8,1.7-3.8,3.8s1.7,3.8,3.8,3.8h11.2c2.1,0,3.8-1.7,3.8-3.8S40.8,68.8,38.8,68.8z M72.5,68.8c-2.1,0-3.8,1.7-3.8,3.8
		s1.7,3.8,3.8,3.8s3.8-1.7,3.8-3.8S74.6,68.8,72.5,68.8z M61.2,46.2c-2.1,0-3.8,1.7-3.8,3.8s1.7,3.8,3.8,3.8S65,52.1,65,50
		S63.3,46.2,61.2,46.2z M38.8,46.2H27.5c-2.1,0-3.8,1.7-3.8,3.8s1.7,3.8,3.8,3.8h11.2c2.1,0,3.8-1.7,3.8-3.8S40.8,46.2,38.8,46.2z
		 M72.5,23.8c-2.1,0-3.8,1.7-3.8,3.8s1.7,3.8,3.8,3.8s3.8-1.7,3.8-3.8S74.6,23.8,72.5,23.8z M72.5,46.2c-2.1,0-3.8,1.7-3.8,3.8
		s1.7,3.8,3.8,3.8s3.8-1.7,3.8-3.8S74.6,46.2,72.5,46.2z M87.5,23.8c0-6.2-5-11.2-11.2-11.2H23.8c-6.2,0-11.2,5-11.2,11.2v7.5
		c0,2.8,1.1,5.4,2.9,7.5c-1.9,2.1-2.9,4.7-2.9,7.5v7.5c0,2.8,1.1,5.4,2.9,7.5c-1.9,2.1-2.9,4.7-2.9,7.5v7.5c0,6.2,5,11.2,11.2,11.2
		h52.5c6.2,0,11.2-5,11.2-11.2v-7.5c0-2.8-1.1-5.4-2.9-7.5c1.9-2.1,2.9-4.7,2.9-7.5v-7.5c0-2.8-1.1-5.4-2.9-7.5
		c1.9-2.1,2.9-4.7,2.9-7.5V23.8z M80,76.2c0,2.1-1.7,3.8-3.8,3.8H23.8c-2.1,0-3.8-1.7-3.8-3.8v-7.5c0-2.1,1.7-3.8,3.8-3.8h52.5
		c2.1,0,3.8,1.7,3.8,3.8V76.2z M80,53.8c0,2.1-1.7,3.8-3.8,3.8H23.8c-2.1,0-3.8-1.7-3.8-3.8v-7.5c0-2.1,1.7-3.8,3.8-3.8h52.5
		c2.1,0,3.8,1.7,3.8,3.8V53.8z M80,31.2c0,2.1-1.7,3.8-3.8,3.8H23.8c-2.1,0-3.8-1.7-3.8-3.8v-7.5c0-2.1,1.7-3.8,3.8-3.8h52.5
		c2.1,0,3.8,1.7,3.8,3.8V31.2z M61.2,23.8c-2.1,0-3.8,1.7-3.8,3.8s1.7,3.8,3.8,3.8s3.8-1.7,3.8-3.8S63.3,23.8,61.2,23.8z M38.8,23.8
		H27.5c-2.1,0-3.8,1.7-3.8,3.8s1.7,3.8,3.8,3.8h11.2c2.1,0,3.8-1.7,3.8-3.8S40.8,23.8,38.8,23.8z"/>
</g>
</svg>
