<?xml version="1.0" encoding="utf-8"?>
<!-- Generator: Adobe Illustrator 25.0.1, SVG Export Plug-In . SVG Version: 6.00 Build 0)  -->
<svg version="1.1" id="Layer_1" xmlns="http://www.w3.org/2000/svg" xmlns:xlink="http://www.w3.org/1999/xlink" x="0px" y="0px"
	 viewBox="0 0 360.8 62.2" style="enable-background:new 0 0 360.8 62.2;" xml:space="preserve">
<style type="text/css">
	.st0{fill-rule:evenodd;clip-rule:evenodd;fill:url(#SVGID_1_);}
	.st1{fill:#EFEDED;}
</style>
<g id="Layer_x0020_1">
	
		<linearGradient id="SVGID_1_" gradientUnits="userSpaceOnUse" x1="85.7307" y1="71.5332" x2="105.0715" y2="55.2868" gradientTransform="matrix(2.8236 0 0 -2.8236 -237.0676 213.5349)">
		<stop  offset="0" style="stop-color:#F6A63E"/>
		<stop  offset="0.8588" style="stop-color:#C01E2E"/>
		<stop  offset="1" style="stop-color:#C01E2E"/>
	</linearGradient>
	<path class="st0" d="M0,18.9v22.5c0,2.7,1.5,5.3,3.8,6.7l19.5,11.2c1.2,0.7,2.5,1,3.8,1c1.3,0,2.7-0.4,3.8-1l15.8-9.1v6.2
		c0,0.8,0.5,1.6,1.2,2l6,3.5c0.4,0.2,0.8,0.3,1.2,0.3c0.4,0,0.8-0.1,1.2-0.3l6-3.5c0.7-0.4,1.2-1.2,1.2-2l0,0v-6.9
		c0-0.8-0.5-1.6-1.2-2l-6-3.4c-0.4-0.2-0.8-0.3-1.2-0.3c-0.4,0-0.8,0.1-1.2,0.3l-0.1,0c0.3-0.8,0.5-1.7,0.5-2.6l0,0V18.9
		c0-2.7-1.5-5.3-3.8-6.7L31,1c-1.2-0.7-2.5-1-3.8-1c-1.3,0-2.7,0.4-3.8,1L3.8,12.3C1.5,13.6,0,16.2,0,18.9L0,18.9
		C0,18.9,0,18.9,0,18.9z M60.6,34.3v4c0,0.5,0.3,1,0.7,1.2l3.5,2c0.2,0.1,0.5,0.2,0.7,0.2c0.2,0,0.5-0.1,0.7-0.2l3.5-2
		c0.4-0.2,0.7-0.7,0.7-1.2l0,0v-4c0-0.5-0.3-1-0.7-1.2l-3.5-2c-0.2-0.1-0.5-0.2-0.7-0.2c-0.2,0-0.5,0.1-0.7,0.2l-3.5,2
		C60.8,33.3,60.6,33.8,60.6,34.3L60.6,34.3L60.6,34.3z M6.1,37V20l11.7-7.1l11.9,6.8h18.5v6.9H30.3v21l-7.1-4.2V23.5l-5-2.8l-5,2.9
		v9L6.1,37L6.1,37z M34.6,30.8h13.5v6.9H34.6V30.8z"/>
	<path class="st1" d="M116.1,16.5v29.1h-2.3c-0.4,0-0.6-0.1-0.9-0.2c-0.2-0.1-0.5-0.3-0.7-0.6L95,23.6c0,0.4,0.1,0.7,0.1,1.1
		c0,0.4,0,0.7,0,1v19.9h-4V16.5h2.3c0.4,0,0.7,0,0.9,0.1c0.2,0.1,0.4,0.3,0.7,0.6l17.3,21.3c0-0.4-0.1-0.8-0.1-1.1c0-0.4,0-0.7,0-1
		V16.5L116.1,16.5L116.1,16.5z"/>
	<path id="_x31_" class="st1" d="M152.2,31.1c0,2.2-0.4,4.2-1.1,6c-0.7,1.8-1.8,3.4-3.1,4.7c-1.3,1.3-2.9,2.3-4.8,3.1
		c-1.9,0.7-3.9,1.1-6.2,1.1c-2.3,0-4.3-0.4-6.2-1.1c-1.9-0.7-3.5-1.8-4.8-3.1c-1.3-1.3-2.4-2.9-3.1-4.7c-0.7-1.8-1.1-3.8-1.1-6
		c0-2.2,0.4-4.2,1.1-6c0.7-1.8,1.8-3.4,3.1-4.7c1.3-1.3,2.9-2.3,4.8-3.1c1.9-0.7,3.9-1.1,6.2-1.1c2.3,0,4.3,0.4,6.2,1.1
		c1.9,0.7,3.5,1.8,4.8,3.1c1.3,1.3,2.4,2.9,3.1,4.7C151.8,26.9,152.2,28.9,152.2,31.1z M147.5,31.1c0-1.7-0.2-3.3-0.7-4.7
		c-0.5-1.4-1.2-2.5-2.1-3.5c-0.9-1-2-1.7-3.3-2.2c-1.3-0.5-2.8-0.8-4.4-0.8c-1.6,0-3.1,0.3-4.4,0.8c-1.3,0.5-2.4,1.2-3.3,2.2
		c-0.9,1-1.6,2.1-2.1,3.5c-0.5,1.4-0.7,2.9-0.7,4.7c0,1.7,0.2,3.3,0.7,4.7c0.5,1.4,1.2,2.5,2.1,3.5c0.9,1,2,1.7,3.3,2.2
		c1.3,0.5,2.7,0.8,4.4,0.8c1.6,0,3.1-0.3,4.4-0.8c1.3-0.5,2.4-1.2,3.3-2.2c0.9-1,1.6-2.1,2.1-3.5C147.3,34.4,147.5,32.8,147.5,31.1z
		"/>
	<path id="_x31_2" class="st1" d="M184.6,31.1c0,2.2-0.4,4.2-1.1,5.9c-0.7,1.8-1.8,3.3-3.1,4.6c-1.3,1.3-2.9,2.3-4.8,3
		c-1.9,0.7-3.9,1.1-6.2,1.1h-11.5V16.5h11.5c2.3,0,4.3,0.4,6.2,1.1c1.9,0.7,3.5,1.7,4.8,3c1.3,1.3,2.4,2.8,3.1,4.6
		C184.2,26.9,184.6,28.9,184.6,31.1L184.6,31.1z M179.9,31.1c0-1.7-0.2-3.3-0.7-4.7c-0.5-1.4-1.2-2.5-2.1-3.5c-0.9-1-2-1.7-3.3-2.2
		c-1.3-0.5-2.8-0.7-4.4-0.7h-6.9v22.1h6.9c1.6,0,3.1-0.3,4.4-0.7c1.3-0.5,2.4-1.2,3.3-2.2c0.9-1,1.6-2.1,2.1-3.5
		C179.7,34.4,179.9,32.8,179.9,31.1L179.9,31.1z"/>
	<polygon id="_x31_23" class="st1" points="209.2,42.1 209.2,45.6 190.3,45.6 190.3,16.5 209.2,16.5 209.2,20 194.8,20 194.8,29.3 
		206.4,29.3 206.4,32.6 194.8,32.6 194.8,42.1 	"/>
	<polygon id="_x31_234" class="st1" points="230.1,20 230.1,29.8 242.4,29.8 242.4,33.3 230.1,33.3 230.1,45.6 225.6,45.6 
		225.6,16.5 244.5,16.5 244.5,20 	"/>
	<path id="_x31_2345" class="st1" d="M278.2,31.1c0,2.2-0.4,4.2-1.1,6c-0.7,1.8-1.8,3.4-3.1,4.7c-1.3,1.3-2.9,2.3-4.8,3.1
		c-1.9,0.7-3.9,1.1-6.2,1.1c-2.3,0-4.3-0.4-6.2-1.1c-1.9-0.7-3.5-1.8-4.8-3.1c-1.3-1.3-2.4-2.9-3.1-4.7c-0.7-1.8-1.1-3.8-1.1-6
		c0-2.2,0.4-4.2,1.1-6c0.7-1.8,1.8-3.4,3.1-4.7c1.3-1.3,2.9-2.3,4.8-3.1c1.9-0.7,3.9-1.1,6.2-1.1c2.3,0,4.3,0.4,6.2,1.1
		c1.9,0.7,3.5,1.8,4.8,3.1c1.3,1.3,2.4,2.9,3.1,4.7C277.8,26.9,278.2,28.9,278.2,31.1z M273.5,31.1c0-1.7-0.2-3.3-0.7-4.7
		c-0.5-1.4-1.2-2.5-2.1-3.5c-0.9-1-2-1.7-3.3-2.2c-1.3-0.5-2.8-0.8-4.4-0.8c-1.6,0-3.1,0.3-4.4,0.8c-1.3,0.5-2.4,1.2-3.3,2.2
		c-0.9,1-1.6,2.1-2.1,3.5c-0.5,1.4-0.7,2.9-0.7,4.7c0,1.7,0.2,3.3,0.7,4.7c0.5,1.4,1.2,2.5,2.1,3.5c0.9,1,2,1.7,3.3,2.2
		c1.3,0.5,2.7,0.8,4.4,0.8c1.6,0,3.1-0.3,4.4-0.8c1.3-0.5,2.4-1.2,3.3-2.2s1.6-2.1,2.1-3.5C273.3,34.4,273.5,32.8,273.5,31.1z"/>
	<path id="_x31_23456" class="st1" d="M292.5,30.6c1.2,0,2.2-0.1,3.1-0.4c0.9-0.3,1.6-0.7,2.2-1.1c0.6-0.5,1-1.1,1.3-1.8
		c0.3-0.7,0.4-1.4,0.4-2.3c0-1.7-0.6-2.9-1.7-3.8c-1.2-0.9-2.9-1.3-5.2-1.3h-4.3v10.6L292.5,30.6L292.5,30.6z M306.8,45.6h-4
		c-0.8,0-1.4-0.3-1.8-0.9l-7.6-10.1c-0.2-0.3-0.5-0.6-0.8-0.7c-0.3-0.1-0.7-0.2-1.3-0.2h-3v11.9h-4.5V16.5h8.8c2,0,3.7,0.2,5.1,0.6
		c1.4,0.4,2.6,0.9,3.5,1.6c0.9,0.7,1.6,1.6,2.1,2.6c0.4,1,0.7,2.1,0.7,3.4c0,1-0.2,2-0.5,2.9c-0.3,0.9-0.8,1.7-1.4,2.4
		c-0.6,0.7-1.4,1.3-2.3,1.8c-0.9,0.5-1.9,0.9-3.1,1.2c0.6,0.3,1.1,0.8,1.5,1.4L306.8,45.6L306.8,45.6z"/>
	<path id="_x31_234567" class="st1" d="M335.7,31.5v11.3c-1.5,1.1-3.2,1.8-4.9,2.4c-1.7,0.5-3.6,0.8-5.7,0.8c-2.5,0-4.7-0.4-6.7-1.1
		c-2-0.7-3.7-1.7-5.1-3.1c-1.4-1.3-2.5-2.9-3.2-4.7c-0.8-1.8-1.1-3.8-1.1-6c0-2.2,0.4-4.2,1.1-6c0.7-1.8,1.8-3.4,3.1-4.7
		c1.4-1.3,3-2.3,5-3c1.9-0.7,4.1-1.1,6.5-1.1c1.2,0,2.4,0.1,3.4,0.3c1,0.2,2,0.4,2.9,0.7c0.9,0.3,1.7,0.7,2.5,1.2
		c0.8,0.5,1.5,1,2.1,1.5l-1.3,1.9c-0.2,0.3-0.5,0.5-0.8,0.6c-0.3,0.1-0.7,0-1.1-0.2c-0.4-0.2-0.8-0.4-1.2-0.7
		c-0.4-0.3-1-0.5-1.6-0.7c-0.6-0.2-1.3-0.4-2.2-0.6c-0.8-0.2-1.8-0.2-2.9-0.2c-1.7,0-3.2,0.3-4.5,0.8c-1.3,0.5-2.5,1.3-3.5,2.2
		c-1,1-1.7,2.1-2.2,3.5c-0.5,1.4-0.8,2.9-0.8,4.6c0,1.8,0.3,3.4,0.8,4.8c0.5,1.4,1.3,2.6,2.3,3.6c1,1,2.2,1.7,3.6,2.2
		c1.4,0.5,3,0.8,4.7,0.8c0.7,0,1.3,0,1.9-0.1c0.6-0.1,1.2-0.2,1.7-0.3c0.5-0.1,1.1-0.3,1.6-0.5s1-0.4,1.5-0.7v-6.1H327
		c-0.3,0-0.5-0.1-0.7-0.2c-0.2-0.2-0.3-0.4-0.3-0.6v-2.5L335.7,31.5L335.7,31.5z"/>
	<polygon id="_x31_2345678" class="st1" points="360.8,42.1 360.7,45.6 341.8,45.6 341.8,16.5 360.7,16.5 360.7,20 346.3,20 
		346.3,29.3 357.9,29.3 357.9,32.6 346.3,32.6 346.3,42.1 	"/>
</g>
</svg>
