<svg width="20" height="20" viewBox="0 0 20 20" fill="none" xmlns="http://www.w3.org/2000/svg">
    <path d="M15.7725 8.1943C15.2293 8.1943 14.7831 8.6405 14.7831 9.18369V13.3062C14.7831 13.8493 15.2293 14.2955 15.7725 14.2955C16.3157 14.2955 16.7619 13.8493 16.7619 13.3062V9.18369C16.7619 8.63565 16.3157 8.1943 15.7725 8.1943ZM4.22962 8.1943C3.68643 8.1943 3.24023 8.6405 3.24023 9.18369V13.3062C3.24023 13.8493 3.68643 14.2955 4.22962 14.2955C4.77282 14.2955 5.21902 13.8493 5.21902 13.3062V9.18369C5.21902 8.63565 4.77282 8.1943 4.22962 8.1943ZM14.4145 8.36405V14.7611C14.4145 15.3528 13.9392 15.8281 13.3475 15.8281H12.6394V18.0106C12.6394 18.5538 12.1932 19 11.6501 19C11.1069 19 10.6607 18.5538 10.6607 18.0106V15.8281H9.34148V18.0106C9.34148 18.5538 8.89528 19 8.35208 19C7.80889 19 7.36269 18.5538 7.36269 18.0106V15.8281H6.6546C6.06291 15.8281 5.58761 15.3528 5.58761 14.7611V8.36405H14.4145ZM12.1641 4.46954L12.8625 3.20855C12.9013 3.14065 12.8771 3.05335 12.8092 3.0194C12.7898 3.0097 12.7655 3 12.7413 3C12.6928 3 12.6443 3.02425 12.62 3.07275L11.912 4.34344C11.3348 4.08639 10.6849 3.94089 10.0011 3.94089C9.31723 3.94089 8.66733 4.08639 8.09019 4.34344L7.38694 3.07275C7.34814 3.00485 7.2657 2.9806 7.1978 3.0194C7.1299 3.0582 7.10565 3.14065 7.14445 3.20855L7.84284 4.46954C6.4994 5.16793 5.59731 6.49197 5.59246 8.01485H14.4194C14.4145 6.49197 13.5076 5.16793 12.1641 4.46954ZM7.96409 6.39982C7.76039 6.39982 7.59549 6.23492 7.59549 6.03122C7.59549 5.82752 7.76039 5.66263 7.96409 5.66263C8.16779 5.66263 8.33268 5.82752 8.33268 6.03122C8.33268 6.23492 8.16779 6.39982 7.96409 6.39982ZM12.038 6.39982C11.8344 6.39982 11.6695 6.23492 11.6695 6.03122C11.6695 5.82752 11.8344 5.66263 12.038 5.66263C12.2417 5.66263 12.4066 5.82752 12.4066 6.03122C12.4066 6.23492 12.2417 6.39982 12.038 6.39982Z"
          fill="currentColor"/>
</svg>
