<?xml version="1.0" encoding="utf-8"?>
<!-- Generator: Adobe Illustrator 25.0.1, SVG Export Plug-In . SVG Version: 6.00 Build 0)  -->
<svg version="1.1" id="Layer_2" xmlns="http://www.w3.org/2000/svg" xmlns:xlink="http://www.w3.org/1999/xlink" x="0px" y="0px"
	 viewBox="0 0 20 20" style="enable-background:new 0 0 20 20;" xml:space="preserve">
<g>
	<path d="M14.8,2.5H10H5.2c-0.4,0-0.7,0.3-0.7,0.7v8.4c0,1.5,0.7,3,1.4,3.7c0.6,0.6,1.2,1.6,1.5,2c0.1,0.1,0.2,0.1,0.3,0.1H10h2.4
		c0.1,0,0.2-0.1,0.3-0.1c0.2-0.4,0.9-1.4,1.5-2c0.7-0.8,1.4-2.2,1.4-3.7V3.2C15.5,2.8,15.2,2.5,14.8,2.5z M13.7,10c0,1.1-0.9,2-2,2
		H8.3c-1.1,0-2-0.9-2-2V6.5c0-1.1,0.9-2,2-2h3.4c1.1,0,2,0.9,2,2V10z"/>
	<g>
		<path d="M11,8h-0.1V7.2c0-0.5-0.4-0.9-0.9-0.9H9.9C9.4,6.3,9,6.7,9,7.2h0.3c0-0.3,0.3-0.6,0.6-0.6H10c0.3,0,0.6,0.3,0.6,0.6V8H9
			C8.9,8,8.8,8,8.8,8.1v0.7C8.8,9.5,9.3,10,10,10c0.7,0,1.2-0.5,1.2-1.2V8.1C11.2,8,11.1,8,11,8z M10,9.5c-0.1,0-0.3-0.1-0.3-0.3
			C9.7,9.1,9.8,9,9.9,9V8.5c0,0,0-0.1,0-0.1c0,0,0.1,0,0.1,0c0.1,0,0.1,0.1,0.1,0.1V9c0.1,0,0.1,0.1,0.1,0.2
			C10.3,9.3,10.1,9.5,10,9.5z"/>
	</g>
</g>
</svg>
