<svg width="20" height="20" viewBox="0 0 20 20" fill="none" xmlns="http://www.w3.org/2000/svg">
    <path d="M16.6676 14.8467C16.1984 14.6545 15.9977 14.3995 16.0171 14.019C16.0371 13.5749 15.7851 13.2496 15.6655 13.1211C15.7378 12.8449 15.949 11.8896 15.6657 11.0599C15.3612 10.1718 14.4316 8.81531 13.4725 7.48195C13.0798 6.93438 13.0612 6.33918 13.0398 5.64997C13.0192 4.9926 12.996 4.24746 12.6294 3.41913C12.2309 2.5172 11.4311 2 10.435 2C9.84249 2 9.23428 2.18518 8.76624 2.50802C7.8078 3.16948 7.93449 4.61164 8.01832 5.56593C8.02981 5.6966 8.04062 5.82004 8.04691 5.92543C8.10273 6.86005 8.05195 7.35264 7.98554 7.50236C7.94257 7.60019 7.73106 7.87865 7.50721 8.17347C7.27571 8.47836 7.01325 8.82397 6.79812 9.14601C6.54144 9.53353 6.33422 10.1259 6.13383 10.6987C5.9872 11.1178 5.84871 11.5137 5.71389 11.7503C5.45836 12.2054 5.52194 12.6298 5.57503 12.826C5.47829 12.8932 5.33854 13.0255 5.22056 13.2749C5.07798 13.5791 4.78866 13.7427 4.18706 13.8583C3.9106 13.9149 3.71996 14.0311 3.62029 14.2038C3.47524 14.4552 3.55424 14.771 3.62632 14.9868C3.73281 15.3041 3.66645 15.5049 3.5458 15.8695C3.51799 15.9536 3.48646 16.0489 3.45452 16.154C3.40421 16.3198 3.42236 16.4705 3.50834 16.6021C3.73554 16.9494 4.39852 17.0719 5.08102 17.1525C5.48852 17.2008 5.93453 17.3638 6.36591 17.5215C6.78857 17.676 7.22561 17.8357 7.62288 17.8842C7.68327 17.8918 7.74307 17.8956 7.80072 17.8956C8.40054 17.8956 8.67155 17.4976 8.75748 17.3341C8.97293 17.2901 9.71601 17.1493 10.4819 17.1304C11.2465 17.1086 11.9863 17.2596 12.1959 17.3065C12.2618 17.4327 12.4355 17.7207 12.7124 17.8691C12.8646 17.9523 13.0764 18 13.2933 18C13.2933 18 13.2933 18 13.2933 18C13.525 18 13.9657 17.9452 14.3145 17.5783C14.6624 17.2096 15.5317 16.7389 16.1664 16.3953C16.3081 16.3186 16.4406 16.2468 16.5568 16.182C16.9133 15.9844 17.1079 15.7019 17.0905 15.4071C17.0761 15.1623 16.914 14.9475 16.6676 14.8467ZM8.77405 14.7757C8.72967 14.463 8.32747 14.1529 7.86168 13.7939C7.48082 13.5003 7.04914 13.1675 6.93021 12.8857C6.68444 12.3044 6.87817 11.2822 7.21596 10.7558C7.38288 10.4922 7.51923 10.0925 7.65111 9.70602C7.79348 9.28865 7.94074 8.85712 8.10541 8.66821C8.36618 8.37329 8.60718 7.79944 8.64988 7.34718C8.89408 7.58031 9.27289 7.87613 9.62285 7.87613C9.67672 7.87613 9.72902 7.8691 9.77902 7.85499C10.0184 7.78585 10.3706 7.58236 10.7112 7.38564C11.0048 7.21598 11.3669 7.00677 11.5031 6.98773C11.7367 7.32316 13.0941 10.327 13.2328 11.2917C13.3425 12.055 13.2266 12.686 13.1683 12.9331C13.1214 12.9267 13.0655 12.9215 13.0067 12.9215C12.6287 12.9215 12.5286 13.1279 12.5025 13.2511C12.4355 13.5713 12.4284 14.595 12.4276 14.8251C12.2909 14.9987 11.5996 15.8167 10.607 15.9637C10.2027 16.0225 9.82513 16.0523 9.48488 16.0523C9.19404 16.0523 9.00844 16.0298 8.93138 16.0181L8.4326 15.4474C8.62927 15.3503 8.82588 15.1454 8.77405 14.7757ZM9.40698 5.36522C9.39139 5.37193 9.37608 5.37912 9.36102 5.38678C9.3595 5.35299 9.35598 5.31874 9.35058 5.28438C9.29613 4.97093 9.08828 4.74341 8.85647 4.74341C8.83931 4.74341 8.82205 4.74473 8.80312 4.74761C8.6652 4.77059 8.55703 4.8742 8.49775 5.02108C8.54974 4.69877 8.73235 4.46013 8.94901 4.46013C9.20343 4.46013 9.41836 4.80301 9.41836 5.20883C9.41836 5.25998 9.41463 5.31087 9.40698 5.36522ZM11.384 5.6069C11.4073 5.53272 11.4198 5.45246 11.4198 5.36915C11.4198 5.0012 11.1864 4.71294 10.8884 4.71294C10.5971 4.71294 10.3602 5.00729 10.3602 5.36915C10.3602 5.39381 10.3614 5.41851 10.3637 5.44317C10.3483 5.43724 10.3332 5.43147 10.3185 5.42591C10.285 5.3244 10.268 5.21849 10.268 5.11037C10.268 4.67039 10.5492 4.31241 10.8949 4.31241C11.2406 4.31241 11.5218 4.67039 11.5218 5.11037C11.5218 5.2934 11.4713 5.46809 11.384 5.6069ZM11.1291 6.46324C11.1241 6.48549 11.1135 6.49535 10.9963 6.55631C10.9371 6.5871 10.8635 6.62545 10.7713 6.68158L10.7097 6.71888C10.4622 6.86891 9.88268 7.22034 9.72535 7.24095C9.61849 7.25533 9.55239 7.21388 9.40377 7.1129C9.37025 7.09008 9.33458 7.06584 9.29655 7.04145C9.02864 6.86566 8.85631 6.67203 8.83685 6.59633C8.92419 6.52882 9.14069 6.35985 9.25154 6.25981C9.47654 6.0506 9.70295 5.91001 9.815 5.91001C9.82093 5.91001 9.82628 5.91043 9.83184 5.91147C9.96352 5.93471 10.2883 6.06434 10.5255 6.15898C10.6352 6.20273 10.7298 6.2405 10.7965 6.26442C11.0064 6.3365 11.1158 6.42872 11.1291 6.46324ZM13.0148 16.2401C13.1332 15.706 13.2696 14.9794 13.2475 14.5511C13.2424 14.4538 13.2338 14.3479 13.2255 14.2455C13.2099 14.054 13.1868 13.7694 13.2106 13.685C13.2154 13.6828 13.2206 13.6809 13.2264 13.6793C13.2274 13.9242 13.2806 14.4126 13.6712 14.583C13.7876 14.6337 13.9207 14.6594 14.0666 14.6594C14.4579 14.6594 14.8921 14.4675 15.0699 14.2897C15.1746 14.1849 15.2627 14.0568 15.3244 13.9554C15.3379 13.9949 15.3462 14.0465 15.3418 14.113C15.3186 14.4742 15.4941 14.9534 15.8282 15.1299L15.8768 15.1555C15.9958 15.2179 16.3118 15.3839 16.3169 15.4625C16.3168 15.4626 16.3142 15.4718 16.2966 15.4882C16.2174 15.5605 15.9388 15.7028 15.6694 15.8404C15.1914 16.0844 14.6497 16.3611 14.4064 16.617C14.0638 16.9775 13.6763 17.2196 13.4424 17.2196C13.4142 17.2196 13.3885 17.216 13.3657 17.2088C13.1116 17.1296 12.9024 16.763 13.0148 16.2401ZM4.3532 14.8776C4.32728 14.7563 4.30682 14.6605 4.3288 14.5678C4.34475 14.4991 4.68401 14.4254 4.8289 14.394C5.0326 14.3498 5.24328 14.3041 5.38103 14.2205C5.56732 14.1076 5.6682 13.8995 5.75717 13.7159C5.82159 13.5831 5.88811 13.4458 5.96727 13.4008C5.97173 13.3982 5.97855 13.3951 5.99156 13.3951C6.13986 13.3951 6.45105 13.7069 6.63035 13.9859C6.67584 14.0563 6.76009 14.1972 6.85756 14.3604C7.14907 14.8482 7.54823 15.5163 7.75671 15.7402C7.94457 15.9414 8.24867 16.3284 8.17387 16.6603C8.1191 16.9179 7.82753 17.1273 7.75875 17.1736C7.73378 17.1793 7.70289 17.1822 7.66653 17.1822C7.26753 17.1822 6.4777 16.8502 6.05335 16.6718L5.99056 16.6454C5.7536 16.5461 5.36677 16.4835 4.99268 16.423C4.69502 16.3748 4.28741 16.3088 4.21985 16.2492C4.16508 16.1878 4.22861 15.9881 4.28463 15.8119C4.32497 15.6852 4.36663 15.5543 4.38945 15.4172C4.42181 15.1986 4.38373 15.0206 4.3532 14.8776Z"
          fill="currentColor"/>
</svg>
