<svg width="20" height="20" viewBox="0 0 20 20" fill="none" xmlns="http://www.w3.org/2000/svg">
<mask id="mask0_1_4571" style="mask-type:alpha" maskUnits="userSpaceOnUse" x="1" y="1" width="18" height="18">
<path d="M10 1.625C7.68748 1.625 5.59287 2.56309 4.07798 4.07798C2.56309 5.59287 1.625 7.68748 1.625 10C1.625 12.3125 2.56309 14.4071 4.07798 15.922C5.59287 17.4369 7.68748 18.375 10 18.375C12.3125 18.375 14.4071 17.4369 15.922 15.922C17.4369 14.4071 18.375 12.3125 18.375 10C18.375 7.68748 17.4369 5.59287 15.922 4.07798C14.4071 2.56309 12.3125 1.625 10 1.625Z" fill="#232328"/>
</mask>
<g mask="url(#mask0_1_4571)">
<path fill-rule="evenodd" clip-rule="evenodd" d="M10.235 1.62824C10.1562 1.61188 10.0779 1.60385 10 1.60385C9.92214 1.60385 9.84376 1.61188 9.76496 1.62824C9.18422 1.64425 8.61819 1.71943 8.07272 1.84794C8.15471 1.74605 8.23887 1.65028 8.32515 1.56102C8.8075 1.06201 9.37415 0.75 10 0.75C10.6258 0.75 11.1925 1.06201 11.6749 1.56102C11.7611 1.65028 11.8453 1.74605 11.9273 1.84794C11.3818 1.71943 10.8158 1.64425 10.235 1.62824ZM16.8106 5.125H13.416C13.2706 4.57058 13.1008 4.05528 12.9096 3.58775C12.6309 2.90607 12.3017 2.31327 11.9273 1.84794C13.4662 2.2105 14.8416 2.99753 15.922 4.07798C16.2457 4.40169 16.5431 4.75188 16.8106 5.125ZM17.2902 5.875C17.1434 5.61608 16.9832 5.36576 16.8106 5.125H18.5V5.875H17.2902ZM18.3667 9.625H13.9969C13.9744 8.28434 13.8321 7.01327 13.5927 5.875H17.2902C17.9227 6.99058 18.3068 8.26586 18.3667 9.625ZM18.3667 10.375C18.3722 10.2507 18.375 10.1257 18.375 10C18.375 9.87434 18.3722 9.74932 18.3667 9.625H18.5V10.375H18.3667ZM17.2902 14.125H13.5927C13.8321 12.9867 13.9744 11.7157 13.9969 10.375H18.3667C18.3068 11.7341 17.9227 13.0094 17.2902 14.125ZM16.8106 14.875C16.9832 14.6342 17.1434 14.3839 17.2902 14.125H18.5V14.875H16.8106ZM11.9273 18.1521C12.3017 17.6867 12.6309 17.0939 12.9096 16.4122C13.1008 15.9447 13.2706 15.4294 13.416 14.875H16.8106C16.5431 15.2481 16.2457 15.5983 15.922 15.922C14.8416 17.0025 13.4662 17.7895 11.9273 18.1521ZM8.07272 18.1521C8.15471 18.2539 8.23887 18.3497 8.32515 18.439C8.8075 18.938 9.37415 19.25 10 19.25C10.6258 19.25 11.1925 18.938 11.6749 18.439C11.7611 18.3497 11.8453 18.2539 11.9273 18.1521C11.3818 18.2806 10.8158 18.3557 10.235 18.3718C10.531 18.3103 10.8327 18.1316 11.1334 17.8205C11.5162 17.4244 11.8788 16.8312 12.1918 16.0655C12.3406 15.7017 12.4764 15.3032 12.597 14.875H7.40298C7.52361 15.3032 7.65942 15.7017 7.80815 16.0655C8.12121 16.8312 8.48382 17.4244 8.86663 17.8205C9.16734 18.1316 9.46902 18.3103 9.76496 18.3718C9.18422 18.3557 8.61819 18.2806 8.07272 18.1521ZM3.18938 14.875H6.58397C6.72939 15.4294 6.89925 15.9447 7.09039 16.4122C7.3691 17.0939 7.69826 17.6867 8.07272 18.1521C6.53376 17.7895 5.15843 17.0025 4.07798 15.922C3.75427 15.5983 3.45689 15.2481 3.18938 14.875ZM2.70978 14.125C2.85659 14.3839 3.01677 14.6342 3.18938 14.875H1.5V14.125H2.70978ZM1.63325 10.375H6.00313C6.02558 11.7157 6.16791 12.9867 6.40726 14.125H2.70978C2.07728 13.0094 1.69319 11.7341 1.63325 10.375ZM1.63325 9.625C1.62777 9.74932 1.625 9.87434 1.625 10C1.625 10.1257 1.62777 10.2507 1.63325 10.375H1.5V9.625H1.63325ZM2.70978 5.875H6.40726C6.16791 7.01327 6.02558 8.28434 6.00313 9.625H1.63325C1.69319 8.26586 2.07728 6.99058 2.70978 5.875ZM2.70978 5.875H1.5V5.125H3.18938C3.01677 5.36576 2.85659 5.61608 2.70978 5.875ZM9.76496 18.3718C9.84375 18.3881 9.92214 18.3962 10 18.3962C10.0779 18.3962 10.1562 18.3881 10.235 18.3718C10.157 18.3739 10.0786 18.375 10 18.375C9.9214 18.375 9.84304 18.3739 9.76496 18.3718ZM3.18938 5.125C3.45689 4.75188 3.75427 4.40169 4.07798 4.07798C5.15843 2.99753 6.53376 2.2105 8.07272 1.84794C7.69826 2.31327 7.3691 2.90607 7.09039 3.58775C6.89925 4.05528 6.7294 4.57058 6.58397 5.125H3.18938ZM10.235 1.62824C10.531 1.68966 10.8327 1.86844 11.1334 2.17955C11.5162 2.57557 11.8788 3.16881 12.1918 3.93453C12.3406 4.29832 12.4764 4.69678 12.597 5.125H7.40298C7.52361 4.69678 7.65942 4.29832 7.80815 3.93453C8.12121 3.16881 8.48382 2.57557 8.86663 2.17955C9.16735 1.86844 9.46902 1.68966 9.76496 1.62824C9.84305 1.62608 9.9214 1.625 10 1.625C10.0786 1.625 10.157 1.62608 10.235 1.62824ZM6.78872 10.375C6.8125 11.7367 6.96506 13.01 7.21423 14.125H12.7858C13.0349 13.01 13.1875 11.7367 13.2113 10.375H6.78872ZM7.21423 5.875C6.96506 6.98995 6.8125 8.26332 6.78872 9.625H13.2113C13.1875 8.26332 13.0349 6.98995 12.7858 5.875H7.21423Z" fill="#04060B"/>
</g>
</svg>
