<?xml version="1.0" encoding="utf-8"?>
<!-- Generator: Adobe Illustrator 25.0.1, SVG Export Plug-In . SVG Version: 6.00 Build 0)  -->
<svg version="1.1" id="Layer_2" xmlns="http://www.w3.org/2000/svg" xmlns:xlink="http://www.w3.org/1999/xlink" x="0px" y="0px"
	 viewBox="0 0 360.8 62.2" style="enable-background:new 0 0 360.8 62.2;" xml:space="preserve">
<style type="text/css">
	.st0{fill:#333333;}
	.st1{fill:#6226E8;}
	.st2{fill:#FF5F00;}
</style>
<path class="st0" d="M123.5,57.1l0-38.3h22.2c14.2,0,19.8,2.9,19.8,10.1c0,3.8-1.6,6.3-5.6,8.6c4.7,2.3,6.6,5,6.6,9.3
	c0,7.4-5.6,10.4-19.6,10.4H123.5z M131.9,34h15.7c5.8,0,8.1-1.3,8.1-4.7c0-3.1-2.3-4.3-8.1-4.3h-15.7V34z M131.9,50.4h17.7
	c5.1,0,7.2-1.4,7.2-5c0-3.6-2.1-5-7.2-5h-17.7V50.4z"/>
<path class="st1" d="M101.9,20.3H91.4L91.3,20c-1.1-3.8-3-5.2-4.7-6.2C82,11.3,74.7,11,67.5,11c-1.4,0-2.8,0-4.2,0h-1.5L59,0.5
	l2.5,0c2,0,4,0,6.1,0c14.7,0,29.3,1.3,33.6,17.3L101.9,20.3z"/>
<path class="st1" d="M102,32l-0.6,2.6C98,49.2,86.8,51.6,75.2,52l-1.5,0l-2.8-10.5l2.5,0c2.1,0,3.7-0.1,5.3-0.2c3.6-0.3,6.2-1,8.1-2
	c2.4-1.3,3.9-3.3,4.7-6.5l0.2-0.7H102z"/>
<path class="st2" d="M64.5,21.5l-2.5,0c-5.7,0-11.4,0.4-15,2.3c-2.4,1.3-4,3.5-4.8,6.8H32c1.3-7.9,4.7-13.2,10.6-16.3
	c5.1-2.7,11.5-3.2,17.6-3.3l1.5,0L64.5,21.5z"/>
<path class="st2" d="M76.3,62.4l-2.5,0.1c-2.5,0.1-5.1,0.1-7.6,0.1c-9.8,0-17.7-0.7-23.8-4.2c-5.6-3.2-9.1-8.4-10.4-15.6L32,42.3
	h10.3c1.3,4.7,3.7,6.1,5,6.7c4.5,2.6,11.8,2.9,19,2.9c2,0,3.9,0,5.8,0l1.5,0L76.3,62.4z"/>
<path class="st0" d="M215.8,45.7l5.3,5.7c-5.4,4.2-13.1,6.7-21.2,6.7c-6.8,0-13.4-1.7-18.5-4.9c-4.6-2.8-7.5-8-7.6-13.6
	c0-1.5,0-3,0-4.5v0c0-5.7,2.9-11.1,7.5-13.9c5.2-3.2,11.8-5,18.7-5c8.3,0,16.1,2.5,21.4,6.9l-5.4,5.7c-4-2.9-9.8-4.6-16.1-4.6
	c-5.6,0-10.9,1.4-14.9,3.8c-2.4,1.4-3.8,4.2-3.8,7.1v0c0,1.4,0,2.8,0,4.2c0.1,2.8,1.5,5.5,3.9,6.9c4,2.5,9.3,3.8,14.8,3.8
	C206,50.2,211.8,48.6,215.8,45.7z"/>
<path class="st0" d="M226.5,56.8l1-1.9l18.7-34.3l1-1.8h8.1L275,54.7l1.1,2l0.1,0.3h-9.4l-0.1-0.2l-0.6-1.2l-3.4-6.9h-22.8l-3.2,6.5
	l-0.8,1.6l-0.2,0.3h-9.2L226.5,56.8z M259.2,42.5l-8.1-16.1l-8.1,16.1H259.2z"/>
<path class="st0" d="M283.8,45.7c5.8,3.6,12.6,5.5,20.1,5.4c9.7,0,15.6-1.7,15.6-5.4c0-2.8-3.7-3.8-13.1-4.2
	c-15.8-0.7-23.7-4.5-23.7-11.8c0-8,7-12.2,20.3-12.2c9.1,0,16.2,1.7,22.6,5l-2.4,7.5c-5.4-3.3-11.7-5.1-20.4-5
	c-8.6,0.1-12.1,1.3-12.1,4.4s4.3,4.2,13.9,4.5C320,34.4,328,37.9,328,45.6c0,8.5-8.6,12.9-25.2,12.9c-8.2,0-15.9-2.2-22-5.8
	L283.8,45.7z"/>
</svg>
