<?xml version="1.0" encoding="utf-8"?>
<!-- Generator: Adobe Illustrator 25.0.1, SVG Export Plug-In . SVG Version: 6.00 Build 0)  -->
<svg version="1.1" id="Layer_2" xmlns="http://www.w3.org/2000/svg" xmlns:xlink="http://www.w3.org/1999/xlink" x="0px" y="0px"
	 viewBox="0 0 360.8 62.2" style="enable-background:new 0 0 360.8 62.2;" xml:space="preserve">
<style type="text/css">
	.st0{clip-path:url(#SVGID_2_);}
	.st1{fill-rule:evenodd;clip-rule:evenodd;fill:#003366;}
	.st2{fill:#003366;}
</style>
<g>
	<defs>
		<rect id="SVGID_1_" x="95.9" y="0.5" width="168.2" height="62"/>
	</defs>
	<clipPath id="SVGID_2_">
		<use xlink:href="#SVGID_1_"  style="overflow:visible;"/>
	</clipPath>
	<g id="BIG-Logo-Blue" class="st0">
		<g id="Group_2">
			<path id="Path_1" class="st1" d="M95.9,18.1v29.4l13.6,7.8l5.6,3.2l6.3,3.6V49l-1.8-3.1l1.8-1v-12l-19.2-11.1L95.9,18.1
				L95.9,18.1z M131.1,51.4l10.7-6.2l0,0l2.2-1.2v-3.8l-9.6,5.5v-7.3l9.6-5.5l6.3-3.6v18.4l-13.6,7.8l-5.6,3.2l-6.3,3.6V32.9
				l19.2-11.1l6.3-3.6v7.3l-8.5,4.9l-10.7,6.2V51.4z M142.3,18.9l6.3-3.6L123.1,0.5l-6.3,3.6C125.3,9.1,133.8,14,142.3,18.9z
				 M103.9,11.6l-6.3,3.6l6.3,3.6l19.2,11.1l6.3-3.6C120.9,21.4,112.4,16.5,103.9,11.6z M123.1,11.6l-6.3,3.6l9.6,5.5l6.3-3.6
				l-6.3,3.6l6.3,3.6l6.3-3.6l-6.3-3.6L123.1,11.6z M113.5,6l-6.3,3.6l6.3,3.6l6.3-3.6L113.5,6L113.5,6z M102.2,32.9V29l12.9,7.4
				v3.8L102.2,32.9z M115.1,51.4l-12.9-7.4v-3.8l12.9,7.4V51.4z"/>
			<g id="Group_1" transform="translate(708 75.435)">
				<path id="Path_2" class="st2" d="M-549.1-57.6v-10.5h5.5c2,0,3,1.3,3,2.7c0,1.3-0.8,2.2-1.8,2.4c1.1,0.2,2,1.3,2,2.6
					c0,1.6-1.1,2.8-3.1,2.8L-549.1-57.6L-549.1-57.6z M-542.8-65c0-0.7-0.5-1.2-1.2-1.2h-2.8v2.3h2.8
					C-543.3-63.9-542.8-64.4-542.8-65L-542.8-65z M-542.6-60.7c0-0.7-0.5-1.2-1.4-1.2h-2.9v2.4h2.9C-543.1-59.5-542.6-60-542.6-60.7
					z"/>
				<path id="Path_3" class="st2" d="M-538.6-57.6v-10.5h2.2v8.5h4.4v2L-538.6-57.6L-538.6-57.6z"/>
				<path id="Path_4" class="st2" d="M-531.3-62.8c0-3.2,2.3-5.4,5.5-5.4c3.2,0,5.5,2.3,5.5,5.4c0,3.2-2.3,5.4-5.5,5.4
					S-531.3-59.7-531.3-62.8z M-522.6-62.8c0-2-1.3-3.5-3.2-3.5s-3.2,1.5-3.2,3.5c0,2,1.2,3.5,3.2,3.5S-522.6-60.9-522.6-62.8
					L-522.6-62.8z"/>
				<path id="Path_5" class="st2" d="M-519.3-62.8c0-3.2,2.4-5.4,5.6-5.4c2.3,0,3.7,1.3,4.4,2.6l-1.9,0.9c-0.4-0.9-1.4-1.5-2.5-1.5
					c-1.9,0-3.3,1.5-3.3,3.5c0,2,1.4,3.5,3.3,3.5c1,0,2-0.6,2.5-1.5l1.9,0.9c-0.8,1.3-2.1,2.6-4.4,2.6
					C-516.8-57.4-519.3-59.6-519.3-62.8L-519.3-62.8z"/>
				<path id="Path_6" class="st2" d="M-501.7-57.6l-3.2-4.2l-0.8,1v3.2h-2.2v-10.5h2.2v4.7l3.7-4.7h2.8l-4.2,4.9l4.5,5.6H-501.7
					L-501.7-57.6z"/>
				<path id="Path_7" class="st2" d="M-499.2-62.8c0-3.2,2.4-5.4,5.6-5.4c2.3,0,3.7,1.3,4.4,2.6l-1.9,0.9c-0.4-0.9-1.4-1.5-2.5-1.5
					c-1.9,0-3.3,1.5-3.3,3.5c0,2,1.4,3.5,3.3,3.5c1,0,2-0.6,2.5-1.5l1.9,0.9c-0.8,1.3-2.1,2.6-4.4,2.6
					C-496.7-57.4-499.2-59.6-499.2-62.8L-499.2-62.8z"/>
				<path id="Path_8" class="st2" d="M-480.7-57.6V-62h-5v4.4h-2.2v-10.5h2.2v4.1h5v-4.1h2.3v10.5H-480.7z"/>
				<path id="Path_9" class="st2" d="M-469.1-57.6l-0.6-1.8h-4.5l-0.7,1.8h-2.6l4.1-10.5h2.8l4,10.5H-469.1L-469.1-57.6z M-472-65.9
					l-1.6,4.5h3.3L-472-65.9L-472-65.9z"/>
				<path id="Path_10" class="st2" d="M-465.6-57.6v-10.5h2.2v10.5H-465.6z"/>
				<path id="Path_11" class="st2" d="M-454-57.6l-5-6.9v6.9h-2.2v-10.5h2.3l4.9,6.6v-6.6h2.2v10.5H-454z"/>
				<path id="Path_12" class="st2" d="M-549.1-38.7v-10.5h2.2v10.5H-549.1z"/>
				<path id="Path_13" class="st2" d="M-537.5-38.7l-5-6.9v6.9h-2.2v-10.5h2.3l4.9,6.6v-6.6h2.2v10.5H-537.5z"/>
				<path id="Path_14" class="st2" d="M-530.9-38.7v-8.5h-3.1v-2h8.4v2h-3.1v8.5L-530.9-38.7z"/>
				<path id="Path_15" class="st2" d="M-524.1-38.7v-10.5h7.4v2h-5.2v2.2h5.1v2h-5.1v2.4h5.2v2L-524.1-38.7L-524.1-38.7z"/>
				<path id="Path_16" class="st2" d="M-514.9-38.7v-10.5h2.2v8.5h4.4v2L-514.9-38.7L-514.9-38.7z"/>
				<path id="Path_17" class="st2" d="M-506.7-38.7v-10.5h2.2v8.5h4.4v2L-506.7-38.7L-506.7-38.7z"/>
				<path id="Path_18" class="st2" d="M-498.5-38.7v-10.5h2.2v10.5H-498.5z"/>
				<path id="Path_19" class="st2" d="M-494.6-43.9c0-3.3,2.5-5.4,5.6-5.4c2.2,0,3.6,1.1,4.3,2.3l-1.9,1c-0.5-0.8-1.5-1.4-2.5-1.4
					c-1.9,0-3.3,1.5-3.3,3.5c0,2,1.4,3.5,3.3,3.5c0.9,0,1.8-0.4,2.2-0.8v-1.3h-2.8v-2h5v4c-1.1,1.2-2.6,2-4.5,2
					C-492.1-38.5-494.6-40.6-494.6-43.9L-494.6-43.9z"/>
				<path id="Path_20" class="st2" d="M-482.8-38.7v-10.5h7.4v2h-5.2v2.2h5.1v2h-5.1v2.4h5.2v2L-482.8-38.7L-482.8-38.7z"/>
				<path id="Path_21" class="st2" d="M-466.4-38.7l-5-6.9v6.9h-2.2v-10.5h2.3l4.9,6.6v-6.6h2.2v10.5H-466.4z"/>
				<path id="Path_22" class="st2" d="M-462.6-43.9c0-3.2,2.4-5.4,5.6-5.4c2.3,0,3.7,1.3,4.4,2.6l-1.9,0.9c-0.4-0.9-1.4-1.5-2.5-1.5
					c-1.9,0-3.3,1.5-3.3,3.5c0,2,1.4,3.5,3.3,3.5c1,0,2-0.6,2.5-1.5l1.9,0.9c-0.8,1.3-2.1,2.6-4.4,2.6
					C-460.2-38.5-462.6-40.7-462.6-43.9L-462.6-43.9z"/>
				<path id="Path_23" class="st2" d="M-451.3-38.7v-10.5h7.4v2h-5.2v2.2h5.1v2h-5.1v2.4h5.2v2L-451.3-38.7L-451.3-38.7z"/>
				<path id="Path_24" class="st2" d="M-549.6-25c0-3.3,2.5-5.4,5.6-5.4c2.2,0,3.6,1.1,4.3,2.3l-1.9,1c-0.5-0.8-1.5-1.4-2.5-1.4
					c-1.9,0-3.3,1.5-3.3,3.5s1.4,3.5,3.3,3.5c0.9,0,1.8-0.4,2.2-0.8v-1.3h-2.8v-2h5v4c-1.1,1.2-2.6,2-4.5,2
					C-547.1-19.6-549.6-21.7-549.6-25L-549.6-25z"/>
				<path id="Path_25" class="st2" d="M-531.8-19.8l-2.1-3.7h-1.6v3.7h-2.2v-10.5h4.9c2.2,0,3.5,1.4,3.5,3.4s-1.2,2.9-2.3,3.1l2.4,4
					L-531.8-19.8z M-531.6-26.9c0-0.9-0.7-1.4-1.6-1.4h-2.3v2.8h2.3C-532.2-25.5-531.6-26-531.6-26.9L-531.6-26.9z"/>
				<path id="Path_26" class="st2" d="M-528.1-25c0-3.2,2.3-5.4,5.5-5.4c3.2,0,5.5,2.3,5.5,5.4s-2.3,5.4-5.5,5.4
					C-525.8-19.6-528.1-21.9-528.1-25z M-519.4-25c0-2-1.3-3.5-3.2-3.5c-1.9,0-3.2,1.5-3.2,3.5s1.2,3.5,3.2,3.5
					S-519.4-23.1-519.4-25L-519.4-25z"/>
				<path id="Path_27" class="st2" d="M-515.6-24v-6.3h2.3v6.2c0,1.5,0.9,2.5,2.5,2.5c1.6,0,2.5-1,2.5-2.5v-6.2h2.3v6.3
					c0,2.6-1.5,4.4-4.7,4.4C-514-19.6-515.6-21.4-515.6-24L-515.6-24z"/>
				<path id="Path_28" class="st2" d="M-504-19.8v-10.5h4.9c2.3,0,3.5,1.5,3.5,3.4s-1.3,3.4-3.5,3.4h-2.7v3.7L-504-19.8L-504-19.8z
					 M-497.9-26.9c0-0.9-0.7-1.4-1.5-1.4h-2.4v2.8h2.4C-498.5-25.5-497.9-26.1-497.9-26.9z"/>
			</g>
		</g>
	</g>
</g>
</svg>
