<?xml version="1.0" encoding="utf-8"?>
<!-- Generator: Adobe Illustrator 25.0.1, SVG Export Plug-In . SVG Version: 6.00 Build 0)  -->
<svg version="1.1" id="Layer_1" xmlns="http://www.w3.org/2000/svg" xmlns:xlink="http://www.w3.org/1999/xlink" x="0px" y="0px"
	 viewBox="0 0 117.4 117.4" style="enable-background:new 0 0 117.4 117.4;" xml:space="preserve">
<style type="text/css">
	.st0{fill-rule:evenodd;clip-rule:evenodd;fill:#FEFEFE;}
	.st1{fill-rule:evenodd;clip-rule:evenodd;fill:url(#_251087208_1_);}
	.st2{fill-rule:evenodd;clip-rule:evenodd;fill:url(#_251087448_1_);}
	.st3{fill-rule:evenodd;clip-rule:evenodd;fill:url(#_251087136_1_);}
	.st4{fill-rule:evenodd;clip-rule:evenodd;fill:url(#_251086656_1_);}
	.st5{fill-rule:evenodd;clip-rule:evenodd;fill:url(#_251086152_1_);}
	.st6{fill-rule:evenodd;clip-rule:evenodd;fill:url(#_251086488_1_);}
</style>
<g id="Layer_x0020_1">
	<g id="_251086056">
		<g>
			<path id="_251087568" class="st0" d="M116.7,62.1L59.9,95.5c0,0-1.2,0.7-2.8,0L0.4,62.2v16.2c0,0-0.4,4.2,4.1,7.9
				C8.9,90.1,55.1,116,55.1,116s3.5,1.6,6.6,0c3.1-1.6,51-29.8,51-29.8s3.8-2.6,4-7.7L116.7,62.1L116.7,62.1z"/>
			
				<linearGradient id="_251087208_1_" gradientUnits="userSpaceOnUse" x1="-186.3154" y1="219.0955" x2="-161.9404" y2="219.0955" gradientTransform="matrix(2.3861 0 0 -2.3861 503.1533 612.1981)">
				<stop  offset="0" style="stop-color:#0079E4"/>
				<stop  offset="0.3882" style="stop-color:#0079E4"/>
				<stop  offset="0.6706" style="stop-color:#00CCFF"/>
				<stop  offset="1" style="stop-color:#00CCFF"/>
			</linearGradient>
			<path id="_251087208" class="st1" d="M116.7,62.1L59.9,95.5c0,0-0.5,0.3-1.3,0.3v20.9c1,0,2.1-0.2,3.2-0.7
				c3.1-1.6,51-29.8,51-29.8s3.8-2.6,4-7.7L116.7,62.1L116.7,62.1z"/>
			
				<linearGradient id="_251087448_1_" gradientUnits="userSpaceOnUse" x1="-186.3153" y1="219.0908" x2="-210.8527" y2="219.0908" gradientTransform="matrix(2.3861 0 0 -2.3861 503.1533 612.1981)">
				<stop  offset="0" style="stop-color:#0079E4"/>
				<stop  offset="0.549" style="stop-color:#00CCFF"/>
				<stop  offset="1" style="stop-color:#00CCFF"/>
			</linearGradient>
			<path id="_251087448" class="st2" d="M58.6,95.8c-0.4,0-0.9-0.1-1.4-0.3L0.4,62.2v16.2c0,0-0.4,4.2,4.1,7.9
				C8.9,90.1,55.1,116,55.1,116s1.5,0.7,3.4,0.7L58.6,95.8L58.6,95.8z"/>
			
				<linearGradient id="_251087136_1_" gradientUnits="userSpaceOnUse" x1="-172.2675" y1="238.1005" x2="-200.1887" y2="238.1005" gradientTransform="matrix(2.3861 0 0 -2.3861 503.1533 612.1981)">
				<stop  offset="0" style="stop-color:#0079E4"/>
				<stop  offset="0.349" style="stop-color:#00CCFF"/>
				<stop  offset="0.651" style="stop-color:#00CCFF"/>
				<stop  offset="1" style="stop-color:#0079E4"/>
			</linearGradient>
			<path id="_251087136" class="st3" d="M73.6,58.5l-13.5-7.9c0,0-1.2-0.7-2.8,0l-13.3,8l-15.2-8.9l-3.4-2
				c14-8.3,29.9-17.6,29.9-17.6s3.5-1.6,6.6,0c1.6,0.8,16.3,9.4,30.1,17.5L73.6,58.5L73.6,58.5z"/>
			<path id="_251086896" class="st0" d="M60.1,66.5c0,0-1.1,0.7-2.8,0L19.4,44.2l37.9-22.3c1.6-0.7,2.8,0,2.8,0l56.8,33.4l0.1-16.3
				c-0.2-5.1-4-7.7-4-7.7S65.1,2.9,61.9,1.4c-3.1-1.6-6.6,0-6.6,0S9.1,27.3,4.7,31C0.2,34.8,0.6,39,0.6,39c0,5.3,0,10.5-0.1,15.7
				C0.5,55.1,50.1,84,55.3,87c0,0,3.6,1.8,6.6,0L92,69.4l18.5-10.8l0,0L92.1,47.7L60.1,66.5L60.1,66.5z"/>
			
				<linearGradient id="_251086656_1_" gradientUnits="userSpaceOnUse" x1="-210.769" y1="238.0379" x2="-186.3153" y2="238.0379" gradientTransform="matrix(2.3861 0 0 -2.3861 503.1533 612.1981)">
				<stop  offset="0" style="stop-color:#0079E4"/>
				<stop  offset="0.549" style="stop-color:#00CCFF"/>
				<stop  offset="1" style="stop-color:#00CCFF"/>
			</linearGradient>
			<path id="_251086656" class="st4" d="M58.6,66.8c-0.4,0-0.8-0.1-1.2-0.3L19.4,44.2l37.9-22.3c0.5-0.2,0.9-0.3,1.2-0.3V0.7
				c-1.8,0.1-3.2,0.7-3.2,0.7S9.1,27.3,4.7,31C0.2,34.8,0.6,39,0.6,39c0,5.3,0,10.5-0.1,15.7C0.5,55.1,50.1,84,55.3,87
				c0,0,1.4,0.7,3.2,0.8L58.6,66.8L58.6,66.8z"/>
			
				<linearGradient id="_251086152_1_" gradientUnits="userSpaceOnUse" x1="-186.3153" y1="244.8501" x2="-161.8565" y2="244.8501" gradientTransform="matrix(2.3861 0 0 -2.3861 503.1533 612.1981)">
				<stop  offset="0" style="stop-color:#00A9F3"/>
				<stop  offset="0.549" style="stop-color:#00CCFF"/>
				<stop  offset="1" style="stop-color:#00CCFF"/>
			</linearGradient>
			<path id="_251086152" class="st5" d="M58.6,21.6c0.9,0,1.5,0.3,1.5,0.3l56.8,33.4l0.1-16.3c-0.2-5.1-4-7.7-4-7.7
				S65.1,2.9,61.9,1.4c-1.1-0.6-2.3-0.7-3.4-0.7L58.6,21.6L58.6,21.6z"/>
			
				<linearGradient id="_251086488_1_" gradientUnits="userSpaceOnUse" x1="-161.9681" y1="231.7247" x2="-210.6443" y2="231.7247" gradientTransform="matrix(2.3861 0 0 -2.3861 503.1533 612.1981)">
				<stop  offset="0" style="stop-color:#0079E4"/>
				<stop  offset="0.549" style="stop-color:#00CCFF"/>
				<stop  offset="1" style="stop-color:#00CCFF"/>
			</linearGradient>
			<path id="_251086488" class="st6" d="M98.2,73L92,69.4L61.9,87c-3,1.8-6.6,0-6.6,0C50.1,84,0.5,55.1,0.5,54.7
				c0.1-5.4,0.1-10.9,0.1-16.3c0.1-1.3,0.6-4.4,4.1-7.3c0,0,0,0,0,0c0.1-0.1,0.2-0.2,0.3-0.2c-1.7,2.1-1.3,4-0.4,4.7l52.7,31
				c1.6,0.7,2.8,0,2.8,0l32-18.8l18.5,10.9l0,0l6.1,3.6L98.2,73L98.2,73z"/>
		</g>
	</g>
</g>
</svg>
