<?xml version="1.0" encoding="UTF-8"?>
<svg id="Layer_2" xmlns="http://www.w3.org/2000/svg" version="1.1" viewBox="0 0 360.8 62.2">
  <!-- Generator: Adobe Illustrator 29.5.1, SVG Export Plug-In . SVG Version: 2.1.0 Build 141)  -->
  <defs>
    <style>
      .st0, .st1 {
        fill: #fff;
      }

      .st1 {
        stroke: #f1f3f3;
        stroke-width: .3px;
      }

      .st2 {
        fill: none;
        stroke: #fff;
        stroke-width: 1px;
      }
    </style>
  </defs>
  <path class="st1" d="M97.2,6.9h.4v-1.5c0-1.4-.5-2.6-1.5-3.6-1-1-2.3-1.5-3.7-1.5h-19.7c-1.5,0-2.7.5-3.7,1.5-1,1-1.5,2.2-1.5,3.6v6.4c0,1.4.5,2.6,1.5,3.6,1,1,2.3,1.5,3.7,1.5h19.7c.3,0,.6.1.9.3h0s0,0,0,0c.3.2.4.5.4.8v6.4c0,.3-.1.6-.4.9-.2.2-.5.3-.9.3h-19.7c-.3,0-.6-.1-.9-.3-.2-.3-.3-.5-.3-.9v-1.5h-4v1.5c0,1.4.5,2.6,1.5,3.6,1,1,2.3,1.5,3.7,1.5h19.7c1.5,0,2.7-.5,3.7-1.5,1-1,1.5-2.2,1.5-3.6v-6.4c0-1.4-.5-2.6-1.5-3.6-1-1-2.3-1.5-3.7-1.5h-19.7c-.3,0-.6-.1-.9-.3-.2-.2-.3-.5-.3-.8v-6.4c0-.3.1-.6.3-.8.3-.3.6-.4.9-.4h19.7c.3,0,.6.1.8.4h0s0,0,0,0c.3.2.4.5.4.8v1.5h3.7ZM131.4.3h-.3c0,.1-10.9,12.7-10.9,12.7h-9V.3h-4.1v29.4h4.1v-12.7h9l10.9,12.6h.1c0,.1.2.1.2.1h5.1l-.5-.6-12.2-14.1,12.2-14.1.5-.6h-5.1ZM172.6.3h-.3c0,.1-11.1,13.8-11.1,13.8L150,.4h-.1c0-.1-.2-.1-.2-.1h-4.5l.4.6,13.5,17.8v11h4v-11L176.8.8l.4-.6h-4.6ZM213,.3h-.4v24.4L191.5.4h-.1c0-.1-.2-.1-.2-.1h-4.9v29.4h4V5.3l21.1,24.3h.1c0,.1.2.1.2.1h4.9V.3h-3.7ZM253.9.6v-.4h-27.7v29.4h27.7v-3.9h-23.7v-8.8h19v-4h-19V4.2h23.7V.6ZM263.8.3h-.4v3.9h13.1v25.5h4V4.2h13.1V.3h-29.9Z"/>
  <path class="st2" d="M67.7,55.3h54.8"/>
  <path class="st0" d="M154.3,54.8c.6.5.9,1.1.9,1.9v3.2c0,.7-.3,1.3-.8,1.8-.5.5-1.1.8-1.8.8h-11.8v-14.3h11.2c.7,0,1.3.3,1.8.8.5.5.8,1.1.8,1.8v2.9c0,.4,0,.7-.3,1.1ZM152,50.3h-8.6c-.1,0-.2,0-.3.1,0,0-.1.2-.1.3v2.9c0,.1,0,.2.1.3,0,0,.2.1.3.1h8.6c.1,0,.2,0,.3-.1,0,0,.1-.2.1-.3v-2.9c0-.1,0-.2-.1-.3,0,0-.2-.1-.3-.1ZM153,59.9v-3.2c0-.1,0-.2-.1-.3,0,0-.2-.1-.3-.1h-9.2c-.1,0-.2,0-.3.1,0,0-.1.2-.1.3v3.2c0,.1,0,.2.1.3,0,0,.2.1.3.1h9.2c.1,0,.2,0,.3-.1,0,0,.1-.2.1-.3ZM172.7,48.1h2.6l-6.6,9v5.4h-2.2v-5.4l-6.6-9h2.5l5.2,6.5,5.1-6.5ZM206.3,50.3h-11.7c-.1,0-.2,0-.3.1,0,0-.1.2-.1.3v9.2c0,.1,0,.2.1.3,0,0,.2.1.3.1h11.7v2.2h-11.7c-.7,0-1.3-.3-1.8-.8-.5-.5-.8-1.1-.8-1.8v-9.2c0-.7.3-1.3.8-1.8.5-.5,1.1-.8,1.8-.8h11.7v2.2ZM225.6,48.1v2.2h-11v3.9h8.8v2.2h-8.8v3.9h11v2.2h-13.2v-14.3h13.2ZM245.9,50.7v4c0,.7-.3,1.3-.8,1.8-.5.5-1.1.8-1.8.8h-1.5l4,4.8v.3h-2.6l-4.3-5.1h-4.9c-.1,0-.3,0-.4,0v5.2h-2.2v-14.3h11.8c.7,0,1.3.3,1.8.8.5.5.8,1.1.8,1.8ZM234.2,55.2h9.2c.1,0,.2,0,.3-.1,0,0,.1-.2.1-.3v-4c0-.1,0-.2-.1-.3,0,0-.2-.1-.3-.1h-9.2c-.1,0-.2,0-.3.1,0,0-.1.2-.1.3v4c0,.1,0,.2.1.3,0,0,.2.1.3.1ZM251.3,48.1h14.3v2.2h-6.1v12.2h-2.2v-12.2h-6.1v-2.2ZM271.2,62.5v-14.3h2.2v14.3h-2.2ZM290.8,48.1h2.6v.3l-5.8,6.9,5.8,6.9v.3h-2.6l-5.1-6.1h-4v6.1h-2.2v-14.3h2.2v6.1h4l5.1-6.1Z"/>
</svg>