<?xml version="1.0" encoding="utf-8"?>
<!-- Generator: Adobe Illustrator 25.0.1, SVG Export Plug-In . SVG Version: 6.00 Build 0)  -->
<svg version="1.1" id="Layer_2" xmlns="http://www.w3.org/2000/svg" xmlns:xlink="http://www.w3.org/1999/xlink" x="0px" y="0px"
	 viewBox="0 0 360.8 62.2" style="enable-background:new 0 0 360.8 62.2;" xml:space="preserve">
<style type="text/css">
	.st0{fill:none;stroke:#FFFFFF;stroke-width:2.5316;stroke-miterlimit:10;}
	.st1{fill:#FFFFFF;}
</style>
<g id="Artwork">
	<polygon class="st0" points="69,6.5 55.4,6.5 50.9,11 50.9,56.3 87.1,56.3 91.7,51.8 91.7,42.7 69,42.7 	"/>
	<polygon class="st0" points="118.9,6.5 105.3,6.5 100.7,11 100.7,56.3 136.9,56.3 141.5,51.8 141.5,42.7 118.9,42.7 	"/>
	<polygon class="st0" points="168.7,51.8 164.1,56.3 150.5,56.3 150.6,11 155.1,6.5 168.7,6.5 	"/>
	<polygon class="st0" points="218.5,38.2 195.9,38.2 195.9,51.8 191.3,56.3 177.7,56.3 177.7,11 182.3,6.5 223.1,6.5 223.1,33.7 	
		"/>
	<polygon class="st0" points="232.1,20.1 232.1,11 236.6,6.5 281.9,6.5 281.9,15.5 277.4,20.1 263.8,20.1 263.8,51.8 259.3,56.3 
		245.7,56.3 245.7,20.1 	"/>
	<polyline class="st0" points="336.3,20.1 354.4,20.1 359,15.5 359,6.5 322.7,6.5 318.2,11 318.2,56.3 354.4,56.3 359,51.8 
		359,42.7 336.3,42.7 336.3,38.2 336.3,24.6 336.3,20.1 	"/>
	<polyline class="st0" points="19.2,20.1 19.2,24.6 37.3,24.6 37.3,33.7 32.8,38.2 19.2,38.2 19.2,42.7 41.8,42.7 41.8,51.8 
		37.3,56.3 1,56.3 1,11 5.6,6.5 41.8,6.5 41.8,15.5 37.3,20.1 19.2,20.1 	"/>
	<path class="st1" d="M1,11h36.3v9.7H14.6v8.5h18.1v9.7H14.6v8.4h22.7v9.1H1V11z"/>
	<polygon class="st0" points="309.1,51.8 304.6,56.3 291,56.3 291,11 295.5,6.5 309.1,6.5 	"/>
	<polyline class="st0" points="195.9,20.1 195.9,24.6 209.5,24.6 	"/>
	<path class="st1" d="M50.9,11h13.6v36.3h22.7v9.1H50.9V11z"/>
	<path class="st1" d="M100.7,11h13.6v36.3H137v9.1h-36.3V11z"/>
	<path class="st1" d="M150.5,11h13.6v36.3l0,0v9.1h-13.6V11z"/>
	<path class="st1" d="M291,11h13.6v36.3l0,0v9.1H291V11z"/>
	<path class="st1" d="M218.5,11h-40.8v45.3h13.6V38.7h27.2V11z M209.5,29.1h-18.1v-9.1h18.1V29.1z"/>
	<polygon class="st1" points="241.1,11 232.1,11 232.1,20.1 245.7,20.1 245.7,56.3 259.3,56.3 259.3,20.8 277.4,20.8 277.4,11 	"/>
	<polygon class="st1" points="354.4,11 318.2,11 318.2,56.3 354.4,56.3 354.4,47.3 331.8,47.3 331.8,20.7 354.4,20.7 	"/>
</g>
</svg>
