<?xml version="1.0" encoding="utf-8"?>
<!-- Generator: Adobe Illustrator 25.0.1, SVG Export Plug-In . SVG Version: 6.00 Build 0)  -->
<svg version="1.1" id="Layer_2" xmlns="http://www.w3.org/2000/svg" xmlns:xlink="http://www.w3.org/1999/xlink" x="0px" y="0px"
	 viewBox="0 0 360.8 62.2" style="enable-background:new 0 0 360.8 62.2;" xml:space="preserve">
<style type="text/css">
	.st0{fill:none;stroke:#000000;stroke-width:2.5316;stroke-miterlimit:10;}
</style>
<g id="Artwork">
	<polygon class="st0" points="69.4,6.2 55.8,6.2 51.3,10.7 51.3,56 87.5,56 92.1,51.5 92.1,42.4 69.4,42.4 	"/>
	<polygon class="st0" points="119.3,6.2 105.7,6.2 101.1,10.7 101.1,56 137.3,56 141.9,51.5 141.9,42.4 119.3,42.4 	"/>
	<polygon class="st0" points="169.1,51.5 164.5,56 150.9,56 151,10.7 155.5,6.2 169.1,6.2 	"/>
	<polygon class="st0" points="218.9,37.9 196.3,37.9 196.3,51.5 191.7,56 178.1,56 178.1,10.7 182.7,6.2 223.5,6.2 223.5,33.4 	"/>
	<polygon class="st0" points="232.5,19.8 232.5,10.7 237,6.2 282.3,6.2 282.3,15.2 277.8,19.8 264.2,19.8 264.2,51.5 259.7,56 
		246.1,56 246.1,19.8 	"/>
	<polyline class="st0" points="336.7,19.8 354.8,19.8 359.4,15.2 359.4,6.2 323.1,6.2 318.6,10.7 318.6,56 354.8,56 359.4,51.5 
		359.4,42.4 336.7,42.4 336.7,37.9 336.7,24.3 336.7,19.8 	"/>
	<polyline class="st0" points="19.6,19.8 19.6,24.3 37.7,24.3 37.7,33.4 33.2,37.9 19.6,37.9 19.6,42.4 42.2,42.4 42.2,51.5 
		37.7,56 1.4,56 1.4,10.7 6,6.2 42.2,6.2 42.2,15.2 37.7,19.8 19.6,19.8 	"/>
	<path d="M1.4,10.7h36.3v9.7H15v8.5h18.1v9.7H15V47h22.7V56H1.4V10.7z"/>
	<polygon class="st0" points="309.5,51.5 305,56 291.4,56 291.4,10.7 295.9,6.2 309.5,6.2 	"/>
	<polyline class="st0" points="196.3,19.8 196.3,24.3 209.9,24.3 	"/>
	<path d="M51.3,10.7h13.6V47h22.7V56H51.3V10.7z"/>
	<path d="M101.1,10.7h13.6V47h22.7V56h-36.3V10.7z"/>
	<path d="M150.9,10.7h13.6V47l0,0V56h-13.6V10.7z"/>
	<path d="M291.4,10.7H305V47l0,0V56h-13.6V10.7z"/>
	<path d="M218.9,10.7h-40.8V56h13.6V38.4h27.2V10.7z M209.9,28.8h-18.1v-9.1h18.1V28.8z"/>
	<polygon points="241.5,10.7 232.5,10.7 232.5,19.8 246.1,19.8 246.1,56 259.7,56 259.7,20.5 277.8,20.5 277.8,10.7 	"/>
	<polygon points="354.8,10.7 318.6,10.7 318.6,56 354.8,56 354.8,47 332.2,47 332.2,20.4 354.8,20.4 	"/>
</g>
</svg>
