<?xml version="1.0" encoding="utf-8"?>
<!-- Generator: Adobe Illustrator 25.0.1, SVG Export Plug-In . SVG Version: 6.00 Build 0)  -->
<svg version="1.1" id="Layer_3" xmlns="http://www.w3.org/2000/svg" xmlns:xlink="http://www.w3.org/1999/xlink" x="0px" y="0px"
	 viewBox="0 0 360.8 62.2" style="enable-background:new 0 0 360.8 62.2;" xml:space="preserve">
<style type="text/css">
	.st0{fill:#FFFFFF;}
	.st1{opacity:0.8;}
	.st2{opacity:0.8;fill:#939393;enable-background:new    ;}
</style>
<g>
	<g>
		<g>
			<path class="st0" d="M108.1,17.5c0-0.5,0.2-0.9,0.5-1.3c0.3-0.3,0.8-0.5,1.3-0.5h16.4c0.3,0,0.5-0.1,0.7-0.3
				c0.2-0.2,0.3-0.5,0.3-0.7V14c0-0.3-0.1-0.5-0.3-0.7c-0.2-0.2-0.5-0.3-0.7-0.3h-19.1c-1.3,0-2.6,0.5-3.6,1.5
				c-0.9,0.9-1.5,2.2-1.5,3.6v9.5c0,1.3,0.5,2.6,1.5,3.6c0.9,0.9,2.2,1.5,3.6,1.5h13.2c0.5,0,0.9,0.2,1.3,0.6
				c0.3,0.3,0.5,0.8,0.5,1.3v10.4c0,0.5-0.2,0.9-0.5,1.3s-0.8,0.5-1.3,0.5h-15.7c-0.3,0-0.5,0.1-0.7,0.3c-0.2,0.2-0.3,0.5-0.3,0.7
				v0.7c0,0.3,0.1,0.5,0.3,0.7c0.2,0.2,0.5,0.3,0.7,0.3H123c0.7,0,1.3-0.1,2-0.4c0.6-0.3,1.1-0.6,1.6-1.1c0.5-0.5,0.8-1,1.1-1.6
				c0.3-0.6,0.4-1.3,0.4-2v-9.4c0-1.3-0.5-2.6-1.5-3.6c-0.9-0.9-2.2-1.5-3.6-1.5h-13.2c-0.5,0-0.9-0.2-1.3-0.5S108,28.5,108,28
				L108.1,17.5L108.1,17.5z"/>
			<path class="st0" d="M291,17.5c0-0.5,0.2-0.9,0.5-1.3c0.3-0.3,0.8-0.5,1.3-0.5h16.4c0.3,0,0.5-0.1,0.7-0.3
				c0.2-0.2,0.3-0.5,0.3-0.7V14c0-0.3-0.1-0.5-0.3-0.7c-0.2-0.2-0.5-0.3-0.7-0.3h-19.1c-1.3,0-2.6,0.5-3.6,1.5
				c-0.9,0.9-1.5,2.2-1.5,3.6v9.5c0,1.3,0.5,2.6,1.5,3.6c0.9,0.9,2.2,1.5,3.6,1.5h13.2c0.5,0,0.9,0.2,1.3,0.6
				c0.3,0.3,0.5,0.8,0.5,1.3v10.4c0,0.5-0.2,0.9-0.5,1.3s-0.8,0.5-1.3,0.5h-15.7c-0.3,0-0.5,0.1-0.7,0.3c-0.2,0.2-0.3,0.5-0.3,0.7
				v0.7c0,0.3,0.1,0.5,0.3,0.7c0.2,0.2,0.5,0.3,0.7,0.3h18.3c0.7,0,1.3-0.1,2-0.4c0.6-0.3,1.1-0.6,1.6-1.1c0.5-0.5,0.8-1,1.1-1.6
				c0.3-0.6,0.4-1.3,0.4-2v-9.4c0-1.3-0.5-2.6-1.5-3.6c-0.9-0.9-2.2-1.5-3.6-1.5h-13.2c-0.5,0-0.9-0.2-1.3-0.5s-0.5-0.8-0.5-1.3
				L291,17.5L291,17.5z"/>
			<path class="st0" d="M151.3,46.6h-8.2c-0.5,0-0.9-0.2-1.3-0.6c-0.3-0.3-0.5-0.8-0.5-1.3V14c0-0.3-0.1-0.5-0.3-0.7
				c-0.2-0.2-0.5-0.3-0.7-0.3h-3.8c-0.3,0-0.5,0.1-0.7,0.3c-0.2,0.2-0.3,0.5-0.3,0.7v30.3c0,1.3,0.5,2.6,1.5,3.6
				c0.9,0.9,2.2,1.5,3.6,1.5h10.8c0.3,0,0.5-0.1,0.7-0.3c0.2-0.2,0.3-0.5,0.3-0.7v-0.7c0-0.1,0-0.3-0.1-0.4
				c-0.1-0.1-0.1-0.3-0.2-0.3c-0.1-0.1-0.2-0.2-0.3-0.2S151.4,46.6,151.3,46.6z"/>
			<path class="st0" d="M211.7,46.6h2.8c0.5,0,0.9-0.2,1.3-0.6c0.3-0.3,0.5-0.8,0.5-1.3V14c0-0.3,0.1-0.5,0.3-0.7
				c0.2-0.2,0.5-0.3,0.7-0.3h3.8c0.3,0,0.5,0.1,0.7,0.3c0.2,0.2,0.3,0.5,0.3,0.7v30.3c0,1.3-0.5,2.6-1.5,3.6
				c-0.9,0.9-2.2,1.5-3.6,1.5h-5.4c-0.3,0-0.5-0.1-0.7-0.3c-0.2-0.2-0.3-0.5-0.3-0.7v-0.7c0-0.1,0-0.3,0.1-0.4
				c0.1-0.1,0.1-0.3,0.2-0.3c0.1-0.1,0.2-0.2,0.3-0.2C211.4,46.6,211.5,46.6,211.7,46.6z"/>
			<path class="st0" d="M199.7,46.6h-2.8c-0.5,0-0.9-0.2-1.3-0.6c-0.3-0.3-0.5-0.8-0.5-1.3V14c0-0.3-0.1-0.5-0.3-0.7
				c-0.2-0.2-0.5-0.3-0.7-0.3h-3.8c-0.3,0-0.5,0.1-0.7,0.3c-0.2,0.2-0.3,0.5-0.3,0.7v30.3c0,1.3,0.5,2.6,1.5,3.6
				c0.9,0.9,2.2,1.5,3.6,1.5h5.4c0.3,0,0.5-0.1,0.7-0.3c0.2-0.2,0.3-0.5,0.3-0.7v-0.7c0-0.1,0-0.3-0.1-0.4c-0.1-0.1-0.1-0.3-0.2-0.3
				c-0.1-0.1-0.2-0.2-0.3-0.2C199.9,46.6,199.8,46.6,199.7,46.6z"/>
			<path class="st0" d="M172.4,46.6h-8c-0.5,0-0.9-0.2-1.3-0.6c-0.3-0.3-0.5-0.8-0.5-1.3V14c0-0.3-0.1-0.5-0.3-0.7
				c-0.1-0.2-0.5-0.3-0.7-0.3h-3.8c-0.3,0-0.5,0.1-0.7,0.3s-0.3,0.5-0.3,0.7v30.3c0,1.3,0.5,2.6,1.5,3.6c0.9,0.9,2.2,1.5,3.6,1.5
				h10.5c0.3,0,0.5-0.1,0.7-0.3c0.2-0.2,0.3-0.5,0.3-0.7v-0.7c0-0.1,0-0.3-0.1-0.4c-0.1-0.1-0.1-0.3-0.2-0.3
				c-0.1-0.1-0.2-0.2-0.3-0.2C172.7,46.6,172.6,46.6,172.4,46.6z"/>
			<path class="st0" d="M276.2,13h-3.8c-0.3,0-0.5,0.1-0.7,0.3c-0.2,0.2-0.3,0.5-0.3,0.7v34.2c0,0.3,0.1,0.5,0.3,0.7
				c0.2,0.2,0.5,0.3,0.7,0.3h3.8c0.3,0,0.5-0.1,0.7-0.3c0.2-0.2,0.3-0.5,0.3-0.7V14c0-0.1,0-0.3-0.1-0.4c-0.1-0.1-0.1-0.3-0.2-0.3
				c-0.1-0.1-0.2-0.2-0.3-0.2C276.5,13,276.4,13,276.2,13z"/>
			<path class="st0" d="M207.6,13h-3.8c-0.3,0-0.5,0.1-0.7,0.3c-0.2,0.2-0.3,0.5-0.3,0.7v34.2c0,0.3,0.1,0.5,0.3,0.7
				c0.2,0.2,0.5,0.3,0.7,0.3h3.8c0.3,0,0.5-0.1,0.7-0.3c0.2-0.2,0.3-0.5,0.3-0.7V14c0-0.1,0-0.3-0.1-0.4c-0.1-0.1-0.1-0.3-0.2-0.3
				c-0.1-0.1-0.2-0.2-0.3-0.2C207.9,13.1,207.8,13,207.6,13z"/>
			<path class="st0" d="M240.7,15.6h-2.8c-0.5,0-0.9,0.2-1.3,0.5s-0.5,0.8-0.5,1.3v30.8c0,0.3-0.1,0.5-0.3,0.7
				c-0.2,0.2-0.5,0.3-0.7,0.3h-3.8c-0.3,0-0.5-0.1-0.7-0.3c-0.2-0.2-0.3-0.5-0.3-0.7V18c0-1.3,0.5-2.6,1.5-3.6
				c0.9-0.9,2.2-1.5,3.6-1.5h5.4c0.3,0,0.5,0.1,0.7,0.3c0.2,0.2,0.3,0.5,0.3,0.7v0.7c0,0.3-0.1,0.5-0.3,0.7
				C241.2,15.6,241,15.6,240.7,15.6z"/>
			<path class="st0" d="M252.7,15.6h2.8c0.5,0,0.9,0.2,1.3,0.5s0.5,0.8,0.5,1.3v30.8c0,0.3,0.1,0.5,0.3,0.7c0.2,0.2,0.5,0.3,0.7,0.3
				h3.8c0.3,0,0.5-0.1,0.7-0.3c0.2-0.2,0.3-0.5,0.3-0.7V18c0-1.3-0.5-2.6-1.5-3.6c-0.9-0.9-2.2-1.5-3.6-1.5h-5.4
				c-0.3,0-0.5,0.1-0.7,0.3c-0.2,0.2-0.3,0.5-0.3,0.7v0.7c0,0.1,0,0.3,0.1,0.4c0.1,0.1,0.1,0.3,0.2,0.3s0.2,0.2,0.3,0.2
				C252.4,15.6,252.6,15.6,252.7,15.6z"/>
			<path class="st0" d="M165.6,15.6h8c0.5,0,0.9,0.2,1.3,0.5s0.5,0.8,0.5,1.3v30.8c0,0.3,0.1,0.5,0.3,0.7c0.2,0.2,0.5,0.3,0.7,0.3
				h3.8c0.3,0,0.5-0.1,0.7-0.3c0.2-0.2,0.3-0.5,0.3-0.7V18c0-1.3-0.5-2.6-1.5-3.6c-0.9-0.9-2.2-1.5-3.6-1.5h-10.5
				c-0.3,0-0.5,0.1-0.7,0.3c-0.2,0.2-0.3,0.5-0.3,0.7v0.7c0,0.3,0.1,0.5,0.3,0.7C165,15.6,165.3,15.6,165.6,15.6z"/>
			<path class="st0" d="M316.6,15.6h6c0.5,0,0.9,0.2,1.3,0.5s0.5,0.8,0.5,1.3v30.8c0,0.3,0.1,0.5,0.3,0.7c0.2,0.2,0.5,0.3,0.7,0.3
				h3.8c0.3,0,0.5-0.1,0.7-0.3c0.2-0.2,0.3-0.5,0.3-0.7V18c0-1.3-0.5-2.6-1.5-3.6c-0.9-0.9-2.2-1.5-3.6-1.5h-8.6
				c-0.3,0-0.5,0.1-0.7,0.3c-0.2,0.2-0.3,0.5-0.3,0.7v0.7c0,0.3,0.1,0.5,0.3,0.7C316.1,15.5,316.3,15.6,316.6,15.6z"/>
			<path class="st0" d="M244.7,49.3h3.8c0.3,0,0.5-0.1,0.7-0.3c0.2-0.2,0.3-0.5,0.3-0.7V14.1c0-0.3-0.1-0.5-0.3-0.7
				c-0.2-0.2-0.5-0.3-0.7-0.3h-3.8c-0.3,0-0.5,0.1-0.7,0.3c-0.2,0.2-0.3,0.5-0.3,0.7v34.2c0,0.1,0,0.3,0.1,0.4
				c0.1,0.1,0.1,0.2,0.2,0.3c0.1,0.1,0.2,0.2,0.3,0.2C244.5,49.3,244.7,49.3,244.7,49.3z"/>
			<path class="st0" d="M339.4,13h-3.8c-0.3,0-0.5,0.1-0.7,0.3c-0.2,0.2-0.3,0.5-0.3,0.7v3.5c0,0.3,0.1,0.5,0.3,0.7
				c0.2,0.2,0.5,0.3,0.7,0.3h3.9c0.3,0,0.5-0.1,0.7-0.3c0.2-0.2,0.3-0.5,0.3-0.7V14c0-0.1,0-0.3-0.1-0.4c-0.1-0.1-0.1-0.3-0.3-0.3
				c-0.1-0.1-0.2-0.1-0.3-0.2C339.7,13,339.6,13,339.4,13z"/>
			<path class="st0" d="M61.7,48.3c-3.3,3.9-7.2,7.2-11.6,9.8c0,0-24.2-12.6-24.2-44.8C39,12.7,48.2,6.8,50.1,4.9
				c1.1,1.1,4.9,3.6,10.5,5.7V6.9c-3.9-1.3-7.5-3.6-10.4-6.5c-1.9,1.9-9.2,8.9-28,9.8c-1.9,38,28,52.4,28,52.4
				c6.5-3.5,12.1-8.4,16.6-14.2L61.7,48.3L61.7,48.3z"/>
			<path class="st0" d="M68.9,27.7h-8.8v8h8.8V27.7z"/>
			<path class="st0" d="M59.6,36.5H57v2.2h2.6V36.5z"/>
			<path class="st0" d="M65.3,40.4h-3.8v3.5h3.8V40.4z"/>
			<path class="st0" d="M74.7,40.9H69V46h5.7V40.9z"/>
			<path class="st0" d="M89.4,24.2h-6.9v6.2h6.9V24.2z"/>
			<path class="st0" d="M88.8,12.5h-3.2v2.8h3.2V12.5z"/>
			<path class="st0" d="M82.6,14.2h-3.2v2.8h3.2V14.2z"/>
			<path class="st0" d="M82.6,31h-4v3.7h4V31z"/>
			<path class="st0" d="M79.7,37.6h-4.3v3.8h4.3V37.6z"/>
			<path class="st0" d="M76.1,7.8h-4.8V12h4.8V7.8z"/>
			<path class="st0" d="M67,4h-4.2v3.8H67V4z"/>
			<path class="st0" d="M62.3,11.4h-5.5v4.9h5.5V11.4z"/>
			<path class="st0" d="M57.2,13.9h-0.4v4.9h0.4V13.9z"/>
			<path class="st0" d="M65.4,7.6h-0.5v4.9h0.5V7.6z"/>
			<path class="st0" d="M74.7,11.4h-0.4v10.7h0.4V11.4z"/>
			<path class="st0" d="M86.9,14.7h-0.4v10.7h0.4V14.7z"/>
			<path class="st0" d="M86.7,14.9h-5.1v0.5h5.1V14.9z"/>
			<path class="st0" d="M82.8,25.6h-5.2V26h5.2V25.6z"/>
			<path class="st0" d="M79.3,31.3h-5.2v0.4h5.2V31.3z"/>
			<path class="st0" d="M72.8,32.9h-5.2v0.4h5.2V32.9z"/>
			<path class="st0" d="M77.4,40.9h-5.1v0.5h5.1V40.9z"/>
			<path class="st0" d="M82,32l-0.4-0.3l1.4-2.2l0.3,0.3L82,32z"/>
			<path class="st0" d="M59.2,37.3l-0.3-0.3l1.8-1.8l0.3,0.3L59.2,37.3z"/>
			<path class="st0" d="M72.1,22.9H67v0.4h5.1V22.9z"/>
			<path class="st0" d="M63.7,18.4h-5.2v0.4h5.2V18.4z"/>
			<path class="st0" d="M67.2,14.3h-0.5V25h0.5V14.3z"/>
			<path class="st0" d="M65.3,32.4h-0.5v10.7h0.5V32.4z"/>
			<path class="st0" d="M79.7,31.3h-0.5v8.1h0.5V31.3z"/>
			<path class="st0" d="M71.5,12h-8v7.3h8V12z"/>
			<path class="st0" d="M67.9,24.5h-2.1v1.9h2.1V24.5z"/>
			<path class="st0" d="M77.8,21h-6.1v5.3h6.1V21z"/>
			<path class="st0" d="M59,18.4h-6.3v5.7H59V18.4z"/>
			<path class="st0" d="M75.2,30.3h-3.4v3.1h3.4V30.3z"/>
			<g class="st1">
				<path class="st2" d="M50.1,58.1V4.9c-1.9,1.9-11.2,7.7-24.2,8.4C25.9,45.5,50.1,58.1,50.1,58.1z"/>
			</g>
		</g>
	</g>
</g>
</svg>
