<?xml version="1.0" encoding="utf-8"?>
<!-- Generator: Adobe Illustrator 25.0.1, SVG Export Plug-In . SVG Version: 6.00 Build 0)  -->
<svg version="1.1" id="Layer_1" xmlns="http://www.w3.org/2000/svg" xmlns:xlink="http://www.w3.org/1999/xlink" x="0px" y="0px"
	 viewBox="0 0 72 72" style="enable-background:new 0 0 72 72;" xml:space="preserve">
<style type="text/css">
	.st0{fill:#B9B6B1;}
	.st1{fill:#264D83;}
</style>
<g>
	<g>
		<g id="Shape_1_3_">
			<g>
				<path class="st0" d="M71.9,32.5C63.6-15.3,1.1-6.1,0,32.5c3.6,1.8,5.9,3,5.9,3S4,36.7,0,39.3c7.2,47,68.7,40.1,72-0.1
					c-3.9-2.4-6.1-3.7-6.1-3.7S67.7,34.7,71.9,32.5z M41.1,49.2l-5.9-10.1l-5.9,10.1l-4.5-0.3l8.5-14.3l-7.6-12.3l4.6-0.4l5.4,9.2
					l5.4-8.8l4.3,0.1l-7.1,12.2l7.9,14.6L41.1,49.2z"/>
			</g>
		</g>
	</g>
	<g id="Shape_1_2_">
		<g>
			<path class="st1" d="M69,30.6C57.7-11.9,6.4-0.5,2.9,30.6c7.1,4,8.8,4.9,8.8,4.9s-2.8,1.8-8.8,5.6C10.5,82.1,65.9,74.2,69,41
				c-5.6-3.5-8.9-5.6-8.9-5.6S67.6,31.4,69,30.6z M41.1,49.3l-5.9-10.1l-6,10.1L24.7,49l8.5-14.3l-7.6-12.3l4.6-0.4l5.4,9.2l5.4-8.8
				l4.3,0.1l-7.1,12.2l8,14.6L41.1,49.3z"/>
		</g>
	</g>
</g>
</svg>
