<?xml version="1.0" encoding="UTF-8"?>
<svg xmlns="http://www.w3.org/2000/svg" version="1.1" xmlns:xlink="http://www.w3.org/1999/xlink" viewBox="0 0 371.4 90">
  <!-- Generator: Adobe Illustrator 29.1.0, SVG Export Plug-In . SVG Version: 2.1.0 Build 142)  -->
  <defs>
    <style>
      .st0 {
        fill: #fff;
      }

      .st1 {
        fill: #4a7092;
      }

      .st2 {
        fill: #5ab57a;
      }

      .st3 {
        display: none;
      }

      .st4 {
        fill: url(#linear-gradient);
      }
    </style>
    <linearGradient id="linear-gradient" x1="84.4" y1="92" x2="84.4" y2="2" gradientTransform="translate(0 92) scale(1 -1)" gradientUnits="userSpaceOnUse">
      <stop offset="0" stop-color="#00ffaf"/>
      <stop offset="0" stop-color="#00ecad"/>
      <stop offset=".3" stop-color="#00a6a7"/>
      <stop offset=".6" stop-color="#006ea2"/>
      <stop offset=".8" stop-color="#00459e"/>
      <stop offset=".9" stop-color="#002d9c"/>
      <stop offset="1" stop-color="#00249c"/>
    </linearGradient>
  </defs>
  <g id="Layer_2_copy" class="st3">
    <path class="st0" d="M103.9,24.9c-.2-.6-.5-1.1-1-1.5-.4-.4-.9-.7-1.5-1-.6-.2-1.2-.4-2-.4h-2.7v9.3h2.7c.7,0,1.4-.1,2-.3.6-.2,1.1-.5,1.5-1,.4-.4.7-.9,1-1.5.2-.6.3-1.2.3-1.9s-.1-1.3-.3-1.9M106.2,29.4c-.4.8-.9,1.6-1.5,2.2-.6.6-1.4,1.1-2.3,1.4-.9.3-1.9.5-2.9.5h-5.1v-13.6h5.1c1.1,0,2.1.2,2.9.5.9.3,1.7.8,2.3,1.4.6.6,1.1,1.3,1.5,2.2s.5,1.7.5,2.7-.2,1.9-.5,2.7ZM111.4,19.9h-2.4v13.6h2.4v-13.6ZM125.4,32.5c.4-.3.8-.5,1.1-.8v-5.7h-5.8v2.1h3.5v2.6c-.4.3-.9.6-1.5.8-.6.2-1.2.3-1.8.3s-1.3-.1-1.9-.4-1.1-.6-1.5-1c-.4-.4-.7-.9-.9-1.5s-.3-1.2-.3-1.9.1-1.3.3-1.9c.2-.6.5-1.1.9-1.5.4-.4.9-.8,1.4-1,.5-.3,1.1-.4,1.8-.4s.8,0,1.2.1c.4,0,.7.2,1,.3.3.1.6.3.9.5.3.2.5.4.8.6l1.5-1.8c-.4-.3-.7-.6-1.1-.8-.4-.2-.8-.4-1.2-.6-.4-.2-.9-.3-1.4-.4-.5,0-1-.1-1.6-.1-1,0-2,.2-2.8.6-.9.4-1.6.9-2.2,1.5-.6.6-1.1,1.4-1.5,2.2-.3.9-.5,1.8-.5,2.7s.2,1.9.5,2.8c.3.9.8,1.6,1.4,2.2.6.6,1.4,1.1,2.2,1.5.9.4,1.8.5,2.9.5s1.2,0,1.7-.2c.5-.1,1.1-.3,1.5-.5.5-.2.9-.4,1.3-.7M131.4,19.9h-2.4v13.6h2.4v-13.6ZM140.1,22.1h4.3v-2.2h-11.1v2.2h4.3v11.4h2.4v-11.4ZM150.4,22.7l-2.3,5.4h4.7l-2.4-5.4ZM157.6,33.5h-2.5l-1.4-3.3h-6.5l-1.4,3.3h-2.5l6-13.7h2.2l6,13.7h0ZM159.1,19.9v13.6h9.6v-2.2h-7.2v-11.4h-2.4ZM100.3,41l-2.3,5.4h4.7l-2.4-5.4ZM107.5,51.8h-2.5l-1.4-3.3h-6.5l-1.4,3.3h-2.5l6-13.7h2.2l6,13.7h0ZM111,42.5c0-.2-.1-.4-.1-.7,0-.5.2-.8.6-1.2.4-.3.9-.5,1.6-.5s1.2.1,1.9.4c.6.2,1.2.6,1.9,1l1.3-1.8c-.7-.6-1.5-1-2.3-1.3-.8-.3-1.7-.4-2.7-.4s-1.3,0-1.9.3c-.6.2-1.1.5-1.5.8-.4.3-.7.8-1,1.3-.2.5-.3,1-.3,1.6s.1,1.2.3,1.6c.2.4.5.8.9,1.1.4.3.9.6,1.4.8.6.2,1.2.4,2,.6.6.2,1.2.3,1.6.4.4.1.7.3.9.5.2.2.4.3.5.5,0,.2.1.4.1.7,0,.5-.2,1-.7,1.3-.4.3-1,.5-1.8.5s-1.6-.2-2.3-.5c-.7-.3-1.4-.7-2-1.3l-1.4,1.7c.8.7,1.7,1.3,2.7,1.6,1,.4,2,.5,3,.5s1.4,0,2-.3c.6-.2,1.1-.4,1.5-.8.4-.3.8-.8,1-1.3.2-.5.4-1.1.4-1.7s0-1.1-.3-1.5c-.2-.4-.5-.8-.8-1.1-.4-.3-.8-.6-1.4-.8-.6-.2-1.2-.4-1.9-.6-.7-.2-1.2-.3-1.6-.4-.4-.1-.8-.3-1-.5-.2-.2-.4-.3-.5-.5M122.6,42.5c0-.2-.1-.4-.1-.7,0-.5.2-.8.6-1.2.4-.3.9-.5,1.6-.5s1.2.1,1.9.4c.6.2,1.2.6,1.9,1l1.3-1.8c-.7-.6-1.5-1-2.3-1.3-.8-.3-1.7-.4-2.7-.4s-1.3,0-1.9.3c-.6.2-1.1.5-1.5.8-.4.3-.7.8-1,1.3-.2.5-.3,1-.3,1.6s.1,1.2.3,1.6c.2.4.5.8.9,1.1.4.3.9.6,1.4.8.6.2,1.2.4,2,.6.6.2,1.2.3,1.6.4.4.1.7.3.9.5.2.2.4.3.5.5,0,.2.1.4.1.7,0,.5-.2,1-.7,1.3-.4.3-1,.5-1.8.5s-1.6-.2-2.3-.5c-.7-.3-1.4-.7-2-1.3l-1.4,1.7c.8.7,1.7,1.3,2.7,1.6s2,.5,3,.5,1.4,0,2-.3c.6-.2,1.1-.4,1.5-.8.4-.3.8-.8,1-1.3.2-.5.4-1.1.4-1.7s0-1.1-.3-1.5c-.2-.4-.5-.8-.8-1.1-.4-.3-.8-.6-1.4-.8-.6-.2-1.2-.4-1.9-.6-.7-.2-1.2-.3-1.6-.4-.4-.1-.8-.3-1-.5-.2-.2-.4-.3-.5-.5M142.3,38.2h-10.1v13.6h10.2v-2.2h-7.9v-3.6h6.9v-2.2h-6.9v-3.5h7.8v-2.2h0ZM150.3,40.5h4.3v-2.2h-11.1v2.2h4.3v11.4h2.4v-11.4ZM158.3,42.5c0-.2-.1-.4-.1-.7,0-.5.2-.8.6-1.2.4-.3.9-.5,1.6-.5s1.2.1,1.9.4c.6.2,1.2.6,1.9,1l1.3-1.8c-.7-.6-1.5-1-2.3-1.3-.8-.3-1.7-.4-2.7-.4s-1.3,0-1.9.3c-.6.2-1.1.5-1.5.8s-.7.8-1,1.3c-.2.5-.3,1-.3,1.6s.1,1.2.3,1.6c.2.4.5.8.9,1.1.4.3.9.6,1.4.8.6.2,1.2.4,2,.6.6.2,1.2.3,1.6.4s.7.3.9.5c.2.2.4.3.5.5,0,.2.1.4.1.7,0,.5-.2,1-.7,1.3-.4.3-1,.5-1.8.5s-1.6-.2-2.3-.5c-.7-.3-1.4-.7-2-1.3l-1.4,1.7c.8.7,1.7,1.3,2.7,1.6,1,.4,2,.5,3,.5s1.4,0,2-.3c.6-.2,1.1-.4,1.5-.8s.8-.8,1-1.3c.2-.5.4-1.1.4-1.7s0-1.1-.3-1.5c-.2-.4-.5-.8-.8-1.1-.4-.3-.8-.6-1.4-.8-.6-.2-1.2-.4-1.9-.6-.7-.2-1.2-.3-1.6-.4-.4-.1-.8-.3-1-.5-.2-.2-.4-.3-.5-.5M105.2,61.5c-.2-.6-.5-1.1-1-1.5-.4-.4-.9-.8-1.5-1s-1.2-.4-1.9-.4-1.3.1-1.9.4c-.6.3-1.1.6-1.5,1-.4.4-.7.9-.9,1.5-.2.6-.3,1.2-.3,1.9s.1,1.3.3,1.9c.2.6.5,1.1,1,1.5.4.4.9.8,1.5,1,.6.3,1.2.4,1.9.4s1.3-.1,1.9-.4c.6-.3,1.1-.6,1.5-1,.4-.4.7-.9.9-1.5.2-.6.3-1.2.3-1.9s-.1-1.3-.3-1.9ZM107.6,66c-.4.9-.8,1.6-1.5,2.2-.6.6-1.4,1.1-2.3,1.5-.9.4-1.8.6-2.9.6s-2-.2-2.9-.6c-.9-.4-1.6-.9-2.3-1.5-.6-.6-1.1-1.4-1.5-2.2-.4-.9-.5-1.8-.5-2.7s.2-1.9.5-2.7c.4-.9.8-1.6,1.5-2.2.6-.6,1.4-1.1,2.3-1.5.9-.4,1.8-.6,2.9-.6s2,.2,2.9.6c.9.4,1.6.9,2.3,1.5.6.6,1.1,1.4,1.5,2.2.4.9.5,1.8.5,2.7s-.2,1.9-.5,2.7M115.3,59.3l-2.3,5.4h4.7l-2.4-5.4ZM122.5,70.1h-2.5l-1.4-3.3h-6.5l-1.4,3.3h-2.5l6-13.7h2.2l6,13.7h0ZM126,60.8c0-.2-.1-.4-.1-.7,0-.5.2-.8.6-1.2.4-.3.9-.5,1.6-.5s1.2.1,1.9.4c.6.2,1.2.6,1.9,1l1.3-1.8c-.7-.6-1.5-1-2.3-1.3-.8-.3-1.7-.4-2.7-.4s-1.3,0-1.9.3c-.6.2-1.1.5-1.5.8-.4.3-.7.8-1,1.3-.2.5-.3,1-.3,1.6s.1,1.2.3,1.6c.2.4.5.8.9,1.1.4.3.9.6,1.4.8.6.2,1.2.4,2,.6.6.2,1.2.3,1.6.4.4.1.7.3.9.5.2.2.4.3.5.5,0,.2.1.4.1.7,0,.5-.2,1-.7,1.3-.4.3-1,.5-1.8.5s-1.6-.2-2.3-.5c-.7-.3-1.4-.7-2-1.3l-1.4,1.7c.8.7,1.7,1.3,2.7,1.6,1,.4,2,.5,3,.5s1.4,0,2-.3c.6-.2,1.1-.4,1.5-.8.4-.3.8-.8,1-1.3.2-.5.4-1.1.4-1.7s0-1.1-.3-1.5c-.2-.4-.5-.8-.8-1.1s-.8-.6-1.4-.8c-.6-.2-1.2-.4-1.9-.6-.7-.2-1.2-.3-1.6-.4-.4-.1-.8-.3-1-.5-.2-.2-.4-.3-.5-.5M138.2,56.5h-2.4v13.6h2.4v-13.6ZM143.2,60.8c0-.2-.1-.4-.1-.7,0-.5.2-.8.6-1.2.4-.3.9-.5,1.6-.5s1.2.1,1.9.4c.6.2,1.2.6,1.9,1l1.3-1.8c-.7-.6-1.5-1-2.3-1.3-.8-.3-1.7-.4-2.7-.4s-1.3,0-1.9.3c-.6.2-1.1.5-1.5.8-.4.3-.7.8-1,1.3-.2.5-.3,1-.3,1.6s.1,1.2.3,1.6c.2.4.5.8.9,1.1.4.3.9.6,1.4.8.6.2,1.2.4,2,.6.6.2,1.2.3,1.6.4.4.1.7.3.9.5.2.2.4.3.5.5,0,.2.1.4.1.7,0,.5-.2,1-.7,1.3-.4.3-1,.5-1.8.5s-1.6-.2-2.3-.5c-.7-.3-1.4-.7-2-1.3l-1.4,1.7c.8.7,1.7,1.3,2.7,1.6,1,.4,2,.5,3,.5s1.4,0,2-.3c.6-.2,1.1-.4,1.5-.8.4-.3.8-.8,1-1.3.2-.5.4-1.1.4-1.7s0-1.1-.3-1.5-.5-.8-.8-1.1c-.4-.3-.8-.6-1.4-.8-.6-.2-1.2-.4-1.9-.6-.7-.2-1.2-.3-1.6-.4-.4-.1-.8-.3-1-.5-.2-.2-.4-.3-.5-.5M27.4,2.4C15.8,6.2,6.5,14.3,1.1,25.2c0,0,0,.2-.1.2l2.6,1.3c.4.2.6.7.4,1C1.3,33.3,0,39.4,0,45.8c0,.4.4.8.8.8.4,0,.8-.4.8-.8C1.4,28.6,12.6,12.8,29.1,7.3c16-5.4,33.7-.2,44.3,12.7.3.3.8.4,1.1.1.4-.3.4-.8.1-1.1-4.3-5.3-9.8-9.3-15.8-11.9-.4-.2-.6-.6-.4-1l.8-1.9c.2-.4,0-.9-.4-1-10-3.9-21.1-4.2-31.4-.8h0ZM67,20.6c13.7,13.6,13.7,35.7,0,49.2-.9.9-2.4.9-3.3,0-.9-.9-.9-2.4,0-3.2,11.9-11.8,11.9-31,0-42.7-11.9-11.8-31.2-11.8-43.1,0-5.8,5.7-8.9,13.3-8.9,21.4s3.2,15.7,8.9,21.4c.9.9.9,2.4,0,3.2-.5.4-1,.7-1.6.7s-1.2-.2-1.6-.7c-6.6-6.6-10.3-15.3-10.3-24.6s3.7-18,10.3-24.6c13.7-13.6,36-13.6,49.7,0h0ZM75.6,45.2c0-8.9-3.5-17.2-9.8-23.4-6.3-6.2-14.7-9.7-23.6-9.7s-17.3,3.4-23.6,9.7c-6.3,6.3-9.8,14.6-9.8,23.4s3.5,17.2,9.8,23.4c.1.1.3.2.4.2s.3,0,.4-.2c.2-.2.2-.6,0-.9-6.1-6-9.4-14-9.4-22.5s3.3-16.5,9.4-22.5c6.1-6,14.1-9.3,22.7-9.3s16.7,3.3,22.7,9.3c6.1,6,9.4,14,9.4,22.5s-3.3,16.5-9.4,22.5c-.2.2-.2.6,0,.9.1.1.3.2.4.2s.3,0,.4-.2c6.3-6.2,9.8-14.6,9.8-23.4h0ZM75.3,67.7c-5.9,8.6-14.7,14.4-24.9,16.6-.4,0-.7.5-.6.9,0,.4.5.7,1,.6,5.1-1.1,9.8-3,14-5.7.4-.2.9-.1,1.1.2l1.1,1.7c.3.4.8.5,1.1.2,4.5-3.1,8.4-7,11.5-11.6,1.2-1.8,2.3-3.6,3.2-5.5,4.3-8.6,5.7-18.3,4-27.9,0-.4-.5-.7-.9-.6l-2,.4c-.4,0-.8-.2-.9-.6-.4-1.8-.9-3.6-1.5-5.4-.2-.4-.6-.6-1-.5h0c-.4.2-.6.6-.5,1,4.4,12.1,2.7,25.6-4.6,36.2h0ZM26,55.6c0,4.5,3.7,8.1,8.1,8.1h10.4c10,0,18.2-8.1,18.2-18s-8.2-18-18.2-18h-15.6c-1.6,0-2.9,1.3-2.9,2.8s1.3,2.8,2.9,2.8h15.5c7,0,12.7,5.6,12.7,12.5s-5.7,12.5-12.7,12.5h-10.3c-1.3,0-2.3-1-2.3-2.3s1-2.3,2.3-2.3h10.3c4.4,0,8-3.6,8-8s-3.6-8-8-8h-15.5c-4.1,0-7.5-3.3-7.5-7.4s3.4-7.4,7.5-7.4h15.6c12.6,0,22.8,10.1,22.8,22.6s-10.2,22.6-22.8,22.6h-10.4c-7,0-12.8-5.7-12.8-12.7s5.7-12.7,12.8-12.7h10.3c1.3,0,2.3,1,2.3,2.3s-1,2.3-2.3,2.3h-10.3c-4.5,0-8.1,3.6-8.1,8.1h0ZM34.2,45.9h10.3c.3,0,.6-.3.6-.6s-.3-.6-.6-.6h-10.3c-6.1,0-11.1,4.9-11.1,11s5,11,11.1,11h10.4c11.6,0,21.1-9.4,21.1-20.9s-9.5-20.9-21.1-20.9h-15.6c-3.2,0-5.8,2.6-5.8,5.7s2.6,5.7,5.8,5.7h15.5c5.4,0,9.7,4.3,9.7,9.6s-4.4,9.6-9.7,9.6h-10.3c-.3,0-.6.3-.6.6s.3.6.6.6h10.3c6,0,11-4.9,11-10.9s-4.9-10.9-11-10.9h-15.5c-2.5,0-4.5-2-4.5-4.5s2-4.5,4.5-4.5h15.6c11,0,19.9,8.8,19.9,19.7s-8.9,19.7-19.9,19.7h-10.4c-5.4,0-9.8-4.4-9.8-9.8s4.4-9.8,9.8-9.8ZM22,79.9c-9.1-5.1-15.7-13.4-18.7-23.3-.1-.4-.6-.7-1-.5-.4.1-.7.6-.6,1,1.5,4.9,3.8,9.4,6.9,13.4.3.3.2.8-.1,1.1l-1.6,1.3c-.4.3-.4.8-.1,1.1,3.5,4.2,7.7,7.7,12.6,10.5,5.2,2.9,10.7,4.8,16.6,5.6.4,0,.9-.3.9-.7l.2-2c0-.4.4-.7.9-.7,1.6.2,3.2.2,4.8.2.5,0,.8-.4.8-.8,0-.4-.4-.8-.8-.8-7.2.1-14.4-1.7-20.7-5.3Z"/>
  </g>
  <g id="Layer_2" class="st3">
    <path class="st4" d="M103.9,24.9c-.2-.6-.5-1.1-1-1.5-.4-.4-.9-.7-1.5-1-.6-.2-1.2-.4-2-.4h-2.7v9.3h2.7c.7,0,1.4-.1,2-.3.6-.2,1.1-.5,1.5-1,.4-.4.7-.9,1-1.5.2-.6.3-1.2.3-1.9s-.1-1.3-.3-1.9M106.2,29.4c-.4.8-.9,1.6-1.5,2.2-.6.6-1.4,1.1-2.3,1.4-.9.3-1.9.5-2.9.5h-5.1v-13.6h5.1c1.1,0,2.1.2,2.9.5.9.3,1.7.8,2.3,1.4.6.6,1.1,1.3,1.5,2.2s.5,1.7.5,2.7-.2,1.9-.5,2.7ZM111.4,19.9h-2.4v13.6h2.4v-13.6ZM125.4,32.5c.4-.3.8-.5,1.1-.8v-5.7h-5.8v2.1h3.5v2.6c-.4.3-.9.6-1.5.8-.6.2-1.2.3-1.8.3s-1.3-.1-1.9-.4-1.1-.6-1.5-1c-.4-.4-.7-.9-.9-1.5s-.3-1.2-.3-1.9.1-1.3.3-1.9c.2-.6.5-1.1.9-1.5.4-.4.9-.8,1.4-1,.5-.3,1.1-.4,1.8-.4s.8,0,1.2.1c.4,0,.7.2,1,.3.3.1.6.3.9.5.3.2.5.4.8.6l1.5-1.8c-.4-.3-.7-.6-1.1-.8-.4-.2-.8-.4-1.2-.6-.4-.2-.9-.3-1.4-.4-.5,0-1-.1-1.6-.1-1,0-2,.2-2.8.6-.9.4-1.6.9-2.2,1.5-.6.6-1.1,1.4-1.5,2.2-.3.9-.5,1.8-.5,2.7s.2,1.9.5,2.8c.3.9.8,1.6,1.4,2.2.6.6,1.4,1.1,2.2,1.5.9.4,1.8.5,2.9.5s1.2,0,1.7-.2c.5-.1,1.1-.3,1.5-.5.5-.2.9-.4,1.3-.7M131.4,19.9h-2.4v13.6h2.4v-13.6ZM140.1,22.1h4.3v-2.2h-11.1v2.2h4.3v11.4h2.4v-11.4ZM150.4,22.7l-2.3,5.4h4.7l-2.4-5.4ZM157.6,33.5h-2.5l-1.4-3.3h-6.5l-1.4,3.3h-2.5l6-13.7h2.2l6,13.7h0ZM159.1,19.9v13.6h9.6v-2.2h-7.2v-11.4h-2.4ZM100.3,41l-2.3,5.4h4.7l-2.4-5.4ZM107.5,51.8h-2.5l-1.4-3.3h-6.5l-1.4,3.3h-2.5l6-13.7h2.2l6,13.7h0ZM111,42.5c0-.2-.1-.4-.1-.7,0-.5.2-.8.6-1.2.4-.3.9-.5,1.6-.5s1.2.1,1.9.4c.6.2,1.2.6,1.9,1l1.3-1.8c-.7-.6-1.5-1-2.3-1.3-.8-.3-1.7-.4-2.7-.4s-1.3,0-1.9.3c-.6.2-1.1.5-1.5.8-.4.3-.7.8-1,1.3-.2.5-.3,1-.3,1.6s.1,1.2.3,1.6c.2.4.5.8.9,1.1.4.3.9.6,1.4.8.6.2,1.2.4,2,.6.6.2,1.2.3,1.6.4.4.1.7.3.9.5.2.2.4.3.5.5,0,.2.1.4.1.7,0,.5-.2,1-.7,1.3-.4.3-1,.5-1.8.5s-1.6-.2-2.3-.5c-.7-.3-1.4-.7-2-1.3l-1.4,1.7c.8.7,1.7,1.3,2.7,1.6,1,.4,2,.5,3,.5s1.4,0,2-.3c.6-.2,1.1-.4,1.5-.8.4-.3.8-.8,1-1.3.2-.5.4-1.1.4-1.7s0-1.1-.3-1.5c-.2-.4-.5-.8-.8-1.1-.4-.3-.8-.6-1.4-.8-.6-.2-1.2-.4-1.9-.6-.7-.2-1.2-.3-1.6-.4-.4-.1-.8-.3-1-.5-.2-.2-.4-.3-.5-.5M122.6,42.5c0-.2-.1-.4-.1-.7,0-.5.2-.8.6-1.2.4-.3.9-.5,1.6-.5s1.2.1,1.9.4c.6.2,1.2.6,1.9,1l1.3-1.8c-.7-.6-1.5-1-2.3-1.3-.8-.3-1.7-.4-2.7-.4s-1.3,0-1.9.3c-.6.2-1.1.5-1.5.8-.4.3-.7.8-1,1.3-.2.5-.3,1-.3,1.6s.1,1.2.3,1.6c.2.4.5.8.9,1.1.4.3.9.6,1.4.8.6.2,1.2.4,2,.6.6.2,1.2.3,1.6.4.4.1.7.3.9.5.2.2.4.3.5.5,0,.2.1.4.1.7,0,.5-.2,1-.7,1.3-.4.3-1,.5-1.8.5s-1.6-.2-2.3-.5c-.7-.3-1.4-.7-2-1.3l-1.4,1.7c.8.7,1.7,1.3,2.7,1.6s2,.5,3,.5,1.4,0,2-.3c.6-.2,1.1-.4,1.5-.8.4-.3.8-.8,1-1.3.2-.5.4-1.1.4-1.7s0-1.1-.3-1.5c-.2-.4-.5-.8-.8-1.1-.4-.3-.8-.6-1.4-.8-.6-.2-1.2-.4-1.9-.6-.7-.2-1.2-.3-1.6-.4-.4-.1-.8-.3-1-.5-.2-.2-.4-.3-.5-.5M142.3,38.2h-10.1v13.6h10.2v-2.2h-7.9v-3.6h6.9v-2.2h-6.9v-3.5h7.8v-2.2h0ZM150.3,40.5h4.3v-2.2h-11.1v2.2h4.3v11.4h2.4v-11.4ZM158.3,42.5c0-.2-.1-.4-.1-.7,0-.5.2-.8.6-1.2.4-.3.9-.5,1.6-.5s1.2.1,1.9.4c.6.2,1.2.6,1.9,1l1.3-1.8c-.7-.6-1.5-1-2.3-1.3-.8-.3-1.7-.4-2.7-.4s-1.3,0-1.9.3c-.6.2-1.1.5-1.5.8s-.7.8-1,1.3c-.2.5-.3,1-.3,1.6s.1,1.2.3,1.6c.2.4.5.8.9,1.1.4.3.9.6,1.4.8.6.2,1.2.4,2,.6.6.2,1.2.3,1.6.4s.7.3.9.5c.2.2.4.3.5.5,0,.2.1.4.1.7,0,.5-.2,1-.7,1.3-.4.3-1,.5-1.8.5s-1.6-.2-2.3-.5c-.7-.3-1.4-.7-2-1.3l-1.4,1.7c.8.7,1.7,1.3,2.7,1.6,1,.4,2,.5,3,.5s1.4,0,2-.3c.6-.2,1.1-.4,1.5-.8s.8-.8,1-1.3c.2-.5.4-1.1.4-1.7s0-1.1-.3-1.5c-.2-.4-.5-.8-.8-1.1-.4-.3-.8-.6-1.4-.8-.6-.2-1.2-.4-1.9-.6-.7-.2-1.2-.3-1.6-.4-.4-.1-.8-.3-1-.5-.2-.2-.4-.3-.5-.5M105.2,61.5c-.2-.6-.5-1.1-1-1.5-.4-.4-.9-.8-1.5-1s-1.2-.4-1.9-.4-1.3.1-1.9.4c-.6.3-1.1.6-1.5,1-.4.4-.7.9-.9,1.5-.2.6-.3,1.2-.3,1.9s.1,1.3.3,1.9c.2.6.5,1.1,1,1.5.4.4.9.8,1.5,1,.6.3,1.2.4,1.9.4s1.3-.1,1.9-.4c.6-.3,1.1-.6,1.5-1,.4-.4.7-.9.9-1.5.2-.6.3-1.2.3-1.9s-.1-1.3-.3-1.9ZM107.6,66c-.4.9-.8,1.6-1.5,2.2-.6.6-1.4,1.1-2.3,1.5-.9.4-1.8.6-2.9.6s-2-.2-2.9-.6c-.9-.4-1.6-.9-2.3-1.5-.6-.6-1.1-1.4-1.5-2.2-.4-.9-.5-1.8-.5-2.7s.2-1.9.5-2.7c.4-.9.8-1.6,1.5-2.2.6-.6,1.4-1.1,2.3-1.5.9-.4,1.8-.6,2.9-.6s2,.2,2.9.6c.9.4,1.6.9,2.3,1.5.6.6,1.1,1.4,1.5,2.2.4.9.5,1.8.5,2.7s-.2,1.9-.5,2.7M115.3,59.3l-2.3,5.4h4.7l-2.4-5.4ZM122.5,70.1h-2.5l-1.4-3.3h-6.5l-1.4,3.3h-2.5l6-13.7h2.2l6,13.7h0ZM126,60.8c0-.2-.1-.4-.1-.7,0-.5.2-.8.6-1.2.4-.3.9-.5,1.6-.5s1.2.1,1.9.4c.6.2,1.2.6,1.9,1l1.3-1.8c-.7-.6-1.5-1-2.3-1.3-.8-.3-1.7-.4-2.7-.4s-1.3,0-1.9.3c-.6.2-1.1.5-1.5.8-.4.3-.7.8-1,1.3-.2.5-.3,1-.3,1.6s.1,1.2.3,1.6c.2.4.5.8.9,1.1.4.3.9.6,1.4.8.6.2,1.2.4,2,.6.6.2,1.2.3,1.6.4.4.1.7.3.9.5.2.2.4.3.5.5,0,.2.1.4.1.7,0,.5-.2,1-.7,1.3-.4.3-1,.5-1.8.5s-1.6-.2-2.3-.5c-.7-.3-1.4-.7-2-1.3l-1.4,1.7c.8.7,1.7,1.3,2.7,1.6,1,.4,2,.5,3,.5s1.4,0,2-.3c.6-.2,1.1-.4,1.5-.8.4-.3.8-.8,1-1.3.2-.5.4-1.1.4-1.7s0-1.1-.3-1.5c-.2-.4-.5-.8-.8-1.1s-.8-.6-1.4-.8c-.6-.2-1.2-.4-1.9-.6-.7-.2-1.2-.3-1.6-.4-.4-.1-.8-.3-1-.5-.2-.2-.4-.3-.5-.5M138.2,56.5h-2.4v13.6h2.4v-13.6ZM143.2,60.8c0-.2-.1-.4-.1-.7,0-.5.2-.8.6-1.2.4-.3.9-.5,1.6-.5s1.2.1,1.9.4c.6.2,1.2.6,1.9,1l1.3-1.8c-.7-.6-1.5-1-2.3-1.3-.8-.3-1.7-.4-2.7-.4s-1.3,0-1.9.3c-.6.2-1.1.5-1.5.8-.4.3-.7.8-1,1.3-.2.5-.3,1-.3,1.6s.1,1.2.3,1.6c.2.4.5.8.9,1.1.4.3.9.6,1.4.8.6.2,1.2.4,2,.6.6.2,1.2.3,1.6.4.4.1.7.3.9.5.2.2.4.3.5.5,0,.2.1.4.1.7,0,.5-.2,1-.7,1.3-.4.3-1,.5-1.8.5s-1.6-.2-2.3-.5c-.7-.3-1.4-.7-2-1.3l-1.4,1.7c.8.7,1.7,1.3,2.7,1.6,1,.4,2,.5,3,.5s1.4,0,2-.3c.6-.2,1.1-.4,1.5-.8.4-.3.8-.8,1-1.3.2-.5.4-1.1.4-1.7s0-1.1-.3-1.5-.5-.8-.8-1.1c-.4-.3-.8-.6-1.4-.8-.6-.2-1.2-.4-1.9-.6-.7-.2-1.2-.3-1.6-.4-.4-.1-.8-.3-1-.5-.2-.2-.4-.3-.5-.5M27.4,2.4C15.8,6.2,6.5,14.3,1.1,25.2c0,0,0,.2-.1.2l2.6,1.3c.4.2.6.7.4,1C1.3,33.3,0,39.4,0,45.8c0,.4.4.8.8.8.4,0,.8-.4.8-.8C1.4,28.6,12.6,12.8,29.1,7.3c16-5.4,33.7-.2,44.3,12.7.3.3.8.4,1.1.1.4-.3.4-.8.1-1.1-4.3-5.3-9.8-9.3-15.8-11.9-.4-.2-.6-.6-.4-1l.8-1.9c.2-.4,0-.9-.4-1-10-3.9-21.1-4.2-31.4-.8h0ZM67,20.6c13.7,13.6,13.7,35.7,0,49.2-.9.9-2.4.9-3.3,0-.9-.9-.9-2.4,0-3.2,11.9-11.8,11.9-31,0-42.7-11.9-11.8-31.2-11.8-43.1,0-5.8,5.7-8.9,13.3-8.9,21.4s3.2,15.7,8.9,21.4c.9.9.9,2.4,0,3.2-.5.4-1,.7-1.6.7s-1.2-.2-1.6-.7c-6.6-6.6-10.3-15.3-10.3-24.6s3.7-18,10.3-24.6c13.7-13.6,36-13.6,49.7,0h0ZM75.6,45.2c0-8.9-3.5-17.2-9.8-23.4-6.3-6.2-14.7-9.7-23.6-9.7s-17.3,3.4-23.6,9.7c-6.3,6.3-9.8,14.6-9.8,23.4s3.5,17.2,9.8,23.4c.1.1.3.2.4.2s.3,0,.4-.2c.2-.2.2-.6,0-.9-6.1-6-9.4-14-9.4-22.5s3.3-16.5,9.4-22.5c6.1-6,14.1-9.3,22.7-9.3s16.7,3.3,22.7,9.3c6.1,6,9.4,14,9.4,22.5s-3.3,16.5-9.4,22.5c-.2.2-.2.6,0,.9.1.1.3.2.4.2s.3,0,.4-.2c6.3-6.2,9.8-14.6,9.8-23.4h0ZM75.3,67.7c-5.9,8.6-14.7,14.4-24.9,16.6-.4,0-.7.5-.6.9,0,.4.5.7,1,.6,5.1-1.1,9.8-3,14-5.7.4-.2.9-.1,1.1.2l1.1,1.7c.3.4.8.5,1.1.2,4.5-3.1,8.4-7,11.5-11.6,1.2-1.8,2.3-3.6,3.2-5.5,4.3-8.6,5.7-18.3,4-27.9,0-.4-.5-.7-.9-.6l-2,.4c-.4,0-.8-.2-.9-.6-.4-1.8-.9-3.6-1.5-5.4-.2-.4-.6-.6-1-.5h0c-.4.2-.6.6-.5,1,4.4,12.1,2.7,25.6-4.6,36.2h0ZM26,55.6c0,4.5,3.7,8.1,8.1,8.1h10.4c10,0,18.2-8.1,18.2-18s-8.2-18-18.2-18h-15.6c-1.6,0-2.9,1.3-2.9,2.8s1.3,2.8,2.9,2.8h15.5c7,0,12.7,5.6,12.7,12.5s-5.7,12.5-12.7,12.5h-10.3c-1.3,0-2.3-1-2.3-2.3s1-2.3,2.3-2.3h10.3c4.4,0,8-3.6,8-8s-3.6-8-8-8h-15.5c-4.1,0-7.5-3.3-7.5-7.4s3.4-7.4,7.5-7.4h15.6c12.6,0,22.8,10.1,22.8,22.6s-10.2,22.6-22.8,22.6h-10.4c-7,0-12.8-5.7-12.8-12.7s5.7-12.7,12.8-12.7h10.3c1.3,0,2.3,1,2.3,2.3s-1,2.3-2.3,2.3h-10.3c-4.5,0-8.1,3.6-8.1,8.1h0ZM34.2,45.9h10.3c.3,0,.6-.3.6-.6s-.3-.6-.6-.6h-10.3c-6.1,0-11.1,4.9-11.1,11s5,11,11.1,11h10.4c11.6,0,21.1-9.4,21.1-20.9s-9.5-20.9-21.1-20.9h-15.6c-3.2,0-5.8,2.6-5.8,5.7s2.6,5.7,5.8,5.7h15.5c5.4,0,9.7,4.3,9.7,9.6s-4.4,9.6-9.7,9.6h-10.3c-.3,0-.6.3-.6.6s.3.6.6.6h10.3c6,0,11-4.9,11-10.9s-4.9-10.9-11-10.9h-15.5c-2.5,0-4.5-2-4.5-4.5s2-4.5,4.5-4.5h15.6c11,0,19.9,8.8,19.9,19.7s-8.9,19.7-19.9,19.7h-10.4c-5.4,0-9.8-4.4-9.8-9.8s4.4-9.8,9.8-9.8ZM22,79.9c-9.1-5.1-15.7-13.4-18.7-23.3-.1-.4-.6-.7-1-.5-.4.1-.7.6-.6,1,1.5,4.9,3.8,9.4,6.9,13.4.3.3.2.8-.1,1.1l-1.6,1.3c-.4.3-.4.8-.1,1.1,3.5,4.2,7.7,7.7,12.6,10.5,5.2,2.9,10.7,4.8,16.6,5.6.4,0,.9-.3.9-.7l.2-2c0-.4.4-.7.9-.7,1.6.2,3.2.2,4.8.2.5,0,.8-.4.8-.8,0-.4-.4-.8-.8-.8-7.2.1-14.4-1.7-20.7-5.3Z"/>
  </g>
  <g id="Layer_3" class="st3">
    <g>
      <g>
        <path d="M363.9,27.4v38.3l-.4-.6c-5.6-11-10.3-22.7-16-33.7-1.5-3-4-4.9-7.5-3.8-2.2.7-4.3,3-4.3,5.4v41.8h6.9v-38.3l.3.3,17.5,36.3c1.4,2.8,7.6,3.6,9.4.9.1-.2.5-1.2.5-1.3V27.4h-6.2Z"/>
        <path d="M120.8,49.5c2-1.6,3.7-3.1,4.3-5.8,1.3-6-.1-11.9-5.7-15-10.2-5.6-23.1-.4-24.3,11.7v34.5h6.9l.2-.2v-34.8c0-.6.7-2.6,1-3.2,1.7-3.7,4.8-4.6,8.6-4.3,9.3.7,10.2,14.1.2,14.8-2.5.2-5.3-.1-7.8,0v5.8c5.7.4,16.8-1.4,17.5,6.9.4,3.9-.9,6.6-4.7,8-3.7,1.4-8.6.1-12.5.6-.2,0-.3,0-.4.2v6.3c3.8-.2,7.8.2,11.6,0,9.5-.5,14.4-9.3,11.9-18.1-1-3.5-3.2-6.1-6.8-7.3Z"/>
        <path d="M179.8,26.6c-8.9.6-18.3,7.1-21.1,15.7-1.9,5.8-1.6,13.8.7,19.4,6.1,15,29.6,18.6,40.3,6.7,5.9-6.6,7.8-15.1,5.8-23.7-2.6-11.4-14.2-18.7-25.7-18ZM198.7,58.2c-2.9,10.8-17.9,14.8-26.7,8.6-13.3-9.4-8.8-33.7,8.6-34.4,2.4,0,5.2.2,7.4.9,9.9,3.1,13.1,15.8,10.6,24.9Z"/>
        <path d="M272.8,43.9l6.9-16.5h-7.8l-.2.3c-2.1,4.6-3.8,9.5-6,14-1,2.1-3.3,5.9-5.8,6.1-.3,0-.4-.2-.4-.2h-6.3v-20.1l-.2-.2h-6.7v47.5h6.7l.2-.2v-21.2c4.2.3,8.8-.5,12.8.9,2.2.7,4.2,3.9,4.2,6.1v14.3h6.9v-14.9c-.2-1.5-.4-3-.9-4.3-1.4-3.6-5-5.6-8.5-6.7,2.2-1.2,4-2.8,5.2-5Z"/>
        <path d="M240.6,27.5c-3.6,0-7.4-.2-10.9.7-8.2,2.1-16.4,9.4-18.1,17.9-2.6,13.2,4.8,27.7,19.2,28.7,3.2-.1,7.2.5,10.3.1.2,0,.3,0,.4-.2v-5.6c-.7-.4-1.7,0-2.5,0-8.3.2-15-1-19.3-8.9-6.9-12.5,2.7-25.9,16.2-26.9,1.8-.1,3.7,0,5.5,0v-5.7c0-.3-.6,0-.8,0Z"/>
        <path d="M140.4,59.9V27.8s-.2-.4-.2-.4h-6.2v35.1c.5,7.8,6.5,12.1,14,12.4,2,0,5.5.2,7.5,0,.2,0,.3,0,.4-.2v-5.7l-7.3.2c-5.8-.2-7.6-4-8.2-9.2Z"/>
        <path d="M304.2,26.6c-8.9.6-18.3,7.1-21.1,15.7-1.9,5.8-1.6,13.8.7,19.4,6.1,15,29.6,18.6,40.3,6.7,5.9-6.6,7.8-15.1,5.8-23.7-2.6-11.4-14.2-18.7-25.7-18ZM323.1,58.2c-2.9,10.8-17.9,14.8-26.7,8.6-13.3-9.4-8.8-33.7,8.6-34.4,2.4,0,5.2.2,7.4.9,9.9,3.1,13.1,15.8,10.6,24.9Z"/>
      </g>
      <g>
        <path class="st2" d="M0,26.8v62.4c0,.5.4.8.8.8h62.4c.5,0,.8-.4.8-.8V26.8c0-.5-.4-.8-.8-.8H.8c-.5,0-.8.4-.8.8ZM49.3,77.4H13.4c-.5,0-.8-.4-.8-.8v-33.2c0-.5.4-.8.8-.8h36c.5,0,.8.4.8.8v33.2c0,.5-.4.8-.8.8Z"/>
        <path class="st1" d="M30.9,61.6c0,0,.1-.2.1-.3v-18.4c0-.1,0-.2.2-.2h18.1s.3,0,.5.1.2,0,.3,0l13.7-16.5c-.2-.2-.5-.3-.6-.3h-32c-.1,0-.2,0-.2-.2V.7c0-.6-.6-.9-1.1-.5L.2,25.1c-.1.1-.2.3-.2.5v63.6c0,.1,0,.4.3.6"/>
      </g>
    </g>
  </g>
  <g id="Layer_3_copy">
    <g>
      <g>
        <path class="st0" d="M363.9,27.4v38.3l-.4-.6c-5.6-11-10.3-22.7-16-33.7-1.5-3-4-4.9-7.5-3.8-2.2.7-4.3,3-4.3,5.4v41.8h6.9v-38.3l.3.3,17.5,36.3c1.4,2.8,7.6,3.6,9.4.9.1-.2.5-1.2.5-1.3V27.4h-6.2Z"/>
        <path class="st0" d="M120.8,49.5c2-1.6,3.7-3.1,4.3-5.8,1.3-6-.1-11.9-5.7-15-10.2-5.6-23.1-.4-24.3,11.7v34.5h6.9l.2-.2v-34.8c0-.6.7-2.6,1-3.2,1.7-3.7,4.8-4.6,8.6-4.3,9.3.7,10.2,14.1.2,14.8-2.5.2-5.3-.1-7.8,0v5.8c5.7.4,16.8-1.4,17.5,6.9.4,3.9-.9,6.6-4.7,8-3.7,1.4-8.6.1-12.5.6-.2,0-.3,0-.4.2v6.3c3.8-.2,7.8.2,11.6,0,9.5-.5,14.4-9.3,11.9-18.1-1-3.5-3.2-6.1-6.8-7.3Z"/>
        <path class="st0" d="M179.8,26.6c-8.9.6-18.3,7.1-21.1,15.7-1.9,5.8-1.6,13.8.7,19.4,6.1,15,29.6,18.6,40.3,6.7,5.9-6.6,7.8-15.1,5.8-23.7-2.6-11.4-14.2-18.7-25.7-18ZM198.7,58.2c-2.9,10.8-17.9,14.8-26.7,8.6-13.3-9.4-8.8-33.7,8.6-34.4,2.4,0,5.2.2,7.4.9,9.9,3.1,13.1,15.8,10.6,24.9Z"/>
        <path class="st0" d="M272.8,43.9l6.9-16.5h-7.8l-.2.3c-2.1,4.6-3.8,9.5-6,14-1,2.1-3.3,5.9-5.8,6.1-.3,0-.4-.2-.4-.2h-6.3v-20.1l-.2-.2h-6.7v47.5h6.7l.2-.2v-21.2c4.2.3,8.8-.5,12.8.9,2.2.7,4.2,3.9,4.2,6.1v14.3h6.9v-14.9c-.2-1.5-.4-3-.9-4.3-1.4-3.6-5-5.6-8.5-6.7,2.2-1.2,4-2.8,5.2-5Z"/>
        <path class="st0" d="M240.6,27.5c-3.6,0-7.4-.2-10.9.7-8.2,2.1-16.4,9.4-18.1,17.9-2.6,13.2,4.8,27.7,19.2,28.7,3.2-.1,7.2.5,10.3.1.2,0,.3,0,.4-.2v-5.6c-.7-.4-1.7,0-2.5,0-8.3.2-15-1-19.3-8.9-6.9-12.5,2.7-25.9,16.2-26.9,1.8-.1,3.7,0,5.5,0v-5.7c0-.3-.6,0-.8,0Z"/>
        <path class="st0" d="M140.4,59.9V27.8s-.2-.4-.2-.4h-6.2v35.1c.5,7.8,6.5,12.1,14,12.4,2,0,5.5.2,7.5,0,.2,0,.3,0,.4-.2v-5.7l-7.3.2c-5.8-.2-7.6-4-8.2-9.2Z"/>
        <path class="st0" d="M304.2,26.6c-8.9.6-18.3,7.1-21.1,15.7-1.9,5.8-1.6,13.8.7,19.4,6.1,15,29.6,18.6,40.3,6.7,5.9-6.6,7.8-15.1,5.8-23.7-2.6-11.4-14.2-18.7-25.7-18ZM323.1,58.2c-2.9,10.8-17.9,14.8-26.7,8.6-13.3-9.4-8.8-33.7,8.6-34.4,2.4,0,5.2.2,7.4.9,9.9,3.1,13.1,15.8,10.6,24.9Z"/>
      </g>
      <g>
        <path class="st2" d="M0,26.8v62.4c0,.5.4.8.8.8h62.4c.5,0,.8-.4.8-.8V26.8c0-.5-.4-.8-.8-.8H.8c-.5,0-.8.4-.8.8ZM49.3,77.4H13.4c-.5,0-.8-.4-.8-.8v-33.2c0-.5.4-.8.8-.8h36c.5,0,.8.4.8.8v33.2c0,.5-.4.8-.8.8Z"/>
        <path class="st1" d="M30.9,61.6c0,0,.1-.2.1-.3v-18.4c0-.1,0-.2.2-.2h18.1s.3,0,.5.1.2,0,.3,0l13.7-16.5c-.2-.2-.5-.3-.6-.3h-32c-.1,0-.2,0-.2-.2V.7c0-.6-.6-.9-1.1-.5L.2,25.1c-.1.1-.2.3-.2.5v63.6c0,.1,0,.4.3.6"/>
      </g>
    </g>
  </g>
</svg>