<?xml version="1.0" encoding="UTF-8"?>
<!DOCTYPE svg PUBLIC "-//W3C//DTD SVG 1.1//EN" "http://www.w3.org/Graphics/SVG/1.1/DTD/svg11.dtd">
<!-- Creator: CorelDRAW -->
<svg xmlns="http://www.w3.org/2000/svg" xml:space="preserve" width="229.464mm" height="73.3453mm" style="shape-rendering:geometricPrecision; text-rendering:geometricPrecision; image-rendering:optimizeQuality; fill-rule:evenodd; clip-rule:evenodd"
viewBox="0 0 214.94 68.7029"
 xmlns:xlink="http://www.w3.org/1999/xlink">
 <defs>
  <style type="text/css">
   <![CDATA[
    .fil0 {fill:#2B2A29;fill-rule:nonzero}
   ]]>
  </style>
 </defs>
 <g id="Layer_x0020_1">
  <metadata id="CorelCorpID_0Corel-Layer"/>
  <path class="fil0" d="M19.4228 45.2214c0,3.39462 0.885561,6.08071 2.65659,8.04367 1.77112,1.96296 4.20637,2.93704 7.32044,2.93704 3.14368,0 5.60843,-0.974079 7.39425,-2.92233 1.78583,-1.94816 2.68609,-4.63425 2.68609,-8.05838 0,-3.39452 -0.900267,-6.08062 -2.70089,-8.04358 -1.80053,-1.96296 -4.26529,-2.93704 -7.37945,-2.93704 -3.11408,0 -5.54932,0.974079 -7.32044,2.93704 -1.77103,1.96296 -2.65659,4.64905 -2.65659,8.04358zm-13.6668 -45.2214l14.6999 0 0 22.8321c0,1.84493 -0.0295062,3.37982 -0.103319,4.60484 -0.0737187,1.22502 -0.191837,2.27282 -0.324662,3.17318 1.78583,-3.11417 3.83731,-5.32798 6.15453,-6.65632 2.31713,-1.32825 5.34268,-1.99246 9.06196,-1.99246 5.81497,0 10.5378,2.14009 14.1538,6.42018 3.61596,4.28009 5.4313,9.88851 5.4313,16.8399 0,7.18762 -1.83013,12.8846 -5.4756,17.1204 -3.64537,4.23578 -8.51586,6.36107 -14.6261,6.36107 -2.99605,0 -5.72645,-0.723136 -8.1764,-2.1843 -2.45005,-1.46117 -4.64915,-3.66027 -6.61201,-6.59721l0 7.09901 -14.1834 0 0 -67.0204z"/>
  <path id="1" class="fil0" d="M62.8302 67.0204l0 -43.6717 14.5229 0 0 10.287c1.50538,-3.73399 3.55686,-6.553 6.13973,-8.42735 2.59758,-1.87435 5.74116,-2.80421 9.43093,-2.80421 0.605111,0 1.22502,0.0147999 1.84484,0.0590124 0.619911,0.0443061 1.23973,0.118118 1.87444,0.191931l-1.47597 14.021c-0.914973,-0.324756 -1.83004,-0.546099 -2.7304,-0.693724 -0.885467,-0.147531 -1.75632,-0.221343 -2.58278,-0.221343 -3.74879,0 -6.64152,1.15121 -8.67829,3.43883 -2.02197,2.28762 -3.04036,5.54932 -3.04036,9.75569l0 18.0649 -15.305 0z"/>
  <path id="12" class="fil0" d="M100.585 9.72618c0,-2.33193 0.826455,-4.32439 2.47946,-5.96259 1.6678,-1.6383 3.66027,-2.46475 5.99219,-2.46475 2.42045,0 4.44242,0.811748 6.08062,2.42045 1.6235,1.6087 2.43525,3.61596 2.43525,6.0069 0,2.39094 -0.826455,4.42771 -2.47946,6.09542 -1.6678,1.6678 -3.67497,2.50906 -6.03641,2.50906 -2.30242,0 -4.29489,-0.856055 -5.96259,-2.55327 -1.6678,-1.69731 -2.50906,-3.71928 -2.50906,-6.05121zm0.767442 57.2942l0 -43.6717 15.4378 0 0 43.6717 -15.4378 0z"/>
  <path id="123" class="fil0" d="M127.168 67.0204l0 -43.6717 14.0948 0 0 8.85533c2.03677,-3.54206 4.41291,-6.13963 7.0843,-7.77793 2.68609,-1.6382 5.90358,-2.46475 9.65237,-2.46475 2.81892,0 5.34268,0.45758 7.54179,1.35785 2.21381,0.915067 3.99964,2.21381 5.38699,3.91112 1.15121,1.47587 1.97776,3.2617 2.46475,5.37228 0.487087,2.09569 0.737936,5.23936 0.737936,9.41613l0 25.0017 -15.4378 0 0 -23.3929c0,-3.49794 -0.575605,-6.0217 -1.71202,-7.6156 -1.13641,-1.57928 -2.96654,-2.37623 -5.4756,-2.37623 -3.20269,0 -5.53461,1.18072 -6.99569,3.54215 -1.47597,2.36143 -2.2139,6.19874 -2.2139,11.512l0 18.3306 -15.1279 0z"/>
  <path id="1234" class="fil0" d="M214.94 37.7091c-1.50538,-1.32825 -2.93704,-2.28762 -4.3243,-2.89273 -1.38735,-0.605111 -2.83372,-0.915067 -4.3687,-0.915067 -3.05506,0 -5.49031,1.00359 -7.29094,3.02556 -1.80053,2.02197 -2.70089,4.75237 -2.70089,8.206 0,3.35031 0.929867,6.0069 2.80421,7.99937 1.87444,1.99246 4.3982,2.98125 7.57139,2.98125 1.56439,0 3.02556,-0.309862 4.39811,-0.929773 1.37265,-0.619911 2.67139,-1.57919 3.91112,-2.87803l0 13.3716c-1.84484,1.03309 -3.68968,1.80053 -5.53461,2.28762 -1.84484,0.487087 -3.74869,0.737936 -5.71165,0.737936 -6.71533,0 -12.1466,-2.1548 -16.3234,-6.46439 -4.16206,-4.30959 -6.24304,-9.97703 -6.24304,-17.0171 0,-6.83336 2.12529,-12.4122 6.37587,-16.7514 4.25058,-4.3391 9.71138,-6.50869 16.3677,-6.50869 2.21381,0 4.22098,0.221437 6.00681,0.649417 1.78583,0.42798 3.48314,1.1217 5.06233,2.08098l0 13.0174z"/>
 </g>
</svg>
