<?xml version="1.0" encoding="UTF-8"?>
<!DOCTYPE svg PUBLIC "-//W3C//DTD SVG 1.1//EN" "http://www.w3.org/Graphics/SVG/1.1/DTD/svg11.dtd">
<!-- Creator: CorelDRAW -->
<svg xmlns="http://www.w3.org/2000/svg" xml:space="preserve" width="223.319mm" height="73.3453mm" style="shape-rendering:geometricPrecision; text-rendering:geometricPrecision; image-rendering:optimizeQuality; fill-rule:evenodd; clip-rule:evenodd"
viewBox="0 0 229.638 75.4206"
 xmlns:xlink="http://www.w3.org/1999/xlink">
 <defs>
  <style type="text/css">
   <![CDATA[
    .fil0 {fill:#FEFEFE;fill-rule:nonzero}
   ]]>
  </style>
 </defs>
 <g id="Layer_x0020_1">
  <metadata id="CorelCorpID_0Corel-Layer"/>
  <path class="fil0" d="M15.0031 49.6431c0,3.72654 0.97215,6.67528 2.91635,8.83018 1.9443,2.1549 4.61766,3.22422 8.03623,3.22422 3.45106,0 6.15682,-1.06932 8.11726,-3.20808 1.96044,-2.13865 2.94874,-5.08739 2.94874,-8.84632 0,-3.72644 -0.988295,-6.67518 -2.96499,-8.83007 -1.97659,-2.1549 -4.68234,-3.22422 -8.10101,-3.22422 -3.41857,0 -6.09193,1.06932 -8.03623,3.22422 -1.9442,2.1549 -2.91635,5.10364 -2.91635,8.83007zm-15.0031 -49.6431l16.1372 0 0 25.0646c0,2.02533 -0.0323913,3.7103 -0.113421,5.0551 -0.0809268,1.3448 -0.210595,2.49506 -0.356407,3.48345 1.96044,-3.41867 4.21251,-5.84894 6.75631,-7.30717 2.54369,-1.45812 5.86509,-2.18729 9.94804,-2.18729 6.38355,0 11.5682,2.34935 15.5377,7.04794 3.96953,4.69859 5.96236,10.8554 5.96236,18.4865 0,7.89042 -2.00908,14.1444 -6.011,18.7945 -4.00182,4.64995 -9.34854,6.98305 -16.0562,6.98305 -3.289,0 -6.28638,-0.793844 -8.97589,-2.39788 -2.68961,-1.60404 -5.10374,-4.01817 -7.25853,-7.24228l0 7.79314 -15.5702 0 0 -73.5736z"/>
  <path id="_1" class="fil0" d="M62.6549 73.5736l0 -47.9419 15.9429 0 0 11.2928c1.65257,-4.09909 3.90464,-7.19375 6.74006,-9.25137 2.85157,-2.05762 6.30252,-3.07841 10.3531,-3.07841 0.664279,0 1.3448,0.0162471 2.02523,0.0647826 0.680526,0.0486384 1.36095,0.129668 2.05772,0.210698l-1.62028 15.3919c-1.00444,-0.35651 -2.00898,-0.599496 -2.99738,-0.761555 -0.972048,-0.161957 -1.92805,-0.242986 -2.83532,-0.242986 -4.11534,0 -7.29092,1.26377 -9.52685,3.77508 -2.21968,2.5113 -3.33764,6.09193 -3.33764,10.7096l0 19.8313 -16.8015 0z"/>
  <path id="_12" class="fil0" d="M104.101 10.6771c0,-2.55994 0.907265,-4.74723 2.7219,-6.54561 1.83088,-1.79849 4.01817,-2.70575 6.57811,-2.70575 2.65712,0 4.87679,0.891121 6.67518,2.65712 1.78224,1.76599 2.67336,3.96953 2.67336,6.59425 0,2.62472 -0.907265,4.86065 -2.7219,6.69143 -1.83088,1.83088 -4.03431,2.75439 -6.62664,2.75439 -2.52755,0 -4.71484,-0.939759 -6.54561,-2.80293 -1.83088,-1.86327 -2.75439,-4.08295 -2.75439,-6.64289zm0.842482 62.8964l0 -47.9419 16.9473 0 0 47.9419 -16.9473 0z"/>
  <path id="_123" class="fil0" d="M133.284 73.5736l0 -47.9419 15.473 0 0 9.7212c2.23593,-3.8884 4.8444,-6.73996 7.777,-8.53845 2.94874,-1.79839 6.48083,-2.70575 10.5962,-2.70575 3.09455,0 5.86509,0.502322 8.27922,1.49062 2.43027,1.00454 4.39072,2.43027 5.91373,4.29354 1.26377,1.62018 2.17114,3.58063 2.70575,5.89758 0.534714,2.30061 0.810091,5.75167 0.810091,10.3368l0 27.4463 -16.9473 0 0 -25.6802c0,-3.83996 -0.631887,-6.6105 -1.87942,-8.36025 -1.24753,-1.73371 -3.25661,-2.60858 -6.011,-2.60858 -3.51584,0 -6.07579,1.29617 -7.67972,3.8885 -1.62028,2.59233 -2.43038,6.80485 -2.43038,12.6376l0 20.1229 -16.6071 0z"/>
  <path id="_1234" class="fil0" d="M229.638 41.3962c-1.65257,-1.45812 -3.22422,-2.5113 -4.74713,-3.17558 -1.52301,-0.664279 -3.1108,-1.00454 -4.79587,-1.00454 -3.35379,0 -6.02715,1.10172 -8.00384,3.32139 -1.97659,2.21968 -2.96499,5.21706 -2.96499,9.00838 0,3.6779 1.02079,6.59425 3.07841,8.78154 2.05772,2.18729 4.82826,3.27276 8.31171,3.27276 1.71736,0 3.32139,-0.34016 4.82815,-1.02069 1.50686,-0.680526 2.9326,-1.7336 4.29354,-3.15944l0 14.679c-2.02523,1.13411 -4.05046,1.97659 -6.07579,2.5113 -2.02523,0.534714 -4.11524,0.810091 -6.27013,0.810091 -7.37195,0 -13.3343,-2.36549 -17.9195,-7.09647 -4.56902,-4.73098 -6.85349,-10.9526 -6.85349,-18.681 0,-7.50152 2.3331,-13.6258 6.9993,-18.3893 4.6662,-4.76337 10.661,-7.14511 17.9681,-7.14511 2.43027,0 4.6337,0.243089 6.59415,0.712917 1.96044,0.469828 3.82372,1.23138 5.55732,2.28446l0 14.2902 0 0.00010283z"/>
 </g>
</svg>
