<?xml version="1.0" encoding="UTF-8"?>
<!DOCTYPE svg PUBLIC "-//W3C//DTD SVG 1.1//EN" "http://www.w3.org/Graphics/SVG/1.1/DTD/svg11.dtd">
<!-- Creator: CorelDRAW -->
<svg xmlns="http://www.w3.org/2000/svg" xml:space="preserve" width="223.319mm" height="73.3453mm" style="shape-rendering:geometricPrecision; text-rendering:geometricPrecision; image-rendering:optimizeQuality; fill-rule:evenodd; clip-rule:evenodd"
viewBox="0 0 223.319 73.3452"
 xmlns:xlink="http://www.w3.org/1999/xlink">
 <defs>
  <style type="text/css">
   <![CDATA[
    .fil0 {fill:url(#id0);fill-rule:nonzero}
   ]]>
  </style>
  <linearGradient id="id0" gradientUnits="userSpaceOnUse" x1="147.684" y1="98.8967" x2="75.635" y2="-25.5514">
   <stop offset="0" style="stop-color:#D92B7B"/>
   <stop offset="0.431373" style="stop-color:#D92B7B"/>
   <stop offset="0.619608" style="stop-color:#ED452A"/>
   <stop offset="0.8" style="stop-color:#F79428"/>
   <stop offset="1" style="stop-color:#F79428"/>
  </linearGradient>
 </defs>
 <g id="Layer_x0020_1">
  <metadata id="CorelCorpID_0Corel-Layer"/>
  <path class="fil0" d="M14.5905 48.277c0,3.624 0.945399,6.49159 2.8361,8.58719 1.8908,2.0956 4.4906,3.1355 7.81509,3.1355 3.3561,0 5.98739,-1.0399 7.89389,-3.1198 1.9065,-2.0798 2.8676,-4.9474 2.8676,-8.60289 0,-3.6239 -0.961099,-6.49149 -2.8834,-8.58709 -1.9222,-2.0956 -4.5535,-3.1355 -7.87809,-3.1355 -3.3245,0 -5.92429,1.0399 -7.81509,3.1355 -1.8907,2.0956 -2.8361,4.9632 -2.8361,8.58709zm208.729 -8.01989c-1.6071,-1.418 -3.1355,-2.4422 -4.6165,-3.0882 -1.4811,-0.645999 -3.0252,-0.976899 -4.6639,-0.976899 -3.2615,0 -5.86129,1.0714 -7.78359,3.23 -1.9222,2.1586 -2.8834,5.0735 -2.8834,8.76049 0,3.5767 0.992699,6.41279 2.9937,8.53989 2.0011,2.1271 4.6954,3.1827 8.08299,3.1827 1.6701,0 3.23,-0.3308 4.6953,-0.992599 1.4654,-0.661799 2.8519,-1.6859 4.1754,-3.0725l0 14.2751c-1.9695,1.1029 -3.939,1.9222 -5.90859,2.4422 -1.9695,0.52 -4.002,0.787799 -6.09759,0.787799 -7.16909,0 -12.9674,-2.3004 -17.4264,-6.90119 -4.4433,-4.6008 -6.66489,-10.6512 -6.66489,-18.167 0,-7.29509 2.2689,-13.2509 6.80669,-17.8833 4.5378,-4.6323 10.3676,-6.94849 17.4737,-6.94849 2.3634,0 4.5062,0.2364 6.41269,0.693299 1.9065,0.4569 3.7185,1.1975 5.4044,2.2216l0 13.897 0 9.99999e-005zm-93.7025 31.2919l0 -46.6227 15.0472 0 0 9.45369c2.1744,-3.7814 4.7111,-6.55449 7.56299,-8.30349 2.8676,-1.7489 6.30249,-2.6313 10.3046,-2.6313 3.0094,0 5.70369,0.4885 8.05139,1.4496 2.3634,0.976899 4.2699,2.3634 5.75099,4.1754 1.229,1.5756 2.1114,3.4821 2.6313,5.73529 0.52,2.2373 0.787799,5.59339 0.787799,10.0524l0 26.6911 -16.481 0 0 -24.9736c0,-3.7343 -0.614499,-6.42859 -1.8277,-8.13019 -1.2132,-1.686 -3.167,-2.5368 -5.84559,-2.5368 -3.4191,0 -5.90859,1.2605 -7.46839,3.7815 -1.5757,2.521 -2.3635,6.61759 -2.3635,12.2898l0 19.5692 -16.1501 0 0 9.99999e-005zm-28.38 -61.1656c0,-2.4895 0.882299,-4.6166 2.647,-6.36549 1.7805,-1.749 3.9076,-2.6313 6.39709,-2.6313 2.584,0 4.7426,0.866599 6.49149,2.584 1.7332,1.7174 2.5998,3.8603 2.5998,6.41279 0,2.5525 -0.882299,4.7269 -2.647,6.50729 -1.7805,1.7805 -3.9233,2.6786 -6.44429,2.6786 -2.458,0 -4.5851,-0.913899 -6.36549,-2.7258 -1.7805,-1.812 -2.6786,-3.9706 -2.6786,-6.46009zm0.819299 61.1655l0 -46.6227 16.481 0 0 46.6227 -16.481 0zm-41.1249 9.99999e-005l0 -46.6227 15.5042 0 0 10.9821c1.6071,-3.9863 3.7972,-6.99579 6.55459,-8.99679 2.7731,-2.001 6.12909,-2.9937 10.0682,-2.9937 0.645999,0 1.3078,0.0158 1.9695,0.0629999 0.661799,0.0473 1.3235,0.1261 2.0011,0.2049l-1.5757 14.9684c-0.976799,-0.3467 -1.9537,-0.582999 -2.9149,-0.740599 -0.945299,-0.1575 -1.875,-0.2363 -2.7573,-0.2363 -4.0021,0 -7.09029,1.229 -9.26469,3.6712 -2.1586,2.4422 -3.2458,5.92429 -3.2458,10.4149l0 19.2856 -16.3392 0zm-60.9307 -71.5489l15.6931 0 0 24.3749c0,1.9696 -0.0315,3.6082 -0.1103,4.916 -0.0786999,1.3078 -0.2048,2.4264 -0.3466,3.3876 1.9065,-3.3246 4.0966,-5.68799 6.57039,-7.10609 2.4737,-1.418 5.70369,-2.1271 9.67429,-2.1271 6.20789,0 11.2499,2.2847 15.1101,6.85399 3.8603,4.5693 5.79829,10.5567 5.79829,17.9778 0,7.67329 -1.9538,13.7552 -5.84559,18.2773 -3.8917,4.522 -9.09129,6.79089 -15.6144,6.79089 -3.1985,0 -6.11339,-0.771999 -8.72889,-2.3319 -2.6156,-1.5599 -4.9633,-3.9076 -7.05879,-7.04299l0 7.57869 -15.1418 0 0 -71.549 0.0002 0z"/>
 </g>
</svg>
