<?xml version="1.0" encoding="utf-8"?>
<!-- Generator: Adobe Illustrator 25.0.1, SVG Export Plug-In . SVG Version: 6.00 Build 0)  -->
<svg version="1.1" id="Layer_1" xmlns="http://www.w3.org/2000/svg" xmlns:xlink="http://www.w3.org/1999/xlink" x="0px" y="0px"
	 viewBox="0 0 432 90" style="enable-background:new 0 0 432 90;" xml:space="preserve">
<style type="text/css">
	.st0{fill:#1B1331;}
	.st1{fill:#6D5CA8;}
	.st2{display:none;}
	.st3{display:inline;}
	.st4{fill:#010101;}
</style>
<g id="Layer_1_1_">
	<g>
		<g>
			<path class="st0" d="M129.6,31.6l-0.4,5.3h-11.4v6.3h9.8v5.2h-9.8v9.9h-6V31.6H129.6z"/>
			<path class="st0" d="M150.9,31.2c2.7,0,5.1,0.6,7.3,1.8c2.1,1.2,3.7,2.8,5,4.9s1.8,4.4,1.8,7.1c0,2.6-0.6,5-1.8,7.1
				c-1.2,2.1-2.8,3.7-5,4.9s-4.5,1.8-7.3,1.8c-2.7,0-5.1-0.6-7.2-1.8c-2.1-1.2-3.7-2.8-5-4.9s-1.8-4.4-1.8-7.1s0.6-5,1.8-7.1
				c1.2-2.1,2.9-3.7,5-4.9C145.8,31.8,148.2,31.2,150.9,31.2z M150.9,53.3c1.6,0,2.9-0.3,4.1-1c1.1-0.7,2.1-1.7,2.7-3
				c0.6-1.2,1-2.7,1-4.4s-0.3-3-1-4.3c-0.6-1.2-1.6-2.3-2.7-3c-1.1-0.7-2.5-1.1-4.1-1.1c-1.5,0-2.8,0.3-4.1,1
				c-1.1,0.7-2.1,1.7-2.7,3c-0.6,1.2-1,2.7-1,4.4c0,1.6,0.3,3,1,4.3c0.6,1.2,1.6,2.3,2.7,3C148,53,149.4,53.3,150.9,53.3z"/>
			<path class="st0" d="M197,31.6V47c0,3.7-1,6.7-3,8.6c-2.1,2.1-4.9,3-8.5,3s-6.4-1-8.5-3c-2.1-2.1-3-4.9-3-8.6V31.6h6v14.9
				c0,2.1,0.4,3.7,1.4,5c0.9,1.1,2.4,1.8,4.4,1.8s3.3-0.6,4.3-1.8c0.9-1.2,1.4-2.8,1.4-5V31.6H197z"/>
			<path class="st0" d="M230.7,31.6v26.7h-5.1l-10.2-14.3c-0.4-0.5-0.7-1-1.1-1.7c-0.3-0.5-0.6-1.1-0.9-1.7h-0.2v17.5h-5.7V31.6h5.8
				l9.5,13.3c0.4,0.5,0.7,1,1,1.7c0.3,0.5,0.6,1,0.9,1.6h0.2V31.6H230.7z"/>
			<path class="st0" d="M265.8,45c0,2.6-0.6,4.9-1.8,7c-1.2,2-2.9,3.5-5.1,4.7c-2.2,1.1-4.8,1.7-7.9,1.7h-9.6V31.6h9.6
				c3,0,5.7,0.5,7.9,1.7c2.2,1.1,4,2.7,5.1,4.7C265.1,40,265.8,42.3,265.8,45z M259.5,45c0-1.8-0.3-3.2-1-4.5
				c-0.7-1.2-1.7-2.2-3-2.8c-1.2-0.7-2.8-1-4.6-1h-3.6v16.6h3.6c1.8,0,3.3-0.3,4.6-1c1.2-0.7,2.3-1.7,3-2.9S259.5,46.7,259.5,45z"/>
			<path class="st0" d="M292.9,31.6l-0.4,5.3h-11.4v5.3h9.4v5.2h-9.4V53h12.1v5.3H275V31.6H292.9z"/>
			<path class="st0" d="M322.8,40.6c0,1.8-0.5,3.3-1.5,4.6c-0.9,1.2-2.2,2.2-3.6,2.6l7.1,10.5h-7l-5.9-8.9h-3.3v8.9h-6V31.6h9.3
				c2.3,0,4.4,0.3,6,1c1.7,0.7,2.9,1.7,3.7,3C322.4,37.1,322.8,38.7,322.8,40.6z M316.7,40.6c0-0.9-0.2-1.7-0.7-2.3
				c-0.4-0.6-1-1-1.8-1.4s-1.7-0.4-2.7-0.4h-3.1v8.1h3.1c1,0,2-0.1,2.7-0.4c0.8-0.3,1.4-0.7,1.8-1.4
				C316.5,42.3,316.7,41.6,316.7,40.6z"/>
			<path class="st0" d="M350.7,32.6l-1.1,5.3c-0.5-0.3-1.1-0.5-2-0.7c-0.8-0.2-1.6-0.4-2.4-0.5c-0.8-0.1-1.7-0.2-2.4-0.2
				c-1.5,0-2.5,0.2-3.3,0.6c-0.7,0.4-1.1,1-1.1,2c0,0.6,0.2,1,0.7,1.5c0.5,0.3,1.1,0.6,1.9,0.9c0.8,0.3,1.7,0.5,2.7,0.8
				c0.9,0.3,1.9,0.6,2.9,1c0.9,0.3,1.9,0.8,2.6,1.5c0.7,0.5,1.5,1.4,1.9,2.3c0.5,0.9,0.7,2,0.7,3.3c0,2.6-0.9,4.6-2.8,6.1
				c-1.9,1.6-4.6,2.3-8.2,2.3c-1.7,0-3.2-0.1-4.7-0.4c-1.5-0.3-2.7-0.7-3.6-1.2l0.5-5.6c0.6,0.3,1.4,0.7,2.2,1
				c0.8,0.3,1.8,0.5,2.8,0.7c1,0.2,2,0.3,3,0.3c1.6,0,2.8-0.2,3.5-0.6c0.8-0.4,1.1-1.1,1.1-2c0-0.6-0.2-1.1-0.7-1.6
				c-0.5-0.4-1.1-0.7-1.9-1c-0.8-0.3-1.7-0.5-2.6-0.8c-0.9-0.3-1.9-0.6-2.9-0.9c-0.9-0.4-1.9-0.8-2.7-1.5c-0.8-0.5-1.5-1.4-1.9-2.2
				c-0.5-0.9-0.7-2-0.7-3.3c0-1.7,0.4-3.1,1.2-4.3c0.8-1.2,2.1-2.2,3.6-2.9c1.6-0.7,3.4-1,5.6-1c0.8,0,1.8,0.1,2.8,0.2
				c1,0.1,2,0.2,2.8,0.4C349.2,32.1,349.9,32.3,350.7,32.6z"/>
			<path class="st0" d="M384.3,31.6v26.7h-6V47.6h-11.3v10.7h-6V31.6h6v10.6h11.3V31.6H384.3z"/>
			<path class="st0" d="M400.9,31.6v26.7h-6V31.6H400.9z"/>
			<path class="st0" d="M432,40.7c0,2-0.4,3.6-1.4,5c-0.8,1.4-2.2,2.4-3.8,3.1s-3.7,1-6,1h-3.1v8.3h-6V31.6h9.2c2.4,0,4.4,0.3,6,1
				c1.7,0.7,2.9,1.8,3.8,3.1C431.6,37.1,432,38.8,432,40.7z M426,40.7c0-1-0.2-1.8-0.7-2.4c-0.4-0.6-1-1.1-1.9-1.4
				c-0.7-0.3-1.8-0.4-2.8-0.4h-3v8.5h3c1.1,0,2.1-0.1,2.8-0.4c0.8-0.3,1.5-0.7,1.9-1.4C425.8,42.6,426,41.8,426,40.7z"/>
		</g>
		<g>
			<path class="st1" d="M9.9,28.3c-1.2-0.5-2.4-1.2-3.5-1.9c-0.5-0.3-1-0.7-1.5-1.1c1.2-2.4,2.7-4.7,4.3-6.8c2.1,2,4.9,3.2,7.9,3.5
				c2.9,0.2,5.9-0.6,8.3-2.2c2.4-1.7,4.2-4.1,5-6.9s0.6-5.8-0.5-8.5c-0.1-0.2-0.1-0.3-0.2-0.5c2.5-0.9,5.2-1.6,7.8-2
				c1.2,3.1,1.6,6.5,1.2,9.8c-0.4,3.3-1.6,6.5-3.4,9.2c-2.3,3.3-5.4,5.9-9.2,7.5C23.5,29.5,20.8,30,18,30
				C15.3,30,12.5,29.4,9.9,28.3z"/>
			<path class="st1" d="M7.7,70.6c2.6-1.3,4.6-3.5,5.8-6.1s1.5-5.5,0.8-8.3s-2.3-5.3-4.5-7c-2.3-1.8-5.1-2.7-7.9-2.7
				c-0.6,0-1.2,0-1.7,0.1c0-0.3,0-0.5,0-0.8c0-2.4,0.2-4.8,0.6-7.2c0.4,0,0.8,0,1.1,0c4.2,0,8.2,1.2,11.6,3.5c3.3,2.3,6,5.4,7.5,9.1
				c1.4,3.2,1.9,6.6,1.5,10.1C22.2,64.7,21,68,19,70.9c-1.5,2.2-3.4,4.1-5.6,5.6c-0.2,0.1-0.4,0.3-0.6,0.4
				C10.9,74.9,9.2,72.8,7.7,70.6z"/>
			<path class="st1" d="M27.3,78.4c-1.4,2.1-2.4,4.3-3,6.7c2.4,1.2,4.9,2.2,7.5,3c0.4-3,2-5.8,4.3-7.8s5.3-3.1,8.4-3.1
				c3.1,0,6.1,1.1,8.4,3.1c2.3,2,3.9,4.8,4.3,7.8c2.6-0.8,5.1-1.8,7.5-3c-0.3-1.1-0.6-2.2-1.1-3.2c-1.6-3.7-4.2-6.9-7.5-9.1
				c-2.9-1.9-6.2-3.1-9.6-3.5c-3.4-0.3-6.9,0.2-10.1,1.5C32.7,72.5,29.5,75.1,27.3,78.4z"/>
			<path class="st1" d="M79.2,28.3c1.2-0.5,2.4-1.2,3.5-1.9c0.5-0.3,1-0.7,1.5-1.1c-1.2-2.4-2.7-4.7-4.3-6.8c-2.1,2-4.9,3.2-7.9,3.5
				c-2.9,0.2-5.9-0.6-8.3-2.2c-2.4-1.7-4.2-4.1-5-6.9s-0.6-5.8,0.5-8.5c0.1-0.2,0.1-0.3,0.2-0.5c-2.5-0.9-5.2-1.6-7.8-2
				C50.4,5,50,8.4,50.4,11.7c0.4,3.3,1.6,6.5,3.4,9.2c2.3,3.3,5.4,5.9,9.2,7.5c2.6,1.1,5.3,1.6,8.1,1.6S76.6,29.4,79.2,28.3z"/>
			<path class="st1" d="M78.4,68.3c0.9,0.9,2,1.7,3.2,2.3c-1.5,2.2-3.2,4.3-5.1,6.2c-0.2-0.1-0.4-0.3-0.6-0.4
				c-1.1-0.7-2.1-1.6-3.1-2.5c-0.9-0.9-1.8-2-2.5-3.1c-0.8-1.1-1.4-2.3-1.9-3.5c-1.1-2.6-1.6-5.3-1.6-8.1s0.6-5.5,1.6-8.1
				c0.5-1.2,1.2-2.4,1.9-3.5c1.5-2.2,3.4-4.1,5.6-5.6c1.1-0.8,2.3-1.4,3.5-1.9c2.6-1.1,5.3-1.6,8.1-1.6c0.4,0,0.8,0,1.1,0
				c0.4,2.4,0.6,4.8,0.6,7.2c0,0.3,0,0.5,0,0.8c-0.6-0.1-1.2-0.1-1.7-0.1c-1.7,0-3.4,0.3-4.9,1c-1.6,0.6-3,1.6-4.2,2.8
				s-2.1,2.5-2.8,4.1c-0.7,1.6-1,3.3-1,5s0.3,3.4,1,5C76.3,65.8,77.2,67.1,78.4,68.3z"/>
			<path class="st1" d="M43.3,43.6c0.5-0.8,2-0.8,2.5,0l9.9,16.8c0.4,0.7-0.7,0.9-0.7,0.9c-3.3-1.5-6.9-2.2-10.5-2.2
				s-7.2,0.8-10.5,2.2c0,0-0.9-0.2-0.5-0.9L43.3,43.6z"/>
			<path class="st1" d="M47.6,31c-0.9-0.6-2-0.9-3.1-0.9c-1.5,0-2.9,0.6-3.9,1.6S39,34.1,39,35.6c0,1.1,0.3,2.2,0.9,3.1
				c0.6,0.9,1.5,1.6,2.5,2s2.1,0.5,3.2,0.3c1.1-0.2,2.1-0.7,2.8-1.5c0.8-0.8,1.3-1.8,1.5-2.8c0.2-1.1,0.1-2.2-0.3-3.2
				C49.3,32.5,48.6,31.6,47.6,31z"/>
		</g>
	</g>
</g>
<g id="Layer_2_1_" class="st2">
	<g class="st3">
		<path class="st4" d="M262.8,88.2l6.8-16.3L251.2,28h10.6l12.9,32.2h0.8L288.2,28h10.2l-25.2,60.2H262.8z"/>
		<path class="st4" d="M84.8,72V20.1H65.7v-9h44.6c2.5,0,4.5,2,4.5,4.5s-2,4.5-4.5,4.5H94.9V72H84.8z"/>
		<path class="st4" d="M102.6,50c0-15.4,9.7-23.2,23-23.2c13,0,21.7,8.4,21.7,22.4c0,0.9-0.1,2.5-0.3,3.4h-34.7
			c0.7,8.5,6.1,13.2,13.2,13.2c4.4,0,8.4-2,10.4-5.6h9.6c-2.6,8.1-10.2,13-19.9,13C111.4,73.2,102.6,64.4,102.6,50z M137.3,45.8
			c-0.8-7.5-5.9-11.7-12.2-11.7c-6.1,0-11.6,4.1-12.6,11.7H137.3z"/>
		<path class="st4" d="M154.7,72V47.7c0-14.5,8.4-21,21.8-21c13.6,0,21.8,6.1,21.8,20.6V72h-9.7V47.3c0-8.5-4.5-12.4-12.2-12.4
			s-12.2,4.2-12.2,12.8V72H154.7z"/>
		<path class="st4" d="M206.8,15.8c0-3.4,2.5-5.9,5.9-5.9c3.3,0,5.9,2.6,5.9,5.9c0,3.4-2.5,5.9-5.9,5.9
			C209.4,21.7,206.7,19.1,206.8,15.8z M207.8,72V32.8c0-2.7,2.2-4.8,4.8-4.8c2.7,0,4.8,2.2,4.8,4.8V72H207.8z"/>
		<path class="st4" d="M227.3,72V36.1V28V16.2h9.7V28h7.4c2.3,0,4.1,1.8,4.1,4.1s-1.8,4.1-4.1,4.1H237V72H227.3z"/>
		<path class="st4" d="M25.3,63.4c-3.2,0-5.8,2.6-5.8,5.8v10.3l11.7,6.8v-17C31.1,66,28.5,63.4,25.3,63.4z"/>
		<path class="st4" d="M36,10.6L28.2,3c-1.6-1.6-4.2-1.6-5.8,0l-7.8,7.6c-4.1,4-6.4,9.4-6.4,15.1v17.9L3,46.9c-1.8,1.2-3,3.3-3,5.5
			v15.8l42.4-24.7V25.7C42.4,20,40.1,14.6,36,10.6z M25.3,31.5c-3.5,0-6.3-2.8-6.3-6.3s2.8-6.3,6.3-6.3s6.3,2.8,6.3,6.3
			C31.6,28.7,28.8,31.5,25.3,31.5z"/>
		<path class="st4" d="M42.4,63.4l8.9,5.2V53.1c0-2.4-1.2-4.7-3.3-6l-5.6-3.5C42.4,43.6,42.4,63.4,42.4,63.4z"/>
	</g>
</g>
</svg>
