<?xml version="1.0" encoding="utf-8"?>
<!-- Generator: Adobe Illustrator 25.0.1, SVG Export Plug-In . SVG Version: 6.00 Build 0)  -->
<svg version="1.1" id="Layer_2_1_" xmlns="http://www.w3.org/2000/svg" xmlns:xlink="http://www.w3.org/1999/xlink" x="0px" y="0px"
	 viewBox="0 0 455.9 90" style="enable-background:new 0 0 455.9 90;" xml:space="preserve">
<style type="text/css">
	.st0{fill:#262830;}
	.st1{fill:#FFC214;}
	.st2{fill:url(#SVGID_1_);}
	.st3{fill:url(#SVGID_2_);}
	.st4{fill:url(#SVGID_3_);}
</style>
<g>
	<path class="st0" d="M7.9,5.3v54.1h21.2v6.4H0V5.3H7.9z M53.6,17.5c8.9,0,15,4.5,17.7,9.5v-8.7h8v47.6h-8V57
		c-2.9,5.1-9,9.6-17.8,9.6c-12.7,0-22.5-10-22.5-24.8S40.8,17.5,53.6,17.5z M55.2,24.3c-8.7,0-16.1,6.3-16.1,17.6
		s7.4,17.8,16.1,17.8S71.3,53.2,71.3,42C71.3,30.9,63.8,24.3,55.2,24.3L55.2,24.3z M130.8,65.9h-7.9v-7c-3,4.9-8.9,7.7-15.2,7.7
		c-10.9,0-19.5-6.8-19.5-20.4V18.2h7.8v26.8c0,9.6,5.3,14.6,13.3,14.6c8.2,0,13.6-5,13.6-15.3V18.2h7.9V65.9z M174.4,38.9
		c0-9.7-5.3-14.7-13.3-14.7s-13.6,5-13.6,15.3v26.3h-7.9V18.2h7.9V25c3.1-5,8.9-7.7,15.3-7.7c11,0,19.5,6.8,19.5,20.4v28.1h-7.8
		L174.4,38.9z M211.9,17.5c11.8,0,19.5,6.1,22,16.1h-8.6c-1.6-5.7-6.4-9.4-13.5-9.4c-8.7,0-15.1,6.2-15.1,17.8
		c0,11.8,6.4,18,15.1,18c7,0,11.7-3.4,13.5-9.4h8.5c-2.4,9.5-10.2,16.1-22,16.1c-13.5,0-23.2-9.6-23.2-24.7
		C188.7,27,198.4,17.5,211.9,17.5L211.9,17.5z M241.3,1.6h7.9v23.5c3.1-5,9-7.7,15.7-7.7c10.6,0,19,6.8,19,20.4v28.1h-7.8V38.9
		c0-9.7-5.3-14.7-13.3-14.7c-8,0-13.6,5-13.6,15.3v26.3h-7.9L241.3,1.6z M318.1,17.5c12.8,0,22.6,9.6,22.6,24.4s-9.8,24.8-22.6,24.8
		c-7.2,0.1-14-3.5-17.8-9.6v31.4h-7.9V18.2h7.9V27C303.2,22,309.4,17.5,318.1,17.5L318.1,17.5z M316.5,24.3
		c-8.6,0-16.2,6.6-16.2,17.6c0,11.2,7.6,17.7,16.2,17.7c8.8,0,16.2-6.6,16.2-17.8S325.2,24.3,316.5,24.3L316.5,24.3z M445.3,1.6
		L445.3,1.6v64.3h7.9V1.6H445.3z"/>
	<polygon class="st1" points="373.6,16.5 373,16.6 370,24.2 370.4,24.6 371,24.7 373.9,17 	"/>
	
		<linearGradient id="SVGID_1_" gradientUnits="userSpaceOnUse" x1="370.805" y1="71.9206" x2="414.695" y2="28.0306" gradientTransform="matrix(1 0 0 -1 0 91.2756)">
		<stop  offset="7.000000e-02" style="stop-color:#FFC214"/>
		<stop  offset="0.5" style="stop-color:#FF731F;stop-opacity:0.1"/>
		<stop  offset="0.93" style="stop-color:#FF453C"/>
	</linearGradient>
	<polygon class="st2" points="396.8,39.7 396.8,39.7 390.2,33.1 373.6,16.5 370.4,24.6 388.7,42.9 388.8,43 395.3,49.5 411.9,66.1 
		415.1,58 	"/>
	<g>
		<linearGradient id="SVGID_2_" gradientUnits="userSpaceOnUse" x1="358.4194" y1="17.3034" x2="426.9894" y2="65.3166">
			<stop  offset="0" style="stop-color:#FFC214"/>
			<stop  offset="1" style="stop-color:#FF453C"/>
		</linearGradient>
		<path class="st3" d="M413.6,16.6L413.6,16.6c-14.3-0.2-23.6,11.2-24.8,24.2c-0.4,6.4-4.5,16.7-15.2,17.2h-0.1
			c-0.5,0-1.1,0-1.6,0.1l0,0c-21.3-0.8-22.6-30.8-1.6-33.5l3.2-8.1c-13.7-1-25.5,9.4-26.5,23c-1,13.7,9.4,25.5,23,26.5
			c0.6,0,1.2,0.1,1.8,0.1l0,0c14.3,0.3,23.7-11.4,24.7-24.4c0.5-5,2-8.8,4.1-11.3c0.1-0.1,0.2-0.3,0.3-0.4c3.2-3.5,7.7-5.5,12.4-5.4
			l0,0c21.3,0.8,22.6,30.8,1.6,33.5l-3.2,8.1c13.7,0.9,25.5-9.5,26.3-23.2c0.9-13.7-9.5-25.5-23.2-26.3
			C414.6,16.6,414.1,16.6,413.6,16.6z"/>
		
			<linearGradient id="SVGID_3_" gradientUnits="userSpaceOnUse" x1="370.805" y1="71.9206" x2="414.695" y2="28.0306" gradientTransform="matrix(1 0 0 -1 0 91.2756)">
			<stop  offset="7.000000e-02" style="stop-color:#FFC214"/>
			<stop  offset="0.5" style="stop-color:#FF731F;stop-opacity:0.1"/>
			<stop  offset="0.93" style="stop-color:#FF453C"/>
		</linearGradient>
		<polygon class="st4" points="396.8,39.7 396.8,39.7 390.2,33.1 373.6,16.5 370.4,24.6 388.7,42.9 388.8,43 395.3,49.5 411.9,66.1 
			415.1,58 		"/>
	</g>
</g>
</svg>
