<?xml version="1.0" encoding="utf-8"?>
<!-- Generator: Adobe Illustrator 25.0.1, SVG Export Plug-In . SVG Version: 6.00 Build 0)  -->
<svg version="1.1" id="Layer_2_1_" xmlns="http://www.w3.org/2000/svg" xmlns:xlink="http://www.w3.org/1999/xlink" x="0px" y="0px"
	 viewBox="0 0 455.9 90" style="enable-background:new 0 0 455.9 90;" xml:space="preserve">
<style type="text/css">
	.st0{fill:#FFFFFF;}
	.st1{fill:#FFC214;}
	.st2{fill:url(#SVGID_1_);}
	.st3{fill:url(#SVGID_2_);}
	.st4{fill:url(#SVGID_3_);}
</style>
<g>
	<path class="st0" d="M8.8,6.1v54.1H30v6.4H0.9V6.1H8.8z M54.5,18.2c8.9,0,15,4.5,17.7,9.5V19h8v47.6h-8v-8.9
		c-2.9,5.1-9,9.6-17.8,9.6c-12.7,0-22.5-10-22.5-24.8S41.7,18.2,54.5,18.2z M56.1,25.1c-8.7,0-16.1,6.3-16.1,17.6
		s7.4,17.8,16.1,17.8s16.2-6.5,16.2-17.7C72.2,31.7,64.7,25.1,56.1,25.1L56.1,25.1z M131.7,66.6h-7.9v-7c-3,4.9-8.9,7.7-15.2,7.7
		C97.6,67.4,89,60.6,89,47V19h7.8v26.8c0,9.6,5.3,14.6,13.3,14.6c8.2,0,13.6-5,13.6-15.3V19h7.9V66.6z M175.3,39.7
		C175.3,30,170,25,162,25s-13.6,5-13.6,15.3v26.3h-7.9V19h7.9v6.8c3.1-5,8.9-7.7,15.3-7.7c11,0,19.5,6.8,19.5,20.4v28.1h-7.8
		L175.3,39.7z M212.8,18.2c11.8,0,19.5,6.1,22,16.1h-8.6c-1.6-5.7-6.4-9.4-13.5-9.4c-8.7,0-15.1,6.2-15.1,17.8
		c0,11.8,6.4,18,15.1,18c7,0,11.7-3.4,13.5-9.4h8.5c-2.4,9.5-10.2,16.1-22,16.1c-13.5,0-23.2-9.6-23.2-24.7
		C189.6,27.8,199.3,18.2,212.8,18.2L212.8,18.2z M242.2,2.3h7.9v23.5c3.1-5,9-7.7,15.7-7.7c10.6,0,19,6.8,19,20.4v28.1H277V39.7
		c0-9.7-5.3-14.7-13.3-14.7s-13.6,5-13.6,15.3v26.3h-7.9L242.2,2.3z M319,18.2c12.8,0,22.6,9.6,22.6,24.4s-9.8,24.8-22.6,24.8
		c-7.2,0.1-14-3.5-17.8-9.6v31.4h-7.9V19h7.9v8.8C304.1,22.8,310.3,18.2,319,18.2L319,18.2z M317.4,25.1c-8.6,0-16.2,6.6-16.2,17.6
		c0,11.2,7.6,17.7,16.2,17.7c8.8,0,16.2-6.6,16.2-17.8S326.1,25.1,317.4,25.1L317.4,25.1z M446.2,2.3L446.2,2.3v64.3h7.9V2.3H446.2z
		"/>
	<polygon class="st1" points="374.5,17.3 373.9,17.4 370.9,25 371.3,25.4 371.9,25.4 374.8,17.8 	"/>
	
		<linearGradient id="SVGID_1_" gradientUnits="userSpaceOnUse" x1="371.71" y1="71.145" x2="415.6" y2="27.255" gradientTransform="matrix(1 0 0 -1 0 91.2756)">
		<stop  offset="7.000000e-02" style="stop-color:#FFC214"/>
		<stop  offset="0.5" style="stop-color:#FF731F;stop-opacity:0.1"/>
		<stop  offset="0.93" style="stop-color:#FF453C"/>
	</linearGradient>
	<polygon class="st2" points="397.7,40.5 397.7,40.4 391.1,33.8 374.5,17.3 371.3,25.4 389.6,43.7 389.7,43.7 396.2,50.3 
		412.8,66.8 416,58.8 	"/>
	<g>
		<linearGradient id="SVGID_2_" gradientUnits="userSpaceOnUse" x1="359.3244" y1="18.079" x2="427.8944" y2="66.0922">
			<stop  offset="0" style="stop-color:#FFC214"/>
			<stop  offset="1" style="stop-color:#FF453C"/>
		</linearGradient>
		<path class="st3" d="M414.5,17.3L414.5,17.3c-14.3-0.2-23.6,11.2-24.8,24.2c-0.4,6.4-4.5,16.7-15.1,17.2h-0.1
			c-0.5,0-1.1,0-1.6,0.1l0,0c-21.3-0.8-22.6-30.8-1.6-33.5l3.2-8.1c-13.7-1-25.5,9.4-26.5,23s9.4,25.5,23,26.5
			c0.6,0,1.2,0.1,1.8,0.1l0,0c14.3,0.3,23.7-11.4,24.7-24.4c0.5-5,2-8.8,4.1-11.3c0.1-0.1,0.2-0.3,0.3-0.4c3.2-3.5,7.7-5.5,12.4-5.4
			l0,0c21.3,0.8,22.6,30.8,1.6,33.5l-3.2,8.1c13.7,0.9,25.5-9.5,26.3-23.2C440,30,429.6,18.2,416,17.4
			C415.5,17.3,415,17.3,414.5,17.3z"/>
		
			<linearGradient id="SVGID_3_" gradientUnits="userSpaceOnUse" x1="371.71" y1="71.145" x2="415.6" y2="27.255" gradientTransform="matrix(1 0 0 -1 0 91.2756)">
			<stop  offset="7.000000e-02" style="stop-color:#FFC214"/>
			<stop  offset="0.5" style="stop-color:#FF731F;stop-opacity:0.1"/>
			<stop  offset="0.93" style="stop-color:#FF453C"/>
		</linearGradient>
		<polygon class="st4" points="397.7,40.5 397.7,40.4 391.1,33.8 374.5,17.3 371.3,25.4 389.6,43.7 389.7,43.7 396.2,50.3 
			412.8,66.8 416,58.8 		"/>
	</g>
</g>
</svg>
