<?xml version="1.0" encoding="UTF-8"?>
<svg id="Layer_2" xmlns="http://www.w3.org/2000/svg" version="1.1" viewBox="0 0 203.4 90">
  <!-- Generator: Adobe Illustrator 29.0.1, SVG Export Plug-In . SVG Version: 2.1.0 Build 192)  -->
  <defs>
    <style>
      .st0 {
        fill: #fff;
      }
    </style>
  </defs>
  <path class="st0" d="M189.4,70c-4.1,0-7.4-1.3-9.7-3.9-2.4-2.6-3.5-6.4-3.5-11.5v-21.3h-5.5v-10.2h5.5V6.6h12.4v16.4h12.6v10.2h-12.6v19.6c0,2,.3,3.6.9,4.5.6,1,1.7,1.4,3.1,1.4s3.7-.5,5.8-1.6l3.2,9.9c-1.8,1-3.6,1.7-5.3,2.2-1.8.5-4.1.7-6.9.7h0Z"/>
  <path class="st0" d="M106.1,23.4h13.2l-18.2,46.1h-11.6l-18.2-46.1h13.1l10.9,31h0l10.6-31h.1Z"/>
  <path class="st0" d="M61.4,16.9c-1.4,0-2.7-.3-3.9-1-1.2-.6-2.1-1.6-2.8-2.7-.7-1.2-1-2.4-1-3.8,0-2,.7-3.8,2.2-5.3s3.3-2.2,5.5-2.2,3.9.7,5.4,2.2,2.3,3.3,2.3,5.3-.8,3.9-2.3,5.4-3.3,2.2-5.4,2.2h0ZM55.2,69.5V23.4h12.4v46.1s-12.4,0-12.4,0Z"/>
  <path class="st0" d="M26.6,22.6c2.4,0,4.8.4,7,1.2,2.2.7,4.3,1.8,6.1,3.3,1.8,1.4,3.3,3.1,4.6,5.1,1.3,1.9,2.3,4.2,3.1,6.6.7,2.5,1.1,5.1,1.1,7.8s-.6,6.8-1.7,9.7c-1.1,3-2.7,5.5-4.6,7.5-1.9,2-4.3,3.6-7,4.8s-5.7,1.7-8.8,1.7c-5.8,0-10.4-2-13.6-6h-.2v23.9H0V23.4h12.4v5.3h.2c3.4-4.1,8.1-6.1,14-6.1h0ZM24,59.2c3.5,0,6.3-1.2,8.5-3.5s3.3-5.4,3.3-9.1-1.2-7-3.4-9.4c-2.3-2.4-5.1-3.6-8.5-3.6s-3.4.4-4.9,1-2.8,1.6-3.8,2.7c-1.1,1.2-1.9,2.5-2.5,4.1s-.9,3.3-.9,5.1.5,4.7,1.6,6.6c1.1,1.9,2.5,3.5,4.3,4.5,1.9,1,3.9,1.5,6.2,1.5h.1Z"/>
  <path class="st0" d="M167.6,38c-.6-1.5-1.4-2.9-2.2-4.2-2.8-4.2-6.9-7.4-11.8-9.1-2.4-.8-5-1.3-7.7-1.3-4.3,0-8.3,1.2-11.8,3.2-1.4.8-2.7,1.8-3.9,2.8-3.8,3.4-6.5,8.1-7.3,13.4-.2,1.3-.3,2.6-.3,3.9s0,2.9.4,4.2c.9,5.1,3.5,9.6,7.2,13,1.2,1.1,2.5,2,3.8,2.9,3.5,2.1,7.5,3.2,11.9,3.2s5-.4,7.3-1.2c5-1.7,9.3-5,12.1-9.3.9-1.3,1.6-2.8,2.2-4.3,1.1-2.7,1.6-5.6,1.6-8.6s-.6-6-1.7-8.7h.2ZM152.6,50.9h0l-9.4,8.1-.6.5-.6-.5h0l-1.4-1.2-1.6-1.4,4.5-3.8,7-6-6.9-5.9-4.3-3.7-.8-.7,3.2-2.7.4-.4,1.3,1.1,6.2,5.3,4.5,3.8,3.6,3.1-3.6,3.1-1.4,1.2h0Z"/>
</svg>