<?xml version="1.0" encoding="utf-8"?>
<!-- Generator: Adobe Illustrator 25.0.1, SVG Export Plug-In . SVG Version: 6.00 Build 0)  -->
<svg version="1.1" id="Layer_2" xmlns="http://www.w3.org/2000/svg" xmlns:xlink="http://www.w3.org/1999/xlink" x="0px" y="0px"
	 viewBox="0 0 432 90" style="enable-background:new 0 0 432 90;" xml:space="preserve">
<style type="text/css">
	.st0{fill:#253B49;}
</style>
<path class="st0" d="M221.4,75.5h9.9V14.6h-8.6V51l-9.8-36.4h-12v60.9h8.6V31.4L221.4,75.5z M291.2,55.2h-5.9v29.9h-12.5V5.6h18.4
	c12.5,0,18.6,6.9,18.6,19.6v10.3C309.9,48.3,303.7,55.2,291.2,55.2L291.2,55.2z M297.4,24.5c0-5.7-2.2-7.5-6.1-7.5h-5.9v26.9h5.9
	c4,0,6.1-1.8,6.1-7.5V24.5L297.4,24.5z M314.5,85.1V5.6H327v68.1h20.6v11.4H314.5L314.5,85.1z M383.2,85.1L381,70.7h-15.3l-2.2,14.4
	H352l12.7-79.5H383l12.7,79.5H383.2L383.2,85.1z M373.3,19.7l-6,40.2h12L373.3,19.7L373.3,19.7z M416.7,58.8v26.3h-12.5V58.8
	L388.4,5.6h13.1l9.5,36.2l9.5-36.2h12L416.7,58.8L416.7,58.8z M18.9,55.2H13v29.9H0.5V5.6h18.4c12.5,0,18.6,6.9,18.6,19.6v10.3
	C37.6,48.3,31.4,55.2,18.9,55.2L18.9,55.2z M25,24.4c0-5.7-2.2-7.5-6.1-7.5H13v26.9h5.9c4,0,6.1-1.8,6.1-7.5V24.4L25,24.4z
	 M42.2,85.1V5.6h12.5v68.1h20.6v11.4H42.2L42.2,85.1z M97.1,86.1c-12.3,0-18.6-7.3-18.6-20V5.6H91v61.3c0,5.7,2.5,7.7,6.5,7.7
	s6.5-2,6.5-7.7V5.6h11.8v60.5C115.7,78.8,109.4,86.1,97.1,86.1L97.1,86.1z M141.3,52.2V40.8h17.5V66c0,12.7-6.4,20-18.6,20
	c-12.3,0-18.6-7.3-18.6-20V24.7c0-12.7,6.4-20,18.6-20c12.3,0,18.6,7.3,18.6,20v7.7H147v-8.5c0-5.7-2.5-7.8-6.5-7.8
	s-6.5,2.2-6.5,7.8v42.9c0,5.7,2.5,7.7,6.5,7.7s6.5-2,6.5-7.7V52.2H141.3L141.3,52.2z M188.1,14.6h-14l-9.8,60.9h8.8l1.7-11h11.7
	l1.7,11h9.7L188.1,14.6L188.1,14.6z M180.6,25.4l4.6,30.8H176L180.6,25.4L180.6,25.4z M236.8,75.5H252c9.6,0,14.3-5.3,14.3-15.1
	V29.7c0-9.7-4.7-15.1-14.3-15.1h-15.2L236.8,75.5L236.8,75.5z M251.8,23.3c3,0,4.9,1.6,4.9,5.9v31.7c0,4.4-1.8,5.9-4.9,5.9h-5.4
	V23.3H251.8L251.8,23.3z"/>
</svg>
