<?xml version="1.0" encoding="UTF-8"?>
<svg id="Layer_2" xmlns="http://www.w3.org/2000/svg" version="1.1" viewBox="0 0 572 90">
  <!-- Generator: Adobe Illustrator 29.0.1, SVG Export Plug-In . SVG Version: 2.1.0 Build 192)  -->
  <defs>
    <style>
      .st0 {
        fill: #253b49;
      }

      .st1 {
        fill: #647680;
      }
    </style>
  </defs>
  <path class="st1" d="M420.9,8.9l-11.5,72h10.4l2-13h13.9l2,13h11.3l-11.5-72s-16.6,0-16.6,0ZM423.3,58.1l5.4-36.4,5.4,36.4h-10.9ZM500.3,8.9l-11.5,72h10.4l2-13h13.9l2,13h11.3l-11.5-72s-16.6,0-16.6,0ZM502.7,58.1l5.4-36.4,5.4,36.4h-10.9ZM472,8.9h-16.7v72h11.3v-27.1h5.3c11.3,0,16.9-6.3,16.9-17.9v-9.3c0-11.5-5.5-17.8-16.9-17.8h0ZM477.6,36.8c0,5.2-1.9,6.8-5.5,6.8h-5.3v-24.4h5.3c3.5,0,5.5,1.6,5.5,6.8v10.8ZM556.2,33.1v-7.6c0-5.2-2.3-7-5.9-7s-5.9,1.8-5.9,7v38.9c0,5.1,2.3,7.1,5.9,7.1s5.9-1.9,5.9-7.1v-7.7h10.7v7c0,11.5-5.7,18.1-16.9,18.1s-16.9-6.6-16.9-18.1V26.2c0-11.5,5.7-18.1,16.9-18.1s16.9,6.6,16.9,18.1v6.9h-10.7Z"/>
  <path class="st0" d="M200.2,72.3h9V17.1h-7.8v33l-8.9-33h-10.9v55.2h7.8v-40l10.8,40h0ZM263.4,53.9h-5.3v27.1h-11.3V8.9h16.7c11.3,0,16.9,6.3,16.9,17.8v9.3c0,11.6-5.5,17.9-16.9,17.9h0ZM269.1,26.1c0-5.2-2-6.8-5.5-6.8h-5.3v24.4h5.3c3.6,0,5.5-1.6,5.5-6.8v-10.8h0ZM284.6,81V8.9h11.3v61.7h18.7v10.3h-30ZM346.8,81l-2-13h-13.9l-2,13h-10.4l11.5-72h16.6l11.5,72h-11.3ZM337.8,21.7l-5.4,36.4h10.9l-5.4-36.4h0ZM377.2,57.1v23.8h-11.3v-23.8l-14.3-48.2h11.9l8.6,32.8,8.6-32.8h10.9l-14.3,48.2h0ZM16.7,53.9h-5.3v27.1H0V8.9h16.7c11.3,0,16.9,6.3,16.9,17.8v9.3c0,11.6-5.5,17.9-16.9,17.9h0ZM22.2,26c0-5.2-2-6.8-5.5-6.8h-5.3v24.4h5.3c3.6,0,5.5-1.6,5.5-6.8v-10.8h0ZM37.8,81V8.9h11.3v61.7h18.7v10.3h-30ZM87.5,81.9c-11.1,0-16.9-6.6-16.9-18.1V8.9h11.3v55.6c0,5.2,2.3,7,5.9,7s5.9-1.8,5.9-7V8.9h10.7v54.8c0,11.5-5.8,18.1-16.9,18.1h0ZM127.6,51.2v-10.3h15.9v22.8c0,11.5-5.8,18.1-16.9,18.1s-16.9-6.6-16.9-18.1V26.2c0-11.5,5.8-18.1,16.9-18.1s16.9,6.6,16.9,18.1v7h-10.7v-7.7c0-5.2-2.3-7.1-5.9-7.1s-5.9,2-5.9,7.1v38.9c0,5.2,2.3,7,5.9,7s5.9-1.8,5.9-7v-13.2s-5.2,0-5.2,0ZM170,17.1h-12.7l-8.9,55.2h8l1.5-10h10.6l1.5,10h8.8l-8.9-55.2h0ZM163.2,26.9l4.2,27.9h-8.3l4.2-27.9h0ZM214.1,72.3h13.8c8.7,0,13-4.8,13-13.7v-27.8c0-8.8-4.3-13.7-13-13.7h-13.8v55.2h0ZM227.7,25c2.7,0,4.4,1.4,4.4,5.3v28.7c0,4-1.6,5.3-4.4,5.3h-4.9V25h4.9,0Z"/>
</svg>