<?xml version="1.0" encoding="utf-8"?>
<!-- Generator: Adobe Illustrator 25.0.1, SVG Export Plug-In . SVG Version: 6.00 Build 0)  -->
<svg version="1.1" id="Layer_2_1_" xmlns="http://www.w3.org/2000/svg" xmlns:xlink="http://www.w3.org/1999/xlink" x="0px" y="0px"
	 viewBox="0 0 432 90" style="enable-background:new 0 0 432 90;" xml:space="preserve">
<style type="text/css">
	.st0{fill:#FFFFFF;}
</style>
<path class="st0" d="M220.9,75h9.9V14.1h-8.6v36.4l-9.8-36.4h-12V75h8.6V30.9L220.9,75z M290.7,54.7h-5.9v29.9h-12.5V5.1h18.4
	c12.5,0,18.6,6.9,18.6,19.6V35C309.4,47.8,303.2,54.7,290.7,54.7L290.7,54.7z M296.9,24c0-5.7-2.2-7.5-6.1-7.5h-5.9v26.9h5.9
	c4,0,6.1-1.8,6.1-7.5V24L296.9,24z M314,84.6V5.1h12.5v68.1h20.6v11.4H314L314,84.6z M382.7,84.6l-2.2-14.4h-15.3L363,84.6h-11.5
	l12.7-79.5h18.3l12.7,79.5H382.7L382.7,84.6z M372.8,19.2l-6,40.2h12L372.8,19.2L372.8,19.2z M416.2,58.3v26.3h-12.5V58.3L387.9,5.1
	H401l9.5,36.2L420,5.1h12L416.2,58.3L416.2,58.3z M18.4,54.7h-5.9v29.9H0V5.1h18.4C30.9,5.1,37,12,37,24.7V35
	C37.1,47.8,30.9,54.7,18.4,54.7L18.4,54.7z M24.5,23.9c0-5.7-2.2-7.5-6.1-7.5h-5.9v26.9h5.9c4,0,6.1-1.8,6.1-7.5V23.9L24.5,23.9z
	 M41.7,84.6V5.1h12.5v68.1h20.6v11.4H41.7L41.7,84.6z M96.6,85.6c-12.3,0-18.6-7.3-18.6-20V5.1h12.5v61.3c0,5.7,2.5,7.7,6.5,7.7
	s6.5-2,6.5-7.7V5.1h11.8v60.5C115.2,78.3,108.9,85.6,96.6,85.6L96.6,85.6z M140.8,51.7V40.3h17.5v25.2c0,12.7-6.4,20-18.6,20
	c-12.3,0-18.6-7.3-18.6-20V24.2c0-12.7,6.4-20,18.6-20c12.3,0,18.6,7.3,18.6,20v7.7h-11.8v-8.5c0-5.7-2.5-7.8-6.5-7.8
	s-6.5,2.2-6.5,7.8v42.9c0,5.7,2.5,7.7,6.5,7.7s6.5-2,6.5-7.7V51.7H140.8L140.8,51.7z M187.6,14.1h-14L163.8,75h8.8l1.7-11H186
	l1.7,11h9.7L187.6,14.1L187.6,14.1z M180.1,24.9l4.6,30.8h-9.2L180.1,24.9L180.1,24.9z M236.3,75h15.2c9.6,0,14.3-5.3,14.3-15.1
	V29.2c0-9.7-4.7-15.1-14.3-15.1h-15.2L236.3,75L236.3,75z M251.3,22.8c3,0,4.9,1.6,4.9,5.9v31.7c0,4.4-1.8,5.9-4.9,5.9h-5.4V22.8
	H251.3L251.3,22.8z"/>
</svg>
