<?xml version="1.0" encoding="utf-8"?>
<!-- Generator: Adobe Illustrator 25.0.1, SVG Export Plug-In . SVG Version: 6.00 Build 0)  -->
<svg version="1.1" xmlns="http://www.w3.org/2000/svg" xmlns:xlink="http://www.w3.org/1999/xlink" x="0px" y="0px"
	 viewBox="0 0 301.9 90" style="enable-background:new 0 0 301.9 90;" xml:space="preserve">
<style type="text/css">
	.st0{display:none;}
	.st1{display:inline;}
	.st2{fill:#1B1331;}
	.st3{fill:#6D5CA8;}
	.st4{fill:#010101;}
</style>
<g id="Layer_1" class="st0">
	<g class="st1">
		<g>
			<path class="st2" d="M138.6,33.8l-0.4,5.1h-11V45h9.4v5h-9.4v9.5h-5.8V33.8H138.6z"/>
			<path class="st2" d="M159.1,33.4c2.6,0,4.9,0.6,7,1.7c2,1.2,3.6,2.7,4.8,4.7c1.2,2,1.7,4.2,1.7,6.8c0,2.5-0.6,4.8-1.7,6.8
				c-1.2,2-2.7,3.6-4.8,4.7s-4.3,1.7-7,1.7c-2.6,0-4.9-0.6-6.9-1.7c-2-1.2-3.6-2.7-4.8-4.7c-1.2-2-1.7-4.2-1.7-6.8
				c0-2.6,0.6-4.8,1.7-6.8c1.2-2,2.8-3.6,4.8-4.7C154.2,34,156.5,33.4,159.1,33.4z M159.1,54.7c1.5,0,2.8-0.3,3.9-1
				c1.1-0.7,2-1.6,2.6-2.9c0.6-1.2,1-2.6,1-4.2c0-1.6-0.3-2.9-1-4.1c-0.6-1.2-1.5-2.2-2.6-2.9c-1.1-0.7-2.4-1.1-3.9-1.1
				c-1.4,0-2.7,0.3-3.9,1c-1.1,0.7-2,1.6-2.6,2.9c-0.6,1.2-1,2.6-1,4.2c0,1.5,0.3,2.9,1,4.1c0.6,1.2,1.5,2.2,2.6,2.9
				C156.3,54.4,157.6,54.7,159.1,54.7z"/>
			<path class="st2" d="M203.4,33.8v14.8c0,3.6-1,6.4-2.9,8.3c-2,2-4.7,2.9-8.2,2.9c-3.5,0-6.2-1-8.2-2.9c-2-2-2.9-4.7-2.9-8.3V33.8
				h5.8v14.3c0,2,0.4,3.6,1.3,4.8c0.9,1.1,2.3,1.7,4.2,1.7c1.9,0,3.2-0.6,4.1-1.7c0.9-1.2,1.3-2.7,1.3-4.8V33.8H203.4z"/>
			<path class="st2" d="M235.8,33.8v25.7h-4.9l-9.8-13.7c-0.4-0.5-0.7-1-1.1-1.6c-0.3-0.5-0.6-1.1-0.9-1.6h-0.2v16.8h-5.5V33.8h5.6
				l9.1,12.8c0.4,0.5,0.7,1,1,1.6c0.3,0.5,0.6,1,0.9,1.5h0.2V33.8H235.8z"/>
			<path class="st2" d="M269.5,46.7c0,2.5-0.6,4.7-1.7,6.7c-1.2,1.9-2.8,3.4-4.9,4.5c-2.1,1.1-4.6,1.6-7.6,1.6h-9.2V33.8h9.2
				c2.9,0,5.5,0.5,7.6,1.6c2.1,1.1,3.8,2.6,4.9,4.5C268.9,41.9,269.5,44.1,269.5,46.7z M263.5,46.7c0-1.7-0.3-3.1-1-4.3
				c-0.7-1.2-1.6-2.1-2.9-2.7c-1.2-0.7-2.7-1-4.4-1h-3.5v16h3.5c1.7,0,3.2-0.3,4.4-1c1.2-0.7,2.2-1.6,2.9-2.8
				C263.2,49.7,263.5,48.3,263.5,46.7z"/>
			<path class="st2" d="M295.6,33.8l-0.4,5.1h-11v5.1h9v5h-9v5.4h11.6v5.1h-17.4V33.8H295.6z"/>
			<path class="st2" d="M324.3,42.5c0,1.7-0.5,3.2-1.4,4.4c-0.9,1.2-2.1,2.1-3.5,2.5l6.8,10.1h-6.7l-5.7-8.6h-3.2v8.6h-5.8V33.8h8.9
				c2.2,0,4.2,0.3,5.8,1c1.6,0.7,2.8,1.6,3.6,2.9C323.9,39.1,324.3,40.6,324.3,42.5z M318.5,42.5c0-0.9-0.2-1.6-0.7-2.2
				c-0.4-0.6-1-1-1.7-1.3c-0.7-0.3-1.6-0.4-2.6-0.4h-3v7.8h3c1,0,1.9-0.1,2.6-0.4c0.8-0.3,1.3-0.7,1.7-1.3
				C318.3,44.1,318.5,43.4,318.5,42.5z"/>
			<path class="st2" d="M351.1,34.8l-1.1,5.1c-0.5-0.3-1.1-0.5-1.9-0.7c-0.8-0.2-1.5-0.4-2.3-0.5c-0.8-0.1-1.6-0.2-2.3-0.2
				c-1.4,0-2.4,0.2-3.2,0.6c-0.7,0.4-1.1,1-1.1,1.9c0,0.6,0.2,1,0.7,1.4c0.5,0.3,1.1,0.6,1.8,0.9c0.8,0.3,1.6,0.5,2.6,0.8
				c0.9,0.3,1.8,0.6,2.8,1c0.9,0.3,1.8,0.8,2.5,1.4c0.7,0.5,1.4,1.3,1.8,2.2c0.5,0.9,0.7,1.9,0.7,3.2c0,2.5-0.9,4.4-2.7,5.9
				c-1.8,1.5-4.4,2.2-7.9,2.2c-1.6,0-3.1-0.1-4.5-0.4c-1.4-0.3-2.6-0.7-3.5-1.2l0.5-5.4c0.6,0.3,1.3,0.7,2.1,1
				c0.8,0.3,1.7,0.5,2.7,0.7c1,0.2,1.9,0.3,2.9,0.3c1.5,0,2.7-0.2,3.4-0.6c0.8-0.4,1.1-1.1,1.1-1.9c0-0.6-0.2-1.1-0.7-1.5
				c-0.5-0.4-1.1-0.7-1.8-1c-0.8-0.3-1.6-0.5-2.5-0.8c-0.9-0.3-1.8-0.6-2.8-0.9c-0.9-0.4-1.8-0.8-2.6-1.4c-0.8-0.5-1.4-1.3-1.8-2.1
				c-0.5-0.9-0.7-1.9-0.7-3.2c0-1.6,0.4-3,1.2-4.1c0.8-1.2,2-2.1,3.5-2.8c1.5-0.7,3.3-1,5.4-1c0.8,0,1.7,0.1,2.7,0.2
				c1,0.1,1.9,0.2,2.7,0.4C349.7,34.3,350.4,34.5,351.1,34.8z"/>
			<path class="st2" d="M383.4,33.8v25.7h-5.8V49.2h-10.9v10.3h-5.8V33.8h5.8V44h10.9V33.8H383.4z"/>
			<path class="st2" d="M399.4,33.8v25.7h-5.8V33.8H399.4z"/>
			<path class="st2" d="M429.3,42.6c0,1.9-0.4,3.5-1.3,4.8c-0.8,1.3-2.1,2.3-3.7,3c-1.6,0.7-3.6,1-5.8,1h-3v8h-5.8V33.8h8.8
				c2.3,0,4.2,0.3,5.8,1c1.6,0.7,2.8,1.7,3.7,3C428.9,39.1,429.3,40.7,429.3,42.6z M423.5,42.6c0-1-0.2-1.7-0.7-2.3
				c-0.4-0.6-1-1.1-1.8-1.3c-0.7-0.3-1.7-0.4-2.7-0.4h-2.9v8.2h2.9c1.1,0,2-0.1,2.7-0.4c0.8-0.3,1.4-0.7,1.8-1.3
				C423.3,44.4,423.5,43.6,423.5,42.6z"/>
		</g>
		<g>
			<path class="st3" d="M9.9,28.3c-1.2-0.5-2.4-1.2-3.5-1.9c-0.5-0.3-1-0.7-1.5-1.1c1.2-2.4,2.7-4.7,4.3-6.8c2.1,2,4.9,3.2,7.9,3.5
				c2.9,0.2,5.9-0.6,8.3-2.2c2.4-1.7,4.2-4.1,5-6.9c0.8-2.8,0.6-5.8-0.5-8.5c-0.1-0.2-0.1-0.3-0.2-0.5c2.5-0.9,5.2-1.6,7.8-2
				c1.2,3.1,1.6,6.5,1.2,9.8c-0.4,3.3-1.6,6.5-3.4,9.2c-2.3,3.3-5.4,5.9-9.2,7.5c-2.6,1.1-5.3,1.6-8.1,1.6
				C15.3,30,12.5,29.4,9.9,28.3z"/>
			<path class="st3" d="M7.7,70.6c2.6-1.3,4.6-3.5,5.8-6.1c1.2-2.6,1.5-5.5,0.8-8.3c-0.7-2.8-2.3-5.3-4.5-7
				c-2.3-1.8-5.1-2.7-7.9-2.7c-0.6,0-1.2,0-1.7,0.1c0-0.3,0-0.5,0-0.8c0-2.4,0.2-4.8,0.6-7.2c0.4,0,0.8,0,1.1,0
				c4.2,0,8.2,1.2,11.6,3.5c3.3,2.3,6,5.4,7.5,9.1c1.4,3.2,1.9,6.6,1.5,10.1c-0.3,3.4-1.5,6.7-3.5,9.6c-1.5,2.2-3.4,4.1-5.6,5.6
				c-0.2,0.1-0.4,0.3-0.6,0.4C10.9,74.9,9.2,72.8,7.7,70.6z"/>
			<path class="st3" d="M27.3,78.4c-1.4,2.1-2.4,4.3-3,6.7c2.4,1.2,4.9,2.2,7.5,3c0.4-3,2-5.8,4.3-7.8c2.3-2,5.3-3.1,8.4-3.1
				c3.1,0,6.1,1.1,8.4,3.1c2.3,2,3.9,4.8,4.3,7.8c2.6-0.8,5.1-1.8,7.5-3c-0.3-1.1-0.6-2.2-1.1-3.2c-1.6-3.7-4.2-6.9-7.5-9.1
				c-2.9-1.9-6.2-3.1-9.6-3.5c-3.4-0.3-6.9,0.2-10.1,1.5C32.7,72.5,29.5,75.1,27.3,78.4z"/>
			<path class="st3" d="M79.2,28.3c1.2-0.5,2.4-1.2,3.5-1.9c0.5-0.3,1-0.7,1.5-1.1c-1.2-2.4-2.7-4.7-4.3-6.8c-2.1,2-4.9,3.2-7.9,3.5
				c-2.9,0.2-5.9-0.6-8.3-2.2c-2.4-1.7-4.2-4.1-5-6.9c-0.8-2.8-0.6-5.8,0.5-8.5c0.1-0.2,0.1-0.3,0.2-0.5c-2.5-0.9-5.2-1.6-7.8-2
				c-1.2,3.1-1.6,6.5-1.2,9.8c0.4,3.3,1.6,6.5,3.4,9.2c2.3,3.3,5.4,5.9,9.2,7.5c2.6,1.1,5.3,1.6,8.1,1.6
				C73.9,30,76.6,29.4,79.2,28.3z"/>
			<path class="st3" d="M78.4,68.3c0.9,0.9,2,1.7,3.2,2.3c-1.5,2.2-3.2,4.3-5.1,6.2c-0.2-0.1-0.4-0.3-0.6-0.4
				c-1.1-0.7-2.1-1.6-3.1-2.5c-0.9-0.9-1.8-2-2.5-3.1c-0.8-1.1-1.4-2.3-1.9-3.5c-1.1-2.6-1.6-5.3-1.6-8.1c0-2.8,0.6-5.5,1.6-8.1
				c0.5-1.2,1.2-2.4,1.9-3.5c1.5-2.2,3.4-4.1,5.6-5.6c1.1-0.8,2.3-1.4,3.5-1.9c2.6-1.1,5.3-1.6,8.1-1.6c0.4,0,0.8,0,1.1,0
				c0.4,2.4,0.6,4.8,0.6,7.2c0,0.3,0,0.5,0,0.8c-0.6-0.1-1.2-0.1-1.7-0.1c-1.7,0-3.4,0.3-4.9,1c-1.6,0.6-3,1.6-4.2,2.8
				c-1.2,1.2-2.1,2.5-2.8,4.1c-0.7,1.6-1,3.3-1,5c0,1.7,0.3,3.4,1,5C76.3,65.8,77.2,67.1,78.4,68.3z"/>
			<path class="st3" d="M43.3,43.6c0.5-0.8,2-0.8,2.5,0l9.9,16.8c0.4,0.7-0.7,0.9-0.7,0.9c-3.3-1.5-6.9-2.2-10.5-2.2
				c-3.6,0-7.2,0.8-10.5,2.2c0,0-0.9-0.2-0.5-0.9L43.3,43.6z"/>
			<path class="st3" d="M47.6,31c-0.9-0.6-2-0.9-3.1-0.9c-1.5,0-2.9,0.6-3.9,1.6c-1,1-1.6,2.4-1.6,3.9c0,1.1,0.3,2.2,0.9,3.1
				c0.6,0.9,1.5,1.6,2.5,2c1,0.4,2.1,0.5,3.2,0.3c1.1-0.2,2.1-0.7,2.8-1.5c0.8-0.8,1.3-1.8,1.5-2.8c0.2-1.1,0.1-2.2-0.3-3.2
				C49.3,32.5,48.6,31.6,47.6,31z"/>
		</g>
	</g>
</g>
<g id="Layer_2">
	<g>
		<path class="st4" d="M262.8,88.2l6.8-16.3L251.2,28h10.6l12.9,32.2h0.8L288.2,28h10.2l-25.2,60.2H262.8z"/>
		<path class="st4" d="M84.8,72V20.1H65.7v-9h44.6c2.5,0,4.5,2,4.5,4.5s-2,4.5-4.5,4.5H94.9V72H84.8z"/>
		<path class="st4" d="M102.6,50c0-15.4,9.7-23.2,23-23.2c13,0,21.7,8.4,21.7,22.4c0,0.9-0.1,2.5-0.3,3.4h-34.7
			c0.7,8.5,6.1,13.2,13.2,13.2c4.4,0,8.4-2,10.4-5.6h9.6c-2.6,8.1-10.2,13-19.9,13C111.4,73.2,102.6,64.4,102.6,50z M137.3,45.8
			c-0.8-7.5-5.9-11.7-12.2-11.7c-6.1,0-11.6,4.1-12.6,11.7H137.3z"/>
		<path class="st4" d="M154.7,72V47.7c0-14.5,8.4-21,21.8-21c13.6,0,21.8,6.1,21.8,20.6V72h-9.7V47.3c0-8.5-4.5-12.4-12.2-12.4
			c-7.7,0-12.2,4.2-12.2,12.8V72H154.7z"/>
		<path class="st4" d="M206.8,15.8c0-3.4,2.5-5.9,5.9-5.9c3.3,0,5.9,2.6,5.9,5.9c0,3.4-2.5,5.9-5.9,5.9
			C209.4,21.7,206.7,19.1,206.8,15.8z M207.8,72V32.8c0-2.7,2.2-4.8,4.8-4.8c2.7,0,4.8,2.2,4.8,4.8V72H207.8z"/>
		<path class="st4" d="M227.3,72V36.1V28V16.2h9.7V28h7.4c2.3,0,4.1,1.8,4.1,4.1c0,2.3-1.8,4.1-4.1,4.1h-7.4V72H227.3z"/>
		<path class="st4" d="M25.3,63.4c-3.2,0-5.8,2.6-5.8,5.8v10.3l11.7,6.8V69.3C31.1,66,28.5,63.4,25.3,63.4z"/>
		<path class="st4" d="M36,10.6L28.2,3c-1.6-1.6-4.2-1.6-5.8,0l-7.8,7.6c-4.1,4-6.4,9.4-6.4,15.1v17.9l-5.2,3.3
			C1.2,48.1,0,50.2,0,52.4v15.8l42.4-24.7V25.7C42.4,20,40.1,14.6,36,10.6z M25.3,31.5c-3.5,0-6.3-2.8-6.3-6.3
			c0-3.5,2.8-6.3,6.3-6.3s6.3,2.8,6.3,6.3C31.6,28.7,28.8,31.5,25.3,31.5z"/>
		<path class="st4" d="M42.4,63.4l8.9,5.2V53.1c0-2.4-1.2-4.7-3.3-6l-5.6-3.5V63.4z"/>
	</g>
</g>
</svg>
