<?xml version="1.0" encoding="utf-8"?>
<!-- Generator: Adobe Illustrator 25.0.1, SVG Export Plug-In . SVG Version: 6.00 Build 0)  -->
<svg version="1.1" id="Layer_1" xmlns="http://www.w3.org/2000/svg" xmlns:xlink="http://www.w3.org/1999/xlink" x="0px" y="0px"
	 viewBox="0 0 254.3 207.9" style="enable-background:new 0 0 254.3 207.9;" xml:space="preserve">
<style type="text/css">
	.st0{fill-rule:evenodd;clip-rule:evenodd;fill:#EE4823;}
	.st1{fill-rule:evenodd;clip-rule:evenodd;fill:#818385;}
</style>
<g id="Layer_x0020_1_1_">
	<g id="_266903368">
		<path id="_267157256" class="st0" d="M190.5,127.7c-5.5,7.8-15.5,8.4-20.8-0.1c-10.7,8.5-21.5,7.8-31.3,0.2c-1.9,3-4.4,5-7.9,5.7
			c-6.5,1.3-13.2-3.3-13.7-9.9c-0.3-4.5,0-9-0.1-13.5c-0.1-3.8,0-7.6-0.7-11.2c-1.3-6.7-8.3-11.4-15.3-10.7
			c-6.8,0.7-12.3,6.4-12.6,13.2c-0.2,4.2-0.1,8.4-0.4,12.5c-0.5,8.6-7.4,16.9-15.5,19c-1.4,0.3-2.8,0.5-4.2,0.5
			c-2.6,0.1-4-1-4.2-3.2c-0.1-2.5,1.1-3.8,3.7-4.2c4.6-0.6,8.3-2.6,10.5-6.8c1.7-3.3,2.3-6.9,2.3-10.6c0-14.2-0.1-28.4-0.1-42.6
			c0-0.2,0-0.3,0-0.5c0-0.6,0-1.2,0.1-1.8c0.2-1.8,1.5-3,3.3-3.1c1.8-0.1,3.3,0.8,3.8,2.5c0.2,0.7,0.3,1.5,0.3,2.2c0,0,0,0.1,0,0.1
			c0,6.1-0.1,12.1-0.1,18.2c0,0.7,0.1,1.3,0.1,2.2c0.6-0.4,1-0.6,1.3-0.9c8.9-7,22.3-5.7,30.4,2.9c3.2,3.4,4.6,7.6,4.8,12.2
			c0.2,6.9,0.1,13.8,0.2,20.8c0,0.7,0,1.4,0.1,2.1c0.2,2.2,1.9,3.8,3.9,3.8c2,0,3.8-1.8,3.9-4c0.1-1.1,0-2.2,0-3.3
			c0-11.7,0-23.5,0-35.2c0-1.8,0.7-3.1,2.4-3.8c1.6-0.7,3.1-0.5,4.1,0.7c0.7,0.9,1.3,2.3,1.3,3.5c0.1,9,0,18,0.1,27
			c0,8.4,6.6,14.7,15,14.4c7.6-0.2,13.4-6.7,13.5-14.9c0.1-8.6,0-17.2,0-25.8c0-0.2,0-0.4,0-0.5c0-0.5,0-0.9,0.1-1.4
			c0.2-2,1.9-3.5,3.8-3.4c2,0,3.7,1.7,3.7,3.8v0c0,2.7,0,5.4,0,8.1c0,9.8,0,19.6,0,29.4c0,0.6,0,1.3,0.1,1.9c0.3,2,1.9,3.5,3.8,3.6
			c0,0,0.1,0,0.1,0c1.9,0,3.6-1.4,3.8-3.4c0.2-1.9,0.2-3.8,0.2-5.6c0-17.6-0.1-35.3-0.1-52.9c0-2.4,1.1-3.8,3-4.1
			c2-0.3,3.8,0.6,4.3,2.5c0.2,0.6,0.2,1.2,0.2,1.9c0,5.8,0,11.7,0,17.5c0,0.6,0,1.2,0.1,2.2c1.4-0.8,2.4-1.4,3.5-2
			c11.8-6.8,27.5-1,31.6,11.9c0.7,2.2,1.1,4.6,1.1,6.9c0.2,6.3,0.8,12.6-1.6,18.6c-0.8,1.9-1.9,3.8-2.9,5.9l7.9,0c2.9,0,5.7,0,8.6,0
			c1.2,0,1.6-0.4,1.8-1.5c2.1-9.9,2.8-19.9,1.8-30c-2.2-21.5-10.7-40.1-25.4-55.9C203.1,23,185.1,13.3,163.9,9.7
			c-50-8.4-98,23.8-109.1,73.2c-0.6,2.9-1,5.8-1.5,8.8c-0.2,1-0.5,1.5-1.6,1.5c-2.3-0.1-4.6,0-7.2,0c0.8-4.4,1.3-8.5,2.3-12.6
			C50.6,64,58,49.1,69.2,36.2c16.2-18.5,36.2-30.5,60.6-34.5c34.4-5.7,64.6,3.4,90.1,27.2c16.6,15.6,26.7,34.9,30.6,57.4
			c2.6,15.2,1.8,30.3-2.1,45.2c-0.4,1.6-1.1,2.2-2.8,2.2c-12.6-0.1-25.3,0-37.9-0.1c-2.6,0-5.1-0.2-7.7-0.6
			C196.2,132.4,193.1,130.7,190.5,127.7L190.5,127.7z M220.8,107L220.8,107c0-2-0.1-4-0.3-5.9c-0.1-0.7-0.1-1.3-0.2-2
			c-0.2-1.5-0.7-2.9-1.3-4.3c-2-4.4-6.1-6.6-9.9-7.3l0,0c0,0-0.1,0-0.1,0c-0.6-0.1-1.1-0.2-1.7-0.2c-0.3,0-0.6,0-0.9,0
			c0,0,0,0-0.1,0c0,0,0,0-0.1,0c-0.3,0-0.6,0-0.9,0c-0.6,0-1.1,0.1-1.7,0.2c0,0-0.1,0-0.1,0l0,0c-3.8,0.7-7.8,2.9-9.9,7.3
			c-0.7,1.3-1.2,2.7-1.3,4.3c-0.1,0.7-0.1,1.3-0.2,2c-0.3,1.9-0.3,3.9-0.3,5.9l0,0c0,5.6,0.2,5.9,0.5,7.6c0.5,3.7,3.1,7.2,6.7,9.3
			c1.9,1.1,4,1.8,6.2,2c0.4,0,0.7,0,1.1,0c0.4,0,0.7,0,1.1,0c2.2-0.1,4.3-0.8,6.2-2c3.6-2.1,6.2-5.6,6.7-9.3
			C220.6,112.9,220.8,112.6,220.8,107z"/>
		<path id="_266026032" class="st1" d="M32.9,126c-3,0-6.1,0.1-9.1,0c-7.1-0.3-12.4-5.2-13.1-12.3c-0.2-1.8-0.4-3.5-0.4-5.3
			c0-7.6,0-15.2,0-23.1h2.2l15.8,0c2.8,0,4.4-1.3,4.4-3.4c0-2.2-1.6-3.3-4.3-3.3c-5.3,0-10.5-0.1-15.8,0c-1.8,0-2.2-0.6-2.2-2.3
			c0.1-3.8,0.1-7.7,0-11.5c0-2.6-1.6-4.3-3.8-4.4c-2.2,0-3.9,1.8-4,4.4C2.5,76.5,2.4,88.1,2.3,99.7c0,5.8-0.3,11.6,1,17.3
			c1.9,8.1,6.3,14.2,14.7,15.8c4.9,1,10.1,0.7,15.2,0.8c2.2,0,3.4-1.8,3.3-4.2C36.4,127.1,35.2,126,32.9,126L32.9,126z M57.1,107.6
			c2.2-0.1,3.7-1.9,3.6-4.2c-0.1-2.2-1.6-3.8-3.9-3.9c-2.3,0-4.3,0-6.5,0h-6.7c-2.3,0.1-3.9,1.6-4,3.8c-0.1,2.2,1.4,4.2,3.6,4.2
			C47.8,107.7,52.4,107.7,57.1,107.6L57.1,107.6z M238.3,139.9c-1.3,0-1.9,0.4-2.4,1.6c-4.7,11.2-11.3,21.2-20,29.7
			c-25.4,24.5-55.6,33.4-90.2,25.6c-35.4-8-63.4-36.9-71-72.6c-0.7-3.3-1.2-6.7-1.8-10h-8.2c4.3,48.1,44.3,92.1,100.7,93.7
			c49.3,1.4,87.6-31.6,100-67.9C243,139.9,240.6,140,238.3,139.9L238.3,139.9z"/>
	</g>
</g>
</svg>
