<?xml version="1.0" encoding="utf-8"?>
<!-- Generator: Adobe Illustrator 25.0.1, SVG Export Plug-In . SVG Version: 6.00 Build 0)  -->
<svg version="1.1" id="Layer_1" xmlns="http://www.w3.org/2000/svg" xmlns:xlink="http://www.w3.org/1999/xlink" x="0px" y="0px"
	 viewBox="0 0 56.7 56.7" style="enable-background:new 0 0 56.7 56.7;" xml:space="preserve">
<style type="text/css">
	.st0{fill:#EFF3FB;}
	.st1{fill:#3448AE;}
</style>
<g>
	<path class="st0" d="M48.7,56.7H8c-4.4,0-8-3.6-8-8V8c0-4.4,3.6-8,8-8h40.7c4.4,0,8,3.6,8,8v40.7C56.7,53.1,53.1,56.7,48.7,56.7z"
		/>
	<path class="st1" d="M31.5,22.6l5.1,4.3C36.7,27,36.9,27,37,27c0.1,0,0.3,0,0.4-0.1c0.3-0.2,0.4-0.5,0.4-0.8l-1.4-8.7
		c-0.1-0.3-0.3-0.5-0.6-0.6c-0.3-0.1-0.6,0-0.8,0.3l-3.7,4.4C31.1,21.8,31.1,22.3,31.5,22.6z M31,28.1c0-0.2-0.1-0.4-0.3-0.5
		l-2.1-1.7c-0.2-0.1-0.4-0.2-0.6-0.2c-0.2,0-0.4,0.1-0.5,0.3l-1.7,2c-0.3,0.3-0.2,0.8,0.1,1.1l2.1,1.7c0.1,0.1,0.3,0.2,0.5,0.2
		c0.2,0,0.4-0.1,0.6-0.3l1.7-2C30.9,28.5,31,28.3,31,28.1z M12.1,17.1c0.1,0,0.1,0,0.2,0l11.9-1.6c0.4-0.1,0.7-0.4,0.7-0.8l-0.1-5
		c0-0.3-0.1-0.5-0.4-0.6c-0.2-0.1-0.5-0.1-0.8,0l-12,6.9c-0.3,0.1-0.4,0.4-0.3,0.7C11.4,16.9,11.6,17.1,12.1,17.1z M44.3,39.7
		l-11.9,1.6c-0.4,0.1-0.7,0.4-0.7,0.8l0.1,5c0,0.3,0.2,0.5,0.4,0.6c0.1,0.1,0.3,0.1,0.4,0.1c0.1,0,0.3,0,0.4-0.1l12-6.9
		c0.3-0.1,0.4-0.4,0.3-0.7C45.3,39.9,45,39.6,44.3,39.7z M10.4,21.7c-0.2-0.2-0.5-0.2-0.8-0.1c-0.3,0.1-0.4,0.4-0.4,0.7v5.1
		c0,0.4,0.3,0.8,0.8,0.8h6.9c0.2,0,0.4-0.1,0.4-0.3c0.1-0.2,0-0.4-0.1-0.5L10.4,21.7z M25.2,34.1l-5.1-4.3c-0.3-0.2-0.6-0.3-0.9-0.1
		c-0.3,0.2-0.4,0.5-0.4,0.8l1.5,9.3c0,0.2,0.2,0.3,0.3,0.4c0,0,0.1,0,0.1,0c0.1,0,0.3-0.1,0.4-0.2l4.1-4.9
		C25.6,34.8,25.6,34.4,25.2,34.1z M16.8,20.9c-0.1,0.3,0,0.6,0.3,0.8l4.4,3.7c0.1,0.1,0.3,0.2,0.5,0.2c0.2,0,0.4-0.1,0.6-0.3
		l4.3-5.1c0.2-0.3,0.3-0.6,0.1-0.9c-0.2-0.3-0.5-0.4-0.8-0.4l-8.7,1.4C17.2,20.4,16.9,20.6,16.8,20.9z M28.8,17.3c0.1,0,0.1,0,0.2,0
		c0.1,0,0.3-0.1,0.4-0.2l5.3-6.3c0.1-0.2,0.2-0.4,0.2-0.6c0-0.2-0.2-0.4-0.4-0.5l-3.9-2.2c-0.3-0.2-0.6-0.3-1-0.4
		c-0.2-0.1-0.5,0-0.7,0.1c-0.2,0.1-0.3,0.4-0.3,0.6v9C28.5,17.1,28.7,17.3,28.8,17.3z M14.7,31.8l-4.7,0.1c-0.4,0-0.7,0.4-0.7,0.8
		v4.5c0,1.3,0.7,2.5,1.9,3.2l4.6,2.6c0.1,0.1,0.3,0.1,0.4,0.1c0.1,0,0.3-0.1,0.4-0.1c0.3-0.2,0.4-0.4,0.3-0.7l-1.3-9.9
		C15.4,32.1,15.1,31.8,14.7,31.8z M45.7,16.2l-4.6-2.6c-0.3-0.1-0.6-0.1-0.8,0c-0.3,0.2-0.4,0.4-0.3,0.7l1.3,9.9
		c0.1,0.4,0.4,0.7,0.8,0.7h0l4.7-0.1c0.4,0,0.7-0.3,0.7-0.8v-4.6C47.5,18.1,46.8,16.9,45.7,16.2z M39.9,35.8c0.1-0.3,0-0.6-0.3-0.8
		l-4.4-3.7c-0.3-0.3-0.8-0.2-1.1,0.1l-4.3,5.1c-0.2,0.3-0.3,0.6-0.1,0.9c0.1,0.3,0.4,0.4,0.7,0.4c0,0,0.1,0,0.1,0l8.7-1.4
		C39.5,36.3,39.8,36.1,39.9,35.8z M27.9,39.3c-0.2-0.1-0.4,0-0.5,0.1l-5.3,6.3c-0.1,0.2-0.2,0.4-0.2,0.6c0,0.2,0.2,0.4,0.4,0.5
		l3.9,2.3c0.3,0.2,0.6,0.3,1,0.4c0.1,0,0.1,0,0.2,0c0.2,0,0.3-0.1,0.5-0.2c0.2-0.1,0.3-0.4,0.3-0.6v-9C28.1,39.6,28,39.4,27.9,39.3z
		 M46.8,28.5h-6.1c-0.3,0-0.6,0.2-0.7,0.5c-0.1,0.3,0,0.6,0.2,0.8l6.1,5.1c0.1,0.1,0.3,0.2,0.5,0.2c0.1,0,0.2,0,0.3-0.1
		c0.3-0.1,0.4-0.4,0.4-0.7v-5.1C47.5,28.9,47.2,28.5,46.8,28.5z"/>
</g>
</svg>
