<?xml version="1.0" encoding="utf-8"?>
<!-- Generator: Adobe Illustrator 25.0.1, SVG Export Plug-In . SVG Version: 6.00 Build 0)  -->
<svg version="1.1" id="Layer_1" xmlns="http://www.w3.org/2000/svg" xmlns:xlink="http://www.w3.org/1999/xlink" x="0px" y="0px"
	 viewBox="0 0 56.7 56.7" style="enable-background:new 0 0 56.7 56.7;" xml:space="preserve">
<style type="text/css">
	.st0{fill:#3860AD;}
	.st1{fill:#FFFFFF;}
</style>
<g id="Alchemy">
	<path class="st0" d="M48.7,56.7H8c-4.4,0-8-3.6-8-8V8c0-4.4,3.6-8,8-8h40.7c4.4,0,8,3.6,8,8v40.7C56.7,53.1,53.1,56.7,48.7,56.7z"
		/>
	<g id="Layer_48">
		<path class="st1" d="M17.7,46.9V28.3L7.1,46.9H17.7z M38.9,28.3v18.6h10.7L38.9,28.3z M22.2,20.5v14.6l0,0
			c1.1-1.1,3.9-2.4,6.8-2.7c2.1-0.2,4,0.2,5.4,0.7V20.5L28.3,9.8L22.2,20.5z M23.1,40.7c-0.6,1-0.9,2.6-0.9,3.8
			c0,0.8,0.1,1.6,0.4,2.4h11.8v-9c-1.4-0.9-2.9-1.4-4.6-1.3C26.9,36.6,24.5,38.4,23.1,40.7z"/>
	</g>
</g>
</svg>
