<?xml version="1.0" encoding="UTF-8"?>
<svg id="Layer_1" xmlns="http://www.w3.org/2000/svg" version="1.1" viewBox="0 0 56.7 56.7">
  <!-- Generator: Adobe Illustrator 29.4.0, SVG Export Plug-In . SVG Version: 2.1.0 Build 152)  -->
  <defs>
    <style>
      .st0 {
        fill: #fff;
      }

      .st1 {
        fill: #7637ba;
      }

      .st2 {
        fill: #2c2236;
      }
    </style>
  </defs>
  <g id="Ascendex">
    <path class="st0" d="M48.7,56.7H8c-4.4,0-8-3.6-8-8V8C0,3.6,3.6,0,8,0h40.7C53.1,0,56.7,3.6,56.7,8v40.7c0,4.4-3.6,8-8,8Z"/>
    <g>
      <path class="st1" d="M50.5,12.2c-1.2-.5-2.6-.2-3.5.7l-11.3,11.3v6.5l12.1-12.1v21.5h-20.7l-2.5-4-4,4h0l-4.6,4.6h33.1c1.7,0,3.2-1.4,3.2-3.2V15.2c0-1.3-.8-2.5-2-3h.2Z"/>
      <path class="st2" d="M15.4,40.1l14.1-14.2v12.7h4.6v-16.2c0-1.3-.8-2.5-2-3s-2.6-.2-3.5.7L4.3,44.7h9.9l4.6-4.6s-3.4,0-3.4,0Z"/>
    </g>
  </g>
</svg>