<?xml version="1.0" encoding="UTF-8"?>
<svg id="Binance_Us" data-name="Binance Us" xmlns="http://www.w3.org/2000/svg" viewBox="0 0 56.7 56.7">
  <defs>
    <style>
      .cls-1 {
        fill: #f3ba2f;
      }

      .cls-2 {
        fill: #141414;
      }
    </style>
  </defs>
  <path class="cls-2" d="M48.7,56.7H8c-4.4,0-8-3.6-8-8V8C0,3.6,3.6,0,8,0h40.7C53.1,0,56.7,3.6,56.7,8v40.7c0,4.4-3.6,8-8,8Z"/>
  <path class="cls-1" d="M19.5,24.7l8.8-8.8,8.8,8.8,5.1-5.1-13.9-13.9-13.9,13.9,5.1,5.1ZM10.8,23.2l5.1,5.1-5.1,5.1-5.1-5.1,5.1-5.1ZM19.5,32l8.8,8.8,8.8-8.8,5.1,5.1h0s-13.9,13.9-13.9,13.9l-13.9-13.9h0s5.1-5.1,5.1-5.1ZM51,28.4l-5.1,5.1-5.1-5.1,5.1-5.1,5.1,5.1ZM33.5,28.3h0l-5.2-5.2-3.8,3.8h0l-.4.4-.9.9h0s0,0,0,0l5.2,5.2,5.2-5.2h0s0,0,0,0Z"/>
</svg>