<?xml version="1.0" encoding="utf-8"?>
<!-- Generator: Adobe Illustrator 25.0.1, SVG Export Plug-In . SVG Version: 6.00 Build 0)  -->
<svg version="1.1" id="Layer_1" xmlns="http://www.w3.org/2000/svg" xmlns:xlink="http://www.w3.org/1999/xlink" x="0px" y="0px"
	 viewBox="0 0 56.7 56.7" style="enable-background:new 0 0 56.7 56.7;" xml:space="preserve">
<style type="text/css">
	.st0{fill:#C6C6C5;}
	.st1{fill:#4661AD;}
</style>
<path class="st0" d="M48.7,57.2H8c-4.4,0-8-3.6-8-8V8.5c0-4.4,3.6-8,8-8h40.7c4.4,0,8,3.6,8,8v40.7C56.7,53.6,53.1,57.2,48.7,57.2z"
	/>
<path class="st1" d="M49.6,21.2V12c-4.9,0-9.8,1.2-14,3.6c-2.3,1.3-4.4,2.8-6.3,4.6c-0.3,0.3-0.6,0.6-0.9,1c-0.3-0.3-0.6-0.6-0.9-1
	c-1.9-1.8-4-3.4-6.3-4.6C16.9,13.2,12,12,7.1,12v9.3c6.2,0,11.8,2.8,15.7,7.6c-3.8,4.8-9.5,7.6-15.7,7.6v9.3c4.9,0,9.8-1.2,14-3.6
	c2.3-1.3,4.4-2.8,6.3-4.6c0.3-0.3,0.6-0.6,0.9-1c0.3,0.3,0.6,0.6,0.9,1c1.9,1.8,4,3.4,6.3,4.6c4.3,2.3,9.1,3.6,14,3.6v-9.3
	c-6.2,0-11.9-2.8-15.7-7.6C37.8,24,43.5,21.2,49.6,21.2z"/>
</svg>
