<?xml version="1.0" encoding="UTF-8"?>
<svg id="Bitkub" xmlns="http://www.w3.org/2000/svg" viewBox="0 0 56.7 56.7">
  <defs>
    <style>
      .cls-1 {
        fill: #4cba64;
      }
    </style>
  </defs>
  <path class="cls-1" d="M38.2,11.3c-2,2-2,5.2,0,7.2,0,0,0,0,0,0l9.8,9.8-9.9,9.9-5-5c-2-2-5.2-2-7.2,0l12.2,12.2,17.1-17.1-17.1-17.1ZM38.2,24.8c1.9,0,3.5,1.6,3.5,3.5s-1.6,3.5-3.5,3.5-3.5-1.6-3.5-3.5,1.6-3.5,3.5-3.5ZM18.5,45.4c2-2,2-5.2,0-7.2l-9.8-9.8,9.9-9.9,5,5c2,2,5.2,2,7.2,0l-12.2-12.2L1.4,28.4l17.1,17.1ZM18.5,24.8c1.9,0,3.5,1.6,3.5,3.5s-1.6,3.5-3.5,3.5-3.5-1.6-3.5-3.5,1.6-3.5,3.5-3.5Z"/>
</svg>