<?xml version="1.0" encoding="utf-8"?>
<!-- Generator: Adobe Illustrator 25.0.1, SVG Export Plug-In . SVG Version: 6.00 Build 0)  -->
<svg version="1.1" id="Layer_1" xmlns="http://www.w3.org/2000/svg" xmlns:xlink="http://www.w3.org/1999/xlink" x="0px" y="0px"
	 viewBox="0 0 56.7 56.7" style="enable-background:new 0 0 56.7 56.7;" xml:space="preserve">
<style type="text/css">
	.st0{fill:#FFFFFF;}
</style>
<g>
	<path d="M48.7,56.7H8c-4.4,0-8-3.6-8-8V8c0-4.4,3.6-8,8-8h40.7c4.4,0,8,3.6,8,8v40.7C56.7,53.1,53.1,56.7,48.7,56.7z"/>
	<path class="st0" d="M28,7.2c4.8,0,9.5-0.1,14.3-0.1c0.8,0,0.9,0.1,1,0.9c0.2,1.8,0.5,3.7,0.6,5.5c0.2,3.6,0.2,7.2,0.3,10.8
		c0,0.3-0.1,0.5-0.3,0.7c-0.8,0.6-1.7,1-2.7,1.1c-1.3,0.2-1.8,1.4-1.6,2.4c0.2,0.7,0.6,1.1,1.3,1.3c1.2,0.3,2.2,1,3,1.9
		c0.2,0.2,0.3,0.5,0.3,0.8c-0.1,3.8-0.3,7.6-0.4,11.4c-0.1,1.4-0.3,2.8-0.4,4.2c0,0.4-0.3,0.6-0.7,0.7c-1.4,0.1-2.9,0.3-4.3,0.4
		c-6.7,0.4-13.4,0.4-20,0.1c-1.7-0.1-3.3-0.3-5-0.5c-0.4,0-0.6-0.3-0.6-0.6c-0.1-1-0.3-2-0.3-3c0-5.6-0.1-11.2-0.1-16.8
		c0-3.4,0.1-6.8,0.2-10.2c0.1-3.2,0.2-6.4,0.3-9.7c0-0.4-0.1-0.8,0.1-1c0.2-0.2,0.7-0.1,1-0.1c3-0.1,5.9-0.1,8.9-0.1
		C24.7,7.3,26.4,7.3,28,7.2C28,7.3,28,7.2,28,7.2z M26.1,36.3C26.1,36.3,26.1,36.3,26.1,36.3C26,36.9,26,37.5,26,38.1
		c0,0.6,0,1.2,0,1.8c0,1,0.8,1.8,1.9,1.8c1.1,0,2-0.7,2-1.8c0.1-2.4,0.1-4.7,0.2-7.1c0-0.4-0.1-0.8-0.3-1.1
		c-0.4-0.8-1.4-1.1-2.3-0.8c-0.8,0.2-1.3,0.9-1.4,1.8C26.1,33.9,26.1,35.1,26.1,36.3z M30.3,18.7C30.3,18.7,30.2,18.7,30.3,18.7
		c0-1.1,0-2.1,0-3.2c0-1.2-0.9-1.9-2.1-1.9c-1.1,0-1.9,0.9-1.9,2c0,2,0,4.1,0.1,6.1c0,0.4,0.1,0.8,0.3,1.1c0.4,0.7,1.4,1,2.2,0.8
		c0.9-0.3,1.4-0.8,1.4-1.8C30.3,20.8,30.3,19.7,30.3,18.7z"/>
</g>
</svg>
