<?xml version="1.0" encoding="UTF-8"?>
<svg id="Layer_1" xmlns="http://www.w3.org/2000/svg" version="1.1" xmlns:xlink="http://www.w3.org/1999/xlink" viewBox="0 0 56.7 56.7">
  <!-- Generator: Adobe Illustrator 29.4.0, SVG Export Plug-In . SVG Version: 2.1.0 Build 152)  -->
  <defs>
    <style>
      .st0 {
        fill: #0072ff;
      }

      .st1 {
        fill: url(#linear-gradient2);
      }

      .st2 {
        fill: #fff;
      }

      .st3 {
        fill: url(#linear-gradient1);
      }

      .st4 {
        fill: url(#linear-gradient3);
      }

      .st5 {
        fill: url(#linear-gradient);
      }
    </style>
    <linearGradient id="linear-gradient" x1="34.7" y1="5624.2" x2="34.7" y2="5618" gradientTransform="translate(0 -5610.9)" gradientUnits="userSpaceOnUse">
      <stop offset="0" stop-color="#daefff"/>
      <stop offset=".2" stop-color="#fff"/>
    </linearGradient>
    <linearGradient id="linear-gradient1" x1="27.8" y1="5645.5" x2="27.8" y2="5660.6" gradientTransform="translate(0 -5610.9)" gradientUnits="userSpaceOnUse">
      <stop offset=".2" stop-color="#daefff"/>
      <stop offset=".6" stop-color="#fff"/>
    </linearGradient>
    <linearGradient id="linear-gradient2" x1="24.9" y1="5636.8" x2="42.3" y2="5636.8" gradientTransform="translate(0 -5610.9)" gradientUnits="userSpaceOnUse">
      <stop offset="0" stop-color="#daefff"/>
      <stop offset=".2" stop-color="#fff"/>
    </linearGradient>
    <linearGradient id="linear-gradient3" x1="22.5" y1="5628.4" x2="22.5" y2="5649.9" gradientTransform="translate(0 -5610.9)" gradientUnits="userSpaceOnUse">
      <stop offset="0" stop-color="#daefff"/>
      <stop offset=".5" stop-color="#fff"/>
    </linearGradient>
  </defs>
  <g id="Bittime">
    <path class="st0" d="M48.7,56.7H8c-4.4,0-8-3.6-8-8V8C0,3.6,3.6,0,8,0h40.7C53.1,0,56.7,3.6,56.7,8v40.7c0,4.4-3.6,8-8,8Z"/>
    <g>
      <path class="st5" d="M36.7,13.3l1.1-5.1c0-.5-.2-1-.7-1.1h-3.2c-.5,0-1,.2-1.1.7l-1.1,5.4h5.1,0Z"/>
      <path class="st3" d="M27.1,34.5l-2.9,14c0,.5.3,1.1.9,1.1h3.2c.4,0,.8-.3.9-.7l2.2-10.2h-5.1l.8-4.1h0Z"/>
      <path class="st1" d="M37.4,25.3s4.9-.2,4.9-6.1-6.4-6.1-6.4-6.1h-4.3l-1,4.3h2.9c1.2,0,3.3.1,3.4,2.4,0,3.1-3.7,3.7-3.7,3.7h-7.3l-1,4.5h7.2s4.2,0,3.9,3.2c-.3,3.2-3.3,3.2-3.3,3.2h-5.6l-.9,4.3h5.1c4.8,0,9-1,10.1-6.6,1.1-5.4-4.1-6.8-4.1-6.8h0Z"/>
      <path class="st4" d="M22,17.5l-4.3,20.4c0,.5.3,1.1.9,1.1h3.2c.4,0,.8-.3.9-.7l4.5-20.7"/>
      <path class="st2" d="M27.2,17.5h1.1c.5,0,.9-.4.9-.9l.6-2.5c0-.5-.4-.9-.9-.9h-12.9c-.5,0-.9.4-.9.9l-.6,2.5c0,.5.4.9.9.9h6.6"/>
    </g>
  </g>
</svg>