<?xml version="1.0" encoding="UTF-8"?>
<svg id="Layer_1" xmlns="http://www.w3.org/2000/svg" version="1.1" viewBox="0 0 56.7 56.7">
  <!-- Generator: Adobe Illustrator 29.4.0, SVG Export Plug-In . SVG Version: 2.1.0 Build 152)  -->
  <defs>
    <style>
      .st0 {
        fill: #b9f641;
      }
    </style>
  </defs>
  <g id="Bitunix">
    <path d="M48.7,56.7H8c-4.4,0-8-3.6-8-8V8C0,3.6,3.6,0,8,0h40.7C53.1,0,56.7,3.6,56.7,8v40.7c0,4.4-3.6,8-8,8Z"/>
    <path class="st0" d="M29.5,15.1h-10c-9.8.5-11.2,10.1-11.2,10.1l-3.9,20.2c-.8,2.2,1.2,2.1,1.2,2.1h24c8.8-.8,10.3-8,10.3-8l1.8-10.2c.3-13.4-12.2-14.2-12.2-14.2h0ZM52.4,10.7s-2.6,13.5-3.9,20.2c-1.3,6.7-5.1,8.8-5.1,8.8l1.6-9s1.4-5.4-2.8-12c-4.4-6.9-12.3-7-12.3-7h-9.2c2.4-2.4,7.1-2.6,7.1-2.6h23.1c1.9,0,1.5,1.6,1.5,1.6h0Z"/>
  </g>
</svg>