<?xml version="1.0" encoding="utf-8"?>
<!-- Generator: Adobe Illustrator 25.0.1, SVG Export Plug-In . SVG Version: 6.00 Build 0)  -->
<svg version="1.1" xmlns="http://www.w3.org/2000/svg" xmlns:xlink="http://www.w3.org/1999/xlink" x="0px" y="0px"
	 viewBox="0 0 56.7 56.7" style="enable-background:new 0 0 56.7 56.7;" xml:space="preserve">
<style type="text/css">
	.st0{display:none;}
	.st1{display:inline;}
	.st2{fill:#645FAA;}
	.st3{fill:#404040;}
	.st4{fill:#1F8BCC;}
	.st5{fill:#4CBA74;}
	.st6{fill:#3CC0C4;}
	.st7{fill:#FFFFFF;}
	.st8{fill:#F04D2F;}
	.st9{fill:#F9A02A;}
	.st10{opacity:0.2;fill:#010101;enable-background:new    ;}
</style>
<g id="Layer_1" class="st0">
	<g class="st1">
		<path class="st2" d="M48.5,56.7H52c2.6,0,4.6-2.1,4.6-4.6V4.6C56.6,2.1,54.5,0,52,0h-3.5c-0.1,0-0.1,0-0.2,0.1L26.4,26.8
			c-0.7,0.9-0.7,2.1,0,3l21.9,26.8C48.4,56.7,48.4,56.7,48.5,56.7L48.5,56.7z"/>
		<path class="st2" d="M15.4,26.9L37.1,0.3C37.2,0.2,37.1,0,37,0H4.7C2.2,0,0.1,2.1,0.1,4.6v47.4c0,2.6,2.1,4.6,4.6,4.6H37
			c0.2,0,0.3-0.2,0.2-0.3L15.4,29.8C14.7,29,14.7,27.7,15.4,26.9z"/>
	</g>
</g>
<g id="Layer_2" class="st0">
	<g class="st1">
		<path class="st3" d="M21.2,44.5C21.3,31,35.7,28.2,34.1,13.4c-0.5-4.2-2.5-9.3-6.7-13.3c-0.2-0.2-0.6,0-0.6,0.3
			c1.3,13.6-8.3,20-12.6,25.6c-9.5,12.5-2.5,28.6,11.6,30.7c0.3,0,0.5-0.3,0.3-0.6C23.2,53.3,21.2,49.6,21.2,44.5L21.2,44.5z"/>
		<path class="st4" d="M39.7,22.9c-0.2-0.2-0.5-0.1-0.5,0.2c-0.3,1.8-1.4,4.6-4.9,9.7c-9.1,13.1-4.7,19-0.7,23.3
			c0.9,1,0.4-0.2,2.3-1.5c2.5-1.7,3.5-1.9,5.9-4c2.7-2.7,4.9-6.9,5.1-11.2C47.2,30,41.7,24.6,39.7,22.9z"/>
	</g>
</g>
<g id="Layer_6" class="st0">
	<g class="st1">
		<path class="st5" d="M54.8,2.7c-0.2,0-5,0.2-10.9,1.6c-8,1.9-14,5-17.7,9.2c-0.8,0.9-1.5,1.8-2.3,2.7c-1.5,0.4-5.5,1.5-7.3,1.8
			c-1.1,0.2-2,0.8-2.6,1.7c-1.3,1.9-3.6,5.9-3.7,6l-2.7,4.5l4.8-2.1c2.1-0.9,5-1.6,5.9-1.1c0,0,0.1,0,0.1,0.3c0,1.4,0.3,2.7,1,4
			c-1.3,1-2.1,2.6-2,4.3v5.9h5.9c1.7,0.1,3.3-0.7,4.3-2c1.3,0.6,2.6,0.9,4,1c0.2,0,0.3,0.1,0.3,0.1c0.5,0.9-0.1,3.8-1.1,5.9
			l-2.1,4.8l4.5-2.7c0.2-0.1,4.1-2.4,6-3.7c0.9-0.6,1.5-1.5,1.7-2.6c0.4-1.8,1.5-5.9,1.8-7.3c0.9-0.7,1.8-1.5,2.7-2.3
			c9.9-8.8,10.8-27.8,10.9-28.6l0.1-1.8L54.8,2.7z M19.3,23.9c-1.1-0.3-2.4-0.3-3.6-0.1c0.5-0.8,0.9-1.5,1.3-2.1
			c0.1-0.2,0.3-0.3,0.5-0.3c0.9-0.2,2.2-0.5,3.5-0.8C20.2,21.8,19.7,22.8,19.3,23.9z M25.1,37.6c-0.4,0.5-0.9,0.7-1.5,0.7H23
			l3.5-5.6L21,36.3v-0.6c0-0.6,0.2-1.2,0.7-1.5l6.8-5.4c0.3-0.3,0.8-0.5,1.2-0.6l1.8-0.4l-0.4,1.8c-0.1,0.5-0.3,0.9-0.6,1.2
			C30.5,30.8,25.1,37.6,25.1,37.6z M37.8,41.9c0,0.2-0.1,0.4-0.3,0.5c-0.6,0.4-1.3,0.9-2.1,1.3c0.2-1.2,0.3-2.5-0.1-3.6
			c1.1-0.4,2.2-1,3.3-1.6C38.3,39.7,38,41,37.8,41.9L37.8,41.9z M43.5,30.4c-5.9,5.2-9.2,6.8-11.5,6.8h-0.1c-0.7,0-1.3-0.1-1.9-0.3
			l3.2-4c0.6-0.8,1-1.6,1.3-2.6l1.7-7.2l-7.2,1.7c-0.9,0.2-1.8,0.6-2.6,1.2l-4,3.2C22.1,28.7,22,28,22,27.4v-0.1
			c0-2.3,1.6-5.6,6.8-11.5C35.1,8.6,48.1,6.7,53,6.2C52.5,11.1,50.6,24.2,43.5,30.4L43.5,30.4z"/>
		<path class="st5" d="M16.9,50.2c-2.2,0.4-4.4,0.6-6.6,0.6c-1.3,0-2.6,0-3.9-0.2c0.5-0.9,1-1.7,1.4-2.6c0.8-1.8,1.4-3.7,1.9-5.6
			c0.4-1.8,1-3.6,1.6-5.3c0.6-1.8,1.3-3.5,2.1-5.3c-0.7,0.7-1.3,1.4-1.8,2.2c-0.6,0.8-1.1,1.6-1.6,2.4c-1,1.6-1.8,3.4-2.6,5.2
			c-0.7,1.7-1.4,3.4-2.3,5c-0.9,1.5-1.9,3-3,4.3l-2,2.3l3,0.4c2.4,0.3,4.8,0.5,7.3,0.4c1.2,0,2.4-0.1,3.7-0.3
			c1.2-0.2,2.4-0.5,3.6-0.8c2.4-0.7,4.6-1.8,6.6-3.2c1-0.7,1.9-1.5,2.7-2.5c0.8-0.9,1.5-1.9,2-3c-1.6,1.7-3.6,3-5.6,3.9
			C21.2,49.1,19.1,49.8,16.9,50.2z M42.2,23c1.5,0,3.1-0.6,4.3-1.8c2.4-2.3,2.4-6.2,0-8.5c0,0,0,0,0,0c-1.2-1.2-2.7-1.8-4.3-1.8
			s-3.1,0.6-4.3,1.8c-2.4,2.3-2.4,6.2,0,8.5c0,0,0,0,0,0C39.1,22.4,40.6,23,42.2,23z M40.4,15.2c0.5-0.5,1.2-0.8,1.8-0.8
			s1.4,0.3,1.8,0.8c1,1,1,2.6,0,3.7c0,0,0,0,0,0c-1,1-2.6,1-3.7,0c0,0,0,0,0,0C39.4,17.9,39.4,16.2,40.4,15.2L40.4,15.2z"/>
	</g>
</g>
<g id="Layer_4">
	<path class="st6" d="M48.7,56.7H8c-4.4,0-8-3.6-8-8V8c0-4.4,3.6-8,8-8h40.7c4.4,0,8,3.6,8,8v40.7C56.7,53.1,53.1,56.7,48.7,56.7z"
		/>
	<g>
		<path class="st7" d="M28.3,30.9h16l2.5-2.5l-2.5-2.5h-16c-1.4,0-2.5,1.1-2.5,2.5C25.8,29.7,26.9,30.9,28.3,30.9"/>
		<path class="st7" d="M28.3,16.5c-6.6,0-11.9,5.3-11.9,11.9c0,6.6,5.3,11.9,11.9,11.9H35l5.1-5.1H28.3c-3.8,0-6.8-3.1-6.8-6.8
			c0-3.8,3.1-6.8,6.8-6.8h11.7L35,16.5H28.3z"/>
		<polygon class="st7" points="49.6,40.2 49.6,35.2 45.8,35.2 40.7,40.2 		"/>
		<path class="st7" d="M13.3,13.3c-4,4-6.2,9.3-6.2,15c0,5.7,2.2,11,6.2,15c4,4,9.4,6.2,15,6.2h21.3v-5.1H28.3
			c-4.3,0-8.4-1.7-11.4-4.7c-3-3.1-4.7-7.1-4.7-11.4c0-4.3,1.7-8.4,4.7-11.4c3.1-3,7.1-4.7,11.4-4.7h21.3V7.1H28.3
			C22.7,7.1,17.3,9.3,13.3,13.3"/>
		<polygon class="st7" points="45.8,21.5 49.6,21.5 49.6,16.5 40.7,16.5 		"/>
	</g>
</g>
<g id="Layer_5" class="st0">
	<g class="st1">
		<g>
			<path id="XMLID_20_" class="st8" d="M13.1,39.4c1.1-2.8,3.1-5.1,5.8-6.5l4.5,2.6c1.8,1,1.4,3.9-0.2,4.8L14,45.5
				c-0.5,0.3-1.2,0.1-1.5-0.5c-0.1-0.1-0.1-0.3-0.1-0.4C12.2,42.9,12.5,41.1,13.1,39.4z"/>
			<path class="st9" d="M27.6,27.3c0-1.6-0.8-3-2.1-3.9L0,8.9c0.1,2.5,0.6,5.1,1.4,7.5C3.4,21.6,7.1,26.1,12,29l11.3,6.5
				c1.8,1,1.4,3.9-0.2,4.8l2.9-1.6c0.9-0.5,1.5-1.5,1.5-2.5v-3.3C27.5,32.8,27.6,27.3,27.6,27.3z"/>
			<path class="st10" d="M23.4,35.5l-4.5-2.6c0,0,2.9,2.4,4,3.7c1.1,1.2,0.4,3.7,0.4,3.7C24.8,39.4,25.2,36.5,23.4,35.5z"/>
			<path id="XMLID_19_" class="st8" d="M43.6,17.3c-1.1,2.8-3.1,5.1-5.8,6.5l-4.5-2.6c-1.8-1-1.4-3.9,0.2-4.8l9.2-5.3
				c0.5-0.3,1.2-0.1,1.5,0.5c0.1,0.1,0.1,0.3,0.1,0.4C44.5,13.8,44.2,15.6,43.6,17.3z"/>
			<path class="st9" d="M29.1,29.4c0,1.6,0.8,3,2.1,3.9l25.4,14.5c-0.1-2.5-0.6-5.1-1.4-7.5c-1.9-5.3-5.7-9.8-10.6-12.6l-11.3-6.5
				c-1.8-1-1.4-3.9,0.2-4.8l-2.9,1.6c-0.9,0.5-1.5,1.5-1.5,2.5v3.3C29.2,23.9,29.1,29.4,29.1,29.4z"/>
			<path class="st10" d="M33.3,21.2l4.5,2.6c0,0-2.9-2.4-4-3.7c-1.1-1.2-0.4-3.7-0.4-3.7C31.9,17.3,31.5,20.2,33.3,21.2z"/>
		</g>
	</g>
</g>
</svg>
