<?xml version="1.0" encoding="UTF-8"?>
<svg id="Layer_1" xmlns="http://www.w3.org/2000/svg" version="1.1" viewBox="0 0 56.7 56.7">
  <!-- Generator: Adobe Illustrator 29.4.0, SVG Export Plug-In . SVG Version: 2.1.0 Build 152)  -->
  <defs>
    <style>
      .st0 {
        fill: #ffc767;
      }

      .st1 {
        fill: #0474ba;
      }

      .st2 {
        fill: #ffb536;
      }

      .st3 {
        fill: #0e1a32;
      }

      .st4 {
        fill: #49484d;
      }

      .st5 {
        fill: #03578c;
      }

      .st6 {
        fill: #0099f7;
      }

      .st7 {
        fill: #28adff;
      }
    </style>
  </defs>
  <g id="Changelly">
    <path class="st3" d="M48.7,56.7H8c-4.4,0-8-3.6-8-8V8C0,3.6,3.6,0,8,0h40.7c4.4,0,8,3.6,8,8v40.7c0,4.4-3.6,8-8,8Z"/>
    <g>
      <path class="st5" d="M37.4,32l-8.5,10.8-.9-7.6-5.6-.6,15-2.7Z"/>
      <path class="st5" d="M28.8,29.8l-6.4,4.8,1.3-12.5,5.1,7.7Z"/>
      <path class="st6" d="M28.7,29.8l-4.9-7.7,4.7,1.1.3,6.6Z"/>
      <path class="st7" d="M44.6,34h0l-1.3,8.8h-14.3s8.5-10.8,8.5-10.8l7.2,2.1Z"/>
      <path class="st6" d="M22.4,34.6l6.3-4.7h0c0,0,8.7,2.1,8.7,2.1l-15,2.7Z"/>
      <path class="st1" d="M32.2,27.4l-3.4,2.5h-.1s-.3-6.7-.3-6.7l8.9,2.1h0s.8,2.7.8,2.7l-5.8-.5Z"/>
      <path class="st1" d="M49.6,33.6l-5,.5-7.2-2.1h.4c0-.1-5.5-4.6-5.5-4.6l11.9,4.4,2.3.9.5-.5-.8-3.6h-2.7s-4.5-.5-4.5-.5l3.5-1.4,4.1,1.5.3-6.6h.3c0,0,2.5,12.1,2.5,12.1Z"/>
      <path class="st5" d="M47,32.1l-.5.5-2.3-.9-.7-3.3h2.7s.8,3.7.8,3.7Z"/>
      <path class="st4" d="M37.6,13.7l-2.7.7-3.2,1.4v-1.9s5.2-3,5.2-3l.7,2.8Z"/>
      <path class="st2" d="M38.9,18.8h-7.3s0-3.1,0-3.1l3.2-1.4,2.7-.7,1.4,5.2Z"/>
      <path class="st0" d="M23.7,22.2l-10.2,20.8h0l-6.4,1.6,16.6-22.4Z"/>
      <path class="st2" d="M23.8,22.1l-1.4,12.5-6.2,10-2.7-1.6,10.2-20.8h0Z"/>
      <path class="st0" d="M26.3,35l-3.5,8.7-6.6.9,6.2-10,3.8.4Z"/>
      <path class="st2" d="M28.9,42.8l-.7,3-5.4-2.1h0l3.5-8.7,1.7.2.9,7.6Z"/>
      <path class="st2" d="M37.3,25.2l-13.5-3.1,7.8-3.3h.1l4.5,5.2,1.1,1.3Z"/>
      <path class="st0" d="M46.6,21.4h0l-9.3,3.8-1.1-1.3,4.2-4.7,6.2,2.1Z"/>
      <path class="st5" d="M40.4,19.3l-4.2,4.7-4.6-5.2h7.3s1.5.5,1.5.5h0Z"/>
      <path class="st6" d="M46.6,21.4l-1.3,2.8-2.8,2.4h0l-3.5,1.4h-.9c0,0-.8-2.8-.8-2.8l9.3-3.8h0Z"/>
      <path class="st5" d="M37.8,31.8h-.4c0,.1-8.5-2-8.5-2h0s3.4-2.5,3.4-2.5l5.5,4.4Z"/>
      <path class="st6" d="M44.2,31.7l-11.9-4.4h0l5.8.5h.9c0,0,4.5.5,4.5.5l.7,3.3Z"/>
      <path class="st5" d="M46.8,21.4l-.3,6.6-4.1-1.5h0l2.8-2.4,1.3-2.8h.3Z"/>
    </g>
  </g>
</svg>