<?xml version="1.0" encoding="UTF-8"?>
<svg id="Coinone" xmlns="http://www.w3.org/2000/svg" viewBox="0 0 56.7 56.7">
  <defs>
    <style>
      .cls-1 {
        fill: #0059f3;
      }
    </style>
  </defs>
  <path class="cls-1" d="M48,28.4s-3.5,5.4-6.4,8.7c-3.5,4.2-7.2,6.7-12.9,6.7-8.7,0-15.2-6.9-15.2-15.4s6.4-15.4,15.2-15.4,9.4,2.5,12.9,6.7c2.8,3.4,6.4,8.7,6.4,8.7,2.4-3.2,4.9-6.4,7.3-9.6,0,0-.4-1.1-2.7-4.9C46.2,3.7,34-1.4,22.4,1.5,10,4.6,1.4,15.7,1.4,28.4s8.6,23.7,21,26.8c11.6,2.9,23.8-2.2,30.2-12.4,2.3-3.7,2.7-4.9,2.7-4.9-2.4-3.2-4.9-6.4-7.3-9.6h0Z"/>
</svg>