<?xml version="1.0" encoding="utf-8"?>
<!-- Generator: Adobe Illustrator 25.0.1, SVG Export Plug-In . SVG Version: 6.00 Build 0)  -->
<svg version="1.1" id="Layer_2" xmlns="http://www.w3.org/2000/svg" xmlns:xlink="http://www.w3.org/1999/xlink" x="0px" y="0px"
	 viewBox="0 0 56.7 56.7" style="enable-background:new 0 0 56.7 56.7;" xml:space="preserve">
<style type="text/css">
	.st0{fill:#E9A030;}
	.st1{fill:#D8D8D7;filter:url(#Adobe_OpacityMaskFilter);}
	.st2{mask:url(#mask0_985_1593_1_);}
	.st3{fill:#326CB4;}
	.st4{fill:#3775BA;}
	.st5{fill:#396AB2;}
	.st6{fill:#3966AF;}
	.st7{fill:#3C6BB3;}
	.st8{fill:#3563AD;}
	.st9{fill:#3864AE;}
	.st10{fill:#3360AC;}
	.st11{fill:#345EAA;}
	.st12{fill:#2A5CA9;}
	.st13{fill:#386DB4;}
	.st14{fill:#2E65AF;}
	.st15{fill:#3266AF;}
	.st16{fill:#3A6EB5;}
	.st17{fill:#3669B2;}
	.st18{fill:#3C68B1;}
	.st19{fill:#345FAB;}
	.st20{fill:#3A64AE;}
	.st21{fill:#3060AB;}
	.st22{fill:#2F62AD;}
	.st23{fill:#2F61AC;}
	.st24{fill:#3164AE;}
	.st25{fill:#345DA9;}
	.st26{fill:#345CA9;}
	.st27{fill:#2853A3;}
	.st28{fill:#305AA8;}
	.st29{fill:#3764AE;}
	.st30{fill:#2E6CB4;}
	.st31{fill:#3965AF;}
	.st32{fill:#335EAA;}
	.st33{fill:#325EAA;}
	.st34{fill:#2D51A2;}
	.st35{fill:#2F5EAA;}
	.st36{fill:#3564AE;}
	.st37{fill:#2A5FAB;}
	.st38{fill:#2E5BA8;}
	.st39{fill:#3A66AF;}
	.st40{fill:#3866AF;}
	.st41{fill:#3765AF;}
	.st42{fill:#3661AC;}
	.st43{fill:#3558A6;}
	.st44{fill:#3058A7;}
	.st45{fill:#3058A6;}
	.st46{fill:#315DAA;}
	.st47{fill:#3561AC;}
	.st48{fill:#2E5FAB;}
	.st49{fill:#2D57A6;}
	.st50{fill:#3769B1;}
	.st51{fill:#3454A4;}
	.st52{fill:#3662AD;}
	.st53{fill:#3254A4;}
	.st54{fill:#3452A3;}
	.st55{fill:#3158A6;}
	.st56{fill:#3766B0;}
	.st57{fill:#335FAB;}
	.st58{fill:#2960AC;}
	.st59{fill:#2351A2;}
	.st60{fill:#2F57A6;}
	.st61{fill:#25499E;}
	.st62{fill:#243E98;}
	.st63{fill:#294B9F;}
	.st64{fill:#2C53A4;}
	.st65{fill:#3260AB;}
	.st66{fill:#365EAA;}
	.st67{fill:#366BB3;}
	.st68{opacity:0.15;fill:url(#SVGID_1_);enable-background:new    ;}
	.st69{fill:#FFFFFF;}
</style>
<g>
	<path class="st0" d="M28.4,56.5c15.5,0,28.1-12.6,28.1-28.1c0-15.5-12.6-28.1-28.1-28.1C12.8,0.3,0.3,12.9,0.3,28.4
		C0.3,43.9,12.8,56.5,28.4,56.5z"/>
	<defs>
		<filter id="Adobe_OpacityMaskFilter" filterUnits="userSpaceOnUse" x="3.6" y="-1.1" width="49.4" height="58.5">
			<feColorMatrix  type="matrix" values="1 0 0 0 0  0 1 0 0 0  0 0 1 0 0  0 0 0 1 0"/>
		</filter>
	</defs>
	<mask maskUnits="userSpaceOnUse" x="3.6" y="-1.1" width="49.4" height="58.5" id="mask0_985_1593_1_">
		<circle class="st1" cx="28.3" cy="28.4" r="24.3"/>
	</mask>
	<g class="st2">
		<path class="st3" d="M31.8,3.2l7.1,4.2V-1L31.8,3.2z"/>
		<path class="st4" d="M38.9,7.4l-7.1-4.2v8.4L38.9,7.4z"/>
		<path class="st5" d="M31.8,19.9l7.1,4.2v-8.4L31.8,19.9z"/>
		<path class="st6" d="M31.8,28.2l7.1,4.2V24L31.8,28.2z"/>
		<path class="st7" d="M38.9,24.1l-7.1-4.2v8.4L38.9,24.1z"/>
		<path class="st8" d="M38.9,32.4l-7.1-4.2v8.4L38.9,32.4z"/>
		<path class="st9" d="M31.8,36.6l7.1,4.2v-8.4L31.8,36.6z"/>
		<path class="st10" d="M38.9,40.7l-7.1-4.2v8.4L38.9,40.7z"/>
		<path class="st11" d="M38.9,49.1l-7.1-4.2v8.4L38.9,49.1z"/>
		<path class="st12" d="M31.8,53.2l7.1,4.2v-8.4L31.8,53.2z"/>
		<path class="st13" d="M38.9,15.7l-7.1-4.2v8.4L38.9,15.7z"/>
		<path class="st3" d="M38.9,7.4l7.1,4.2V3.2L38.9,7.4z"/>
		<path class="st14" d="M45.9,3.2L38.9-1v8.4L45.9,3.2z"/>
		<path class="st15" d="M38.9,15.7l7.1,4.2v-8.4L38.9,15.7z"/>
		<path class="st16" d="M38.9,24l7.1,4.2v-8.4L38.9,24z"/>
		<path class="st17" d="M45.9,19.9l-7.1-4.2V24L45.9,19.9z"/>
		<path class="st18" d="M45.9,28.2L38.9,24v8.4L45.9,28.2z"/>
		<path class="st18" d="M38.9,32.4l7.1,4.2v-8.4L38.9,32.4z"/>
		<path class="st19" d="M38.9,40.8l7.1,4.2v-8.4L38.9,40.8z"/>
		<path class="st20" d="M46,36.6l-7.1-4.2v8.4L46,36.6z"/>
		<path class="st21" d="M46,44.9l-7.1-4.2v8.4L46,44.9z"/>
		<path class="st12" d="M46,53.2l-7.1-4.2v8.4L46,53.2z"/>
		<path class="st19" d="M38.9,49l7.1,4.2v-8.4L38.9,49z"/>
		<path class="st3" d="M45.9,11.5l-7.1-4.2v8.4L45.9,11.5z"/>
		<path class="st14" d="M45.9,11.5l7.1,4.2V7.4L45.9,11.5z"/>
		<path class="st22" d="M45.9,19.9L53,24v-8.4L45.9,19.9z"/>
		<path class="st23" d="M45.9,28.2l7.1,4.2V24L45.9,28.2z"/>
		<path class="st24" d="M53,24.1l-7.1-4.2v8.4L53,24.1z"/>
		<path class="st10" d="M53,32.4l-7.1-4.2v8.4L53,32.4z"/>
		<path class="st25" d="M45.9,36.6l7.1,4.2v-8.4L45.9,36.6z"/>
		<path class="st26" d="M45.9,44.9l7.1,4.2v-8.4L45.9,44.9z"/>
		<path class="st26" d="M53,40.8l-7.1-4.2v8.4L53,40.8z"/>
		<path class="st27" d="M53,49.1l-7.1-4.2v8.4L53,49.1z"/>
		<path class="st14" d="M53,15.7l-7.1-4.2v8.4L53,15.7z"/>
		<path class="st28" d="M53,7.4l-7.1-4.2v8.4L53,7.4z"/>
		<path class="st29" d="M31.8,11.4l-7.1-4.2v8.4L31.8,11.4z"/>
		<path class="st30" d="M31.8,3.1l-7.1-4.2v8.4L31.8,3.1z"/>
		<path class="st31" d="M24.8,24l7.1,4.2v-8.4L24.8,24z"/>
		<path class="st32" d="M24.8,32.3l7.1,4.2v-8.4L24.8,32.3z"/>
		<path class="st31" d="M31.8,28.2L24.8,24v8.4L31.8,28.2z"/>
		<path class="st33" d="M31.8,36.5l-7.1-4.2v8.4L31.8,36.5z"/>
		<path class="st27" d="M24.8,40.7l7.1,4.2v-8.4L24.8,40.7z"/>
		<path class="st11" d="M24.8,49.1l7.1,4.2v-8.4L24.8,49.1z"/>
		<path class="st34" d="M31.8,44.9l-7.1-4.2v8.4L31.8,44.9z"/>
		<path class="st35" d="M31.8,53.3l-7.1-4.2v8.4L31.8,53.3z"/>
		<path class="st36" d="M31.8,19.8l-7.1-4.2V24L31.8,19.8z"/>
		<path class="st32" d="M17.7,11.4l7.1,4.2V7.3L17.7,11.4z"/>
		<path class="st37" d="M17.7,3.1l7.1,4.2v-8.4L17.7,3.1z"/>
		<path class="st38" d="M24.7,7.3l-7.1-4.2v8.4L24.7,7.3z"/>
		<path class="st39" d="M17.7,19.8l7.1,4.2v-8.4L17.7,19.8z"/>
		<path class="st40" d="M17.7,28.1l7.1,4.2V24L17.7,28.1z"/>
		<path class="st41" d="M24.8,24l-7.1-4.2v8.4L24.8,24z"/>
		<path class="st42" d="M24.8,32.3l-7.1-4.2v8.4L24.8,32.3z"/>
		<path class="st43" d="M17.7,36.5l7.1,4.2v-8.4L17.7,36.5z"/>
		<path class="st44" d="M17.7,44.9l7.1,4.2v-8.4L17.7,44.9z"/>
		<path class="st45" d="M24.8,40.7l-7.1-4.2v8.4L24.8,40.7z"/>
		<path class="st46" d="M24.8,49.1l-7.1-4.2v8.4L24.8,49.1z"/>
		<path class="st21" d="M17.7,53.2l7.1,4.2v-8.4L17.7,53.2z"/>
		<path class="st32" d="M24.8,15.6l-7.1-4.2v8.4L24.8,15.6z"/>
		<path class="st47" d="M10.6,15.6l7.1,4.2v-8.4L10.6,15.6z"/>
		<path class="st48" d="M10.7,7.3l7.1,4.2V3.1L10.7,7.3z"/>
		<path class="st49" d="M17.7,11.5l-7.1-4.2v8.4L17.7,11.5z"/>
		<path class="st50" d="M10.6,24l7.1,4.2v-8.4L10.6,24z"/>
		<path class="st51" d="M10.6,32.3l7.1,4.2v-8.4L10.6,32.3z"/>
		<path class="st52" d="M17.7,28.2L10.6,24v8.4L17.7,28.2z"/>
		<path class="st53" d="M17.7,36.5l-7.1-4.2v8.4L17.7,36.5z"/>
		<path class="st54" d="M10.6,40.7l7.1,4.2v-8.4L10.6,40.7z"/>
		<path class="st28" d="M10.6,49.1l7.1,4.2v-8.4L10.6,49.1z"/>
		<path class="st55" d="M17.7,44.9l-7.1-4.2v8.4L17.7,44.9z"/>
		<path class="st56" d="M17.7,19.8l-7.1-4.2V24L17.7,19.8z"/>
		<path class="st57" d="M3.6,19.8l7.1,4.1v-8.2L3.6,19.8z"/>
		<path class="st58" d="M3.6,11.5l7.1,4.2V7.3L3.6,11.5z"/>
		<path class="st59" d="M10.7,15.6l-7.1-4.2v8.4L10.7,15.6z"/>
		<path class="st60" d="M3.6,28.3l7.1,4.2v-8.6L3.6,28.3z"/>
		<path class="st61" d="M3.6,36.7l7.1,4.1v-8.4L3.6,36.7z"/>
		<path class="st60" d="M10.7,32.3l-7.1-4.1v8.4L10.7,32.3z"/>
		<path class="st62" d="M10.7,40.7l-7.1-4.2v8.4L10.7,40.7z"/>
		<path class="st63" d="M3.6,44.9l7.1,4.2v-8.4L3.6,44.9z"/>
		<path class="st28" d="M10.7,23.9l-7.1-4.1v8.5L10.7,23.9z"/>
		<path class="st64" d="M31.8,44.9l7.1,4.2v-8.4L31.8,44.9z"/>
		<path class="st65" d="M24.7,7.3l7.1,4.2V3.1L24.7,7.3z"/>
		<path class="st66" d="M24.7,15.6l7.1,4.2v-8.4L24.7,15.6z"/>
		<path class="st67" d="M31.8,11.5l7.1,4.2V7.4L31.8,11.5z"/>
		
			<radialGradient id="SVGID_1_" cx="-254.6276" cy="428.3737" r="1.652" gradientTransform="matrix(18.3023 0 0 -18.3023 4688.6211 7868.6929)" gradientUnits="userSpaceOnUse">
			<stop  offset="0.56" style="stop-color:#FFFFFF;stop-opacity:0"/>
			<stop  offset="0.61" style="stop-color:#F9F9FC;stop-opacity:2.000000e-02"/>
			<stop  offset="0.64" style="stop-color:#EAEBF6;stop-opacity:8.000000e-02"/>
			<stop  offset="0.67" style="stop-color:#D0D4EB;stop-opacity:0.19"/>
			<stop  offset="0.7" style="stop-color:#ADB4DB;stop-opacity:0.34"/>
			<stop  offset="0.73" style="stop-color:#808AC4;stop-opacity:0.53"/>
			<stop  offset="0.75" style="stop-color:#4B5AA7;stop-opacity:0.76"/>
			<stop  offset="0.78" style="stop-color:#293790"/>
		</radialGradient>
		<path class="st68" d="M28.4,52.8c13.4,0,24.3-10.9,24.3-24.3c0-13.4-10.9-24.3-24.3-24.3C14.9,4.2,4.1,15.1,4.1,28.5
			C4.1,41.9,14.9,52.8,28.4,52.8z"/>
	</g>
	<path class="st69" d="M41.6,19.1l-4.1,3.6c0,0-2.9-5.5-9.2-5.1C22,18.1,18,23.5,18.6,29.3c0.7,5.8,4.3,7.9,4.3,7.9
		s4.9,4.1,10.9,0.6c0,0,2.4-1.3,4.2-4.2l4.1,3.3c0,0-4.6,7.9-14.2,7.3c0,0-10.7,0-14.3-11.3c0,0-1.6-5.8,0.6-10.5
		c0,0,3.4-9.2,14-9.7C28.4,12.7,36.1,11.9,41.6,19.1L41.6,19.1z"/>
</g>
</svg>
