<?xml version="1.0" encoding="UTF-8"?>
<svg id="dydx" xmlns="http://www.w3.org/2000/svg" xmlns:xlink="http://www.w3.org/1999/xlink" viewBox="0 0 56.7 56.7">
  <defs>
    <style>
      .cls-1 {
        fill: url(#linear-gradient-2);
      }

      .cls-2 {
        fill: #fff;
      }

      .cls-3 {
        fill: url(#linear-gradient-3);
      }

      .cls-4 {
        fill: url(#linear-gradient);
      }
    </style>
    <linearGradient id="linear-gradient" x1="35.96" y1="59.99" x2="20.74" y2="-3.29" gradientUnits="userSpaceOnUse">
      <stop offset="0" stop-color="#292939"/>
      <stop offset="1" stop-color="#1a1a27"/>
    </linearGradient>
    <linearGradient id="linear-gradient-2" x1="17.12" y1="44.94" x2="27.92" y2="31.68" gradientTransform="translate(0 57.8) scale(1 -1)" gradientUnits="userSpaceOnUse">
      <stop offset="0" stop-color="#fff"/>
      <stop offset="1" stop-color="#fff" stop-opacity=".55"/>
    </linearGradient>
    <linearGradient id="linear-gradient-3" x1="39.87" y1="13.98" x2="26.63" y2="32.14" gradientTransform="translate(0 57.8) scale(1 -1)" gradientUnits="userSpaceOnUse">
      <stop offset="0" stop-color="#6966ff"/>
      <stop offset="1" stop-color="#6966ff" stop-opacity=".36"/>
    </linearGradient>
  </defs>
  <path class="cls-4" d="M48.7,56.7H8c-4.4,0-8-3.6-8-8V8C0,3.6,3.6,0,8,0h40.7C53.1,0,56.7,3.6,56.7,8v40.7c0,4.4-3.6,8-8,8Z"/>
  <g>
    <path class="cls-2" d="M37.03,9.92L10.86,46.77h8.04L45.2,9.92h-8.17Z"/>
    <path class="cls-1" d="M19.73,9.92l7.7,10.86-4.02,5.92L11.53,9.92h8.2Z"/>
    <path class="cls-3" d="M37.81,46.78l-8.54-12.01,4.02-5.76,12.56,17.77h-8.04Z"/>
  </g>
</svg>