<?xml version="1.0" encoding="UTF-8"?>
<svg id="Etoro" xmlns="http://www.w3.org/2000/svg" viewBox="0 0 56.7 56.7">
  <defs>
    <style>
      .cls-1 {
        fill: #141414;
      }

      .cls-2 {
        fill: #13c636;
      }
    </style>
  </defs>
  <path class="cls-1" d="M48.7,56.7H8c-4.4,0-8-3.6-8-8V8C0,3.6,3.6,0,8,0h40.7C53.1,0,56.7,3.6,56.7,8v40.7c0,4.4-3.6,8-8,8Z"/>
  <g>
    <path class="cls-2" d="M50.7,23.3c-.7-2.7-6.3-8.9-10.3-13.9,0,0-.3-.5-.8-.5s-.7.4-.6.7,4,8.4,3.3,11c-.7,2.7-4.3,2.1-4.8,2.1s0,.2.2.6c2,1.7,3.3,4.2,3.3,7.4v2.4q0,0,0,0c4.5-.4,11.4-3.2,9.6-9.9"/>
    <path class="cls-2" d="M19,23.4c.3-.3.6-.6.2-.6-.6,0-4.1.6-4.8-2.1s3.2-10.7,3.3-11c0-.3-.2-.7-.6-.7s-.7.5-.8.5c-4,5-9.6,11.2-10.3,13.9-1.8,6.7,5.2,9.5,9.7,10,0,0,0,0,0,0v-2.4c0-3.3,1.3-5.7,3.3-7.5"/>
    <path class="cls-2" d="M33.2,32.2q0,0,0,.2c0,0,0,0-.2,0h-9.4v-1.7c0-2.3,2.8-3.4,4.9-3.4s4.7,1.1,4.7,3.4c0,0,0,1.4,0,1.4ZM28.5,22.2c-4.8,0-10.2,2.9-10.2,8.5v8.6c0,5.7,5.3,8.4,10.2,8.5,3.5,0,7.4-1.4,9.3-4.5,0,0,0-.2,0-.3-1.7-1-2.6-1.5-4.3-2.4q0,0-.2,0c-.9,1.5-3.2,2.3-4.8,2.3s-4.9-1.3-4.9-3.7v-2.5h13.4c.7,0,1.3-.6,1.3-1.3v-4.7c0-5.7-5-8.5-9.8-8.6"/>
  </g>
</svg>