<?xml version="1.0" encoding="UTF-8"?>
<svg id="Layer_1" xmlns="http://www.w3.org/2000/svg" version="1.1" viewBox="0 0 56.7 56.7">
  <!-- Generator: Adobe Illustrator 29.4.0, SVG Export Plug-In . SVG Version: 2.1.0 Build 152)  -->
  <defs>
    <style>
      .st0 {
        fill: #fff;
      }

      .st1 {
        fill: #006be9;
      }
    </style>
  </defs>
  <g id="Hotcoin">
    <path class="st1" d="M48.7,56.7H8c-4.4,0-8-3.6-8-8V8C0,3.6,3.6,0,8,0h40.7C53.1,0,56.7,3.6,56.7,8v40.7c0,4.4-3.6,8-8,8Z"/>
    <path id="_1941227788096" class="st0" d="M7.1,30c0-7.2,5.7-13.1,12.8-13.1v19.7h3.6v-6.6h9.8c0,7.1-6,12.9-13.4,13.1h-.1c-7.1,0-12.7-6.2-12.7-13.1h0ZM49.6,26.7c0,7.2-5.7,13.1-12.8,13.1v-19.7h-3.6v6.6h-9.8c0-7.1,6-12.9,13.4-13.1h0c7.1,0,12.7,6.2,12.7,13.1Z"/>
  </g>
</svg>