<?xml version="1.0" encoding="utf-8"?>
<!-- Generator: Adobe Illustrator 25.0.1, SVG Export Plug-In . SVG Version: 6.00 Build 0)  -->
<svg version="1.1" id="Layer_1" xmlns="http://www.w3.org/2000/svg" xmlns:xlink="http://www.w3.org/1999/xlink" x="0px" y="0px"
	 viewBox="0 0 56.7 56.7" style="enable-background:new 0 0 56.7 56.7;" xml:space="preserve">
<style type="text/css">
	.st0{fill-rule:evenodd;clip-rule:evenodd;fill:url(#SVGID_1_);}
	.st1{fill:#4AB9EA;}
	.st2{fill:url(#SVGID_2_);}
</style>
<g>
	<g>
		
			<linearGradient id="SVGID_1_" gradientUnits="userSpaceOnUse" x1="26.0871" y1="50.7913" x2="26.0871" y2="7.13" gradientTransform="matrix(1 0 0 -1 0 57.3071)">
			<stop  offset="0" style="stop-color:#41C7F4"/>
			<stop  offset="1" style="stop-color:#3B54A5"/>
		</linearGradient>
		<path class="st0" d="M16.3,47.1c-2-16,8.2-31.2,24.2-35.2c-1.1-0.9-2.3-1.8-3.5-2.5c-4.4,0.9-8.5,2.9-12.2,6
			C15.2,23.3,12.2,36.1,16.3,47.1z M29.2,6.7c-2.7,1.1-5.4,2.6-7.8,4.6C10.8,20.3,8.3,35.3,14.7,47C8.5,43.2,4.3,36.3,4.3,28.3
			C4.3,16.3,14,6.5,26.1,6.5C27.1,6.5,28.2,6.6,29.2,6.7z M35,48.3c-0.4,0.2-0.8,0.3-1.2,0.5V38.4h-3.2v11.3
			c-0.4,0.1-0.9,0.2-1.3,0.2v-7.6h-3.2v7.9c-2.6,0-5.1-0.5-7.4-1.3C21.9,37,32.1,27.7,45.1,26.4c0.9-0.1,1.8-0.1,2.7-0.2
			c0.1,0.7,0.1,1.4,0.1,2.1c0,7.6-3.9,14.2-9.7,18.2v-5H35V48.3z M47,22.1c-0.8,0-1.5,0.1-2.3,0.1c-14.3,1.4-25.3,12.5-27.2,26.2
			l0,0c0.4-14.2,10.2-27,24.7-30.5c0.9-0.2,1.8-0.4,2.8-0.5C45.8,18.9,46.5,20.4,47,22.1z"/>
		<path class="st1" d="M43.4,8.4l-4.2,5.3L35.9,8L43.4,8.4z"/>
		
			<linearGradient id="SVGID_2_" gradientUnits="userSpaceOnUse" x1="45.7981" y1="37.5797" x2="50.4001" y2="36.5857" gradientTransform="matrix(1 0 0 -1 0 57.3071)">
			<stop  offset="0" style="stop-color:#36A1DA"/>
			<stop  offset="1" style="stop-color:#36A1DA"/>
		</linearGradient>
		<path class="st2" d="M52.4,17L46.4,24l-3-8.7L52.4,17z"/>
	</g>
</g>
</svg>
