<?xml version="1.0" encoding="UTF-8"?>
<svg id="Kraken" xmlns="http://www.w3.org/2000/svg" viewBox="0 0 56.7 56.7">
  <defs>
    <style>
      .cls-1 {
        fill: #fff;
      }

      .cls-2 {
        fill: #5b1ecf;
      }
    </style>
  </defs>
  <path class="cls-2" d="M48.7,56.7H8c-4.4,0-8-3.6-8-8V8C0,3.6,3.6,0,8,0h40.7C53.1,0,56.7,3.6,56.7,8v40.7c0,4.4-3.6,8-8,8Z"/>
  <path class="cls-1" d="M28.3,10.3c-12.5,0-22.7,10.3-22.7,23v9.8c0,1.8,1.4,3.3,3.2,3.3s3.2-1.5,3.2-3.3v-9.8c0-1.8,1.4-3.3,3.2-3.3s3.2,1.5,3.2,3.3v9.8c0,1.8,1.4,3.3,3.2,3.3s3.2-1.5,3.2-3.3v-9.8c0-1.8,1.4-3.3,3.2-3.3s3.2,1.5,3.2,3.3v9.8c0,1.8,1.4,3.3,3.2,3.3s3.2-1.5,3.2-3.3v-9.8c0-1.8,1.4-3.3,3.2-3.3s3.2,1.5,3.2,3.3v9.8c0,1.8,1.4,3.3,3.2,3.3s3.2-1.5,3.2-3.3v-9.8c0-12.7-10.2-23-22.7-23Z"/>
</svg>