<?xml version="1.0" encoding="utf-8"?>
<!-- Generator: Adobe Illustrator 25.0.1, SVG Export Plug-In . SVG Version: 6.00 Build 0)  -->
<svg version="1.1" xmlns="http://www.w3.org/2000/svg" xmlns:xlink="http://www.w3.org/1999/xlink" x="0px" y="0px"
	 viewBox="0 0 56.7 56.7" style="enable-background:new 0 0 56.7 56.7;" xml:space="preserve">
<style type="text/css">
	.st0{fill:#645FAA;}
	.st1{display:none;}
	.st2{display:inline;}
	.st3{fill:#404040;}
	.st4{fill:#1F8BCC;}
	.st5{display:inline;fill:#4CBA74;}
	.st6{fill:#3AC0C4;}
	.st7{fill:#F04D2F;}
	.st8{fill:#F9A02A;}
	.st9{opacity:0.2;fill:#010101;enable-background:new    ;}
</style>
<g id="Layer_1">
	<g>
		<path class="st0" d="M48.5,56.7H52c2.6,0,4.6-2.1,4.6-4.6V4.6C56.6,2.1,54.5,0,52,0h-3.5c-0.1,0-0.1,0-0.2,0.1L26.4,26.8
			c-0.7,0.9-0.7,2.1,0,3l21.9,26.8C48.4,56.7,48.4,56.7,48.5,56.7L48.5,56.7z"/>
		<path class="st0" d="M15.4,26.9L37.1,0.3C37.2,0.2,37.1,0,37,0H4.7C2.2,0,0.1,2.1,0.1,4.6v47.4c0,2.6,2.1,4.6,4.6,4.6H37
			c0.2,0,0.3-0.2,0.2-0.3L15.4,29.8C14.7,29,14.7,27.7,15.4,26.9z"/>
	</g>
</g>
<g id="Layer_2" class="st1">
	<g class="st2">
		<path class="st3" d="M21.2,44.5C21.3,31,35.7,28.2,34.1,13.4c-0.5-4.2-2.5-9.3-6.7-13.3c-0.2-0.2-0.6,0-0.6,0.3
			c1.3,13.6-8.3,20-12.6,25.6c-9.5,12.5-2.5,28.6,11.6,30.7c0.3,0,0.5-0.3,0.3-0.6C23.2,53.3,21.2,49.6,21.2,44.5L21.2,44.5z"/>
		<path class="st4" d="M39.7,22.9c-0.2-0.2-0.5-0.1-0.5,0.2c-0.3,1.8-1.4,4.6-4.9,9.7c-9.1,13.1-4.7,19-0.7,23.3
			c0.9,1,0.4-0.2,2.3-1.5c2.5-1.7,3.5-1.9,5.9-4c2.7-2.7,4.9-6.9,5.1-11.2C47.2,30,41.7,24.6,39.7,22.9z"/>
	</g>
</g>
<g id="Layer_3" class="st1">
	<path class="st5" d="M54.5,0.1c-0.2,0-5.7,0.2-12.6,1.9c-9.3,2.2-16.2,5.8-20.4,10.7c-0.9,1-1.8,2.1-2.6,3.1
		c-1.7,0.4-6.3,1.7-8.5,2.1c-1.2,0.2-2.3,1-3,2c-1.5,2.2-4.2,6.8-4.3,7L0,32.1l5.6-2.4c2.4-1.1,5.8-1.8,6.8-1.2c0.1,0,0.1,0,0.1,0.3
		c0,1.6,0.4,3.1,1.1,4.7c-1.5,1.2-2.4,3.1-2.3,5v6.8h6.8c1.9,0.1,3.8-0.8,5-2.3c1.5,0.7,3,1.1,4.7,1.1c0.2,0.1,0.3,0.1,0.3,0.1
		c0.6,1-0.1,4.4-1.2,6.8l-2.4,5.5l5.2-3.1c0.2-0.1,4.8-2.8,7-4.3c1-0.7,1.7-1.8,2-3c0.4-2.1,1.7-6.8,2.1-8.5c1-0.8,2-1.7,3.1-2.6
		C55.5,25.1,56.5,3.1,56.6,2.1L56.7,0L54.5,0.1z M13.4,24.6c-1.3-0.4-2.8-0.3-4.2-0.1c0.5-0.9,1.1-1.7,1.5-2.4
		c0.1-0.2,0.3-0.3,0.5-0.3c1-0.2,2.5-0.6,4.1-0.9C14.4,22.2,13.8,23.4,13.4,24.6z M20.1,40.5c-0.4,0.5-1.1,0.8-1.7,0.8h-0.6l4.1-6.4
		L15.4,39v-0.7c0-0.7,0.2-1.3,0.8-1.7l7.9-6.2c0.4-0.3,0.9-0.6,1.4-0.7l2.1-0.5l-0.5,2.1c-0.1,0.5-0.3,1-0.7,1.4
		C26.4,32.7,20.1,40.5,20.1,40.5z M34.9,45.5c0,0.2-0.2,0.4-0.3,0.5c-0.6,0.4-1.5,1-2.4,1.5c0.2-1.4,0.3-2.9-0.1-4.2
		c1.3-0.5,2.6-1.1,3.8-1.9C35.5,43,35.1,44.5,34.9,45.5L34.9,45.5z M41.4,32.2c-6.8,6-10.6,7.8-13.3,7.9H28c-0.8,0-1.5-0.1-2.2-0.4
		l3.7-4.7c0.7-0.9,1.2-1.9,1.5-3l2-8.3l-8.3,2c-1.1,0.2-2.1,0.7-3,1.4l-4.7,3.7c-0.3-0.7-0.4-1.5-0.4-2.2v-0.1
		c0.1-2.7,1.9-6.5,7.9-13.3c7.3-8.3,22.3-10.5,28-11C51.9,9.9,49.7,25,41.4,32.2L41.4,32.2z"/>
	<path class="st5" d="M20,48.7c-2.5,0.5-5.1,0.6-7.7,0.7c-1.5,0-3-0.1-4.5-0.2c0.6-1,1.1-2,1.6-3c0.9-2.1,1.6-4.3,2.2-6.4
		c0.5-2.1,1.1-4.1,1.8-6.1c0.7-2.1,1.5-4.1,2.4-6.1c-0.8,0.8-1.5,1.6-2.1,2.5c-0.6,0.9-1.3,1.8-1.9,2.8c-1.1,1.9-2.1,4-3,6
		c-0.8,2-1.6,4-2.6,5.7c-1,1.8-2.2,3.5-3.5,5l-2.3,2.7l3.5,0.5c2.8,0.4,5.6,0.6,8.4,0.5c1.4-0.1,2.8-0.1,4.3-0.4
		c1.4-0.2,2.8-0.5,4.2-0.9c2.7-0.8,5.3-2.1,7.7-3.7c1.1-0.8,2.2-1.8,3.1-2.9c0.9-1.1,1.7-2.2,2.3-3.5c-1.9,2-4.2,3.4-6.5,4.6
		C25,47.5,22.5,48.3,20,48.7z M49.3,17.3c1.8,0,3.6-0.7,5-2c2.7-2.7,2.7-7.1,0-9.8c0,0,0,0,0,0c-1.3-1.3-3.1-2-5-2
		c-1.9,0-3.6,0.7-5,2c-2.7,2.7-2.7,7.1,0,9.8c0,0,0,0,0,0C45.7,16.6,47.4,17.3,49.3,17.3z M47.1,8.2c0.6-0.6,1.3-0.9,2.1-0.9
		s1.6,0.3,2.1,0.9c1.2,1.2,1.2,3.1,0,4.2c0,0,0,0,0,0c-1.2,1.2-3.1,1.2-4.2,0c0,0,0,0,0,0C46,11.3,46,9.4,47.1,8.2L47.1,8.2z"/>
</g>
<g id="Layer_4" class="st1">
	<g class="st2">
		<path class="st6" d="M28.3,31.7h21.3l3.4-3.4L49.7,25H28.3c-1.9,0-3.4,1.5-3.4,3.4C25,30.2,26.5,31.7,28.3,31.7"/>
		<path class="st6" d="M28.3,12.5c-8.8,0-15.9,7.1-15.9,15.8s7.1,15.8,15.9,15.8h8.8l6.8-6.8H28.3c-5,0-9.1-4.1-9.1-9.1
			c0-5,4.1-9.1,9.1-9.1H44l-6.8-6.8H28.3z"/>
		<polygon class="st6" points="56.7,44.2 56.7,37.4 51.6,37.4 44.8,44.2 		"/>
		<path class="st6" d="M8.3,8.3C2.9,13.7,0,20.8,0,28.3c0,7.6,2.9,14.7,8.3,20c5.3,5.3,12.5,8.3,20,8.3h28.3v-6.8H28.3
			c-5.8,0-11.2-2.2-15.3-6.3C9,39.5,6.8,34.1,6.8,28.3c0-5.8,2.2-11.2,6.3-15.2c4.1-4.1,9.5-6.3,15.3-6.3h28.3V0H28.3
			C20.8,0,13.7,3,8.3,8.3"/>
		<polygon class="st6" points="51.6,19.3 56.7,19.3 56.7,12.5 44.8,12.5 		"/>
	</g>
</g>
<g id="Layer_5" class="st1">
	<g class="st2">
		<g>
			<path id="XMLID_20_" class="st7" d="M13.1,39.4c1.1-2.8,3.1-5.1,5.8-6.5l4.5,2.6c1.8,1,1.4,3.9-0.2,4.8L14,45.5
				c-0.5,0.3-1.2,0.1-1.5-0.5c-0.1-0.1-0.1-0.3-0.1-0.4C12.2,42.9,12.5,41.1,13.1,39.4z"/>
			<path class="st8" d="M27.6,27.3c0-1.6-0.8-3-2.1-3.9L0,8.9c0.1,2.5,0.6,5.1,1.4,7.5C3.4,21.6,7.1,26.1,12,29l11.3,6.5
				c1.8,1,1.4,3.9-0.2,4.8l2.9-1.6c0.9-0.5,1.5-1.5,1.5-2.5v-3.3C27.5,32.8,27.6,27.3,27.6,27.3z"/>
			<path class="st9" d="M23.4,35.5l-4.5-2.6c0,0,2.9,2.4,4,3.7c1.1,1.2,0.4,3.7,0.4,3.7C24.8,39.4,25.2,36.5,23.4,35.5z"/>
			<path id="XMLID_19_" class="st7" d="M43.6,17.3c-1.1,2.8-3.1,5.1-5.8,6.5l-4.5-2.6c-1.8-1-1.4-3.9,0.2-4.8l9.2-5.3
				c0.5-0.3,1.2-0.1,1.5,0.5c0.1,0.1,0.1,0.3,0.1,0.4C44.5,13.8,44.2,15.6,43.6,17.3z"/>
			<path class="st8" d="M29.1,29.4c0,1.6,0.8,3,2.1,3.9l25.4,14.5c-0.1-2.5-0.6-5.1-1.4-7.5c-1.9-5.3-5.7-9.8-10.6-12.6l-11.3-6.5
				c-1.8-1-1.4-3.9,0.2-4.8l-2.9,1.6c-0.9,0.5-1.5,1.5-1.5,2.5v3.3C29.2,23.9,29.1,29.4,29.1,29.4z"/>
			<path class="st9" d="M33.3,21.2l4.5,2.6c0,0-2.9-2.4-4-3.7c-1.1-1.2-0.4-3.7-0.4-3.7C31.9,17.3,31.5,20.2,33.3,21.2z"/>
		</g>
	</g>
</g>
</svg>
