<?xml version="1.0" encoding="UTF-8"?>
<svg id="Layer_1" xmlns="http://www.w3.org/2000/svg" version="1.1" viewBox="0 0 56.7 56.7">
  <!-- Generator: Adobe Illustrator 29.8.3, SVG Export Plug-In . SVG Version: 2.1.1 Build 3)  -->
  <defs>
    <style>
      .st0 {
        fill: #fff;
      }

      .st1 {
        fill: #5661ff;
      }
    </style>
  </defs>
  <g id="Layer_17">
    <g>
      <path class="st1" d="M28.4,1.4h0c14.9,0,26.9,12.1,26.9,26.9h0c0,14.9-12.1,26.9-26.9,26.9h0c-14.9,0-26.9-12.1-26.9-26.9h0C1.4,13.5,13.5,1.4,28.4,1.4Z"/>
      <path class="st0" d="M44.1,39.4l-5.9-16.4h-8.8l-3.9,11h-4.6l7.5-20.9h-2.8c-1,0-2,.3-2.8.9-.8.6-1.4,1.4-1.8,2.3l-8.3,23.1h13.6c1,0,2-.3,2.8-.9s1.5-1.4,1.8-2.3l2.9-8,4,11.2h6.3Z"/>
    </g>
  </g>
</svg>