<?xml version="1.0" encoding="utf-8"?>
<!-- Generator: Adobe Illustrator 25.0.1, SVG Export Plug-In . SVG Version: 6.00 Build 0)  -->
<svg version="1.1" xmlns="http://www.w3.org/2000/svg" xmlns:xlink="http://www.w3.org/1999/xlink" x="0px" y="0px"
	 viewBox="0 0 56.7 56.7" style="enable-background:new 0 0 56.7 56.7;" xml:space="preserve">
<style type="text/css">
	.st0{display:none;}
	.st1{display:inline;fill:#1C2531;}
	.st2{display:inline;}
	.st3{fill:#645FAA;}
	.st4{display:inline;fill:#171733;}
	.st5{fill:#EABC4A;}
	.st6{fill:#4BB8E9;}
	.st7{fill:#EABC4C;}
	.st8{fill:#414141;}
	.st9{fill:#FFFFFF;}
	.st10{fill:#1F8BCC;}
	.st11{fill:#4CBA74;}
	.st12{display:inline;fill:#3CC0C4;}
	.st13{display:inline;fill:url(#SVGID_1_);}
	.st14{display:inline;fill:#FFFFFF;}
	.st15{display:inline;fill:#1B2951;}
	.st16{fill:#F04D2F;}
	.st17{fill:#F9A02A;}
	.st18{opacity:0.2;fill:#010101;enable-background:new    ;}
	.st19{display:inline;fill:#14182A;}
	.st20{fill:#F5A61C;}
	.st21{fill:#14182A;}
	.st22{fill-rule:evenodd;clip-rule:evenodd;fill:#F04A23;}
	.st23{fill-rule:evenodd;clip-rule:evenodd;fill:#FFFFFF;}
	.st24{display:inline;fill:#0C1626;}
	.st25{fill:url(#SVGID_2_);}
	.st26{display:inline;fill:#20AF90;}
	.st27{display:inline;fill:#415EAB;}
	.st28{fill-rule:evenodd;clip-rule:evenodd;fill:#59BF96;}
	.st29{display:inline;fill:#0E324E;}
	.st30{fill:#3FBB96;}
	.st31{display:inline;fill:#010101;}
	.st32{fill:#37B44A;}
	.st33{display:inline;fill:#2C3A49;}
	.st34{display:inline;fill:#416EB5;}
	.st35{display:inline;fill:#529F9A;}
	.st36{display:inline;fill-rule:evenodd;clip-rule:evenodd;fill:#FFFFFF;}
	.st37{fill-rule:evenodd;clip-rule:evenodd;fill:#1F2020;}
	.st38{display:inline;fill:#1B1E28;}
	.st39{fill-rule:evenodd;clip-rule:evenodd;fill:#685FAA;}
	.st40{display:inline;fill:#3B404C;}
	.st41{fill:#41BFBA;}
	.st42{display:inline;fill:#2A2F35;}
	.st43{fill:#3DAF49;}
	.st44{display:inline;fill:#234156;}
	.st45{fill:#59BBE6;}
	.st46{fill:#005573;}
	.st47{fill:#35AFE4;}
	.st48{fill:#0677A7;}
	.st49{fill:#1F9CD8;}
	.st50{fill:#7CCDF1;}
	.st51{fill:#1BAAE2;}
	.st52{fill:#058EBE;}
	.st53{fill:#096A8E;}
	.st54{fill:#0EA1CB;}
	.st55{fill:#90D9F8;}
	.st56{display:inline;fill:#137DC2;}
	.st57{display:inline;fill:#2EAAE1;}
	.st58{display:inline;fill:#0199D5;}
	.st59{fill:#4364AE;}
	.st60{display:inline;fill:#202D60;}
	.st61{fill:#3D59A8;}
	.st62{fill:#334EA1;}
	.st63{fill:#4471B8;}
	.st64{display:inline;fill:#3C5DAB;}
	.st65{fill:#C6C8CA;}
	.st66{fill:#9CA3A7;}
	.st67{fill:#B8BBBD;}
	.st68{fill:#CBD0D1;}
	.st69{fill:#BCBFC3;}
	.st70{fill:#CACDCE;}
	.st71{fill:#BFC2C4;}
	.st72{fill:#BDC0C2;}
	.st73{fill:#BDC1C4;}
	.st74{fill:#C7CACC;}
	.st75{fill:url(#SVGID_3_);}
	.st76{fill:#B9BCBF;}
	.st77{fill:#C5C7C9;}
	.st78{fill:#C2C5C7;}
	.st79{fill:url(#SVGID_4_);}
	.st80{fill:url(#SVGID_5_);}
	.st81{fill:url(#SVGID_6_);}
	.st82{fill:url(#SVGID_7_);}
	.st83{fill:#DF322F;}
	.st84{fill:url(#SVGID_8_);}
	.st85{fill:#17181C;}
	.st86{fill:url(#SVGID_9_);}
	.st87{fill:url(#SVGID_10_);}
	.st88{display:inline;fill:#181C1E;}
	.st89{display:inline;fill:#4CBA74;}
	.st90{display:inline;fill:#3B4349;}
	.st91{display:inline;fill:#ED1E6D;}
	.st92{display:inline;fill:#1B1B1B;}
	.st93{fill:#F1DB63;}
	.st94{display:inline;fill:#252E41;}
	.st95{fill:#5FBD68;}
	.st96{display:inline;fill:#6C56A4;}
	.st97{fill-rule:evenodd;clip-rule:evenodd;fill:#C4A474;}
	.st98{fill-rule:evenodd;clip-rule:evenodd;fill:#AC8250;}
	.st99{fill-rule:evenodd;clip-rule:evenodd;fill:#EE7093;}
	.st100{fill-rule:evenodd;clip-rule:evenodd;fill:#83612E;}
	.st101{display:inline;fill:#30B7EA;}
	.st102{display:inline;fill:#2B2C38;}
	.st103{fill:#70C275;}
	.st104{display:inline;fill:#0F0F3F;}
	.st105{fill-rule:evenodd;clip-rule:evenodd;fill:#2C2A29;}
	.st106{fill:url(#_254048504_1_);}
	.st107{fill-rule:evenodd;clip-rule:evenodd;fill:#A1509F;}
	.st108{fill-rule:evenodd;clip-rule:evenodd;fill:#A5DDE8;}
	.st109{display:inline;fill:#2E3544;}
	.st110{display:inline;fill-rule:evenodd;clip-rule:evenodd;fill:#FFD637;}
	.st111{display:inline;fill:#4E4DA0;}
	.st112{display:inline;fill:#121126;}
	.st113{fill-rule:evenodd;clip-rule:evenodd;fill:#4651A3;}
	.st114{fill-rule:evenodd;clip-rule:evenodd;fill:#74C8B3;}
	.st115{display:inline;fill:#0F1D2B;}
	.st116{fill-rule:evenodd;clip-rule:evenodd;fill:#EA5361;}
	.st117{display:inline;fill:#3D6FB7;}
	.st118{display:inline;fill:#22BECA;}
	.st119{fill:#FEE033;}
	.st120{fill-rule:evenodd;clip-rule:evenodd;fill:#262525;}
	.st121{fill:#262525;}
	.st122{fill-rule:evenodd;clip-rule:evenodd;fill:#9D7E2D;}
	.st123{display:inline;fill:#1F444A;}
	.st124{display:inline;fill:#70CCD6;}
	.st125{fill:#0D1426;}
	.st126{display:inline;fill:#3860AD;}
	.st127{fill:url(#SVGID_11_);}
	.st128{fill:#EBA231;}
	.st129{fill:#D9D9D8;filter:url(#Adobe_OpacityMaskFilter);}
	.st130{mask:url(#mask0_985_1593_2_);}
	.st131{fill:#336CB5;}
	.st132{fill:#3875BB;}
	.st133{fill:#396BB4;}
	.st134{fill:#3A66B1;}
	.st135{fill:#3D6CB4;}
	.st136{fill:#3663AF;}
	.st137{fill:#3965B0;}
	.st138{fill:#3461AD;}
	.st139{fill:#345EAC;}
	.st140{fill:#2B5DAB;}
	.st141{fill:#396DB5;}
	.st142{fill:#2F65B0;}
	.st143{fill:#3366B1;}
	.st144{fill:#3B6EB6;}
	.st145{fill:#376AB3;}
	.st146{fill:#3D69B2;}
	.st147{fill:#3560AC;}
	.st148{fill:#3B64AF;}
	.st149{fill:#3160AD;}
	.st150{fill:#3062AE;}
	.st151{fill:#3061AD;}
	.st152{fill:#3264AF;}
	.st153{fill:#355DAB;}
	.st154{fill:#355CAA;}
	.st155{fill:#2953A5;}
	.st156{fill:#315BA9;}
	.st157{fill:#3864AF;}
	.st158{fill:#2F6CB5;}
	.st159{fill:#3A65B0;}
	.st160{fill:#345EAB;}
	.st161{fill:#335EAC;}
	.st162{fill:#2E51A4;}
	.st163{fill:#305EAC;}
	.st164{fill:#3664AF;}
	.st165{fill:#2B60AD;}
	.st166{fill:#2F5BAA;}
	.st167{fill:#3B66B0;}
	.st168{fill:#3966B0;}
	.st169{fill:#3865B0;}
	.st170{fill:#3762AE;}
	.st171{fill:#3658A8;}
	.st172{fill:#3159A8;}
	.st173{fill:#3058A8;}
	.st174{fill:#325EAB;}
	.st175{fill:#3662AE;}
	.st176{fill:#2F5FAC;}
	.st177{fill:#2E57A7;}
	.st178{fill:#3869B2;}
	.st179{fill:#3555A5;}
	.st180{fill:#3354A5;}
	.st181{fill:#3552A4;}
	.st182{fill:#315AA9;}
	.st183{fill:#3258A8;}
	.st184{fill:#3867B1;}
	.st185{fill:#335FAC;}
	.st186{fill:#2A61AD;}
	.st187{fill:#2451A4;}
	.st188{fill:#3057A7;}
	.st189{fill:#26499F;}
	.st190{fill:#233E99;}
	.st191{fill:#2A4BA0;}
	.st192{fill:#2D54A5;}
	.st193{fill:#3360AD;}
	.st194{fill:#375FAC;}
	.st195{fill:#376BB4;}
	.st196{opacity:0.15;fill:url(#SVGID_12_);enable-background:new    ;}
	.st197{fill-rule:evenodd;clip-rule:evenodd;fill:#7DD1EB;}
	.st198{fill:#E15155;}
	.st199{fill-rule:evenodd;clip-rule:evenodd;fill:#E15155;}
	.st200{fill:#FEEA0E;}
	.st201{fill-rule:evenodd;clip-rule:evenodd;fill:#FEEA0E;}
	.st202{fill:#7DD1EB;}
	.st203{display:inline;fill:#0B1935;}
	.st204{display:inline;fill:#434343;}
	.st205{display:inline;fill:#EE724C;}
	.st206{display:inline;fill:#161E26;}
	.st207{fill:#232C33;}
	.st208{fill:#253B80;}
	.st209{fill:#4373B9;}
</style>
<g id="Layer_21" class="st0">
	<rect x="-6.4" y="-6.1" class="st1" width="70.8" height="69.8"/>
</g>
<g id="Layer_1" class="st0">
	<g class="st2">
		<path class="st3" d="M48.5,56.7H52c2.6,0,4.6-2.1,4.6-4.6V4.6C56.6,2.1,54.5,0,52,0h-3.5c-0.1,0-0.1,0-0.2,0.1L26.4,26.8
			c-0.7,0.9-0.7,2.1,0,3l21.9,26.8C48.4,56.7,48.4,56.7,48.5,56.7L48.5,56.7z"/>
		<path class="st3" d="M15.4,26.9L37.1,0.3C37.2,0.2,37.1,0,37,0H4.7C2.2,0,0.1,2.1,0.1,4.6v47.4c0,2.6,2.1,4.6,4.6,4.6H37
			c0.2,0,0.3-0.2,0.2-0.3L15.4,29.8C14.7,29,14.7,27.7,15.4,26.9z"/>
	</g>
</g>
<g id="WhiteBit" class="st0">
	<path class="st4" d="M48.7,56.7H8c-4.4,0-8-3.6-8-8V8c0-4.4,3.6-8,8-8h40.7c4.4,0,8,3.6,8,8v40.7C56.7,53.1,53.1,56.7,48.7,56.7z"
		/>
	<g class="st2">
		<path class="st5" d="M8.1,22.5c-0.6,1.1-1,2.4-1,3.7h9.1l3.7-3.7H8.1z"/>
		<path class="st6" d="M23.7,18.8h-9.2c-2.8,0-5.2,1.5-6.5,3.7h11.8L23.7,18.8z"/>
		<path class="st7" d="M49.6,11.3h-9.2c-4.1,0-7.5,3.4-7.5,7.5h-9.2l7.5-7.5h-9.2c-4.1,0-7.5,3.4-7.5,7.5v13v0.1
			c0,7.5,6.1,13.5,13.6,13.5H42V18.7L49.6,11.3z M32.3,30.8c-1.2-1.2-1.2-3.3,0-4.5l4.5,4.5C35.6,32,33.6,32,32.3,30.8z"/>
	</g>
</g>
<g id="Huobi_Global" class="st0">
	<g class="st2">
		<path class="st8" d="M48.7,56.7H8c-4.4,0-8-3.6-8-8V8c0-4.4,3.6-8,8-8h40.7c4.4,0,8,3.6,8,8v40.7C56.7,53.1,53.1,56.7,48.7,56.7z"
			/>
	</g>
	<g class="st2">
		<path class="st9" d="M23,40.5c0.1-10.1,10.9-12.3,9.7-23.3c-0.3-3.2-1.9-7-5-10c-0.2-0.2-0.4,0-0.4,0.2c0.9,10.2-6.2,15-9.5,19.2
			c-7.1,9.4-1.9,21.4,8.7,23c0.2,0,0.4-0.2,0.2-0.4C24.5,47,23,44.3,23,40.5L23,40.5z"/>
		<path class="st10" d="M36.9,24.3c-0.1-0.1-0.4,0-0.4,0.1c-0.3,1.3-1.1,3.5-3.7,7.3c-6.8,9.8-3.5,14.2-0.5,17.5
			c0.7,0.8,0.3-0.2,1.7-1.1c1.9-1.3,2.7-1.5,4.4-3c2-2,3.7-5.2,3.8-8.4C42.5,29.6,38.4,25.6,36.9,24.3z"/>
	</g>
</g>
<g id="Layer_6" class="st0">
	<g class="st2">
		<path class="st11" d="M54.8,2.7c-0.2,0-5,0.2-10.9,1.6c-8,1.9-14,5-17.7,9.2c-0.8,0.9-1.5,1.8-2.3,2.7c-1.5,0.4-5.5,1.5-7.3,1.8
			c-1.1,0.2-2,0.8-2.6,1.7c-1.3,1.9-3.6,5.9-3.7,6l-2.7,4.5l4.8-2.1c2.1-0.9,5-1.6,5.9-1.1c0,0,0.1,0,0.1,0.3c0,1.4,0.3,2.7,1,4
			c-1.3,1-2.1,2.6-2,4.3v5.9h5.9c1.7,0.1,3.3-0.7,4.3-2c1.3,0.6,2.6,0.9,4,1c0.2,0,0.3,0.1,0.3,0.1c0.5,0.9-0.1,3.8-1.1,5.9
			l-2.1,4.8l4.5-2.7c0.2-0.1,4.1-2.4,6-3.7c0.9-0.6,1.5-1.5,1.7-2.6c0.4-1.8,1.5-5.9,1.8-7.3c0.9-0.7,1.8-1.5,2.7-2.3
			c9.9-8.8,10.8-27.8,10.9-28.6l0.1-1.8L54.8,2.7z M19.3,23.9c-1.1-0.3-2.4-0.3-3.6-0.1c0.5-0.8,0.9-1.5,1.3-2.1
			c0.1-0.2,0.3-0.3,0.5-0.3c0.9-0.2,2.2-0.5,3.5-0.8C20.2,21.8,19.7,22.8,19.3,23.9z M25.1,37.6c-0.4,0.5-0.9,0.7-1.5,0.7H23
			l3.5-5.6L21,36.3v-0.6c0-0.6,0.2-1.2,0.7-1.5l6.8-5.4c0.3-0.3,0.8-0.5,1.2-0.6l1.8-0.4l-0.4,1.8c-0.1,0.5-0.3,0.9-0.6,1.2
			L25.1,37.6z M37.8,41.9c0,0.2-0.1,0.4-0.3,0.5c-0.6,0.4-1.3,0.9-2.1,1.3c0.2-1.2,0.3-2.5-0.1-3.6c1.1-0.4,2.2-1,3.3-1.6
			C38.3,39.7,38,41,37.8,41.9L37.8,41.9z M43.5,30.4c-5.9,5.2-9.2,6.8-11.5,6.8h-0.1c-0.7,0-1.3-0.1-1.9-0.3l3.2-4
			c0.6-0.8,1-1.6,1.3-2.6l1.7-7.2l-7.2,1.7c-0.9,0.2-1.8,0.6-2.6,1.2l-4,3.2C22.1,28.7,22,28,22,27.4v-0.1c0-2.3,1.6-5.6,6.8-11.5
			C35.1,8.6,48.1,6.7,53,6.2C52.5,11.1,50.6,24.2,43.5,30.4L43.5,30.4z"/>
		<path class="st11" d="M16.9,50.2c-2.2,0.4-4.4,0.6-6.6,0.6c-1.3,0-2.6,0-3.9-0.2c0.5-0.9,1-1.7,1.4-2.6c0.8-1.8,1.4-3.7,1.9-5.6
			c0.4-1.8,1-3.6,1.6-5.3c0.6-1.8,1.3-3.5,2.1-5.3c-0.7,0.7-1.3,1.4-1.8,2.2c-0.6,0.8-1.1,1.6-1.6,2.4c-1,1.6-1.8,3.4-2.6,5.2
			c-0.7,1.7-1.4,3.4-2.3,5c-0.9,1.5-1.9,3-3,4.3l-2,2.3l3,0.4c2.4,0.3,4.8,0.5,7.3,0.4c1.2,0,2.4-0.1,3.7-0.3
			c1.2-0.2,2.4-0.5,3.6-0.8c2.4-0.7,4.6-1.8,6.6-3.2c1-0.7,1.9-1.5,2.7-2.5c0.8-0.9,1.5-1.9,2-3c-1.6,1.7-3.6,3-5.6,3.9
			C21.2,49.1,19.1,49.8,16.9,50.2z M42.2,23c1.5,0,3.1-0.6,4.3-1.8c2.4-2.3,2.4-6.2,0-8.5c0,0,0,0,0,0c-1.2-1.2-2.7-1.8-4.3-1.8
			s-3.1,0.6-4.3,1.8c-2.4,2.3-2.4,6.2,0,8.5c0,0,0,0,0,0C39.1,22.4,40.6,23,42.2,23z M40.4,15.2c0.5-0.5,1.2-0.8,1.8-0.8
			s1.4,0.3,1.8,0.8c1,1,1,2.6,0,3.7c0,0,0,0,0,0c-1,1-2.6,1-3.7,0c0,0,0,0,0,0C39.4,17.9,39.4,16.2,40.4,15.2L40.4,15.2z"/>
	</g>
</g>
<g id="Layer_4" class="st0">
	<path class="st12" d="M48.7,56.7H8c-4.4,0-8-3.6-8-8V8c0-4.4,3.6-8,8-8h40.7c4.4,0,8,3.6,8,8v40.7C56.7,53.1,53.1,56.7,48.7,56.7z"
		/>
	<g class="st2">
		<path class="st9" d="M28.3,30.9h16l2.5-2.5l-2.5-2.5h-16c-1.4,0-2.5,1.1-2.5,2.5C25.8,29.7,26.9,30.9,28.3,30.9"/>
		<path class="st9" d="M28.3,16.5c-6.6,0-11.9,5.3-11.9,11.9c0,6.6,5.3,11.9,11.9,11.9H35l5.1-5.1H28.3c-3.8,0-6.8-3.1-6.8-6.8
			c0-3.8,3.1-6.8,6.8-6.8h11.7L35,16.5H28.3z"/>
		<polygon class="st9" points="49.6,40.2 49.6,35.2 45.8,35.2 40.7,40.2 		"/>
		<path class="st9" d="M13.3,13.3c-4,4-6.2,9.3-6.2,15c0,5.7,2.2,11,6.2,15c4,4,9.4,6.2,15,6.2h21.3v-5.1H28.3
			c-4.3,0-8.4-1.7-11.4-4.7c-3-3.1-4.7-7.1-4.7-11.4c0-4.3,1.7-8.4,4.7-11.4c3.1-3,7.1-4.7,11.4-4.7h21.3V7.1H28.3
			C22.7,7.1,17.3,9.3,13.3,13.3"/>
		<polygon class="st9" points="45.8,21.5 49.6,21.5 49.6,16.5 40.7,16.5 		"/>
	</g>
</g>
<g id="Coinex" class="st0">
	<linearGradient id="SVGID_1_" gradientUnits="userSpaceOnUse" x1="0" y1="28.3465" x2="56.6929" y2="28.3465">
		<stop  offset="0" style="stop-color:#1FBECC"/>
		<stop  offset="1" style="stop-color:#60C3A9"/>
	</linearGradient>
	<path class="st13" d="M48.7,56.7H8c-4.4,0-8-3.6-8-8V8c0-4.4,3.6-8,8-8h40.7c4.4,0,8,3.6,8,8v40.7C56.7,53.1,53.1,56.7,48.7,56.7z"
		/>
	<path class="st14" d="M35.6,22.5c-3.4-3.4-8.9-3.4-12.3,0c-3.4,3.4-3.4,9.1,0,12.5c3.4,3.4,8.9,3.5,12.3,0c0.1-0.1,0.3-0.3,0.7-0.8
		l-4.1-4.2c-0.4,0.5-0.6,0.8-0.7,0.8c-1.2,1.2-3,1.2-4.2,0c-1.2-1.2-1.2-3.1,0-4.2c1.1-1.1,3-1.1,4.1,0c0,0,3.6,3.7,10.9,11.1
		c-3,4.4-8,7.2-13.4,7.2c-8.9,0-16.2-7.4-16.2-16.6c0-9.2,7.3-16.6,16.2-16.6c5.2,0,10,2.6,13,6.7c-0.5,0.6-1.7,2-3.7,4.3l4,4.1
		l6.7-7.7c-3.5-8-11.3-13.3-20-13.3c-12.1,0-22,10.1-22,22.5c0,12.4,9.8,22.5,22,22.5c5.5,0,10.1-1.8,14.6-5.6c4.1-3.5,6-8.4,6-8.4
		L35.6,22.5z"/>
</g>
<g id="Coindcs" class="st0">
	<path class="st15" d="M48.7,56.7H8c-4.4,0-8-3.6-8-8V8c0-4.4,3.6-8,8-8h40.7c4.4,0,8,3.6,8,8v40.7C56.7,53.1,53.1,56.7,48.7,56.7z"
		/>
	<g class="st2">
		<g>
			<path id="XMLID_20_" class="st16" d="M16.9,36.6c0.8-2.1,2.3-3.8,4.3-4.9l3.4,1.9c1.4,0.8,1.1,2.9-0.1,3.6l-6.9,4
				c-0.4,0.2-0.9,0.1-1.1-0.3c0-0.1-0.1-0.2-0.1-0.3C16.3,39.2,16.4,37.9,16.9,36.6z"/>
			<path class="st17" d="M27.8,27.5c0-1.2-0.6-2.3-1.6-2.9L7.1,13.7c0.1,1.9,0.4,3.8,1.1,5.6c1.5,4,4.3,7.3,7.9,9.5l8.5,4.9
				c1.4,0.8,1.1,2.9-0.1,3.6l2.1-1.2c0.7-0.4,1.1-1.1,1.1-1.9v-2.5C27.7,31.7,27.8,27.5,27.8,27.5z"/>
			<path class="st18" d="M24.6,33.7l-3.4-1.9c0,0,2.2,1.8,3,2.7c0.8,0.9,0.3,2.8,0.3,2.8C25.7,36.6,26,34.5,24.6,33.7z"/>
			<path id="XMLID_19_" class="st16" d="M39.8,20.1c-0.8,2.1-2.3,3.8-4.3,4.9L32.1,23c-1.4-0.8-1.1-2.9,0.1-3.6l6.9-4
				c0.4-0.2,0.9-0.1,1.1,0.3c0,0.1,0.1,0.2,0.1,0.3C40.4,17.4,40.2,18.8,39.8,20.1z"/>
			<path class="st17" d="M28.9,29.2c0,1.2,0.6,2.3,1.6,2.9l19.1,10.9c-0.1-1.9-0.4-3.8-1.1-5.6c-1.5-4-4.3-7.3-7.9-9.5L32.1,23
				c-1.4-0.8-1.1-2.9,0.1-3.6l-2.1,1.2C29.4,21,29,21.7,29,22.5V25C29,25,28.9,29.2,28.9,29.2z"/>
			<path class="st18" d="M32.1,23l3.4,1.9c0,0-2.2-1.8-3-2.7c-0.8-0.9-0.3-2.8-0.3-2.8C31,20.1,30.7,22.2,32.1,23z"/>
		</g>
	</g>
</g>
<g id="Bybit" class="st0">
	<path class="st19" d="M48.7,56.7H8c-4.4,0-8-3.6-8-8V8c0-4.4,3.6-8,8-8h40.7c4.4,0,8,3.6,8,8v40.7C56.7,53.1,53.1,56.7,48.7,56.7z"
		/>
	<g class="st2">
		<path class="st20" d="M37.4,32.2V21.3h2.2v10.9H37.4z"/>
		<path class="st9" d="M11.8,35.4H7.1V24.5h4.5c2.2,0,3.5,1.2,3.5,3.1c0,1.2-0.8,2-1.4,2.3c0.7,0.3,1.5,1,1.5,2.5
			C15.2,34.3,13.8,35.4,11.8,35.4z M11.4,26.4H9.3v2.5h2.1c0.9,0,1.5-0.5,1.5-1.3C12.9,26.9,12.4,26.4,11.4,26.4z M11.6,30.8H9.3
			v2.7h2.3c1,0,1.5-0.6,1.5-1.4C13,31.4,12.6,30.8,11.6,30.8z"/>
		<path class="st9" d="M21.9,31v4.5h-2.2V31l-3.4-6.4h2.4l2.1,4.4l2.1-4.4h2.4L21.9,31z"/>
		<path class="st9" d="M31.5,35.4h-4.7V24.5h4.5c2.2,0,3.5,1.2,3.5,3.1c0,1.2-0.8,2-1.4,2.3c0.7,0.3,1.5,1,1.5,2.5
			C35,34.3,33.6,35.4,31.5,35.4z M31.2,26.4H29v2.5h2.1c0.9,0,1.5-0.5,1.5-1.3C32.6,26.9,32.1,26.4,31.2,26.4z M31.3,30.8H29v2.7
			h2.3c1,0,1.5-0.6,1.5-1.4C32.8,31.4,32.3,30.8,31.3,30.8z"/>
		<path class="st9" d="M46.7,26.4v9h-2.2v-9h-2.9v-1.9h8.1v1.9H46.7z"/>
	</g>
</g>
<g id="Bkex" class="st0">
	<path class="st21" d="M48.7,56.7H8c-4.4,0-8-3.6-8-8V8c0-4.4,3.6-8,8-8h40.7c4.4,0,8,3.6,8,8v40.7C56.7,53.1,53.1,56.7,48.7,56.7z"
		/>
	<g class="st2">
		<g>
			<path class="st22" d="M13.3-0.4h30.1c7.3,0,13.3,6,13.3,13.4v30.4c0,7.4-6,13.4-13.3,13.4H13.3C6,56.8,0,50.8,0,43.4V13
				C0,5.7,6-0.4,13.3-0.4z"/>
		</g>
		<g>
			<path class="st23" d="M23.3-0.2l6.2,8.4c0.8,1.1,1.1,2.3,1,3.5c-0.2,1.2-0.7,2.4-1.6,3.5l-6.5,9.5c-0.5,0.8-1,1.7-1.3,2.6
				c-0.1,0.3-0.1,0.7-0.1,1.2c0,0.4,0,0.9,0.1,1.2c0.2,0.8,0.8,1.8,1.3,2.6l6.5,9.5c0.9,1.2,1.4,2.3,1.6,3.5c0.2,1.2-0.2,2.3-1,3.5
				l-6.2,8.4h6.5l6.4-9.1c2.7-3.9,1.4-6.7-1-9.9l-6.9-9.6l6.9-9.6c2.4-3.2,3.7-6,1-9.9l-6.4-9.1H23.3z"/>
		</g>
		<g>
			<path class="st23" d="M40,14.2l7.2,10.2c0.9,1.3,1.4,2.6,1.5,3.8c-0.1,1.2-0.6,2.4-1.5,3.8L40,42.3c-0.1-2.6-1.7-5.2-3.2-7.2
				l1.8-2.6l3-4.2l-3-4.2l-1.8-2.6C38.3,19.4,39.8,16.8,40,14.2z"/>
		</g>
	</g>
</g>
<g id="Bitrue" class="st0">
	<path class="st24" d="M48.7,56.7H8c-4.4,0-8-3.6-8-8V8c0-4.4,3.6-8,8-8h40.7c4.4,0,8,3.6,8,8v40.7C56.7,53.1,53.1,56.7,48.7,56.7z"
		/>
	<g id="Layer_11" class="st2">
		
			<linearGradient id="SVGID_2_" gradientUnits="userSpaceOnUse" x1="-255.2305" y1="-138.3906" x2="-255.2305" y2="-136.9733" gradientTransform="matrix(26.25 0 0 30 6728.1465 4158.8042)">
			<stop  offset="0" style="stop-color:#FEE276"/>
			<stop  offset="1" style="stop-color:#F0B735"/>
		</linearGradient>
		<path class="st25" d="M40.8,35.5V14.3l6.2,3.5v21.2l-11.4,6.5L29.4,42L40.8,35.5z M9.7,26.1l6.2-3.5v12.9l0,0l18.6,10.6l0,0
			l-6.2,3.5L9.7,39V26.1z M28.4,7.1L28.4,7.1l11.4,6.5v7.1l-11.4-6.5l0,0l0,0L9.7,24.8l0,0v-7.1l0,0L28.4,7.1z M21.4,19.7l4.2-2.4
			v8.9c0.4-0.3,1.4-1.1,3-1.1c2,0,3.7,0.7,5.1,2.1c1.4,1.4,2.1,3.1,2.1,5s-0.7,3.6-2.1,5c-1.4,1.4-3.1,2.1-5.1,2.1s-3.7-0.7-5.1-2.1
			c-1.4-1.4-2.1-3.1-2.1-5V19.7z M26.5,34.3c0.6,0.6,1.3,0.9,2.1,0.9c0.8,0,1.5-0.3,2.1-0.9c0.6-0.5,0.9-1.3,0.9-2.1
			c0-0.8-0.3-1.5-0.9-2.1c-0.5-0.5-1.3-0.9-2.1-0.9c-0.8,0-1.5,0.3-2.1,0.9c-0.6,0.5-0.9,1.3-0.9,2.1C25.6,33,25.9,33.7,26.5,34.3z"
			/>
	</g>
</g>
<g id="Kucoin" class="st0">
	<path class="st26" d="M48.7,56.7H8c-4.4,0-8-3.6-8-8V8c0-4.4,3.6-8,8-8h40.7c4.4,0,8,3.6,8,8v40.7C56.7,53.1,53.1,56.7,48.7,56.7z"
		/>
	<g id="Layer_13" class="st2">
		<path id="形状_1_" class="st23" d="M21.2,28.4l12.6,12.6l7.9-7.9c1.4-1.3,3.6-1.2,4.9,0.1c1.4,1.4,1.4,3.5,0.1,4.9L36.3,48.6
			c-1.4,1.4-3.7,1.4-5.1,0L16.1,33.4v9c0,2-1.6,3.6-3.6,3.6s-3.6-1.6-3.6-3.6V14.3c0-2,1.6-3.6,3.6-3.6s3.6,1.6,3.6,3.6v9L31.3,8.1
			c1.4-1.4,3.7-1.4,5.1,0l10.5,10.5c1.3,1.4,1.2,3.6-0.1,4.9c-1.4,1.4-3.5,1.4-4.9,0.1l-7.9-7.9L21.2,28.4z M33.8,24.8L33.8,24.8
			c-1.5,0-2.8,0.9-3.3,2.2c-0.6,1.3-0.3,2.9,0.8,3.9c1,1,2.6,1.3,3.9,0.8c1.3-0.6,2.2-1.9,2.2-3.3c0-1-0.4-1.9-1.1-2.5
			C35.7,25.1,34.8,24.7,33.8,24.8L33.8,24.8z"/>
	</g>
</g>
<g id="Gate.io" class="st0">
	<path class="st27" d="M48.7,56.7H8c-4.4,0-8-3.6-8-8V8c0-4.4,3.6-8,8-8h40.7c4.4,0,8,3.6,8,8v40.7C56.7,53.1,53.1,56.7,48.7,56.7z"
		/>
	<g class="st2">
		<path class="st23" d="M28.3,40c-6.5,0-11.7-5.2-11.7-11.7c0-6.4,5.2-11.7,11.7-11.7V7.1c-11.7,0-21.3,9.5-21.3,21.2
			s9.5,21.2,21.3,21.2c11.7,0,21.3-9.5,21.3-21.2H40C40,34.8,34.8,40,28.3,40z"/>
		<path class="st28" d="M28.3,28.3H40V16.7H28.3V28.3z"/>
	</g>
</g>
<g id="Bitfinex" class="st0">
	<path class="st29" d="M48.7,56.7H8c-4.4,0-8-3.6-8-8V8c0-4.4,3.6-8,8-8h40.7c4.4,0,8,3.6,8,8v40.7C56.7,53.1,53.1,56.7,48.7,56.7z"
		/>
	<g class="st2">
		<path class="st30" d="M7.1,34.8c-0.4-6,2.2-12.7,7.4-17.9c11.3-11.3,34.9-9.7,35-9.7c-0.1,0.1-17.3,25.1-37.7,27.4
			C10.2,34.8,8.7,34.8,7.1,34.8z"/>
		<path class="st30" d="M9.5,42.5c0.6,0.9,1.3,1.8,2.1,2.6c7,7,19.6,5.7,28.2-2.9c11.4-11.4,9.7-35,9.7-35C49.5,7.3,37.1,35,17.5,41
			C14.8,41.9,12.1,42.3,9.5,42.5L9.5,42.5z"/>
	</g>
</g>
<g id="Mercatox" class="st0">
	<path class="st31" d="M48.7,56.7H8c-4.4,0-8-3.6-8-8V8c0-4.4,3.6-8,8-8h40.7c4.4,0,8,3.6,8,8v40.7C56.7,53.1,53.1,56.7,48.7,56.7z"
		/>
	<g class="st2">
		<path class="st32" d="M7.1,10.5c3,0,6-0.1,9,0.1c1.5,1.4,2.9,2.9,4.2,4.4c2.7,2.8,5.4,5.7,8.1,8.5c1.3,1.7,2.9,3.2,4.4,4.8
			c-1.5,1.6-3.1,3.1-4.4,4.8c-0.1,0.1-0.2,0.3-0.3,0.4c-1.8,2-3.7,3.8-5.5,5.9c-2.2,2.2-4.3,4.5-6.4,6.8c-3,0-6,0-8.9,0
			c0.4-0.7,0.9-1.3,1.4-1.8c1.1-1.1,2.1-2.3,3.2-3.3c2.9-3.1,12-12.6,12-12.9c-0.4-0.4-7.6-8-8.2-8.6c-1-1-2-2.2-3-3.2
			c-1.3-1.5-2.7-2.8-4.1-4.3C8,11.6,7.6,11,7.1,10.5z"/>
		<path class="st9" d="M40.5,10.5c3,0,6,0,9.1,0c-0.3,0.4-0.6,0.7-0.9,1.1c-0.5,0.5-1.1,1-1.5,1.6h-0.1c-1.4,1.5-9.8,10.4-10.1,10.7
			c0,0-2.8,2.9-4.1,4.3c0.5,0.6,3,3.3,3.2,3.5c0.6,0.6,3.2,3.4,3.5,3.7c0.7,0.8,1.5,1.5,2.2,2.3c0.5,0.5,2.6,2.7,3,3.2
			c0.5,0.5,4.4,4.8,4.7,5.2c-2.7,0-5.4,0-8.1,0c-0.4,0.1-0.9-0.1-1.3-0.4c-0.7-0.9-8.2-8.8-8.4-9c0,0-1.7-1.9-1.9-2.1
			c-0.5-0.5-1.1-1.1-1.5-1.6c1.3-1.7,2.9-3.2,4.4-4.8c-1.5-1.6-3.1-3.1-4.4-4.8c0.5-0.5,11.4-12.1,11.4-12.1
			c0.2-0.2,0.4-0.5,0.7-0.7L40.5,10.5L40.5,10.5z"/>
	</g>
</g>
<g id="Bittrex" class="st0">
	<path class="st33" d="M48.7,56.7H8c-4.4,0-8-3.6-8-8V8c0-4.4,3.6-8,8-8h40.7c4.4,0,8,3.6,8,8v40.7C56.7,53.1,53.1,56.7,48.7,56.7z"
		/>
	<path class="st34" d="M49.6,37.3V7.1H19.4V16h5.5v-3.4h19.2v19.2h-6.8V19.4H7.1v30.2h30.2v-8.9h-5.5v3.4H12.6V24.9h6.8v12.3H49.6z
		 M31.8,31.8h-6.8v-6.8h6.8V31.8z"/>
</g>
<g id="Bitmart" class="st0">
	<path class="st35" d="M48.7,56.7H8c-4.4,0-8-3.6-8-8V8c0-4.4,3.6-8,8-8h40.7c4.4,0,8,3.6,8,8v40.7C56.7,53.1,53.1,56.7,48.7,56.7z"
		/>
	<path class="st36" d="M11,47.9h2.5v1.6H11V47.9z M42.7,36.8c0,2.1-1,3.7-2.6,4.6c-1.5,0.8-3.7,1.3-7.3,1.3H10.7v-1.1h22
		c3.4,0,5.6-0.5,6.7-1.1c1.2-0.7,2-2.3,2-3.6c0-2.1-1.4-3.2-2.5-3.9c-0.5-0.3-2.4-1.1-7.1-1.1h-8.4v-1.1h8.6c5.4,0,6.5,0.5,7.8,1.3
		C41.3,32.9,42.7,34.4,42.7,36.8z M33,20.2h-7.7v0.9H33V20.2z M17.3,17.5h15.9v0.9H17.3V17.5z M22.9,20.2h-9.6v0.9h9.6L22.9,20.2
		L22.9,20.2z M16.2,14.1h4.2v0.8h-4.2V14.1z M23.7,44.8H13.5v1.1h10.1L23.7,44.8L23.7,44.8z M13.5,37.7h10.8v0.9H13.5V37.7z
		 M19.3,34.4h-3.5v0.9h3.5V34.4z M26.3,37.8h7v0.8h-7V37.8z M33.3,34.4h-12v0.9h12V34.4z M41.9,20.3c0,2.1-0.6,4.1-1.8,5.8
		c-0.1-0.1-0.3-0.2-0.4-0.2C41.1,24.3,41.9,22.4,41.9,20.3z M41.9,20.1c0,0.1,0,0.1,0,0.2C41.9,20.2,41.9,20.2,41.9,20.1z
		 M41.6,27.1L41.6,27.1L41.6,27.1c1.3-2,1.9-4.3,1.9-7c0-4.1-1.4-7.2-4.2-9.6c-2.8-2.3-6.6-3.5-11.5-3.5H15.7v1.7h12
		c4.2,0,7.9,0.9,10.2,2.8c2.2,1.8,3,3.3,3.6,5.6c-0.7-2.1-2.2-3.4-3.1-4.2c-1.7-1.4-3.7-2.4-9.4-2.4h-9.4v1.7h9.2
		c4.8,0,6.6,0.6,8.2,1.8c2.1,1.5,3.4,3.4,3.4,6c0,2.4-0.8,3.7-2.2,5c-0.2-0.1-0.3-0.1-0.5-0.2l0.2-0.1c1.5-0.8,2.6-2.5,2.6-4.7
		c0-2.5-1.4-4-2.8-4.9c-1.3-0.8-2.5-1.4-7.8-1.4h-6.8v1.1h6.6c4.8,0,6.6,0.9,7.1,1.2c1.1,0.7,2.5,1.8,2.5,4c0,1.4-0.8,3.1-2,3.8
		c-0.4,0.2-0.8,0.4-1.2,0.5c-1.8-0.4-3.7-0.6-5.5-0.6h-8.1v1.7h7.9c4.2,0,7.9,0.9,10.2,2.8c1.7,1.5,3,3.4,3.6,5.6
		c-0.6-2.1-2-3.4-3.1-4.2c-1.7-1.3-3.7-2.4-9.4-2.4H18.6V29h12.6c4.8,0,6.6,0.6,8.2,1.8c2.1,1.5,3.3,3.4,3.3,6c0,2.6-1.3,4.4-3.4,6
		c-2.1,1.6-5.4,1.6-6.7,1.6h-7v1.7h5.2c4.4,0,7.3-0.4,9.8-2.2c2.4-1.8,3.6-4,3.6-7c0,1.6-0.3,3.1-1,4.6c-0.7,1.4-1.7,2.7-2.9,3.7
		c-2.4,2-6.7,2.8-10.9,2.8H15.8v1.7h13.8c5.2,0,9.2-1.1,12.1-3.4c2.9-2.2,4.3-5.4,4.3-9.4c0-4.1-1.4-7.3-4.2-9.6
		C41.7,27.2,41.7,27.2,41.6,27.1z"/>
	<path class="st37" d="M11,47.9h2.5v1.6H11V47.9z M42.7,36.8c0,2.1-1,3.7-2.6,4.6c-1.5,0.8-3.7,1.3-7.3,1.3H10.7v-1.1h22
		c3.4,0,5.6-0.5,6.7-1.1c1.2-0.7,2-2.3,2-3.6c0-2.1-1.4-3.2-2.5-3.9c-0.5-0.3-2.4-1.1-7.1-1.1h-8.4v-1.1h8.6c5.4,0,6.5,0.5,7.8,1.3
		C41.3,32.9,42.7,34.4,42.7,36.8z M33,20.2h-7.7v0.9H33V20.2z M17.3,17.5h15.9v0.9H17.3V17.5z M22.9,20.2h-9.6v0.9h9.6L22.9,20.2
		L22.9,20.2z M16.2,14.1h4.2v0.8h-4.2V14.1z M23.7,44.8H13.5v1.1h10.1L23.7,44.8L23.7,44.8z M13.5,37.7h10.8v0.9H13.5V37.7z
		 M19.3,34.4h-3.5v0.9h3.5V34.4z M26.3,37.8h7v0.8h-7V37.8z M33.3,34.4h-12v0.9h12V34.4z M41.9,20.3c0,2.1-0.6,4.1-1.8,5.8
		c-0.1-0.1-0.3-0.2-0.4-0.2C41.1,24.3,41.9,22.4,41.9,20.3z M41.9,20.1c0,0.1,0,0.1,0,0.2C41.9,20.2,41.9,20.2,41.9,20.1z
		 M41.6,27.1L41.6,27.1L41.6,27.1c1.3-2,1.9-4.3,1.9-7c0-4.1-1.4-7.2-4.2-9.6c-2.8-2.3-6.6-3.5-11.5-3.5H15.7v1.7h12
		c4.2,0,7.9,0.9,10.2,2.8c2.2,1.8,3,3.3,3.6,5.6c-0.7-2.1-2.2-3.4-3.1-4.2c-1.7-1.4-3.7-2.4-9.4-2.4h-9.4v1.7h9.2
		c4.8,0,6.6,0.6,8.2,1.8c2.1,1.5,3.4,3.4,3.4,6c0,2.4-0.8,3.7-2.2,5c-0.2-0.1-0.3-0.1-0.5-0.2l0.2-0.1c1.5-0.8,2.6-2.5,2.6-4.7
		c0-2.5-1.4-4-2.8-4.9c-1.3-0.8-2.5-1.4-7.8-1.4h-6.8v1.1h6.6c4.8,0,6.6,0.9,7.1,1.2c1.1,0.7,2.5,1.8,2.5,4c0,1.4-0.8,3.1-2,3.8
		c-0.4,0.2-0.8,0.4-1.2,0.5c-1.8-0.4-3.7-0.6-5.5-0.6h-8.1v1.7h7.9c4.2,0,7.9,0.9,10.2,2.8c1.7,1.5,3,3.4,3.6,5.6
		c-0.6-2.1-2-3.4-3.1-4.2c-1.7-1.3-3.7-2.4-9.4-2.4H18.6V29h12.6c4.8,0,6.6,0.6,8.2,1.8c2.1,1.5,3.3,3.4,3.3,6c0,2.6-1.3,4.4-3.4,6
		c-2.1,1.6-5.4,1.6-6.7,1.6h-7v1.7h5.2c4.4,0,7.3-0.4,9.8-2.2c2.4-1.8,3.6-4,3.6-7c0,1.6-0.3,3.1-1,4.6c-0.7,1.4-1.7,2.7-2.9,3.7
		c-2.4,2-6.7,2.8-10.9,2.8H15.8v1.7h13.8c5.2,0,9.2-1.1,12.1-3.4c2.9-2.2,4.3-5.4,4.3-9.4c0-4.1-1.4-7.3-4.2-9.6
		C41.7,27.2,41.7,27.2,41.6,27.1z"/>
</g>
<g id="CoinW" class="st0">
	<path class="st38" d="M48.7,56.7H8c-4.4,0-8-3.6-8-8V8c0-4.4,3.6-8,8-8h40.7c4.4,0,8,3.6,8,8v40.7C56.7,53.1,53.1,56.7,48.7,56.7z"
		/>
	<g id="_1930556339296" class="st2">
		<path id="Fill-1" class="st39" d="M39.7,19.7l2.5,2.5L37,27.4l-7.6-7.5l-7.6,7.5l-11.1-11c-5.6,8.3-4.8,19.7,2.5,27
			c4.2,4.2,9.6,6.2,15.1,6.2c4.9,0,9.8-1.7,13.8-5l-4.8-4.7c-5.7,4.4-14.1,4.1-19.3-1.2c-2.7-2.7-4.2-6.3-4.2-9.8l8.1,8l7.6-7.5
			l7.6,7.5l10-9.8l2.6,2.6v-9.9H39.7L39.7,19.7z"/>
		<path id="Fill-3" class="st39" d="M42.1,12.1c-8.2-6.9-20.3-6.7-28.2,0.7l4.8,4.7c2.8-2.5,6.2-3.7,9.7-3.7c3.2,0,6.3,1,9,3
			L42.1,12.1L42.1,12.1z"/>
	</g>
</g>
<g id="Digifinex" class="st0">
	<path class="st40" d="M48.7,56.7H8c-4.4,0-8-3.6-8-8V8c0-4.4,3.6-8,8-8h40.7c4.4,0,8,3.6,8,8v40.7C56.7,53.1,53.1,56.7,48.7,56.7z"
		/>
	<g class="st2">
		<path class="st9" d="M49.6,24c0,1.8-0.3,3.5-0.5,5.3c-2.3,12.1-9.2,18.2-20.9,18.2h-7.3v-0.1l1.8-8.4h5.1
			c6.3,0,10.1-3.5,11.4-10.8c0.1-0.5,0.1-0.9,0.3-1.4l10.1-5.8C49.5,22,49.6,23,49.6,24z M45.9,13.5l-9,5.2
			c-1.5-0.9-3.3-1.4-5.2-1.3H17.1v-0.3l1.8-8.1H34c1.9,0,3.9,0.3,5.7,0.8c2.2,0.6,4.2,1.6,5.7,3.2C45.7,13.2,45.8,13.3,45.9,13.5z"
			/>
		<path class="st41" d="M31.5,24.7L30.1,33h-6.2l-3,14.3v0.1H7.1l5.2-7l3.4-15.8H31.5z"/>
	</g>
</g>
<g id="FMFW" class="st0">
	<path class="st42" d="M48.7,56.7H8c-4.4,0-8-3.6-8-8V8c0-4.4,3.6-8,8-8h40.7c4.4,0,8,3.6,8,8v40.7C56.7,53.1,53.1,56.7,48.7,56.7z"
		/>
	<g id="Layer_2_1_" class="st2">
		<g id="Layer_2-2">
			<g id="main">
				<path class="st43" d="M13.6,33.1c-1.8,3-0.9,6.9,2.1,8.8c3,1.8,6.9,0.9,8.8-2.1c0,0,0.1-0.1,0.1-0.1l0.5-0.9l-1.9-1.1l-0.5,0.9
					c-1.2,1.9-3.8,2.5-5.7,1.3c-1.9-1.2-2.5-3.6-1.4-5.5l4.9-8.3l-0.6-1.1c-2.5-4.7-0.7-10.6,4-13.1c4.6-2.4,10.3-0.8,12.9,3.7
					l3.2,5.7l1.3-2.2l-2.5-4.6C35.4,8.7,28.1,6.7,22.4,10c-5.6,3.2-7.6,10.3-4.6,15.9L13.6,33.1z"/>
				<path class="st43" d="M37.7,42.6c3.5,0,6.3-2.8,6.3-6.3c0-3.5-2.8-6.3-6.3-6.3h-1v2.2h1c2.3,0,4.1,1.8,4.1,4.1
					c0,2.3-1.8,4.1-4.1,4.1h-9.8l-0.6,1c-2.8,4.6-8.7,6.1-13.3,3.3c-2.2-1.3-3.8-3.5-4.4-6c-0.6-2.5-0.2-5.1,1.1-7.3l3.3-5.6l-2.5,0
					l-2.7,4.5c-3.4,5.6-1.6,12.9,4,16.3c5.6,3.4,12.9,1.6,16.3-4l0,0H37.7z"/>
				<path class="st43" d="M37.9,24.3l-4-7.2c-1.6-3.1-5.4-4.3-8.6-2.7s-4.3,5.4-2.7,8.6c0.1,0.1,0.1,0.2,0.2,0.4l0.5,0.9l1.9-1.1
					l-0.5-0.9c-1-2-0.2-4.5,1.8-5.6c1.9-1,4.3-0.3,5.4,1.6l4.6,8.3h1c5.4,0,9.7,4.4,9.7,9.7c0,5.4-4.4,9.7-9.7,9.7h-6.5l1.2,2.2h5.3
					c6.6,0,12-5.3,12-11.9C49.6,29.8,44.4,24.4,37.9,24.3L37.9,24.3z"/>
			</g>
		</g>
	</g>
</g>
<g id="hitbtc" class="st0">
	<path class="st44" d="M48.7,56.7H8c-4.4,0-8-3.6-8-8V8c0-4.4,3.6-8,8-8h40.7c4.4,0,8,3.6,8,8v40.7C56.7,53.1,53.1,56.7,48.7,56.7z"
		/>
	<g id="Layer_24" class="st2">
		<g>
			<polygon class="st45" points="22.5,16.7 20.5,24.6 7.1,26.3 			"/>
			<polygon class="st46" points="29.4,34.1 25.1,32.2 26.1,48.3 			"/>
			<polygon class="st47" points="20.5,24.6 16.9,32 7.1,26.3 			"/>
			<polygon class="st48" points="25.1,32.2 16.9,32 26.1,48.3 			"/>
			<polygon class="st49" points="20.5,24.6 25.1,32.2 16.9,32 			"/>
			<polygon class="st50" points="22.5,16.7 33.6,18.2 20.5,24.6 			"/>
			<polygon class="st50" points="45.7,13.2 38.7,21.5 39.2,13.8 			"/>
			<polygon class="st50" points="45.7,13.2 49.6,8.4 48.8,13.6 			"/>
			<polygon class="st51" points="42,17.5 48.8,13.6 45.7,13.2 			"/>
			<polygon class="st48" points="29.4,34.1 29.8,24.5 25.1,32.2 			"/>
			<polygon class="st52" points="29.8,24.5 25.1,32.2 20.5,24.6 			"/>
			<polygon class="st45" points="33.6,18.2 29.8,24.5 20.5,24.6 			"/>
			<polyline class="st53" points="29.8,24.5 29.4,34.1 38,43 29.8,24.5 			"/>
			<polygon class="st54" points="42.4,38 37.9,26.6 38,43 			"/>
			<polygon class="st54" points="38.7,21.5 37.9,26.6 29.8,24.5 			"/>
			<polygon class="st55" points="42.9,28.4 37.9,26.6 38.7,21.5 			"/>
			<polygon class="st50" points="44.6,37.7 39.2,28.8 42.3,28.8 			"/>
			<polygon class="st45" points="34.6,16.3 38.7,21.5 39.2,13.8 			"/>
			<polygon class="st52" points="37.9,26.6 29.8,24.5 38,43 			"/>
			<polygon class="st48" points="42.4,38 44.2,39 38,43 			"/>
			<polygon class="st45" points="44.6,37.6 37.9,26.6 42.4,38 			"/>
			<polygon class="st50" points="34.6,16.3 29.8,24.5 38.7,21.5 			"/>
		</g>
	</g>
</g>
<g id="Indodax" class="st0">
	<path class="st56" d="M48.7,56.7H8c-4.4,0-8-3.6-8-8V8c0-4.4,3.6-8,8-8h40.7c4.4,0,8,3.6,8,8v40.7C56.7,53.1,53.1,56.7,48.7,56.7z"
		/>
	<g class="st2">
		<path class="st9" d="M16.5,18.3c0-1.2-0.9-2.1-1.9-2.1s-1.9,0.9-1.9,1.9c0,1.2,0.9,2.1,2.1,1.9l5.8,5.8h10.4l11.5-11.2l3.5,3.5
			L33.2,30.5l7.2,7.5v0.1c0,1,0.9,1.9,1.9,1.9c1,0,1.9-0.9,1.9-1.9c0-1-0.9-1.9-1.9-1.9l-5.2-5.5l12.4-12.5l-7.1-7.1L29.9,23.7H22
			L16.5,18.3z"/>
		<path class="st9" d="M24.1,26.9l-9.3,9.3h-0.1c-1,0-1.9,0.9-1.9,1.9c0,1,0.9,1.9,1.9,1.9s1.9-0.9,1.9-1.9l8.6-8.6h7.5l9.7-9.3
			c1,0,1.9-0.9,1.9-1.9s-0.9-1.9-1.9-1.9c-1,0-1.9,0.9-1.9,1.9v0.1l-8.9,8.5"/>
		<path class="st9" d="M42.6,30.8c0-1-0.9-1.9-1.9-1.9c-1,0-1.9,0.9-1.9,1.9c0,1,0.8,1.8,1.7,1.9l5.3,5.5l-3.5,3.5L31.6,30.5h-6.1
			L14.4,41.7L11,38.3l11.6-11.3h-2.8L11,18.2l3.4-3.4l6.3,6.4c0,1,0.9,1.8,1.9,1.8c1,0,1.9-0.9,1.9-1.9c0-1-0.9-1.9-1.9-1.9h-0.3
			l-8-8.1l-7.2,7.2l10,10.1l-10,10.1l7.2,7.2l12.5-12.5h3.3l12,12.5l7-7.1l-6.4-7.3V30.8z"/>
	</g>
</g>
<g id="buyucoin" class="st0">
	<path class="st57" d="M48.7,56.7H8c-4.4,0-8-3.6-8-8V8c0-4.4,3.6-8,8-8h40.7c4.4,0,8,3.6,8,8v40.7C56.7,53.1,53.1,56.7,48.7,56.7z"
		/>
	<g id="svg_2" class="st2">
		<path id="svg_3" class="st9" d="M28.3,7.1c-10.6,0-19.3,8.6-19.3,19.3c0,5.6,2.4,10.6,6.1,14.1c0.2,0.3,0.6,0.5,1,0.5
			c0.5,0,1-0.4,1.2-0.8c0,0,0,0,0,0c0.6-1.3,1.4-2.4,2.4-3.4c2.3-2.3,5.4-3.5,8.6-3.5s6.3,1.3,8.6,3.5c0.9,0.9,1.7,2,2.3,3.2
			c0.1,0.1,0.1,0.2,0.2,0.3c0,0,0,0,0,0c0.2,0.4,0.6,0.6,1.1,0.6c0.3,0,0.6-0.1,0.8-0.3c0,0,0,0,0,0c3.9-3.5,6.3-8.6,6.3-14.2
			C47.6,15.7,39,7.1,28.3,7.1L28.3,7.1z M28.6,32.4c-3.6,0-6.6-3-6.6-6.6s3-6.6,6.6-6.6s6.6,3,6.6,6.6S32.2,32.4,28.6,32.4
			L28.6,32.4z"/>
		<circle id="svg_4" class="st9" cx="28.6" cy="43.1" r="6.5"/>
	</g>
</g>
<g id="liquid" class="st0">
	<path class="st58" d="M48.7,56.7H8c-4.4,0-8-3.6-8-8V8c0-4.4,3.6-8,8-8h40.7c4.4,0,8,3.6,8,8v40.7C56.7,53.1,53.1,56.7,48.7,56.7z"
		/>
	<g class="st2">
		<path id="Path_4_" class="st59" d="M20.6,7.1c-0.8,0-1.5,0.7-1.5,1.5v6.3c0,1.2,1,2.2,2.2,2.2h4.5c1.2,0,2.2,1,2.2,2.2v7
			c0,1.2,1,2.2,2.2,2.2h6.8c1.2,0,2.2,1,2.2,2.2v4.5c0,1.2,1,2.2,2.2,2.2h6.3c0.8,0,1.5-0.7,1.5-1.5V8.5c0-0.8-0.7-1.5-1.5-1.5H20.6
			z"/>
		<path id="Path_5_" class="st59" d="M19.1,36.1V21.9c0-1.2-1-2.2-2.2-2.2H8.8c-0.8,0-1.5,0.7-1.5,1.5v27c0,0.8,0.7,1.5,1.5,1.5
			h27.6c0.8,0,1.5-0.7,1.5-1.5v-7.4c0-1.2-1-2.2-2.2-2.2H21.4C20.1,38.5,19.1,37.5,19.1,36.1L19.1,36.1z"/>
	</g>
</g>
<g id="simpleswap" class="st0">
	<path class="st60" d="M48.7,56.7H8c-4.4,0-8-3.6-8-8V8c0-4.4,3.6-8,8-8h40.7c4.4,0,8,3.6,8,8v40.7C56.7,53.1,53.1,56.7,48.7,56.7z"
		/>
	<g class="st2">
		<path class="st61" d="M17.8,38.9c0,0.1-0.1,0.1-0.1,0.2c-0.4,0.9-0.6,1.9-0.6,2.9c0,1,0.2,2,0.6,2.9c0.4,0.9,1,1.8,1.7,2.5
			c0.7,0.7,1.6,1.3,2.5,1.6s1.9,0.6,2.9,0.6c1,0,2-0.2,2.9-0.6s1.8-0.9,2.5-1.6l14.1-13.9c1.5-1.4,2.3-3.4,2.3-5.5
			c0-1.8-0.6-3.6-1.8-5c-0.6-0.3-1.3-0.3-2-0.2c-0.6,0.1-1.1,0.5-1.6,0.9L27.8,37.2c-0.2,0.3-0.5,0.5-0.8,0.6
			c0.2-0.1,0.3-0.2,0.5-0.3c0,0,0,0,0,0c0,0,0,0,0,0c0,0,0,0,0,0c0,0-0.1,0-0.1,0.1c-2,1.3-4.5,2-6.9,1.9
			C19.5,39.4,18.6,39.2,17.8,38.9z"/>
		<path class="st62" d="M27.4,37.5C27.4,37.5,27.4,37.5,27.4,37.5c-0.4,0.2-1,0.2-1.5,0.2c-0.6-0.1-1.1-0.3-1.5-0.6
			c-0.4-0.3-0.7-0.6-1-1.1c-0.2-0.4-0.4-0.9-0.4-1.4c0-0.5,0-1,0.2-1.4c0.2-0.5,0.4-0.9,0.8-1.2l4.5-4.4l6.5-6.4c0,0,0,0,0,0
			c0,0,0,0,0.1,0l1-1c0.5-0.1,1-0.1,1.5-0.1c1.1,0,2.1,0.1,3.1,0.4c1.4,0.3,2.7,1,3.7,2c0.2,0.2,0.4,0.4,0.5,0.6
			c-0.6-0.3-1.3-0.4-2-0.2c-0.6,0.1-1.1,0.5-1.6,0.9L27.8,37.2c-0.2,0.3-0.5,0.5-0.8,0.6C27.1,37.7,27.2,37.6,27.4,37.5
			C27.4,37.5,27.4,37.5,27.4,37.5z"/>
		<path class="st63" d="M38.2,11.7c-0.4-0.9-0.9-1.6-1.5-2.3C35.9,8.7,35,8.1,34,7.7c-1-0.4-2.1-0.6-3.2-0.6c-1.1,0-2.2,0.2-3.2,0.6
			c-1,0.4-1.9,1-2.7,1.8L13.4,20.9c-2,2-3.2,4.7-3.3,7.6c0,2.8,1,5.6,3,7.7l0.1,0.1l0.1,0.1c0.1,0.1,0.2,0.2,0.4,0.3
			c1.9,1.6,4.2,2.6,6.7,2.7c2.5,0.1,4.9-0.5,7-1.9c-0.5,0.2-1.1,0.3-1.6,0.2c-0.6-0.1-1.1-0.3-1.5-0.6c-0.4-0.3-0.7-0.6-1-1.1
			c-0.2-0.4-0.4-0.9-0.4-1.4c0-0.5,0-1,0.2-1.4c0.2-0.5,0.4-0.9,0.8-1.2l4.5-4.4l6.5-6.4c0,0,0.1,0,0.1-0.1l1.8-1.7
			c1-1,1.7-2.2,1.9-3.6C38.9,14.4,38.7,13,38.2,11.7L38.2,11.7z"/>
	</g>
</g>
<g id="coinspot" class="st0">
	<path class="st64" d="M48.7,56.7H8c-4.4,0-8-3.6-8-8V8c0-4.4,3.6-8,8-8h40.7c4.4,0,8,3.6,8,8v40.7C56.7,53.1,53.1,56.7,48.7,56.7z"
		/>
	<g class="st2">
		<path class="st65" d="M27.4,49.5c0.1,0,0.1,0,0.3,0s0.3,0,0.3,0H27.4z"/>
		<path class="st66" d="M28.7,49.5h0.1l0,0l0,0l0,0l0,0l0,0H28.7C28.6,49.5,28.7,49.5,28.7,49.5z"/>
		<path class="st67" d="M28.7,49.5L28.7,49.5h-0.3C28.6,49.5,28.6,49.5,28.7,49.5z"/>
		<path class="st68" d="M29,49.5L29,49.5L29,49.5L29,49.5L29,49.5z"/>
		<path class="st65" d="M27,49.5c0.1,0,0.1,0,0.3,0H27z"/>
		<path class="st69" d="M26.7,49.5C26.7,49.5,26.8,49.5,26.7,49.5c0.1,0,0.1,0,0.3,0H26.7z"/>
		<path class="st70" d="M26.2,49.5L26.2,49.5c0.1,0,0.1,0,0.1,0H26.2z"/>
		<path class="st71" d="M26.4,49.5C26.5,49.5,26.5,49.5,26.4,49.5c0.1,0,0.1,0,0.1,0H26.4z"/>
		<path class="st72" d="M25.8,49.3L25.8,49.3C25.9,49.3,25.9,49.3,25.8,49.3L25.8,49.3z"/>
		<path class="st73" d="M25.9,49.5C25.9,49.3,26.1,49.3,25.9,49.5C26.1,49.3,26.1,49.3,25.9,49.5L25.9,49.5z"/>
		<path class="st73" d="M25.5,49.3L25.5,49.3L25.5,49.3L25.5,49.3z"/>
		<path class="st74" d="M25.7,49.3L25.7,49.3L25.7,49.3L25.7,49.3C25.8,49.3,25.8,49.3,25.7,49.3L25.7,49.3z"/>
		
			<linearGradient id="SVGID_3_" gradientUnits="userSpaceOnUse" x1="38.3397" y1="2481.5496" x2="18.4971" y2="2505.7471" gradientTransform="matrix(1 0 0 1 0 -2465.3999)">
			<stop  offset="0" style="stop-color:#0E1036"/>
			<stop  offset="1" style="stop-color:#21235D"/>
		</linearGradient>
		<path class="st75" d="M28.3,7.1c-5.7,0-10.9,2.3-15,6.3c-3.9,3.9-6.1,9.3-6.1,15c0,2.5,0.4,5,1.3,7.4c0.4,0,0.7,0,1.2,0
			c4.2,0,8.4,1.3,11.9,3.8c3.5,2.5,6.1,6,7.4,10c5.5-0.1,10.8-2.5,14.6-6.4c3.8-3.9,6-9.3,6-14.7c0-5.7-2.2-11.1-6.3-15
			C39.3,9.4,34,7.1,28.3,7.1"/>
		<path class="st9" d="M36.6,39.3L36.6,39.3L36.6,39.3c0,0.6,0.1,1.2,0.4,1.5c0.3,0.3,0.9,0.4,1.5,0.4l0,0l0,0l0,0l0,0l0,0l0,0
			c-0.6,0-1,0.1-1.5,0.4c-0.3,0.3-0.4,0.9-0.4,1.5l0,0l0,0l0,0l0,0l0,0l0,0c0-0.6-0.1-1-0.4-1.5c-0.3-0.3-0.9-0.4-1.5-0.4l0,0l0,0
			l0,0l0,0l0,0l0,0c0.6,0,1-0.1,1.5-0.4C36.6,40.4,36.6,39.9,36.6,39.3L36.6,39.3L36.6,39.3z"/>
		<path class="st9" d="M16.5,29.1L16.5,29.1L16.5,29.1c0,0.6,0.1,1.2,0.4,1.5c0.3,0.3,0.9,0.4,1.5,0.4l0,0l0,0l0,0l0,0l0,0l0,0
			c-0.6,0-1,0.1-1.5,0.4c-0.3,0.3-0.4,0.9-0.4,1.5l0,0l0,0l0,0l0,0l0,0l0,0c0-0.6-0.1-1-0.4-1.5c-0.3-0.3-0.9-0.4-1.5-0.4l0,0l0,0
			l0,0l0,0l0,0l0,0c0.6,0,1-0.1,1.5-0.4C16.3,30.1,16.5,29.7,16.5,29.1L16.5,29.1L16.5,29.1z"/>
		<path class="st9" d="M21.9,12.5L21.9,12.5C22,12.5,22,12.5,21.9,12.5c0,0.4,0.1,0.7,0.4,1c0.3,0.3,0.6,0.4,1,0.3l0,0l0,0l0,0l0,0
			l0,0l0,0c-0.4,0-0.7,0.1-1,0.3c-0.3,0.3-0.4,0.6-0.3,1l0,0l0,0l0,0l0,0l0,0l0,0c0-0.4-0.1-0.7-0.3-1c-0.4-0.1-0.7-0.3-1.2-0.1l0,0
			l0,0l0,0l0,0c0.4-0.1,0.7-0.1,1-0.4C21.9,13.2,22,12.8,21.9,12.5L21.9,12.5L21.9,12.5z"/>
		<path class="st76" d="M25.1,49.3L25.1,49.3L25.1,49.3L25.1,49.3L25.1,49.3L25.1,49.3z"/>
		<path class="st77" d="M25.4,49.3L25.4,49.3L25.4,49.3L25.4,49.3z"/>
		<path class="st78" d="M25.2,49.3L25.2,49.3L25.2,49.3L25.2,49.3z"/>
		
			<linearGradient id="SVGID_4_" gradientUnits="userSpaceOnUse" x1="34.4619" y1="2483.3049" x2="39.8636" y2="2486.8042" gradientTransform="matrix(1 0 0 1 0 -2465.3999)">
			<stop  offset="0" style="stop-color:#E5E5E5"/>
			<stop  offset="1" style="stop-color:#B7B9C2"/>
		</linearGradient>
		<path class="st79" d="M38.2,8.3c-2,1-4.4,2.8-6.4,6.1c-3.6,5.7-4.7,10.8-4.7,10.8l2.6,1.7l0.4,0.3l2.8,1.7c0,0,4.2-2.9,7.9-8.6
			c2.2-3.3,2.9-6.3,2.9-8.4c-1.2-0.1-2.2-0.6-3.2-1.2C39.6,10.1,38.8,9.3,38.2,8.3z"/>
		
			<linearGradient id="SVGID_5_" gradientUnits="userSpaceOnUse" x1="37.3873" y1="2498.8149" x2="34.1975" y2="2495.7554" gradientTransform="matrix(1 0 0 1 0 -2465.3999)">
			<stop  offset="0" style="stop-color:#EC5150"/>
			<stop  offset="1" style="stop-color:#A81F23"/>
		</linearGradient>
		<path class="st80" d="M36.7,31c1.3-2,0.4-4.7,0-5.5c-1,1.2-2.2,2.2-3.3,3.1c0.1,0.6,0.4,1.2,0.4,1.7c0,0.1,0,0.3-0.1,0.4
			c-0.6,0.9-1.2,1.9-1.6,2.9c-0.1,0.1-0.1,0.3-0.1,0.4c-0.1,0.3-0.1,0.4,0,0.7c0,0.4,0.3,0.7,0.4,1.2l0.1,0.1c0.1,0,0.1,0.1,0.3,0.1
			c0.1,0,0.1,0,0.3-0.1c0.1-0.1,0.4-0.3,0.6-0.6C34.8,34.2,35.3,33.4,36.7,31z"/>
		
			<linearGradient id="SVGID_6_" gradientUnits="userSpaceOnUse" x1="22.9319" y1="2497.7571" x2="28.0232" y2="2501.0552" gradientTransform="matrix(1 0 0 1 0 -2465.3999)">
			<stop  offset="0" style="stop-color:#F1A61E"/>
			<stop  offset="1" style="stop-color:#F3E23E"/>
		</linearGradient>
		<path class="st81" d="M28.4,29.4l-2.5-1.6C23,32.3,21.1,38,22.4,38.7c1.3,0.9,5.7-3.2,8.6-7.7L28.4,29.4z"/>
		
			<linearGradient id="SVGID_7_" gradientUnits="userSpaceOnUse" x1="-6380.6343" y1="1264.6082" x2="-6543.2842" y2="1233.4966" gradientTransform="matrix(1 0 0 1 0 -2465.3999)">
			<stop  offset="0" style="stop-color:#EC5150"/>
			<stop  offset="1" style="stop-color:#A81F23"/>
		</linearGradient>
		<path class="st82" d="M28.6,20.3c-1-0.1-3.6,0.1-5,2.2c-1.6,2.3-2.2,3.1-2.9,4.7c-0.1,0.3-0.1,0.4-0.3,0.7c0,0.1,0,0.1,0,0.3
			c0,0.1,0.1,0.1,0.1,0.1s0.1,0,0.3,0.1c0.4,0.1,0.9,0,1.2,0s0.4-0.1,0.6-0.3c0.1-0.1,0.3-0.3,0.4-0.4c0.7-0.9,1.3-1.7,1.9-2.6
			c0.1-0.1,0.3-0.3,0.4-0.3c0.6-0.1,1.2-0.1,1.7-0.3l0,0C27.5,23.1,28,21.6,28.6,20.3z"/>
		<path class="st83" d="M42.8,7.4c-0.3-0.1-2.2-0.3-4.7,1c0.6,1,1.5,1.7,2.3,2.5c1,0.6,2,1,3.2,1.2C43.9,9.3,43,7.5,42.8,7.4z"/>
		<path class="st83" d="M33.2,29.1L26.8,25c-0.1,0-0.1,0-0.3,0l-1.3,2c0,0.1,0,0.1,0,0.3l6.4,4.1c0.1,0,0.1,0,0.3,0l1.3-2
			C33.2,29.2,33.2,29.2,33.2,29.1z"/>
		
			<linearGradient id="SVGID_8_" gradientUnits="userSpaceOnUse" x1="28.2243" y1="2492.8828" x2="30.3037" y2="2494.23" gradientTransform="matrix(1 0 0 1 0 -2465.3999)">
			<stop  offset="0" style="stop-color:#B72025"/>
			<stop  offset="0.44" style="stop-color:#DF322F"/>
			<stop  offset="1" style="stop-color:#C42127"/>
		</linearGradient>
		<path class="st84" d="M32.4,23.4c-0.6-0.3-3.1,2.3-4.7,4.8c-1.2,1.7-2,4.4-1.6,4.7c0.6,0.3,2.5-1.5,3.6-3.3
			C31.3,27.2,32.8,23.8,32.4,23.4z"/>
		<path class="st85" d="M37.3,19c1.9,0,3.3-1.5,3.3-3.3s-1.5-3.3-3.3-3.3c-1.9,0-3.3,1.5-3.3,3.3S35.6,19,37.3,19z"/>
		
			<linearGradient id="SVGID_9_" gradientUnits="userSpaceOnUse" x1="35.6419" y1="2480.0552" x2="38.973" y2="2482.2129" gradientTransform="matrix(1 0 0 1 0 -2465.3999)">
			<stop  offset="0" style="stop-color:#CFD1EA"/>
			<stop  offset="1" style="stop-color:#FFFFFF"/>
		</linearGradient>
		<path class="st86" d="M37.3,17.7c1.2,0,2-0.9,2-2s-0.9-1.9-2-1.9c-1.2,0-2,0.9-2,2S36.3,17.7,37.3,17.7z"/>
		
			<linearGradient id="SVGID_10_" gradientUnits="userSpaceOnUse" x1="27.4061" y1="2514.1526" x2="9.4635" y2="2501.407" gradientTransform="matrix(1 0 0 1 0 -2465.3999)">
			<stop  offset="0" style="stop-color:#B7B7BD"/>
			<stop  offset="0.68" style="stop-color:#F0EFEF"/>
		</linearGradient>
		<path class="st87" d="M9.5,35.6c-0.4,0-0.7,0-1.2,0c1.5,4.1,4.2,7.6,7.7,10s7.7,3.8,12.1,3.8c0.1,0,0.4,0,0.6,0
			c-1.3-4.1-3.9-7.6-7.4-10C17.9,36.9,13.9,35.6,9.5,35.6z"/>
	</g>
</g>
<g id="Changelly" class="st0">
	<path class="st88" d="M48.7,56.7H8c-4.4,0-8-3.6-8-8V8c0-4.4,3.6-8,8-8h40.7c4.4,0,8,3.6,8,8v40.7C56.7,53.1,53.1,56.7,48.7,56.7z"
		/>
	<path class="st89" d="M27.2,41.8c-0.3,0.3-0.6,0.6-1,0.8c-0.7,0.5-1.4,1-2.2,1.4c-1.5,0.8-3.2,1.4-4.9,1.7
		c-0.4,0.1-0.8,0.2-1.3,0.2L17.1,46l-0.3,0l-0.3,0l-0.6,0.1l-0.6,0c-0.4,0-0.9,0-1.3,0.1c-1.3,0-2.5-0.1-3.8-0.2
		c0.1-0.2,0.3-0.4,0.4-0.6c0.4-0.6,0.8-1.3,1.1-2c0.6-1.3,1.1-2.8,1.5-4.2c0.4-1.4,0.8-2.7,1.3-4s1.1-2.6,1.8-3.9
		c-0.5,0.5-0.9,1.1-1.3,1.7c-0.4,0.6-0.8,1.2-1.1,1.9c-0.7,1.3-1.3,2.6-1.8,4c-0.5,1.3-1,2.6-1.7,3.8C9.7,44,8.9,45.1,8,46.1
		l-0.9,1.1l1.5,0.2c1.8,0.3,3.6,0.4,5.4,0.3c0.4,0,0.9,0,1.4-0.1l0.7-0.1l0.7-0.1c0.4-0.1,0.9-0.2,1.3-0.2c0.4-0.1,0.9-0.2,1.3-0.3
		c0.4-0.1,0.9-0.3,1.3-0.4c0.4-0.2,0.9-0.3,1.3-0.5c0.8-0.4,1.7-0.8,2.4-1.3s1.5-1.1,2.1-1.8c0.6-0.7,1.2-1.4,1.6-2.2
		C27.8,41.1,27.5,41.5,27.2,41.8 M37.2,17.5c0.5-0.5,1.2-0.8,1.9-0.8c0.7,0,1.4,0.3,1.9,0.8c1,1.1,1,2.8,0,3.8c-1,1-2.8,1-3.8,0
		c-0.5-0.5-0.8-1.2-0.8-1.9C36.4,18.7,36.7,18,37.2,17.5 M39.1,23.8c1.1,0,2.2-0.4,3.1-1.3c1.7-1.7,1.7-4.4,0-6.2
		c-1.7-1.7-4.4-1.7-6.1,0c-0.8,0.8-1.3,1.9-1.3,3.1c0,1.2,0.4,2.2,1.3,3.1C36.9,23.3,38,23.8,39.1,23.8 M40.4,30
		c-6.2,5.5-8.8,6-11.4,4.8l2.8-3.5c0.4-0.5,0.7-1.1,0.9-1.8l1.1-4.7l-4.7,1.1c-0.6,0.2-1.3,0.4-1.8,0.9l-3.5,2.8
		c-1.2-2.6-0.7-5.2,4.8-11.4c5.2-5.9,16.1-7.2,19.3-7.5C47.6,13.9,46.3,24.8,40.4,30L40.4,30z M36.3,38.5c-0.1,0.3-0.2,0.5-0.4,0.6
		c-0.6,0.4-1.7,1.1-2.6,1.6l0.1-0.2c0.4-1.7,0.4-3,0-3.9c1.2-0.4,2.4-1,3.9-2C36.9,36,36.5,37.6,36.3,38.5z M26.5,35.4
		c-0.4,0.5-1,0.7-1.5,0.7h0h-1.4l4.9-5.9l-5.9,4.9v-1.4v-0.1c0-0.6,0.2-1.2,0.7-1.5l5.2-4.1c0.3-0.3,0.7-0.4,1.1-0.6l2.1-0.5
		l-0.5,2.1c-0.1,0.4-0.3,0.8-0.6,1.2L26.5,35.4L26.5,35.4z M18,25.3l-0.2,0.1c0.5-0.9,1.2-1.9,1.6-2.6c0.1-0.2,0.4-0.4,0.6-0.4
		c0.9-0.2,2.5-0.6,3.8-0.9c-1,1.4-1.6,2.7-2,3.9C21.1,24.8,19.8,24.8,18,25.3L18,25.3z M48.7,9c-0.6,0-14.9,0.7-21.4,8.1
		c-0.6,0.7-1.2,1.4-1.8,2.2c-1,0.3-4.3,1.2-5.7,1.5c-0.7,0.1-1.3,0.5-1.7,1.1c-1,1.5-2.8,4.5-2.8,4.6l-1.3,2.2l2.3-1
		c1.5-0.6,4-1.3,4.9-0.8c0.1,0.1,0.3,0.3,0.3,0.7l0,0c0,1.1,0.3,2.1,0.8,3.1l-0.3,0.3c-0.9,0.7-1.4,1.8-1.3,2.9v4h4
		c1.1,0.1,2.2-0.4,2.9-1.3l0.3-0.3c1,0.5,2.1,0.8,3.1,0.8l0,0c0.4,0,0.6,0.2,0.7,0.3c0.6,0.9-0.1,3.5-0.8,5l-1,2.3l2.2-1.3
		c0.1-0.1,3.1-1.8,4.6-2.8c0.6-0.4,1-1,1.1-1.7c0.3-1.5,1.2-4.8,1.5-5.8c0.7-0.5,1.4-1.2,2.1-1.8c7.4-6.5,8.1-20.8,8.1-21.4l0-0.9
		L48.7,9z"/>
</g>
<g id="Changellypro" class="st0">
	<path class="st90" d="M48.7,56.7H8c-4.4,0-8-3.6-8-8V8c0-4.4,3.6-8,8-8h40.7c4.4,0,8,3.6,8,8v40.7C56.7,53.1,53.1,56.7,48.7,56.7z"
		/>
	<g class="st2">
		<g>
			<path class="st9" d="M11.2,21.9c-0.4,0.5-0.9,0.7-1.4,0.7c-1,0-1.7-0.8-1.7-1.9s0.7-1.9,1.7-1.9c0.7,0,1.2,0.4,1.5,0.7l0.1,0.1
				l0.6-0.6L11.8,19c-0.4-0.4-1-0.9-2.1-0.9c-1.5,0-2.7,1.2-2.7,2.7c0,1.5,1.2,2.7,2.7,2.7c1.1,0,1.7-0.6,2.1-1l0.1-0.1L11.2,21.9
				L11.2,21.9z"/>
			<path class="st9" d="M15.1,18.1c-0.7,0-1.2,0.3-1.6,0.8V16l-0.9,0.4v6.9h0.9v-3c0-0.9,0.6-1.5,1.4-1.5c0.8,0,1.3,0.6,1.3,1.4v3
				h0.9v-3.2C17.1,18.8,16.3,18.1,15.1,18.1z"/>
			<path class="st9" d="M20.2,18.1c-0.8,0-1.4,0.2-1.9,0.4l-0.1,0l0.3,0.8l0.1,0c0.6-0.3,1-0.4,1.5-0.4c0.9,0,1.4,0.4,1.4,1.3v0
				c-0.4-0.1-0.8-0.2-1.4-0.2c-1.4,0-2.2,0.6-2.2,1.7c0,1.1,1,1.7,2,1.7c0.9,0,1.4-0.4,1.7-0.7v0.6h0.9v-3.2c0-0.7-0.2-1.2-0.6-1.5
				S20.9,18.1,20.2,18.1z M21.5,21.4c0,0.7-0.7,1.3-1.6,1.3c-0.6,0-1.2-0.3-1.2-0.9c0-0.6,0.5-0.9,1.4-0.9c0.6,0,1.1,0.1,1.4,0.2
				L21.5,21.4L21.5,21.4z"/>
			<path class="st9" d="M26,18.1c-0.7,0-1.2,0.3-1.6,0.8v-0.7h-0.9v5.2h0.9v-3c0-0.9,0.6-1.5,1.4-1.5c0.8,0,1.3,0.6,1.3,1.4v3H28
				v-3.2C28,18.8,27.3,18.1,26,18.1z"/>
			<path class="st9" d="M33.1,18.9L33.1,18.9C32.6,18.3,32,18,31.3,18c-0.6,0-1.2,0.3-1.7,0.7c-0.5,0.4-0.7,1.1-0.7,1.8
				c0,0.7,0.3,1.3,0.7,1.8c0.4,0.4,1.1,0.7,1.7,0.7c0.7,0,1.4-0.3,1.9-0.9v0.3c0,1.1-0.6,1.7-1.7,1.7c-0.7,0-1.3-0.2-1.9-0.6
				l-0.1-0.1L29,24.2l0.1,0c0.7,0.5,1.5,0.7,2.3,0.7c0.9,0,1.5-0.3,2-0.7c0.4-0.4,0.7-1,0.7-1.9v-4.2h-0.9L33.1,18.9L33.1,18.9z
				 M31.4,22.1c-0.9,0-1.7-0.7-1.7-1.6c0-0.9,0.7-1.6,1.7-1.6c0.9,0,1.7,0.6,1.7,1.6C33.1,21.5,32.3,22.1,31.4,22.1z"/>
			<path class="st9" d="M37.4,18.1c-1.4,0-2.5,1.1-2.5,2.7c0,1.6,1.1,2.7,2.6,2.7c0.9,0,1.5-0.3,2.2-1l0.1-0.1l-0.6-0.5L39,22
				c-0.4,0.5-0.9,0.7-1.5,0.7c-0.9,0-1.5-0.6-1.7-1.5h4v-0.1c0-0.1,0-0.2,0-0.3C39.8,19.1,38.9,18.1,37.4,18.1z M35.9,20.4
				c0.1-0.9,0.7-1.5,1.5-1.5c1,0,1.4,0.7,1.5,1.5H35.9z"/>
			<polygon class="st9" points="40.7,23.3 41.6,23.3 41.6,16.4 40.7,16.8 			"/>
			<polygon class="st9" points="42.8,23.3 43.7,23.3 43.7,16 42.8,16.5 			"/>
			<path class="st9" d="M48.6,18.1l-1.6,4l-1.8-4h-1l2.3,5.1c-0.3,0.7-0.6,0.9-0.9,0.9c-0.3,0-0.5,0-0.7-0.2l-0.1,0l-0.3,0.7l0.1,0
				c0.4,0.2,0.7,0.3,1.1,0.3c0.8,0,1.3-0.4,1.7-1.5l2.2-5.3L48.6,18.1L48.6,18.1z"/>
		</g>
		<g>
			<path class="st11" d="M14.7,25.4H7.1L9.2,28h5.5c0.7,0,1.3,0.3,1.8,0.7c0.5,0.5,0.8,1.1,0.8,1.8c0,0.7-0.3,1.3-0.8,1.8
				C16,32.7,15.4,33,14.7,33H7.1v7.6h2.5v-5h5.1c1.4,0,2.6-0.5,3.6-1.5c1-1,1.5-2.2,1.5-3.6c0-1.4-0.5-2.6-1.5-3.6
				C17.3,25.9,16.1,25.4,14.7,25.4z"/>
			<path class="st11" d="M30.8,33.3c0.6-0.9,0.9-1.8,0.9-2.9c0-1.4-0.5-2.6-1.5-3.6c-1-1-2.2-1.5-3.6-1.5H20l1.6,2.6h5.1
				c0.7,0,1.3,0.3,1.8,0.7c0.5,0.5,0.8,1.1,0.8,1.8s-0.3,1.3-0.8,1.8c-0.5,0.5-1.1,0.7-1.8,0.7l-2.3,0l4.4,7.6h2.9l-3.1-5.5
				C29.5,34.8,30.2,34.2,30.8,33.3z"/>
			<path class="st11" d="M47.3,27.7c-1.5-1.5-3.3-2.2-5.4-2.2s-3.9,0.8-5.4,2.2c-1.5,1.5-2.2,3.3-2.2,5.4s0.7,3.9,2.2,5.4
				c1.5,1.5,3.3,2.2,5.4,2.2s3.9-0.8,5.4-2.2c1.5-1.4,2.3-3.3,2.3-5.4C49.6,30.9,48.8,29.1,47.3,27.7z M45.5,36.6
				c-1,1-2.2,1.4-3.6,1.4s-2.6-0.5-3.6-1.4c-1-1-1.4-2.2-1.4-3.6c0-1.4,0.5-2.6,1.4-3.6c1-1,2.2-1.5,3.6-1.5c1.4,0,2.6,0.5,3.6,1.5
				c1,1,1.5,2.2,1.5,3.6C47,34.4,46.6,35.6,45.5,36.6z"/>
		</g>
	</g>
</g>
<g id="Globiance" class="st0">
	<path class="st91" d="M48.7,56.7H8c-4.4,0-8-3.6-8-8V8c0-4.4,3.6-8,8-8h40.7c4.4,0,8,3.6,8,8v40.7C56.7,53.1,53.1,56.7,48.7,56.7z"
		/>
	<g id="BDbpbetif1-Kopie" class="st2">
		<g id="Gruppe">
			<g id="g1">
				<path id="Pfad" class="st9" d="M16.5,32.9c0.4-0.3,0.8-0.6,1.2-0.9c1.3-1,2.4-2.2,3.6-3.4c1.8-2,3.5-4.1,5-6.3
					c0.9-1.3,2-2.4,3.3-3.3c0.3-0.2,0.5-0.3,0.8-0.5c0,0,0.1,0,0.1-0.1c0,0,0,0.1,0.1,0.1c0.8,2.5,1.7,5,2.7,7.5
					c0.7,1.7,1.3,3.3,2.2,5c0.3,0.6,0.6,1.1,0.9,1.7c0,0,0,0.1,0.1,0.1C29.8,32.9,23.1,32.9,16.5,32.9z"/>
			</g>
			<g id="g2">
				<path id="path1" class="st9" d="M32.3,18c0.2,0,0.4-0.1,0.5-0.1c1.6-0.1,3,0.5,4.3,1.3c0.3,0.2,0.6,0.5,0.9,0.7
					c0.3,0.3,0.5,0.6,0.8,1c1.7,2.2,3.4,4.4,5.2,6.4c1.4,1.6,2.8,3.1,4.4,4.5c0.3,0.3,0.7,0.6,1,0.9c0,0,0.1,0.1,0.1,0.1
					c-0.1,0-0.1,0-0.1,0c-3.5,0-7.1,0-10.6,0c-0.1,0-0.2,0-0.2-0.1c-0.4-0.4-0.7-0.9-1-1.4c-0.8-1.3-1.4-2.6-1.9-4
					c-1-2.5-1.9-5-2.8-7.6c-0.2-0.6-0.4-1.2-0.6-1.8C32.3,18.1,32.3,18.1,32.3,18z"/>
			</g>
			<g id="g3">
				<path id="path2" class="st9" d="M13.4,34.7c6.4,0,12.9,0,19.3,0c-0.3,0.2-0.6,0.3-0.8,0.4c-2.4,1.3-4.9,2.5-7.5,3.4
					c-1.2,0.5-2.4,0.9-3.7,1.2c-0.4,0.1-0.9,0.2-1.3,0.3c-0.5,0.1-1,0-1.4-0.2c-0.5-0.2-1-0.5-1.2-1c-0.3-0.5-0.6-1-0.9-1.5
					C15.3,36.3,14.5,35.4,13.4,34.7C13.4,34.7,13.4,34.7,13.4,34.7C13.4,34.7,13.4,34.7,13.4,34.7z"/>
			</g>
			<g id="g4">
				<path id="path3" class="st9" d="M29.9,16.8c-0.2,0.1-0.5,0.2-0.7,0.4c-1.1,0.6-2.1,1.5-3,2.4c-0.8,0.8-1.4,1.7-2.1,2.7
					c-0.9,1.2-1.7,2.3-2.7,3.4c0,0,0,0-0.1,0.1c0.1-0.2,0.2-0.5,0.3-0.7c0.9-2.2,1.6-4.5,2.3-6.8c0.3-1.1,0.6-2.3,0.9-3.4
					c0.2-0.8,0.5-1.6,1-2.3c0.1-0.1,0.2-0.2,0.3-0.3c0.3-0.3,0.7-0.4,1.1-0.1c0.3,0.2,0.5,0.4,0.7,0.7c0.6,0.8,1,1.7,1.4,2.5
					c0.2,0.5,0.4,1.1,0.6,1.6C29.9,16.8,29.9,16.8,29.9,16.8z"/>
			</g>
			<g id="g5">
				<path id="path4" class="st9" d="M17.7,41.6c0.5,0.2,1,0.2,1.6,0.2c0.4,0,0.9-0.1,1.3-0.2c2.3-0.4,4.4-1.3,6.5-2.2
					c0.2-0.1,0.4-0.2,0.5-0.2c-0.2,0.2-0.5,0.4-0.7,0.5c-1,0.8-2,1.8-3,2.7c-0.7,0.6-1.4,1.3-2.1,1.8c-0.3,0.2-0.6,0.4-1,0.6
					c-0.4,0.2-0.8,0.1-1.1-0.1c-0.3-0.2-0.6-0.5-0.8-0.8C18.4,43.3,18,42.5,17.7,41.6C17.7,41.7,17.7,41.7,17.7,41.6z"/>
			</g>
			<g id="g6">
				<path id="path5" class="st9" d="M7.1,34.7c1.3,0.1,2.5,0.3,3.6,0.7c1,0.3,1.9,0.9,2.7,1.6c0.4,0.4,0.7,0.9,1,1.4
					c0.1,0.1,0.1,0.2,0.2,0.4C11.9,37.9,9.5,36.4,7.1,34.7z"/>
			</g>
		</g>
	</g>
</g>
<g id="bequant" class="st0">
	<path class="st92" d="M48.7,56.7H8c-4.4,0-8-3.6-8-8V8c0-4.4,3.6-8,8-8h40.7c4.4,0,8,3.6,8,8v40.7C56.7,53.1,53.1,56.7,48.7,56.7z"
		/>
	<g class="st2">
		<path class="st93" d="M43.2,41.3l2.2-0.5l0.5-0.7c2.7-3.6,4-7.6,4-12c0-5.7-2.1-10.6-6.3-14.6c-4.1-4.1-9.1-6.1-15-6.1
			s-10.9,2-15,6.1c-4.2,4.1-6.2,8.9-6.2,14.6c0,5.7,2.1,10.6,6.2,14.6c4.1,4.1,9.1,6.1,15,6.1c3.8,0,7.3-0.9,10.5-2.7l-4.1-5.6
			c-1.9,0.9-4,1.4-6.3,1.4c-3.9,0-7.2-1.3-10-4c-2.7-2.7-4.1-6-4.1-9.8c0-3.8,1.4-7,4.1-9.7c2.8-2.7,6.2-4.1,10-4.1
			c3.9,0,7.2,1.4,10,4.1c2.8,2.7,4.2,5.9,4.2,9.7c0,3.2-1,6.1-3.1,8.6l0.2,2"/>
		<path class="st93" d="M49.7,44l-5.1,4.9L29.9,30"/>
	</g>
</g>
<g id="uphold" class="st0">
	<path class="st94" d="M48.7,56.7H8c-4.4,0-8-3.6-8-8V8c0-4.4,3.6-8,8-8h40.7c4.4,0,8,3.6,8,8v40.7C56.7,53.1,53.1,56.7,48.7,56.7z"
		/>
	<g class="st2">
		<path class="st95" d="M39.9,30.7c-1.1,2.1-2.3,3.9-3.6,5.5c1.1-3.7,0.5-8.7-1.6-13.3c-1.1-2.5-2.7-4.6-4.4-6.6
			c2.7-2.1,5.7-2.8,7.8-1.8c1.4,0.7,2.5,2,3.2,3.7C42.4,21.7,41.9,26.3,39.9,30.7 M16.8,30.7c-2-4.4-2.5-9.1-1.2-12.5
			c0.7-1.8,1.8-3,3.2-3.7c2.1-0.9,5.2-0.4,7.8,1.8c-1.8,1.8-3.2,4.1-4.4,6.6c-2.1,4.8-2.7,9.6-1.6,13.3
			C19.1,34.8,17.9,32.9,16.8,30.7 M30.5,40.4c-0.7,0.4-1.2,0.4-2.1,0.4c-0.7,0-1.4-0.2-2.1-0.4c-4.3-2-5.2-9.4-2-16.4
			c1.1-2.1,2.3-4.3,3.9-5.9c1.6,1.6,2.8,3.6,3.9,5.9C35.5,30.9,34.8,38.4,30.5,40.4 M36.2,11.9c-2.5-0.2-5.3,0.9-7.8,3
			c-2.5-2.1-5.3-3-7.8-3c2.3-1.6,5-2.3,7.8-2.3C31.2,9.4,34,10.3,36.2,11.9 M43.7,17.6L43.7,17.6L43.7,17.6
			C43.5,17.6,43.5,17.6,43.7,17.6C43.5,17.6,43.5,17.6,43.7,17.6c-2.1-6.2-8.2-10.5-15.3-10.5c-6.9,0-13.2,4.3-15.3,10.5l0,0
			c-1.4,3.9-0.9,9.3,1.4,14.1C17.7,38.4,23.2,43,28.2,43l0,0l0,0c5,0,10.7-4.6,13.7-11.4C44.5,26.8,45.1,21.5,43.7,17.6 M32.6,46.8
			c-1.4,0.4-2.8,0.5-4.1,0.5h-0.2c-1.4,0-2.8-0.2-4.3-0.5c-0.7-0.2-1.4,0.2-1.6,0.7c-0.2,0.7,0.2,1.2,0.9,1.4c1.6,0.5,3.4,0.7,5,0.7
			h0.2c1.6,0,3.2-0.2,4.8-0.7c0.7-0.2,1.1-0.9,0.9-1.4C34,46.9,33.3,46.6,32.6,46.8"/>
	</g>
</g>
<g id="icecreamswap" class="st0">
	<path class="st96" d="M48.7,56.7H8c-4.4,0-8-3.6-8-8V8c0-4.4,3.6-8,8-8h40.7c4.4,0,8,3.6,8,8v40.7C56.7,53.1,53.1,56.7,48.7,56.7z"
		/>
	<g class="st2">
		<g id="_266041064">
			<path id="_266040848" class="st97" d="M24.4,27.8c-0.3,0.6-0.2,3.1-0.1,4.1c0.1,0.7-0.1,0.2,0.2,0.5c0.2-0.1,0.9-0.6,1-0.7
				c0.3-0.5,0.2-3.3,0.3-4.3l-0.7-0.2C24.9,27.5,24.8,27.5,24.4,27.8L24.4,27.8z"/>
			<path id="_266040728" class="st97" d="M24.7,33.9c0,1,0.9,4.6,1.3,5.4c0.4,0.1,0.4-0.1,0.8-0.4l-0.7-5
				C25.4,33.8,25,33.6,24.7,33.9L24.7,33.9z"/>
			<path id="_266041016" class="st97" d="M26.6,41c0,0.9,1.8,4.3,2.1,4.8c-0.2-1.1-1.2-3.3-1.4-4.7c-0.2,0-0.1,0.1-0.1-0.1l-0.5-0.1
				L26.6,41L26.6,41z"/>
		</g>
		<g id="_266040872">
			<path id="_262449216" class="st23" d="M19.6,20.9c0.1-2.8,0.5-4.4,1.6-6.5c1.4-2.6,3.8-3.9,3.9-4.2c0.2-2.2-2.1-0.7-2.8-0.2
				C19.3,12.3,18.3,17.3,19.6,20.9L19.6,20.9z"/>
			<path id="_266040392" class="st23" d="M31.8,23.4c-1.2-1.3-3.9-1.1-3.5,0.7c0.2,0.7,1.2,1.2,2,0.7C30.5,24.7,31.7,23.5,31.8,23.4
				L31.8,23.4z"/>
			<path id="_266040536" class="st23" d="M26.9,7.9c-1.6,0.5-1,2.8,0.7,2.4C29,9.9,28.6,7.4,26.9,7.9z"/>
			<path id="_266041112" class="st23" d="M33.7,22.8c-0.4,0.2-1.2,0.5-0.8,1.1c0.2,0.3,1.1,0.5,1.6,0.4
				C35.7,24.1,35.3,22.1,33.7,22.8L33.7,22.8z"/>
		</g>
		<path class="st98" d="M26.3,32.7c1.3,0.4,2.2,0.7,3.4,1.3c2.1,1,0.9,0.8,3.1,0.8c0.3-0.6,0.5-2.3,0.6-3.2c0.1-0.5,0.3-1.2-0.1-1.4
			C32.5,29.6,27.4,31.7,26.3,32.7L26.3,32.7z"/>
		<path class="st98" d="M26.6,41l0.1-0.1L26.6,41c-0.4,0.4-0.4,0.4-0.3,0.9c0.3,1.1,1.4,4,1.8,4.9c0.3,0.7,0.5,1.3,1.3,1.4
			c1-1.6,1.6-3.4,1.7-5.2l-3.9-1.9L27.1,41c0,0.2,0,0.1,0.1,0.1c0.1,1.4,1.2,3.6,1.4,4.7C28.3,45.3,26.6,41.9,26.6,41L26.6,41z"/>
		<path class="st98" d="M25.9,27.4c-0.1,1,0.1,3.7-0.3,4.3l6-2.6c0,0-0.1-0.1-0.1-0.1c0,0,0-0.1-0.7-0.5c-0.3-0.2-0.5-0.3-0.8-0.4
			c-0.3-0.2-0.6-0.3-0.9-0.4c-0.1-0.1-0.3-0.1-0.4-0.2c-0.3-0.2-0.2,0-0.5-0.3C27.5,27.4,26.8,27.5,25.9,27.4L25.9,27.4z"/>
		<path class="st98" d="M32.5,37.3c0.2-2.1-4.6,2.1-4.9,2.5l3.9,1.9L32.5,37.3L32.5,37.3z"/>
		<path class="st98" d="M26.7,38.9c0.3-0.3,0.6-0.5,0.9-0.9c0.9-0.8,2.1-1.5,3.2-2.2c-0.7-0.7-3.6-1.7-4.8-2L26.7,38.9L26.7,38.9z"
			/>
		<path class="st98" d="M29.9,26.6c1.9,0.7,1.8,1.2,4.1,2l0.4-2.9c-1.2-0.2-2.3-0.7-2.6-0.6L29.9,26.6L29.9,26.6z"/>
		<path class="st98" d="M24.6,32.4c-0.3-0.3-0.1,0.2-0.2-0.5c-0.2-1-0.3-3.5,0.1-4.1C24.2,28,24.2,28,24,28.1
			c-0.2,0.2-0.2,0.2-0.4,0.4c-0.9,0.9-0.7,0.6,0.1,3.7L24.6,32.4L24.6,32.4z"/>
		<path class="st98" d="M25.9,39.3c-0.4-0.8-1.3-4.4-1.3-5.4l-0.5,0.3l1.3,5L25.9,39.3L25.9,39.3z"/>
		<path class="st98" d="M24,26.7c-0.1-0.1-1.3-1.3-1.4-1.3l0.8,0.9l-1.1,0.1l0.2,1.3C23,27.4,23.5,26.7,24,26.7L24,26.7z"/>
		<path class="st99" d="M33.7,22.8c1.7-0.7,2.1,1.3,0.8,1.5c-0.5,0.1-1.4-0.1-1.6-0.4C32.5,23.3,33.2,23,33.7,22.8L33.7,22.8z
			 M31.8,23.4c-0.1,0.1-1.4,1.3-1.5,1.4c-0.8,0.5-1.9,0-2-0.7C27.9,22.3,30.6,22.1,31.8,23.4L31.8,23.4z M19.6,20.9
			c-1.3-3.6-0.3-8.6,2.8-10.9c0.7-0.5,3-2,2.8,0.2c-0.2,0.3-2.5,1.6-3.9,4.2C20.1,16.5,19.8,18.1,19.6,20.9L19.6,20.9z M26.9,7.9
			c1.8-0.5,2.1,2,0.7,2.4C25.9,10.7,25.3,8.3,26.9,7.9z M21.2,25.6l1.4-0.2c0.1,0.1,1.3,1.2,1.4,1.3l1.1,0.4l0.7,0.2
			c0.9,0.1,1.6,0.1,2.4-0.2l1.6-0.6l1.9-1.4c0.3-0.2,1.5,0.4,2.6,0.6l1,0.1c1.4-0.1,2.6-0.6,3.4-1.3c0.5-0.4,0.8-0.7,1-1.3
			c0.3-0.9,0-1.6,0.1-2c0.1-0.2,0.8-0.9,1-1.4c0.2-0.6,0.2-1.5-0.2-2c-0.9-1-1.9-1.5-3-1.7c0-3.9-2.7-7.4-6.3-8.5
			c-4.7-1.5-9.8,0.3-12,4.3c-1.1,2-1,3.8-1.1,6.1c-2.4,0.6-4.3,4.8-0.4,6.9C18.7,25.4,19.8,25.6,21.2,25.6L21.2,25.6z"/>
		<path class="st100" d="M26.6,41l0.1-0.1l0.5,0.1l0.1,0.1l3.9,1.9c-0.3,1.8-0.8,3.6-1.7,5.2c-0.8,0-1-0.7-1.3-1.4
			c-0.4-0.9-1.5-3.9-1.8-4.9C26.1,41.4,26.2,41.4,26.6,41L26.6,41z M29.3,49.6H29c-0.2,0-0.4-0.2-0.5-0.3c-1-1-1.9-3.8-2.5-5.3
			c-0.7-1.9-1.2-3.8-1.8-5.8c-0.3-1-3-11.4-3-12.4l1.4-0.2l0.8,0.9l-1.1,0.1l0.2,1.3c0.5-0.3,1-0.9,1.5-0.9l1.1,0.4
			c-0.3,0.3-0.4,0.4-0.7,0.6C24.2,28,24.2,28,24,28.1c-0.2,0.2-0.2,0.2-0.4,0.4c-0.9,0.9-0.7,0.6,0.1,3.7l0.9,0.2
			c0.2-0.1,0.9-0.6,1-0.7l6-2.6c0,0-0.1-0.1-0.1-0.1c0,0,0-0.1-0.7-0.5c-0.3-0.2-0.5-0.3-0.8-0.4c-0.3-0.2-0.6-0.3-0.9-0.4
			c-0.1-0.1-0.3-0.1-0.4-0.2c-0.3-0.2-0.2,0-0.5-0.3l1.6-0.6c1.9,0.7,1.8,1.2,4.1,2l0.4-2.9l1,0.1c-0.1,1.8-1.8,11.7-2.2,13.4
			C32.8,40.8,31.3,49.1,29.3,49.6L29.3,49.6z M31.5,41.7l-3.9-1.9c0.3-0.4,5.1-4.7,4.9-2.5L31.5,41.7L31.5,41.7z M24.7,33.9
			c0.4-0.3,0.7-0.1,1.3,0c1.3,0.3,4.2,1.3,4.8,2c-1.1,0.7-2.2,1.4-3.2,2.2c-0.4,0.3-0.6,0.6-0.9,0.9c-0.3,0.3-0.3,0.5-0.8,0.4
			l-0.5-0.1l-1.3-5L24.7,33.9L24.7,33.9z M26.3,32.7c1-0.9,6.1-3,7.1-2.5c0.4,0.2,0.2,0.9,0.1,1.4c-0.1,0.8-0.3,2.5-0.6,3.2
			c-2.3,0-1,0.2-3.1-0.8C28.6,33.4,27.6,33.1,26.3,32.7L26.3,32.7z"/>
	</g>
</g>
<g id="swapzone" class="st0">
	<path class="st101" d="M48.7,56.7H8c-4.4,0-8-3.6-8-8V8c0-4.4,3.6-8,8-8h40.7c4.4,0,8,3.6,8,8v40.7C56.7,53.1,53.1,56.7,48.7,56.7z
		"/>
	<g id="SwapzoneBlue_x26_PinkBackroundBl" class="st2">
		<g id="_x33_z_x5F_rd_x5F_f">
			<path id="Shape" class="st9" d="M49.6,17.6c0-5.8-4.7-10.5-10.6-10.5c-3,0-5.7,1.3-7.6,3.3L7.6,25.3c-0.5,0.3-0.6,0.9-0.3,1.4
				c0.2,0.3,0.5,0.5,0.9,0.5c0.2,0,0.3-0.1,0.5-0.1L29,14.2c-0.4,1.1-0.6,2.2-0.6,3.5c0,2.7,1,5,2.6,6.9L15,40.4
				c-0.4,0.4-0.4,1,0,1.4c0.2,0.2,0.5,0.3,0.7,0.3c0.3,0,0.5-0.1,0.7-0.3l16-15.9c1.8,1.4,4.1,2.3,6.5,2.3c1.4,0,2.7-0.3,3.9-0.7
				L30.2,48.1c-0.3,0.5-0.1,1.1,0.3,1.4c0.1,0.1,0.3,0.1,0.5,0.1c0.3,0,0.7-0.2,0.9-0.5l15.4-24.9C48.7,22.4,49.6,20.1,49.6,17.6z
				 M34,24.5l4.7-4.6c0.4-0.4,0.4-1,0-1.4c-0.4-0.4-1-0.4-1.4,0l-4.7,4.6c-1.3-1.5-2.1-3.4-2.1-5.5c0.1-4.7,3.9-8.6,8.6-8.6
				c4.7,0,8.6,3.8,8.6,8.5c0,4.7-3.9,8.5-8.6,8.5C37.2,26.2,35.4,25.5,34,24.5z"/>
			<path id="Path" class="st9" d="M39,10.7c-3.9,0-7,3.1-7,7c0,0.5,0.5,1,1,1c0.5,0,1-0.5,1-1c0-2.7,2.2-5,5-5c0.5,0,1-0.5,1-1
				C40,11.2,39.6,10.7,39,10.7z"/>
		</g>
	</g>
</g>
<g id="Changenow" class="st0">
	<path class="st102" d="M48.7,56.7H8c-4.4,0-8-3.6-8-8V8c0-4.4,3.6-8,8-8h40.7c4.4,0,8,3.6,8,8v40.7C56.7,53.1,53.1,56.7,48.7,56.7z
		"/>
	<g class="st2">
		<path class="st9" d="M11.7,20.4c-0.2-0.2-0.4-0.4-0.7-0.5c-0.2-0.1-0.5-0.2-0.8-0.2s-0.6,0.1-0.8,0.2c-0.3,0.1-0.5,0.3-0.6,0.5
			c-0.2,0.2-0.3,0.5-0.4,0.7c-0.1,0.3-0.1,0.5-0.1,0.8c0,0.3,0.1,0.6,0.2,0.8c0.1,0.3,0.2,0.5,0.4,0.7s0.4,0.4,0.6,0.5
			S10,24,10.3,24c0.3,0,0.6-0.1,0.8-0.2c0.2-0.1,0.5-0.3,0.6-0.5l0.8,0.8c-0.3,0.3-0.7,0.6-1,0.7C11.1,25,10.7,25,10.3,25
			C9.8,25,9.3,25,9,24.8c-0.4-0.2-0.7-0.4-1-0.7c-0.3-0.3-0.5-0.6-0.7-1c-0.2-0.4-0.2-0.9-0.2-1.3c0-0.5,0.1-0.9,0.2-1.3
			c0.2-0.4,0.4-0.7,0.7-1c0.3-0.3,0.6-0.5,1-0.7c0.4-0.2,0.8-0.3,1.3-0.3c0.5,0,0.9,0.1,1.3,0.3s0.8,0.4,1.1,0.7L11.7,20.4z
			 M13.8,15.1h1.1v4.6H15c0.2-0.3,0.4-0.6,0.8-0.8c0.4-0.2,0.8-0.3,1.2-0.3c0.3,0,0.6,0.1,0.8,0.2c0.3,0.1,0.5,0.2,0.7,0.4
			c0.2,0.2,0.4,0.4,0.5,0.7c0.1,0.3,0.2,0.7,0.2,1v3.9h-1.1v-3.6c0-0.3-0.1-0.5-0.1-0.7c-0.1-0.2-0.2-0.4-0.3-0.5
			c-0.2-0.2-0.3-0.3-0.5-0.3c-0.2-0.1-0.4-0.1-0.5-0.1c-0.3,0-0.5,0.1-0.7,0.1c-0.2,0.1-0.4,0.2-0.5,0.4c-0.2,0.2-0.3,0.4-0.4,0.6
			C15,21,15,21.3,15,21.7v3.1h-1.1L13.8,15.1z M21.2,19.5c0.3-0.3,0.7-0.5,1.1-0.7c0.4-0.2,0.8-0.2,1.3-0.2c0.5,0,0.8,0.1,1.1,0.2
			c0.3,0.1,0.6,0.3,0.8,0.5c0.2,0.2,0.4,0.4,0.5,0.7c0.1,0.3,0.2,0.5,0.2,0.8v3.7c0,0.2,0,0.4,0.1,0.5h-1c0-0.3-0.1-0.6-0.1-0.9
			c-0.3,0.4-0.6,0.7-0.9,0.8c-0.4,0.2-0.8,0.3-1.2,0.3c-0.3,0-0.6-0.1-0.8-0.1c-0.3-0.1-0.5-0.2-0.7-0.4c-0.2-0.2-0.4-0.4-0.5-0.6
			c-0.1-0.2-0.2-0.5-0.2-0.8c0-0.4,0.1-0.7,0.3-1c0.2-0.3,0.4-0.5,0.7-0.7c0.3-0.2,0.7-0.3,1.1-0.4c0.4-0.1,0.8-0.1,1.3-0.1H25v-0.3
			c0-0.3-0.2-0.7-0.4-0.9c-0.1-0.2-0.3-0.2-0.5-0.3c-0.2-0.1-0.4-0.1-0.6-0.1c-0.2,0-0.4,0-0.6,0.1s-0.4,0.1-0.5,0.1
			c-0.2,0.1-0.3,0.2-0.4,0.2c-0.1,0.1-0.2,0.2-0.3,0.3L21.2,19.5L21.2,19.5z M24.4,21.9c-0.3,0-0.6,0-0.8,0.1l-0.8,0.2
			c-0.2,0.1-0.4,0.2-0.6,0.4c-0.2,0.2-0.2,0.4-0.2,0.6c0,0.4,0.1,0.6,0.4,0.8c0.3,0.2,0.6,0.3,1,0.3c0.3,0,0.6-0.1,0.8-0.2
			c0.2-0.1,0.4-0.3,0.5-0.4c0.2-0.2,0.3-0.4,0.3-0.6c0.1-0.2,0.1-0.4,0.1-0.6v-0.4L24.4,21.9L24.4,21.9z M28,18.8h1.1v0.9
			c0.2-0.3,0.4-0.6,0.8-0.8c0.4-0.2,0.8-0.3,1.2-0.3c0.3,0,0.6,0.1,0.8,0.2c0.3,0.1,0.5,0.2,0.7,0.4c0.2,0.2,0.4,0.4,0.5,0.7
			c0.1,0.3,0.2,0.7,0.2,1v3.9h-1.1v-3.6c0-0.3-0.1-0.5-0.1-0.7c-0.1-0.2-0.2-0.4-0.3-0.5c-0.1-0.2-0.2-0.3-0.4-0.3
			c-0.2-0.1-0.4-0.1-0.5-0.1c-0.3,0-0.5,0.1-0.7,0.1c-0.2,0.1-0.4,0.2-0.5,0.4c-0.2,0.2-0.3,0.4-0.4,0.6c-0.1,0.3-0.1,0.6-0.1,0.9
			v3.1h-1.1L28,18.8L28,18.8z M41.5,24.8c0,0.5-0.1,0.9-0.3,1.3c-0.2,0.4-0.4,0.7-0.7,1c-0.3,0.3-0.6,0.5-1,0.7
			c-0.4,0.2-0.9,0.3-1.4,0.3c-0.6,0-1.1-0.1-1.6-0.3c-0.5-0.2-0.9-0.5-1.4-0.8l0.8-1c0.3,0.3,0.6,0.6,1,0.7c0.4,0.2,0.8,0.3,1.2,0.3
			c0.4,0,0.8-0.1,1.1-0.2c0.3-0.1,0.5-0.3,0.7-0.5c0.2-0.2,0.3-0.4,0.4-0.7c0.1-0.3,0.1-0.5,0.1-0.8v-0.9h-0.1
			c-0.2,0.4-0.5,0.7-0.9,0.8c-0.4,0.2-0.8,0.3-1.2,0.3c-0.5,0-0.9-0.1-1.2-0.3c-0.4-0.2-0.7-0.4-1-0.7c-0.3-0.3-0.5-0.6-0.6-1
			c-0.2-0.4-0.3-0.8-0.3-1.2c0-0.5,0.1-0.9,0.2-1.2c0.2-0.4,0.4-0.7,0.6-1c0.3-0.3,0.6-0.5,1-0.7c0.4-0.2,0.8-0.3,1.3-0.3
			c0.4,0,0.8,0.1,1.2,0.3c0.4,0.2,0.7,0.4,0.9,0.8h0.1v-0.9h1.1L41.5,24.8z M38.3,19.7c-0.3,0-0.6,0.1-0.8,0.2
			c-0.3,0.1-0.5,0.3-0.6,0.5c-0.2,0.2-0.3,0.4-0.4,0.7c-0.1,0.3-0.2,0.6-0.2,0.9c0,0.6,0.2,1.1,0.5,1.5c0.4,0.4,0.9,0.6,1.4,0.6
			c0.6,0,1.1-0.2,1.4-0.6c0.4-0.4,0.5-0.9,0.5-1.5c0-0.3-0.1-0.6-0.2-0.9c-0.1-0.3-0.2-0.5-0.4-0.7c-0.2-0.2-0.4-0.4-0.6-0.5
			C38.9,19.8,38.6,19.7,38.3,19.7L38.3,19.7z M44.3,22.2c0,0.3,0.1,0.5,0.2,0.7c0.1,0.2,0.3,0.4,0.5,0.6c0.2,0.2,0.4,0.3,0.7,0.4
			s0.5,0.1,0.8,0.1c0.4,0,0.7-0.1,0.9-0.3c0.3-0.2,0.5-0.4,0.7-0.7l0.9,0.7c-0.6,0.8-1.5,1.2-2.7,1.2c-0.5,0-0.9-0.1-1.3-0.3
			c-0.4-0.2-0.7-0.4-1-0.7c-0.3-0.3-0.5-0.6-0.6-1c-0.2-0.4-0.2-0.8-0.2-1.3s0.1-0.9,0.3-1.3c0.2-0.4,0.4-0.7,0.7-1
			c0.3-0.3,0.6-0.5,1-0.7c0.4-0.2,0.8-0.3,1.2-0.3c0.6,0,1,0.1,1.4,0.3c0.4,0.2,0.7,0.4,0.9,0.7c0.3,0.3,0.4,0.7,0.5,1
			c0.1,0.4,0.2,0.8,0.2,1.2v0.4h-4.9L44.3,22.2L44.3,22.2z M48,21.3c0-0.3-0.1-0.5-0.1-0.7c-0.1-0.2-0.2-0.4-0.3-0.6
			c-0.2-0.2-0.4-0.3-0.6-0.4c-0.2-0.1-0.5-0.2-0.8-0.2c-0.8,0-1.4,0.5-1.7,1.1c-0.1,0.2-0.2,0.4-0.2,0.6L48,21.3L48,21.3z"/>
		<path class="st103" d="M26.7,41.6c-0.9,0-1.7-0.2-2.5-0.5c-0.8-0.3-1.4-0.7-1.9-1.3s-1-1.2-1.2-1.9c-0.3-0.8-0.5-1.5-0.5-2.4
			c0-0.9,0.2-1.7,0.5-2.4c0.3-0.8,0.7-1.4,1.2-1.9s1.2-1,1.9-1.3c0.8-0.3,1.5-0.5,2.5-0.5c0.9,0,1.7,0.2,2.5,0.5
			c0.8,0.3,1.4,0.7,1.9,1.3s0.9,1.2,1.2,1.9s0.5,1.5,0.5,2.4c0,0.9-0.2,1.7-0.5,2.4c-0.3,0.8-0.7,1.4-1.2,1.9s-1.2,1-1.9,1.3
			C28.5,41.4,27.6,41.6,26.7,41.6z M26.7,40.1c0.7,0,1.3-0.1,1.8-0.4s1-0.6,1.4-1c0.4-0.4,0.7-0.9,0.9-1.5s0.3-1.2,0.3-1.8
			s-0.1-1.2-0.3-1.8c-0.2-0.6-0.5-1-0.9-1.5c-0.4-0.4-0.9-0.8-1.4-1c-0.5-0.3-1.1-0.4-1.8-0.4c-0.7,0-1.3,0.1-1.8,0.4
			c-0.5,0.3-1,0.6-1.4,1c-0.4,0.4-0.7,0.9-0.9,1.5c-0.2,0.6-0.3,1.2-0.3,1.8s0.1,1.2,0.3,1.8c0.2,0.6,0.5,1,0.9,1.5
			c0.4,0.4,0.9,0.8,1.4,1C25.4,40,26.1,40.1,26.7,40.1z M8,29.6h2.1l6.4,9.5h0.1v-9.5h1.6v11.6h-2l-6.5-9.5v9.5H8 M33.9,29.6h1.6
			l2.6,9.3h0.1l2.7-9.3h1.8l2.7,9.3h0.1l2.6-9.3h1.6l-3.4,11.6h-1.6l-2.8-9.5h-0.1l-2.8,9.5h-1.6"/>
	</g>
</g>
<g id="protondex" class="st0">
	<path class="st2" d="M48.7,56.7H8c-4.4,0-8-3.6-8-8V8c0-4.4,3.6-8,8-8h40.7c4.4,0,8,3.6,8,8v40.7C56.7,53.1,53.1,56.7,48.7,56.7z"
		/>
	<path class="st36" d="M36.8,30.5c0.6-0.3,1-0.8,1.5-1.1l0,0l0.1-0.1c0.4-0.3,0.8-0.7,1.1-1c-0.3-0.3-0.7-0.6-1-0.9
		c-0.6-0.4-1.1-0.9-1.7-1.3c0,0.8,0,1.5,0,2.2c0,0.2,0,0.3,0,0.6C36.9,29.4,36.9,30,36.8,30.5z M33.9,38.1c0.1-0.6,0.2-1.1,0.3-1.7
		c0.1-0.6,0.2-1.2,0.2-1.9c-0.4,0.3-1,0.6-1.5,0.9c-0.1,0.1-0.3,0.2-0.4,0.3l0,0c-0.6,0.3-1.1,0.7-1.8,1c0,0-0.1,0-0.1,0.1
		c0,0-0.1,0-0.1,0.1c0.6,0.2,1.2,0.4,1.8,0.7C32.9,37.7,33.5,37.9,33.9,38.1z M23.9,37.7c0.7-0.2,1.3-0.6,2.1-0.8l0,0l0,0
		c-0.7-0.3-1.3-0.7-2-1.1l0,0c0,0,0,0-0.1,0c-0.7-0.3-1.2-0.8-1.9-1.1c0.1,0.7,0.2,1.3,0.3,1.9c0.1,0.6,0.2,1.1,0.3,1.6
		c0.3-0.1,0.7-0.2,1-0.3C23.7,37.7,23.8,37.7,23.9,37.7z M17,28.3c0.3,0.3,0.7,0.6,1,0.9c0.6,0.4,1.1,0.9,1.7,1.3c0-0.8,0-1.5,0-2.2
		c0-0.2,0-0.3,0-0.6c0-0.6,0-1.1,0-1.7c-0.4,0.3-0.9,0.7-1.3,1C17.9,27.5,17.4,27.8,17,28.3z M22.6,18.4c-0.1,0.6-0.2,1.1-0.3,1.7
		S22,21.3,22,22c0.6-0.3,1.2-0.8,1.9-1.1l0,0l0,0c0.7-0.3,1.3-0.8,2-1.1c-0.6-0.2-1.2-0.4-1.8-0.7C23.6,18.9,23.1,18.6,22.6,18.4z
		 M33.1,18.8c-0.8,0.2-1.6,0.6-2.4,0.9h-0.1c0,0,0,0-0.1,0c0.7,0.3,1.3,0.7,2,1.1l0,0c0,0,0,0,0.1,0c0.7,0.3,1.2,0.8,1.9,1.1
		c-0.1-0.7-0.2-1.3-0.3-1.9c-0.1-0.6-0.2-1.1-0.3-1.6C33.7,18.5,33.5,18.6,33.1,18.8z M30.8,34.6c0.3-0.1,0.6-0.3,0.9-0.4
		c1.1-0.7,2.2-1.3,3.1-2c0-0.6,0.1-1.1,0.1-1.8s0-1.3,0-2c0-1.3,0-2.6-0.1-3.7c-0.6-0.3-1.1-0.8-1.8-1.1c-0.4-0.3-0.9-0.6-1.3-0.8
		c-1.1-0.7-2.2-1.2-3.4-1.8c-0.7,0.3-1.3,0.7-2,1c-0.4,0.2-0.9,0.4-1.3,0.7c-1.1,0.7-2.2,1.3-3.1,2c0,0.6-0.1,1.1-0.1,1.8
		c0,0.7,0,1.3,0,2c0,1.3,0,2.6,0.1,3.7c0.6,0.3,1.1,0.8,1.8,1.1c0.4,0.3,0.9,0.6,1.3,0.8c1.1,0.7,2.2,1.2,3.4,1.8h0.1
		c0,0,0.1,0,0.1-0.1C29.2,35.4,30,34.9,30.8,34.6z M36.7,23.5c0.7,0.4,1.2,0.9,1.8,1.3c2.2,1.8,4.3,3.6,5.7,5.4
		c2.9,3.5,3.8,6.6,2.6,8.8c-0.9,1.6-2.9,2.5-5.8,2.5c-0.9,0-2-0.1-3.1-0.2c-0.3,0-0.6-0.1-0.9-0.1c0.2-0.6,0.3-1.2,0.4-1.9
		c0.2,0,0.4,0.1,0.7,0.1c3.5,0.6,6.1,0.1,6.8-1.2c0.9-1.7-0.6-4.8-4-8.3c-0.3,0.3-0.7,0.7-1.1,0.9l0,0l-0.1,0.1
		c-1,0.8-2,1.6-3.1,2.4c0,0.7-0.1,1.2-0.2,1.8c-0.8,8.8-4,14.7-8,14.7c-2.7,0-5-2.8-6.6-7.4c0.7-0.2,1.2-0.3,1.9-0.6
		c1.3,3.8,3,6.1,4.7,6.1c1.9,0,3.9-2.8,5.2-7.6c-0.6-0.1-1-0.3-1.6-0.6c-1.2-0.4-2.5-0.9-3.6-1.5h-0.1c-0.7,0.3-1.3,0.7-2,0.9l0,0
		c-0.1,0-0.2,0.1-0.2,0.1c-3.9,1.6-7.4,2.4-10.2,2.4s-4.9-0.8-5.8-2.5c-1.3-2.4-0.1-5.8,3.1-9.5l1.3,1.5c-2.6,3-3.7,5.6-2.8,7.1
		c0.9,1.7,4.4,1.9,9.2,0.7c-0.1-0.6-0.2-1-0.3-1.6c-0.2-1.2-0.3-2.6-0.4-3.9c-0.7-0.4-1.2-0.9-1.8-1.3c-5.6-4.2-9-8.6-9-12
		c0-0.8,0.2-1.5,0.6-2.1c1.3-2.4,5-3,9.8-2c-0.2,0.6-0.3,1.2-0.4,1.9c-3.9-0.8-6.7-0.3-7.5,1.1c-0.9,1.7,0.6,4.8,3.9,8.3
		c0.4-0.4,0.9-0.8,1.3-1.2c0.9-0.8,1.9-1.6,3-2.2c0-0.7,0.1-1.2,0.2-1.8c1.1-8.6,4.3-14.6,8.2-14.6c2.7,0,5,2.8,6.6,7.4
		c-0.7,0.2-1.2,0.3-1.9,0.6C31.7,11.2,30,9,28.3,9c-1.9,0-3.9,2.8-5.2,7.6c0.6,0.1,1,0.3,1.6,0.6c1.2,0.4,2.5,0.9,3.7,1.6h0.1h0.1
		c0.8-0.3,1.6-0.7,2.4-1c0.1,0,0.2-0.1,0.3-0.1c2.4-0.9,4.6-1.6,6.7-1.9c4.5-0.8,7.6,0,8.9,2.1c1.2,2.1,0.3,5.3-2.6,8.8
		c-0.1,0.2-0.3,0.4-0.6,0.6c-0.4-0.4-0.9-1-1.3-1.5c2.6-2.9,3.6-5.5,2.7-7c-0.8-1.3-3.4-1.8-6.8-1.2c-0.8,0.1-1.6,0.3-2.4,0.4
		c0.1,0.6,0.2,1,0.3,1.6C36.4,20.8,36.6,22.1,36.7,23.5z M25.7,28.3c0-1.5,1.1-2.6,2.6-2.6c1.5,0,2.6,1.1,2.6,2.6s-1.1,2.6-2.6,2.6
		C26.8,30.9,25.7,29.7,25.7,28.3z"/>
</g>
<g id="xswap" class="st0">
	<path class="st104" d="M48.7,56.7H8c-4.4,0-8-3.6-8-8V8c0-4.4,3.6-8,8-8h40.7c4.4,0,8,3.6,8,8v40.7C56.7,53.1,53.1,56.7,48.7,56.7z
		"/>
	<g class="st2">
		<g id="Layer_x0020_1">
			<g id="_254044088">
				<path id="_254054432" class="st105" d="M20.6,21.5v-1.3c0,0-0.2-1.9,1.9-0.6c1.7,1.1,4.9,3.4,5.9,4.1c0.1-0.2,0.5,0,0.8-0.2
					c0.8-0.6,4.2-3,6-4.2c2.6-1.6,2.6,0.7,2.5,1v1.3l0,0c0,1.2-1.1,1.9-1.1,1.9l0,0l-4.1,2.8c-1,0.9-1.4,1.9-1.4,1.9l0,0v0.9l0,0
					c0,0.1,0,0.3-0.1,0.4c0.1,0.2,0.2,0.3,0.3,0.5c0.5,0.7,4.8,3.7,4.8,3.7s1.1,0.7,1.1,1.7v1.2c0,0,0.1,1.7-1.8,0.6
					c-1.4-0.8-4.1-2.7-5.7-3.8c-0.2-0.1-0.5,0-0.7-0.1c-0.3-0.1-0.5,0.1-0.7,0.2c-1.7,1.2-4.7,3.2-6,4c-2.4,1.4-2.4-0.8-2.4-1l0,0
					v-1.2l0,0c0-1.3,1.1-2,1.3-2.1c0.2-0.1,4.2-3,4.7-3.6c0.4-0.5,0.4-1.2,0.4-1.2l0,0v-0.1v-0.8l0,0c0-0.1,0-0.2,0-0.4
					c-0.2-0.4-0.5-0.9-1-1.3l-4.1-2.8C21.5,23.2,20.6,22.6,20.6,21.5L20.6,21.5z"/>
				
					<linearGradient id="_254048504_1_" gradientUnits="userSpaceOnUse" x1="-815.4597" y1="1234.5463" x2="-813.1403" y2="1236.4916" gradientTransform="matrix(6.1424 0 0 6.1424 5030.7729 -7560.707)">
					<stop  offset="0" style="stop-color:#A5DDE8"/>
					<stop  offset="0.5882" style="stop-color:#766FB3"/>
					<stop  offset="1" style="stop-color:#A04F9E"/>
				</linearGradient>
				<path id="_254048504" class="st106" d="M20.2,21.5v-1.3c0-0.3-0.1-2.6,2.5-1c2,1.3,6,4.2,6.3,4.4c0.1,0.1,1.9,1.2,2.4,3
					c0.2-0.3,0.5-0.7,0.8-1l0,0l0,0l4.1-2.8l0,0c0,0,0.7-0.5,0.7-1.3l0,0v-1.3v-0.1c0,0,0.1-1.1-1.3-0.2c-1.6,1-4.5,3-5.7,3.9
					l-0.7-0.5c1.1-0.8,4.2-3,5.9-4.1c2.6-1.6,2.6,0.7,2.5,1v1.3l0,0c0,1.2-1.1,1.9-1.1,1.9l0,0l-4.2,2.9c-0.8,0.9-1.5,1.9-0.8,3.4
					c0.5,0.7,4.5,3.5,4.7,3.6c0.2,0.1,1.3,0.8,1.3,2.1l0,0v1.2l0,0c0,0.1,0,2.3-2.4,1c-1.9-1.1-7.2-4.8-7.2-4.8l0,0
					c0,0-1.1-0.9-1.6-2.3c-1.1,1-4.7,3.6-4.7,3.6h-0.1c0,0-1,0.5-0.9,1.4l0,0v1.2l0,0c0,0,0,1,1.2,0.2c1.2-0.7,3.8-2.5,5.6-3.7
					l0.7,0.5c-1.7,1.2-4.6,3.2-5.9,3.9c-2.4,1.4-2.4-0.8-2.4-1l0,0v-1.2l0,0c0-1.3,1.1-2,1.3-2.1s4.1-2.9,4.5-3.5
					c0.3-0.4,0.4-1,0.4-1.6l0,0c0-0.1,0-1.1-1-2l-4.1-2.7l0,0C21.3,23.4,20.2,22.7,20.2,21.5L20.2,21.5L20.2,21.5z M21,20.2v1.3l0,0
					c0,0.8,0.7,1.3,0.7,1.3l0,0l4.1,2.8l0,0l0,0c1.3,1.2,1.3,2.6,1.3,2.6l0,0v0.9c0.1,1.6,1.5,2.9,1.6,3c0.3,0.2,5.4,3.8,7.1,4.8
					c1.2,0.7,1.2-0.2,1.2-0.2l0,0v-1.2l0,0c0-0.8-0.9-1.4-0.9-1.4h-0.1c0,0-4.3-3-4.9-3.8c-0.6-0.7-0.5-1.6-0.5-1.7v-0.8l0,0
					c-0.1-2-2.1-3.3-2.2-3.3l0,0c0,0-4.2-3-6.2-4.3C20.9,19.1,21,20.2,21,20.2L21,20.2L21,20.2z"/>
			</g>
		</g>
		<path class="st107" d="M41.2,18.4c-0.7,0.4-1.3,0.8-1.4,0.9c-0.1,0.1,0.1,0.5,0.5,1.1c0.8,1.1,1.5,2.7,2,4.4
			c0.5,1.7,0.5,5.1,0,6.9c-1.7,5.9-6.6,10-12.7,10.7l-1.4,0.1v-1.8c0-1.5-0.1-1.7-0.3-1.7c-0.2,0.1-2.3,1.3-4.7,2.6l-4.4,2.6
			l2.9,1.7c1.6,1,3.7,2.1,4.6,2.7c1,0.5,1.7,1,1.8,1c0.1,0,0.1-0.8,0.1-1.8V46l1.8-0.1c5.6-0.4,11.2-4,14-9.1
			c2.6-4.7,2.9-10.5,0.8-15.3c-0.8-1.9-1.9-3.8-2.2-3.8C42.6,17.7,41.9,18,41.2,18.4z"/>
		<path class="st108" d="M15.6,38.3c0.7-0.4,1.3-0.8,1.4-0.9c0.1-0.1-0.1-0.5-0.5-1.1c-0.8-1.1-1.5-2.7-2-4.4
			c-0.5-1.7-0.5-5.1,0-6.9c1.6-5.9,6.4-10,12.6-10.7l1.4-0.1V16c0,1.5,0.1,1.7,0.3,1.7c0.2-0.1,2.3-1.3,4.7-2.6l4.4-2.6l-2.9-1.7
			c-1.6-1-3.7-2.1-4.6-2.7c-1-0.5-1.7-1-1.8-1c-0.1,0-0.1,0.8-0.1,1.8v1.8l-1.8,0.1c-5.6,0.4-11.2,4-14,9.1
			c-2.6,4.7-2.9,10.6-0.8,15.3c0.8,1.9,1.9,3.8,2.2,3.8C14.2,39,14.9,38.7,15.6,38.3z"/>
	</g>
</g>
<g id="lbank" class="st0">
	<path class="st109" d="M48.7,56.7H8c-4.4,0-8-3.6-8-8V8c0-4.4,3.6-8,8-8h40.7c4.4,0,8,3.6,8,8v40.7C56.7,53.1,53.1,56.7,48.7,56.7z
		"/>
	<path class="st110" d="M12,48.2c-0.3-0.5-0.3-1.3-0.3-2.7V11.2c0-1.4,0-2.1,0.3-2.7c0.2-0.5,0.6-0.9,1.1-1.1
		c0.5-0.3,1.3-0.3,2.7-0.3h13.3c3.5,0,5.3,0,6.8,0.4c3.9,1.1,7,4.2,8.1,8.1c0.4,1.5,0.4,3.2,0.4,6.8v0c0,2.3-1,3.2-1.9,3.9
		c-0.7,0.5-1.2,1-1.2,2c0,0.9,0.7,1.4,1.5,2c1.1,0.8,2.4,1.6,2.4,4.1c0,3.6,0,5.3-0.4,6.8c-1.1,4-4.1,7.1-8.1,8.1
		c-1.5,0.4-3.2,0.4-6.8,0.4l-14,0c-1.4,0-2.1,0-2.7-0.3C12.6,49.1,12.2,48.7,12,48.2L12,48.2z M30.7,21c0.8-1.3,1.5-2.3,1.5-3.7
		c0-2.8-2.3-5.1-5.1-5.1c-2.8,0-5.1,2.4-5.1,5.1c0,1.4,0.7,2.5,1.5,3.7c1.1,1.7,2.5,3.8,2.5,7.3c0,3.6-1.3,5.6-2.5,7.3
		C22.7,36.9,22,38,22,39.4c0,2.8,2.3,5.1,5.1,5.1c2.8,0,5.1-2.3,5.1-5.1c0-1.4-0.7-2.5-1.5-3.7c-1.1-1.7-2.4-3.8-2.4-7.3
		C28.3,24.8,29.6,22.7,30.7,21z"/>
</g>
<g id="probit" class="st0">
	<path class="st111" d="M48.7,56.7H8c-4.4,0-8-3.6-8-8V8c0-4.4,3.6-8,8-8h40.7c4.4,0,8,3.6,8,8v40.7C56.7,53.1,53.1,56.7,48.7,56.7z
		"/>
	<g class="st2">
		<path class="st9" d="M32.6,19.4l-3.4-2c-0.7-0.3-1.4-0.3-2.1,0l-3.4,2c-0.8,0.4-0.8,1.1,0,1.6l3.5,2c0.7,0.3,1.4,0.3,2.1,0l3.5-2
			C33.3,20.5,33.3,19.9,32.6,19.4z"/>
		<path class="st9" d="M46.1,16.9L29.4,7.3c-0.7-0.3-1.4-0.3-2.1,0l-16.7,9.6c-0.6,0.4-1,1.1-1,1.8V38c0,0.7,0.4,1.4,1,1.8l16.7,9.6
			c0.7,0.3,1.4,0.3,2.1,0l16.7-9.6c0.6-0.4,1-1.1,1-1.8V18.7C47,18,46.7,17.3,46.1,16.9z M38.6,21.4L29.1,27c-0.7,0.3-1.4,0.3-2.1,0
			l-6-3.6c-0.8-0.4-1.4-0.1-1.4,0.8v10.7c0,0.9-0.6,1.2-1.4,0.8l-1-0.5c-0.6-0.4-1-1-1.1-1.8V21.8c0-0.7,0.4-1.4,1-1.8l9.8-5.7
			c0.7-0.3,1.4-0.3,2.1,0l9.5,5.5C39.4,20.2,39.4,20.9,38.6,21.4z"/>
	</g>
</g>
<g id="rocketex" class="st0">
	<path class="st112" d="M48.7,56.7H8c-4.4,0-8-3.6-8-8V8c0-4.4,3.6-8,8-8h40.7c4.4,0,8,3.6,8,8v40.7C56.7,53.1,53.1,56.7,48.7,56.7z
		"/>
	<g class="st2">
		<polygon id="_308686392" class="st113" points="10.7,37.6 28.3,7.1 46,37.6 36.9,37.6 28.3,22.8 19.8,37.6 		"/>
		<polygon id="_305394832" class="st114" points="20.2,37.8 28.3,49.6 36.5,37.8 		"/>
	</g>
</g>
<g id="Kinesis" class="st0">
	<path class="st115" d="M48.7,56.7H8c-4.4,0-8-3.6-8-8V8c0-4.4,3.6-8,8-8h40.7c4.4,0,8,3.6,8,8v40.7C56.7,53.1,53.1,56.7,48.7,56.7z
		"/>
	<g class="st2">
		<polygon id="Fill-12" class="st116" points="8.7,43.5 19.5,32.7 19.5,11.1 8.7,11.1 		"/>
		<polygon id="Fill-14" class="st116" points="30.5,7.1 30.5,19.1 42.5,7.1 		"/>
		<path id="Fill-16" class="st116" d="M43.2,44.5L28.7,23.6l-7.6,7.6l10.5,15.3c1.5,2.2,3.7,3.1,6,3.1H48
			C46.2,48.2,44.3,46.2,43.2,44.5"/>
	</g>
</g>
<g id="Kinesis_copy" class="st0">
	<path class="st117" d="M48.7,56.7H8c-4.4,0-8-3.6-8-8V8c0-4.4,3.6-8,8-8h40.7c4.4,0,8,3.6,8,8v40.7C56.7,53.1,53.1,56.7,48.7,56.7z
		"/>
	<g id="Layer_55" class="st2">
		<path class="st9" d="M17.6,49.1c0.2-0.2,1.3-1.6,2.6-3.1c1.3-1.5,2.8-3.4,3.6-4.3s1.9-2.3,2.5-3c1.7-1.9,2.1-2.6,1.9-2.8
			c-0.3-0.3-1.2-0.5-3.6-0.5c-2.2,0-7.8,0.5-8.1,0.6c-0.1,0.1-0.1,0,0-0.1c0.3-0.6,3.1-2,3.7-2c0.2,0,0.2-0.1,0.2-0.2
			c0-0.1-0.2-0.2-0.3-0.2c-0.2,0-0.9-0.2-1.5-0.4c-1.8-0.6-3.8-1.6-2.7-1.4c3.1,0.6,7.8,0.7,10.2,0.2c2.6-0.6,3.3-1.1,4.2-3.1
			c0.4-0.9,0.5-1.1,0.4-2.4c0-4-2.3-11.4-5.2-17.3c-0.6-1.1-1-2.1-1-2.2c0.2-0.2,2.6,1.5,4.7,3.6c3.9,4,7.1,9.7,8.7,15.1
			c0.3,1.3,0.3,1.5,0.2,2.2c-0.2,0.6-0.6,1.7-1,2.5c0,0.1,0.5,0.2,1.1,0.2c1.2,0.2,1.7,0.4,2.4,1c0.7,0.6,0.8,0.8,0.3,1.3
			c-0.7,0.6-2.3,1.3-4.1,1.7c-0.5,0.1-0.6,0.2-0.8,0.8c-0.5,1.3-1.9,3.1-3.7,5c-2.2,2.2-6.8,6.1-8.4,7.1c-1.9,1.1-4.4,1.9-6,1.9
			h-0.6L17.6,49.1z"/>
	</g>
</g>
<g id="Swapika" class="st0">
	<path class="st118" d="M48.7,56.7H8c-4.4,0-8-3.6-8-8V8c0-4.4,3.6-8,8-8h40.7c4.4,0,8,3.6,8,8v40.7C56.7,53.1,53.1,56.7,48.7,56.7z
		"/>
	<g class="st2">
		<path class="st119" d="M17.9,10.5v3.6c0,0.9-0.7,1.6-1.6,1.6h-1.7c-1.3,0-2.4,1.1-2.4,2.4c0,1.3,1.1,2.4,2.4,2.4h1
			c0.7,0,1.3,0.6,1.3,1.3c0.5,13.1,7.3,12.4,7.3,18.8c0,1.5-1.1,3.1-1.9,4.1c-0.5,0.6-0.4,1.5,0.3,1.8c6.7,3.4,15.4,1.4,17.4-0.5
			c0.2-0.2,0.2-0.4,0.2-0.6c-0.2-3.2-2.7-5.5-4.3-6.4c-4.4-2.6-6-5.3-6.4-6.7c-0.1-0.3,0.2-0.5,0.5-0.4c2.7,0.8,7.7,2.2,8.3,0.5
			c3.7,1.2,8.3-6.4,5.1-7.8c-4.1-1.7-5.3-7.2-10.6-8.5c-1.3-0.3-2.4-1.4-2.4-2.7v-2.7c0-1.1-0.9-2.1-2.1-2.1h-0.4
			c-0.9,0-1.7,0.7-1.7,1.7v3.4c0,1.2-0.9,2.1-2.1,2.1c-1.2,0-2.1-0.9-2.1-2.1v-3.4c0-0.9-0.7-1.7-1.7-1.7H20
			C18.8,8.5,17.9,9.4,17.9,10.5z"/>
		<path class="st120" d="M16.5,14.1v-3.6c0-1.9,1.5-3.4,3.4-3.4h0.4c1.7,0,3,1.4,3,3v3.4c0,0.4,0.3,0.7,0.7,0.7
			c0.4,0,0.7-0.3,0.7-0.7v-3.4c0-1.7,1.4-3,3-3h0.4c1.9,0,3.4,1.5,3.4,3.4v2.7c0,0.5,0.5,1.2,1.4,1.4c3.1,0.8,5,2.8,6.5,4.5
			c0.2,0.2,0.3,0.4,0.5,0.6c1.3,1.6,2.4,2.8,3.8,3.4c0.7,0.3,1.2,0.8,1.5,1.4c0.3,0.6,0.4,1.3,0.4,1.9c-0.1,1.2-0.6,2.5-1.3,3.6
			c-0.7,1.1-1.7,2.1-2.8,2.8c-0.9,0.5-1.9,0.9-3,0.9c-0.5,0.4-1.1,0.6-1.5,0.6c-0.8,0.1-1.7,0.1-2.6,0c-0.9-0.1-1.9-0.3-2.9-0.6
			c0.9,1.1,2.3,2.5,4.8,4c1.7,1,4.7,3.7,4.9,7.5c0,0.5-0.1,1.2-0.7,1.7c-0.7,0.7-1.9,1.2-3.1,1.7c-1.3,0.4-2.9,0.8-4.6,0.9
			c-3.4,0.3-7.6-0.1-11.2-1.9c-1.6-0.8-1.6-2.8-0.7-3.9c0.4-0.5,0.8-1,1.1-1.6c0.3-0.6,0.5-1.2,0.5-1.6c0-2.1-0.8-3.2-2.2-4.8
			c-0.3-0.4-0.6-0.7-1-1.2c-1.9-2.5-3.9-5.8-4.1-12.6h-0.9c-2.1,0-3.8-1.7-3.8-3.8c0-2.1,1.7-3.8,3.8-3.8h1.7
			C16.4,14.3,16.5,14.2,16.5,14.1z M29.8,33.1c0.8,1.5,2.5,3.6,6,5.7c1.6,0.9,4.1,3.2,4.3,6.4c0,0.2-0.1,0.5-0.2,0.6
			c-2,1.9-10.7,3.8-17.4,0.5c-0.7-0.3-0.7-1.2-0.3-1.8c0.8-1,1.9-2.6,1.9-4.1c0-2.7-1.2-4.1-2.6-5.8c-2-2.4-4.4-5.3-4.7-13
			c0-0.7-0.6-1.3-1.3-1.3h-1c-1.3,0-2.4-1.1-2.4-2.4c0-1.3,1.1-2.4,2.4-2.4h1.7c0.9,0,1.6-0.7,1.6-1.6v-3.6c0-1.1,0.9-2.1,2.1-2.1
			h0.4c0.9,0,1.7,0.7,1.7,1.7v3.4c0,1.2,0.9,2.1,2.1,2.1c1.2,0,2.1-0.9,2.1-2.1v-3.4c0-0.9,0.7-1.7,1.7-1.7h0.4
			c1.1,0,2.1,0.9,2.1,2.1v2.7c0,1.4,1.1,2.4,2.4,2.7c2.9,0.7,4.6,2.8,6.2,4.7c1.3,1.5,2.5,3,4.3,3.8c3.2,1.3-1.4,8.9-5.1,7.8
			c-0.6,1.5-4.7,0.6-7.4-0.2c0,0,0,0,0,0c-0.1,0-0.2-0.1-0.3-0.1c-0.2-0.1-0.3-0.1-0.5-0.2c-0.3-0.1-0.6,0.1-0.5,0.4
			c0,0.2,0.1,0.4,0.2,0.6C29.7,32.9,29.8,33,29.8,33.1C29.8,33.1,29.8,33.1,29.8,33.1z"/>
		<path class="st9" d="M32.1,22.7c0,1.2-1,2.1-2.1,2.1c-1.2,0-2.1-1-2.1-2.1c0-1.2,1-2.1,2.1-2.1C31.2,20.5,32.1,21.5,32.1,22.7z"/>
		<path class="st121" d="M31.4,22.7c0,0.8-0.6,1.4-1.4,1.4c-0.8,0-1.4-0.6-1.4-1.4c0-0.8,0.6-1.4,1.4-1.4
			C30.8,21.2,31.4,21.9,31.4,22.7z"/>
		<path class="st122" d="M38.3,32.2c-0.6,0-2.3-0.4-4-1.8c0.5,0.6,1.8,1.8,3.1,1.9c-0.5,0.2-1.8,0.7-4.7-0.1
			C32,32,31.5,31.7,31,31.6l0,0c-1.3-0.6-2-0.9-2.4,0c-0.8,1.6,3.1,5,5.7,6.3l-0.1-0.1c-0.2-0.2-0.3-0.4-0.4-0.6l-2.4-4.1H33
			l0.5,0.3H36l1.9-0.4C38.1,32.7,38.2,32.5,38.3,32.2z"/>
	</g>
</g>
<g id="AtomX" class="st0">
	<path class="st123" d="M48.7,56.7H8c-4.4,0-8-3.6-8-8V8c0-4.4,3.6-8,8-8h40.7c4.4,0,8,3.6,8,8v40.7C56.7,53.1,53.1,56.7,48.7,56.7z
		"/>
	<path class="st14" d="M43.6,29.5c5.5-7.7,8.2-15.6,4.4-19.5S36.2,9,28.5,14.4C20.8,9,12.9,6.2,9,10.1s-1.1,11.8,4.4,19.5
		C7.9,37.2,5.2,45.1,9,49c1.2,1.2,2.9,1.8,4.9,1.8c4.1,0,9.4-2.5,14.6-6.2c5.2,3.7,10.5,6.2,14.6,6.2c1.9,0,3.6-0.6,4.9-1.8
		C51.8,45.1,49,37.2,43.6,29.5z M45.4,12.6c1.7,1.7,0.5,7.2-4.1,14c-1.5-1.8-3-3.6-4.7-5.2c-1.7-1.7-3.4-3.2-5.2-4.7
		C38.3,12,43.7,10.9,45.4,12.6z M39.2,29.5c-1.6,2-3.3,3.9-5,5.7c-1.8,1.8-3.7,3.5-5.7,5c-2-1.6-3.9-3.3-5.7-5
		c-1.8-1.8-3.5-3.7-5-5.7c3.1-4,6.7-7.6,10.7-10.7c2,1.6,3.9,3.3,5.7,5C35.9,25.6,37.6,27.5,39.2,29.5z M11.5,12.6
		c0.5-0.5,1.3-0.7,2.4-0.7c2.6,0,6.8,1.5,11.7,4.8c-1.8,1.5-3.6,3-5.2,4.7c-1.7,1.7-3.2,3.4-4.7,5.2C11,19.7,9.8,14.3,11.5,12.6z
		 M11.5,46.5c-1.7-1.7-0.5-7.2,4.1-14c1.5,1.8,3,3.6,4.7,5.2c1.7,1.7,3.4,3.2,5.2,4.7C18.7,47,13.2,48.2,11.5,46.5z M45.4,46.5
		c-1.7,1.7-7.2,0.5-14-4.1c1.8-1.5,3.6-3,5.2-4.7c1.7-1.7,3.2-3.4,4.7-5.2C46,39.3,47.1,44.8,45.4,46.5z M31.1,29.5
		c0,0.5-0.2,1-0.4,1.5c-0.3,0.4-0.7,0.8-1.2,1c-0.5,0.2-1,0.3-1.5,0.2c-0.5-0.1-1-0.4-1.4-0.7C26.2,31,26,30.5,25.9,30
		c-0.1-0.5,0-1,0.2-1.5c0.2-0.5,0.5-0.9,1-1.2c0.4-0.3,1-0.4,1.5-0.4c0.7,0,1.4,0.3,1.9,0.8C30.9,28.1,31.1,28.8,31.1,29.5z"/>
</g>
<g id="fathom" class="st0">
	<path class="st124" d="M48.7,56.7H8c-4.4,0-8-3.6-8-8V8c0-4.4,3.6-8,8-8h40.7c4.4,0,8,3.6,8,8v40.7C56.7,53.1,53.1,56.7,48.7,56.7z
		"/>
	<g class="st2">
		<rect x="8.5" y="7.1" class="st125" width="39.6" height="8.7"/>
		<g>
			<path class="st125" d="M8.5,31.5c0-2.9,0-5.8,0-8.7c13.7,6.9,25.9-6.9,39.6,0c0,2.9,0,5.8,0,8.7C34.5,24.7,22.2,38.4,8.5,31.5z"
				/>
		</g>
		<circle class="st125" cx="14.3" cy="43.8" r="5.8"/>
	</g>
</g>
<g id="Alchemy" class="st0">
	<path class="st126" d="M48.7,56.7H8c-4.4,0-8-3.6-8-8V8c0-4.4,3.6-8,8-8h40.7c4.4,0,8,3.6,8,8v40.7C56.7,53.1,53.1,56.7,48.7,56.7z
		"/>
	<g id="Layer_48" class="st2">
		<path class="st9" d="M17.7,46.9V28.3L7.1,46.9H17.7z M38.9,28.3v18.6h10.7L38.9,28.3z M22.2,20.5v14.6h0c1.1-1.1,3.9-2.4,6.8-2.7
			c2.1-0.2,4,0.2,5.4,0.7V20.5L28.3,9.8L22.2,20.5z M23.1,40.7c-0.6,1-0.9,2.6-0.9,3.8c0,0.8,0.1,1.6,0.4,2.4h11.8v-9
			c-1.4-0.9-2.9-1.4-4.6-1.3C26.9,36.6,24.5,38.4,23.1,40.7z"/>
	</g>
</g>
<g id="Transak" class="st0">
	<g class="st2">
		
			<linearGradient id="SVGID_11_" gradientUnits="userSpaceOnUse" x1="3.7934" y1="44.2319" x2="52.8996" y2="15.8815" gradientTransform="matrix(1 0 0 -1 0 58.4032)">
			<stop  offset="0.13" style="stop-color:#4E85C5"/>
			<stop  offset="0.31" style="stop-color:#467BBE"/>
			<stop  offset="0.64" style="stop-color:#3B64AF"/>
			<stop  offset="0.72" style="stop-color:#3A5FAC"/>
		</linearGradient>
		<circle class="st127" cx="28.3" cy="28.3" r="28.3"/>
		<path class="st9" d="M46.2,26.6l-8-8l0,0l0,0l0,0c-0.1,0-0.1-0.1-0.2-0.1c0,0-0.1-0.1-0.1-0.1c0,0,0,0-0.1,0
			c-0.9-0.6-2.2-0.4-2.9,0.5L22.5,31.2V20.1c0-1.2-1-2.2-2.2-2.2c-1.2,0-2.2,1-2.2,2.2v11.1l-4.5-4.5c-0.9-0.8-2.3-0.8-3.1,0.1
			c-0.8,0.8-0.8,2.2,0,3l8.3,8.3c0.1,0.1,0.1,0.1,0.2,0.1c0.1,0,0.1,0.1,0.2,0.1l0,0c0.3,0.2,0.6,0.3,1,0.3h0c0.1,0,0.1,0,0.2,0l0,0
			h0c0.1,0,0.1,0,0.2,0h0c0.1,0,0.1,0,0.2,0h0c0.1,0,0.1,0,0.2,0h0c0.1,0,0.1,0,0.2-0.1l0,0c0.1,0,0.2-0.1,0.3-0.1l0.1,0
			c0.1-0.1,0.2-0.1,0.2-0.2l0,0c0,0,0.1-0.1,0.1-0.1l12.6-12.6v11.1c0,1.2,1,2.2,2.2,2.2c1.2,0,2.2-1,2.2-2.2V25.4l4.3,4.3
			c0.9,0.8,2.3,0.8,3.1,0C47.1,28.8,47.1,27.5,46.2,26.6L46.2,26.6z"/>
	</g>
</g>
<g id="Coinsph" class="st0">
	<g class="st2">
		<path class="st128" d="M28.3,56.5c15.5,0,28.1-12.6,28.1-28.1c0-15.5-12.6-28.1-28.1-28.1C12.8,0.3,0.3,12.9,0.3,28.4
			C0.3,43.9,12.8,56.5,28.3,56.5z"/>
		<defs>
			<filter id="Adobe_OpacityMaskFilter" filterUnits="userSpaceOnUse" x="3.6" y="-1" width="49.4" height="58.5">
				<feColorMatrix  type="matrix" values="1 0 0 0 0  0 1 0 0 0  0 0 1 0 0  0 0 0 1 0"/>
			</filter>
		</defs>
		<mask maskUnits="userSpaceOnUse" x="3.6" y="-1" width="49.4" height="58.5" id="mask0_985_1593_2_">
			<circle class="st129" cx="28.3" cy="28.4" r="24.3"/>
		</mask>
		<g class="st130">
			<path class="st131" d="M31.8,3.2l7.1,4.2v-8.4L31.8,3.2z"/>
			<path class="st132" d="M38.9,7.4l-7.1-4.2v8.4L38.9,7.4z"/>
			<path class="st133" d="M31.8,19.9l7.1,4.2v-8.4L31.8,19.9z"/>
			<path class="st134" d="M31.8,28.3l7.1,4.2v-8.4L31.8,28.3z"/>
			<path class="st135" d="M38.9,24.1l-7.1-4.2v8.4L38.9,24.1z"/>
			<path class="st136" d="M38.9,32.5l-7.1-4.2v8.4L38.9,32.5z"/>
			<path class="st137" d="M31.8,36.6l7.1,4.2v-8.4L31.8,36.6z"/>
			<path class="st138" d="M38.9,40.8l-7.1-4.2v8.4L38.9,40.8z"/>
			<path class="st139" d="M38.9,49.1l-7.1-4.2v8.4L38.9,49.1z"/>
			<path class="st140" d="M31.8,53.3l7.1,4.2v-8.4L31.8,53.3z"/>
			<path class="st141" d="M38.9,15.8l-7.1-4.2v8.4L38.9,15.8z"/>
			<path class="st131" d="M38.9,7.4l7.1,4.2V3.2L38.9,7.4z"/>
			<path class="st142" d="M45.9,3.2l-7.1-4.2v8.4L45.9,3.2z"/>
			<path class="st143" d="M38.9,15.7l7.1,4.2v-8.4L38.9,15.7z"/>
			<path class="st144" d="M38.9,24.1l7.1,4.2v-8.4L38.9,24.1z"/>
			<path class="st145" d="M45.9,19.9l-7.1-4.2v8.4L45.9,19.9z"/>
			<path class="st146" d="M45.9,28.3l-7.1-4.2v8.4L45.9,28.3z"/>
			<path class="st146" d="M38.9,32.4l7.1,4.2v-8.4L38.9,32.4z"/>
			<path class="st147" d="M38.9,40.8L46,45v-8.4L38.9,40.8z"/>
			<path class="st148" d="M46,36.6l-7.1-4.2v8.4L46,36.6z"/>
			<path class="st149" d="M46,44.9l-7.1-4.2v8.4L46,44.9z"/>
			<path class="st140" d="M46,53.3l-7.1-4.2v8.4L46,53.3z"/>
			<path class="st147" d="M38.9,49.1l7.1,4.2v-8.4L38.9,49.1z"/>
			<path class="st131" d="M45.9,11.6l-7.1-4.2v8.4L45.9,11.6z"/>
			<path class="st142" d="M45.9,11.6l7.1,4.2V7.4L45.9,11.6z"/>
			<path class="st150" d="M45.9,19.9l7.1,4.2v-8.4L45.9,19.9z"/>
			<path class="st151" d="M45.9,28.3l7.1,4.2v-8.4L45.9,28.3z"/>
			<path class="st152" d="M53,24.1l-7.1-4.2v8.4L53,24.1z"/>
			<path class="st138" d="M53,32.5l-7.1-4.2v8.4L53,32.5z"/>
			<path class="st153" d="M45.9,36.6l7.1,4.2v-8.4L45.9,36.6z"/>
			<path class="st154" d="M45.9,45l7.1,4.2v-8.4L45.9,45z"/>
			<path class="st154" d="M53,40.8l-7.1-4.2V45L53,40.8z"/>
			<path class="st155" d="M53,49.1l-7.1-4.2v8.4L53,49.1z"/>
			<path class="st142" d="M53,15.7l-7.1-4.2v8.4L53,15.7z"/>
			<path class="st156" d="M53,7.4l-7.1-4.2v8.4L53,7.4z"/>
			<path class="st157" d="M31.8,11.5l-7.1-4.2v8.4L31.8,11.5z"/>
			<path class="st158" d="M31.8,3.1L24.7-1v8.4L31.8,3.1z"/>
			<path class="st159" d="M24.8,24l7.1,4.2v-8.4L24.8,24z"/>
			<path class="st160" d="M24.8,32.4l7.1,4.2v-8.4L24.8,32.4z"/>
			<path class="st159" d="M31.8,28.2L24.8,24v8.4L31.8,28.2z"/>
			<path class="st161" d="M31.8,36.6l-7.1-4.2v8.4L31.8,36.6z"/>
			<path class="st155" d="M24.8,40.7l7.1,4.2v-8.4L24.8,40.7z"/>
			<path class="st139" d="M24.8,49.1l7.1,4.2v-8.4L24.8,49.1z"/>
			<path class="st162" d="M31.8,44.9l-7.1-4.2v8.4L31.8,44.9z"/>
			<path class="st163" d="M31.8,53.3l-7.1-4.2v8.4L31.8,53.3z"/>
			<path class="st164" d="M31.8,19.9l-7.1-4.2V24L31.8,19.9z"/>
			<path class="st160" d="M17.7,11.5l7.1,4.2V7.3L17.7,11.5z"/>
			<path class="st165" d="M17.7,3.1l7.1,4.2V-1L17.7,3.1z"/>
			<path class="st166" d="M24.7,7.3l-7.1-4.2v8.4L24.7,7.3z"/>
			<path class="st167" d="M17.7,19.8l7.1,4.2v-8.4L17.7,19.8z"/>
			<path class="st168" d="M17.7,28.2l7.1,4.2V24L17.7,28.2z"/>
			<path class="st169" d="M24.8,24l-7.1-4.2v8.4L24.8,24z"/>
			<path class="st170" d="M24.8,32.4l-7.1-4.2v8.4L24.8,32.4z"/>
			<path class="st171" d="M17.7,36.5l7.1,4.2v-8.4L17.7,36.5z"/>
			<path class="st172" d="M17.7,44.9l7.1,4.2v-8.4L17.7,44.9z"/>
			<path class="st173" d="M24.8,40.7l-7.1-4.2v8.4L24.8,40.7z"/>
			<path class="st174" d="M24.8,49.1l-7.1-4.2v8.4L24.8,49.1z"/>
			<path class="st149" d="M17.7,53.3l7.1,4.2v-8.4L17.7,53.3z"/>
			<path class="st160" d="M24.8,15.7l-7.1-4.2v8.4L24.8,15.7z"/>
			<path class="st175" d="M10.6,15.7l7.1,4.2v-8.4L10.6,15.7z"/>
			<path class="st176" d="M10.6,7.3l7.1,4.2V3.1L10.6,7.3z"/>
			<path class="st177" d="M17.7,11.5l-7.1-4.2v8.4L17.7,11.5z"/>
			<path class="st178" d="M10.6,24l7.1,4.2v-8.4L10.6,24z"/>
			<path class="st179" d="M10.6,32.4l7.1,4.2v-8.4L10.6,32.4z"/>
			<path class="st170" d="M17.7,28.2L10.6,24v8.4L17.7,28.2z"/>
			<path class="st180" d="M17.7,36.6l-7.1-4.2v8.4L17.7,36.6z"/>
			<path class="st181" d="M10.6,40.7l7.1,4.2v-8.4L10.6,40.7z"/>
			<path class="st182" d="M10.6,49.1l7.1,4.2v-8.4L10.6,49.1z"/>
			<path class="st183" d="M17.7,44.9l-7.1-4.2v8.4L17.7,44.9z"/>
			<path class="st184" d="M17.7,19.8l-7.1-4.2V24L17.7,19.8z"/>
			<path class="st185" d="M3.6,19.9l7.1,4.1v-8.2L3.6,19.9z"/>
			<path class="st186" d="M3.6,11.5l7.1,4.2V7.3L3.6,11.5z"/>
			<path class="st187" d="M10.6,15.7l-7.1-4.2v8.4L10.6,15.7z"/>
			<path class="st188" d="M3.6,28.3l7.1,4.2v-8.6L3.6,28.3z"/>
			<path class="st189" d="M3.6,36.7l7.1,4.1v-8.4L3.6,36.7z"/>
			<path class="st188" d="M10.6,32.4l-7.1-4.1v8.4L10.6,32.4z"/>
			<path class="st190" d="M10.6,40.7l-7.1-4.2v8.4L10.6,40.7z"/>
			<path class="st191" d="M3.6,44.9l7.1,4.2v-8.4L3.6,44.9z"/>
			<path class="st156" d="M10.6,23.9l-7.1-4.1v8.5L10.6,23.9z"/>
			<path class="st192" d="M31.8,44.9l7.1,4.2v-8.4L31.8,44.9z"/>
			<path class="st193" d="M24.7,7.3l7.1,4.2V3.1L24.7,7.3z"/>
			<path class="st194" d="M24.7,15.7l7.1,4.2v-8.4L24.7,15.7z"/>
			<path class="st195" d="M31.8,11.6l7.1,4.2V7.4L31.8,11.6z"/>
			
				<radialGradient id="SVGID_12_" cx="-253.9579" cy="428.3731" r="1.652" gradientTransform="matrix(18.3023 0 0 -18.3023 4676.3594 7868.7231)" gradientUnits="userSpaceOnUse">
				<stop  offset="0.56" style="stop-color:#FFFFFF;stop-opacity:0"/>
				<stop  offset="0.61" style="stop-color:#FAFAFD;stop-opacity:2.000000e-02"/>
				<stop  offset="0.64" style="stop-color:#EBECF7;stop-opacity:8.000000e-02"/>
				<stop  offset="0.67" style="stop-color:#D1D5EC;stop-opacity:0.19"/>
				<stop  offset="0.7" style="stop-color:#AEB5DC;stop-opacity:0.34"/>
				<stop  offset="0.73" style="stop-color:#828CC5;stop-opacity:0.53"/>
				<stop  offset="0.75" style="stop-color:#4B5BA9;stop-opacity:0.76"/>
				<stop  offset="0.78" style="stop-color:#283891"/>
			</radialGradient>
			<path class="st196" d="M28.3,52.8c13.4,0,24.3-10.9,24.3-24.3c0-13.4-10.9-24.3-24.3-24.3C14.9,4.2,4.1,15.1,4.1,28.5
				C4.1,41.9,14.9,52.8,28.3,52.8z"/>
		</g>
		<path class="st9" d="M41.6,19.1l-4.1,3.6c0,0-2.9-5.5-9.2-5.1c-6.3,0.5-10.3,5.9-9.7,11.7c0.7,5.8,4.3,7.9,4.3,7.9
			s4.9,4.1,10.9,0.6c0,0,2.4-1.3,4.2-4.2l4.1,3.3c0,0-4.6,7.9-14.2,7.3c0,0-10.7,0-14.3-11.3c0,0-1.6-5.8,0.6-10.5
			c0,0,3.4-9.2,14-9.7C28.3,12.7,36.1,12,41.6,19.1L41.6,19.1z"/>
	</g>
</g>
<g id="WeAreBlox" class="st0">
	<g class="st2">
		<g>
			<path class="st197" d="M56.7,28.4H28.3v28.3h28.3V28.4z"/>
			<g>
				<path class="st198" d="M35.7,35.7v13.6l6.8-6.8L35.7,35.7z M49.3,35.7v13.6l-6.8-6.8L49.3,35.7z"/>
				<path class="st199" d="M0,28.3h28.3v28.3H0V28.3z"/>
			</g>
			<path class="st200" d="M14.2,35.7c-3.8,0-6.8,3-6.8,6.8c0,3.8,3,6.8,6.8,6.8s6.8-3,6.8-6.8C21,38.8,17.9,35.7,14.2,35.7"/>
		</g>
		<g>
			<path class="st201" d="M28.3,0h28.3v28.3H28.3V0z"/>
			<path class="st202" d="M49.3,21H35.7V7.4L49.3,21z"/>
			<path class="st197" d="M0,0h28.3v28.3H0V0z"/>
			<path class="st200" d="M17.6,14.2c1.9,0,3.4-1.5,3.4-3.4s-1.5-3.4-3.4-3.4H7.4V21h10.2c1.9,0,3.4-1.5,3.4-3.4
				C21,15.7,19.5,14.2,17.6,14.2"/>
		</g>
	</g>
</g>
<g id="Coinmena" class="st0">
	<path class="st203" d="M48.7,56.7H8c-4.4,0-8-3.6-8-8V8c0-4.4,3.6-8,8-8h40.7c4.4,0,8,3.6,8,8v40.7C56.7,53.1,53.1,56.7,48.7,56.7z
		"/>
	<g id="Layer_53" class="st2">
		<path class="st23" d="M31.5,7.4c4.7,0,9,0.5,12.9,1.4l-0.8,6.9c-3.2-0.2-7.3-0.4-12.1-0.4c-3.1,0-5.2,1-6.4,2.9
			c-1.1,1.9-1.7,5.5-1.7,10.7c0,5.2,0.6,8.8,1.7,10.7c1.1,1.9,3.3,2.8,6.4,2.8c5.8,0,10.1-0.2,13-0.5l0.8,6.8
			c-3.7,1.1-8.3,1.7-13.8,1.7c-6.6,0-11.3-1.6-14-4.8c-2.7-3.2-4.1-8.8-4.1-16.7c0-7.9,1.4-13.5,4.1-16.7C20.2,9,24.8,7.4,31.5,7.4z
			"/>
	</g>
</g>
<g id="coinstore" class="st0">
	<path class="st203" d="M48.7,56.7H8c-4.4,0-8-3.6-8-8V8c0-4.4,3.6-8,8-8h40.7c4.4,0,8,3.6,8,8v40.7C56.7,53.1,53.1,56.7,48.7,56.7z
		"/>
	<g id="Layer_62" class="st2">
		<g>
			<path class="st9" d="M21.9,10.5c-3.4,1.9-6.3,3.5-6.4,3.6c-0.1,0.1-0.1,3.5-0.1,7.5s0.1,7.4,0.1,7.5c0.1,0.1,2,1.3,4.2,2.7
				c2.2,1.4,4.9,3,6,3.6c1,0.6,2,1.2,2.2,1.2s0.8-0.3,1.6-0.7c0.7-0.4,1.8-1,2.5-1.4c0.7-0.4,1.2-0.7,1.2-0.8c0-0.1-1.7-1.2-3.8-2.4
				c-2.1-1.3-4.9-3-6.2-3.8l-2.4-1.5l-0.1-4.5l0-4.5l3.8-2.1c2.1-1.1,3.8-2.1,3.9-2.1c0.1,0,3,1.7,6.5,3.9c3.5,2.1,6.5,3.9,6.5,3.9
				c0.1,0,0.1-1.4,0.1-3.1v-3.1l-5.9-3.6c-3.3-2-6.1-3.7-6.2-3.8c-0.1-0.1-0.4-0.2-0.6-0.2C28.3,7.1,25.3,8.7,21.9,10.5z"/>
			<path class="st9" d="M26,21.1c-1.4,0.8-2.5,1.4-2.4,1.6c0.1,0.1,4.4,2.8,10.9,6.8l1.6,1l0,4.5l-0.1,4.5l-3.7,2c-2,1.1-3.8,2-4,2
				c-0.3,0-1.3-0.5-2.8-1.5c-2.7-1.7-10-6.1-10.2-6c-0.2,0.1-0.2,5.3-0.1,5.8c0.1,0.2,2.3,1.6,5.1,3.3c2.7,1.7,5.6,3.4,6.3,3.8
				l1.3,0.8l1.4-0.7c0.7-0.4,1.8-1,2.3-1.3s1.8-1,2.7-1.5c1-0.5,2.4-1.3,3.3-1.8c0.8-0.5,1.9-1.1,2.5-1.4l1-0.5l0.1-7.6l0-7.6
				l-1.2-0.7c-6.5-4-11.2-6.8-11.4-6.8C28.6,19.8,27.4,20.4,26,21.1z"/>
		</g>
	</g>
</g>
<g id="giottus" class="st0">
	<path class="st204" d="M48.7,56.7H8c-4.4,0-8-3.6-8-8V8c0-4.4,3.6-8,8-8h40.7c4.4,0,8,3.6,8,8v40.7C56.7,53.1,53.1,56.7,48.7,56.7z
		"/>
	<path class="st205" d="M50.4,29.1c0-12.2-9.9-22-22-22s-22,9.9-22,22c0,5.6,2.1,11,6,15.1c1.6,2,4.3,4.9,6.8,5.3
		c1.1,0.2,2.2,0.2,3.3,0c0.1,0,0.1,0,0.2,0c0.1,0,0.1,0,0.2-0.1c0.4-0.2,0.8-0.4,1.2-0.6c0.6-0.3,0.2-0.5,0.3-0.7
		c0.2-0.2,0.8-0.6,1-1c0.2-0.6,0.2-1.2,0.1-1.8c0,0,0-0.1-0.1-0.1c-0.5-0.9-1.2-1.6-2-2.2c-2.1-0.8-3.9-2-5.5-3.6l0,0
		c-1-1-1.8-2.1-2.4-3.3l0,0c-0.1-0.2-0.2-0.4-0.3-0.6l0,0c-0.2-0.4-0.4-0.8-0.5-1.3l0,0c-0.1-0.2-0.1-0.4-0.2-0.6c0,0,0-0.1,0-0.1
		c-0.1-0.2-0.1-0.3-0.1-0.5c0,0,0-0.1,0-0.1c-0.1-0.4-0.2-0.9-0.3-1.3c0-0.1,0-0.1,0-0.2c0-0.2,0-0.3-0.1-0.5c0-0.1,0-0.1,0-0.2
		c0-0.2,0-0.3,0-0.5c0-0.1,0-0.1,0-0.2c0-0.2,0-0.5,0-0.7c0-8.1,6.6-14.7,14.7-14.7h0c8.1,0,14.7,6.6,14.6,14.7c0,2.9-0.8,5.6-2.4,8
		l0,0c-0.1,0.2-0.2,0.4-0.4,0.5c-0.1,0.1-0.1,0.2-0.2,0.3c-0.1,0.1-0.1,0.2-0.2,0.3c-0.1,0.1-0.1,0.2-0.2,0.2
		c-0.1,0.1-0.2,0.2-0.2,0.3c-0.1,0.1-0.1,0.1-0.2,0.2c-0.1,0.1-0.2,0.2-0.3,0.3c-0.7,0.8-1.5,1.4-2.4,2c-0.9,0.7-2.3,1.9-1.8,1.7
		c1.3-0.4,0.9,0,0.9,0s-0.8,0.7-1.1,1c0,0,0,0,0,0l0,0l0,0c0,0.1-0.1,0.1-0.1,0.2c0,0.1,0.2,0.1,0.3,0.1l0.1,0.3
		c-0.3,0.2-1,0.3-1.3,0.5c-0.3,0.2,0.8,0.2,0.8,0.2s0,0.1-0.3,0.3s-0.1,0.2,0,0.3s0.4-0.2,0.5-0.1c0.1,0.1-0.4,0.2-0.3,0.5
		c0.1,0.2,0.6,0.1,0.9,0.1l0,0.1c-0.7,0.4-1.4,0.7-2.2,0.9c-0.2,0-0.1,0.1,0,0.1c-0.1,0-0.2,0-0.3,0l0.4,0h0l0,0c-0.1,0-0.2,0-0.3,0
		c0,0,0.1,0,0.1,0c0.2,0,0.3,0,0.5,0l0.2,0l0.1,0c0.4,0,0.8,0,1.2-0.1c0.4-0.1,0.5-0.2,0.6,0s-0.4,0.3-0.7,0.4c-0.2,0-0.1,0.1,0,0.1
		c-0.1,0-0.2,0-0.4,0c-0.1,0,0,0,0.1,0c0.1,0,0.3,0,0.3,0c0,0,0.1,0,0,0l0.1,0c0.1,0,0.2,0,0.3,0c0.1,0,0.3-0.1,0.5-0.1l0,0.1
		l0.2-0.1c0.1-0.1,0.3-0.1,0.4-0.2c0.1,0,0.3-0.1,0.4-0.1c0.1,0,0.3-0.1,0.4-0.2l0.3-0.1c0.2-0.1,0.3-0.1,0.4-0.1
		c-0.1,0.1-0.2,0.1-0.3,0.2c-0.1,0-0.2,0.1-0.3,0.1c-0.1,0-0.1,0.1-0.2,0.1c0,0-0.1,0-0.2,0.1c0.2-0.1,0.1,0,0.1,0
		c0.5-0.2,0.3-0.1,0.4-0.2c0.1-0.1,0.2-0.1,0.3-0.1l-0.1,0.1c0.1-0.1,0.3-0.1,0.5-0.2l0.1-0.1l0,0c0.1,0,0.1-0.1,0.2-0.1
		c0,0-0.1,0-0.1,0c0,0,0,0,0.1-0.1C38,47,37.8,47,37.7,47l0.2-0.2c0.1-0.1,0.3-0.1,0.5-0.2c0,0,0.1,0,0.1,0.1l0,0l0,0
		c0,0,0.1,0.1,0.1,0.1c0,0,0,0.1,0,0.1L38.5,47c-0.1,0.1-0.2,0.2-0.3,0.2c0.2-0.1,0.3-0.2,0.5-0.2l-0.1,0l0.1-0.1
		c0,0.1-0.1,0.2-0.2,0.3l-0.1,0v0c-0.1,0.1-0.2,0.1-0.4,0.2l-0.4,0.2l0,0l0.4-0.2c0.1,0,0.2-0.1,0.3-0.1c-0.4,0.2-0.8,0.4-1.2,0.6
		c-0.4,0.1-0.2-0.1-0.5,0c-0.2,0-0.4,0.2-0.6,0.3l-0.2,0.1l-0.2,0l-0.1,0l-0.1,0l-0.4,0c-0.1,0-0.1,0-0.2,0l-0.2,0
		c-0.1,0-0.3,0-0.4,0c-0.1,0-0.3,0-0.5,0h0.5c0.2,0,0.3,0,0.5,0c-0.1,0-0.2,0-0.3,0c-0.1,0-0.1,0-0.2,0h0l0.2,0l0.4,0h0.1l0.1,0
		l0.2,0l0.2,0c0.1,0,0.2,0,0.2,0l0,0c0,0,0.1,0,0.1,0c-0.1,0-0.2,0.1-0.2,0.1c-0.4,0.1-0.5,0.1-0.7,0.3s-0.2,0.2-0.5,0.2
		c-0.3,0-0.7,0.1-1,0.3c-0.2,0.1,0.2,0.3,0.9,0.2s0.1,0.2,0.9,0s1.4-0.2,1.8-0.4c0.3-0.1,0.6-0.2,0.9-0.1c0.2,0.1,0.2-0.1,0.5-0.3
		l0.1,0c0.3-0.1,0.4,0,0.5-0.2l0,0l0.1,0l0,0v0.1c0.5-0.3,0.9-0.5,1.4-0.8v0.1c0.3-0.2,0.6-0.4,0.8-0.6c0.1,0,0.1-0.1,0.2-0.1
		c5.7-4.1,9.1-10.7,9.1-17.7C50.4,29.3,50.4,29.3,50.4,29.1C50.4,29.2,50.4,29.2,50.4,29.1 M38.8,48.4L38.8,48.4c0,0,0-0.1,0-0.1
		L38.8,48.4L38.8,48.4"/>
</g>
<g id="Lcx" class="st0">
	<path class="st206" d="M48.7,56.7H8c-4.4,0-8-3.6-8-8V8c0-4.4,3.6-8,8-8h40.7c4.4,0,8,3.6,8,8v40.7C56.7,53.1,53.1,56.7,48.7,56.7z
		"/>
	<g class="st2">
		<path class="st9" d="M31.6,28.5l11.3,11.2l6.7,0L38.1,28.3L49.6,17L43,16.9L31.6,28.5z"/>
		<path class="st9" d="M28.5,25.1l11.2-11.3l0-6.7L28.4,18.5L17,7.1L17,13.7L28.5,25.1z"/>
		<path class="st9" d="M25.1,28.1L13.8,16.9l-6.7,0l11.5,11.3L7.1,39.6l6.6,0.1L25.1,28.1z"/>
		<path class="st9" d="M28.2,31.6L17,42.9l0,6.7l11.3-11.4l11.3,11.4l0.1-6.6L28.2,31.6z"/>
	</g>
</g>
<g id="htx" class="st0">
	<path class="st206" d="M48.7,56.7H8c-4.4,0-8-3.6-8-8V8c0-4.4,3.6-8,8-8h40.7c4.4,0,8,3.6,8,8v40.7C56.7,53.1,53.1,56.7,48.7,56.7z
		"/>
	<g id="Layer_61" class="st2">
		<g>
			<path class="st9" d="M32.7,20.1c0.1-6.3-3.4-11.7-5.3-13c0,0-0.2-0.1-0.2,0.1c0,0,0,0,0,0c-0.2,11.8-6.3,15-9.6,19.3
				c-7.3,9.6-1.2,20.6,6.7,22.7c0.1,0,0.5,0.1,1.2,0.3c0.4,0.1,0.5-0.2,0.2-0.7c-0.9-1.6-2.6-4.4-3-8C22.1,32.6,32.6,27.4,32.7,20.1
				z"/>
			<path class="st10" d="M36.7,24.1c-0.1,0-0.2,0-0.2,0c-0.2,1.5-1.7,4.6-3.8,7.5c-6.9,9.8-3.4,14.3-0.7,17.4c0.5,0.6,0.7,0.4,1,0
				c0.2-0.4,0.6-0.9,2.2-1.6c0.2-0.1,6.3-3.3,6.9-10.6C42.8,29.9,38.3,25.4,36.7,24.1z"/>
		</g>
	</g>
</g>
<g id="mexc">
	<path class="st207" d="M48.7,56.7H8c-4.4,0-8-3.6-8-8V8c0-4.4,3.6-8,8-8h40.7c4.4,0,8,3.6,8,8v40.7C56.7,53.1,53.1,56.7,48.7,56.7z
		"/>
	<g>
		<path class="st208" d="M51.7,34.4L41.2,16.4c-2.3-3.8-7.9-3.8-10.1,0.2L20.3,35.3c-2,3.5,0.5,7.8,4.6,7.8h21.9
			C50.9,43.1,54,38.7,51.7,34.4z"/>
		<path class="st209" d="M36.6,35.9L36,34.8c-0.6-1.1-1.9-3.3-1.9-3.3l-8.8-15.3c-2.3-3.4-7.7-3.7-10,0.6L5,34.5
			c-2.1,3.7,0.4,8.6,5,8.6h21.8h9.3h5.5C41,43.2,39.2,40.2,36.6,35.9z"/>
	</g>
</g>
</svg>
