<?xml version="1.0" encoding="UTF-8"?>
<svg id="Layer_2" xmlns="http://www.w3.org/2000/svg" version="1.1" viewBox="0 0 56.7 56.7">
  <!-- Generator: Adobe Illustrator 29.6.0, SVG Export Plug-In . SVG Version: 2.1.1 Build 207)  -->
  <defs>
    <style>
      .st0 {
        fill: #fff;
      }
    </style>
  </defs>
  <path class="st0" d="M24.6,23.4c-1.1.2-1.8,1.2-1.6,2.3.2,1.1,1.2,1.8,2.2,1.7l-.6-4ZM46.6,31.9c0,1.2.8,2,2,2s2-1,2-2c0,0-4,0-4,0ZM9.4,28c-.6-.8-1.9-1.1-2.8-.4-.8.6-1.1,1.9-.3,2.9l3.2-2.4h-.1,0ZM27.4,34.6l.8,1.8c.6-.3,1.1-.8,1.2-1.5,0-.6-.1-1.4-.6-1.8l-1.4,1.5ZM26.7,26c.2-1.1-.4-2.1-1.5-2.4-1.1-.2-2.1.4-2.3,1.5l3.8.8h0ZM46.9,28.4c0,10.1-8.3,18.4-18.5,18.4v4c12.4,0,22.6-10,22.6-22.5h-4.1ZM28.3,46.8c-10.3,0-18.5-8.3-18.5-18.4h-3.9c0,12.5,10.2,22.5,22.6,22.5v-4h-.2ZM9.8,28.4c0-10.1,8.3-18.4,18.5-18.4v-4c-12.4,0-22.6,10-22.6,22.5h4.1ZM28.3,9.9c10.3,0,18.5,8.3,18.5,18.4h3.9c0-12.5-10.2-22.5-22.6-22.5v4h.2ZM25.3,27.5c2.6-.4,8.3-1.8,13.2-1.7,2.5,0,4.6.5,5.9,1.5,1.3.8,2.1,2.2,2.1,4.6h3.9c0-3.7-1.5-6.3-3.9-8-2.3-1.6-5.2-2.1-7.9-2.2-5.5-.2-11.8,1.4-14,1.7l.6,4h.1ZM6.2,30.5c4.3,5.7,9.3,7.5,13.6,7.7,4.1.2,7.4-1.3,8.5-1.7l-1.7-3.7c-.7.3-3.4,1.5-6.6,1.4s-7.1-1.4-10.6-6.1c0,0-3.2,2.4-3.2,2.4ZM28.8,33.2c-1.1-1.1-1.9-2.1-2.2-3.1l-3.8,1.1c.5,2.2,2.2,3.9,3.3,5l2.6-3h.1ZM26.7,30.1c-.3-1.3-.3-2.6,0-4.1l-3.8-.8c-.4,2-.4,4.1,0,6l3.8-1.1Z"/>
</svg>