<?xml version="1.0" encoding="UTF-8"?>
<svg id="Layer_1" xmlns="http://www.w3.org/2000/svg" version="1.1" viewBox="0 0 56.7 56.7">
  <!-- Generator: Adobe Illustrator 29.8.3, SVG Export Plug-In . SVG Version: 2.1.1 Build 3)  -->
  <defs>
    <style>
      .st0 {
        fill: #f05232;
      }
    </style>
  </defs>
  <path class="st0" d="M41.1,6.6H10.5c.7,3.9,4.6,12.5,12.8,12.5h20.8c.9,0,1.6.7,1.6,1.6s-.7,1.6-1.6,1.6h-20.8c-5.7.1-8.2,4.2-11.4,10L1.4,50.2s12.7,0,17.4,0c4.7,0,6.5-4.1,6.5-4.1l5.2-7.9h-6.8c-.9,0-1.6-.7-1.6-1.6s.7-1.6,1.6-1.6h13.1s0,0,0,0h4.2c7.8,0,14.2-6.3,14.2-14.2s-6.3-14.2-14.2-14.2Z"/>
</svg>