<?xml version="1.0" encoding="UTF-8"?>
<svg id="Layer_1" xmlns="http://www.w3.org/2000/svg" version="1.1" xmlns:xlink="http://www.w3.org/1999/xlink" viewBox="0 0 56.7 56.7">
  <!-- Generator: Adobe Illustrator 29.8.3, SVG Export Plug-In . SVG Version: 2.1.1 Build 3)  -->
  <defs>
    <style>
      .st0, .st1 {
        opacity: .6;
      }

      .st2 {
        fill: url(#linear-gradient1);
      }

      .st1 {
        fill: url(#linear-gradient2);
        isolation: isolate;
      }

      .st3 {
        fill: url(#linear-gradient4);
      }

      .st4 {
        fill: url(#linear-gradient3);
      }

      .st5 {
        fill: url(#linear-gradient);
      }
    </style>
    <linearGradient id="linear-gradient" x1="12.9" y1="-8457.4" x2="74.3" y2="-8457.4" gradientTransform="translate(0 -8430) scale(1 -1)" gradientUnits="userSpaceOnUse">
      <stop offset="0" stop-color="#ff7028"/>
      <stop offset="1" stop-color="#ffcd4d"/>
    </linearGradient>
    <linearGradient id="linear-gradient1" x1="41" y1="-8465.9" x2="-6.8" y2="-8465.9" gradientTransform="translate(0 -8430) scale(1 -1)" gradientUnits="userSpaceOnUse">
      <stop offset="0" stop-color="#ff7028"/>
      <stop offset="1" stop-color="#ffcd4d"/>
    </linearGradient>
    <linearGradient id="linear-gradient2" x1="11.9" y1="-8469.3" x2="25.4" y2="-8469.3" gradientTransform="translate(0 -8430) scale(1 -1)" gradientUnits="userSpaceOnUse">
      <stop offset="0" stop-color="#c44100"/>
      <stop offset="1" stop-color="#c84300" stop-opacity="0"/>
    </linearGradient>
    <linearGradient id="linear-gradient3" x1="83.1" y1="-8441.2" x2="8.5" y2="-8463.3" gradientTransform="translate(0 -8430) scale(1 -1)" gradientUnits="userSpaceOnUse">
      <stop offset="0" stop-color="#ff7028"/>
      <stop offset="1" stop-color="#ffcd4d"/>
    </linearGradient>
    <linearGradient id="linear-gradient4" x1="62.8" y1="-8442.9" x2="-15" y2="-8442.9" gradientTransform="translate(0 -8430) scale(1 -1)" gradientUnits="userSpaceOnUse">
      <stop offset="0" stop-color="#ff7028"/>
      <stop offset="1" stop-color="#ffcd4d"/>
    </linearGradient>
  </defs>
  <g id="Layer_16">
    <g>
      <g>
        <path class="st5" d="M14.8,26.6c2.1-3.8,6.1-6.2,10.5-6.2,10.5-1.1,20.5-1.1,30,0,0,8.3-6.7,14.9-15,14.9H10.1l4.8-8.7h-.1Z"/>
        <path class="st2" d="M13.7,28.6c2.7-5,8-8.1,13.7-8.1h11l-13.2,24.2c-2.2,4.1-6.5,6.6-11.1,6.6H1.4l12.3-22.6h0Z"/>
        <g class="st0">
          <path class="st1" d="M26,43.3c-4.9-7-13-7.9-16-7.9h20.3s-2.9,5.3-4.3,7.9Z"/>
        </g>
      </g>
      <path class="st4" d="M25.3,20.4c-4.4,0-8.4,2.4-10.5,6.2-2.3,4.3-4.7,8.7-4.7,8.7h20.3l8.6-15.8-13.7.8h0Z"/>
      <path class="st3" d="M14.8,14.2c2.1,3.8,6.1,6.2,10.5,6.2h30c0-8.2-6.7-14.9-15-14.9H10.1l4.8,8.7h-.1Z"/>
    </g>
  </g>
</svg>