<?xml version="1.0" encoding="utf-8"?>
<!-- Generator: Adobe Illustrator 25.0.1, SVG Export Plug-In . SVG Version: 6.00 Build 0)  -->
<svg version="1.1" id="Layer_1" xmlns="http://www.w3.org/2000/svg" xmlns:xlink="http://www.w3.org/1999/xlink" x="0px" y="0px"
	 viewBox="0 0 56.7 56.7" style="enable-background:new 0 0 56.7 56.7;" xml:space="preserve">
<style type="text/css">
	.st0{fill:url(#SVGID_1_);}
	.st1{fill:#FFFFFF;}
</style>
<g id="Transak">
	<g>
		
			<linearGradient id="SVGID_1_" gradientUnits="userSpaceOnUse" x1="3.7872" y1="798.1448" x2="52.8934" y2="826.4952" gradientTransform="matrix(1 0 0 1 0 -783.9968)">
			<stop  offset="0.13" style="stop-color:#4E85C5"/>
			<stop  offset="0.31" style="stop-color:#467BBE"/>
			<stop  offset="0.64" style="stop-color:#3B64AF"/>
			<stop  offset="0.72" style="stop-color:#3A5FAC"/>
		</linearGradient>
		<circle class="st0" cx="28.3" cy="28.3" r="28.3"/>
		<path class="st1" d="M46.2,26.6l-8-8l0,0l0,0l0,0c-0.1,0-0.1-0.1-0.2-0.1l-0.1-0.1c0,0,0,0-0.1,0c-0.9-0.6-2.2-0.4-2.9,0.5
			L22.5,31.2V20.1c0-1.2-1-2.2-2.2-2.2s-2.2,1-2.2,2.2v11.1l-4.5-4.5c-0.9-0.8-2.3-0.8-3.1,0.1c-0.8,0.8-0.8,2.2,0,3l8.3,8.3
			c0.1,0.1,0.1,0.1,0.2,0.1s0.1,0.1,0.2,0.1l0,0c0.3,0.2,0.6,0.3,1,0.3l0,0c0.1,0,0.1,0,0.2,0l0,0l0,0c0.1,0,0.1,0,0.2,0l0,0
			c0.1,0,0.1,0,0.2,0l0,0c0.1,0,0.1,0,0.2,0l0,0c0.1,0,0.1,0,0.2-0.1l0,0c0.1,0,0.2-0.1,0.3-0.1h0.1c0.1-0.1,0.2-0.1,0.2-0.2l0,0
			l0.1-0.1l12.6-12.6v11.1c0,1.2,1,2.2,2.2,2.2s2.2-1,2.2-2.2V25.4l4.3,4.3c0.9,0.8,2.3,0.8,3.1,0C47.1,28.8,47.1,27.5,46.2,26.6
			L46.2,26.6z"/>
	</g>
</g>
</svg>
