<?xml version="1.0" encoding="UTF-8"?>
<svg id="Uniswap" xmlns="http://www.w3.org/2000/svg" viewBox="0 0 106.3 91.3">
  <defs>
    <style>
      .cls-1 {
        opacity: .1;
      }

      .cls-1, .cls-2 {
        fill: #ff007a;
      }
    </style>
  </defs>
  <path class="cls-1" d="M70.8,69.8H30.1c-4.4,0-8-3.6-8-8V21.1c0-4.4,3.6-8,8-8h40.7c4.4,0,8,3.6,8,8v40.7c0,4.4-3.6,8-8,8Z"/>
  <path class="cls-2" d="M46.5,29.9c-.5,0-.5,0-.3-.1.4,0,1.4,0,2.1.2,1.6.4,3,1.3,4.5,3l.4.5h.6c2.4-.5,4.9-.2,7,.8.6.3,1.5.8,1.6.9,0,0,.1.3.2.6.2,1,0,1.8-.2,2.4-.2.3-.2.4,0,.7,0,.2.4.4.6.4.5,0,1.1-.8,1.3-2v-.5c.1,0,.3.2.3.2,1.1,1.2,2,3,2.1,4.2v.3s-.2-.3-.2-.3c-.3-.5-.6-.8-1.1-1.1-.7-.5-1.5-.7-3.6-.8-1.9-.1-3-.3-4-.6-1.8-.6-2.7-1.4-4.8-4.2-.9-1.2-1.5-1.9-2.1-2.5-1.3-1.2-2.6-1.9-4.3-2.2ZM62.8,32.7c0-.8.2-1.4.4-1.9,0-.2.2-.4.2-.4s0,.2,0,.3c-.2.5-.2,1.2,0,1.9.2,1,.2,1.1,1.3,2.2.5.5,1.1,1.1,1.3,1.4l.4.5-.4-.4c-.5-.4-1.5-1.3-1.8-1.4-.2,0-.2,0-.3,0,0,0-.1.2-.1.9,0,1-.2,1.6-.5,2.2-.2.3-.2.3,0-.1.1-.3.1-.4.1-1.4,0-1.9-.2-2.4-1.6-3.1-.3-.2-.9-.5-1.2-.6-.4-.2-.6-.3-.6-.3,0,0,1.3.3,1.8.5.8.3.9.3,1,.3,0,0,.1-.2.1-.8ZM47.4,35.9c-.9-1.3-1.5-3.2-1.4-4.7v-.5s.3,0,.3,0c.4,0,1.1.3,1.4.5.9.5,1.3,1.2,1.6,3,.1.5.3,1.1.3,1.3.1.3.5,1.1.9,1.6.2.4,0,.5-.5.5-.8,0-2-.9-2.7-1.8ZM61.7,45.5c-4.3-1.8-5.9-3.3-5.9-5.8s0-.7,0-.7c0,0,.2.1.4.3.9.7,1.9,1,4.6,1.4,1.6.2,2.5.4,3.4.7,2.7.9,4.3,2.7,4.7,5.1.1.7,0,2-.1,2.7-.2.5-.6,1.6-.7,1.6,0,0,0-.1,0-.3,0-.9-.5-1.8-1.3-2.5-.9-.8-2.1-1.4-5-2.5ZM58.7,46.2c0-.3-.2-.7-.2-.9v-.3c-.1,0,0,.2,0,.2.3.3.5.7.7,1.3.2.4.2.5.2,1.2s0,.8-.2,1.2c-.2.6-.5,1-.9,1.5-.8.8-1.8,1.2-3.3,1.4-.3,0-1,0-1.7.1-1.6,0-2.7.3-3.7.6-.1,0-.3,0-.3,0,0,0,.6-.4,1.2-.7.8-.4,1.6-.6,3.3-.9.9-.1,1.7-.3,2-.4,2.2-.7,3.2-2.4,2.9-4.4ZM60.7,49.7c-.6-1.2-.7-2.4-.4-3.6,0-.1,0-.2.1-.2s.2,0,.3.2c.3.2.8.5,2.2,1.2,1.8,1,2.8,1.7,3.5,2.6.6.7,1,1.6,1.2,2.7.1.6,0,2-.1,2.6-.5,1.9-1.6,3.4-3.2,4.2-.2.1-.4.2-.5.2s0-.2.2-.5c.5-1.1.6-2.2.2-3.4-.2-.7-.7-1.6-1.8-3.2-1.2-1.8-1.5-2.2-1.8-2.9ZM44.3,56.4c1.6-1.4,3.6-2.3,5.5-2.6.8-.1,2.1,0,2.8.1,1.2.3,2.2,1,2.8,1.8.5.8.8,1.5,1,3,0,.6.2,1.2.2,1.3.2.8.5,1.4,1,1.7.7.5,1.9.5,3,0,.2,0,.4-.1.4-.1,0,0-.5.4-.9.6-.5.3-1,.4-1.6.4-1.1,0-2-.5-2.7-1.6-.2-.2-.5-.9-.7-1.4-.8-1.8-1.2-2.3-2.1-2.9-.8-.5-1.8-.6-2.6-.2-1,.5-1.3,1.8-.6,2.6.3.3.8.6,1.2.7.8.1,1.5-.5,1.5-1.3s-.2-.8-.7-1.1c-.7-.3-1.5,0-1.4.7,0,.3.1.5.4.6q.2,0,0,0c-.6-.1-.8-.9-.3-1.4.6-.6,1.9-.4,2.3.5.2.4.2,1.1,0,1.5-.4,1-1.4,1.5-2.5,1.2-.7-.2-1-.4-1.9-1.3-1.5-1.6-2.1-1.9-4.3-2.2h-.4c0,0,.5-.5.5-.5ZM32.8,21.1c5.1,6.2,13,15.9,13.4,16.4.3.4.2.9-.4,1.2-.3.2-.9.4-1.2.4s-.8-.2-1.1-.5c-.2-.2-1.1-1.4-3-4.5-1.5-2.3-2.7-4.2-2.7-4.2q0,0,2.6,4.7c1.7,3,2.2,4.1,2.2,4.2,0,.3,0,.4-.4.8-.6.7-.9,1.4-1.1,3-.2,1.7-.8,3-2.5,5-1,1.2-1.1,1.4-1.4,2-.3.6-.4,1-.4,1.8,0,.8,0,1.4.3,2.1.2.7.5,1.2,1.1,2.1.5.8.8,1.4.8,1.6s0,.2.8,0c1.9-.4,3.4-1.2,4.3-2.1.5-.6.7-.9.7-1.7s0-.6-.2-.9c-.2-.5-.6-.9-1.5-1.5-1.2-.8-1.7-1.5-1.8-2.3-.1-.7,0-1.2.7-2.6.7-1.4.9-2,1-3.5,0-.9.2-1.3.4-1.6.3-.3.5-.4,1.2-.5,1.1-.2,1.8-.4,2.4-1,.5-.5.7-.9.7-1.6v-.5s-.3-.3-.3-.3c-1-1.2-15.3-16.9-15.4-16.9s.3.4.7.9ZM39.5,52.3c.2-.4.1-.9-.3-1.2-.4-.2-.9-.1-.9.2s0,.2.2.2c.2.1.2.2,0,.5s-.2.5,0,.6c.3.2.7.1.9-.3ZM48.4,40.8c-.5.2-1,.7-1.2,1.3,0,.4,0,1,.1,1.2.2.3.5.4,1.1.4,1.2,0,2.2-.5,2.3-1.2.1-.5-.4-1.2-1-1.6-.3-.2-1-.2-1.4-.1ZM49.8,41.9c.2-.3.1-.5-.2-.7-.6-.4-1.5,0-1.5.5s.5.6.9.6.7-.2.8-.4Z"/>
</svg>