<?xml version="1.0" encoding="UTF-8"?>
<svg id="Layer_20" data-name="Layer 20" xmlns="http://www.w3.org/2000/svg" viewBox="0 0 56.7 56.7">
  <defs>
    <style>
      .cls-1 {
        fill: #d3ccf6;
      }

      .cls-2 {
        fill: #6b47ed;
      }
    </style>
  </defs>
  <path class="cls-1" d="M48.7,56.7H8c-4.4,0-8-3.6-8-8V8C0,3.6,3.6,0,8,0h40.7C53.1,0,56.7,3.6,56.7,8v40.7c0,4.4-3.6,8-8,8Z"/>
  <g>
    <path class="cls-2" d="M42.02,28.11c5.03-.05,9.06-4.22,9.01-9.32-.05-5.09-4.17-9.18-9.19-9.13-5.03.05-9.06,4.22-9.01,9.32.05,5.09,4.17,9.18,9.19,9.13Z"/>
    <path class="cls-2" d="M17.87,12.47c-2.2-3.05-6.42-3.72-9.42-1.49-3.01,2.23-3.67,6.5-1.48,9.54l17.07,23.72c2.2,3.05,6.4,3.71,9.42,1.49,3.01-2.22,3.67-6.49,1.48-9.54L17.87,12.47Z"/>
  </g>
</svg>