<?xml version="1.0" encoding="UTF-8"?>
<svg id="Wheelx" xmlns="http://www.w3.org/2000/svg" viewBox="0 0 56.7 56.7">
  <defs>
    <style>
      .cls-1 {
        fill: #fff;
      }

      .cls-2 {
        fill: #8143ff;
      }
    </style>
  </defs>
  <path class="cls-2" d="M48.7,56.7H8c-4.4,0-8-3.6-8-8V8C0,3.6,3.6,0,8,0h40.7C53.1,0,56.7,3.6,56.7,8v40.7c0,4.4-3.6,8-8,8Z"/>
  <path class="cls-1" d="M39.5,37.4s0,0,0,0c-.3.3-.6.6-.9.9,0,0,0,0,0,0l-7.8-7.8c.3-.2.6-.5.9-.9l7.8,7.8ZM28.3,31.3c-.2,0-.4,0-.6,0v11.1c0,0,.2,0,.3,0,.1,0,.2,0,.3,0s.2,0,.3,0c.1,0,.2,0,.3,0,0,0,0,0,0,0v-11.1c-.2,0-.4,0-.7,0ZM29.1,43.3h0l7,7.7h3.5v1.2h-9v-1.2h4.1l-6.3-6.9-6.3,6.9h4v1.2h-9v-1.2h3.6l6.9-7.7.4.4-.4-.5h0c-8.7-.3-15.7-7.4-15.7-16.2s7.3-16.3,16.3-16.3,16.3,7.3,16.3,16.3-6.8,15.8-15.5,16.2ZM28.7,43.3c-.1,0-.3,0-.4,0s-.2,0-.3,0c.1,0,.2,0,.3,0s.3,0,.4,0ZM39.5,37.4s0,0,0,0h0c2.4-2.6,4-6.1,4.1-10,0-.1,0-.2,0-.4s0-.2,0-.3c0,0,0-.2,0-.2,0,0,0,0,0,0h0c-.1-3.7-1.6-7.1-4-9.7h0c0,0-.1-.2-.2-.2,0,0,0-.1-.1-.2,0,0,0,0,0,0,0,0-.1-.1-.2-.2,0,0,0,0,0,0,0,0-.1-.1-.2-.2,0,0,0,0,0,0h0c-2.6-2.4-6-3.9-9.7-4.1h0s0,0,0,0c-.1,0-.2,0-.3,0-.1,0-.2,0-.3,0s-.2,0-.3,0c0,0-.2,0-.3,0,0,0,0,0,0,0h0c-3.8.1-7.2,1.7-9.8,4.1h0s0,0,0,0c-2.9,2.7-4.7,6.5-4.9,10.7h0s0,0,0,0c0,0,0,.2,0,.2,0,.1,0,.2,0,.3s0,.2,0,.4c0,4,1.7,7.6,4.3,10.3,0,0,0,0,0,0,0,0,.1.1.2.2,0,0,0,0,0,0,0,0,.1.1.2.1,0,0,.2.2.2.2h0c2.6,2.4,6.1,3.9,9.9,4,.1,0,.2,0,.3,0s.2,0,.3,0c.1,0,.2,0,.3,0,0,0,0,0,0,0h0c3.7-.2,7.1-1.6,9.6-4h0s0,0,0,0c.3-.3.6-.6.9-.9ZM32.5,27.1c0,.3,0,.5,0,.7h11.1c0-.1,0-.2,0-.4,0-.1,0-.2,0-.4s0-.2,0-.3c0,0,0-.2,0-.2,0,0,0,0,0,0h-11.1c0,.2,0,.4,0,.5ZM17.1,16.8l7.8,7.8c.2-.3.5-.6.9-.9l-7.8-7.8s0,0,0,0c-.3.3-.6.6-.9.9ZM28.3,22.8c.2,0,.5,0,.7,0v-11.1s0,0,0,0c-.1,0-.2,0-.3,0-.1,0-.2,0-.3,0s-.2,0-.3,0c0,0-.2,0-.3,0,0,0,0,0,0,0v11.1c.2,0,.4,0,.6,0ZM31.8,24.6l7.8-7.8c0,0-.1-.2-.2-.2,0,0,0-.1-.1-.2,0,0,0,0,0,0,0,0-.1-.1-.2-.2,0,0,0,0,0,0,0,0-.1-.1-.2-.2,0,0,0,0,0,0l-7.8,7.8c.3.3.6.6.9.9ZM25,29.6l-7.8,7.8c0,0,.1.1.2.2,0,0,0,0,0,0,0,0,.1.1.2.2,0,0,0,0,0,0,0,0,.1,0,.2.1,0,0,.2.2.2.2l7.8-7.8c-.3-.2-.7-.5-.9-.9ZM24.2,27.8c0-.2,0-.5,0-.7s0-.4,0-.5h-11.1s0,0,0,0c0,0,0,.2,0,.2,0,.1,0,.2,0,.3s0,.2,0,.4c0,.1,0,.2,0,.4h11.1ZM28.3,22.8c-2.3,0-4.2,1.9-4.2,4.2s1.9,4.2,4.2,4.2,4.2-1.9,4.2-4.2-1.9-4.2-4.2-4.2ZM12.3,15.7c-1.3-1.3-1.3-3.3,0-4.6,1.3-1.3,3.3-1.3,4.6,0s1.2,2.6.6,3.8c-.5.4-1,.9-1.4,1.4-1.2.6-2.8.4-3.8-.6ZM27.4,10.8c.3,0,.6,0,1,0s.7,0,1,0c1.3-.4,2.3-1.6,2.3-3.1s-1.5-3.3-3.3-3.3-3.3,1.5-3.3,3.3.9,2.7,2.3,3.1ZM40.4,16.2c1.2.7,2.9.6,3.9-.5s1.3-3.3,0-4.6c-1.3-1.3-3.3-1.3-4.6,0-1.1,1.1-1.2,2.7-.5,3.9.4.4.8.8,1.2,1.2ZM17.2,38.9c-.2-.2-.4-.4-.6-.6-1.3-.9-3.1-.8-4.2.3-1.3,1.3-1.3,3.3,0,4.6s3.3,1.3,4.6,0c1.2-1.2,1.3-3,.3-4.3ZM47.8,23.9c-1.6,0-3,1.2-3.2,2.7,0,.1,0,.3,0,.4s0,.4,0,.6c.2,1.6,1.6,2.8,3.2,2.8s3.3-1.5,3.3-3.3-1.5-3.3-3.3-3.3ZM12.1,27.1c0-.2,0-.5,0-.7-.4-1.4-1.6-2.4-3.1-2.4s-3.3,1.5-3.3,3.3,1.5,3.3,3.3,3.3,2.8-1,3.2-2.5c0-.3,0-.6,0-.9ZM39.8,38.6c-1.3,1.3-1.3,3.3,0,4.6,1.3,1.3,3.3,1.3,4.6,0s1.3-3.3,0-4.6c-1.3-1.3-3.3-1.3-4.6,0Z"/>
</svg>