<?xml version="1.0" encoding="UTF-8"?>
<svg id="XT" xmlns="http://www.w3.org/2000/svg" viewBox="0 0 56.7 56.7">
  <defs>
    <style>
      .cls-1 {
        fill: #ffbe40;
      }
    </style>
  </defs>
  <path class="cls-1" d="M54.4,42.3c1.2,1.2,1.2,3.1,0,4.2l-7.9,7.9c-1.2,1.2-3.1,1.2-4.2,0l-13.9-13.9-13.9,13.9c-1.2,1.2-3.1,1.2-4.2,0l-7.9-7.9c-1.2-1.2-1.2-3.1,0-4.2L42.3,2.3c1.2-1.2,3.1-1.2,4.2,0l7.9,7.9c1.2,1.2,1.2,3.1,0,4.2l-13.9,13.9,13.9,13.9ZM10.1,22.3c1.2,1.2,3.1,1.2,4.2,0l7.9-7.9c1.2-1.2,1.2-3.1,0-4.2l-7.9-7.9c-1.2-1.2-3.1-1.2-4.2,0l-7.9,7.9c-1.2,1.2-1.2,3.1,0,4.2l7.9,7.9Z"/>
</svg>