<?xml version="1.0" encoding="UTF-8"?>
<svg id="Layer_1" xmlns="http://www.w3.org/2000/svg" version="1.1" viewBox="0 0 56.7 56.7">
  <!-- Generator: Adobe Illustrator 29.4.0, SVG Export Plug-In . SVG Version: 2.1.0 Build 152)  -->
  <defs>
    <style>
      .st0 {
        fill: #fff;
      }

      .st1 {
        fill: #2072ef;
      }
    </style>
  </defs>
  <g id="Zebpay">
    <path class="st1" d="M48.7,56.7H8c-4.4,0-8-3.6-8-8V8C0,3.6,3.6,0,8,0h40.7C53.1,0,56.7,3.6,56.7,8v40.7c0,4.4-3.6,8-8,8Z"/>
    <path class="st0" d="M8.6,33s-1.5,1.5-1.5,3.5.2,2,1.1,3h0c.3.3.6.6,1.1.8h.4c.2,0,.4,0,.7.2.6,0,1.3.2,2.2,0h1.2c1.4-.3,3-.8,5-1.8l-8.3-7.9c-.7.7-1.3,1.4-1.9,2h0ZM12.8,28.7l9.1,8.6c.8-.3,1.9-.5,3.1-.6l-10.3-9.8c-.6.6-1.2,1.1-1.9,1.7h0ZM17.3,25.2s20.5,19.5,19.8,18.8l1.6-1.9-19.5-18.5c-.6.5-1.2,1-1.9,1.7h0ZM23.3,19.8s-.5.4-1.4,1.1c0,0-.1.1-.4.3h0l19.3,18.4,1.6-1.9-19-18.1h0v.2ZM22.6,13s-.7.2-1.1.8l22.7,21.6,1.6-1.9L24,12.7c-.5,0-1,.2-1.4.3ZM33.2,13.8s-1.9-.6-4.3-1l19.2,18.2,1.6-1.9-1.3-1.2-14.5-13.8c-.2,0-.5-.2-.7-.3Z"/>
  </g>
</svg>