<?xml version="1.0" encoding="UTF-8"?>
<svg id="Layer_2" xmlns="http://www.w3.org/2000/svg" version="1.1" viewBox="0 0 283.5 141.7">
  <!-- Generator: Adobe Illustrator 29.7.1, SVG Export Plug-In . SVG Version: 2.1.1 Build 8)  -->
  <defs>
    <style>
      .st0 {
        fill: #21bcec;
      }

      .st1 {
        fill: #00aceb;
      }

      .st2 {
        fill: #ffa726;
      }

      .st3 {
        fill: #009cdd;
      }
    </style>
  </defs>
  <path class="st1" d="M53.5,56.8l-2,7.6c-.4,0-.7-.1-1.1-.1-.6,0-1.1,0-1.6.2-.9.2-1.7.7-2.4,1.3l-5.5-5.5c.7-.7,1.5-1.3,2.4-1.8l.4-.2c1-.5,2.1-1,3.2-1.3,1.2-.3,2.4-.5,3.7-.5s2.1.1,3.2.4h0Z"/>
  <path class="st0" d="M92.4,67.4c.2,1,.4,2.1.4,3.2s-.2,2.5-.5,3.7c-.3,1.1-.7,2.2-1.3,3.2l-.3.4c-.5.8-1.1,1.6-1.8,2.4l-5.5-5.5c.6-.7,1-1.5,1.3-2.4.1-.5.2-1.1.2-1.6s0-.7,0-1.1c0,0,7.6-2.1,7.6-2.1Z"/>
  <path class="st3" d="M76.5,76.5l-2,7.6c-.9-.3-1.8-.7-2.7-1.1l-.4-.2c-1-.6-1.9-1.3-2.7-2.1,0,0,0,0,0,0l-.4-.4c-.3-.3-.6-.7-.9-1.1l5.5-5.5,1.2,1.3c0,0,.1.1.2.2.6.7,1.4,1.2,2.3,1.5h0Z"/>
  <path class="st3" d="M61.7,62.1l-5.5,5.5h0l-1.2-1.3c0,0-.1-.1-.2-.2-.7-.7-1.5-1.2-2.3-1.5l2-7.6c.9.3,1.8.7,2.7,1.1l.4.2c1,.6,1.9,1.3,2.7,2.1,0,0,0,0,0,0l.4.4c.3.4.6.7.9,1.1h0Z"/>
  <path class="st1" d="M82.7,75.4l5.5,5.6c-.7.7-1.5,1.3-2.4,1.8l-.4.2c-1,.5-2.1,1-3.2,1.3-1.2.3-2.4.5-3.7.5s-2.1-.1-3.2-.4l2-7.6c.4,0,.7.1,1.1.1.6,0,1.1,0,1.6-.2.9-.2,1.7-.7,2.4-1.3h0Z"/>
  <path class="st2" d="M53.8,75.8l5.5,5.6c-.5.4-1.1.8-1.7,1.2l-.4.3c-1,.6-2.1,1-3.2,1.3-1.2.3-2.4.5-3.7.5s-2.5-.2-3.7-.5c-1.1-.3-2.2-.7-3.2-1.3l-.5-.3c-1-.6-1.9-1.3-2.7-2.1s-1.5-1.7-2.1-2.7l-.2-.4c-.5-.8-.9-1.7-1.1-2.7l7.6-2.1c.3.9.8,1.7,1.5,2.4.8.8,1.7,1.3,2.8,1.6.5.1,1.1.2,1.6.2s1.1,0,1.6-.2c.6-.2,1.3-.4,1.8-.8h0Z"/>
  <path class="st0" d="M40,61l5.5,5.5c-.6.7-1,1.5-1.3,2.4-.1.5-.2,1.1-.2,1.6s0,.7,0,1.1l-7.6,2.1c-.2-1-.4-2.1-.4-3.2s.2-2.5.5-3.7c.3-1.1.7-2.2,1.3-3.2l.3-.4c.5-.8,1.1-1.6,1.8-2.4Z"/>
  <path class="st2" d="M92.1,66.4l-7.6,2.1c-.3-.9-.8-1.7-1.5-2.4-.8-.8-1.7-1.3-2.8-1.6-.5-.1-1.1-.2-1.6-.2s-1.1,0-1.6.2c-.6.2-1.3.5-1.8.8l-5.5-5.6c.5-.4,1.1-.8,1.7-1.2l.4-.3c1-.5,2.1-1,3.2-1.3,1.2-.3,2.4-.5,3.7-.5s2.5.2,3.7.5c1.1.3,2.2.7,3.2,1.3l.5.3c1,.6,1.9,1.3,2.7,2.1s1.5,1.7,2.1,2.7l.2.4c.5.9.9,1.7,1.1,2.7h0Z"/>
  <polygon points="103.4 77.4 103.4 63.6 105.6 63.6 111.3 72.7 111.3 63.6 114.1 63.6 114.1 77.4 111.8 77.4 106.1 68.3 106.1 77.4 103.4 77.4"/>
  <path d="M123,77.5c-.3,0-.6,0-1,0-.4,0-.8-.2-1.1-.4-.3-.2-.6-.5-.9-.9-.2-.4-.3-1-.3-1.7v-7.7c0-.6,0-1.1.3-1.5.2-.4.4-.7.7-1s.6-.4,1-.5c.4,0,.7-.2,1.1-.2.9,0,1.7,0,2.4,0,.7,0,1.4,0,1.9,0,.6,0,1.1,0,1.6.1v2.3h-5.1c-.4,0-.7,0-.9.3-.2.2-.3.5-.3.9v2l5.4.2v2.2l-5.4.2v1.9c0,.3,0,.6.2.8.1.2.3.3.4.4.2,0,.4,0,.6,0h5.2v2.3c-.5,0-1.1.1-1.8.2-.7,0-1.3,0-2,0-.7,0-1.3,0-1.9,0h0Z"/>
  <polygon points="136.9 77.4 136.9 66.1 133.1 66.1 133.1 63.6 143.4 63.6 143.4 66.1 139.6 66.1 139.6 77.4 136.9 77.4"/>
  <polygon points="148.2 77.4 148.2 63.6 150.9 63.6 150.9 69.4 156.1 69.4 156.1 63.6 158.8 63.6 158.8 77.4 156.1 77.4 156.1 71.9 150.9 71.9 150.9 77.4 148.2 77.4"/>
  <path d="M167.8,77.5c-.3,0-.6,0-1,0-.4,0-.8-.2-1.1-.4-.3-.2-.6-.5-.9-.9-.2-.4-.3-1-.3-1.7v-7.7c0-.6,0-1.1.3-1.5.2-.4.4-.7.7-1,.3-.2.6-.4,1-.5.4,0,.7-.2,1.1-.2.9,0,1.7,0,2.4,0,.7,0,1.4,0,1.9,0,.6,0,1.1,0,1.6.1v2.3h-5.1c-.4,0-.7,0-.9.3-.2.2-.3.5-.3.9v2l5.4.2v2.2l-5.4.2v1.9c0,.3,0,.6.2.8.1.2.3.3.4.4.2,0,.4,0,.6,0h5.2v2.3c-.5,0-1.1.1-1.8.2-.7,0-1.3,0-2,0-.7,0-1.3,0-1.9,0h0Z"/>
  <path d="M178.9,77.4v-13.8h5.7c.5,0,1,0,1.5.2.5.1.9.3,1.2.7.4.3.6.8.8,1.3.2.6.3,1.3.3,2.2s0,1.2-.2,1.6-.3.8-.5,1.1c-.2.3-.4.5-.7.7-.3.2-.5.3-.8.4l2.6,5.6h-2.8l-2.2-5.1h-.5c-.2,0-.4,0-.6,0h-.6c-.2,0-.4,0-.5,0v5.2h-2.7ZM181.6,70.1h2.4c.2,0,.5,0,.7,0,.2,0,.4-.2.5-.3.2-.2.3-.4.3-.6,0-.3.1-.6.1-1s0-.7-.1-1c0-.3-.2-.5-.3-.6-.2-.2-.3-.2-.5-.3-.2,0-.4,0-.7,0h-2.4v4Z"/>
  <polygon points="193.4 77.4 195 63.6 197.6 63.6 200.8 74.2 203.9 63.6 206.5 63.6 208.1 77.4 205.5 77.4 204.3 67.3 204.7 67.3 202 77.4 199.5 77.4 196.7 67.3 197.2 67.3 196.1 77.4 193.4 77.4"/>
  <rect x="213.4" y="63.6" width="2.7" height="13.8"/>
  <polygon points="222 77.4 222 63.6 224.2 63.6 229.9 72.7 229.9 63.6 232.6 63.6 232.6 77.4 230.4 77.4 224.7 68.3 224.7 77.4 222 77.4"/>
  <path d="M238.2,77.4v-13.8h5.8c.9,0,1.7.2,2.3.5.6.3,1.1.8,1.5,1.4.4.6.6,1.3.8,2.2.2.8.2,1.8.2,2.8,0,1.6-.2,2.8-.5,3.9-.3,1-.9,1.8-1.6,2.3-.7.5-1.6.7-2.7.7h-5.8ZM241,75h2.8c.6,0,1-.2,1.4-.5.3-.3.6-.8.7-1.5.2-.7.2-1.5.2-2.4s0-1.6-.2-2.2c0-.6-.2-1-.4-1.4-.2-.3-.4-.5-.7-.7-.3-.1-.6-.2-1-.2h-2.8v8.9h0Z"/>
</svg>