<?xml version="1.0" encoding="utf-8"?>
<!-- Generator: Adobe Illustrator 25.0.1, SVG Export Plug-In . SVG Version: 6.00 Build 0)  -->
<svg version="1.1" xmlns="http://www.w3.org/2000/svg" xmlns:xlink="http://www.w3.org/1999/xlink" x="0px" y="0px"
	 viewBox="0 0 283.5 141.7" style="enable-background:new 0 0 283.5 141.7;" xml:space="preserve">
<style type="text/css">
	.st0{display:none;}
	.st1{display:inline;fill-rule:evenodd;clip-rule:evenodd;fill:#383838;}
	.st2{display:inline;fill-rule:evenodd;clip-rule:evenodd;fill:#FFFFFF;}
	.st3{display:inline;}
	.st4{fill-rule:evenodd;clip-rule:evenodd;fill:#F15B2D;}
	.st5{fill:#F15B2E;}
	.st6{fill:#498DCB;}
	.st7{fill:#222C60;}
	.st8{fill:#CE5827;}
	.st9{fill:#F29D1F;}
	.st10{fill-rule:evenodd;clip-rule:evenodd;fill:#FFFFFF;}
	.st11{fill:#103356;}
	.st12{fill-rule:evenodd;clip-rule:evenodd;fill:#239DCA;}
	.st13{fill:#213646;}
	.st14{fill-rule:evenodd;clip-rule:evenodd;fill:#213646;}
	.st15{fill-rule:evenodd;clip-rule:evenodd;fill:#EB5D5C;}
	.st16{fill-rule:evenodd;clip-rule:evenodd;fill:#E53232;}
	.st17{fill-rule:evenodd;clip-rule:evenodd;fill:#EC5E5A;}
	.st18{fill-rule:evenodd;clip-rule:evenodd;fill:#BD2626;}
	.st19{fill-rule:evenodd;clip-rule:evenodd;fill:#9E2621;}
	.st20{fill-rule:evenodd;clip-rule:evenodd;fill:#E84644;}
	.st21{fill-rule:evenodd;clip-rule:evenodd;fill:#E53333;}
	.st22{fill-rule:evenodd;clip-rule:evenodd;fill:#32AF83;}
	.st23{fill:#221F20;}
	.st24{fill:#17120C;}
	.st25{fill:none;}
	.st26{fill:#EBEBEB;}
	.st27{fill:#84D1D6;}
	.st28{fill-rule:evenodd;clip-rule:evenodd;fill:url(#_388292592_1_);}
	.st29{fill-rule:evenodd;clip-rule:evenodd;fill:#DD4326;}
	.st30{fill-rule:evenodd;clip-rule:evenodd;fill:#1F1C1F;}
	.st31{clip-path:url(#SVGID_2_);fill-rule:evenodd;clip-rule:evenodd;fill:#FFD133;}
	.st32{fill-rule:evenodd;clip-rule:evenodd;fill:#303030;}
	.st33{fill:#303030;}
	.st34{fill:#5459A7;}
	.st35{fill:#4CBD95;}
	.st36{fill:#010101;}
	.st37{fill:#1169A9;}
	.st38{fill:#43BBEC;}
	.st39{fill:#353535;}
	.st40{fill:#57BF93;}
	.st41{fill-rule:evenodd;clip-rule:evenodd;fill:url(#_595005792_1_);}
	.st42{fill:#FFFFFF;}
	.st43{fill:#444343;}
	.st44{fill-rule:evenodd;clip-rule:evenodd;fill:#02724E;}
	.st45{fill-rule:evenodd;clip-rule:evenodd;fill:#5C5F5F;}
	.st46{fill:#1F3D75;}
	.st47{fill:#0B1D2B;}
	.st48{fill:#2C6381;}
	.st49{fill:#B5B6B6;}
	.st50{fill:#E6E6E5;}
	.st51{clip-path:url(#SVGID_4_);}
	.st52{fill:#4660AC;}
	.st53{fill:#282828;}
	.st54{fill:url(#SVGID_5_);}
</style>
<g id="Light_copy" class="st0">
	<rect x="4.2" y="4.9" class="st1" width="275" height="132"/>
</g>
<g id="Light" class="st0">
	<rect x="4.2" y="4.9" class="st2" width="275" height="132"/>
</g>
<g id="hashlabs" class="st0">
	<g class="st3">
		<path class="st4" d="M75.4,81.5V69.2H63.2V44.8H35.4v27.7h24.4V97h27.7V81.4L75.4,81.5L75.4,81.5L75.4,81.5z M51,69.2v-6.5h-3.3
			v6.5h-8.9V48.1h8.9v6.5H51v-6.5h8.9v21.1H51z M84.3,93.6H63.2V72.5h8.9v12.3h12.2V93.6z"/>
		<g>
			<path d="M114.7,61h4.1v18.5h-4.1v-7.3h-7.3v7.3h-4.1V61h4.1v7.7h7.3V61z"/>
			<path d="M135.1,79.5h-3.7v-1.7c-1,1.3-2.3,1.9-3.8,1.9c-1.5,0-2.8-0.4-3.8-1.3c-1-0.9-1.5-2-1.5-3.5c0-1.5,0.5-2.5,1.6-3.3
				c1.1-0.7,2.5-1.1,4.3-1.1h3v-0.1c0-1.5-0.8-2.3-2.4-2.3c-0.7,0-1.4,0.1-2.2,0.4c-0.8,0.3-1.4,0.6-1.9,1l-1.8-2.6
				c1.9-1.4,4-2,6.4-2c1.7,0,3.1,0.4,4.2,1.3c1.1,0.9,1.6,2.2,1.6,4.1V79.5z M131.1,74.1v-0.7h-2.5c-1.6,0-2.4,0.5-2.4,1.5
				c0,0.5,0.2,0.9,0.6,1.2c0.4,0.3,0.9,0.4,1.6,0.4c0.7,0,1.3-0.2,1.9-0.6C130.8,75.4,131.1,74.8,131.1,74.1z"/>
			<path d="M149.4,75c0,1.4-0.5,2.5-1.5,3.4c-1,0.8-2.3,1.3-3.9,1.3c-1.1,0-2.2-0.2-3.3-0.6c-1.1-0.4-2.2-0.9-3.1-1.7l1.7-2.5
				c1.5,1.1,3.1,1.7,4.7,1.7c0.5,0,0.9-0.1,1.2-0.3c0.3-0.2,0.4-0.5,0.4-0.8c0-0.3-0.2-0.6-0.6-0.9c-0.4-0.3-1-0.5-1.8-0.8
				c-0.8-0.2-1.4-0.5-1.8-0.6c-0.4-0.2-0.9-0.4-1.4-0.8c-1.1-0.7-1.6-1.7-1.6-3c0-1.3,0.5-2.4,1.6-3.2c1.1-0.8,2.4-1.2,4.1-1.2
				c1.7,0,3.3,0.6,5,1.7l-1.5,2.6c-1.2-0.8-2.5-1.3-3.7-1.3c-1.2,0-1.8,0.3-1.8,1c0,0.4,0.2,0.7,0.6,0.9c0.4,0.2,1,0.5,1.9,0.7
				c0.9,0.3,1.5,0.5,1.9,0.6c0.4,0.1,0.8,0.4,1.4,0.7C148.9,72.6,149.4,73.6,149.4,75z"/>
			<path d="M156.4,71.8v7.7h-4V59.9h4v7c1.2-1.2,2.5-1.8,4-1.8c1.5,0,2.7,0.5,3.8,1.6c1,1.1,1.5,2.5,1.5,4.2v8.6h-4v-7.8
				c0-2.2-0.8-3.3-2.4-3.3c-0.8,0-1.5,0.3-2.1,0.9C156.7,69.9,156.4,70.7,156.4,71.8z"/>
			<path d="M176.7,79.5V61h4.1v14.8h7.9v3.7H176.7z"/>
			<path d="M203.3,79.5h-3.7v-1.7c-1,1.3-2.3,1.9-3.8,1.9c-1.5,0-2.8-0.4-3.8-1.3c-1-0.9-1.5-2-1.5-3.5c0-1.5,0.5-2.5,1.6-3.3
				c1.1-0.7,2.5-1.1,4.3-1.1h3v-0.1c0-1.5-0.8-2.3-2.4-2.3c-0.7,0-1.4,0.1-2.2,0.4c-0.8,0.3-1.4,0.6-1.9,1l-1.8-2.6
				c1.9-1.4,4-2,6.4-2c1.7,0,3.1,0.4,4.2,1.3c1.1,0.9,1.6,2.2,1.6,4.1V79.5z M199.3,74.1v-0.7h-2.5c-1.6,0-2.4,0.5-2.4,1.5
				c0,0.5,0.2,0.9,0.6,1.2c0.4,0.3,0.9,0.4,1.6,0.4c0.7,0,1.3-0.2,1.9-0.6C199.1,75.4,199.3,74.8,199.3,74.1z"/>
			<path d="M215.1,65c1.7,0,3.2,0.7,4.5,2c1.3,1.3,1.9,3.1,1.9,5.2c0,2.1-0.7,3.9-2,5.3c-1.3,1.4-2.8,2.1-4.5,2.1
				c-1.7,0-3.1-0.7-4.2-2.1v1.9h-4V59.9h4v7C212,65.6,213.4,65,215.1,65z M210.9,72.4c0,1.2,0.3,2.1,1,2.8c0.6,0.7,1.4,1.1,2.3,1.1
				c0.9,0,1.7-0.4,2.4-1.1c0.7-0.7,1-1.7,1-2.8s-0.3-2.1-1-2.9c-0.7-0.8-1.5-1.2-2.4-1.2c-0.9,0-1.7,0.4-2.4,1.2
				C211.2,70.3,210.9,71.2,210.9,72.4z"/>
			<path d="M235.1,75c0,1.4-0.5,2.5-1.5,3.4c-1,0.8-2.3,1.3-3.9,1.3c-1.1,0-2.2-0.2-3.3-0.6c-1.1-0.4-2.2-0.9-3.1-1.7L225,75
				c1.5,1.1,3.1,1.7,4.7,1.7c0.5,0,0.9-0.1,1.2-0.3c0.3-0.2,0.4-0.5,0.4-0.8c0-0.3-0.2-0.6-0.6-0.9c-0.4-0.3-1-0.5-1.8-0.8
				c-0.8-0.2-1.4-0.5-1.8-0.6c-0.4-0.2-0.9-0.4-1.4-0.8c-1.1-0.7-1.6-1.7-1.6-3c0-1.3,0.5-2.4,1.6-3.2c1.1-0.8,2.4-1.2,4.1-1.2
				c1.7,0,3.3,0.6,5,1.7l-1.5,2.6c-1.2-0.8-2.5-1.3-3.7-1.3s-1.8,0.3-1.8,1c0,0.4,0.2,0.7,0.6,0.9c0.4,0.2,1,0.5,1.9,0.7
				c0.9,0.3,1.5,0.5,1.9,0.6c0.4,0.1,0.8,0.4,1.4,0.7C234.6,72.6,235.1,73.6,235.1,75z"/>
			<path class="st5" d="M244.1,76c-0.4-0.4-0.7-1-0.7-1.7c0-0.7,0.2-1.2,0.7-1.7c0.4-0.4,1-0.7,1.7-0.7c0.7,0,1.2,0.2,1.7,0.7
				c0.4,0.4,0.7,1,0.7,1.7c0,0.7-0.2,1.2-0.7,1.7c-0.4,0.4-1,0.7-1.7,0.7C245.1,76.7,244.5,76.5,244.1,76z"/>
		</g>
	</g>
</g>
<g id="_x34_re_labs" class="st0">
	<g class="st3">
		<path class="st6" d="M35.4,77.5V39.7l37.8,0L35.4,77.5z"/>
		<path class="st7" d="M73.2,39.7v37.8H35.4L73.2,39.7z"/>
		<rect x="73.2" y="39.7" class="st6" width="23.8" height="37.8"/>
		<rect x="35.4" y="77.5" class="st8" width="37.8" height="23.8"/>
		<rect x="73.2" y="77.5" class="st9" width="23.8" height="23.8"/>
		<path class="st10" d="M152.3,32.6l-43.1,59.1h34.5v17.3h8.6V32.6z M143.6,57.5V83h-17.9L143.6,57.5z"/>
		<path class="st10" d="M160.9,91.6h8.6V52.4h-8.6V91.6z"/>
		<path class="st10" d="M218.3,52.4v39.2H248V84h-20.9v-8.4h18.3v-7.2h-18.3v-8.4h20.6v-7.4H218.3z"/>
		<path class="st10" d="M186.7,71.6h8.7c2.1,0,3.7-0.5,4.9-1.6c1.2-1,1.7-2.4,1.7-4.2c0-1.9-0.6-3.3-1.8-4.3c-1.2-1-2.9-1.5-5-1.5
			h-8.6V71.6z M178.1,91.6V52.4h17.7c4.9,0,8.7,1.3,11.3,4c2.2,2.2,3.3,5.3,3.3,9.1c0,6-2.8,10.1-8.3,12.2l9.5,14h-10l-8.4-12.5
			h-6.6v12.5H178.1z"/>
	</g>
</g>
<g id="Sotatek" class="st0">
	<g id="_210211472" class="st3">
		<path id="_210209072" class="st11" d="M114.3,78.4c0,2.3-0.7,4.1-2.1,5.3c-1.4,1.2-3.4,1.8-5.9,1.8H93.2v-4.2h13.9
			c0.8,0,1.4-0.3,2-0.9c0.5-0.6,0.8-1.3,0.8-2.1c0-0.8-0.3-1.4-0.8-2c-0.5-0.6-1.2-0.9-2-0.9H100c-1.5,0-2.7-0.2-3.7-0.6
			c-1-0.4-1.8-1-2.5-1.6c-0.6-0.7-1.1-1.4-1.4-2.3C92.1,70,92,69.2,92,68.4c0-1,0.1-1.9,0.4-2.8c0.3-0.9,0.8-1.6,1.4-2.3
			c0.7-0.7,1.5-1.2,2.5-1.5c1-0.4,2.2-0.6,3.7-0.6h12.7v4.2H99.3c-0.4,0-0.8,0.1-1.1,0.2c-0.3,0.2-0.6,0.4-0.9,0.6
			c-0.3,0.3-0.5,0.6-0.6,0.9c-0.2,0.3-0.2,0.7-0.2,1.1c0,0.8,0.3,1.5,0.8,2c0.6,0.5,1.3,0.8,2.1,0.8h7.1c2.5,0,4.4,0.6,5.8,1.8
			c1.4,1.2,2.1,2.9,2.1,5.3L114.3,78.4L114.3,78.4z"/>
		<path id="_2102090721" class="st11" d="M127.7,65.5c-2,0-3.5,0.6-4.5,1.9c-1,1.3-1.5,3.3-1.5,6c0,5.2,2,7.8,6,7.8h4.3
			c4,0,6-2.6,6-7.8c0-2.7-0.5-4.7-1.5-6c-1-1.3-2.5-1.9-4.5-1.9H127.7z M130.8,61.2c7.7,0,11.5,4,11.6,12v0.1
			c0,8-3.9,12.1-11.6,12.1h-2c-7.7,0-11.6-4-11.6-12.1v-0.1c0-8,3.9-12,11.6-12H130.8L130.8,61.2z"/>
		<polygon id="_21020907212" class="st11" points="155.6,85.4 151.2,85.4 151.2,65.5 144.9,65.5 144.9,61.2 161.5,61.2 161.5,65.5 
			155.6,65.5 		"/>
		<path id="_210209072123" class="st11" d="M180.7,85.4l-7.2-19.2c-0.2-0.4-0.5-0.7-1-0.7c-0.5,0-0.8,0.2-1,0.7l-7.2,19.2h-4.7
			l7.9-21.1c0.4-1.1,1-1.8,1.9-2.4c0.9-0.5,1.9-0.8,3.1-0.8s2.2,0.3,3.1,0.8c0.9,0.5,1.5,1.3,1.9,2.4l7.9,21.1H180.7L180.7,85.4z"/>
		<polygon id="_2102090721234" class="st11" points="194,85.4 189.6,85.4 189.6,65.5 183.3,65.5 183.3,61.2 199.9,61.2 199.9,65.5 
			194,65.5 		"/>
		<path id="_21020907212345" class="st11" d="M223.1,65.5h-13.4c-0.4,0-0.8,0.1-1.1,0.2c-0.3,0.2-0.6,0.4-0.9,0.6s-0.5,0.6-0.6,0.9
			c-0.2,0.3-0.2,0.7-0.2,1.1c0,0.8,0.3,1.5,0.8,2c0.5,0.5,1.2,0.8,2.1,0.8h13.4v4.2h-13.4c-0.4,0-0.8,0.1-1.1,0.2
			c-0.3,0.2-0.6,0.4-0.9,0.6c-0.3,0.3-0.5,0.6-0.6,0.9c-0.2,0.3-0.2,0.7-0.2,1.1c0,0.9,0.3,1.6,0.8,2.2c0.5,0.6,1.2,0.8,2.1,0.8
			h13.4v4.2h-12.7c-1.5,0-2.7-0.2-3.7-0.6c-1-0.4-1.8-1-2.5-1.6c-0.6-0.7-1.1-1.4-1.4-2.3c-0.3-0.9-0.4-1.7-0.4-2.6
			c0-1,0.2-1.9,0.6-2.8c0.4-0.9,1.1-1.6,2.1-2.2c-1-0.6-1.7-1.3-2.1-2.2c-0.4-0.9-0.6-1.8-0.6-2.7c0-1,0.2-2,0.5-2.9
			s0.8-1.6,1.5-2.3c0.7-0.6,1.5-1.1,2.5-1.5c1-0.4,2.2-0.5,3.6-0.5h12.7L223.1,65.5L223.1,65.5z"/>
		<polygon id="_210209072123456" class="st11" points="231.2,85.4 226.7,85.4 226.7,61.2 231.2,61.2 231.2,68.9 248,61 248,65.9 
			231.1,73.3 248,81 248,85.7 231.2,77.7 		"/>
		<path id="_213659648" class="st12" d="M44.9,85.7c0.3-0.4,0.6-0.7,0.9-1.1c5.6-6.4,15.3-7,21.6-1.4c6.4,5.6,7,15.3,1.4,21.6
			c-0.3,0.4-0.6,0.7-1,1L44.9,85.7L44.9,85.7z M86.4,56.1c-0.3,0.4-0.6,0.7-0.9,1.1c-5.6,6.4-15.3,7-21.6,1.4
			c-6.4-5.6-7-15.3-1.4-21.6c0.3-0.4,0.6-0.7,1-1L86.4,56.1L86.4,56.1z M42.5,84.2c-0.4-0.2-0.8-0.5-1.1-0.8
			c-6.7-5.2-7.9-14.8-2.8-21.5c5.2-6.7,14.8-7.9,21.5-2.8c0.4,0.3,0.7,0.6,1.1,0.9L42.5,84.2L42.5,84.2z"/>
	</g>
</g>
<g id="Solulab" class="st0">
	<g id="_213653792" class="st3">
		<path id="_215008584" class="st13" d="M80.9,77l4.2-0.4c0.2,1.7,0.7,3.1,1.4,4.2c0.7,1.1,1.8,2,3.4,2.7c1.5,0.7,3.2,1,5.1,1
			c1.7,0,3.2-0.3,4.5-0.8c1.3-0.5,2.3-1.2,2.9-2.1c0.6-0.9,0.9-1.9,0.9-2.9c0-1.1-0.3-2-0.9-2.8c-0.6-0.8-1.6-1.5-3-2
			c-0.9-0.4-2.9-0.9-5.9-1.7c-3.1-0.8-5.2-1.5-6.4-2.1c-1.6-0.9-2.8-1.9-3.6-3.2c-0.8-1.3-1.2-2.7-1.2-4.3c0-1.7,0.5-3.3,1.4-4.8
			c1-1.5,2.4-2.7,4.2-3.4c1.8-0.8,3.9-1.2,6.1-1.2c2.5,0,4.7,0.4,6.6,1.2c1.9,0.8,3.3,2,4.4,3.6c1,1.6,1.6,3.4,1.6,5.4l-4.2,0.3
			c-0.2-2.2-1-3.8-2.3-4.9c-1.3-1.1-3.2-1.7-5.8-1.7c-2.7,0-4.6,0.5-5.8,1.5c-1.2,1-1.8,2.2-1.8,3.6c0,1.2,0.4,2.3,1.3,3
			c0.9,0.8,3.1,1.6,6.7,2.4c3.6,0.8,6.1,1.6,7.4,2.2c1.9,0.9,3.4,2.1,4.3,3.5c0.9,1.4,1.4,3,1.4,4.9c0,1.8-0.5,3.5-1.5,5.2
			c-1,1.6-2.5,2.9-4.4,3.8c-1.9,0.9-4,1.3-6.4,1.3c-3,0-5.6-0.4-7.6-1.4c-2-0.9-3.6-2.3-4.8-4.1C81.6,81.3,80.9,79.3,80.9,77
			L80.9,77z"/>
		<path id="_2150085841" class="st13" d="M111.4,75.6c0-4.6,1.2-8,3.7-10.2c2.1-1.8,4.6-2.8,7.6-2.8c3.3,0,6,1.1,8.2,3.4
			c2.1,2.2,3.2,5.3,3.2,9.3c0,3.2-0.5,5.7-1.4,7.5c-0.9,1.8-2.3,3.3-4.1,4.3c-1.8,1-3.7,1.5-5.8,1.5c-3.4,0-6.1-1.1-8.2-3.3
			C112.5,83,111.4,79.8,111.4,75.6L111.4,75.6z M115.7,75.6c0,3.2,0.7,5.6,2,7.1c1.4,1.6,3.1,2.4,5.1,2.4c2,0,3.7-0.8,5.1-2.4
			c1.3-1.6,2-4,2-7.3c0-3.1-0.7-5.4-2-7c-1.4-1.6-3-2.4-5.1-2.4c-2,0-3.7,0.8-5.1,2.4C116.3,70,115.7,72.4,115.7,75.6L115.7,75.6z"
			/>
		<polygon id="_21500858412" class="st13" points="138.8,88 138.8,53.7 142.9,53.7 142.9,88 		"/>
		<path id="_215008584123" class="st13" d="M165.1,88v-3.6c-1.9,2.8-4.4,4.2-7.7,4.2c-1.4,0-2.8-0.3-4-0.8c-1.2-0.6-2.2-1.3-2.8-2.1
			c-0.6-0.9-1-1.9-1.3-3.1c-0.2-0.8-0.2-2.1-0.2-3.9V63.2h4.1v13.8c0,2.2,0.1,3.7,0.2,4.4c0.3,1.1,0.8,2,1.6,2.6
			c0.8,0.6,1.9,0.9,3.1,0.9c1.2,0,2.4-0.3,3.5-1c1.1-0.6,1.8-1.5,2.3-2.6c0.5-1.1,0.7-2.7,0.7-4.9V63.2h4.1V88L165.1,88L165.1,88z"
			/>
		<polygon id="_2150085841234" class="st13" points="175.5,88 175.5,53.7 180,53.7 180,84 196.4,84 196.4,88 		"/>
		<path id="_21500858412345" class="st13" d="M216.9,84.9c-1.5,1.3-3,2.3-4.4,2.8c-1.4,0.5-2.9,0.8-4.5,0.8c-2.7,0-4.7-0.7-6.1-2
			c-1.4-1.3-2.1-3-2.1-5.1c0-1.2,0.3-2.3,0.8-3.3c0.5-1,1.2-1.8,2.1-2.4c0.9-0.6,1.9-1.1,3-1.4c0.8-0.2,2-0.4,3.6-0.6
			c3.3-0.4,5.8-0.9,7.3-1.5c0-0.6,0-0.9,0-1.1c0-1.7-0.4-2.9-1.2-3.6c-1-1-2.6-1.4-4.7-1.4c-1.9,0-3.3,0.3-4.3,1
			c-0.9,0.7-1.6,1.9-2,3.7l-4-0.6c0.4-1.8,1-3.2,1.8-4.3c0.8-1.1,2-1.9,3.6-2.5c1.6-0.6,3.4-0.9,5.5-0.9c2.1,0,3.7,0.3,5,0.8
			c1.3,0.5,2.2,1.1,2.9,1.9c0.6,0.8,1,1.7,1.3,2.9c0.1,0.7,0.2,2,0.2,3.9v5.6c0,3.9,0.1,6.4,0.3,7.4c0.2,1,0.5,2,1,3h-4.3
			C217.3,87.1,217,86.1,216.9,84.9L216.9,84.9z M216.6,75.5c-1.5,0.6-3.7,1.2-6.7,1.6c-1.7,0.2-2.9,0.5-3.6,0.8
			c-0.7,0.3-1.2,0.8-1.6,1.4c-0.4,0.6-0.6,1.3-0.6,2c0,1.1,0.4,2.1,1.2,2.8c0.8,0.7,2,1.1,3.6,1.1c1.6,0,3-0.4,4.2-1.1
			c1.2-0.7,2.1-1.7,2.7-2.9c0.4-1,0.7-2.4,0.7-4.2V75.5L216.6,75.5z"/>
		<path id="_215008584123456" class="st13" d="M230.9,88h-3.8V53.7h4.1V66c1.7-2.2,3.9-3.3,6.6-3.3c1.5,0,2.9,0.3,4.2,0.9
			c1.3,0.6,2.4,1.5,3.3,2.6c0.9,1.1,1.5,2.5,2,4c0.5,1.6,0.7,3.3,0.7,5c0,4.3-1,7.6-3.1,9.9c-2,2.3-4.5,3.5-7.4,3.5
			c-2.9,0-5.1-1.2-6.7-3.7L230.9,88L230.9,88z M230.8,75.4c0,3,0.4,5.1,1.2,6.5c1.3,2.2,3,3.3,5.2,3.3c1.8,0,3.3-0.8,4.6-2.4
			c1.3-1.6,2-4,2-7.1c0-3.2-0.6-5.6-1.9-7.2c-1.3-1.5-2.8-2.3-4.5-2.3c-1.8,0-3.3,0.8-4.6,2.4C231.5,70.1,230.8,72.4,230.8,75.4
			L230.8,75.4z"/>
		<path id="_215016000" class="st14" d="M63.8,67.6h3.2h0.3v0.3v1.1v0.3h-0.3h-5.2h-0.3v-0.3v-6.8V62h0.3h1.7h0.3v0.3L63.8,67.6
			L63.8,67.6z M66.2,77.3h-2.5l-0.5,1.2l-0.1,0.2H63h-1.8h-0.5l0.2-0.4l3-6.8l0.1-0.2h0.2h1.5h0.2l0.1,0.2l3,6.8l0.2,0.4h-0.5H67
			h-0.2l-0.1-0.2L66.2,77.3L66.2,77.3z M64.4,75.6h1.2L65,74.2L64.4,75.6L64.4,75.6z M61.6,87.8v-6.8v-0.3h0.3h2.8
			c0.2,0,0.5,0,0.7,0c0.2,0,0.4,0,0.6,0.1c0.2,0,0.4,0.1,0.6,0.2c0.2,0.1,0.3,0.1,0.5,0.2h0c0.1,0.1,0.3,0.2,0.4,0.3
			c0.1,0.1,0.2,0.2,0.3,0.4l0,0c0.1,0.1,0.1,0.3,0.2,0.5c0,0.2,0.1,0.3,0.1,0.5c0,0.1,0,0.2,0,0.3c0,0.1,0,0.2-0.1,0.3l0,0
			c0,0.1-0.1,0.2-0.1,0.3c0,0.1-0.1,0.2-0.1,0.2l0,0c-0.1,0.1-0.1,0.1-0.2,0.2c-0.1,0.1-0.1,0.1-0.2,0.2l0,0
			c0.1,0.1,0.2,0.1,0.3,0.2c0.1,0.1,0.2,0.1,0.2,0.2l0,0c0.1,0.1,0.1,0.2,0.2,0.3c0,0.1,0.1,0.2,0.1,0.3h0c0,0.1,0.1,0.2,0.1,0.3
			c0,0.1,0,0.2,0,0.3c0,0.4-0.1,0.7-0.2,1c-0.1,0.3-0.4,0.5-0.7,0.7l0,0c-0.3,0.2-0.6,0.3-1,0.4c-0.4,0.1-0.8,0.1-1.3,0.1h-3.1h-0.3
			L61.6,87.8L61.6,87.8z M63.8,85.2v1.2H65c0.1,0,0.2,0,0.3,0h0c0.1,0,0.1,0,0.2,0l0,0c0.1,0,0.1,0,0.2-0.1c0,0,0.1,0,0.1-0.1l0,0
			c0,0,0.1-0.1,0.1-0.1c0,0,0-0.1,0.1-0.1l0,0c0,0,0-0.1,0-0.1c0,0,0-0.1,0-0.1c0-0.1,0-0.1,0-0.2c0,0,0-0.1,0-0.1h0
			c0,0,0-0.1-0.1-0.1c0,0,0-0.1-0.1-0.1c0,0-0.1,0-0.1-0.1h0c0,0-0.1,0-0.2-0.1l0,0c-0.1,0-0.1,0-0.2,0c-0.1,0-0.2,0-0.3,0
			L63.8,85.2L63.8,85.2z M63.8,83.6h0.9v0c0.2,0,0.3,0,0.5-0.1c0.1,0,0.2-0.1,0.3-0.1l0,0c0.1,0,0.1-0.1,0.1-0.2l0,0
			c0-0.1,0-0.1,0-0.2c0-0.1,0-0.2,0-0.3c0-0.1-0.1-0.1-0.1-0.1l0,0c-0.1,0-0.2-0.1-0.3-0.1c-0.1,0-0.3,0-0.5,0h-0.9V83.6z"/>
		<g>
			<rect id="_215016048" x="35.4" y="53.2" class="st15" width="3.1" height="3.1"/>
			<rect id="_215012352" x="38.6" y="53.2" class="st16" width="3.1" height="3.1"/>
			<rect id="_215017032" x="41.7" y="53.2" class="st16" width="3.1" height="3.1"/>
			<rect id="_215013672" x="44.9" y="53.2" class="st16" width="3.1" height="3.1"/>
			<rect id="_215012112" x="48" y="53.2" class="st15" width="3.1" height="3.1"/>
			<rect id="_215016744" x="57.3" y="53.2" class="st15" width="3.1" height="3.1"/>
			<rect id="_215006496" x="60.4" y="53.2" class="st16" width="3.1" height="3.1"/>
			<rect id="_215006232" x="63.6" y="53.2" class="st17" width="3.1" height="3.1"/>
			<rect id="_215005992" x="66.7" y="53.2" class="st18" width="3.1" height="3.1"/>
			<rect id="_215006448" x="66.7" y="56.4" class="st19" width="3.1" height="3.1"/>
			<rect id="_215015736" x="63.6" y="56.4" class="st20" width="3.1" height="3.1"/>
			<rect id="_215015832" x="60.4" y="56.4" class="st16" width="3.1" height="3.1"/>
			<rect id="_215017080" x="48" y="56.4" class="st16" width="3.1" height="3.1"/>
			<rect id="_215016168" x="48" y="59.5" class="st18" width="3.1" height="3.1"/>
			<rect id="_215013624" x="48" y="62.7" class="st16" width="3.1" height="3.1"/>
			<rect id="_215011752" x="48" y="65.8" class="st20" width="3.1" height="3.1"/>
			<rect id="_215011728" x="51.1" y="65.8" class="st16" width="3.1" height="3.1"/>
			<rect id="_215005656" x="54.3" y="65.8" class="st19" width="3.1" height="3.1"/>
			<rect id="_215005872" x="54.3" y="59.8" class="st16" width="3.1" height="3.1"/>
			<rect id="_215012688" x="35.4" y="56.4" class="st16" width="3.1" height="3.1"/>
			<rect id="_215017056" x="35.4" y="59.5" class="st18" width="3.1" height="3.1"/>
			<rect id="_215016024" x="38.6" y="59.5" class="st16" width="3.1" height="3.1"/>
			<rect id="_215016384" x="41.7" y="59.5" class="st18" width="3.1" height="3.1"/>
			<rect id="_215019528" x="41.7" y="62.7" class="st16" width="3.1" height="3.1"/>
			<rect id="_215012640" x="41.7" y="65.8" class="st16" width="3.1" height="3.1"/>
			<rect id="_215014008" x="38.6" y="65.8" class="st20" width="3.1" height="3.1"/>
			<rect id="_215012616" x="35.4" y="65.8" class="st16" width="3.1" height="3.1"/>
			<rect id="_213658688" x="35.4" y="72.1" class="st15" width="3.1" height="3.1"/>
			<rect id="_215016360" x="35.4" y="75.3" class="st20" width="3.1" height="3.1"/>
			<rect id="_213658760" x="35.4" y="78.4" class="st16" width="3.1" height="3.1"/>
			<rect id="_213658064" x="35.4" y="81.5" class="st16" width="3.1" height="3.1"/>
			<rect id="_213658304" x="35.4" y="84.7" class="st19" width="3.1" height="3.1"/>
			<rect id="_215006088" x="38.6" y="84.7" class="st16" width="3.1" height="3.1"/>
			<rect id="_215006544" x="41.7" y="84.7" class="st20" width="3.1" height="3.1"/>
			<rect id="_215006640" x="41.7" y="81.5" class="st18" width="3.1" height="3.1"/>
			<rect id="_215006472" x="41.7" y="78.4" class="st16" width="3.1" height="3.1"/>
			<rect id="_215006688" x="41.7" y="75.3" class="st16" width="3.1" height="3.1"/>
			<rect id="_215005896" x="41.7" y="72.1" class="st15" width="3.1" height="3.1"/>
			<rect id="_215017776" x="48" y="72.1" class="st18" width="3.1" height="3.1"/>
			<rect id="_213651440" x="48" y="75.3" class="st19" width="3.1" height="3.1"/>
			<rect id="_213653456" x="48" y="78.4" class="st15" width="3.1" height="3.1"/>
			<rect id="_213653912" x="48" y="81.5" class="st16" width="3.1" height="3.1"/>
			<rect id="_213653600" x="48" y="84.7" class="st16" width="3.1" height="3.1"/>
			<rect id="_213655424" x="51.1" y="84.7" class="st15" width="3.1" height="3.1"/>
			<rect id="_213657032" x="54.3" y="84.7" class="st20" width="3.1" height="3.1"/>
			<rect id="_213656816" x="54.3" y="81.5" class="st16" width="3.1" height="3.1"/>
			<rect id="_213656720" x="54.3" y="78.4" class="st18" width="3.1" height="3.1"/>
			<rect id="_213657080" x="54.3" y="75.3" class="st21" width="3.1" height="3.1"/>
			<rect id="_213653624" x="54.3" y="72.1" class="st15" width="3.1" height="3.1"/>
			<rect id="_213651344" x="38.6" y="72.1" class="st16" width="3.1" height="3.1"/>
		</g>
	</g>
</g>
<g id="Carry" class="st0">
	<g class="st3">
		<path class="st22" d="M96,40.5H41.7l-6,52.5c0,0-2.1,8.1,5.6,8.2h47.6l1.9-14.8l-4.2,4.3H52.8l4.3-39.8h37.9L96,40.5L96,40.5z"/>
		<path class="st23" d="M130.6,63.1c-2.2,0-4,0.8-5.2,2.4c-1.3,1.6-1.9,3.8-1.9,6.6c0,3,0.6,5.2,1.8,6.7c1.2,1.5,3,2.3,5.3,2.3
			c1,0,2-0.1,2.9-0.3c0.9-0.2,1.9-0.5,2.9-0.8v3.4c-1.8,0.7-3.9,1.1-6.3,1.1c-3.4,0-6.1-1.1-7.9-3.2c-1.8-2.1-2.8-5.2-2.8-9.2
			c0-2.5,0.4-4.7,1.3-6.6c0.9-1.9,2.2-3.3,3.9-4.3c1.7-1,3.7-1.5,6-1.5c2.4,0,4.6,0.5,6.7,1.6l-1.4,3.3c-0.8-0.4-1.6-0.7-2.5-1
			C132.5,63.2,131.6,63.1,130.6,63.1L130.6,63.1z"/>
		<path id="_x31_" class="st23" d="M152.3,84.1l-0.8-2.5h-0.1c-0.9,1.1-1.7,1.9-2.6,2.3c-0.9,0.4-2,0.6-3.4,0.6
			c-1.7,0-3.1-0.5-4.1-1.5c-1-1-1.5-2.3-1.5-4.1c0-1.9,0.7-3.3,2-4.3c1.4-1,3.4-1.5,6.2-1.6l3.1-0.1v-1c0-1.2-0.3-2-0.8-2.6
			c-0.5-0.6-1.4-0.9-2.5-0.9c-0.9,0-1.8,0.1-2.6,0.4c-0.8,0.3-1.6,0.6-2.4,1l-1.2-2.8c1-0.5,2-0.9,3.2-1.2c1.1-0.3,2.2-0.4,3.3-0.4
			c2.3,0,4,0.5,5.1,1.5c1.2,1,1.7,2.6,1.7,4.8v12.3L152.3,84.1L152.3,84.1z M146.6,81.5c1.4,0,2.5-0.4,3.3-1.2
			c0.8-0.8,1.2-1.9,1.2-3.3v-1.6l-2.3,0.1c-1.8,0.1-3.1,0.4-3.9,0.9c-0.8,0.5-1.2,1.4-1.2,2.5c0,0.8,0.2,1.4,0.7,1.9
			C145,81.3,145.7,81.5,146.6,81.5L146.6,81.5z"/>
		<path id="_x31_2" class="st23" d="M169.3,65.6c0.8,0,1.4,0.1,1.9,0.2l-0.4,3.6c-0.5-0.1-1.1-0.2-1.7-0.2c-1.5,0-2.7,0.5-3.7,1.5
			c-0.9,1-1.4,2.3-1.4,3.9v9.5h-3.8V65.9h3l0.5,3.2h0.2c0.6-1.1,1.4-2,2.3-2.6C167.2,65.9,168.2,65.6,169.3,65.6L169.3,65.6z"/>
		<path id="_x31_23" class="st23" d="M183.5,65.6c0.8,0,1.4,0.1,1.9,0.2l-0.4,3.6c-0.5-0.1-1.1-0.2-1.7-0.2c-1.5,0-2.7,0.5-3.7,1.5
			c-0.9,1-1.4,2.3-1.4,3.9v9.5h-3.8V65.9h3l0.5,3.2h0.2c0.6-1.1,1.4-2,2.3-2.6C181.4,65.9,182.4,65.6,183.5,65.6L183.5,65.6z"/>
		<path id="_x31_234" class="st23" d="M186,65.9h4.1l3.6,10.3c0.5,1.5,0.9,2.9,1.1,4.2h0.1c0.1-0.6,0.3-1.3,0.5-2.2
			c0.3-0.9,1.6-5,4.1-12.3h4.1L196,86.6c-1.4,3.8-3.7,5.7-6.9,5.7c-0.8,0-1.6-0.1-2.4-0.3v-3.1c0.6,0.1,1.2,0.2,1.9,0.2
			c1.8,0,3.1-1.1,3.9-3.3l0.7-1.7L186,65.9L186,65.9z"/>
		<path id="_x31_2345" class="st23" d="M204.5,82.1c0-0.8,0.2-1.4,0.6-1.8c0.4-0.4,1-0.6,1.8-0.6c0.8,0,1.4,0.2,1.8,0.7
			c0.4,0.4,0.6,1.1,0.6,1.8c0,0.8-0.2,1.4-0.6,1.9c-0.4,0.5-1,0.7-1.8,0.7c-0.8,0-1.4-0.2-1.8-0.7C204.7,83.5,204.5,82.9,204.5,82.1
			L204.5,82.1z"/>
		<path id="_x31_23456" class="st23" d="M228.1,77.6c0,2.1-0.8,3.8-2.3,5c-1.5,1.2-3.6,1.8-6.3,1.8c-2.7,0-4.8-0.4-6.5-1.3v-3.7
			c1.1,0.5,2.2,0.9,3.4,1.2c1.2,0.3,2.3,0.4,3.4,0.4c1.5,0,2.6-0.3,3.4-0.9c0.7-0.6,1.1-1.4,1.1-2.4c0-0.9-0.3-1.7-1-2.3
			c-0.7-0.6-2-1.4-4.1-2.2c-2.1-0.9-3.7-1.9-4.5-3.1c-0.9-1.1-1.3-2.5-1.3-4.1c0-2,0.7-3.6,2.1-4.8c1.4-1.2,3.3-1.7,5.6-1.7
			c2.3,0,4.5,0.5,6.7,1.5l-1.2,3.2c-2.1-0.9-4-1.4-5.6-1.4c-1.2,0-2.2,0.3-2.8,0.8c-0.6,0.6-1,1.3-1,2.2c0,0.6,0.1,1.2,0.4,1.6
			c0.3,0.4,0.7,0.9,1.3,1.3c0.6,0.4,1.7,0.9,3.2,1.6c1.7,0.7,3,1.4,3.8,2.1c0.8,0.6,1.4,1.4,1.8,2.2
			C227.9,75.6,228.1,76.5,228.1,77.6L228.1,77.6z"/>
		<path id="_x31_234567" class="st23" d="M248,75c0,3-0.7,5.3-2.2,7c-1.5,1.7-3.6,2.5-6.2,2.5c-1.7,0-3.1-0.4-4.4-1.2
			c-1.3-0.8-2.3-1.9-2.9-3.3c-0.7-1.4-1-3.1-1-5c0-3,0.7-5.3,2.2-6.9c1.5-1.7,3.6-2.5,6.3-2.5c2.6,0,4.6,0.9,6.1,2.6
			C247.3,69.8,248,72.1,248,75L248,75z M235.1,75c0,4.2,1.5,6.3,4.6,6.3c3,0,4.5-2.1,4.5-6.3c0-4.2-1.5-6.3-4.5-6.3
			c-1.6,0-2.7,0.5-3.5,1.6C235.4,71.4,235.1,73,235.1,75L235.1,75z"/>
	</g>
</g>
<g id="Gitcoin" class="st0">
	<g class="st3">
		<g id="Layer_1-2">
			<g>
				<path class="st24" d="M134.6,96.2V74.4h-6.2V68h19.2v6.4h-6.2v21.8H134.6L134.6,96.2z"/>
				<path class="st24" d="M84.1,82.2c0-8.7,6.7-14.7,15.1-14.7c5.1,0,9.7,2.1,12.6,6.5l-6.1,3.2c-1.6-2.3-3.8-3.4-6.5-3.4
					c-4.8,0-8.1,3.7-8.1,8.6c0,4.8,3.6,8.5,7.8,8.5c3.5,0,6-2.1,6.4-4.9v0h-5.9v-5.3h13.6v1.2c0,9.2-5.5,15-14.2,15
					C90.8,96.7,84.1,90.7,84.1,82.2z"/>
				<path class="st24" d="M118,96.2V68h6.9v28.2L118,96.2L118,96.2z"/>
				<path class="st24" d="M208.6,96.2V68h6.9v28.2L208.6,96.2L208.6,96.2z"/>
				<path class="st24" d="M241.3,68h6.8v28.2h-5.6l-14.1-17.8l0.1,17.8h-6.8V68h5.7l14.1,17.7L241.3,68L241.3,68z"/>
				<path class="st24" d="M164.5,90.3c-4.3,0-7.9-3.4-7.9-8.2c0-4.6,3.5-8.2,8-8.2c2.2,0,4.2,0.9,5.6,2.2c0.7-2.2,1.7-4.2,3.2-6
					c-2.5-1.6-5.5-2.6-8.7-2.6c-8.3,0-15.2,6.2-15.2,14.5c0,8.7,6.9,14.6,15.1,14.6c3.2,0,6.3-0.9,8.8-2.5c-1.4-1.8-2.4-3.9-3.1-6.1
					C168.7,89.4,166.7,90.3,164.5,90.3L164.5,90.3z"/>
				<path class="st24" d="M189.2,67.5c-5.2,0-9.8,2.4-12.6,6.3c-1.6,2.3-2.6,5.1-2.6,8.2c0,3.1,1,6.1,2.6,8.4
					c2.7,3.9,7.4,6.2,12.5,6.2c8.3,0,15.2-6,15.2-14.5S197.5,67.5,189.2,67.5z M189.1,90.3c-4.3,0-7.9-3.4-7.9-8.2
					c0-4.6,3.5-8.2,8-8.2s8,3.6,8,8.2C197.2,86.8,193.7,90.3,189.1,90.3L189.1,90.3z"/>
			</g>
		</g>
		<g id="Layer_1-2_1_">
			<g>
				<path class="st25" d="M65.8,56.6c-2.4-1.1-5.1-1.7-7.8-1.7c-2.9,0-5.6,0.6-8.1,1.9c-0.3,0.1-0.4,0.4-0.4,0.7v5.3
					c0,1.1-0.9,2.1-2.1,2.1c-1.1,0-2.1-0.9-2.1-2.1v-2.3c0-0.1-0.1-0.2-0.2-0.2c-0.1,0-0.1,0-0.2,0.1c-1.7,1.7-3,3.7-3.9,5.9
					c-1,2.3-1.5,4.7-1.5,7.2c0,2.5,0.5,4.9,1.5,7.2c0.9,2.2,2.3,4.2,4,5.9c1.7,1.7,3.7,3.1,5.9,4c2.3,1,4.7,1.5,7.2,1.5h13.3
					c0.4,0,0.8-0.4,0.8-0.8v-5.9c0-0.3-0.2-0.6-0.4-0.8l-3-1.9l-4-2.5c-0.2-0.1-0.5-0.2-0.8-0.2c-0.3,0-0.6,0.1-0.9,0.3
					c-1.5,1.1-3.2,1.7-5.1,1.7c-2.3,0-4.4-0.9-6-2.5c-1.6-1.6-2.4-3.8-2.4-6c0-2.2,0.9-4.3,2.5-5.9c1.6-1.6,3.7-2.4,5.9-2.4h0.1
					c1.8,0,3.6,0.6,5.1,1.7c0.2,0.2,0.6,0.3,0.9,0.3c0.3,0,0.5-0.1,0.8-0.2l4-2.5l2.9-1.8c0.2-0.1,0.3-0.3,0.4-0.5
					c0-0.2,0-0.4-0.2-0.6C70.2,59.2,68.1,57.6,65.8,56.6L65.8,56.6z"/>
				<path class="st25" d="M60.1,69.5c-0.6-0.3-1.3-0.5-2-0.5c-2.4,0-4.3,1.9-4.3,4.3s1.9,4.3,4.3,4.3c0.7,0,1.4-0.2,2-0.5
					c0.7-0.4,1.2-0.9,1.6-1.5c0.4-0.6,0.6-1.4,0.7-2.1v-0.3c0-0.8-0.2-1.5-0.7-2.1C61.3,70.4,60.7,69.9,60.1,69.5L60.1,69.5z"/>
				<path class="st25" d="M72.3,73.3c0-2-0.4-3.9-1.2-5.6l0-0.1l-0.1,0l-4.5,2.8c-0.3,0.2-0.4,0.5-0.3,0.9c0.2,0.7,0.2,1.3,0.2,2.1
					s-0.1,1.4-0.2,2.1c-0.1,0.3,0.1,0.7,0.3,0.9L71,79l0.1,0l0-0.1C71.9,77.2,72.3,75.3,72.3,73.3L72.3,73.3z"/>
				<path class="st26" d="M77.6,62c-0.1-0.2-0.2-0.4-0.4-0.7c-0.4-0.6-0.8-1.2-1.2-1.7c-2-2.7-4.7-4.9-7.6-6.4
					c-3.1-1.6-6.5-2.4-10-2.5c-0.2,0-0.4-0.2-0.4-0.4v-3.2c0-1.1-0.9-2.1-2.1-2.1s-2.1,0.9-2.1,2.1v3.7c0,0.2-0.1,0.4-0.3,0.4
					c-1.2,0.2-2.3,0.6-3.5,1c-0.1,0-0.1,0-0.1,0c-0.2,0-0.4-0.2-0.4-0.4v-4.7c0-1.1-0.9-2.1-2.1-2.1s-2.1,0.9-2.1,2.1v7.1
					c0,0.2-0.1,0.5-0.3,0.6c-2.9,2-5.3,4.8-7,7.9c-1.7,3.2-2.6,6.8-2.6,10.5c0,3,0.6,6,1.8,8.7c1.1,2.7,2.8,5.1,4.8,7.2
					c2.1,2.1,4.6,3.8,7.3,4.9c2.8,1.2,5.8,1.8,8.9,1.8H75c0.7,0,1.3-0.6,1.3-1.3V83.3c0-0.6-0.3-1.1-0.8-1.5l-0.9-0.6l-0.1,0
					L71.1,79L71,79l-4.5-2.8c-0.3-0.2-0.4-0.5-0.3-0.9c0.2-0.7,0.2-1.3,0.2-2.1c0-0.7-0.1-1.4-0.2-2.1c-0.1-0.3,0.1-0.7,0.3-0.9
					l4.5-2.8l0.1,0l3.5-2.2l0.1,0l2.5-1.6C77.7,63.4,78,62.6,77.6,62L77.6,62z M72.1,61.8c0,0.2-0.2,0.4-0.4,0.5l-2.9,1.8l-4,2.5
					c-0.2,0.1-0.5,0.2-0.8,0.2c-0.3,0-0.6-0.1-0.9-0.3c-1.5-1.1-3.2-1.7-5.1-1.7h-0.1c-2.2,0-4.3,0.9-5.9,2.4
					c-1.6,1.6-2.5,3.7-2.5,5.9c0,2.3,0.8,4.4,2.4,6c1.6,1.6,3.7,2.5,6,2.5c1.8,0,3.6-0.6,5.1-1.7c0.2-0.2,0.5-0.3,0.9-0.3
					c0.3,0,0.5,0.1,0.8,0.2l4,2.5l3,1.9c0.3,0.2,0.4,0.5,0.4,0.8V91c0,0.4-0.4,0.8-0.8,0.8H58.1c-2.5,0-4.9-0.5-7.2-1.5
					c-2.2-0.9-4.2-2.3-5.9-4c-1.7-1.7-3.1-3.7-4-5.9c-1-2.3-1.5-4.7-1.5-7.2s0.5-4.9,1.5-7.2c0.9-2.2,2.3-4.2,3.9-5.9
					c0.1-0.1,0.1-0.1,0.2-0.1c0.1,0,0.2,0.1,0.2,0.2v2.3c0,1.1,0.9,2.1,2.1,2.1s2.1-0.9,2.1-2.1v-5.2c0-0.3,0.2-0.6,0.4-0.7
					c2.6-1.2,5.3-1.9,8.1-1.9c2.9,0,5.3,0.6,7.8,1.7c2.4,1.1,4.4,2.6,6.1,4.6C72.1,61.3,72.2,61.6,72.1,61.8L72.1,61.8z M62.3,73.5
					c0,0.8-0.2,1.5-0.7,2.1c-0.4,0.6-1,1.2-1.6,1.5c-0.6,0.3-1.3,0.5-2,0.5c-2.4,0-4.3-1.9-4.3-4.3c0-2.4,1.9-4.3,4.3-4.3
					c0.7,0,1.4,0.2,2,0.5c0.7,0.4,1.2,0.9,1.6,1.5c0.4,0.6,0.6,1.4,0.7,2.1V73.5L62.3,73.5z"/>
				<path class="st27" d="M71.1,67.7c0.8,1.8,1.2,3.7,1.2,5.6s-0.4,3.9-1.2,5.6l0,0.1l3.5,2.2l0-0.1c1.2-2.5,1.8-5.1,1.8-7.9
					s-0.6-5.4-1.8-7.9l0-0.1L71.1,67.7L71.1,67.7z"/>
			</g>
		</g>
	</g>
</g>
<g id="Iotrust" class="st0">
	<g id="_388292040" class="st3">
		<g>
			
				<linearGradient id="_388292592_1_" gradientUnits="userSpaceOnUse" x1="-78.8011" y1="355.7116" x2="-78.8011" y2="339.9923" gradientTransform="matrix(2.8405 0 0 -2.8405 287.1176 1050.9655)">
				<stop  offset="0" style="stop-color:#DD4326"/>
				<stop  offset="0.3294" style="stop-color:#DD4326"/>
				<stop  offset="1" style="stop-color:#F1B51C"/>
			</linearGradient>
			<path id="_388292592" class="st28" d="M63.3,35.7c15.4,0,27.9,12.5,27.9,27.9c0,12.5-8.2,23.1-19.6,26.6V78.7
				c5.4-2.9,9-8.6,9-15.2c0-9.6-7.8-17.3-17.3-17.3C53.7,46.2,46,54,46,63.5c0,6.6,3.7,12.3,9,15.2v11.4
				C43.7,86.6,35.4,76,35.4,63.5C35.4,48.1,47.9,35.7,63.3,35.7L63.3,35.7z"/>
			<path id="_388291512" class="st29" d="M63.3,75.2L63.3,75.2c3,0,5.4,2.4,5.4,5.4v20.1c0,3-2.4,5.4-5.4,5.4l0,0
				c-3,0-5.4-2.4-5.4-5.4V80.6C57.9,77.6,60.3,75.2,63.3,75.2z"/>
			<circle id="_388292808" class="st29" cx="63.3" cy="65.5" r="7.4"/>
		</g>
		<path id="_389211504" class="st30" d="M98.2,100.2c-1-0.5-2.3-2.5-1.4-10.8c1.3-12.3,2.8-22.8,2.8-22.8s1.1-3.3,2.9-2.6
			c1.8,0.7,2.3,1.6,0.9,8.5c-1.5,6.9-2.8,19.1-2,22.6c0.5,2.6,0.1,4.2-1,4.9C99.9,100.3,98.7,100.4,98.2,100.2L98.2,100.2z
			 M212.3,101.1c-0.2,0-0.7,0-1.2-0.1c-2-0.2-3.2-1.5-2.8-3c0.5-1.8,1.9-1.9,3.4-1.6c2.9,0.7,5.5-0.1,8-1.3c1.8-0.9,1.9-1.8,0.3-3
			c-1.8-1.4-3.8-2.5-5.7-3.8c-4.5-3.1-5.2-7.6-1.4-11.4c2-2,4.8-3.6,7.4-4.7c2.7-1.2,4.8,0.3,4.9,2.6c0,1.7-0.9,2.4-2.5,2
			c-2.3-0.6-7.4,2-7.9,4.2c0,0.2,0,0.4,0,0.5c0,0.9,0.3,1.8,0.9,2.4c1,1.1,2.4,1.7,3.6,2.5c1.2,0.8,2.4,1.5,3.5,2.4
			c3.1,2.6,2.9,6.5-0.3,8.9C219.6,100,216.2,100.9,212.3,101.1L212.3,101.1z M166.6,87.5c2-3.2,3.8-6.5,6.1-9.5
			c1.2-1.5,2.7-2.7,4.4-3.6c2.8-1.4,6,0.6,6,3.5c0,0.9-0.4,1.7-1.1,2.3c-0.5,0.3-1.8,0-2.2-0.5c-1.7-1.7-3-0.8-4.1,0.5
			c-4.2,4.4-6.9,10-7.9,16c-0.2,1.1-0.2,2.3-0.7,3.3c-0.5,0.8-1.2,1.3-2.1,1.4c-0.6,0-1.4-0.8-1.7-1.5c-0.3-0.7-0.5-1.6-0.5-2.4
			c0-0.1,0-0.2,0-0.3c0.2-6.4,0.5-12.9,0.9-19.3c0.2-4.4,4.8-3.5,4.5-0.3c-0.3,2.9-0.9,5.7-1.3,8.6
			C166.6,86.3,166.6,86.9,166.6,87.5L166.6,87.5z M199.1,90.7c-2,2.4-3.6,4.6-5.4,6.6c-1.6,1.7-3.5,3.3-6,2.5
			c-2.6-0.9-3.7-3.3-3.5-5.8c0.2-4.2,0.9-8.4,1.5-12.6c0.2-1.5,0.6-3.1,0.7-4.6c0.2-1.4,0.8-2.3,2.3-2.3c1.5,0,2.1,1.2,2,2.5
			c-0.2,1.3-0.4,2.7-0.8,3.9c-0.7,3.5-1.6,6.9-2.1,10.4c-0.5,3.8,2,4.6,4.7,2.1c3.5-3.3,5.4-7.6,6.9-12.1c0.4-1.2,0.7-2.5,1.4-3.5
			c1.4-2,3.7-1.2,3.5,1c-0.3,2.8-1.1,5.6-1.3,8.4c-0.3,3.7-0.8,7.5,1.9,10.8c0.3,0.3-0.1,1.6-0.6,2.1c-1,0.9-2.5,1-3.2-0.2
			c-0.9-1.6-1.4-3.5-1.8-5.4C199.1,93.4,199.2,92.2,199.1,90.7L199.1,90.7z M128.6,84.2c-0.3,6.2-3.1,11.1-8.1,14.7
			c-2.5,1.9-5.4,2.8-8.4,1.1c-3.3-1.9-4.2-5.2-4-8.6c0.2-5.2,2.1-10.1,5.5-14c1.2-1.4,2.7-2.5,4.4-3.2c5-1.9,9.6,1.5,10.4,7.5
			C128.5,82.5,128.5,83.3,128.6,84.2L128.6,84.2z M121.6,78.1c2.8,1.1,3.7,7,2,11.3c-1.7,4.3-5.9,8.2-8.8,7.1
			c-2.8-1.1-3.2-5.8-1.5-11C115,80.3,118.7,77,121.6,78.1L121.6,78.1z M108.4,89.3C108.4,126.1,108.4,42.6,108.4,89.3z M144.8,70.7
			c-2.8,0.2-5.2,0.5-7.6,0.6c-0.8,0.1-1.6,0.1-2.5,0.1c-0.7,0-1.3,0-2-0.1c-1.2-0.1-1.9-0.8-1.8-2.1c0.1-1.6,1.1-1.8,2.3-1.9
			c4.7-0.3,9.4-0.5,14-0.9c4-0.3,7.9-0.9,11.9-1.3c0.2,0,0.4,0,0.6,0c0.4,0,0.9,0,1.3,0.1c2.1,0.2,3,1.2,2.8,3c-0.3,2-1.8,1.3-3,1.3
			c-3.3,0.1-6.5,0.2-9.8,0.4c-1.5,0.1-2.3,0.9-2.4,2.4c-0.5,6.9-1,13.9-1.5,20.8c-0.1,1.5,0.6,3,0.4,4.4c-0.1,1.1-1,2.6-1.8,2.9
			c-1.4,0.4-2.4-1-2.4-2.4c0-5.2,0-10.4,0.3-15.5C143.8,78.7,144.4,74.9,144.8,70.7L144.8,70.7z M243.5,78.7
			c-6.7,0.7-6.7,0.6-7.9,7.1c-0.5,2.5-0.8,5-0.9,7.6c-0.1,2.9,1.7,3.8,4.2,2.2c1.3-0.8,2.4-2,3.7-2.9c1.4-0.9,2.6,0,2.2,1.6
			c-1,3.6-6.5,6.9-10.1,6.3c-2.2-0.4-3.6-1.8-3.7-3.9c0-0.3,0-0.6,0-0.9c0-3.1,0.2-6.2,0.5-9.2c0.2-2.1,0.8-4.2,1.2-6.5
			c-1,0-1.8,0-2.6,0c-1.7,0-2.8-0.7-2.9-2.4c-0.1-1.9,1.4-1.8,2.7-1.8c3.9,0,3.9,0,4.8-3.7c0.5-1.9,0.8-3.7,1.3-5.6
			c0.3-1.2,1.2-2.3,2.4-1.6c0.9,0.6,1.4,1.6,1.4,2.7c-0.3,2.4-1,4.8-1.6,7.5c2.3-0.2,4.3-0.5,6.3-0.5
			C250,74.6,248.5,78.1,243.5,78.7L243.5,78.7z"/>
	</g>
</g>
<g id="mywish" class="st0">
	<g class="st3">
		<g>
			<defs>
				<rect id="SVGID_1_" x="35.4" y="49.2" width="212.6" height="43.3"/>
			</defs>
			<clipPath id="SVGID_2_">
				<use xlink:href="#SVGID_1_"  style="overflow:visible;"/>
			</clipPath>
			<path class="st31" d="M47.4,61.3c2.2,0,3.9,1.8,3.9,4v10c0,2.2,1.8,4,3.9,4c2.2,0,3.9-1.8,3.9-4v-10c0-2.2,1.8-4,3.9-4
				c2.2,0,3.9,1.8,3.9,4v9.3l0.1,0.1v0.7c0,2.2,1.4,4,3.6,4c2.2,0,3.9-1.8,3.9-4v-0.8c0,0-0.1-9.5-0.6-12.1c-0.5-2.7-2-4.3-4-6.5
				c-2-2.2,1.1-7.2,5.1-4.4c4,2.8,6,6.3,6.7,10.9c0.7,4.7,1.1,12.8,1.1,12.8s-0.2,2.9-0.5,3.6c-1.5,5-6,8.6-11.3,8.6
				c-3,0-5.8-1.1-7.9-3.2c-2.2,2-5,3.2-7.9,3.2c-5.3,0-9.8-3.6-11.3-8.6c-0.4-0.7-0.5-3.6-0.5-3.6v-9.9
				C43.4,63.1,45.2,61.3,47.4,61.3L47.4,61.3z M47.4,61.3"/>
		</g>
		<path class="st32" d="M71,79.6c-2.2,0-3.9-1.7-3.9-3.9v-9.6c0-2.1-1.8-3.9-3.9-3.9c-2.2,0-3.9,1.7-3.9,3.9v9.6
			c0,2.1-1.8,3.9-3.9,3.9c-2.2,0-3.9-1.7-3.9-3.9v-2.2L51.2,67c0-0.2,0-0.2,0-0.2v-0.6c0-2.1-1.4-3.9-3.6-3.9
			c-2.2,0-3.9,1.7-3.9,3.9v0.8c0,0,0.1,9.1,0.6,11.6c0.5,2.6,2,4.1,4,6.2c2,2.1-1.1,6.9-5.1,4.2c-4-2.7-6-6.1-6.7-10.5
			c-0.7-4.5-1.1-12.4-1.1-12.4s0.2-2.8,0.5-3.5c1.5-4.8,6-8.2,11.3-8.2c3.1,0,5.8,1.1,7.9,3c2.2-2,5-3,7.9-3c5.3,0,9.8,3.5,11.3,8.2
			c0.4,0.6,0.5,3.5,0.5,3.5v9.5C74.9,77.8,73.2,79.6,71,79.6L71,79.6z M71,79.6"/>
		<path class="st33" d="M123.9,58.6c-2.9,0-5.2,1-6.6,3.1c-1.3-2-3.5-3.1-5.9-3.1c-2.5,0-4.4,1.1-5.5,3c0-1.8-1.5-2.7-3-2.7
			c-1.5,0-3.1,1-3.1,3v16.6c0,2,1.5,3,3,3c1.5,0,3-1,3-3v-9.8c0-3.2,1.6-4.8,3.7-4.8c1.7,0,3.4,1.1,3.4,4.7v9.9c0,2.1,1.6,3.1,3,3.1
			c1.5,0,3-1.1,3-3.1v-9.8c0-3.2,1.5-4.8,3.7-4.8c1.7,0,3.4,1,3.4,4.7v9.9c0,2.1,1.6,3.1,3,3.1c1.5,0,3-1.1,3-3.1V67.5
			C132.3,61.3,128.2,58.6,123.9,58.6L123.9,58.6z M149.5,60.8c-2.9,7.9-4.1,11.4-4.9,14.5c-0.8-3.2-2.3-7.3-5-14.4
			c-0.6-1.4-1.7-2-2.7-2c-1.6,0-3.2,1.2-3.2,3c0,0.4,0.1,0.8,0.3,1.2l7.7,18.4l-2.3,5.8c-0.2,0.4-0.3,0.8-0.3,1.2
			c0,1.7,1.5,2.7,3,2.7c1.1,0,2.2-0.6,2.7-1.9l10.4-26.4c0.2-0.4,0.3-0.8,0.3-1.2c0-1.7-1.6-2.8-3.1-2.8
			C151.2,58.9,150,59.4,149.5,60.8L149.5,60.8z M166.4,81.5c1.9,0,3.4-1.3,3.8-2.9c2.2-7.4,3-9.9,3.5-12.6c0.3,2.4,0.8,3.9,3.2,12.5
			c0.6,1.9,2.1,3,3.9,3c1.7,0,3.3-1.2,3.8-2.9l4.9-16c0.1-0.3,0.2-0.6,0.2-1c0-1.7-1.5-2.7-3-2.7c-1.1,0-2.3,0.6-2.7,2.2
			c-2.2,8.1-3,11-3.3,13c-0.4-2.4-0.9-4.4-3.1-12.3c-0.5-1.8-1.9-3-3.8-3c-1.9,0-3.3,1.4-3.7,2.9c-2.4,8.4-3,10.6-3.3,12.9
			c-0.3-2.4-1.5-5.9-3.2-13.3c-0.4-1.8-1.6-2.4-2.8-2.4c-1.7,0-3.2,1.2-3.2,2.9c0,0.3,0.1,0.6,0.2,0.9l4.9,16
			C163.1,80.3,164.7,81.5,166.4,81.5L166.4,81.5z M196.3,56.9c1.9,0,3.4-1.5,3.4-3.4c0-1.9-1.5-3.4-3.4-3.4c-1.9,0-3.4,1.5-3.4,3.4
			C192.9,55.4,194.4,56.9,196.3,56.9L196.3,56.9z M193.3,78.5c0,2,1.6,3,3,3c1.5,0,3-1.1,3-3V61.8c0-1.9-1.5-3-3-3c-1.5,0-3,1.1-3,3
			V78.5L193.3,78.5z M212.5,81.6c5.4,0,9.5-2.5,9.5-7.1c0-8.3-13-5.8-13-9.5c0-1.2,1.4-1.9,3-1.9c1.6,0,3,0.7,4.1,1.7
			c0.8,0.8,1.7,1.1,2.5,1.1c1.4,0,2.4-1.1,2.4-2.4c0-0.7-0.3-1.4-0.9-2.2c-1.4-1.6-4.7-2.8-8.1-2.8c-4.9,0-8.9,2.5-8.9,6.9
			c0,7.9,12.8,5.7,12.8,9.4c0,1.3-1.4,2-3.4,2c-1.9,0-3-0.7-4.2-2.1c-0.7-0.9-1.6-1.3-2.4-1.3c-1.5,0-2.8,1.2-2.8,2.7
			c0,0.7,0.3,1.4,0.8,2.1C205.7,80.4,208.7,81.6,212.5,81.6L212.5,81.6z M238,58.6c-3.2,0-5.4,1.3-6.8,3.6v-10c0-2-1.5-3-3-3
			c-1.5,0-3,1-3,3v26.3c0,2,1.6,3,3,3c1.5,0,3-1,3-3v-9.1c0-3.8,2.1-5.6,4.9-5.6c2.3,0,4.7,1.2,4.7,5.4v9.1c0,2.1,1.6,3.1,3,3.1
			c1.5,0,3-1.1,3-3.1v-10C246.9,61.6,242.6,58.6,238,58.6L238,58.6z M238,58.6"/>
	</g>
</g>
<g id="Layer_12" class="st0">
	<g class="st3">
		<path class="st34" d="M73.9,67.6H60.3v24.9h13.6V67.6z"/>
		<path class="st35" d="M91.4,49H66.4v12.5h24.9L91.4,49z"/>
		<path class="st34" d="M60.3,55.1H35.4v12.5h24.9V55.1z"/>
		<path class="st36" d="M222.6,63.2h-5.3v29.5h5.1V73.3h0.2l10,19.4h0.2l10.1-19.4h0.2v19.4h5V63.2h-4.8l-10.3,20h-0.2L222.6,63.2z
			 M108.2,92.7h5V67.6h13.2v-4.4h-13.2v4.4H97.7V72h10.5V92.7z M152.2,63.2v3.9h9.5v25.5h5.1V67.2h9.5v-4H152.2z M204,85.8
			c0,0.3,0,0.7-0.1,1c-0.1,0.3-0.3,0.6-0.6,0.8c-0.2,0.2-0.5,0.4-0.8,0.6c-0.3,0.1-0.6,0.2-1,0.2h-10.9c-0.3,0-0.7,0-1-0.2
			c-0.3-0.1-0.6-0.3-0.9-0.6c-0.2-0.2-0.4-0.5-0.5-0.8c-0.1-0.3-0.2-0.6-0.2-1V63.2H183v22.3c0,0.9,0.1,1.8,0.4,2.6
			c0.3,0.8,0.8,1.6,1.4,2.3c0.6,0.7,1.3,1.2,2.1,1.6c0.8,0.4,1.7,0.6,2.6,0.7c0.2,0,0.5,0,0.7,0H202c0.9,0,1.8-0.1,2.6-0.4
			c0.8-0.3,1.6-0.8,2.3-1.4c0.7-0.6,1.2-1.3,1.6-2.1c0.4-0.8,0.6-1.7,0.7-2.6c0-0.2,0-0.5,0-0.7V63.2H204V85.8z M142,80.8h-9.8
			L137,69h0.2L142,80.8z M139.8,63.2h-5.2l-12.3,29.5h4.9l3-7.5h13.4l3,7.5h5.3L139.8,63.2z"/>
	</g>
</g>
<g id="Layer_13" class="st0">
	<g class="st3">
		<g>
			<path class="st37" d="M127.6,76.4H122c-0.7,0-1.3,0-1.5,0.1c-0.7,0.2-1.1,0.7-1.1,1.6c0,1.1,0.9,1.6,2.6,1.6h5.7
				C127.6,79.7,127.6,76.4,127.6,76.4z M121.6,72.5h6c0-1.3-0.2-2.1-0.8-2.6c-0.5-0.5-1.5-0.7-2.9-0.7h-8.3v-3.9h8.3
				c2.3,0,3.9,0.1,4.8,0.5c1.7,0.5,2.8,1.8,3.4,3.8c0.3,0.9,0.4,2.1,0.4,3.7v10.2h-10.3c-1.6,0-2.6,0-2.9,0
				c-1.2-0.1-2.1-0.4-2.7-0.9c-1.5-1-2.2-2.5-2.2-4.5c0-1.2,0.3-2.3,0.9-3.3c0.6-1,1.3-1.6,2.3-1.9
				C118.3,72.7,119.7,72.5,121.6,72.5z M95.8,79.7V65.5h5v14.2h5.4V65.5h5v18.1H92.9c-3,0-5-0.6-6-1.7c-1.1-1.2-1.6-2.8-1.6-4.9
				V65.5h5v10.8c0,1.4,0.2,2.3,0.7,2.8c0.5,0.5,1.2,0.7,2.3,0.7C93.2,79.7,95.8,79.7,95.8,79.7z M138.2,65.5h9.5
				c1.3,0,2.2,0.1,2.8,0.2c0.9,0.2,1.8,0.6,2.5,1.3c1.2,1.2,1.9,3,1.9,5.5v11.2H150V71.8c0-1.7-0.9-2.5-2.6-2.5h-4.3v14.2h-5
				L138.2,65.5L138.2,65.5z M174.8,65.5v3.9h-6.1c-1.9,0-3.3,0.4-4.1,1.2c-0.9,0.8-1.3,2.1-1.3,3.9c0,2.2,0.8,3.7,2.4,4.6
				c0.7,0.4,1.9,0.6,3.6,0.6h5.5v3.9h-6.9c-1.8,0-3.3-0.2-4.4-0.6c-1.1-0.4-2.1-1-2.9-1.9c-1.6-1.7-2.4-3.9-2.4-6.6
				c0-3.2,1-5.6,2.9-7.2c1.4-1.2,3.7-1.8,6.9-1.8L174.8,65.5L174.8,65.5z M182.6,58.3V65h5.1c2.7,0,4.6,0.5,5.7,1.6
				c1.1,1.1,1.7,2.8,1.7,5.1v11.2h-5V72.7c0-1.6-0.2-2.7-0.7-3.2c-0.5-0.5-1.4-0.7-2.8-0.7h-4v14.1h-5V58.3H182.6z M212.2,76.4h-5.7
				c-0.7,0-1.3,0-1.5,0.1c-0.7,0.2-1.1,0.7-1.1,1.6c0,1.1,0.9,1.6,2.6,1.6h5.7V76.4L212.2,76.4z M206.3,72.5h6
				c0-1.3-0.2-2.1-0.8-2.6c-0.5-0.5-1.5-0.7-2.9-0.7h-8.3v-3.9h8.3c2.3,0,3.9,0.1,4.8,0.5c1.7,0.5,2.8,1.8,3.4,3.8
				c0.3,0.9,0.4,2.1,0.4,3.7v10.2h-10.3c-1.6,0-2.6,0-2.9,0c-1.2-0.1-2.1-0.4-2.7-0.9c-1.5-1-2.2-2.5-2.2-4.5c0-1.2,0.3-2.3,0.9-3.3
				c0.6-1,1.3-1.6,2.3-1.9C203,72.7,204.3,72.5,206.3,72.5L206.3,72.5z M222.1,82.9h4.6V65h-4.6V82.9z M222.1,63.1h4.6v-4.8h-4.6
				V63.1z M231.3,65.5h9.5c1.3,0,2.2,0.1,2.8,0.2c0.9,0.2,1.8,0.6,2.5,1.3c1.2,1.2,1.9,3,1.9,5.5v11.2h-5V71.8
				c0-1.7-0.9-2.5-2.6-2.5h-4.3v14.2h-4.9L231.3,65.5L231.3,65.5z"/>
			<g>
				<path class="st38" d="M66.2,82.6l-10.8,6.1l-10.8-6.1l-4.5,2.6l15.2,8.5l15.2-8.5L66.2,82.6z"/>
				<path class="st37" d="M69.5,62.4v17.9l-2,1.2l4.3,2.6l3.3-2V60L69.5,62.4z M43.1,81.5l-2-1.2V62.4l-5.6-2.3v22.1l3.3,2
					L43.1,81.5z"/>
				<path class="st37" d="M55.2,68.3L35.4,80v6.4l19.8-11.7L75,86.4V80L55.2,68.3z"/>
				<path class="st38" d="M41.4,61.4l14.1-8.1l14.1,8.1l5.2-2.1L55.4,48.1L36,59.2L41.4,61.4z"/>
			</g>
		</g>
	</g>
</g>
<g id="Unmarshal" class="st0">
	<g class="st3">
		<g>
			<path class="st39" d="M101.8,72.7c0,2.2-0.7,4.1-2.1,5.6c-1.4,1.5-3.2,2.2-5.4,2.2c-2.2,0-4-0.7-5.4-2.2
				c-1.4-1.5-2.1-3.3-2.1-5.6V63h2.3V73c0,1.4,0.5,2.7,1.6,3.7c1.1,1,2.3,1.6,3.7,1.6c1.4,0,2.6-0.5,3.7-1.6c1.1-1,1.6-2.3,1.6-3.7
				V63h2.3V72.7z"/>
			<path class="st39" d="M121.9,80.1h-2.3v-10c0-1.4-0.5-2.7-1.6-3.7c-1.1-1-2.3-1.6-3.7-1.6c-1.4,0-2.7,0.5-3.7,1.6
				c-1.1,1-1.6,2.3-1.6,3.7v10h-2.3v-9.8c0-2.2,0.7-4.1,2.2-5.5c1.4-1.5,3.3-2.2,5.4-2.2c2.2,0,4,0.7,5.4,2.2
				c1.4,1.5,2.2,3.3,2.2,5.5V80.1z"/>
			<path class="st39" d="M151.3,80.1h-2.4V69.6c0-1.3-0.4-2.5-1.1-3.4c-0.8-0.9-1.8-1.4-3-1.4c-1.3,0-2.3,0.4-3.3,1.2
				c-0.9,0.8-1.4,1.8-1.4,3.1v11h-2.4v-11c0-1.2-0.5-2.2-1.4-3.1c-0.9-0.8-2-1.2-3.3-1.2c-1.2,0-2.2,0.5-3,1.4
				c-0.7,0.9-1.1,2.1-1.1,3.4v10.5h-2.4V69.8c0-2.1,0.6-3.9,1.8-5.2c1.1-1.2,2.6-1.9,4.5-2.1c2.5-0.2,4.5,0.9,6,3.2
				c1.5-2.3,3.5-3.4,6-3.2c1.9,0.2,3.4,0.9,4.5,2.1c1.2,1.3,1.9,3,1.9,5.2V80.1z"/>
			<path class="st39" d="M173.8,71.5v8.6h-2.3v-2.7c-1.9,2.1-4.1,3.1-6.8,3.1c-2.4-0.1-4.4-1-6-2.7c-1.7-1.7-2.5-3.8-2.5-6.2
				c0-2.5,0.9-4.7,2.7-6.4c1.8-1.8,3.9-2.6,6.4-2.5c2.4,0.1,4.4,1,6.1,2.8C173.1,67,173.9,69.1,173.8,71.5z M171.5,71.3
				c0-1.8-0.7-3.4-1.9-4.6c-1.2-1.3-2.7-1.9-4.5-1.9c-1.8,0-3.4,0.6-4.7,1.9c-1.3,1.3-1.9,2.8-2,4.7c0,1.8,0.6,3.4,1.8,4.7
				c1.2,1.4,2.7,2.1,4.5,2.2c1.9,0.1,3.5-0.6,4.8-2C170.9,74.9,171.5,73.2,171.5,71.3z"/>
			<path class="st39" d="M185.3,64.9c-1.1,0-1.9,0.3-2.6,0.9c-0.7,0.5-1.1,1-1.4,1.4c-0.4,0.7-0.6,1.5-0.6,2.6v10.2h-2.4V63h2.1v2.4
				c0.5-0.9,1.2-1.6,2.1-2.1c0.9-0.5,1.7-0.7,2.6-0.6L185.3,64.9L185.3,64.9z"/>
			<path class="st39" d="M199,75c0.1,1.5-0.4,2.9-1.6,4c-1.2,1.1-2.6,1.7-4.1,1.5c-1.4-0.1-2.7-0.7-3.6-1.7c-1-1.1-1.5-2.3-1.5-3.8
				h2.4v0.6c0,0.6,0.3,1.2,1,1.8c0.6,0.6,1.3,0.9,2,0.9c1,0,1.7-0.3,2.3-0.9c0.5-0.5,0.8-1.2,0.8-2.1c0-1.5-0.8-2.5-2.5-3l-2-0.6
				c-2.1-0.7-3.2-2.1-3.3-4.3c-0.1-1.3,0.4-2.5,1.3-3.4c1-0.9,2.1-1.4,3.5-1.5c1.2-0.1,2.3,0.3,3.3,1.1c1,0.8,1.6,1.8,1.6,3v0.5
				h-2.4v-0.4c0-0.6-0.3-1.1-0.8-1.5c-0.5-0.4-1.1-0.6-1.8-0.6c-0.6,0-1.2,0.3-1.7,0.7c-0.5,0.4-0.7,1-0.7,1.7
				c-0.1,1.2,0.7,2.1,2.2,2.6l2,0.7C197.7,71.2,198.9,72.7,199,75z"/>
			<path class="st39" d="M218.8,80.1h-2.3v-10c0-1.4-0.5-2.7-1.6-3.7c-1.1-1-2.3-1.6-3.8-1.5c-1.5,0-2.7,0.5-3.7,1.5
				c-1,1-1.5,2.2-1.5,3.6v10.2h-2.3V56.9h2.3v8.5c1.3-1.7,3-2.6,5-2.7c2.1-0.1,4,0.6,5.5,2.1c1.5,1.5,2.3,3.4,2.3,5.6L218.8,80.1
				L218.8,80.1z"/>
			<path class="st39" d="M240.9,71.5v8.6h-2.3v-2.7c-1.9,2.1-4.1,3.1-6.8,3.1c-2.4-0.1-4.4-1-6-2.7c-1.7-1.7-2.5-3.8-2.5-6.2
				c0-2.5,0.9-4.7,2.7-6.4c1.8-1.8,3.9-2.6,6.4-2.5c2.4,0.1,4.4,1,6.1,2.8C240.2,67,241,69.1,240.9,71.5z M238.7,71.3
				c0-1.8-0.7-3.4-1.9-4.6c-1.2-1.3-2.7-1.9-4.5-1.9c-1.8,0-3.4,0.6-4.7,1.9c-1.3,1.3-1.9,2.8-2,4.7c0,1.8,0.6,3.4,1.8,4.7
				c1.2,1.4,2.7,2.1,4.5,2.2c1.9,0.1,3.5-0.6,4.8-2C238.1,74.9,238.7,73.2,238.7,71.3z"/>
			<path class="st39" d="M248,56.9h-2.3v23.2h2.3V56.9z"/>
		</g>
		<path class="st40" d="M72.2,69.2c0-1-0.1-1.9-0.1-2.8V49.7H37.6l6.7,3.6h24.2v13.1c0,1,0,1.9,0.1,2.9c0.1,3.6,0.2,7.2-1.1,10.3
			c-2.3,5.3-7.5,8.8-13.3,8.8c-7.1,0-12.9-4.5-14.7-11.3c-0.5-2-0.4-4.1-0.4-6.3c0-0.8,0-1.6,0-2.4v-8.7l-3.6-1.9v10.6
			c0,0.7,0,1.5,0,2.3C35.4,73,35.3,75.5,36,78c2.1,8.4,9.4,14,18.2,14c7.2,0,13.8-4.3,16.6-11C72.4,77.2,72.3,73.1,72.2,69.2z"/>
		<path class="st40" d="M43.1,74.3c0,0.1,0,0.1,0,0.2c0.4,3.4,3.1,9.9,10.8,9.9c7.8,0,10-6.6,10.1-10.1c0,0,0,0,0,0V58.3
			c0-1-0.8-1.8-1.8-1.8H50.1l6.7,3.6h3.6v14.1c0,0.7-0.5,6.5-6.5,6.5c-6,0-7.1-5.6-7.2-6.6V63.8l-3.6-1.9c0,0.1,0,0.2,0,0.3V74.3z"
			/>
		<path class="st40" d="M43.2,61.8C43.1,61.8,43.2,61.9,43.2,61.8l3.6,1.9L43.2,61.8z"/>
	</g>
</g>
<g id="Cordite" class="st0">
	<g id="Layer_x0020_1" class="st3">
		<g id="_595010952">
			
				<linearGradient id="_595005792_1_" gradientUnits="userSpaceOnUse" x1="110.0763" y1="105.2969" x2="168.6473" y2="71.4809" gradientTransform="matrix(1 0 0 -1 0 143.6)">
				<stop  offset="0.15" style="stop-color:#28B899"/>
				<stop  offset="0.85" style="stop-color:#A9D1E0"/>
			</linearGradient>
			<polygon id="_595005792" class="st41" points="125.4,21.3 117.4,26 103.6,49.6 103.6,60.2 117.7,84.5 125.6,89.3 153.3,89.3 
				161.6,84.4 175.5,60.2 175.5,50 161.8,26.2 153.3,21.3 			"/>
			<path id="_595009896" class="st42" d="M162,72.5L155.6,88l-2.1,1.3h-1l7.3-17.5c0.2,0.3,0.4,0.4,0.7,0.6
				C160.9,72.6,161.5,72.6,162,72.5L162,72.5z M163.1,65.7l12.3-15.9l0.1,0.1l0.1,0.1v3.4l-10.9,14.2c-0.1-0.8-0.5-1.5-1.2-1.8
				C163.3,65.8,163.2,65.8,163.1,65.7L163.1,65.7z M159.2,70.1h-40.1c0-0.6-0.1-1.3-0.4-2l0,0c-0.1-0.1-0.1-0.2-0.2-0.4h41.4
				c-0.1,0.1-0.1,0.2-0.2,0.4C159.3,68.8,159.2,69.5,159.2,70.1L159.2,70.1z M160,67.4l-20.5-35.9l0,0c0.9,0,1.7-0.2,2.4-0.6l0,0
				l20,34.9c-0.2,0.1-0.4,0.2-0.6,0.3C160.7,66.5,160.4,66.9,160,67.4L160,67.4z M113.9,66.9l-10.4-13.3v-3.8l12.4,16
				c-0.4-0.1-0.7,0-1,0.1C114.4,66.1,114.1,66.5,113.9,66.9L113.9,66.9z M116.7,65.9l20.1-35.2c0.1,0.1,0.2,0.1,0.3,0.2
				c0.5,0.3,1.2,0.5,1.9,0.6l-20.6,36.2c-0.4-0.7-0.9-1.2-1.3-1.6C116.9,66.1,116.9,66,116.7,65.9L116.7,65.9z M136.1,29.7
				l-19.3-2.6l0.6-1l1.8-1l17.8,2.4c-0.6,0.4-1,1-1,1.7C136,29.3,136,29.5,136.1,29.7L136.1,29.7z M142,27.3l17.9-2.2l2,1.1l0.5,1
				L143,29.6c0.1-0.1,0.1-0.3,0.1-0.5C143.1,28.4,142.6,27.8,142,27.3L142,27.3z M119,71l7.6,18.3h-1l-2.1-1.3l-6.5-15.4
				c0.3,0,0.5-0.1,0.7-0.1C118.4,72.2,118.8,71.6,119,71L119,71z"/>
			<path id="_595016952" class="st42" d="M118.6,68.1L118.6,68.1c0.4,0.8,0.5,1.7,0.4,2.4c-0.1,0.9-0.5,1.6-1.2,1.8
				c-0.7,0.3-1.5,0.1-2.2-0.3c-0.6-0.4-1.2-1.1-1.6-1.9l0,0c-0.4-0.8-0.5-1.7-0.4-2.4c0.1-0.9,0.5-1.6,1.2-1.8s1.5-0.1,2.2,0.3
				C117.7,66.6,118.3,67.3,118.6,68.1z M139.5,26.7c0.9,0,1.7,0.2,2.4,0.6c0.7,0.4,1.2,1.1,1.2,1.8s-0.4,1.4-1.2,1.8
				c-0.6,0.4-1.5,0.6-2.4,0.6s-1.7-0.2-2.4-0.6c-0.7-0.4-1.2-1.1-1.2-1.8s0.4-1.4,1.2-1.8C137.8,26.9,138.6,26.7,139.5,26.7z
				 M141.1,28.5c-0.4-0.2-1-0.4-1.6-0.4c-0.7,0-1.2,0.1-1.6,0.4c-0.3,0.1-0.4,0.4-0.4,0.6s0.1,0.4,0.4,0.6c0.4,0.2,1,0.4,1.6,0.4
				c0.7,0,1.2-0.1,1.6-0.4c0.3-0.1,0.4-0.4,0.4-0.6C141.6,28.9,141.4,28.7,141.1,28.5z M161,68.7c-0.3,0.6-0.4,1.2-0.3,1.6
				c0.1,0.4,0.1,0.6,0.4,0.7c0.2,0.1,0.4,0,0.7-0.2c0.4-0.3,0.7-0.7,1-1.3l0,0c0.3-0.6,0.4-1.2,0.3-1.6c-0.1-0.4-0.1-0.6-0.4-0.7
				s-0.4,0-0.7,0.2C161.6,67.6,161.3,68.1,161,68.7L161,68.7z M159.2,70.5c-0.1-0.7,0.1-1.6,0.4-2.4c0.4-0.8,1-1.6,1.6-1.9
				c0.7-0.5,1.5-0.6,2.2-0.3c0.7,0.3,1.1,1,1.2,1.8c0.1,0.7,0,1.5-0.4,2.3l0,0l-0.1,0.1c-0.4,0.8-1,1.6-1.6,1.9
				c-0.7,0.5-1.5,0.6-2.2,0.3C159.7,72.1,159.3,71.4,159.2,70.5L159.2,70.5z M117.6,70.4c0.1-0.4-0.1-1-0.3-1.6l0,0
				c-0.3-0.6-0.7-1-1-1.3c-0.3-0.2-0.6-0.3-0.7-0.2c-0.2,0.1-0.3,0.4-0.4,0.7c-0.1,0.4,0.1,1,0.3,1.6l0,0c0.3,0.6,0.7,1,1,1.3
				c0.3,0.2,0.6,0.3,0.7,0.2C117.5,71,117.5,70.8,117.6,70.4z"/>
		</g>
		<path class="st43" d="M77.7,110.7c0.4,0.3,0.7,0.7,0.9,1c0.2,0.4,0.3,0.8,0.3,1.4v4.7c0,0.5,0.1,0.9,0.4,1.2
			c0.3,0.3,0.7,0.5,1,0.5c0.3,0,0.4,0.1,0.5,0.1c0.1,0.1,0.1,0.2,0.1,0.4c0,0.1-0.1,0.3-0.1,0.4c-0.1,0.1-0.3,0.1-0.5,0.1
			c-0.7,0-1.3-0.2-1.7-0.7c-0.6-0.6-0.9-1.3-0.9-2.1V113c0-0.4-0.1-0.9-0.4-1.2c-0.3-0.3-0.7-0.5-1.1-0.5c-0.2,0-0.4-0.1-0.5-0.1
			c-0.1-0.1-0.1-0.2-0.1-0.4s0.1-0.3,0.1-0.4c0.1-0.1,0.3-0.1,0.5-0.1c0.4,0,0.8-0.2,1.1-0.5s0.4-0.7,0.4-1.2v-4.7
			c0-0.8,0.2-1.5,0.7-2c0.5-0.5,1.1-0.8,1.8-0.8c0.2,0,0.4,0.1,0.4,0.1s0.1,0.2,0.1,0.4s-0.1,0.3-0.1,0.4c-0.1,0.1-0.2,0.1-0.5,0.1
			c-0.4,0.1-0.8,0.2-1,0.5c-0.3,0.3-0.4,0.7-0.4,1.2v4.7c0,0.5-0.1,1-0.3,1.3C78.4,110,78.1,110.4,77.7,110.7L77.7,110.7z
			 M98.9,103.5v-0.7c0-0.2,0.1-0.4,0.1-0.6c0.1-0.1,0.2-0.1,0.4-0.1c0.1,0,0.3,0.1,0.4,0.1c0.1,0.1,0.1,0.3,0.1,0.6v3
			c0,0.3-0.1,0.4-0.1,0.6c-0.1,0.1-0.2,0.1-0.4,0.1c-0.1,0-0.3-0.1-0.4-0.1s-0.1-0.3-0.1-0.5c-0.1-0.7-0.4-1.3-1.2-1.9
			c-1-0.7-2.1-1.2-3.4-1.2c-0.8,0-1.6,0.2-2.4,0.6c-0.5,0.3-1,0.6-1.3,1c-0.6,0.7-1,1.4-1.3,2.2c-0.2,0.6-0.4,1.3-0.4,2.1v1.9
			c0,1.6,0.6,3,1.8,4.2c1.2,1.2,2.5,1.8,4.1,1.8c1,0,1.8-0.2,2.5-0.6c0.7-0.4,1.5-1,2.1-1.8c0.1-0.1,0.3-0.3,0.5-0.3
			c0.1,0,0.3,0.1,0.4,0.1c0.1,0.1,0.1,0.2,0.1,0.4c0,0.2-0.2,0.5-0.6,0.9c-0.7,0.8-1.5,1.4-2.4,1.8s-1.8,0.6-2.7,0.6
			c-0.8,0-1.6-0.1-2.4-0.4c-0.6-0.2-1.1-0.5-1.6-0.8c-0.4-0.3-0.9-0.8-1.5-1.6c-0.6-0.7-1-1.4-1.2-2.1c-0.2-0.6-0.3-1.3-0.3-2.1
			v-2.2c0-1,0.3-2.1,0.9-3.3c0.6-1.1,1.3-2,2.4-2.6c1-0.6,2.1-0.9,3.3-0.9C96.1,101.7,97.6,102.3,98.9,103.5L98.9,103.5z
			 M116.7,109.6c0,1.5-0.3,2.8-0.9,4c-0.6,1.3-1.4,2.2-2.4,2.9c-1,0.7-2.1,1-3.3,1c-1.8,0-3.3-0.7-4.6-2.2c-1.3-1.5-2-3.4-2-5.7
			c0-2.3,0.7-4.2,2-5.7s2.9-2.2,4.6-2.2c1.2,0,2.3,0.4,3.3,1c1,0.7,1.8,1.6,2.4,2.9C116.4,106.8,116.7,108.2,116.7,109.6
			L116.7,109.6z M115.5,109.6c0-1.8-0.5-3.3-1.6-4.7c-1-1.4-2.4-2.1-4-2.1c-1.6,0-2.8,0.7-3.9,2c-1.1,1.3-1.6,3-1.6,4.8
			c0,2,0.6,3.6,1.7,5c1.1,1.3,2.4,1.9,3.8,1.9c1.6,0,3-0.7,4-2.1C115,113,115.5,111.4,115.5,109.6L115.5,109.6z M122.3,110.4v5.6h2
			c0.3,0,0.4,0.1,0.6,0.1c0.1,0.1,0.1,0.2,0.1,0.4c0,0.1-0.1,0.3-0.1,0.4c-0.1,0.1-0.3,0.1-0.6,0.1h-4.5c-0.3,0-0.4-0.1-0.5-0.1
			c-0.1-0.1-0.1-0.2-0.1-0.4c0-0.1,0.1-0.3,0.1-0.4s0.3-0.1,0.5-0.1h1.5v-12.9h-1.5c-0.3,0-0.4-0.1-0.5-0.1
			c-0.1-0.1-0.1-0.2-0.1-0.4c0-0.1,0.1-0.3,0.1-0.4s0.3-0.1,0.5-0.1h6.6c1.3,0,2.5,0.4,3.4,1.3c1,0.9,1.4,1.8,1.4,2.9
			c0,0.7-0.3,1.5-0.9,2.2c-0.6,0.7-1.6,1.3-2.9,1.7c0.7,0.5,1.4,1.1,2,1.8c0.5,0.7,1.4,2.1,2.7,4.1h0.8c0.2,0,0.4,0.1,0.6,0.1
			c0.1,0.1,0.1,0.2,0.1,0.4c0,0.1-0.1,0.3-0.1,0.4c-0.1,0.1-0.3,0.1-0.6,0.1h-1.5c-1.3-2.4-2.4-4-3.1-4.8c-0.7-0.8-1.6-1.5-2.5-1.9
			L122.3,110.4L122.3,110.4z M122.3,109.3h3c1,0,1.8-0.1,2.6-0.5c0.7-0.4,1.3-0.7,1.7-1.2s0.5-1,0.5-1.4c0-0.7-0.4-1.4-1.1-2.1
			c-0.7-0.7-1.6-1-2.7-1h-4V109.3L122.3,109.3z M137.4,116v-12.9h-0.9c-0.3,0-0.4-0.1-0.5-0.1c-0.1-0.1-0.1-0.2-0.1-0.4
			s0.1-0.3,0.1-0.4c0.1-0.1,0.3-0.1,0.5-0.1h5.8c0.9,0,1.8,0.2,2.5,0.6s1.3,0.8,1.7,1.3c0.7,0.8,1.2,1.7,1.6,2.6
			c0.2,0.7,0.4,1.5,0.4,2.4v1.5c0,1.1-0.2,2.2-0.7,3.3c-0.5,1-1.3,1.9-2.4,2.7c-0.8,0.6-1.8,0.8-3,0.8h-5.8c-0.3,0-0.4-0.1-0.5-0.1
			c-0.1-0.1-0.1-0.2-0.1-0.4s0.1-0.3,0.1-0.4c0.1-0.1,0.3-0.1,0.5-0.1L137.4,116L137.4,116z M138.6,116h3.9c0.9,0,1.8-0.3,2.6-0.9
			s1.4-1.3,1.8-2.1c0.4-0.8,0.6-1.6,0.6-2.4v-2c0-0.7-0.1-1.3-0.3-1.8c-0.3-0.7-0.7-1.5-1.3-2.1c-0.3-0.4-0.7-0.7-1.4-1
			c-0.6-0.3-1.3-0.4-1.9-0.4h-3.9V116L138.6,116z M158.2,103.1V116h3.7c0.2,0,0.4,0.1,0.5,0.1c0.1,0.1,0.1,0.2,0.1,0.4
			s-0.1,0.3-0.1,0.4c-0.1,0.1-0.3,0.1-0.5,0.1h-8.5c-0.3,0-0.4-0.1-0.5-0.1c-0.1-0.1-0.1-0.2-0.1-0.4s0.1-0.3,0.1-0.4
			c0.1-0.1,0.3-0.1,0.5-0.1h3.7v-12.9h-3.7c-0.3,0-0.4-0.1-0.5-0.1c-0.1-0.1-0.1-0.2-0.1-0.4s0.1-0.3,0.1-0.4
			c0.1-0.1,0.3-0.1,0.5-0.1h8.5c0.2,0,0.4,0.1,0.5,0.1c0.1,0.1,0.1,0.2,0.1,0.4s-0.1,0.3-0.1,0.4c-0.1,0.1-0.3,0.1-0.5,0.1H158.2z
			 M174,103.1V116h2.8c0.2,0,0.4,0.1,0.5,0.1c0.1,0.1,0.1,0.2,0.1,0.4s-0.1,0.3-0.1,0.4c-0.1,0.1-0.3,0.1-0.5,0.1h-6.7
			c-0.2,0-0.4-0.1-0.5-0.1c-0.1-0.1-0.1-0.2-0.1-0.4s0.1-0.3,0.1-0.4c0.1-0.1,0.3-0.1,0.5-0.1h2.8v-12.9h-4.4v3.8
			c0,0.3-0.1,0.4-0.1,0.6c-0.1,0.1-0.2,0.1-0.4,0.1s-0.3-0.1-0.4-0.1c-0.1-0.1-0.1-0.3-0.1-0.6v-4.8h12.1v4.8c0,0.3-0.1,0.4-0.1,0.6
			c-0.1,0.1-0.2,0.1-0.4,0.1s-0.3-0.1-0.4-0.1c-0.1-0.1-0.1-0.3-0.1-0.6v-3.8L174,103.1L174,103.1z M185.8,109.8v6.2h8.4v-3.2
			c0-0.2,0.1-0.4,0.1-0.6c0.1-0.1,0.2-0.1,0.4-0.1s0.3,0.1,0.4,0.1c0.1,0.1,0.1,0.3,0.1,0.6v4.3h-12c-0.3,0-0.4-0.1-0.5-0.1
			c-0.1-0.1-0.1-0.2-0.1-0.4s0.1-0.3,0.1-0.4c0.1-0.1,0.3-0.1,0.5-0.1h1.5v-12.9h-1.5c-0.3,0-0.4-0.1-0.5-0.1
			c-0.1-0.1-0.1-0.2-0.1-0.4s0.1-0.3,0.1-0.4c0.1-0.1,0.3-0.1,0.5-0.1h11.4v3.7c0,0.3-0.1,0.4-0.1,0.6c-0.1,0.1-0.2,0.1-0.4,0.1
			s-0.3-0.1-0.4-0.1s-0.1-0.3-0.1-0.6v-2.7h-7.8v5.6h3.9v-1.3c0-0.2,0.1-0.4,0.1-0.6c0.1-0.1,0.2-0.1,0.4-0.1s0.3,0.1,0.4,0.1
			c0.1,0.1,0.1,0.3,0.1,0.6v3.6c0,0.3-0.1,0.4-0.1,0.6c-0.1,0.1-0.2,0.1-0.4,0.1s-0.3-0.1-0.4-0.1c-0.1-0.1-0.1-0.3-0.1-0.6v-1.3
			L185.8,109.8L185.8,109.8z M205.8,110.7c-0.4-0.3-0.7-0.7-0.9-1c-0.2-0.4-0.3-0.8-0.3-1.3v-4.7c0-0.5-0.1-0.9-0.4-1.2
			s-0.7-0.5-1-0.5c-0.3,0-0.4-0.1-0.5-0.1c-0.1-0.1-0.1-0.2-0.1-0.4c0-0.1,0.1-0.3,0.1-0.4c0.1-0.1,0.3-0.1,0.5-0.1
			c0.7,0,1.3,0.2,1.7,0.7c0.6,0.6,0.9,1.3,0.9,2.1v4.7c0,0.4,0.1,0.9,0.4,1.2c0.3,0.3,0.7,0.5,1.1,0.5c0.2,0,0.4,0.1,0.5,0.1
			c0.1,0.1,0.1,0.2,0.1,0.4s-0.1,0.3-0.1,0.4c-0.1,0.1-0.3,0.1-0.5,0.1c-0.4,0-0.8,0.2-1.1,0.5c-0.3,0.3-0.4,0.7-0.4,1.2v4.7
			c0,0.8-0.3,1.5-0.7,2c-0.5,0.5-1.1,0.8-1.8,0.8c-0.2,0-0.4-0.1-0.5-0.1c-0.1-0.1-0.1-0.2-0.1-0.4s0.1-0.3,0.1-0.4
			c0.1-0.1,0.3-0.1,0.5-0.1c0.4-0.1,0.8-0.2,1-0.5c0.3-0.3,0.4-0.7,0.4-1.2V113c0-0.5,0.1-1,0.2-1.3
			C205.1,111.4,205.4,111,205.8,110.7L205.8,110.7z"/>
	</g>
</g>
<g id="Yodaplus" class="st0">
	<g class="st3">
		<polygon class="st44" points="67.2,60.4 48.2,95.9 38.8,95.9 46.9,80.8 35.4,60.4 45.1,60.4 51.5,72.6 57.6,60.4 		"/>
		<path class="st44" d="M99.5,62.8c0,3.3-1.1,6.1-3.3,8.4c-2.6,2.9-6.3,4.3-11,4.3c-4.7,0-8.4-1.4-11-4.3C72.2,68.8,71,66,71,62.6
			c0-0.6,0.1-1.3,0.1-1.9l-10-7.3h14.1c2.6-2.2,5.9-3.3,10.2-3.3c3.9,0,7.1,1.1,9.6,3.3h14.1l-10,7.3C99.5,61.3,99.5,62,99.5,62.8
			L99.5,62.8z M90.8,62.8L90.8,62.8c0-1.5-0.6-2.8-1.6-3.9c-1.1-1.1-2.4-1.6-3.9-1.6c-1.7,0-3.1,0.6-4.2,1.9
			c-0.9,1.1-1.3,2.3-1.3,3.6c0,1.4,0.4,2.6,1.3,3.6c1.1,1.3,2.5,1.9,4.2,1.9c1.5,0,2.8-0.5,3.9-1.6C90.3,65.6,90.8,64.3,90.8,62.8z"
			/>
		<path class="st44" d="M128.9,84h-8.4v-2.6c-0.8,1-1.6,1.8-2.4,2.2c-1.4,0.8-3,1.2-4.8,1.2c-2.9,0-5.5-1-7.8-3
			c-2.7-2.4-4.1-5.6-4.1-9.6s1.4-7.3,4.2-9.6c2.2-1.9,4.8-2.9,7.6-2.9c1.7,0,3.3,0.4,4.7,1.1c0.8,0.4,1.7,1.1,2.6,2v-17h8.4
			L128.9,84L128.9,84z M120.8,72.3L120.8,72.3c0-1.5-0.5-2.8-1.6-3.8c-1.1-1.1-2.3-1.6-3.8-1.6c-1.6,0-3,0.6-4.1,1.9
			c-0.9,1-1.3,2.2-1.3,3.5s0.4,2.4,1.3,3.5c1.1,1.3,2.4,1.9,4.1,1.9c1.5,0,2.8-0.5,3.8-1.6C120.3,75,120.8,73.8,120.8,72.3z"/>
		<path class="st44" d="M158.2,84h-8.4v-2.6c-0.8,1-1.6,1.8-2.4,2.2c-1.4,0.8-3,1.2-4.8,1.2c-2.9,0-5.5-1-7.8-3
			c-2.7-2.4-4.1-5.6-4.1-9.6s1.4-7.3,4.2-9.6c2.2-1.9,4.8-2.9,7.6-2.9c1.7,0,3.3,0.4,4.7,1.1c0.8,0.4,1.7,1.1,2.6,2v-2.3h8.4
			L158.2,84L158.2,84z M150,72.3L150,72.3c0-1.5-0.5-2.8-1.6-3.8c-1.1-1.1-2.3-1.6-3.8-1.6c-1.6,0-3,0.6-4.1,1.9
			c-0.9,1-1.3,2.2-1.3,3.4c0,1.3,0.4,2.4,1.3,3.4c1.1,1.3,2.4,1.9,4.1,1.9c1.5,0,2.8-0.5,3.8-1.6C149.5,75,150,73.8,150,72.3z"/>
		<path class="st45" d="M188.4,72.3c0,4-1.4,7.3-4.2,9.6c-2.2,1.9-4.8,2.9-7.6,2.9c-1.7,0-3.3-0.4-4.7-1.1c-0.8-0.4-1.7-1.1-2.6-2
			v14.1h-8.4V60.3h8.4v2.6c0.8-1,1.6-1.7,2.4-2.2c1.4-0.8,3-1.2,4.8-1.2c2.9,0,5.5,1,7.8,3C187,65.1,188.4,68.3,188.4,72.3
			L188.4,72.3z M179.7,72.3L179.7,72.3c0-1.3-0.4-2.5-1.3-3.5c-1.1-1.3-2.4-1.9-4.1-1.9c-1.5,0-2.8,0.5-3.8,1.6
			c-1.1,1.1-1.6,2.3-1.6,3.8s0.5,2.8,1.6,3.8c1.1,1.1,2.3,1.6,3.8,1.6c1.7,0,3-0.6,4.1-1.9C179.3,74.7,179.7,73.6,179.7,72.3z"/>
		<rect x="190.1" y="45.8" class="st45" width="8.4" height="38.2"/>
		<path class="st45" d="M226.3,75.5c0,4.4-2.1,7.3-6.3,8.8c-1.8,0.6-3.8,0.9-6.3,0.9c-4.9,0-8.4-1.2-10.6-3.6
			c-1.4-1.5-2.1-3.6-2.1-6.1v-15h8.4v13.4c0,1.5,0.4,2.6,1.1,3.3c0.8,0.8,1.8,1.1,3.1,1.1s2.4-0.4,3.1-1.1c0.7-0.7,1.1-1.8,1.1-3.3
			V60.4h8.4L226.3,75.5L226.3,75.5z"/>
		<path class="st45" d="M248,76.1c0,2.5-0.9,4.6-2.7,6.1c-2,1.8-4.9,2.7-8.6,2.7c-3.3,0-6.4-0.9-9.5-2.7l3-5.9
			c2.4,1.5,4.6,2.3,6.7,2.3c1.8,0,2.6-0.6,2.6-1.8c0-0.6-0.3-1.1-0.9-1.4c-0.4-0.2-1.3-0.5-2.6-0.8c-1.6-0.3-2.6-0.6-3-0.8
			c-1.7-0.7-2.8-1.7-3.4-3.1c-0.3-0.8-0.5-1.7-0.5-2.8c0-2.1,0.7-3.9,2.1-5.4c1.8-2,4.6-3,8.4-3c2.6,0,5.2,0.5,7.7,1.5l-2.8,5.4
			c-1.6-0.8-3.1-1.2-4.5-1.2c-1.7,0-2.5,0.6-2.5,1.8c0,0.6,0.3,1,1,1.3c0.3,0.1,1.2,0.4,2.7,0.7c2.2,0.4,3.8,1.2,4.8,2.2
			C247.3,72.5,248,74.1,248,76.1z"/>
		<rect x="75.6" y="79.5" class="st45" width="19.4" height="5.2"/>
	</g>
</g>
<g id="Tracefinancial" class="st0">
	<g class="st3">
		<path class="st46" d="M42.9,60.2v5.5h4.6v3.6h-4.6v8.5c0,2.3,0.6,3.6,2.5,3.6c0.8,0,1.5-0.1,1.9-0.2l0.1,3.7
			c-0.7,0.3-2,0.5-3.5,0.5c-1.8,0-3.3-0.6-4.2-1.6c-1-1.1-1.5-2.8-1.5-5.4v-9h-2.8v-3.6h2.8v-4.3L42.9,60.2z"/>
		<path class="st46" d="M51.2,71.9c0-2.6,0-4.5-0.2-6.2h4.2l0.2,3.7h0.2c0.9-2.7,3.2-4.1,5.3-4.1c0.5,0,0.7,0,1.1,0.1v4.6
			c-0.4-0.1-0.8-0.2-1.4-0.2c-2.3,0-3.9,1.5-4.3,3.7c-0.1,0.4-0.2,0.9-0.2,1.5v10h-4.9L51.2,71.9L51.2,71.9z"/>
		<path class="st46" d="M75.1,75.5c-3.4-0.1-6.7,0.7-6.7,3.6c0,1.9,1.2,2.8,2.8,2.8c1.9,0,3.4-1.3,3.8-2.6c0.1-0.4,0.2-0.7,0.2-1.1
			V75.5z M75.8,84.9l-0.3-2.1h-0.1c-1.2,1.5-3.2,2.6-5.7,2.6c-3.9,0-6-2.8-6-5.7c0-4.9,4.3-7.3,11.4-7.3V72c0-1.3-0.5-3.4-3.9-3.4
			c-1.9,0-3.9,0.6-5.2,1.4L65,66.9c1.4-0.9,3.9-1.7,6.9-1.7c6.2,0,7.9,3.9,7.9,8.1v6.9c0,1.7,0.1,3.4,0.3,4.6L75.8,84.9L75.8,84.9z"
			/>
		<path class="st46" d="M99.1,84.3c-1,0.5-3,1-5.5,1c-6,0-9.9-3.8-9.9-9.8c0-5.8,4-10.3,10.7-10.3c1.8,0,3.6,0.4,4.7,0.9l-0.9,3.6
			c-0.8-0.4-1.9-0.7-3.7-0.7c-3.7,0-5.9,2.7-5.9,6.2c0,4,2.6,6.2,5.9,6.2c1.7,0,2.9-0.4,3.8-0.7L99.1,84.3z"/>
		<path class="st46" d="M114.3,73.2c0-1.8-0.7-4.7-4-4.7c-3,0-4.3,2.7-4.5,4.7H114.3z M105.8,76.6c0.1,3.5,2.8,5,5.9,5
			c2.3,0,3.9-0.3,5.3-0.9l0.7,3.4c-1.7,0.7-4,1.2-6.7,1.2c-6.2,0-9.9-3.8-9.9-9.7c0-5.3,3.2-10.4,9.4-10.4c6.2,0,8.3,5.1,8.3,9.4
			c0,0.9-0.1,1.6-0.2,2.1H105.8z"/>
		<path class="st46" d="M123.9,84.9V67.5h-2.7v-1.5h2.7v-1c0-2.9,0.5-5.3,2.1-6.8c1.2-1.2,2.7-1.7,4.2-1.7c1.2,0,2.3,0.3,2.8,0.7
			l-0.6,1.4c-0.5-0.3-1.3-0.5-2.4-0.5c-3.6,0-4.3,3.2-4.3,6.9v1.1h5v1.5h-5v17.4L123.9,84.9L123.9,84.9z"/>
		<path class="st46" d="M137,84.9h-1.9v-19h1.9V84.9z M136,62.1c-0.9,0-1.5-0.7-1.5-1.6c0-0.9,0.7-1.7,1.5-1.7s1.5,0.7,1.5,1.7
			C137.5,61.4,136.9,62.1,136,62.1C136,62.1,136,62.1,136,62.1z"/>
		<path class="st46" d="M143.3,70.5c0-1.7,0-3-0.2-4.5h1.8l0.1,3.4h0.1c1-2.1,3.4-3.8,6.5-3.8c1.8,0,6.6,0.9,6.6,8v11.4h-1.9V73.7
			c0-3.5-1.3-6.6-5.3-6.6c-2.6,0-4.9,1.9-5.7,4.4c-0.1,0.4-0.2,1.1-0.2,1.7v11.8h-1.9V70.5z"/>
		<path class="st46" d="M174.4,74.7c-4.1-0.1-9.6,0.5-9.6,5.1c0,2.7,1.8,4,3.8,4c3.2,0,5-1.9,5.6-3.8c0.2-0.4,0.2-0.8,0.2-1.1V74.7z
			 M176.3,80.4c0,1.5,0,3,0.3,4.5h-1.7l-0.3-2.7h-0.1c-0.9,1.5-3,3.2-6.1,3.2c-3.8,0-5.6-2.7-5.6-5.2c0-4.4,3.8-7,11.6-6.9v-0.5
			c0-1.9-0.4-5.6-4.9-5.6c-1.7,0-3.4,0.4-4.8,1.4l-0.6-1.4c1.7-1.1,3.9-1.6,5.6-1.6c5.5,0,6.6,4.1,6.6,7.5V80.4z"/>
		<path class="st46" d="M182.4,70.5c0-1.7,0-3-0.2-4.5h1.8l0.1,3.4h0.1c1-2.1,3.4-3.8,6.5-3.8c1.8,0,6.6,0.9,6.6,8v11.4h-1.9V73.7
			c0-3.5-1.3-6.6-5.2-6.6c-2.6,0-4.9,1.9-5.7,4.4c-0.1,0.4-0.2,1.1-0.2,1.7v11.8h-1.9L182.4,70.5L182.4,70.5z"/>
		<path class="st46" d="M216.7,84.1c-0.8,0.4-2.8,1.2-5.6,1.2c-5.5,0-9.1-4-9.1-9.7c0-6,4.1-10.1,9.8-10.1c2.3,0,4.3,0.7,5,1.2
			l-0.7,1.5c-0.9-0.5-2.4-1.1-4.5-1.1c-5.1,0-7.7,3.9-7.7,8.3c0,5,3.1,8.2,7.5,8.2c2.3,0,3.7-0.6,4.7-1.1L216.7,84.1z"/>
		<path class="st46" d="M223.1,84.9h-1.9v-19h1.9V84.9z M222.1,62.1c-0.9,0-1.5-0.7-1.5-1.6c0-0.9,0.7-1.7,1.5-1.7s1.5,0.7,1.5,1.7
			C223.7,61.4,223.1,62.1,222.1,62.1C222.1,62.1,222.1,62.1,222.1,62.1z"/>
		<path class="st46" d="M239.4,74.7c-4.1-0.1-9.6,0.5-9.6,5.1c0,2.7,1.8,4,3.8,4c3.2,0,5-1.9,5.6-3.8c0.2-0.4,0.2-0.8,0.2-1.1
			L239.4,74.7L239.4,74.7z M241.3,80.4c0,1.5,0,3,0.3,4.5h-1.7l-0.3-2.7h-0.1c-0.9,1.5-3,3.2-6.1,3.2c-3.8,0-5.6-2.7-5.6-5.2
			c0-4.4,3.8-7,11.6-6.9v-0.5c0-1.9-0.4-5.6-4.9-5.6c-1.7,0-3.4,0.4-4.8,1.4l-0.6-1.4c1.7-1.1,3.9-1.6,5.6-1.6
			c5.5,0,6.6,4.1,6.6,7.5V80.4z"/>
		<rect x="246.3" y="56.8" class="st46" width="1.7" height="28.1"/>
	</g>
</g>
<g id="Leewayhertz" class="st0">
	<g class="st3">
		<g id="Page-1">
			<g id="Artboard">
				<path id="LeewayHertz" class="st47" d="M55.5,79.7l0.5-7.7h-1.3c-0.3,0.7-0.7,1.6-1.4,2.8s-1.2,2-1.7,2.5
					c-0.2,0.2-0.4,0.4-0.8,0.5c-0.4,0.1-0.7,0.2-1.2,0.3c-0.4,0.1-0.9,0.1-1.4,0.1c-0.5,0-0.9,0-1.4,0c-1,0-1.8,0-2.3-0.1
					c-0.5-0.1-1-0.2-1.2-0.4c-0.3-0.2-0.5-0.6-0.6-1c-0.1-0.4-0.1-1.1-0.1-1.9l0,0V57.5c0-0.4,0.1-0.8,0.2-1.1
					c0.2-0.4,0.4-0.6,0.8-0.7c0.2-0.1,0.6-0.2,1.2-0.3s1-0.2,1.3-0.2l0,0v-1.3H35.4v1.3c0.3,0,0.7,0.1,1.2,0.2s0.9,0.3,1.2,0.4
					c0.4,0.2,0.7,0.4,0.8,0.8s0.2,0.7,0.2,1.1l0,0v18.5c0,0.5-0.1,0.9-0.2,1.2s-0.4,0.5-0.8,0.7c-0.2,0.1-0.6,0.2-1.2,0.2
					c-0.5,0.1-1,0.1-1.3,0.1l0,0v1.3H55.5z M65.9,80.2c1.6,0,3.1-0.4,4.3-1.3c1.3-0.8,2.3-2,3-3.4l0,0L72,74.7
					c-0.7,1.3-1.5,2.2-2.3,2.7c-0.8,0.5-1.7,0.8-2.8,0.8c-1.1,0-2-0.2-2.7-0.6c-0.8-0.4-1.4-1-1.8-1.7c-0.5-0.7-0.8-1.6-1.1-2.5
					s-0.3-2-0.3-3.2l0,0h11.8V69c0-1.1-0.1-2.1-0.4-3c-0.3-0.9-0.7-1.7-1.2-2.4c-0.6-0.7-1.3-1.3-2.3-1.7c-0.9-0.4-2-0.6-3.4-0.6
					c-1.3,0-2.4,0.3-3.4,0.8c-1,0.5-1.9,1.2-2.6,2.1c-0.7,0.9-1.3,1.9-1.6,3c-0.4,1.1-0.6,2.3-0.6,3.4c0,1.3,0.2,2.5,0.5,3.7
					c0.3,1.2,0.9,2.2,1.6,3.1c0.7,0.9,1.6,1.6,2.7,2.1C63.2,80,64.5,80.2,65.9,80.2z M69.2,68.7H61c0.1-1.9,0.5-3.4,1.4-4.4
					c0.8-1.1,1.9-1.6,3.2-1.6c0.8,0,1.4,0.2,1.9,0.5c0.5,0.4,0.9,0.8,1.1,1.4c0.3,0.5,0.4,1.2,0.6,1.9C69.2,67.3,69.2,68,69.2,68.7
					L69.2,68.7z M83.9,80.2c1.6,0,3.1-0.4,4.3-1.3c1.3-0.8,2.3-2,3-3.4l0,0l-1.3-0.8c-0.7,1.3-1.5,2.2-2.3,2.7
					c-0.8,0.5-1.7,0.8-2.8,0.8c-1.1,0-2-0.2-2.7-0.6c-0.8-0.4-1.4-1-1.8-1.7c-0.5-0.7-0.8-1.6-1.1-2.5c-0.2-1-0.3-2-0.3-3.2l0,0
					h11.8V69c0-1.1-0.1-2.1-0.4-3c-0.3-0.9-0.7-1.7-1.2-2.4c-0.6-0.7-1.3-1.3-2.3-1.7c-0.9-0.4-2-0.6-3.4-0.6
					c-1.3,0-2.4,0.3-3.4,0.8c-1,0.5-1.9,1.2-2.6,2.1c-0.7,0.9-1.3,1.9-1.6,3s-0.6,2.3-0.6,3.4c0,1.3,0.2,2.5,0.5,3.7
					c0.3,1.2,0.9,2.2,1.6,3.1c0.7,0.9,1.6,1.6,2.7,2.1S82.4,80.2,83.9,80.2z M87.2,68.7h-8.3c0.1-1.9,0.5-3.4,1.4-4.4
					c0.8-1.1,1.9-1.6,3.2-1.6c0.8,0,1.4,0.2,1.9,0.5c0.5,0.4,0.9,0.8,1.1,1.4c0.3,0.5,0.4,1.2,0.6,1.9C87.1,67.3,87.2,68,87.2,68.7
					L87.2,68.7z M101,79.9l4.8-13.2l4.8,13.2h1.6c0.2-0.7,0.4-1.4,0.6-2.1c0.2-0.7,0.4-1.4,0.7-2c0.7-2,1.3-3.8,1.8-5.4
					c0.5-1.6,1.1-3.3,1.7-5.1c0.3-0.8,0.7-1.3,1.3-1.7c0.6-0.4,1.1-0.6,1.6-0.6l0,0v-1.2h-6.8V63c0.1,0,0.3,0,0.6,0.1
					c0.3,0,0.5,0.1,0.8,0.2c0.3,0.1,0.5,0.2,0.7,0.4c0.2,0.2,0.3,0.4,0.3,0.6c0,0.3,0,0.5-0.1,0.8c-0.1,0.3-0.2,0.5-0.2,0.9
					c-0.4,1.3-0.8,2.8-1.4,4.3c-0.5,1.5-1,3.1-1.6,4.7l0,0l-4.7-12.7h-1.7l-4.6,12.9c-0.8-2.5-1.4-4.6-1.9-6.1
					c-0.5-1.6-0.9-3-1.3-4.3c-0.1-0.2-0.1-0.4-0.2-0.5s-0.1-0.3-0.1-0.3c0-0.3,0.2-0.5,0.7-0.6c0.5-0.1,0.9-0.2,1.3-0.2l0,0v-1.3h-8
					V63c0.5,0.1,1,0.3,1.6,0.6c0.5,0.3,0.9,0.8,1.1,1.3c0.7,2,1.4,4.3,2.3,6.9s1.7,5.3,2.7,8l0,0H101z M125.4,80.2
					c1.3,0,2.4-0.2,3.3-0.7c0.9-0.5,1.7-1.1,2.5-2l0,0h0.1c0.2,0.8,0.5,1.5,1.1,1.9c0.6,0.4,1.3,0.7,2.3,0.7c0.5,0,1-0.1,1.5-0.2
					s0.9-0.3,1.5-0.5l0,0v-1.2c-0.4,0-0.8,0-1.2,0c-0.4,0-0.7-0.1-0.9-0.2c-0.3-0.2-0.6-0.4-0.8-0.7c-0.2-0.3-0.2-0.7-0.2-1.1
					c0-1.6,0-3.1,0.1-4.4c0-1.3,0.1-2.9,0.1-4.6c0-1.2-0.2-2.2-0.5-3c-0.3-0.8-0.8-1.4-1.4-1.8c-0.6-0.5-1.3-0.8-2.1-0.9
					s-1.6-0.2-2.7-0.2c-0.7,0-1.5,0.1-2.3,0.4s-1.4,0.5-2,0.9c-0.6,0.4-1.1,0.9-1.5,1.4c-0.4,0.5-0.6,1-0.6,1.6c0,0.5,0.1,1,0.4,1.4
					c0.3,0.4,0.7,0.6,1.3,0.6c0.7,0,1.2-0.2,1.6-0.5c0.4-0.4,0.6-0.7,0.6-1.2c0-0.4-0.1-0.8-0.2-1.3c-0.1-0.5-0.2-0.8-0.2-1.1
					c0.2-0.2,0.5-0.4,1-0.6c0.5-0.2,1-0.3,1.6-0.3c0.8,0,1.4,0.2,1.9,0.5c0.4,0.3,0.8,0.7,1,1.2c0.2,0.4,0.4,0.8,0.4,1.3
					s0.1,0.8,0.1,0.9l0,0v1.8c-0.6,0.3-1.7,0.8-3.4,1.3c-1.7,0.6-2.8,0.9-3.3,1.1c-0.4,0.2-0.9,0.4-1.4,0.7c-0.5,0.3-0.9,0.6-1.2,1
					c-0.4,0.4-0.7,0.9-0.9,1.5s-0.3,1.2-0.3,1.9c0,1.3,0.4,2.4,1.3,3.2S124.1,80.2,125.4,80.2z M127.2,78.2c-0.8,0-1.5-0.2-2-0.7
					s-0.8-1.2-0.8-2.2c0-0.8,0.2-1.4,0.5-2c0.4-0.6,0.8-1.1,1.4-1.5c0.7-0.4,1.4-0.8,2.2-1.1c0.8-0.3,1.7-0.6,2.7-0.9l0,0l-0.1,6.3
					c-0.4,0.6-1,1.1-1.6,1.5C128.8,78,128.1,78.2,127.2,78.2z M141,87.8c0.5,0,1-0.1,1.4-0.3s1-0.5,1.5-1c0.6-0.5,1.2-1.3,1.7-2.2
					s1.3-2.3,2-4c0.6-1.3,1.4-3.3,2.5-6.1c1.1-2.8,2.4-5.8,3.8-9.2c0.3-0.7,0.7-1.2,1.3-1.5c0.6-0.4,1.1-0.6,1.4-0.6l0,0v-1.1h-6.6
					V63c0.5,0.1,1,0.2,1.6,0.5c0.5,0.3,0.8,0.6,0.8,0.9c0,0.3-0.1,0.6-0.2,1c-0.2,0.4-0.3,0.7-0.4,1c-0.7,1.9-1.4,3.5-2,4.9
					c-0.6,1.4-1.2,2.7-1.7,4c-0.5-1.4-1.3-3.2-2.2-5.4c-0.9-2.3-1.6-4-2.1-5.2c-0.1-0.2-0.1-0.4-0.2-0.5c-0.1-0.2-0.1-0.3-0.1-0.4
					c0-0.2,0.3-0.3,0.8-0.5s0.9-0.2,1.3-0.2l0,0v-1.3h-8.2V63c0.5,0.1,1.1,0.3,1.6,0.6c0.5,0.3,0.9,0.7,1.2,1.3c1,2.4,2,4.8,2.9,7
					c0.9,2.3,2,4.8,3.1,7.7c-0.4,1-1,2.3-1.8,3.6c-0.8,1.4-1.6,2.2-2.2,2.6c-0.1-0.2-0.3-0.5-0.5-0.8c-0.2-0.3-0.4-0.6-0.6-0.7
					c-0.2-0.2-0.5-0.4-0.7-0.6c-0.3-0.1-0.6-0.2-1-0.2c-0.5,0-0.9,0.2-1.2,0.6c-0.3,0.4-0.5,0.9-0.5,1.5c0,0.6,0.3,1.1,0.8,1.5
					C139.3,87.6,140.1,87.8,141,87.8z M168.8,79.7v-1.3c-0.3,0-0.7-0.1-1.2-0.2c-0.5-0.1-0.9-0.2-1.1-0.3c-0.4-0.2-0.7-0.5-0.8-0.8
					c-0.1-0.3-0.2-0.6-0.2-1.1l0,0v-9h12.1v9.2c0,0.5-0.1,0.9-0.3,1.2c-0.2,0.3-0.4,0.5-0.8,0.7c-0.2,0.1-0.6,0.2-1.1,0.2
					s-1,0.1-1.3,0.1l0,0v1.3h10.7v-1.3c-0.3,0-0.7-0.1-1.2-0.2c-0.5-0.1-0.9-0.2-1.1-0.3c-0.4-0.2-0.7-0.5-0.8-0.8
					c-0.1-0.3-0.2-0.6-0.2-1.1l0,0V57.5c0-0.4,0.1-0.8,0.2-1.1c0.1-0.3,0.4-0.6,0.8-0.7c0.2-0.1,0.6-0.2,1.1-0.3
					c0.5-0.1,0.9-0.2,1.2-0.2l0,0v-1.3h-10.7v1.3c0.3,0,0.7,0.1,1.2,0.2c0.5,0.1,0.9,0.3,1.2,0.4c0.4,0.2,0.7,0.4,0.8,0.8
					c0.2,0.3,0.2,0.7,0.2,1.1l0,0v7.8h-12.1v-8c0-0.4,0.1-0.8,0.2-1.1c0.1-0.3,0.4-0.6,0.8-0.7c0.2-0.1,0.6-0.2,1.1-0.3
					c0.5-0.1,0.9-0.2,1.2-0.2l0,0v-1.3h-10.7v1.3c0.3,0,0.7,0.1,1.2,0.2c0.5,0.1,0.9,0.3,1.2,0.4c0.4,0.2,0.7,0.4,0.8,0.8
					c0.2,0.3,0.2,0.7,0.2,1.1l0,0v18.7c0,0.5-0.1,0.9-0.3,1.2c-0.2,0.3-0.4,0.5-0.8,0.7c-0.2,0.1-0.6,0.2-1.1,0.2s-1,0.1-1.3,0.1
					l0,0v1.3H168.8z M196.4,80.2c1.6,0,3.1-0.4,4.3-1.3c1.3-0.8,2.3-2,3-3.4l0,0l-1.3-0.8c-0.7,1.3-1.5,2.2-2.3,2.7
					c-0.8,0.5-1.7,0.8-2.8,0.8c-1.1,0-2-0.2-2.7-0.6c-0.8-0.4-1.4-1-1.8-1.7c-0.5-0.7-0.8-1.6-1.1-2.5c-0.2-1-0.3-2-0.3-3.2l0,0
					h11.8V69c0-1.1-0.1-2.1-0.4-3c-0.3-0.9-0.7-1.7-1.2-2.4c-0.6-0.7-1.3-1.3-2.3-1.7c-0.9-0.4-2-0.6-3.4-0.6
					c-1.3,0-2.4,0.3-3.4,0.8c-1,0.5-1.9,1.2-2.6,2.1c-0.7,0.9-1.3,1.9-1.6,3c-0.4,1.1-0.6,2.3-0.6,3.4c0,1.3,0.2,2.5,0.5,3.7
					c0.3,1.2,0.9,2.2,1.6,3.1c0.7,0.9,1.6,1.6,2.7,2.1S195,80.2,196.4,80.2z M199.8,68.7h-8.3c0.1-1.9,0.5-3.4,1.4-4.4
					c0.8-1.1,1.9-1.6,3.2-1.6c0.8,0,1.4,0.2,1.9,0.5c0.5,0.4,0.9,0.8,1.1,1.4c0.3,0.5,0.4,1.2,0.6,1.9S199.8,68,199.8,68.7
					L199.8,68.7z M215.3,79.7v-1.2c-0.4,0-0.8-0.1-1.2-0.1c-0.5-0.1-0.9-0.2-1.2-0.3c-0.4-0.1-0.6-0.3-0.8-0.6
					c-0.2-0.3-0.2-0.6-0.2-1l0,0V66c0.5-0.8,1.2-1.5,1.9-2c0.8-0.5,1.4-0.7,2-0.7c0,0.2-0.1,0.4-0.1,0.7c0,0.2-0.1,0.5-0.1,0.7
					c0,0.4,0.2,0.8,0.5,1.2c0.4,0.4,0.9,0.5,1.6,0.5c0.6,0,1.1-0.2,1.4-0.7c0.3-0.5,0.5-1,0.5-1.6c0-0.8-0.2-1.5-0.7-2
					c-0.5-0.5-1.1-0.7-1.9-0.7c-0.8,0-1.6,0.3-2.5,0.8s-1.8,1.3-2.5,2.2l0,0h-0.1v-2.5l-0.3-0.3l-5.9,0.4v1.2c0.4,0,0.7,0.1,1,0.1
					c0.3,0.1,0.6,0.2,0.8,0.3c0.3,0.2,0.6,0.5,0.7,0.9c0.2,0.4,0.3,0.7,0.3,1.1l0,0v11.1c0,0.4-0.1,0.8-0.2,1.1
					c-0.2,0.3-0.4,0.5-0.8,0.6c-0.2,0.1-0.5,0.1-0.8,0.1c-0.3,0-0.6,0-0.9,0.1l0,0v1.2H215.3z M227.3,80.1c1,0,1.9-0.1,2.6-0.3
					c0.7-0.2,1.4-0.5,2.2-0.8l0,0v-1.3c-0.2,0.1-0.7,0.2-1.2,0.2c-0.6,0.1-1,0.1-1.3,0.1c-0.7,0-1.2-0.1-1.6-0.3
					c-0.4-0.2-0.7-0.4-0.9-0.8c-0.2-0.4-0.3-0.8-0.4-1.3c-0.1-0.5-0.1-1.1-0.1-1.9l0,0v-10h5.1v-1.7h-5.1v-5.6h-3.3v5.6H220v1.7h3.2
					v12.2c0,1.4,0.3,2.5,0.9,3.2C224.7,79.7,225.8,80.1,227.3,80.1z M248,79.7v-6.3h-1.1c-0.1,0.6-0.3,1.2-0.5,1.8
					c-0.2,0.6-0.3,1.1-0.5,1.5c-0.1,0.4-0.3,0.7-0.6,1c-0.2,0.3-0.6,0.5-1.1,0.5c-0.8,0-1.5,0.1-2,0.1c-0.5,0-1,0-1.5,0
					c-0.6,0-1.2,0-1.7,0c-0.5,0-1,0-1.4,0l0,0l10.3-15.7v-0.7h-13.7v5.5h1.1c0.2-1,0.5-1.8,0.8-2.5s0.6-1,1-1.1
					c0.5-0.2,1-0.3,1.6-0.4s1.4-0.1,2.5-0.1h2.5l-10.1,15.5v1H248z"/>
			</g>
		</g>
	</g>
</g>
<g id="DASL" class="st0">
	<g id="surface1" class="st3">
		<path class="st42" d="M35.7,40h211.4v61.6H35.7V40z"/>
		<path class="st48" d="M245.7,41.2v59.3H98V41.2H245.7 M248,38.9H35.4v63.9H248V38.9z"/>
		<path class="st48" d="M112.2,54.4h13.7c9.7,0,15.7,6.4,15.7,16.9c0,11.1-5.9,17.2-15.7,17.2h-13.7V54.4z M120.6,80.7h4
			c6.4-0.2,8.8-2.7,8.8-9.6c0-6.2-3.2-9.1-8.8-9.1h-4V80.7z"/>
		<path class="st48" d="M153.6,54.4h8.5l12,34.1h-8.7l-2-6.1h-11.1l-2,6.1h-8.5L153.6,54.4z M154.2,75.7h7.3l-3.6-11.9L154.2,75.7z"
			/>
		<path class="st48" d="M183.5,76.9c0.2,4,2.4,5.3,6.1,5.3c2.4,0,5.2-0.9,5.2-3.5c0-3-4.6-3.5-9.1-5c-4.6-1.4-9.4-3.5-9.4-9.9
			c0-7.5,7-10.3,13.1-10.3c6.4,0,12.8,3.4,12.8,11h-8.4c0.1-3-2.6-4.1-5.2-4.1c-1.8,0-4.1,0.6-4.1,2.9c0,2.6,4.6,3,9.3,4.4
			c4.6,1.4,9.3,3.7,9.3,9.9c0,8.7-6.8,11.4-14,11.4c-7.3,0-13.9-3.5-13.9-12.2L183.5,76.9z"/>
		<path class="st48" d="M208.1,54.4h8.7v26.5h15.7v7.6h-24.3V54.4z"/>
		<path class="st42" d="M54.2,52.5c-1.2,0.2-2.3,0.9-2.9,2L50,57.2l8.4,10.3l17.8-18.1H52.9L54.2,52.5z"/>
		<path class="st49" d="M51.5,54.4l-1.4,2.7l8.4,10.5l1.7-1.8C60,65.8,50.1,57.2,51.5,54.4z"/>
		<path class="st50" d="M43.3,75l10.3,15.5c0.3,0.5,0.6,0.8,1.1,1.1l8.5-17.4c0,0-11.1-15.4-11.6-16.4c-0.6-0.9-0.8-2.3-0.3-3.3
			l-8.4,17C42.5,72.7,42.5,73.9,43.3,75z"/>
		<path class="st42" d="M78.7,89c1.2-0.1,2.3-0.9,2.9-2l1.4-2.9l-8.4-10.3L56.8,92h23.3L78.7,89z"/>
		<path class="st49" d="M81.6,87l1.4-2.9l-8.4-10.3l-1.7,1.8C72.9,75.6,83,84.1,81.6,87z"/>
		<path class="st50" d="M89.8,66.3L79.3,50.8c-0.3-0.5-0.6-0.8-1.1-1.1l-8.5,17.3c0,0,11.1,15.4,11.6,16.4c0.6,1.1,0.8,2.4,0.3,3.5
			L90,69.8C90.4,68.7,90.4,67.4,89.8,66.3z"/>
	</g>
</g>
<g id="Chainlink" class="st0">
	<g class="st3">
		<g>
			<defs>
				<rect id="SVGID_3_" x="35.4" y="36" width="212.6" height="69.7"/>
			</defs>
			<clipPath id="SVGID_4_">
				<use xlink:href="#SVGID_3_"  style="overflow:visible;"/>
			</clipPath>
			<g class="st51">
				<path class="st52" d="M108.4,69.8c-0.1-1.5,0.2-3.1,0.8-4.5c0.6-1.4,1.4-2.8,2.5-3.9c1.1-1.1,2.4-2,3.8-2.6
					c1.4-0.6,3-0.9,4.5-0.9c5.9,0,9.3,3.4,10.4,7.4l-3.7,1.2c-0.3-1.5-1.2-2.8-2.4-3.8c-1.2-0.9-2.8-1.4-4.3-1.3
					c-3.8,0-7.6,2.8-7.6,8.3c0,5.6,3.7,8.2,7.7,8.2c1.5,0,3.1-0.4,4.3-1.3c1.2-0.9,2.1-2.2,2.6-3.7l3.6,1.2c-0.6,2.3-2,4.3-3.9,5.6
					c-1.9,1.4-4.2,2.1-6.6,2c-1.6,0-3.1-0.3-4.6-0.9c-1.5-0.6-2.8-1.5-3.9-2.6c-1.1-1.1-1.9-2.5-2.5-3.9S108.3,71.4,108.4,69.8z"/>
				<path class="st52" d="M137.6,81.3h-3.8V57.8h3.8V67c0.5-0.6,1.2-1.2,2-1.5c0.8-0.3,1.6-0.5,2.5-0.5c3.9,0,5.8,2.8,5.8,6.3v10
					h-3.7v-9.3c0.1-0.5,0-0.9-0.1-1.4c-0.1-0.4-0.4-0.8-0.7-1.2c-0.3-0.3-0.7-0.6-1.1-0.8c-0.4-0.2-0.9-0.2-1.4-0.2
					c-0.5,0-0.9,0.1-1.3,0.3c-0.4,0.2-0.8,0.5-1.1,0.8c-0.3,0.3-0.5,0.7-0.7,1.2c-0.1,0.4-0.2,0.9-0.2,1.3L137.6,81.3z"/>
				<path class="st52" d="M156.3,72.2l4.1-0.6c0.9-0.1,1.2-0.6,1.2-1.1c0-1.3-0.9-2.4-3-2.4c-0.4,0-0.8,0-1.2,0.1
					c-0.4,0.1-0.7,0.3-1,0.6c-0.3,0.3-0.5,0.6-0.7,1c-0.2,0.4-0.3,0.8-0.3,1.2l-3.4-0.8c0.3-2.7,2.8-5.2,6.7-5.2
					c4.9,0,6.7,2.8,6.7,6v7.8c0,0.8,0.1,1.7,0.2,2.5h-3.5c-0.1-0.7-0.2-1.3-0.1-2c-0.5,0.8-1.3,1.5-2.1,1.9
					c-0.9,0.4-1.8,0.6-2.8,0.6c-0.7,0.1-1.3,0-2-0.2c-0.6-0.2-1.2-0.5-1.7-1c-0.5-0.4-0.9-1-1.2-1.6c-0.3-0.6-0.4-1.3-0.5-1.9
					C151.5,74.2,153.6,72.6,156.3,72.2z M161.5,74.8v-0.7l-4.1,0.6c-0.6,0-1.1,0.3-1.5,0.7c-0.4,0.4-0.6,0.9-0.6,1.5
					c0,0.3,0.1,0.6,0.2,0.8c0.1,0.3,0.3,0.5,0.5,0.7c0.2,0.2,0.5,0.3,0.7,0.4c0.3,0.1,0.6,0.1,0.9,0.1c0.5,0.1,1.1,0,1.6-0.2
					c0.5-0.2,1-0.5,1.4-0.9c0.4-0.4,0.7-0.9,0.8-1.4S161.6,75.3,161.5,74.8z"/>
				<path class="st52" d="M171.7,57.5c0.3,0,0.7,0.1,1,0.2c0.3,0.1,0.6,0.3,0.8,0.5c0.2,0.2,0.4,0.5,0.5,0.8
					c0.1,0.3,0.2,0.6,0.2,0.9c0,0.6-0.3,1.3-0.7,1.7c-0.5,0.5-1.1,0.7-1.7,0.7c-0.7,0-1.3-0.3-1.7-0.7c-0.5-0.5-0.7-1.1-0.7-1.7
					c0-0.6,0.3-1.3,0.7-1.7C170.4,57.8,171,57.5,171.7,57.5z M169.8,81.3V65.5h3.7v15.8L169.8,81.3z"/>
				<path class="st52" d="M182.2,81.3h-3.8V65.5h3.7v2.1c0.5-0.8,1.2-1.5,2-1.9c0.8-0.5,1.8-0.7,2.7-0.6c3.9,0,5.7,2.8,5.7,6.3v10
					h-3.8v-9.3c0-1.9-0.9-3.5-3.2-3.5c-0.5,0-0.9,0.1-1.4,0.3c-0.4,0.2-0.8,0.5-1.1,0.8c-0.3,0.4-0.5,0.8-0.7,1.2
					c-0.1,0.4-0.2,0.9-0.1,1.4V81.3z"/>
				<path class="st52" d="M197.1,81.3V57.8h3.8v23.4H197.1z"/>
				<path class="st52" d="M207.6,57.5c0.7,0,1.3,0.3,1.7,0.7c0.5,0.5,0.7,1.1,0.7,1.7c0,0.5-0.1,1-0.4,1.4c-0.3,0.4-0.7,0.7-1.1,0.9
					c-0.4,0.2-0.9,0.2-1.4,0.1c-0.5-0.1-0.9-0.3-1.3-0.7c-0.3-0.3-0.6-0.8-0.7-1.2c-0.1-0.5,0-1,0.1-1.4c0.2-0.4,0.5-0.8,0.9-1.1
					C206.7,57.7,207.1,57.5,207.6,57.5z M205.8,81.3V65.5h3.7v15.8L205.8,81.3z"/>
				<path class="st52" d="M218.2,81.3h-3.8V65.5h3.7v2.1c0.5-0.8,1.2-1.5,2-1.9c0.8-0.5,1.8-0.7,2.7-0.6c3.9,0,5.7,2.8,5.7,6.3v10
					h-3.8v-9.3c0.1-0.5,0-0.9-0.1-1.4c-0.1-0.4-0.4-0.8-0.7-1.2c-0.3-0.3-0.7-0.6-1.1-0.8c-0.4-0.2-0.9-0.2-1.4-0.2
					c-0.5,0-0.9,0.1-1.4,0.3c-0.4,0.2-0.8,0.5-1.1,0.8c-0.3,0.4-0.5,0.8-0.7,1.2c-0.1,0.4-0.2,0.9-0.1,1.4V81.3z"/>
				<path class="st52" d="M241.4,72.2l6.6,9.1h-4.6l-4.7-6.5l-1.9,2v4.5h-3.7V57.8h3.7v14l6.1-6.4h5L241.4,72.2z"/>
				<path class="st52" d="M63.7,51.5L80,60.8v18.7l-16.3,9.4l-16.3-9.3V60.9L63.7,51.5z M63.7,37.8l-6,3.5l-16.3,9.4l-6,3.5v6.9
					v18.7v6.9l6,3.4l16.3,9.3l6,3.4l6-3.5L86,89.8l6-3.4v-6.9V60.8v-6.9l-6-3.4l-16.3-9.3L63.7,37.8L63.7,37.8z"/>
			</g>
		</g>
	</g>
</g>
<g id="Layer_21">
	<g>
		<g transform="matrix(3.6999999999999993,0,0,3.6999999999999993,111.64914129972459,124.48849481344223)">
			<path class="st53" d="M5.7-10.5L5.7-10.5c0.1,0.1,0.1,0.3,0.1,0.4l0,0l0,0c0,0.2-0.1,0.3-0.2,0.4l0,0l0,0
				C5.5-9.5,5.3-9.4,5.1-9.4l0,0l0,0c-0.3,0-0.4-0.1-0.6-0.3l0,0l-2.3-3.6H2H0.4v3.3l0,0c0,0.2-0.1,0.4-0.2,0.5l0,0l0,0
				C0.1-9.5-0.1-9.4-0.3-9.4l0,0l0,0c-0.2,0-0.4-0.1-0.5-0.2l0,0l0,0C-0.9-9.7-1-9.9-1-10.1l0,0v-8.9l0,0c0-0.2,0.1-0.4,0.2-0.5l0,0
				l0,0c0.1-0.1,0.3-0.2,0.5-0.2l0,0H2l0,0c0.6,0,1.2,0.1,1.7,0.4l0,0l0,0c0.5,0.3,0.9,0.7,1.2,1.1l0,0l0,0c0.3,0.5,0.4,1.1,0.4,1.7
				l0,0l0,0c0,0.6-0.2,1.2-0.5,1.7l0,0l0,0c-0.3,0.5-0.7,0.8-1.3,1.1l0,0L5.7-10.5z M0.4-14.6H2l0,0c0.6,0,1.1-0.2,1.5-0.5l0,0l0,0
				c0.4-0.3,0.6-0.8,0.6-1.3l0,0l0,0c0-0.6-0.2-1-0.6-1.4l0,0l0,0c-0.4-0.4-0.9-0.5-1.5-0.5l0,0H0.4V-14.6z M10.4-16.6L10.4-16.6
				c0.7,0,1.3,0.2,1.8,0.5l0,0l0,0c0.5,0.3,1,0.8,1.3,1.3l0,0l0,0c0.3,0.6,0.5,1.2,0.5,1.9l0,0v2.9l0,0c0,0.2-0.1,0.4-0.2,0.5l0,0
				l0,0c-0.1,0.1-0.3,0.2-0.5,0.2l0,0l0,0c-0.2,0-0.4-0.1-0.5-0.2l0,0l0,0c-0.1-0.1-0.2-0.3-0.2-0.5l0,0v-0.5l0,0
				c-0.3,0.4-0.7,0.7-1.1,0.9l0,0l0,0c-0.4,0.2-0.9,0.3-1.4,0.3l0,0l0,0c-0.6,0-1.2-0.2-1.7-0.5l0,0l0,0c-0.5-0.3-0.9-0.8-1.2-1.3
				l0,0l0,0c-0.3-0.6-0.4-1.2-0.4-1.9l0,0l0,0c0-0.7,0.2-1.3,0.5-1.9l0,0l0,0c0.3-0.6,0.7-1,1.3-1.3l0,0l0,0
				C9.1-16.5,9.7-16.6,10.4-16.6L10.4-16.6z M10.4-10.5L10.4-10.5c0.4,0,0.8-0.1,1.2-0.3l0,0l0,0c0.4-0.2,0.6-0.5,0.8-0.9l0,0l0,0
				c0.2-0.4,0.3-0.8,0.3-1.2l0,0l0,0c0-0.5-0.1-0.9-0.3-1.2l0,0l0,0c-0.2-0.4-0.5-0.7-0.8-0.9l0,0l0,0c-0.4-0.2-0.8-0.3-1.2-0.3l0,0
				l0,0c-0.4,0-0.8,0.1-1.2,0.3l0,0l0,0c-0.4,0.2-0.6,0.5-0.8,0.9l0,0l0,0c-0.2,0.4-0.3,0.8-0.3,1.2l0,0l0,0c0,0.5,0.1,0.9,0.3,1.2
				l0,0l0,0c0.2,0.4,0.5,0.7,0.8,0.9l0,0l0,0C9.6-10.6,10-10.5,10.4-10.5L10.4-10.5z M20.7-10.6L20.7-10.6c0.4,0,0.6,0.2,0.6,0.6
				l0,0l0,0c0,0.4-0.2,0.6-0.6,0.6l0,0h-4.5l0,0c-0.4,0-0.6-0.2-0.6-0.6l0,0l0,0c0-0.2,0-0.3,0.1-0.4l0,0l3.7-4.9h-3.3l0,0
				c-0.4,0-0.6-0.2-0.6-0.6l0,0l0,0c0-0.4,0.2-0.6,0.6-0.6l0,0h4.5l0,0c0.4,0,0.6,0.2,0.6,0.6l0,0l0,0c0,0.2,0,0.3-0.1,0.4l0,0
				l-3.7,4.9H20.7z M26.3-16.6L26.3-16.6c0.7,0,1.3,0.2,1.9,0.5l0,0l0,0c0.5,0.3,1,0.7,1.3,1.3l0,0l0,0c0.3,0.5,0.5,1.2,0.5,1.9l0,0
				l0,0c0,0.7-0.2,1.3-0.5,1.9l0,0l0,0c-0.3,0.6-0.7,1-1.3,1.3l0,0l0,0c-0.5,0.3-1.2,0.5-1.9,0.5l0,0l0,0c-0.7,0-1.3-0.2-1.9-0.5
				l0,0l0,0c-0.5-0.3-1-0.7-1.3-1.3l0,0l0,0c-0.3-0.5-0.5-1.2-0.5-1.9l0,0l0,0c0-0.7,0.2-1.3,0.5-1.9l0,0l0,0c0.3-0.6,0.7-1,1.3-1.3
				l0,0l0,0C25-16.5,25.6-16.6,26.3-16.6L26.3-16.6z M26.3-15.4L26.3-15.4c-0.4,0-0.8,0.1-1.2,0.3l0,0l0,0c-0.4,0.2-0.6,0.5-0.8,0.9
				l0,0l0,0C24.1-13.9,24-13.5,24-13l0,0l0,0c0,0.5,0.1,0.9,0.3,1.3l0,0l0,0c0.2,0.4,0.5,0.7,0.8,0.9l0,0l0,0
				c0.4,0.2,0.8,0.3,1.2,0.3l0,0l0,0c0.4,0,0.8-0.1,1.2-0.3l0,0l0,0c0.4-0.2,0.6-0.5,0.8-0.9l0,0l0,0c0.2-0.4,0.3-0.8,0.3-1.3l0,0
				l0,0c0-0.5-0.1-0.9-0.3-1.3l0,0l0,0c-0.2-0.4-0.5-0.7-0.8-0.9l0,0l0,0C27.1-15.3,26.7-15.4,26.3-15.4L26.3-15.4z M35.4-16.6
				L35.4-16.6c0.5,0,0.8,0.1,1.1,0.2l0,0l0,0c0.3,0.1,0.4,0.3,0.4,0.5l0,0l0,0c0,0.1,0,0.1,0,0.1l0,0l0,0c-0.1,0.3-0.3,0.4-0.5,0.4
				l0,0l0,0c0,0-0.1,0-0.2,0l0,0l0,0c-0.4-0.1-0.6-0.1-0.8-0.1l0,0l0,0c-0.6,0-1.1,0.1-1.5,0.4l0,0l0,0c-0.4,0.3-0.6,0.7-0.6,1.2
				l0,0v3.8l0,0c0,0.2-0.1,0.4-0.2,0.5l0,0l0,0c-0.1,0.1-0.3,0.2-0.5,0.2l0,0l0,0c-0.2,0-0.4,0-0.5-0.2l0,0l0,0
				c-0.1-0.1-0.2-0.3-0.2-0.5l0,0v-5.8l0,0c0-0.2,0.1-0.4,0.2-0.5l0,0l0,0c0.1-0.1,0.3-0.2,0.5-0.2l0,0l0,0c0.4,0,0.7,0.2,0.7,0.7
				l0,0v0.2l0,0c0.3-0.3,0.6-0.5,1-0.7l0,0l0,0C34.5-16.6,35-16.6,35.4-16.6L35.4-16.6z"/>
		</g>
		<g transform="matrix(0.24099451749619716,0,0,0.24099451749619716,31.98678390219738,113.25906226107831)">
			
				<linearGradient id="SVGID_5_" gradientUnits="userSpaceOnUse" x1="-4686.9331" y1="-3617.1873" x2="-4685.9985" y2="-3617.1873" gradientTransform="matrix(12.5607 6.2122 -5.8572 13.3221 37676.2031 77062.5547)">
				<stop  offset="0" style="stop-color:#056779"/>
				<stop  offset="1" style="stop-color:#67A2D7"/>
			</linearGradient>
			<path class="st54" d="M24.4-216.5c-5.6,0-10.1,4.5-10.1,10.1v60.8c0,5.6,4.5,10.1,10.1,10.1l0,0c5.6,0,10.1-4.5,10.1-10.1l0,0
				v-60.8C34.6-211.9,30-216.5,24.4-216.5z M58.2-260.4c-5.6,0-10.1,4.5-10.1,10.1l0,0v148.7c0,5.6,4.5,10.1,10.1,10.1l0,0
				c5.6,0,10.1-4.5,10.1-10.1l0,0v-148.7C68.4-255.8,63.8-260.4,58.2-260.4z M92-294.2c-5.6,0-10.1,4.5-10.1,10.1l0,0v216.3
				c0,5.6,4.5,10.1,10.1,10.1c5.6,0,10.1-4.5,10.1-10.1V-284C102.2-289.6,97.6-294.2,92-294.2z M125.8-235
				c-5.6,0-10.1,4.5-10.1,10.1v98c0,5.6,4.5,10.1,10.1,10.1c5.6,0,10.1-4.5,10.1-10.1v-98C135.9-230.5,131.4-235,125.8-235z
				 M159.6-294.2c-5.6,0-10.1,4.5-10.1,10.1v216.3c0,5.6,4.5,10.1,10.1,10.1c5.6,0,10.1-4.5,10.1-10.1V-284
				C169.7-289.6,165.2-294.2,159.6-294.2L159.6-294.2z M193.4-243.5c-5.6,0-10.1,4.5-10.1,10.1v114.9c-0.1,5.6,4.3,10.2,9.9,10.4
				c5.6,0.1,10.2-4.3,10.4-9.9c0-0.2,0-0.3,0-0.5v-114.9C203.5-239,199-243.5,193.4-243.5z M227.2-214.8c-5.6,0-10.1,4.5-10.1,10.1
				v57.5c0.1,5.6,4.7,10.1,10.3,10c5.5-0.1,9.9-4.5,10-10v-57.5C237.3-210.2,232.8-214.8,227.2-214.8z"/>
		</g>
	</g>
</g>
<g id="meherett" class="st0">
	<g class="st3">
		<path d="M43.9,55.2l8,22.7l8-22.7h8.5v31.3h-6.5V78l0.6-14.8l-8.5,23.3h-4.4l-8.4-23.3L41.9,78v8.6h-6.5V55.2H43.9z"/>
		<path d="M90.7,73H78.3v8.4h14.5v5.2h-21V55.2h20.9v5.2H78.3v7.5h12.4V73z"/>
		<path d="M119.9,86.5h-6.5V73.1h-12.6v13.4h-6.5V55.2h6.5v12.7h12.6V55.2h6.5V86.5z"/>
		<path d="M142.2,73h-12.4v8.4h14.5v5.2h-21V55.2h20.9v5.2h-14.5v7.5h12.4V73z"/>
		<path d="M157.5,75.1h-5.1v11.5h-6.5V55.2h11.6c1.8,0,3.4,0.2,4.9,0.6c1.4,0.4,2.6,1,3.6,1.8c1,0.8,1.7,1.8,2.3,3
			c0.5,1.2,0.8,2.5,0.8,4.1c0,1.1-0.1,2.2-0.4,3.1c-0.3,0.9-0.6,1.7-1.1,2.4c-0.5,0.7-1.1,1.3-1.8,1.9c-0.7,0.5-1.5,1-2.3,1.4
			l6.8,12.8v0.3h-6.9L157.5,75.1z M152.3,69.8h5.2c0.8,0,1.6-0.1,2.2-0.3c0.6-0.2,1.2-0.5,1.6-0.9c0.4-0.4,0.7-0.9,1-1.5
			c0.2-0.6,0.3-1.2,0.3-1.9c0-1.5-0.4-2.6-1.3-3.5c-0.8-0.8-2.1-1.3-3.9-1.3h-5.2V69.8z"/>
		<path d="M190.6,73h-12.4v8.4h14.5v5.2h-21V55.2h20.9v5.2h-14.5v7.5h12.4V73z"/>
		<path d="M220.3,60.4h-9.6v26.1h-6.5V60.4h-9.5v-5.2h25.5V60.4z"/>
		<path d="M248,60.4h-9.6v26.1H232V60.4h-9.5v-5.2H248V60.4z"/>
	</g>
</g>
</svg>
