<?xml version="1.0" encoding="utf-8"?>
<!-- Generator: Adobe Illustrator 25.0.1, SVG Export Plug-In . SVG Version: 6.00 Build 0)  -->
<svg version="1.1" xmlns="http://www.w3.org/2000/svg" xmlns:xlink="http://www.w3.org/1999/xlink" x="0px" y="0px"
	 viewBox="0 0 283.5 141.7" style="enable-background:new 0 0 283.5 141.7;" xml:space="preserve">
<style type="text/css">
	.st0{display:none;}
	.st1{display:inline;fill-rule:evenodd;clip-rule:evenodd;fill:#383838;}
	.st2{display:inline;fill-rule:evenodd;clip-rule:evenodd;fill:#FFFFFF;}
	.st3{display:inline;}
	.st4{fill-rule:evenodd;clip-rule:evenodd;fill:#F15B2D;}
	.st5{fill:#F15B2E;}
	.st6{fill:#498DCB;}
	.st7{fill:#222C60;}
	.st8{fill:#CE5827;}
	.st9{fill:#F29D1F;}
	.st10{fill-rule:evenodd;clip-rule:evenodd;fill:#FFFFFF;}
	.st11{fill:#103356;}
	.st12{fill-rule:evenodd;clip-rule:evenodd;fill:#239DCA;}
	.st13{fill:#213646;}
	.st14{fill-rule:evenodd;clip-rule:evenodd;fill:#213646;}
	.st15{fill-rule:evenodd;clip-rule:evenodd;fill:#EB5D5C;}
	.st16{fill-rule:evenodd;clip-rule:evenodd;fill:#E53232;}
	.st17{fill-rule:evenodd;clip-rule:evenodd;fill:#EC5E5A;}
	.st18{fill-rule:evenodd;clip-rule:evenodd;fill:#BD2626;}
	.st19{fill-rule:evenodd;clip-rule:evenodd;fill:#9E2621;}
	.st20{fill-rule:evenodd;clip-rule:evenodd;fill:#E84644;}
	.st21{fill-rule:evenodd;clip-rule:evenodd;fill:#E53333;}
	.st22{fill-rule:evenodd;clip-rule:evenodd;fill:#32AF83;}
	.st23{fill:#221F20;}
</style>
<g id="Light_copy" class="st0">
	<rect x="4.2" y="4.9" class="st1" width="275" height="132"/>
</g>
<g id="Light" class="st0">
	<rect x="4.2" y="4.9" class="st2" width="275" height="132"/>
</g>
<g id="hashlabs" class="st0">
	<g class="st3">
		<path class="st4" d="M75.4,81.5V69.2H63.2V44.8H35.4v27.7h24.4V97h27.7V81.4L75.4,81.5L75.4,81.5L75.4,81.5z M51,69.2v-6.5h-3.3
			v6.5h-8.9V48.1h8.9v6.5H51v-6.5h8.9v21.1H51z M84.3,93.6H63.2V72.5h8.9v12.3h12.2V93.6z"/>
		<g>
			<path d="M114.7,61h4.1v18.5h-4.1v-7.3h-7.3v7.3h-4.1V61h4.1v7.7h7.3V61z"/>
			<path d="M135.1,79.5h-3.7v-1.7c-1,1.3-2.3,1.9-3.8,1.9c-1.5,0-2.8-0.4-3.8-1.3c-1-0.9-1.5-2-1.5-3.5c0-1.5,0.5-2.5,1.6-3.3
				c1.1-0.7,2.5-1.1,4.3-1.1h3v-0.1c0-1.5-0.8-2.3-2.4-2.3c-0.7,0-1.4,0.1-2.2,0.4c-0.8,0.3-1.4,0.6-1.9,1l-1.8-2.6
				c1.9-1.4,4-2,6.4-2c1.7,0,3.1,0.4,4.2,1.3c1.1,0.9,1.6,2.2,1.6,4.1V79.5z M131.1,74.1v-0.7h-2.5c-1.6,0-2.4,0.5-2.4,1.5
				c0,0.5,0.2,0.9,0.6,1.2c0.4,0.3,0.9,0.4,1.6,0.4c0.7,0,1.3-0.2,1.9-0.6C130.8,75.4,131.1,74.8,131.1,74.1z"/>
			<path d="M149.4,75c0,1.4-0.5,2.5-1.5,3.4c-1,0.8-2.3,1.3-3.9,1.3c-1.1,0-2.2-0.2-3.3-0.6c-1.1-0.4-2.2-0.9-3.1-1.7l1.7-2.5
				c1.5,1.1,3.1,1.7,4.7,1.7c0.5,0,0.9-0.1,1.2-0.3c0.3-0.2,0.4-0.5,0.4-0.8c0-0.3-0.2-0.6-0.6-0.9c-0.4-0.3-1-0.5-1.8-0.8
				c-0.8-0.2-1.4-0.5-1.8-0.6c-0.4-0.2-0.9-0.4-1.4-0.8c-1.1-0.7-1.6-1.7-1.6-3c0-1.3,0.5-2.4,1.6-3.2c1.1-0.8,2.4-1.2,4.1-1.2
				c1.7,0,3.3,0.6,5,1.7l-1.5,2.6c-1.2-0.8-2.5-1.3-3.7-1.3c-1.2,0-1.8,0.3-1.8,1c0,0.4,0.2,0.7,0.6,0.9c0.4,0.2,1,0.5,1.9,0.7
				c0.9,0.3,1.5,0.5,1.9,0.6c0.4,0.1,0.8,0.4,1.4,0.7C148.9,72.6,149.4,73.6,149.4,75z"/>
			<path d="M156.4,71.8v7.7h-4V59.9h4v7c1.2-1.2,2.5-1.8,4-1.8c1.5,0,2.7,0.5,3.8,1.6c1,1.1,1.5,2.5,1.5,4.2v8.6h-4v-7.8
				c0-2.2-0.8-3.3-2.4-3.3c-0.8,0-1.5,0.3-2.1,0.9C156.7,69.9,156.4,70.7,156.4,71.8z"/>
			<path d="M176.7,79.5V61h4.1v14.8h7.9v3.7H176.7z"/>
			<path d="M203.3,79.5h-3.7v-1.7c-1,1.3-2.3,1.9-3.8,1.9c-1.5,0-2.8-0.4-3.8-1.3c-1-0.9-1.5-2-1.5-3.5c0-1.5,0.5-2.5,1.6-3.3
				c1.1-0.7,2.5-1.1,4.3-1.1h3v-0.1c0-1.5-0.8-2.3-2.4-2.3c-0.7,0-1.4,0.1-2.2,0.4c-0.8,0.3-1.4,0.6-1.9,1l-1.8-2.6
				c1.9-1.4,4-2,6.4-2c1.7,0,3.1,0.4,4.2,1.3c1.1,0.9,1.6,2.2,1.6,4.1V79.5z M199.3,74.1v-0.7h-2.5c-1.6,0-2.4,0.5-2.4,1.5
				c0,0.5,0.2,0.9,0.6,1.2c0.4,0.3,0.9,0.4,1.6,0.4c0.7,0,1.3-0.2,1.9-0.6C199.1,75.4,199.3,74.8,199.3,74.1z"/>
			<path d="M215.1,65c1.7,0,3.2,0.7,4.5,2c1.3,1.3,1.9,3.1,1.9,5.2c0,2.1-0.7,3.9-2,5.3c-1.3,1.4-2.8,2.1-4.5,2.1
				c-1.7,0-3.1-0.7-4.2-2.1v1.9h-4V59.9h4v7C212,65.6,213.4,65,215.1,65z M210.9,72.4c0,1.2,0.3,2.1,1,2.8c0.6,0.7,1.4,1.1,2.3,1.1
				c0.9,0,1.7-0.4,2.4-1.1c0.7-0.7,1-1.7,1-2.8s-0.3-2.1-1-2.9c-0.7-0.8-1.5-1.2-2.4-1.2c-0.9,0-1.7,0.4-2.4,1.2
				C211.2,70.3,210.9,71.2,210.9,72.4z"/>
			<path d="M235.1,75c0,1.4-0.5,2.5-1.5,3.4c-1,0.8-2.3,1.3-3.9,1.3c-1.1,0-2.2-0.2-3.3-0.6c-1.1-0.4-2.2-0.9-3.1-1.7L225,75
				c1.5,1.1,3.1,1.7,4.7,1.7c0.5,0,0.9-0.1,1.2-0.3c0.3-0.2,0.4-0.5,0.4-0.8c0-0.3-0.2-0.6-0.6-0.9c-0.4-0.3-1-0.5-1.8-0.8
				c-0.8-0.2-1.4-0.5-1.8-0.6c-0.4-0.2-0.9-0.4-1.4-0.8c-1.1-0.7-1.6-1.7-1.6-3c0-1.3,0.5-2.4,1.6-3.2c1.1-0.8,2.4-1.2,4.1-1.2
				c1.7,0,3.3,0.6,5,1.7l-1.5,2.6c-1.2-0.8-2.5-1.3-3.7-1.3s-1.8,0.3-1.8,1c0,0.4,0.2,0.7,0.6,0.9c0.4,0.2,1,0.5,1.9,0.7
				c0.9,0.3,1.5,0.5,1.9,0.6c0.4,0.1,0.8,0.4,1.4,0.7C234.6,72.6,235.1,73.6,235.1,75z"/>
			<path class="st5" d="M244.1,76c-0.4-0.4-0.7-1-0.7-1.7c0-0.7,0.2-1.2,0.7-1.7c0.4-0.4,1-0.7,1.7-0.7c0.7,0,1.2,0.2,1.7,0.7
				c0.4,0.4,0.7,1,0.7,1.7c0,0.7-0.2,1.2-0.7,1.7c-0.4,0.4-1,0.7-1.7,0.7C245.1,76.7,244.5,76.5,244.1,76z"/>
		</g>
	</g>
</g>
<g id="_x34_re_labs" class="st0">
	<g class="st3">
		<path class="st6" d="M35.4,77.5V39.7l37.8,0L35.4,77.5z"/>
		<path class="st7" d="M73.2,39.7v37.8H35.4L73.2,39.7z"/>
		<rect x="73.2" y="39.7" class="st6" width="23.8" height="37.8"/>
		<rect x="35.4" y="77.5" class="st8" width="37.8" height="23.8"/>
		<rect x="73.2" y="77.5" class="st9" width="23.8" height="23.8"/>
		<path class="st10" d="M152.3,32.6l-43.1,59.1h34.5v17.3h8.6V32.6z M143.6,57.5V83h-17.9L143.6,57.5z"/>
		<path class="st10" d="M160.9,91.6h8.6V52.4h-8.6V91.6z"/>
		<path class="st10" d="M218.3,52.4v39.2H248V84h-20.9v-8.4h18.3v-7.2h-18.3v-8.4h20.6v-7.4H218.3z"/>
		<path class="st10" d="M186.7,71.6h8.7c2.1,0,3.7-0.5,4.9-1.6c1.2-1,1.7-2.4,1.7-4.2c0-1.9-0.6-3.3-1.8-4.3c-1.2-1-2.9-1.5-5-1.5
			h-8.6V71.6z M178.1,91.6V52.4h17.7c4.9,0,8.7,1.3,11.3,4c2.2,2.2,3.3,5.3,3.3,9.1c0,6-2.8,10.1-8.3,12.2l9.5,14h-10l-8.4-12.5
			h-6.6v12.5H178.1z"/>
	</g>
</g>
<g id="Sotatek">
	<g id="_210211472">
		<path id="_210209072" class="st11" d="M114.3,78.4c0,2.3-0.7,4.1-2.1,5.3c-1.4,1.2-3.4,1.8-5.9,1.8H93.2v-4.2h13.9
			c0.8,0,1.4-0.3,2-0.9c0.5-0.6,0.8-1.3,0.8-2.1c0-0.8-0.3-1.4-0.8-2c-0.5-0.6-1.2-0.9-2-0.9H100c-1.5,0-2.7-0.2-3.7-0.6
			c-1-0.4-1.8-1-2.5-1.6c-0.6-0.7-1.1-1.4-1.4-2.3C92.1,70,92,69.2,92,68.4c0-1,0.1-1.9,0.4-2.8c0.3-0.9,0.8-1.6,1.4-2.3
			c0.7-0.7,1.5-1.2,2.5-1.5c1-0.4,2.2-0.6,3.7-0.6h12.7v4.2H99.3c-0.4,0-0.8,0.1-1.1,0.2c-0.3,0.2-0.6,0.4-0.9,0.6
			c-0.3,0.3-0.5,0.6-0.6,0.9c-0.2,0.3-0.2,0.7-0.2,1.1c0,0.8,0.3,1.5,0.8,2c0.6,0.5,1.3,0.8,2.1,0.8h7.1c2.5,0,4.4,0.6,5.8,1.8
			c1.4,1.2,2.1,2.9,2.1,5.3L114.3,78.4L114.3,78.4z"/>
		<path id="_2102090721" class="st11" d="M127.7,65.5c-2,0-3.5,0.6-4.5,1.9c-1,1.3-1.5,3.3-1.5,6c0,5.2,2,7.8,6,7.8h4.3
			c4,0,6-2.6,6-7.8c0-2.7-0.5-4.7-1.5-6c-1-1.3-2.5-1.9-4.5-1.9H127.7z M130.8,61.2c7.7,0,11.5,4,11.6,12v0.1
			c0,8-3.9,12.1-11.6,12.1h-2c-7.7,0-11.6-4-11.6-12.1v-0.1c0-8,3.9-12,11.6-12H130.8L130.8,61.2z"/>
		<polygon id="_21020907212" class="st11" points="155.6,85.4 151.2,85.4 151.2,65.5 144.9,65.5 144.9,61.2 161.5,61.2 161.5,65.5 
			155.6,65.5 		"/>
		<path id="_210209072123" class="st11" d="M180.7,85.4l-7.2-19.2c-0.2-0.4-0.5-0.7-1-0.7c-0.5,0-0.8,0.2-1,0.7l-7.2,19.2h-4.7
			l7.9-21.1c0.4-1.1,1-1.8,1.9-2.4c0.9-0.5,1.9-0.8,3.1-0.8s2.2,0.3,3.1,0.8c0.9,0.5,1.5,1.3,1.9,2.4l7.9,21.1H180.7L180.7,85.4z"/>
		<polygon id="_2102090721234" class="st11" points="194,85.4 189.6,85.4 189.6,65.5 183.3,65.5 183.3,61.2 199.9,61.2 199.9,65.5 
			194,65.5 		"/>
		<path id="_21020907212345" class="st11" d="M223.1,65.5h-13.4c-0.4,0-0.8,0.1-1.1,0.2c-0.3,0.2-0.6,0.4-0.9,0.6s-0.5,0.6-0.6,0.9
			c-0.2,0.3-0.2,0.7-0.2,1.1c0,0.8,0.3,1.5,0.8,2c0.5,0.5,1.2,0.8,2.1,0.8h13.4v4.2h-13.4c-0.4,0-0.8,0.1-1.1,0.2
			c-0.3,0.2-0.6,0.4-0.9,0.6c-0.3,0.3-0.5,0.6-0.6,0.9c-0.2,0.3-0.2,0.7-0.2,1.1c0,0.9,0.3,1.6,0.8,2.2c0.5,0.6,1.2,0.8,2.1,0.8
			h13.4v4.2h-12.7c-1.5,0-2.7-0.2-3.7-0.6c-1-0.4-1.8-1-2.5-1.6c-0.6-0.7-1.1-1.4-1.4-2.3c-0.3-0.9-0.4-1.7-0.4-2.6
			c0-1,0.2-1.9,0.6-2.8c0.4-0.9,1.1-1.6,2.1-2.2c-1-0.6-1.7-1.3-2.1-2.2c-0.4-0.9-0.6-1.8-0.6-2.7c0-1,0.2-2,0.5-2.9
			s0.8-1.6,1.5-2.3c0.7-0.6,1.5-1.1,2.5-1.5c1-0.4,2.2-0.5,3.6-0.5h12.7L223.1,65.5L223.1,65.5z"/>
		<polygon id="_210209072123456" class="st11" points="231.2,85.4 226.7,85.4 226.7,61.2 231.2,61.2 231.2,68.9 248,61 248,65.9 
			231.1,73.3 248,81 248,85.7 231.2,77.7 		"/>
		<path id="_213659648" class="st12" d="M44.9,85.7c0.3-0.4,0.6-0.7,0.9-1.1c5.6-6.4,15.3-7,21.6-1.4c6.4,5.6,7,15.3,1.4,21.6
			c-0.3,0.4-0.6,0.7-1,1L44.9,85.7L44.9,85.7z M86.4,56.1c-0.3,0.4-0.6,0.7-0.9,1.1c-5.6,6.4-15.3,7-21.6,1.4
			c-6.4-5.6-7-15.3-1.4-21.6c0.3-0.4,0.6-0.7,1-1L86.4,56.1L86.4,56.1z M42.5,84.2c-0.4-0.2-0.8-0.5-1.1-0.8
			c-6.7-5.2-7.9-14.8-2.8-21.5c5.2-6.7,14.8-7.9,21.5-2.8c0.4,0.3,0.7,0.6,1.1,0.9L42.5,84.2L42.5,84.2z"/>
	</g>
</g>
<g id="Solulab" class="st0">
	<g id="_213653792" class="st3">
		<path id="_215008584" class="st13" d="M80.9,77l4.2-0.4c0.2,1.7,0.7,3.1,1.4,4.2c0.7,1.1,1.8,2,3.4,2.7c1.5,0.7,3.2,1,5.1,1
			c1.7,0,3.2-0.3,4.5-0.8c1.3-0.5,2.3-1.2,2.9-2.1c0.6-0.9,0.9-1.9,0.9-2.9c0-1.1-0.3-2-0.9-2.8c-0.6-0.8-1.6-1.5-3-2
			c-0.9-0.4-2.9-0.9-5.9-1.7c-3.1-0.8-5.2-1.5-6.4-2.1c-1.6-0.9-2.8-1.9-3.6-3.2c-0.8-1.3-1.2-2.7-1.2-4.3c0-1.7,0.5-3.3,1.4-4.8
			c1-1.5,2.4-2.7,4.2-3.4c1.8-0.8,3.9-1.2,6.1-1.2c2.5,0,4.7,0.4,6.6,1.2c1.9,0.8,3.3,2,4.4,3.6c1,1.6,1.6,3.4,1.6,5.4l-4.2,0.3
			c-0.2-2.2-1-3.8-2.3-4.9c-1.3-1.1-3.2-1.7-5.8-1.7c-2.7,0-4.6,0.5-5.8,1.5c-1.2,1-1.8,2.2-1.8,3.6c0,1.2,0.4,2.3,1.3,3
			c0.9,0.8,3.1,1.6,6.7,2.4c3.6,0.8,6.1,1.6,7.4,2.2c1.9,0.9,3.4,2.1,4.3,3.5c0.9,1.4,1.4,3,1.4,4.9c0,1.8-0.5,3.5-1.5,5.2
			c-1,1.6-2.5,2.9-4.4,3.8c-1.9,0.9-4,1.3-6.4,1.3c-3,0-5.6-0.4-7.6-1.4c-2-0.9-3.6-2.3-4.8-4.1C81.6,81.3,80.9,79.3,80.9,77
			L80.9,77z"/>
		<path id="_2150085841" class="st13" d="M111.4,75.6c0-4.6,1.2-8,3.7-10.2c2.1-1.8,4.6-2.8,7.6-2.8c3.3,0,6,1.1,8.2,3.4
			c2.1,2.2,3.2,5.3,3.2,9.3c0,3.2-0.5,5.7-1.4,7.5c-0.9,1.8-2.3,3.3-4.1,4.3c-1.8,1-3.7,1.5-5.8,1.5c-3.4,0-6.1-1.1-8.2-3.3
			C112.5,83,111.4,79.8,111.4,75.6L111.4,75.6z M115.7,75.6c0,3.2,0.7,5.6,2,7.1c1.4,1.6,3.1,2.4,5.1,2.4c2,0,3.7-0.8,5.1-2.4
			c1.3-1.6,2-4,2-7.3c0-3.1-0.7-5.4-2-7c-1.4-1.6-3-2.4-5.1-2.4c-2,0-3.7,0.8-5.1,2.4C116.3,70,115.7,72.4,115.7,75.6L115.7,75.6z"
			/>
		<polygon id="_21500858412" class="st13" points="138.8,88 138.8,53.7 142.9,53.7 142.9,88 		"/>
		<path id="_215008584123" class="st13" d="M165.1,88v-3.6c-1.9,2.8-4.4,4.2-7.7,4.2c-1.4,0-2.8-0.3-4-0.8c-1.2-0.6-2.2-1.3-2.8-2.1
			c-0.6-0.9-1-1.9-1.3-3.1c-0.2-0.8-0.2-2.1-0.2-3.9V63.2h4.1v13.8c0,2.2,0.1,3.7,0.2,4.4c0.3,1.1,0.8,2,1.6,2.6
			c0.8,0.6,1.9,0.9,3.1,0.9c1.2,0,2.4-0.3,3.5-1c1.1-0.6,1.8-1.5,2.3-2.6c0.5-1.1,0.7-2.7,0.7-4.9V63.2h4.1V88L165.1,88L165.1,88z"
			/>
		<polygon id="_2150085841234" class="st13" points="175.5,88 175.5,53.7 180,53.7 180,84 196.4,84 196.4,88 		"/>
		<path id="_21500858412345" class="st13" d="M216.9,84.9c-1.5,1.3-3,2.3-4.4,2.8c-1.4,0.5-2.9,0.8-4.5,0.8c-2.7,0-4.7-0.7-6.1-2
			c-1.4-1.3-2.1-3-2.1-5.1c0-1.2,0.3-2.3,0.8-3.3c0.5-1,1.2-1.8,2.1-2.4c0.9-0.6,1.9-1.1,3-1.4c0.8-0.2,2-0.4,3.6-0.6
			c3.3-0.4,5.8-0.9,7.3-1.5c0-0.6,0-0.9,0-1.1c0-1.7-0.4-2.9-1.2-3.6c-1-1-2.6-1.4-4.7-1.4c-1.9,0-3.3,0.3-4.3,1
			c-0.9,0.7-1.6,1.9-2,3.7l-4-0.6c0.4-1.8,1-3.2,1.8-4.3c0.8-1.1,2-1.9,3.6-2.5c1.6-0.6,3.4-0.9,5.5-0.9c2.1,0,3.7,0.3,5,0.8
			c1.3,0.5,2.2,1.1,2.9,1.9c0.6,0.8,1,1.7,1.3,2.9c0.1,0.7,0.2,2,0.2,3.9v5.6c0,3.9,0.1,6.4,0.3,7.4c0.2,1,0.5,2,1,3h-4.3
			C217.3,87.1,217,86.1,216.9,84.9L216.9,84.9z M216.6,75.5c-1.5,0.6-3.7,1.2-6.7,1.6c-1.7,0.2-2.9,0.5-3.6,0.8
			c-0.7,0.3-1.2,0.8-1.6,1.4c-0.4,0.6-0.6,1.3-0.6,2c0,1.1,0.4,2.1,1.2,2.8c0.8,0.7,2,1.1,3.6,1.1c1.6,0,3-0.4,4.2-1.1
			c1.2-0.7,2.1-1.7,2.7-2.9c0.4-1,0.7-2.4,0.7-4.2V75.5L216.6,75.5z"/>
		<path id="_215008584123456" class="st13" d="M230.9,88h-3.8V53.7h4.1V66c1.7-2.2,3.9-3.3,6.6-3.3c1.5,0,2.9,0.3,4.2,0.9
			c1.3,0.6,2.4,1.5,3.3,2.6c0.9,1.1,1.5,2.5,2,4c0.5,1.6,0.7,3.3,0.7,5c0,4.3-1,7.6-3.1,9.9c-2,2.3-4.5,3.5-7.4,3.5
			c-2.9,0-5.1-1.2-6.7-3.7L230.9,88L230.9,88z M230.8,75.4c0,3,0.4,5.1,1.2,6.5c1.3,2.2,3,3.3,5.2,3.3c1.8,0,3.3-0.8,4.6-2.4
			c1.3-1.6,2-4,2-7.1c0-3.2-0.6-5.6-1.9-7.2c-1.3-1.5-2.8-2.3-4.5-2.3c-1.8,0-3.3,0.8-4.6,2.4C231.5,70.1,230.8,72.4,230.8,75.4
			L230.8,75.4z"/>
		<path id="_215016000" class="st14" d="M63.8,67.6h3.2h0.3v0.3v1.1v0.3h-0.3h-5.2h-0.3v-0.3v-6.8V62h0.3h1.7h0.3v0.3L63.8,67.6
			L63.8,67.6z M66.2,77.3h-2.5l-0.5,1.2l-0.1,0.2H63h-1.8h-0.5l0.2-0.4l3-6.8l0.1-0.2h0.2h1.5h0.2l0.1,0.2l3,6.8l0.2,0.4h-0.5H67
			h-0.2l-0.1-0.2L66.2,77.3L66.2,77.3z M64.4,75.6h1.2L65,74.2L64.4,75.6L64.4,75.6z M61.6,87.8v-6.8v-0.3h0.3h2.8
			c0.2,0,0.5,0,0.7,0c0.2,0,0.4,0,0.6,0.1c0.2,0,0.4,0.1,0.6,0.2c0.2,0.1,0.3,0.1,0.5,0.2h0c0.1,0.1,0.3,0.2,0.4,0.3
			c0.1,0.1,0.2,0.2,0.3,0.4l0,0c0.1,0.1,0.1,0.3,0.2,0.5c0,0.2,0.1,0.3,0.1,0.5c0,0.1,0,0.2,0,0.3c0,0.1,0,0.2-0.1,0.3l0,0
			c0,0.1-0.1,0.2-0.1,0.3c0,0.1-0.1,0.2-0.1,0.2l0,0c-0.1,0.1-0.1,0.1-0.2,0.2c-0.1,0.1-0.1,0.1-0.2,0.2l0,0
			c0.1,0.1,0.2,0.1,0.3,0.2c0.1,0.1,0.2,0.1,0.2,0.2l0,0c0.1,0.1,0.1,0.2,0.2,0.3c0,0.1,0.1,0.2,0.1,0.3h0c0,0.1,0.1,0.2,0.1,0.3
			c0,0.1,0,0.2,0,0.3c0,0.4-0.1,0.7-0.2,1c-0.1,0.3-0.4,0.5-0.7,0.7l0,0c-0.3,0.2-0.6,0.3-1,0.4c-0.4,0.1-0.8,0.1-1.3,0.1h-3.1h-0.3
			L61.6,87.8L61.6,87.8z M63.8,85.2v1.2H65c0.1,0,0.2,0,0.3,0h0c0.1,0,0.1,0,0.2,0l0,0c0.1,0,0.1,0,0.2-0.1c0,0,0.1,0,0.1-0.1l0,0
			c0,0,0.1-0.1,0.1-0.1c0,0,0-0.1,0.1-0.1l0,0c0,0,0-0.1,0-0.1c0,0,0-0.1,0-0.1c0-0.1,0-0.1,0-0.2c0,0,0-0.1,0-0.1h0
			c0,0,0-0.1-0.1-0.1c0,0,0-0.1-0.1-0.1c0,0-0.1,0-0.1-0.1h0c0,0-0.1,0-0.2-0.1l0,0c-0.1,0-0.1,0-0.2,0c-0.1,0-0.2,0-0.3,0
			L63.8,85.2L63.8,85.2z M63.8,83.6h0.9v0c0.2,0,0.3,0,0.5-0.1c0.1,0,0.2-0.1,0.3-0.1l0,0c0.1,0,0.1-0.1,0.1-0.2l0,0
			c0-0.1,0-0.1,0-0.2c0-0.1,0-0.2,0-0.3c0-0.1-0.1-0.1-0.1-0.1l0,0c-0.1,0-0.2-0.1-0.3-0.1c-0.1,0-0.3,0-0.5,0h-0.9V83.6z"/>
		<g>
			<rect id="_215016048" x="35.4" y="53.2" class="st15" width="3.1" height="3.1"/>
			<rect id="_215012352" x="38.6" y="53.2" class="st16" width="3.1" height="3.1"/>
			<rect id="_215017032" x="41.7" y="53.2" class="st16" width="3.1" height="3.1"/>
			<rect id="_215013672" x="44.9" y="53.2" class="st16" width="3.1" height="3.1"/>
			<rect id="_215012112" x="48" y="53.2" class="st15" width="3.1" height="3.1"/>
			<rect id="_215016744" x="57.3" y="53.2" class="st15" width="3.1" height="3.1"/>
			<rect id="_215006496" x="60.4" y="53.2" class="st16" width="3.1" height="3.1"/>
			<rect id="_215006232" x="63.6" y="53.2" class="st17" width="3.1" height="3.1"/>
			<rect id="_215005992" x="66.7" y="53.2" class="st18" width="3.1" height="3.1"/>
			<rect id="_215006448" x="66.7" y="56.4" class="st19" width="3.1" height="3.1"/>
			<rect id="_215015736" x="63.6" y="56.4" class="st20" width="3.1" height="3.1"/>
			<rect id="_215015832" x="60.4" y="56.4" class="st16" width="3.1" height="3.1"/>
			<rect id="_215017080" x="48" y="56.4" class="st16" width="3.1" height="3.1"/>
			<rect id="_215016168" x="48" y="59.5" class="st18" width="3.1" height="3.1"/>
			<rect id="_215013624" x="48" y="62.7" class="st16" width="3.1" height="3.1"/>
			<rect id="_215011752" x="48" y="65.8" class="st20" width="3.1" height="3.1"/>
			<rect id="_215011728" x="51.1" y="65.8" class="st16" width="3.1" height="3.1"/>
			<rect id="_215005656" x="54.3" y="65.8" class="st19" width="3.1" height="3.1"/>
			<rect id="_215005872" x="54.3" y="59.8" class="st16" width="3.1" height="3.1"/>
			<rect id="_215012688" x="35.4" y="56.4" class="st16" width="3.1" height="3.1"/>
			<rect id="_215017056" x="35.4" y="59.5" class="st18" width="3.1" height="3.1"/>
			<rect id="_215016024" x="38.6" y="59.5" class="st16" width="3.1" height="3.1"/>
			<rect id="_215016384" x="41.7" y="59.5" class="st18" width="3.1" height="3.1"/>
			<rect id="_215019528" x="41.7" y="62.7" class="st16" width="3.1" height="3.1"/>
			<rect id="_215012640" x="41.7" y="65.8" class="st16" width="3.1" height="3.1"/>
			<rect id="_215014008" x="38.6" y="65.8" class="st20" width="3.1" height="3.1"/>
			<rect id="_215012616" x="35.4" y="65.8" class="st16" width="3.1" height="3.1"/>
			<rect id="_213658688" x="35.4" y="72.1" class="st15" width="3.1" height="3.1"/>
			<rect id="_215016360" x="35.4" y="75.3" class="st20" width="3.1" height="3.1"/>
			<rect id="_213658760" x="35.4" y="78.4" class="st16" width="3.1" height="3.1"/>
			<rect id="_213658064" x="35.4" y="81.5" class="st16" width="3.1" height="3.1"/>
			<rect id="_213658304" x="35.4" y="84.7" class="st19" width="3.1" height="3.1"/>
			<rect id="_215006088" x="38.6" y="84.7" class="st16" width="3.1" height="3.1"/>
			<rect id="_215006544" x="41.7" y="84.7" class="st20" width="3.1" height="3.1"/>
			<rect id="_215006640" x="41.7" y="81.5" class="st18" width="3.1" height="3.1"/>
			<rect id="_215006472" x="41.7" y="78.4" class="st16" width="3.1" height="3.1"/>
			<rect id="_215006688" x="41.7" y="75.3" class="st16" width="3.1" height="3.1"/>
			<rect id="_215005896" x="41.7" y="72.1" class="st15" width="3.1" height="3.1"/>
			<rect id="_215017776" x="48" y="72.1" class="st18" width="3.1" height="3.1"/>
			<rect id="_213651440" x="48" y="75.3" class="st19" width="3.1" height="3.1"/>
			<rect id="_213653456" x="48" y="78.4" class="st15" width="3.1" height="3.1"/>
			<rect id="_213653912" x="48" y="81.5" class="st16" width="3.1" height="3.1"/>
			<rect id="_213653600" x="48" y="84.7" class="st16" width="3.1" height="3.1"/>
			<rect id="_213655424" x="51.1" y="84.7" class="st15" width="3.1" height="3.1"/>
			<rect id="_213657032" x="54.3" y="84.7" class="st20" width="3.1" height="3.1"/>
			<rect id="_213656816" x="54.3" y="81.5" class="st16" width="3.1" height="3.1"/>
			<rect id="_213656720" x="54.3" y="78.4" class="st18" width="3.1" height="3.1"/>
			<rect id="_213657080" x="54.3" y="75.3" class="st21" width="3.1" height="3.1"/>
			<rect id="_213653624" x="54.3" y="72.1" class="st15" width="3.1" height="3.1"/>
			<rect id="_213651344" x="38.6" y="72.1" class="st16" width="3.1" height="3.1"/>
		</g>
	</g>
</g>
<g id="Carry" class="st0">
	<g class="st3">
		<path class="st22" d="M96,40.5H41.7l-6,52.5c0,0-2.1,8.1,5.6,8.2h47.6l1.9-14.8l-4.2,4.3H52.8l4.3-39.8h37.9L96,40.5L96,40.5z"/>
		<path class="st23" d="M130.6,63.1c-2.2,0-4,0.8-5.2,2.4c-1.3,1.6-1.9,3.8-1.9,6.6c0,3,0.6,5.2,1.8,6.7c1.2,1.5,3,2.3,5.3,2.3
			c1,0,2-0.1,2.9-0.3c0.9-0.2,1.9-0.5,2.9-0.8v3.4c-1.8,0.7-3.9,1.1-6.3,1.1c-3.4,0-6.1-1.1-7.9-3.2c-1.8-2.1-2.8-5.2-2.8-9.2
			c0-2.5,0.4-4.7,1.3-6.6c0.9-1.9,2.2-3.3,3.9-4.3c1.7-1,3.7-1.5,6-1.5c2.4,0,4.6,0.5,6.7,1.6l-1.4,3.3c-0.8-0.4-1.6-0.7-2.5-1
			C132.5,63.2,131.6,63.1,130.6,63.1L130.6,63.1z"/>
		<path id="_x31_" class="st23" d="M152.3,84.1l-0.8-2.5h-0.1c-0.9,1.1-1.7,1.9-2.6,2.3c-0.9,0.4-2,0.6-3.4,0.6
			c-1.7,0-3.1-0.5-4.1-1.5c-1-1-1.5-2.3-1.5-4.1c0-1.9,0.7-3.3,2-4.3c1.4-1,3.4-1.5,6.2-1.6l3.1-0.1v-1c0-1.2-0.3-2-0.8-2.6
			c-0.5-0.6-1.4-0.9-2.5-0.9c-0.9,0-1.8,0.1-2.6,0.4c-0.8,0.3-1.6,0.6-2.4,1l-1.2-2.8c1-0.5,2-0.9,3.2-1.2c1.1-0.3,2.2-0.4,3.3-0.4
			c2.3,0,4,0.5,5.1,1.5c1.2,1,1.7,2.6,1.7,4.8v12.3L152.3,84.1L152.3,84.1z M146.6,81.5c1.4,0,2.5-0.4,3.3-1.2
			c0.8-0.8,1.2-1.9,1.2-3.3v-1.6l-2.3,0.1c-1.8,0.1-3.1,0.4-3.9,0.9c-0.8,0.5-1.2,1.4-1.2,2.5c0,0.8,0.2,1.4,0.7,1.9
			C145,81.3,145.7,81.5,146.6,81.5L146.6,81.5z"/>
		<path id="_x31_2" class="st23" d="M169.3,65.6c0.8,0,1.4,0.1,1.9,0.2l-0.4,3.6c-0.5-0.1-1.1-0.2-1.7-0.2c-1.5,0-2.7,0.5-3.7,1.5
			c-0.9,1-1.4,2.3-1.4,3.9v9.5h-3.8V65.9h3l0.5,3.2h0.2c0.6-1.1,1.4-2,2.3-2.6C167.2,65.9,168.2,65.6,169.3,65.6L169.3,65.6z"/>
		<path id="_x31_23" class="st23" d="M183.5,65.6c0.8,0,1.4,0.1,1.9,0.2l-0.4,3.6c-0.5-0.1-1.1-0.2-1.7-0.2c-1.5,0-2.7,0.5-3.7,1.5
			c-0.9,1-1.4,2.3-1.4,3.9v9.5h-3.8V65.9h3l0.5,3.2h0.2c0.6-1.1,1.4-2,2.3-2.6C181.4,65.9,182.4,65.6,183.5,65.6L183.5,65.6z"/>
		<path id="_x31_234" class="st23" d="M186,65.9h4.1l3.6,10.3c0.5,1.5,0.9,2.9,1.1,4.2h0.1c0.1-0.6,0.3-1.3,0.5-2.2
			c0.3-0.9,1.6-5,4.1-12.3h4.1L196,86.6c-1.4,3.8-3.7,5.7-6.9,5.7c-0.8,0-1.6-0.1-2.4-0.3v-3.1c0.6,0.1,1.2,0.2,1.9,0.2
			c1.8,0,3.1-1.1,3.9-3.3l0.7-1.7L186,65.9L186,65.9z"/>
		<path id="_x31_2345" class="st23" d="M204.5,82.1c0-0.8,0.2-1.4,0.6-1.8c0.4-0.4,1-0.6,1.8-0.6c0.8,0,1.4,0.2,1.8,0.7
			c0.4,0.4,0.6,1.1,0.6,1.8c0,0.8-0.2,1.4-0.6,1.9c-0.4,0.5-1,0.7-1.8,0.7c-0.8,0-1.4-0.2-1.8-0.7C204.7,83.5,204.5,82.9,204.5,82.1
			L204.5,82.1z"/>
		<path id="_x31_23456" class="st23" d="M228.1,77.6c0,2.1-0.8,3.8-2.3,5c-1.5,1.2-3.6,1.8-6.3,1.8c-2.7,0-4.8-0.4-6.5-1.3v-3.7
			c1.1,0.5,2.2,0.9,3.4,1.2c1.2,0.3,2.3,0.4,3.4,0.4c1.5,0,2.6-0.3,3.4-0.9c0.7-0.6,1.1-1.4,1.1-2.4c0-0.9-0.3-1.7-1-2.3
			c-0.7-0.6-2-1.4-4.1-2.2c-2.1-0.9-3.7-1.9-4.5-3.1c-0.9-1.1-1.3-2.5-1.3-4.1c0-2,0.7-3.6,2.1-4.8c1.4-1.2,3.3-1.7,5.6-1.7
			c2.3,0,4.5,0.5,6.7,1.5l-1.2,3.2c-2.1-0.9-4-1.4-5.6-1.4c-1.2,0-2.2,0.3-2.8,0.8c-0.6,0.6-1,1.3-1,2.2c0,0.6,0.1,1.2,0.4,1.6
			c0.3,0.4,0.7,0.9,1.3,1.3c0.6,0.4,1.7,0.9,3.2,1.6c1.7,0.7,3,1.4,3.8,2.1c0.8,0.6,1.4,1.4,1.8,2.2
			C227.9,75.6,228.1,76.5,228.1,77.6L228.1,77.6z"/>
		<path id="_x31_234567" class="st23" d="M248,75c0,3-0.7,5.3-2.2,7c-1.5,1.7-3.6,2.5-6.2,2.5c-1.7,0-3.1-0.4-4.4-1.2
			c-1.3-0.8-2.3-1.9-2.9-3.3c-0.7-1.4-1-3.1-1-5c0-3,0.7-5.3,2.2-6.9c1.5-1.7,3.6-2.5,6.3-2.5c2.6,0,4.6,0.9,6.1,2.6
			C247.3,69.8,248,72.1,248,75L248,75z M235.1,75c0,4.2,1.5,6.3,4.6,6.3c3,0,4.5-2.1,4.5-6.3c0-4.2-1.5-6.3-4.5-6.3
			c-1.6,0-2.7,0.5-3.5,1.6C235.4,71.4,235.1,73,235.1,75L235.1,75z"/>
	</g>
</g>
<g id="meherett" class="st0">
	<g class="st3">
		<path d="M43.9,55.2l8,22.7l8-22.7h8.5v31.3h-6.5V78l0.6-14.8l-8.5,23.3h-4.4l-8.4-23.3L41.9,78v8.6h-6.5V55.2H43.9z"/>
		<path d="M90.7,73H78.3v8.4h14.5v5.2h-21V55.2h20.9v5.2H78.3v7.5h12.4V73z"/>
		<path d="M119.9,86.5h-6.5V73.1h-12.6v13.4h-6.5V55.2h6.5v12.7h12.6V55.2h6.5V86.5z"/>
		<path d="M142.2,73h-12.4v8.4h14.5v5.2h-21V55.2h20.9v5.2h-14.5v7.5h12.4V73z"/>
		<path d="M157.5,75.1h-5.1v11.5h-6.5V55.2h11.6c1.8,0,3.4,0.2,4.9,0.6c1.4,0.4,2.6,1,3.6,1.8c1,0.8,1.7,1.8,2.3,3
			c0.5,1.2,0.8,2.5,0.8,4.1c0,1.1-0.1,2.2-0.4,3.1c-0.3,0.9-0.6,1.7-1.1,2.4c-0.5,0.7-1.1,1.3-1.8,1.9c-0.7,0.5-1.5,1-2.3,1.4
			l6.8,12.8v0.3h-6.9L157.5,75.1z M152.3,69.8h5.2c0.8,0,1.6-0.1,2.2-0.3c0.6-0.2,1.2-0.5,1.6-0.9c0.4-0.4,0.7-0.9,1-1.5
			c0.2-0.6,0.3-1.2,0.3-1.9c0-1.5-0.4-2.6-1.3-3.5c-0.8-0.8-2.1-1.3-3.9-1.3h-5.2V69.8z"/>
		<path d="M190.6,73h-12.4v8.4h14.5v5.2h-21V55.2h20.9v5.2h-14.5v7.5h12.4V73z"/>
		<path d="M220.3,60.4h-9.6v26.1h-6.5V60.4h-9.5v-5.2h25.5V60.4z"/>
		<path d="M248,60.4h-9.6v26.1H232V60.4h-9.5v-5.2H248V60.4z"/>
	</g>
</g>
</svg>
