<?xml version="1.0" encoding="UTF-8"?>
<svg id="_x30_XFutbol" xmlns="http://www.w3.org/2000/svg" version="1.1" viewBox="0 0 56.7 56.7">
  <!-- Generator: Adobe Illustrator 29.6.0, SVG Export Plug-In . SVG Version: 2.1.1 Build 207)  -->
  <defs>
    <style>
      .st0 {
        fill: #00ff02;
      }

      .st1 {
        fill: #fff;
      }
    </style>
  </defs>
  <circle cx="28.4" cy="28.4" r="27.6"/>
  <path class="st1" d="M43.4,13c-1.1-1.1-3-2.7-4.4-3.3s-.9-.3-1.7,0c-1.9.8-3.8,1.9-5.6,3s-2.4,1.9-3.6,1.9-2.6-1.4-3.5-2c-1.6-1-3.7-2.2-5.5-2.9s-1.4-.1-2.5.6c-3.1,1.9-5.8,4.9-7.4,8.2.8,2.2,1.9,4.2,3,6.1s2,2.8,2.1,3.6,0,.4,0,.6c-.1.9-2.5,4.1-3.1,5.3s-1.5,2.9-2,4.5c1.7,3.3,4.6,6.4,7.8,8.3s1,.7,1.3.6,1.4-.6,1.8-.7c.9-.4,1.8-.9,2.7-1.3,1.4-.8,3.2-2.3,4.5-2.9s3.4,1,4.9,1.9c1.9,1.2,4.1,2.4,6.2,3,3.3-1.6,6.3-4.6,8.2-7.7s.7-1,.7-1.5-.9-2.3-1.2-2.8-.6-1.1-.9-1.7c-.7-1.2-2.6-3.7-2.9-4.7-.5-1.6.9-2.7,1.6-4s1.2-1.9,1.7-2.9,1.7-3.3,1.7-3.9-1-1.9-1.4-2.4c-.7-1-1.7-2.1-2.6-3h.1Z"/>
  <path class="st0" d="M28.4.7C13.1.7.7,13.1.7,28.4s12.4,27.6,27.6,27.6,27.6-12.4,27.6-27.6S43.6.7,28.4.7ZM28.4,52.6c-13.4,0-24.2-10.8-24.2-24.2S15,4.1,28.4,4.1s24.2,10.8,24.2,24.2-10.8,24.2-24.2,24.2h0Z"/>
  <path d="M27.9,19.1c1.1-.2,2.3.8,3.2,1.4,2.1,1.5,4.1,3.2,6.3,4.7.8.9.6,1.8.3,2.8-.7,2.8-2.1,5.6-2.8,8.4-.3.6-.8.9-1.4,1.1-3-.2-6.2.3-9.2,0s-2.4-1.2-3.1-3.3-1.5-3.9-2-5.8-.8-2.4.1-3.4c2.6-1.7,5.1-4.1,7.7-5.7s.7-.4,1.1-.5l-.2.2Z"/>
</svg>