<?xml version="1.0" encoding="utf-8"?>
<!-- Generator: Adobe Illustrator 25.0.1, SVG Export Plug-In . SVG Version: 6.00 Build 0)  -->
<svg version="1.1" id="Layer_1" xmlns="http://www.w3.org/2000/svg" xmlns:xlink="http://www.w3.org/1999/xlink" x="0px" y="0px"
	 viewBox="0 0 56.7 56.7" style="enable-background:new 0 0 56.7 56.7;" xml:space="preserve">
<style type="text/css">
	.st0{fill-rule:evenodd;clip-rule:evenodd;fill:#EE7F22;}
	.st1{fill-rule:evenodd;clip-rule:evenodd;fill:#383285;}
</style>
<g id="Layer_13">
	<g id="Layer_x0020_1_1_">
		<g>
			<path class="st0" d="M39.7,16.5c0,0,19.9-5.4,3.4,1.5C43,18,40.3,19.2,39.7,16.5z"/>
			<path class="st1" d="M7.1,26.6c0,0,2.5-8.8,20.3-8.6c0,0,3.7,0.5,5.7-1s2.1-2.6,4.1-2.7c2.1-0.1,3.4,2.7,2.9,4.7
				c-0.4,2-2.6,6.1-11.2,12S18.7,42.4,18.7,42.4s-1.1-4.7,4.2-12.7c0,0,1.6-2.1-0.1-4.1C21.1,23.5,11.6,23.3,7.1,26.6L7.1,26.6z"/>
		</g>
	</g>
</g>
</svg>
