<?xml version="1.0" encoding="UTF-8"?>
<svg id="Akka" xmlns="http://www.w3.org/2000/svg" viewBox="0 0 56.7 56.7">
  <defs>
    <style>
      .cls-1 {
        fill: #2563eb;
      }
    </style>
  </defs>
  <path class="cls-1" d="M32.4,20.8l6.7,5.6c.2.1.4.2.6.2s.3,0,.5-.1c.4-.2.6-.6.5-1l-1.8-11.4c0-.4-.3-.7-.7-.8-.4-.1-.8,0-1,.3l-4.8,5.8c-.3.4-.3,1.1.1,1.4Z"/>
  <path class="cls-1" d="M31.8,28c0-.3-.1-.5-.4-.7l-2.7-2.3c-.2-.2-.5-.3-.7-.2-.3,0-.5.1-.7.4l-2.3,2.7c-.4.4-.3,1.1.1,1.4l2.7,2.3c.2.1.4.2.6.2s.6-.1.8-.4l2.3-2.7c.2-.2.3-.5.3-.7Z"/>
  <path class="cls-1" d="M6.9,13.5c.1,0,.2,0,.3,0l15.7-2.1c.5,0,.9-.5.9-1l-.2-6.6c0-.4-.2-.7-.5-.8-.3-.2-.7-.2-1,0L6.3,12c-.3.2-.5.6-.4.9.1.3.4.6,1,.6Z"/>
  <path class="cls-1" d="M49.4,43.3l-15.7,2.1c-.5,0-.9.5-.9,1l.2,6.6c0,.4.2.7.5.8.1,0,.3.1.5.1s.3,0,.5-.1l15.8-9.1c.3-.2.5-.6.4-.9,0-.3-.5-.7-1.3-.6Z"/>
  <path class="cls-1" d="M4.8,19.6c-.3-.3-.7-.3-1.1-.1-.4.2-.6.5-.6.9v6.7c0,.6.4,1,1,1h9.1c.3,0,.5-.1.6-.4,0-.3,0-.5-.2-.7l-8.9-7.4Z"/>
  <path class="cls-1" d="M24.3,35.9l-6.7-5.6c-.3-.3-.8-.3-1.1-.1-.4.2-.6.6-.5,1l2,12.3c0,.2.2.4.4.5,0,0,.1,0,.1,0,.2,0,.4,0,.5-.2l5.4-6.5c.3-.4.3-1.1-.1-1.4Z"/>
  <path class="cls-1" d="M13.2,18.5c-.1.4,0,.8.3,1l5.8,4.9c.2.1.4.2.6.2s.6-.1.8-.4l5.7-6.7c.3-.3.3-.8.1-1.1-.2-.4-.6-.6-1-.5l-11.5,1.8c-.4,0-.7.3-.8.7Z"/>
  <path class="cls-1" d="M29,13.8c0,0,.1,0,.2,0,.2,0,.3,0,.5-.2l7-8.3c.2-.2.3-.5.2-.8,0-.3-.2-.6-.5-.7l-5.2-2.9c-.4-.2-.9-.4-1.3-.6-.3,0-.6,0-.9.2-.3.2-.4.5-.4.8v11.9c0,.3.1.5.4.6Z"/>
  <path class="cls-1" d="M10.3,32.9l-6.3.2c-.5,0-1,.5-1,1v6c0,1.7.9,3.4,2.4,4.2l6,3.5c.1,0,.3.1.5.1s.4,0,.6-.2c.3-.2.5-.6.4-1l-1.8-13c0-.5-.5-.8-1-.8Z"/>
  <path class="cls-1" d="M51.2,12.4l-6-3.5c-.3-.2-.7-.2-1.1,0-.3.2-.5.6-.4,1l1.8,13c0,.5.5.9,1,.9h0l6.2-.2c.6,0,1-.4,1-1v-6c0-1.8-1-3.4-2.4-4.2Z"/>
  <path class="cls-1" d="M43.5,38.2c.1-.4,0-.8-.3-1l-5.8-4.9c-.4-.4-1.1-.3-1.4.1l-5.7,6.7c-.3.3-.3.8-.1,1.1.2.3.5.5.9.5h.1l11.5-1.8c.4,0,.7-.3.8-.7Z"/>
  <path class="cls-1" d="M27.7,42.8c-.3,0-.5,0-.7.2l-7,8.3c-.2.2-.3.5-.2.8,0,.3.2.6.5.7l5.2,3c.4.2.9.4,1.3.6,0,0,.2,0,.3,0,.2,0,.4,0,.6-.2.3-.2.4-.5.4-.8v-11.9c0-.3-.2-.5-.4-.6Z"/>
  <path class="cls-1" d="M52.6,28.6h-8.1c-.4,0-.8.3-1,.7-.1.4,0,.8.3,1.1l8.1,6.7c.2.1.4.2.6.2s.3,0,.4-.1c.4-.2.6-.5.6-.9v-6.7c0-.6-.4-1-1-1Z"/>
</svg>