<?xml version="1.0" encoding="UTF-8"?>
<svg id="Asterizm" xmlns="http://www.w3.org/2000/svg" xmlns:xlink="http://www.w3.org/1999/xlink" viewBox="0 0 56.7 56.7">
  <defs>
    <style>
      .cls-1 {
        fill: #fff;
        fill-rule: evenodd;
      }

      .cls-2 {
        fill: url(#radial-gradient);
      }
    </style>
    <radialGradient id="radial-gradient" cx="18.4" cy="16.9" fx="18.4" fy="16.9" r="37.9" gradientUnits="userSpaceOnUse">
      <stop offset=".3" stop-color="#6789c0"/>
      <stop offset=".9" stop-color="#012e77"/>
    </radialGradient>
  </defs>
  <circle class="cls-2" cx="28.4" cy="28.4" r="28.4"/>
  <path class="cls-1" d="M37.4,8.6c-3.6,2-10.2,5.8-11.8,6.8-1.7,1-2.5,2.2-2.7,3.9,0,.4,0,2,0,3.5,0,2.8,0,2.9-.2,3.2,0,.2-.3.4-.4.6-.3.3-.9.5-1.3.4-.2,0-1.1-.5-2.8-1.5-2.8-1.6-3.4-1.9-3.9-2-.9-.2-1.9-.2-2.7.1-.4.1-2.5,1.3-5.5,3.1-1.5.9-1.6,1-1.6,1.6,0,.7-.5.4,8.5,5.6,6.4,3.7,8.3,4.8,8.7,4.8.3,0,.8.1,1.3.1,1.3,0,1.5,0,4.8-1.9,2.6-1.5,2.9-1.6,3.3-1.6.4,0,.5,0,.8.2.4.2.7.5.8.9,0,.2.1,1.1.1,3.6,0,3.3,0,3.4.2,3.9.3.8.6,1.4,1.1,1.9.4.4.7.6,3.3,2.1,3.7,2.1,3.9,2.3,4.3,2.2.4,0,.8-.4.8-.8,0-.2,0-3.2,0-9.7v-9.4s-.2-.6-.2-.6c-.3-.8-.6-1.3-1.2-1.9-.6-.6-.7-.7-4.3-2.7-.9-.5-1.7-1-1.8-1.2-.5-.5-.6-1.3-.2-2,.2-.4.2-.4,2.1-1.4,3.3-1.9,3.9-2.3,4.3-2.7.5-.5,1-1.3,1.3-2l.2-.6v-3.9c0-2.1,0-3.9,0-4.1,0-.3-.6-.6-1-.6-.3,0-.7.2-3.9,2.1ZM32.6,22.7c0,0,.1.4.1,2.6s0,2.7-.3,2.7c0,0-1.1-.6-2.3-1.3-2-1.2-2.2-1.3-2.2-1.4s.2-.3,2.2-1.4c1.2-.7,2.2-1.3,2.3-1.3,0,0,.1,0,.2.1ZM27.7,25.7c.1.1.1,5,0,5.2,0,0-.2,0-.2,0-.2,0-4.3-2.4-4.4-2.5,0,0,0-.2,0-.2.1-.2,4.2-2.5,4.4-2.5,0,0,.2,0,.2,0ZM32.7,28.6c0,0,0,.7,0,2.6s0,2.5-.1,2.6c0,0-.1.1-.2.1s-.7-.3-1.4-.8c-.7-.4-1.7-1-2.2-1.2-.8-.5-1.1-.7-.9-.9.2-.2,4.2-2.5,4.4-2.5,0,0,.2,0,.2,0Z"/>
</svg>