<?xml version="1.0" encoding="UTF-8"?>
<svg id="Layer_3" xmlns="http://www.w3.org/2000/svg" version="1.1" viewBox="0 0 56.7 56.7">
  <!-- Generator: Adobe Illustrator 29.5.1, SVG Export Plug-In . SVG Version: 2.1.0 Build 141)  -->
  <defs>
    <style>
      .st0 {
        fill: #fff;
      }

      .st1 {
        fill: #75e31a;
      }
    </style>
  </defs>
  <path class="st1" d="M39.1,25.3l17.2,2.5-5.9,18.2-15.6-8.2,3,17.2h-19.1l3-17.3-15.4,8.1L.4,27.6l17.4-2.5L5.3,13,20.8,1.8l7.8,15.8,7.7-15.6,15.5,11.2-12.6,12.3v-.2Z"/>
  <path class="st0" d="M34.6,29.1s-.2.7-.2.9.1.2.2.2c.4,0,.7-.7,1-1.1h1.3v.5c-1.2.8-2.4,2.1,0,2v1.1h-1.7c0-.2.3-1,0-1-.2,0-.3,0-.3,0-.1.2-.6.9-.6.9h-1.3v-.5c1.3-.7,2.4-2.2,0-2v-1.1h1.7ZM37.2,31.8h1.2v.9h-1.2v-.9ZM18.5,30.5c0-.2,0-.4.1-.6,0-.2.2-.3.4-.5.2-.1.4-.2.6-.3.2,0,.5-.1.7-.1.3,0,.5,0,.7.1.2,0,.4.2.6.3.2.1.3.3.3.5,0,.2.1.4.1.7v2.1h-1.1v-.9c0,.1,0,.3-.2.4,0,.1-.2.2-.3.3-.1,0-.2.2-.4.2-.2,0-.3,0-.5,0-.2,0-.3,0-.5,0-.1,0-.3-.1-.4-.2-.1,0-.2-.2-.2-.3,0-.1,0-.3,0-.4,0-.2,0-.3.1-.5,0-.1.2-.3.3-.3.1-.1.3-.2.5-.2.2,0,.4,0,.6,0h1c0-.2,0-.3,0-.4,0,0,0-.2-.1-.2,0,0-.1-.1-.2-.1,0,0-.2,0-.3,0,0,0-.2,0-.3,0,0,0-.1,0-.2.1,0,0,0,.1-.1.2,0,0,0,.2,0,.2h-1.1ZM20,31.3c-.2,0-.3,0-.4,0,0,0-.1.2-.1.3,0,.1,0,.2.1.3,0,0,.2,0,.4,0,.1,0,.2,0,.3,0,0,0,.2,0,.3-.1,0,0,.1-.1.2-.2,0,0,0-.2,0-.2h0c0-.1-.8-.1-.8-.1ZM23.9,29c.2,0,.5,0,.7,0,.2,0,.4.1.5.3.1.1.3.2.3.4,0,.2.1.4.1.5h-1.1c0-.2,0-.3-.1-.4,0,0-.2-.1-.4-.1,0,0-.2,0-.2,0,0,0-.1,0-.2,0,0,0,0,0-.1.1,0,0,0,0,0,.1,0,0,0,.1,0,.2,0,0,0,0,.1.1,0,0,.1,0,.2,0,0,0,.2,0,.3,0h.2c0,0,.2,0,.3,0,.1,0,.2,0,.3,0,.1,0,.2,0,.3.1,0,0,.2.1.3.2,0,0,.1.2.2.3,0,.1,0,.2,0,.4,0,.3-.2.7-.5.8-.2.1-.4.2-.5.2-.2,0-.5,0-.7,0-.3,0-.5,0-.8,0-.2,0-.4-.1-.6-.3-.1-.1-.3-.2-.3-.4,0-.2-.1-.4-.1-.6h1.1c0,.2,0,.3.2.4.1,0,.3.1.5.1,0,0,.2,0,.3,0,0,0,.1,0,.2,0,0,0,0,0,.1-.1,0,0,0,0,0-.1,0,0,0-.1,0-.2,0,0,0,0-.1-.1,0,0-.2,0-.2,0,0,0-.2,0-.3,0h-.2c0,0-.2,0-.3,0-.1,0-.2,0-.3,0-.1,0-.2,0-.3-.1,0,0-.2-.1-.3-.2,0,0-.1-.2-.2-.3,0-.1,0-.2,0-.4,0-.2,0-.3.1-.5,0-.1.2-.3.3-.4.2-.1.3-.2.5-.2.2,0,.5,0,.7,0ZM28.4,32.7c-.1,0-.3,0-.4,0-.1,0-.3,0-.4,0-.4,0-.7-.1-.9-.4-.2-.2-.3-.6-.3-1.1v-1.4h-.4v-.9h.4v-.8h1.1v.8h1v.9h-1v1.4c0,.2,0,.3.1.4,0,0,.2.1.3.1,0,0,.1,0,.2,0,0,0,.2,0,.3,0v.8ZM29.9,32.7h-1.1v-3.6h1.1v1.3c0-.2,0-.4.1-.5,0-.1.1-.3.2-.4,0-.1.2-.2.3-.3.1,0,.3,0,.4,0h.2v1.1h-.5c-.1,0-.3,0-.4,0-.1,0-.2,0-.3.2,0,0-.1.2-.1.3,0,.1,0,.3,0,.4v1.6ZM32.6,28.8h-1.1v-.9h1.1v.9ZM32.6,32.7h-1.1v-3.6h1.1v3.6Z"/>
</svg>