<?xml version="1.0" encoding="UTF-8"?>
<svg id="Layer_2" xmlns="http://www.w3.org/2000/svg" version="1.1" viewBox="0 0 56.7 56.7">
  <!-- Generator: Adobe Illustrator 29.5.1, SVG Export Plug-In . SVG Version: 2.1.0 Build 141)  -->
  <defs>
    <style>
      .st0 {
        fill: #04ece0;
      }

      .st1 {
        fill: #dc1b5a;
        fill-rule: evenodd;
      }
    </style>
  </defs>
  <path class="st1" d="M28.2,8.1s.9,1.4,2,3.2,6.7,10.7,12.5,19.8c5.8,9.1,10.5,16.6,10.5,16.6,0,0-2.2-1.3-4.9-2.9l-4.8-3.1-7.3-11.4c-4-6.4-7.4-11.6-7.6-11.9-.2-.4-.7.2-7.9,11.4l-7.5,11.9-4.8,3.1c-2.6,1.6-4.8,2.9-4.9,2.9,0,0,1.6-2.7,3.5-5.9C17.7,24.5,26.4,10.7,27.1,9.5c.5-.7.8-1.4.8-1.4,0,0,.2,0,.2,0ZM3.8,9.2c.2.5,2.9,4.6,5.9,9.3l5.3,8.5,1.2-1.9c2-3.1,3.8-6.2,3.8-6.4S4.7,9.2,3.5,8.5c-.2,0,0,.2.2.6h.1ZM45.1,13.3c-4.5,2.7-8.1,5.2-8.2,5.3-.2.2.2,1.1,2.2,4.2,1.3,2.1,2.5,3.9,2.5,4,0,0,2.5-3.8,5.4-8.4,5.8-9.3,6.4-10,6.2-10s-3.6,2.2-8.1,4.9h0Z"/>
  <path class="st0" d="M31.5,28.1l-3.8,5.5-3.4-5.6,3.5-5.5,3.5,5.6h.1ZM19.1,34.1l8.8,13.9,8.8-13.9-3.1-4.9-5.5,8.9-6-8.9s-3.1,4.9-3.1,4.9Z"/>
</svg>