<?xml version="1.0" encoding="UTF-8"?>
<svg id="Layer_1" xmlns="http://www.w3.org/2000/svg" version="1.1" xmlns:xlink="http://www.w3.org/1999/xlink" viewBox="0 0 56.7 56.7">
  <!-- Generator: Adobe Illustrator 29.3.1, SVG Export Plug-In . SVG Version: 2.1.0 Build 151)  -->
  <defs>
    <style>
      .st0 {
        fill: #66a243;
      }

      .st0, .st1, .st2, .st3 {
        fill-rule: evenodd;
      }

      .st4 {
        fill: #eb702a;
      }

      .st1 {
        fill: #537a38;
      }

      .st2 {
        fill: #395132;
      }

      .st3 {
        fill: url(#linear-gradient);
      }
    </style>
    <linearGradient id="linear-gradient" x1="41.9" y1="35.8" x2="41.9" y2="32" gradientTransform="translate(0 57.8) scale(1 -1)" gradientUnits="userSpaceOnUse">
      <stop offset="0" stop-color="#66a243"/>
      <stop offset="1" stop-color="#537a38"/>
    </linearGradient>
  </defs>
  <g id="bbbpump">
    <g>
      <path class="st2" d="M37.7,16.9s-.6-.2,2.3-4.2,7.4-3.9,7.4-3.9c0,0,2.9-.5,2,1.7s-4.2,6.6-5.3,7.1l.5-1.1-1.7.7s5.2-6.4,5.1-6.6c0,0-.7-1.8-4.8.5,0,0-1.7,1.3-2.9,2.9s-2.3,3-2.6,2.8h0Z"/>
      <path class="st0" d="M56,22.4c-.2-1.1-3.2-2.3-5.2-2.7-5.4-1.2-11.5.8-12,.9h0c8.7-6.6,9.6-9.1,9.2-9.9-.3-.6-3.2-1.6-8,4.7-5.2,6.8-4.8,5.2-4.8,5.2,6.8-9.3,2.3-19.8.5-19.3-.8.2-.9,1.7-1,3.1-.3,2.6,0,5.8,0,5.8-1.7-2.4-2.2-.5-1.8,1.3.3,1.7.9,6.9.9,6.9,1.5-1.6,2.6-8.2,2.6-8.2,1.2,3.6-3.1,9.9-3.1,9.9.8-7.9-5.1-10.5-6.1-9.2-1.1,1.3,2.3,3.4,2.3,3.4,0,0-1.9,0,.2,1.8,1.8,1.6,1,7.2,1,7.2l3.4,3.3c4.3-.6,8,1.2,9.8,3.9,1.4,2.2,2.6,1.1,2.6,1.1.3-.3.6-2.1-1.6-4.5-3-3.2-9.1-2.3-9.1-2.3,4.1-2.5,11,2.3,12.3,1,.9-.9-1.4-3-1.4-3,0,0,3.2.4,6.4.6,3.2.3,3.1-.9,3.1-.9h-.2ZM42.4,21.9s-2,.3-2.9.7-2.8,1-2.8,1c0,0-1.1.5-1.1,0s2.2-1.3,3.2-1.6c0,0,4.5-1.3,5.6-.7,0,0,.6.4-2,.5h0Z"/>
      <path class="st3" d="M35.6,24.7c4.1-2.5,11,2.3,12.3,1,.9-.9-1.4-3-1.4-3,0,0-4.7-2.3-10.9,2Z"/>
      <path class="st1" d="M36.8,10.3s-.9.6-1.1,2.3-1.1,4.3-2,5.7c0,0-.6-5.2-.9-6.9-.3-1.7,0-3.6,1.8-1.3,0,0-.4-4.3.3-6.8s1.6,2.7,1.7,4.3l.2,2.6h0Z"/>
      <path class="st4" d="M30.4,23.1c-3-2.5-7.1-1-9.5,1.5-2.9,3.1-6.1,8-8.6,11.6-3.4,4.9-8,11.2-10.7,16.5-.3.5-.8,1.7-.9,2.2v.4c2.1-.3,3.9-1.7,5.7-2.6.3-.4-1.3-1.3-1-1.6.9-.2,1.6.9,2.3.8.4,0,3.3-1.8,3.5-2.2.3-.5-.4-1.3-.6-1.7l-2.3-2.2c.8,0,1.8.5,2.5.8.5.3,2.4,1.8,2.5,1.7.2,0,2.2-1.3,2.6-1.5.7-.4,2.4-1.3,2.4-2.1,0-1.3-1.7-2.9-2.6-3.7l.2-.3c.5,0,2.5,1.2,2.9,1.6.4.3,1.3,1.5,1.7,1.5.5-.4,3.9-2.2,4-2.6.2-.5,0-1.7-.3-2.3s-1.3-1.4-1.5-2.2c.5-.5,3.5,2.3,3.7,3h.7c.7-.8,4.3-2.7,4.5-3.3.5-1.3-.4-3-1.3-4-.6-.7-1.5-1.1-1.8-1.9.4-.4,2.3,1.1,2.7,1.4.7.7,1.5,1.7,1.9,2.6.4.3,1.5-1.4,1.7-1.8.9-2.2.6-4.6-.6-6.6M27.2,30.2l-5-3.3c1.1-.2,2.6.6,3.5,1.3.2.2,1.8,1.7,1.5,2Z"/>
    </g>
  </g>
</svg>