<?xml version="1.0" encoding="UTF-8"?>
<svg id="Bigwater" xmlns="http://www.w3.org/2000/svg" version="1.1" viewBox="0 0 56.7 56.7">
  <!-- Generator: Adobe Illustrator 29.6.0, SVG Export Plug-In . SVG Version: 2.1.1 Build 207)  -->
  <defs>
    <style>
      .st0 {
        fill: #91c640;
      }

      .st1 {
        fill: #006697;
      }
    </style>
  </defs>
  <g id="Layer_2">
    <g>
      <path class="st1" d="M28.4,1.3C13.4,1.3,1.3,13.4,1.3,28.4s12.1,27,27,27,27-12.1,27-27S43.3,1.3,28.4,1.3ZM28.4,53.2c-13.7,0-24.8-11.1-24.8-24.8S14.7,3.5,28.4,3.5s24.8,11.1,24.8,24.8-11.1,24.8-24.8,24.8Z"/>
      <path class="st1" d="M14,45.4c-.2,0-.4,0-.6,0-.7-.6-1.3-1.2-1.9-1.9,3.4.4,9.6.1,18.8-3.4,8.1-3.1,14.4-3.3,18.8-2.6-.3.6-.5,1.1-.8,1.7-4.1-.5-10-.2-17.4,2.6-7.5,2.9-13.1,3.6-17,3.6ZM30.6,49.6c-1.3.5-2.6.9-3.8,1.3.5,0,1.1,0,1.6,0,1.9,0,3.7-.2,5.5-.7.6-.2,1.2-.4,1.7-.5,2.1-.7,4-1.7,5.8-2.9-3.1.4-6.7,1.2-10.8,2.7ZM43.1,45.6c.7-.6,1.3-1.2,1.9-1.8-3.9,0-8.8.7-14.5,2.9-4,1.5-7.4,2.4-10.2,2.9,1.2.4,2.4.8,3.6,1,2.2-.6,4.6-1.3,7.3-2.3,4.6-1.7,8.5-2.5,11.9-2.7ZM30.9,45c6.2-2.4,11.4-2.9,15.3-2.8.4-.6.8-1.1,1.2-1.7-4.3-.3-10.1.1-17.2,2.8-6.5,2.5-11.5,3.3-15,3.5.8.6,1.7,1.1,2.5,1.6,3.5-.4,7.8-1.4,13.1-3.4ZM30.3,37c-12.6,4.8-19.6,3.5-21.5,2.9.4.7.9,1.4,1.4,2.1,1,.2,2.2.3,3.8.3,3.8,0,9.4-.8,17-3.6,8.2-3.1,14.6-3.1,18.7-2.4.2-.6.4-1.1.6-1.7-4.4-.8-11.1-.9-19.9,2.5Z"/>
      <path class="st0" d="M30.3,35.4c5-1.9,9.5-2.7,13.3-2.9.4,0,.9,0,1.4,0,2.2,0,4.1.2,5.6.4l.3-1.6c-3.5-5.3-11.9-17.4-13.3-19.1-.4-.5-1.5-1-2.1-1-.6,0-1.7.2-2.5,1.3-4.7,6.5-8.3,11.9-10.5,15.1-1.6-2.1-2.5-3.7-4.2-5.8-.4-.5-1.1-.9-1.6-.9-.5,0-.9,0-1.4.7-2.5,3.3-7.1,11.2-8.6,13.3,0,.1.3.9.4,1.2,0,.1.3.9.4,1.1,0,.2.4.9.6,1.2,2.4.6,10.3,1.7,22.2-2.9ZM33.8,13.8s.7-1,1.8-.7c1,.3,1.2.7,2.1,1.8.5.6,4.2,6.3,4.2,6.3l-5.6-4.1s-.9-1-2.4-.4c-1.5.6-3.5,1.8-3.5,1.8l3.3-4.8ZM15.9,22.7s.4-.7,1-.3c.6.3.8.7.8.7l2.6,3.7-3-2.4s-.4-.5-1.1-.1-2.1,1-2.1,1l1.8-2.6Z"/>
    </g>
  </g>
</svg>