<?xml version="1.0" encoding="utf-8"?>
<!-- Generator: Adobe Illustrator 25.0.1, SVG Export Plug-In . SVG Version: 6.00 Build 0)  -->
<svg version="1.1" id="Layer_1" xmlns="http://www.w3.org/2000/svg" xmlns:xlink="http://www.w3.org/1999/xlink" x="0px" y="0px"
	 viewBox="0 0 56.7 56.7" style="enable-background:new 0 0 56.7 56.7;" xml:space="preserve">
<style type="text/css">
	.st0{fill:url(#_489313608_1_);}
	.st1{fill-rule:evenodd;clip-rule:evenodd;fill:url(#_489313392_1_);}
	.st2{fill-rule:evenodd;clip-rule:evenodd;fill:#2C2A29;}
</style>
<g id="Layer_10">
	<g id="Layer_x0020_1">
		<g id="_489309696">
			<g>
				
					<linearGradient id="_489313608_1_" gradientUnits="userSpaceOnUse" x1="-344.5716" y1="286.8242" x2="-335.5196" y2="286.8242" gradientTransform="matrix(2.8346 0 0 2.8346 989.3953 -783.9753)">
					<stop  offset="0" style="stop-color:#F37764"/>
					<stop  offset="0.502" style="stop-color:#FCB34B"/>
					<stop  offset="1" style="stop-color:#F37764"/>
				</linearGradient>
				<path id="_489313608" class="st0" d="M27.9,16.9l2.6,2.9l2.2-2.5l0.1-0.1l0.1,0.1l0.2,0.2l0.1,0.1L33,17.7L30.9,20l4.1,3.2l0,0
					h0.1h0.1v0.1l0,0l0.1-0.1l0.1,0.1l3.2,1.9l2.9-2.3l0.1-0.1l0.1,0.1l0.2,0.2l0.1,0.1l-0.1,0.1l-2.8,2.2l2.7,3.9l0.1,0.1l-0.1,0.1
					l-0.2,0.2l-0.1,0.1l-0.1-0.1l-2.7-3.9l-3.4-2v4.9v0.1h-0.1H35l0,0L34.8,29l-0.1,0.1V29l-4.6-4.1L30,24.8l0.1-0.1l0.2-0.2
					l0.1-0.1l0.1,0.1l4.4,3.9v-4.9l0,0L31.4,21l-1.8,3.8v0.1h-0.1l-0.3-0.1h-0.1v-0.1l1.8-3.8v-0.1l0,0l0,0l-0.1,0.1L30.7,21
					l-0.1-0.1l-0.2-0.2l0,0l-0.1-0.1l-0.2-0.2L30,20.3l0.1-0.1l-2.6-3c-0.8,0.8-0.5,0.2-0.6,0.2l-2.8,6.2v0.1H24l-0.3-0.1h-0.1v-0.1
					l2.8-6.1C26.4,16.3,27.6,16.1,27.9,16.9L27.9,16.9z M25.3,22.2l3.9,1.5h0.1v0.1L29.1,24v0.1H29l-3.9-1.5H25v-0.1l0.1-0.3H25.3
					L25.3,22.2z M20.7,21.6l3.4,2.4l0.1,0.1l-0.1,0.1l-0.2,0.2l-0.1,0.1l-0.1-0.1L20.4,22h-0.1l0.1-0.1l0.2-0.2L20.7,21.6
					C20.6,21.5,20.7,21.6,20.7,21.6z M9.5,24.4l1.7,2.3l3.2,1.8l-0.1-4.8v-0.1h0.1h0.3l0,0l-1.4-1.2l-0.1-0.1l0.1-0.1l0.2-0.2
					l0.1-0.1l0.1,0.1l4.6,4.1l0.1,0.1l-0.1,0.1l-0.2,0.2l-0.1,0l-0.1-0.1l-3.1-2.8l0,0l0.1,5.3V29h-0.1h-0.2l0,0h-0.1h-0.1l0,0
					L11,27.2l-0.6,0.5l-0.1,0.1l-0.1-0.1L10,27.5v-0.1l0.1-0.1l0.6-0.5l-1.5-2.1l-0.2,0l0.1-0.1l0.2-0.2H9.5L9.5,24.4L9.5,24.4z
					 M15.2,28.9l3,2.4l1.6-3.5v-0.1h0.1l0.3,0.1h0.1v0.1l-1.8,3.8v0.1h-0.1h-0.1v0.1L18.2,32l-0.1-0.1l-3.3-2.6l-0.1-0.1l0.1-0.1
					l0.2-0.2L15.2,28.9L15.2,28.9L15.2,28.9z M20.6,27.9l3.8,1.7h0.1v0.1L24.3,30v0.1h-0.1l-3.8-1.7h-0.1v-0.1l0.1-0.3L20.6,27.9
					L20.6,27.9L20.6,27.9z M15.4,22.4l4-1.2h0.1v0.1l0.1,0.3v0.1h-0.1l-4,1.2h-0.1v-0.1l-0.1-0.3v-0.1H15.4L15.4,22.4z M35.2,29.2
					l3.2,2.7l0.1,0.1l-0.1,0.1l-0.2,0.2l0,0l0,0l0.1,0.1l-0.1,0.1l-2.6,2.3l2.6,3.7l0.1,0.1l-0.1,0.1L38,38.9L37.9,39l-0.1-0.1
					L35,34.8l-3.1-2V38v0.1h-0.1h-0.3l0,0l2.3,2.1l0.1,0.1l-0.1,0.1l-0.2,0.2l-0.1,0.1l-0.1-0.1l-2.2-2l0,0h-0.1l-4.6,1.8l0.8,0.8
					l0.1,0.1l-0.1,0.1l-0.2,0.2L27,41.7l0-0.1l-4.4-3.9l-2,2.3l-0.1,0.1V40l-0.2-0.2l-0.1-0.1l0.1-0.1l1.9-2.2l-4.3-1.8h-0.1v-0.1
					l0.1-0.3v-0.1H18l4.1,1.7l0.2-0.2l0.1-0.1l0.1,0.1l0.2,0.2l1.7-1.9l0.1-0.1l0.1,0.1l0.2,0.2l0.1,0.1l-0.1,0.1l-1.8,2l3.1,2.8
					l4.7-1.9L26.2,34l-0.1-0.1l0.1-0.1l0.2-0.2l0.1-0.1l0.1,0.1l4.8,4.4v-0.1v-5.3v-0.1h0.1L29,31l-0.1-0.1v-0.1l0.1-0.1L28,30
					l-1.6,3.4l0,0v0.1l-0.1,0.3v0.1h-0.1l-4.9-2.1h-0.1v-0.1l0.1-0.3v-0.1h0.1l4.5,2l1.6-3.5l-1-0.7l-0.1,0.2l-0.1,0.1l-0.1-0.1
					l-4.6-2.7l-0.1-0.1l0.1-0.1l0.1-0.3l0.1-0.1l0.2,0l4,2.3l0.2-0.2l0.1-0.1l0.1,0.1l3.5,2.5l0.1,0.1l-0.1,0.1l-0.1,0.1l5.5,3.5
					l2.6-2.3l-3-2.5l-0.1-0.1l0.1-0.1L35.2,29.2L35.2,29.2L35.2,29.2L35.2,29.2z M30.1,30.5l4-1.1h0.1v0.1l0.1,0.3v0.1h-0.1l-4,1.1
					h-0.1v-0.1L30,30.6v-0.1H30.1L30.1,30.5z M26,27.7l2.8-3.1l0.1-0.1l0.1,0.1l0.2,0.2l0.1,0.1L29.2,25l-2.8,3l-0.1,0.1L26.2,28
					L26,27.7L26,27.7L26,27.7L26,27.7z"/>
				
					<linearGradient id="_489313392_1_" gradientUnits="userSpaceOnUse" x1="-343.2479" y1="286.5926" x2="-335.2251" y2="286.5926" gradientTransform="matrix(2.8346 0 0 2.8346 989.3953 -783.9753)">
					<stop  offset="0" style="stop-color:#F37764"/>
					<stop  offset="0.502" style="stop-color:#FCB34B"/>
					<stop  offset="1" style="stop-color:#F37764"/>
				</linearGradient>
				<path id="_489313392" class="st1" d="M20.1,26.5c0.6,0,1,0.5,1,1c0,0.6-0.5,1-1,1c-0.6,0-1-0.5-1-1
					C19.1,26.9,19.6,26.5,20.1,26.5z M14.5,21.7c0.7,0,1.3,0.6,1.3,1.3c0,0.7-0.6,1.3-1.3,1.3s-1.3-0.6-1.3-1.3
					C13.2,22.3,13.8,21.7,14.5,21.7z M35,22.4c0.5,0,0.9,0.4,0.9,0.9s-0.4,0.9-0.9,0.9s-0.9-0.4-0.9-0.9C34,22.9,34.5,22.4,35,22.4z
					 M25.8,26.8c0.8,0,1.4,0.6,1.4,1.4s-0.6,1.4-1.4,1.4c-0.1,0-0.2,0-0.2,0c0.2,0.2,0.3,0.4,0.3,0.7c0,0.5-0.4,0.9-0.9,0.9
					s-0.9-0.4-0.9-0.9s0.4-0.9,0.9-0.9c0,0,0,0,0.1,0c-0.3-0.2-0.6-0.6-0.6-1.1C24.4,27.4,25,26.8,25.8,26.8z M14.6,27.8
					c0.5,0,0.9,0.4,0.9,0.9s-0.4,0.9-0.9,0.9s-0.9-0.4-0.9-0.9C13.7,28.2,14.1,27.8,14.6,27.8z M23.6,22.8c0.8,0,1.4,0.6,1.4,1.4
					s-0.6,1.4-1.4,1.4s-1.4-0.6-1.4-1.4S22.9,22.8,23.6,22.8z M35,28c0.7,0,1.3,0.6,1.3,1.3s-0.6,1.3-1.3,1.3s-1.3-0.6-1.3-1.3
					S34.2,28,35,28z M22.4,36c0.8,0,1.4,0.6,1.4,1.4s-0.6,1.4-1.4,1.4S21,38.1,21,37.4S21.6,36,22.4,36z M31.6,37.2
					c0.7,0,1.3,0.6,1.3,1.3s-0.6,1.3-1.3,1.3s-1.3-0.6-1.3-1.3S30.8,37.2,31.6,37.2L31.6,37.2z M29.4,23.6c0.5,0,0.9,0.4,0.9,0.9
					s-0.4,0.9-0.9,0.9s-0.9-0.4-0.9-0.9S28.9,23.6,29.4,23.6z M27.2,16c0.5,0,0.9,0.4,0.9,0.9s-0.4,0.9-0.9,0.9s-0.9-0.4-0.9-0.9
					C26.3,16.4,26.7,16,27.2,16z M25.8,38.8c0.6,0,1,0.5,1,1s-0.5,1-1,1s-1-0.5-1-1C24.7,39.3,25.2,38.8,25.8,38.8z M41.6,22.2
					c0.4,0,0.8,0.4,0.8,0.8s-0.4,0.8-0.8,0.8c-0.4,0-0.8-0.4-0.8-0.8C40.8,22.5,41.1,22.2,41.6,22.2z M21.1,30.4
					c0.5,0,0.9,0.4,0.9,0.9s-0.4,0.9-0.9,0.9s-0.9-0.4-0.9-0.9C20.2,30.8,20.6,30.4,21.1,30.4z M38,31.5c0.4,0,0.8,0.4,0.8,0.8
					s-0.4,0.8-0.8,0.8c-0.4,0-0.8-0.4-0.8-0.8C37.2,31.8,37.6,31.5,38,31.5z M29.5,29.6c0.6,0,1,0.5,1,1s-0.5,1-1,1s-1-0.5-1-1
					S28.9,29.6,29.5,29.6z M30.7,18.9c0.8,0,1.4,0.6,1.4,1.4s-0.6,1.4-1.4,1.4s-1.4-0.6-1.4-1.4C29.4,19.5,30,18.9,30.7,18.9z
					 M17.9,34.6c0.4,0,0.8,0.4,0.8,0.8c0,0.4-0.4,0.8-0.8,0.8s-0.8-0.4-0.8-0.8S17.5,34.6,17.9,34.6z M25.8,32.8c0.6,0,1,0.5,1,1
					s-0.5,1-1,1s-1-0.5-1-1S25.3,32.8,25.8,32.8z M24.6,20.7c0.6,0,1,0.5,1,1c0,0.6-0.5,1-1,1c-0.6,0-1-0.5-1-1
					C23.6,21.1,24,20.7,24.6,20.7z M31.6,31.7c0.4,0,0.8,0.4,0.8,0.8c0,0.4-0.4,0.8-0.8,0.8c-0.4,0-0.8-0.4-0.8-0.8
					C30.9,32,31.2,31.7,31.6,31.7z M27.9,29c0.3,0,0.5,0.2,0.5,0.5S28.2,30,27.9,30s-0.5-0.2-0.5-0.5C27.4,29.3,27.6,29,27.9,29z
					 M20.1,20.6c0.6,0,1,0.5,1,1s-0.5,1-1,1c-0.6,0-1-0.5-1-1S19.6,20.6,20.1,20.6z"/>
			</g>
			<g>
				<path id="_489313416" class="st2" d="M7.6,25L27,14.8c0.7-0.4,2.1-0.3,3,0.2l18.9,9.9c0.9,0.5,1,1.2,0.3,1.6L29.7,36.7
					c-0.7,0.4-2.1,0.3-3-0.2L7.9,26.6C7,26.1,6.8,25.4,7.6,25z M9.2,25.3l18.3-9.7c0.5-0.2,1.3-0.2,1.9,0.1l18,9.5
					c0.6,0.3,0.6,0.7,0.2,1l-18.3,9.7c-0.5,0.2-1.3,0.2-1.9-0.1l-18-9.5C8.8,26,8.7,25.6,9.2,25.3z"/>
				<path id="_489309144" class="st2" d="M16.1,35.9c0.5,4.4,8.1,6.2,11.8,6.2s11.3-1.8,11.8-6.2v-5l-1.1,0.4v4.6
					c-0.3,2.3-3.4,4-6.6,4.7c-3.3,0.7-5,0.7-8.3,0c-3.1-0.7-6.2-2.4-6.6-4.7v-4.6L16,30.9L16.1,35.9L16.1,35.9z"/>
				<path id="_489309768" class="st2" d="M12.5,27.1l14.2-2.7c0.3-0.5,1-0.9,1.9-0.9c1.1,0,2,0.6,2,1.3c0,0.7-0.9,1.3-2,1.3
					c-0.7,0-1.4-0.3-1.7-0.7l0,0l-14.4,2.8V27.1v5.5l0,0l2.1,7.7c-2.5,2.6-5.1,0.6-5.3,0.1l2-7.8l0,0v-5.3L12.5,27.1L12.5,27.1
					L12.5,27.1z M26.6,24.4L26.6,24.4L26.6,24.4z M26.6,24.5L26.6,24.5L26.6,24.5z M26.6,24.6L26.6,24.6L26.6,24.6z M26.6,24.6
					L26.6,24.6L26.6,24.6z M26.6,24.6L26.6,24.6L26.6,24.6z M26.6,24.7C26.6,24.7,26.5,24.7,26.6,24.7
					C26.5,24.7,26.6,24.7,26.6,24.7z M26.5,24.7L26.5,24.7L26.5,24.7z M26.5,24.7C26.5,24.7,26.5,24.8,26.5,24.7
					C26.5,24.8,26.5,24.7,26.5,24.7z M26.5,24.8L26.5,24.8L26.5,24.8z M26.5,24.8L26.5,24.8L26.5,24.8z M26.5,24.9L26.5,24.9
					L26.5,24.9z M26.5,24.9C26.5,24.9,26.5,25,26.5,24.9C26.5,25,26.5,24.9,26.5,24.9z M26.5,25L26.5,25L26.5,25z M26.5,25L26.5,25
					L26.5,25z M26.5,25C26.5,25,26.6,25.1,26.5,25C26.6,25.1,26.5,25,26.5,25z M26.6,25.1L26.6,25.1L26.6,25.1z M26.6,25.1
					L26.6,25.1L26.6,25.1z M26.6,25.1C26.6,25.1,26.6,25.2,26.6,25.1C26.6,25.2,26.6,25.1,26.6,25.1z M26.6,25.2L26.6,25.2
					L26.6,25.2z M26.6,25.2L26.6,25.2L26.6,25.2z M26.6,25.2C26.6,25.2,26.6,25.3,26.6,25.2C26.6,25.3,26.6,25.2,26.6,25.2z
					 M26.6,25.3L26.6,25.3L26.6,25.3z M26.7,25.3L26.7,25.3L26.7,25.3z M10.6,39.9c0.1,0.2,1.4,1.2,2.6-0.1L12,35.1h-0.3L10.6,39.9
					L10.6,39.9z"/>
			</g>
		</g>
	</g>
</g>
</svg>
