<?xml version="1.0" encoding="UTF-8"?>
<svg id="Layer_1" xmlns="http://www.w3.org/2000/svg" version="1.1" xmlns:xlink="http://www.w3.org/1999/xlink" viewBox="0 0 56.7 56.7">
  <!-- Generator: Adobe Illustrator 29.6.0, SVG Export Plug-In . SVG Version: 2.1.1 Build 207)  -->
  <defs>
    <style>
      .st0 {
        fill: url(#linear-gradient1);
      }

      .st0, .st1 {
        fill-rule: evenodd;
      }

      .st1 {
        fill: #2c2a29;
      }

      .st2 {
        fill: url(#linear-gradient);
      }
    </style>
    <linearGradient id="linear-gradient" x1="-650.6" y1="-85.8" x2="-639.6" y2="-85.8" gradientTransform="translate(1853.5 -214.1) scale(2.8 -2.8)" gradientUnits="userSpaceOnUse">
      <stop offset="0" stop-color="#f37764"/>
      <stop offset=".5" stop-color="#fcb34b"/>
      <stop offset="1" stop-color="#f37764"/>
    </linearGradient>
    <linearGradient id="linear-gradient1" x1="-649" y1="-85.6" x2="-639.2" y2="-85.6" gradientTransform="translate(1853.5 -214.1) scale(2.8 -2.8)" gradientUnits="userSpaceOnUse">
      <stop offset="0" stop-color="#f37764"/>
      <stop offset=".5" stop-color="#fcb34b"/>
      <stop offset="1" stop-color="#f37764"/>
    </linearGradient>
  </defs>
  <g id="Layer_10">
    <g id="Layer_x5F_1">
      <g id="_489309696">
        <g>
          <path id="_489313608" class="st2" d="M27.8,14.4l3.2,3.5,2.7-3.1h.1c0-.1.1,0,.1,0l.2.2h.1c0,.1-.2.2-.2.2l-2.6,2.8,5,3.9h.2c0,.1.1,0,.1,0h.1c0,.1,3.9,2.4,3.9,2.4l3.5-2.8h.1c0-.1.1,0,.1,0l.2.2h.1c0,.1-.1.2-.1.2l-3.4,2.7,3.3,4.8h.1c0,.1-.1.2-.1.2l-.2.2h-.1c0,.1-.1,0-.1,0l-3.3-4.8-4.2-2.4v6h0c0,.1-.1.1-.1.1h-.5c0,.1-.1.2-.1.2h0c0-.1-5.6-5.1-5.6-5.1h-.1c0-.1.1-.2.1-.2l.2-.2h.1c0-.1.1,0,.1,0l5.4,4.8v-6h0l-4.3-3.1-2.2,4.6h0c0,.1-.1.1-.1.1h-.4c0-.1-.1-.1-.1-.1h0c0-.1,2.2-4.8,2.2-4.8h0c0-.1-.1,0-.1,0h-.1c0,.1-.1,0-.1,0l-.2-.2h-.1c0-.1-.2-.4-.2-.4h-.1c0-.1.1-.2.1-.2l-3.2-3.7c-1,1-.6.2-.7.2l-3.4,7.6h0c0,.1-.1.1-.1.1h-.4c0-.1-.1-.1-.1-.1h0c0-.1,3.4-7.6,3.4-7.6,0-1.3,1.5-1.6,1.8-.6h0ZM24.6,20.8l4.8,1.8h.1c0,.1-.2.4-.2.4h0c0,.1-.1.1-.1.1l-4.8-1.8h-.1c0-.1.1-.5.1-.5h.2ZM19,20.1l4.2,2.9h.1c0,.1-.1.2-.1.2l-.2.2h-.1c0,.1-.1,0-.1,0l-4-2.9h-.1.1c0-.1.2-.4.2-.4h.1c-.1-.2,0-.1,0-.1ZM5.3,23.5l2.1,2.8,3.9,2.2v-5.9c-.1,0-.1-.1-.1-.1h.5l-1.7-1.5h-.1c0-.1.1-.2.1-.2l.2-.2h.1c0-.1.1,0,.1,0l5.6,5h.1c0,.1-.1.2-.1.2l-.2.2h-.2c0-.1-3.8-3.5-3.8-3.5h0v6.5c.1,0,.1.1.1.1h-.6l-4.2-2.2-.7.6h-.1c0,.1-.1,0-.1,0l-.2-.2h0c0-.1.1-.2.1-.2l.7-.6-1.8-2.6h-.2.1c0-.1.2-.4.2-.4h.2ZM12.3,29l3.7,2.9,2-4.3h0c0-.1.1-.1.1-.1h.4c0,.1.1.1.1.1h0c0,.1-2.2,4.8-2.2,4.8h0c0,.1-.1.1-.1.1h-.1c0,.1-.1.2-.1.2h-.1c0-.1-4-3.3-4-3.3h-.1c0-.1.1-.2.1-.2l.2-.2h.2ZM18.9,27.8l4.6,2.1h.1c0,.1-.2.5-.2.5h0c0,.1-.1.1-.1.1l-4.6-2.1h-.1c0-.1.1-.5.1-.5h.2ZM12.5,21.1l4.9-1.5h.1c0,.1.1.5.1.5h0c0,.1-.1.1-.1.1l-4.9,1.5h-.1c0-.1-.1-.5-.1-.5h0c0-.1.1-.1.1-.1h0ZM36.7,29.4l3.9,3.3h.1c0,.1-.1.2-.1.2l-.2.2h.1c0,.1-.1.2-.1.2l-3.2,2.8,3.2,4.5h.1c0,.1-.1.2-.1.2l-.2.2h-.1c0,.1-.1,0-.1,0l-3.4-5-3.8-2.4v6.4h0c0,.1-.1.1-.1.1h-.4l2.8,2.6h.1c0,.1-.1.2-.1.2l-.2.2h-.1c0,.1-.1,0-.1,0l-2.7-2.4h-.1l-5.6,2.2,1,1h.1c0,.1-.1.2-.1.2l-.2.2h-.1c0,.1,0,0,0,0l-5.4-4.8-2.4,2.8h-.1c0,.1,0,0,0,0l-.2-.2h-.1c0-.1.1-.2.1-.2l2.3-2.7-5.3-2.2h-.1c0-.1.1-.5.1-.5h0c0-.1.1-.1.1-.1l5,2.1.2-.2h.1c0-.1.1,0,.1,0l.2.2,2.1-2.3h.1c0-.1.1,0,.1,0l.2.2h.1c0,.1-.1.2-.1.2l-2.2,2.4,3.8,3.4,5.7-2.3-5.6-5.1h-.1c0-.1.1-.2.1-.2l.2-.2h.1c0-.1.1,0,.1,0l5.9,5.4h0v-6.6h0c0-.1.1-.1.1-.1l-3.1-1.8h-.1v-.2h.1c0-.1-1.2-1-1.2-1l-2,4.2h0c0,.1-.1.5-.1.5h0c0,.1-.1.1-.1.1l-6-2.6h-.1c0-.1.1-.5.1-.5h0c0-.1.1-.1.1-.1l5.5,2.4,2-4.3-1.2-.9v.2c-.1,0-.2.1-.2.1h-.1c0-.1-5.6-3.4-5.6-3.4h-.1c0-.1.1-.2.1-.2v-.4c.1,0,.2-.1.2-.1h.2l4.9,2.8.2-.2h.1c0-.1.1,0,.1,0l4.3,3.1h.1c0,.1-.1.2-.1.2h-.1c0,.1,6.7,4.4,6.7,4.4l3.2-2.8-3.7-3.1h-.1c0-.1.1-.2.1-.2l.4-.2h0ZM30.5,31l4.9-1.3h.1c0,.1.1.5.1.5h0c0,.1-.1.1-.1.1l-4.9,1.3h-.1c0-.1-.1-.5-.1-.5h0c0-.1.1-.1.1-.1h0ZM25.5,27.6l3.4-3.8h.1c0-.1.1,0,.1,0l.2.2h.1c0,.1-.1.2-.1.2l-3.4,3.7h-.1c0,.1-.1,0-.1,0l-.2-.4h0Z"/>
          <path id="_489313392" class="st0" d="M18.3,26.1c.7,0,1.2.6,1.2,1.2s-.6,1.2-1.2,1.2-1.2-.6-1.2-1.2.6-1.2,1.2-1.2ZM11.4,20.2c.9,0,1.6.7,1.6,1.6s-.7,1.6-1.6,1.6-1.6-.7-1.6-1.6.7-1.6,1.6-1.6ZM36.5,21.1c.6,0,1.1.5,1.1,1.1s-.5,1.1-1.1,1.1-1.1-.5-1.1-1.1c-.1-.5.5-1.1,1.1-1.1ZM25.2,26.5c1,0,1.7.7,1.7,1.7s-.7,1.7-1.7,1.7h-.2c.2.2.4.5.4.9,0,.6-.5,1.1-1.1,1.1s-1.1-.5-1.1-1.1.5-1.1,1.1-1.1h.1c-.4-.2-.7-.7-.7-1.3-.1-1.1.6-1.8,1.6-1.8ZM11.5,27.7c.6,0,1.1.5,1.1,1.1s-.5,1.1-1.1,1.1-1.1-.5-1.1-1.1c0-.6.5-1.1,1.1-1.1ZM22.5,21.6c1,0,1.7.7,1.7,1.7s-.7,1.7-1.7,1.7-1.7-.7-1.7-1.7.9-1.7,1.7-1.7ZM36.5,27.9c.9,0,1.6.7,1.6,1.6s-.7,1.6-1.6,1.6-1.6-.7-1.6-1.6.6-1.6,1.6-1.6ZM21.1,37.7c1,0,1.7.7,1.7,1.7s-.7,1.7-1.7,1.7-1.7-.9-1.7-1.7.7-1.7,1.7-1.7ZM32.3,39.2c.9,0,1.6.7,1.6,1.6s-.7,1.6-1.6,1.6-1.6-.7-1.6-1.6.6-1.6,1.6-1.6h0ZM29.6,22.6c.6,0,1.1.5,1.1,1.1s-.5,1.1-1.1,1.1-1.1-.5-1.1-1.1.5-1.1,1.1-1.1ZM26.9,13.3c.6,0,1.1.5,1.1,1.1s-.5,1.1-1.1,1.1-1.1-.5-1.1-1.1c0-.6.5-1.1,1.1-1.1ZM25.2,41.1c.7,0,1.2.6,1.2,1.2s-.6,1.2-1.2,1.2-1.2-.6-1.2-1.2c-.1-.6.5-1.2,1.2-1.2ZM44.5,20.8c.5,0,1,.5,1,1s-.5,1-1,1-1-.5-1-1,.4-1,1-1ZM19.5,30.9c.6,0,1.1.5,1.1,1.1s-.5,1.1-1.1,1.1-1.1-.5-1.1-1.1.5-1.1,1.1-1.1ZM40.1,32.2c.5,0,1,.5,1,1s-.5,1-1,1-1-.5-1-1,.5-1,1-1ZM29.7,29.9c.7,0,1.2.6,1.2,1.2s-.6,1.2-1.2,1.2-1.2-.6-1.2-1.2.5-1.2,1.2-1.2ZM31.2,16.8c1,0,1.7.7,1.7,1.7s-.7,1.7-1.7,1.7-1.7-.7-1.7-1.7c.1-1,.9-1.7,1.7-1.7ZM15.6,36c.5,0,1,.5,1,1s-.5,1-1,1-1-.5-1-1,.5-1,1-1ZM25.2,33.8c.7,0,1.2.6,1.2,1.2s-.6,1.2-1.2,1.2-1.2-.6-1.2-1.2.6-1.2,1.2-1.2ZM23.8,19c.7,0,1.2.6,1.2,1.2s-.6,1.2-1.2,1.2-1.2-.6-1.2-1.2.5-1.2,1.2-1.2ZM32.3,32.4c.5,0,1,.5,1,1s-.5,1-1,1-1-.5-1-1c.1-.6.5-1,1-1ZM27.8,29.1c.4,0,.6.2.6.6s-.2.6-.6.6-.6-.2-.6-.6.2-.6.6-.6ZM18.3,18.9c.7,0,1.2.6,1.2,1.2s-.6,1.2-1.2,1.2-1.2-.6-1.2-1.2.6-1.2,1.2-1.2Z"/>
        </g>
        <g>
          <path id="_489313416" class="st1" d="M3,24.3l23.7-12.5c.9-.5,2.6-.4,3.7.2l23.1,12.1c1.1.6,1.2,1.5.4,2l-23.8,12.5c-.9.5-2.6.4-3.7-.2L3.4,26.2c-1.1-.6-1.3-1.5-.4-2ZM4.9,24.6l22.4-11.9c.6-.2,1.6-.2,2.3.1l22,11.6c.7.4.7.9.2,1.2l-22.4,11.9c-.6.2-1.6.2-2.3-.1L5.2,25.9c-.7-.4-.9-.9-.2-1.2Z"/>
          <path id="_489309144" class="st1" d="M13.4,37.6c.6,5.4,9.9,7.6,14.4,7.6s13.8-2.2,14.4-7.6v-6.1l-1.3.5v5.6c-.4,2.8-4.2,4.9-8.1,5.7-4,.9-6.1.9-10.1,0-3.8-.9-7.6-2.9-8.1-5.7v-5.6l-1.3-.5v6.1h.1Z"/>
          <path id="_489309768" class="st1" d="M9,26.8l17.3-3.3c.4-.6,1.2-1.1,2.3-1.1s2.4.7,2.4,1.6-1.1,1.6-2.4,1.6-1.7-.4-2.1-.9h0l-17.6,3.4v-1.3,6.7h0l2.6,9.4c-3.1,3.2-6.2.7-6.5.1l2.4-9.5h0v-6.5l1.5-.2h0ZM26.2,23.5h0ZM26.2,23.7h0ZM26.2,23.8h0ZM26.2,23.8h0ZM26.2,23.8h0ZM26.2,23.9s-.1,0,0,0c-.1,0,0,0,0,0ZM26.1,23.9h0ZM26.1,23.9s0,.1,0,0c0,.1,0,0,0,0ZM26.1,24h0ZM26.1,24h0ZM26.1,24.1h0ZM26.1,24.1s0,.1,0,0c0,.1,0,0,0,0ZM26.1,24.3h0ZM26.1,24.3h0ZM26.1,24.3s.1.1,0,0c.1.1,0,0,0,0ZM26.2,24.4h0ZM26.2,24.4h0ZM26.2,24.4s0,.1,0,0c0,.1,0,0,0,0ZM26.2,24.5h0ZM26.2,24.5h0ZM26.2,24.5s0,.1,0,0c0,.1,0,0,0,0ZM26.2,24.6h0ZM26.3,24.6h0ZM6.7,42.5c.1.2,1.7,1.5,3.2-.1l-1.5-5.7h-.4l-1.3,5.9h0Z"/>
        </g>
      </g>
    </g>
  </g>
</svg>