<?xml version="1.0" encoding="UTF-8"?>
<svg id="Layer_1" xmlns="http://www.w3.org/2000/svg" version="1.1" xmlns:xlink="http://www.w3.org/1999/xlink" viewBox="0 0 56.7 56.7">
  <!-- Generator: Adobe Illustrator 29.3.1, SVG Export Plug-In . SVG Version: 2.1.0 Build 151)  -->
  <defs>
    <style>
      .st0 {
        fill: url(#linear-gradient1);
      }

      .st1 {
        fill: none;
      }

      .st2 {
        fill: url(#linear-gradient);
      }

      .st3 {
        clip-path: url(#clippath);
      }
    </style>
    <clipPath id="clippath">
      <rect class="st1" x="1.6" y="1.8" width="53.5" height="53.2"/>
    </clipPath>
    <linearGradient id="linear-gradient" x1="55.1" y1="6830.4" x2="1.6" y2="6830.4" gradientTransform="translate(0 -6802)" gradientUnits="userSpaceOnUse">
      <stop offset="0" stop-color="#015c5f"/>
      <stop offset="1" stop-color="#64ef79"/>
    </linearGradient>
    <linearGradient id="linear-gradient1" x1="47.2" y1="6830.3" x2="32.5" y2="6830.3" gradientTransform="translate(0 -6802)" gradientUnits="userSpaceOnUse">
      <stop offset="0" stop-color="#015c5f"/>
      <stop offset="1" stop-color="#64ef79"/>
    </linearGradient>
  </defs>
  <g id="Caddy">
    <g class="st3">
      <g>
        <path class="st2" d="M55.1,15h-29.7c-.7,0-1,.2-1.3.8-2.3,4-4.6,8-6.8,11.9-.2.3-.2.9,0,1.2,2.3,4.1,4.7,8.1,6.9,12.1.4.6.8.7,1.3.7h29.7c-.2.4-.4.8-.5,1-2.2,3.8-4.4,7.6-6.6,11.4-.4.7-.8.9-1.5.9h-28.6c-.8,0-1.1-.2-1.5-.9-4.9-8.4-9.8-16.7-14.7-25.1-.3-.5-.3-.9,0-1.4C6.6,19.4,11.4,11.2,16.2,2.9c.5-.8.9-1.1,2-1.1h28.4c.6,0,1,0,1.3.7,2.3,4,4.6,8,6.9,12,0,.2.2.3.3.7h0Z"/>
        <path class="st0" d="M39.8,15.2c1.7,2.9,3.3,5.7,4.9,8.5.8,1.3,1.6,2.7,2.4,4.1.2.3.2.9,0,1.1-2.4,4.2-4.7,8.3-7.1,12.3l-.3.2c-1-1.8-2-3.5-3-5.3-1.3-2.4-2.7-4.7-4-7.1-.2-.4-.3-.9,0-1.3,2.2-4,4.5-8,6.7-12,0-.2.2-.3.4-.7h0v.2Z"/>
      </g>
    </g>
  </g>
</svg>