<?xml version="1.0" encoding="UTF-8"?>
<svg id="Skynet" xmlns="http://www.w3.org/2000/svg" version="1.1" viewBox="0 0 56.7 56.7">
  <!-- Generator: Adobe Illustrator 29.6.1, SVG Export Plug-In . SVG Version: 2.1.1 Build 9)  -->
  <defs>
    <style>
      .st0 {
        fill: #7e8086;
      }

      .st1 {
        fill: none;
      }

      .st2 {
        fill-rule: evenodd;
        stroke: #fcfdfd;
        stroke-linejoin: round;
        stroke-width: .5px;
      }

      .st2, .st3 {
        fill: #fcfdfd;
      }

      .st4 {
        fill: #353535;
      }
    </style>
  </defs>
  <g id="Skynet1" data-name="Skynet">
    <path class="st4" d="M48.7,56.7H8c-4.4,0-8-3.6-8-8V8C0,3.6,3.6,0,8,0h40.7c4.4,0,8,3.6,8,8v40.7c0,4.4-3.6,8-8,8Z"/>
    <g>
      <rect class="st1" x="5" y="2.1" width="35" height="35"/>
      <path class="st3" d="M8.1,17v22.8l-3.1,1.7V15.2l3.1,1.7h0Z"/>
      <path class="st3" d="M51.7,15.2l-3.1,1.7L28.3,5.6v-3.4l23.3,13.1h.1Z"/>
      <path class="st3" d="M51.7,41.5l-23.3,13.1v-3.4l20.2-11.4s3.1,1.7,3.1,1.7Z"/>
      <path class="st0" d="M28.3,51.1v3.4l-23.3-13.1,3.1-1.7s20.2,11.4,20.2,11.4Z"/>
      <path class="st0" d="M51.7,15.2v26.2l-3.1-1.7v-22.8s3.1-1.7,3.1-1.7Z"/>
      <path class="st0" d="M28.3,2.1v3.4l-20.2,11.4-3.1-1.7L28.3,2.1Z"/>
      <path class="st2" d="M28.3,15.3l8.8,2.6c.3,0,.5.4.4.7,0,.3-.4.5-.7.4l-8.5-2.5-8.5,2.5c-.3,0-.6,0-.7-.4,0-.3,0-.6.4-.7l8.8-2.6h0Z"/>
      <path class="st2" d="M41,19.4c0-.3-.4-.5-.7-.5s-.3.1-.4.3l-5.1,9.7h-13l-5.1-9.7c-.1-.2-.3-.3-.6-.3s-.5.2-.5.5c-.5,3.1-.3,6.3.5,9.4,1.3,4.9,4.4,10.5,11.9,14.1h.2c0,0,.2,0,.2,0,7.5-3.6,10.7-9.2,11.9-14.1.8-3.1,1-6.3.5-9.4h.2ZM17.2,28.6c-.6-2.4-.8-4.8-.7-7.2l4.4,8.4,6,11.4c-6-3.4-8.7-8.3-9.8-12.5h.1ZM28.3,41.2l-5.9-11.2h11.9l-5.9,11.2h-.1ZM39.4,28.6c-1.1,4.3-3.7,9.1-9.8,12.5l6-11.3,4.4-8.4c0,2.4,0,4.9-.7,7.2h0Z"/>
    </g>
  </g>
</svg>