<?xml version="1.0" encoding="UTF-8"?>
<svg id="Layer_1" xmlns="http://www.w3.org/2000/svg" version="1.1" viewBox="0 0 56.7 56.7">
  <!-- Generator: Adobe Illustrator 29.6.0, SVG Export Plug-In . SVG Version: 2.1.1 Build 207)  -->
  <defs>
    <style>
      .st0 {
        fill: #020202;
      }

      .st1 {
        fill: #fff;
      }
    </style>
  </defs>
  <g id="Certik">
    <g id="D">
      <circle class="st0" cx="28.4" cy="28.4" r="27.6"/>
      <g>
        <path class="st1" d="M42.6,19.4c0-.5,0-1-.2-1.5,0-.2,0-.5,0-.7,0-.2-.2-.4-.3-.5-.2-.1-.3-.2-.5-.2-.3,0-.6.2-.7.4l-5.5,10.8h-13.9l-5.5-10.8c-.1-.3-.4-.4-.6-.5h-.1c-.4,0-.7.3-.8.7,0,.2,0,.5-.1.8,0,.5-.1,1-.2,1.5,0,.8-.1,1.6-.1,2.4,0,1.9.2,3.7.6,5.5.2.8.4,1.7.7,2.5,1.8,5.3,5.4,9.9,10.2,13,.7.4,1.4.8,2.1,1.2.1,0,.3,0,.4.2.1,0,.3,0,.4,0s.3,0,.4,0c.1,0,.3,0,.4-.2.7-.4,1.4-.8,2.1-1.2,4.8-3,8.4-7.6,10.2-13,.3-.8.5-1.6.7-2.5.4-1.8.6-3.7.6-5.5s0-1.6,0-2.4h0ZM19.8,34.8c-1.1-1.7-2.6-4.7-3.2-7.3-.5-1.8-.7-3.8-.7-5.8v-.7l10,19.7c-2.4-1.6-4.4-3.4-6.1-5.9ZM28.8,40.4c0,.2-.3.3-.5.3s-.4,0-.5-.3l-5.6-10.9h12.1l-5.6,10.9h.1ZM40.8,21.7c0,2-.2,4-.7,5.8-.7,2.6-2.1,5.6-3.2,7.3-1.7,2.5-3.7,4.3-6.1,5.9l10-19.7s0,.7,0,.7Z"/>
        <path class="st1" d="M19,17.4h.3l8.6-2.6h1l8.6,2.6h.3c.4,0,.7-.2.9-.5,0-.3,0-.6,0-.9,0-.3-.3-.5-.6-.6l-9.4-2.9h-.6l-9.4,2.9c-.3,0-.5.3-.6.6-.1.3-.1.6,0,.9.2.3.5.5.9.5Z"/>
      </g>
    </g>
  </g>
</svg>