<?xml version="1.0" encoding="UTF-8"?>
<svg id="Cheyni" xmlns="http://www.w3.org/2000/svg" viewBox="0 0 56.7 56.7">
  <defs>
    <style>
      .cls-1 {
        fill: #fff;
      }
    </style>
  </defs>
  <path class="cls-1" d="M43.8,19.4c2.3,0,4.7,0,7,0,3.2,0,5.5,2.4,5.5,5.6,0,2.2,0,4.5,0,6.7,0,3.1-2.3,5.5-5.3,5.6-4.9,0-9.7,0-14.6,0-2.6,0-4.8-2.1-5.3-4.6-.1-.7-.1-1.2.7-1,1.4.2,3.1-.7,4.2,1,.2.3.8.3,1.3.3,4.2,0,8.5,0,12.7,0,1.4,0,2-.5,2-1.9,0-1.8,0-3.7,0-5.5,0-1.2-.5-1.7-1.8-1.7-4.3,0-8.7,0-13,0-.4,0-1,0-1.1.2-1.1,1.7-2.8.8-4.2,1-.8.1-.9-.3-.8-1,.5-2.5,2.7-4.5,5.3-4.5,2.5,0,4.9,0,7.4,0Z"/>
  <path class="cls-1" d="M12.8,19.4c2.5,0,4.9,0,7.4,0,2.5,0,4.7,2,5.2,4.4.2.9,0,1.3-1,1.2-1.4-.2-3,.5-4-1-.1-.2-.8-.2-1.1-.2-4.3,0-8.6,0-12.9,0-1.3,0-1.9.4-1.9,1.8,0,1.9,0,3.8,0,5.7,0,1.2.6,1.7,1.7,1.7,4.4,0,8.8,0,13.2,0,.4,0,1,0,1.1-.2.9-1.6,2.4-.8,3.7-1,1.5-.2,1.4.6,1.1,1.6-.7,2.3-2.8,4-5.2,4-4.9,0-9.7,0-14.6,0-2.4,0-5.5-2.6-5.2-5.3.3-2.4.3-4.9,0-7.4-.3-2.4,2.6-5.3,5.1-5.2,1.3,0,2.5,0,3.8,0,1.2,0,2.4,0,3.6,0Z"/>
  <path class="cls-1" d="M28.1,30.3c-2.3,0-4.7,0-7,0-1.6,0-1.7-.8-1.7-2,0-1.3.2-2,1.8-2,4.8,0,9.6,0,14.4,0,1.5,0,1.7.7,1.7,1.9,0,1.2,0,2.2-1.7,2.1-2.5,0-4.9,0-7.4,0h0Z"/>
</svg>