<?xml version="1.0" encoding="utf-8"?>
<!-- Generator: Adobe Illustrator 25.0.1, SVG Export Plug-In . SVG Version: 6.00 Build 0)  -->
<svg version="1.1" id="Layer_1" xmlns="http://www.w3.org/2000/svg" xmlns:xlink="http://www.w3.org/1999/xlink" x="0px" y="0px"
	 viewBox="0 0 56.7 56.7" style="enable-background:new 0 0 56.7 56.7;" xml:space="preserve">
<style type="text/css">
	.st0{display:none;fill:#191B20;}
	.st1{fill:#191B1F;}
	.st2{fill:url(#SVGID_1_);}
</style>
<g id="Layer_6">
	<g>
		<path class="st0" d="M7.1,28.3c0-6.2,5.2-11.2,11.6-11.2h19.4c6.4,0,11.6,5,11.6,11.2l0,0c0,6.2-5.2,11.2-11.6,11.2H18.6
			C12.3,39.6,7.1,34.6,7.1,28.3L7.1,28.3z"/>
		<circle class="st1" cx="28.3" cy="28.3" r="21.3"/>
		
			<linearGradient id="SVGID_1_" gradientUnits="userSpaceOnUse" x1="40.9352" y1="809.0472" x2="15.7357" y2="815.5541" gradientTransform="matrix(1 0 0 1 0 -783.9969)">
			<stop  offset="0" style="stop-color:#7DC790"/>
			<stop  offset="1" style="stop-color:#F8ED33"/>
		</linearGradient>
		<path class="st2" d="M14.9,28.3c0-5.5,4.6-10,10.2-10h6.5c5.6,0,10.2,4.5,10.2,10l0,0c0,5.5-4.6,10-10.2,10h-6.5
			C19.5,38.4,14.9,33.9,14.9,28.3L14.9,28.3z"/>
	</g>
</g>
</svg>
