<?xml version="1.0" encoding="UTF-8"?>
<svg id="Layer_2" xmlns="http://www.w3.org/2000/svg" version="1.1" xmlns:xlink="http://www.w3.org/1999/xlink" viewBox="0 0 56.7 56.7">
  <!-- Generator: Adobe Illustrator 29.7.1, SVG Export Plug-In . SVG Version: 2.1.1 Build 8)  -->
  <defs>
    <style>
      .st0 {
        fill: #52b196;
      }

      .st1 {
        fill: none;
      }

      .st2 {
        fill: #29594b;
      }

      .st3 {
        clip-path: url(#clippath);
      }
    </style>
    <clipPath id="clippath">
      <rect class="st1" x="17.3" y="14.7" width="21.9" height="21.9"/>
    </clipPath>
  </defs>
  <path class="st2" d="M47.4,31.6c0-3.6,0-7.2,0-10.9h0c0-4.1,0-8.1,0-12.2,0-1.4,0-1.6-1.5-1.9-4.7-1.1-9.5-2.2-14.2-3.3-1.5-.3-3.1-.6-4.6-.3-5.6.9-11.1,2.4-16.6,3.8-.6.2-1,.5-1,1.2,0,.2,0,.4,0,.6,0,7.8,0,15.6,0,23.4,0,2.9.7,5.6,2.1,8.1,2.1,3.8,5.1,6.8,8.6,9.4,2.3,1.7,4.8,3.2,7.5,4.3.6.2,1.1.2,1.7,0,2.1-.9,4.1-2,6-3.3,3.5-2.4,6.7-5.2,9-8.7,2-3,3.1-6.4,3.1-10.1"/>
  <path class="st0" d="M11.5,8.7v7.4c0,5.2,0,10.5,0,15.8,0,2.5.6,4.8,1.8,7,1.8,3.2,4.3,6,8,8.7,2.4,1.7,4.7,3.1,7,4,0,0,0,0,0,0,0,0,0,0,0,0,1.9-.8,3.7-1.8,5.6-3.1,3.7-2.5,6.5-5.2,8.5-8.2,1.9-2.8,2.8-5.7,2.7-8.8,0-2.5,0-5.1,0-7.6v-1.1s0,0,0,0v-5.6c0-2.9,0-5.8,0-8.6-5-1.2-9.5-2.2-14-3.3-1.2-.3-2.5-.5-3.8-.3-5.1.8-10.2,2.1-15.1,3.4l-.7.2ZM28.4,56c-.6,0-1.1-.1-1.7-.3-2.7-1.1-5.3-2.6-7.9-4.6-4.2-3.1-7.2-6.4-9.2-10.1-1.6-2.9-2.4-5.9-2.4-9.1,0-5.3,0-10.6,0-15.8s0-5,0-7.6c0-.2,0-.4,0-.6v-.2c0-1.6,1.1-2.8,2.7-3.2l1.3-.3c5-1.3,10.2-2.6,15.5-3.5,2-.3,3.9,0,5.5.3,4.6,1,9.2,2.1,14.3,3.3.8.2,1.8.4,2.5,1.3.6.9.6,1.8.6,2.7,0,2.9,0,5.8,0,8.8v1.3s0,0,0,0v2.2c0,1.1,0,2.2,0,3.3,0,2.5,0,5,0,7.5,0,4-1.1,7.8-3.4,11.3-2.3,3.5-5.5,6.5-9.6,9.3-2.2,1.5-4.3,2.6-6.4,3.5-.6.2-1.1.4-1.7.4"/>
  <g class="st3">
    <path class="st0" d="M25.2,27.1c-.9-.2-1.5,0-2.1.6-1.1,1.1-2.2,2.1-3.2,3.2-.9.9-.8,2.3,0,3.1.8.9,2.2.9,3.2,0,1.1-1.1,2.2-2.2,3.3-3.3.5-.6.8-1.2.6-2.2-.5.5-1,.9-1.5,1.3-.4.3-.9.3-1.3,0-.4-.4-.4-.8,0-1.3.3-.4.7-.8,1.1-1.4M31.1,24.3c.8.3,1.4,0,2-.5,1.2-1.1,2.3-2.2,3.4-3.4.9-1,.9-2.3,0-3.2-.9-.8-2.1-.8-3.1,0-1.1,1.1-2.2,2.2-3.3,3.3-.5.6-.8,1.2-.5,2.1.6-.2.9-.7,1.2-1,.4-.5,1-.5,1.4-.2.6.4.5.9,0,1.4-.3.5-.9.7-1.1,1.4M24.8,24.9c.6,0,1.1,0,1.6.3.4.2.7.1,1-.2.3-.3.5-.6.3-1.1-.8-2-.2-3.7,1.4-5.1,1.1-1,2-2.1,3.1-3,1.5-1.4,3.8-1.4,5.4-.1,1.5,1.2,2,3.4,1.1,5.2-.4.8-1.1,1.1-1.7,1.7-.8.9-1.6,1.8-2.5,2.7-1.2,1.2-2.7,1.6-4.3,1-.5-.2-.9-.3-1.4.2-.4.4-.3.8-.1,1.2.6,1.7.2,3.2-1,4.4-1.1,1.1-2.2,2.2-3.3,3.3-1.7,1.6-4.2,1.7-5.8,0-1.6-1.6-1.7-4.1-.2-5.8,1.2-1.3,2.4-2.5,3.7-3.7.8-.7,1.7-1.1,2.8-1"/>
  </g>
</svg>