<?xml version="1.0" encoding="UTF-8"?>
<svg id="Earnscape" xmlns="http://www.w3.org/2000/svg" xmlns:xlink="http://www.w3.org/1999/xlink" viewBox="0 0 56.7 56.7">
  <defs>
    <style>
      .cls-1 {
        fill: url(#linear-gradient-2);
      }

      .cls-2 {
        fill: url(#linear-gradient);
      }
    </style>
    <linearGradient id="linear-gradient" x1="16.6" y1="33.7" x2="29.6" y2="21" gradientUnits="userSpaceOnUse">
      <stop offset="0" stop-color="#ffe038"/>
      <stop offset=".2" stop-color="#f4b047"/>
      <stop offset=".6" stop-color="#f3ad42"/>
      <stop offset=".8" stop-color="#ffed8b"/>
    </linearGradient>
    <linearGradient id="linear-gradient-2" x1="9.1" y1="50" x2="36.7" y2="3.2" gradientUnits="userSpaceOnUse">
      <stop offset="0" stop-color="#84e196"/>
      <stop offset=".2" stop-color="#3f794a"/>
      <stop offset=".3" stop-color="#3f7849"/>
      <stop offset=".8" stop-color="#8ff0a9"/>
    </linearGradient>
  </defs>
  <path class="cls-2" d="M27,31c-.9,1.1-4.9,4.2-8.7.3l13.2-5.3s-2-8.7-11.3-7c0,0-6.5,1.4-6.9,8.5,0,0-.6,7.5,7.7,9.4,0,0,7.5,1.4,10.3-6.4l-2.3-.4s-1-.3-1.9.8ZM20.8,22.8c3.9-1.2,5.8,1.3,5.8,1.3l-9.5,3.8s-.2-3.9,3.7-5.1Z"/>
  <path class="cls-1" d="M51.1,22.8L12.7.9s-4.1-1.6-7,.9c-2.8,2.4-2.5,4.8-2.5,4.8v40.9s-.1,3.6,1.8,6.2c1.4,1.9,3.6,3.8,7.8,2l35.5-20.5s5.2-2.9,5.2-7.1c0-3.7-2.4-5.2-2.4-5.2ZM29.6,40c-8.6,5.1-15.9-.8-15.9-.8-2.5,2.1-5.7,7-5.7,7v-16.1c-.4-12.6,9-15.3,9-15.3-.5-3.1-3.5-8.4-3.5-8.4l16.3,9.7c8.4,5.4,6.4,14.2,6.4,14.2,2.4.7,9,1.5,9,1.5l-15.6,8.2Z"/>
</svg>