<?xml version="1.0" encoding="UTF-8"?>
<svg id="Layer_1" xmlns="http://www.w3.org/2000/svg" version="1.1" xmlns:xlink="http://www.w3.org/1999/xlink" viewBox="0 0 56.7 56.7">
  <!-- Generator: Adobe Illustrator 29.3.1, SVG Export Plug-In . SVG Version: 2.1.0 Build 151)  -->
  <defs>
    <style>
      .st0 {
        fill: url(#linear-gradient);
      }
    </style>
    <linearGradient id="linear-gradient" x1="2.9" y1="29.4" x2="53.5" y2="29.4" gradientTransform="translate(0 57.8) scale(1 -1)" gradientUnits="userSpaceOnUse">
      <stop offset="0" stop-color="#fe8a5d"/>
      <stop offset="1" stop-color="#fdcd0b"/>
    </linearGradient>
  </defs>
  <path class="st0" d="M37.4,20.7h4.1v15.4h-4.1s0-15.4,0-15.4ZM13.6,20.7h4.7c.8,2.8,1.5,5.6,2.3,8.6,0-2.8,0-5.6.1-8.6h3.9v15.4h-4.6c-.2-.7-.4-1.4-.6-2.1,0-.2-.1-.4-.2-.6-.6-2-1.1-4-1.7-6,0,2.9,0,5.7-.1,8.7h-3.9v-15.4s.1,0,.1,0ZM2.9,20.7h9.2v3.3h-5.1v2.6h4.8v3.2h-4.8v3h5.3v3.3H2.9v-15.4ZM36.7,20.7l-2.9,15.4h-5.6l-2.9-15.4h4.2c.4,2.1,1,7.8,1.6,10.8.6-3,1.2-8.7,1.6-10.8h4.2-.2ZM48,20.3c-3,0-5.5,2.5-5.5,5.5v5.2c0,3,2.5,5.5,5.5,5.5s5.5-2.5,5.5-5.5v-5.2c0-3-2.5-5.5-5.5-5.5ZM49.9,27.7v3.5s0,2.4-1.9,2.4-1.9-2.8-1.9-2.8v-4.8s-.2-3,1.9-3c0,0,2-.3,1.9,4.6h0Z"/>
</svg>