<?xml version="1.0" encoding="UTF-8"?>
<svg id="Eternis" xmlns="http://www.w3.org/2000/svg" version="1.1" xmlns:xlink="http://www.w3.org/1999/xlink" viewBox="0 0 56.7 56.7">
  <!-- Generator: Adobe Illustrator 29.6.0, SVG Export Plug-In . SVG Version: 2.1.1 Build 207)  -->
  <defs>
    <style>
      .st0 {
        fill: url(#linear-gradient2);
      }

      .st1 {
        fill: #90b9c9;
      }

      .st2 {
        fill: url(#linear-gradient1);
      }

      .st3 {
        fill: none;
      }

      .st4 {
        fill: url(#linear-gradient);
      }

      .st5 {
        clip-path: url(#clippath);
      }
    </style>
    <linearGradient id="linear-gradient" x1="14.1" y1="29.7" x2="24.1" y2="29.7" gradientTransform="translate(0 58) scale(1 -1)" gradientUnits="userSpaceOnUse">
      <stop offset="0" stop-color="#708d9a"/>
      <stop offset=".5" stop-color="#4d6a79"/>
      <stop offset=".5" stop-color="#7593a2"/>
      <stop offset=".6" stop-color="#4d6a79"/>
      <stop offset="1" stop-color="#82a0ab"/>
    </linearGradient>
    <clipPath id="clippath">
      <path class="st3" d="M19,56L15.6,4.5s.3-3.1-3.2-3.2v-.5h15.5s8.8,0,9,8.1c0,0,.5,7.6-7.1,8.7,0,0,2.8.5,5.3,5.3,2.5,4.8,5.7,8.7,9.8,8.5h-7.7s-6.1.2-9.2-6.2c-3.1-6.4-2.7-7.9-5.3-8.6v-.6s7.2,1,6.9-6.8c-.2-7.8-7.4-6.4-7.4-6.4l-3.3,53.2h0Z"/>
    </clipPath>
    <linearGradient id="linear-gradient1" x1="26.4" y1="40.7" x2="26.4" y2="56.2" gradientTransform="translate(0 58) scale(1 -1)" gradientUnits="userSpaceOnUse">
      <stop offset="0" stop-color="#a6cbe1"/>
      <stop offset="1" stop-color="#324153"/>
    </linearGradient>
    <linearGradient id="linear-gradient2" x1="22.8" y1="33.9" x2="45.4" y2="33.9" gradientTransform="translate(0 58) scale(1 -1)" gradientUnits="userSpaceOnUse">
      <stop offset="0" stop-color="#62707c"/>
      <stop offset="1" stop-color="#2d3b44"/>
    </linearGradient>
  </defs>
  <path class="st1" d="M19,56L15.6,4.5s.3-3.1-3.2-3.2v-.5h15.5s8.8,0,9,8.1c0,0,.5,7.6-7.1,8.7,0,0,2.8.5,5.3,5.3,2.5,4.8,5.7,8.7,9.8,8.5h-7.7s-6.1.2-9.2-6.2c-3.1-6.5-2.7-7.9-5.3-8.6v-.6s7.2,1,6.9-6.8c-.2-7.8-7.4-6.4-7.4-6.4l-3.3,53.2h0Z"/>
  <path class="st4" d="M12.4.8v.5c3.5.1,3.2,3.2,3.2,3.2l3.4,51.4L22.3,2.8s-2.9-.2-3.3,0c0,0-2.6-2.6-6.7-2.2h0Z"/>
  <g class="st5">
    <g>
      <path class="st2" d="M19.8,2.7s.5-1.1,4.8-.9c4.3.2,7.6,2.5,8.3,6.4s-1.3,7-6.4,9.1c0,0-3.3-1.1-3.8-.9s0-.4,0-.4h2s5-.8,4.9-5.8c0,0,0-3.3-3.2-5.3,0,0-.7-2.2-1.6-2.2s-5,0-5,0h0Z"/>
      <path class="st0" d="M45.4,31.5h-6.5s-8.1,1.3-11-2.2-1.8-9.2-3.2-11.2c0,0-.4-1.2-2-1.4,0,0,.6-.8,3.7,1.1.3,0,2,1.9,3,3.6,1.1,2,3.7,5.1,3.7,5.1,0,0,5.7,6.1,12.2,5h0Z"/>
    </g>
  </g>
</svg>