<?xml version="1.0" encoding="UTF-8"?>
<svg id="Layer_10_copy" data-name="Layer 10 copy" xmlns="http://www.w3.org/2000/svg" viewBox="0 0 56.7 56.7">
  <defs>
    <style>
      .cls-1 {
        fill: #fff;
      }

      .cls-1, .cls-2 {
        fill-rule: evenodd;
      }

      .cls-2 {
        fill: #38a6ff;
      }
    </style>
  </defs>
  <g id="Loading-Screen">
    <path class="cls-2" d="M7,47s8.9-4.8,21.4-4.8,21.2,4.8,21.2,4.8c0,0-.8,1.9-1.3,3.1,0,.3-.3.5-.5.5-.3,0-.5,0-.8,0-2.5-1-9.5-3.6-18.6-3.6s-16.3,2.6-18.8,3.6c-.2.1-.5.1-.8,0-.2,0-.5-.3-.5-.5-.5-1.2-1.3-3.1-1.3-3.1Z"/>
    <path class="cls-1" d="M28.4,23.6c15.5,4.3,25.3,13.8,25.3,13.8l-2.8,6.8s-11.1-5.6-22.4-5.6-22.6,5.6-22.6,5.6l-2.8-6.8s9.9-9.6,25.4-13.8Z"/>
    <path class="cls-1" d="M28.4,20c-1.1.3-15.7,4.2-26.5,14.3h-.1c0,0-.9-2.1-1.3-3.1-.1-.3,0-.6.1-.8,3.7-3.5,9.1-7.4,15-10,.3-.1.4-.4.4-.7,0-1.8,0-6.3,0-8.5s.3-.7.7-.7h5.6c.4,0,.7-.3.7-.7v-3.1c0-.4.3-.7.7-.7h9.3c.4,0,.7.3.7.7v3.1c0,.4.3.7.7.7h5.6c.4,0,.7.3.7.7,0,2.2,0,6.7,0,8.5s.2.5.4.7c5.9,2.7,11.2,6.4,14.9,10,.2.2.3.5.2.8l-1.4,3.3s0,0,0,0c-11.2-10.4-26.3-14.3-26.5-14.4Z"/>
  </g>
</svg>