<?xml version="1.0" encoding="UTF-8"?>
<svg id="Fandora" xmlns="http://www.w3.org/2000/svg" viewBox="0 0 56.7 56.7">
  <defs>
    <style>
      .cls-1 {
        fill: #323333;
      }

      .cls-2 {
        fill: #5447b2;
      }

      .cls-3 {
        fill: #52c1b9;
      }

      .cls-4 {
        fill: #8968ff;
      }
    </style>
  </defs>
  <polygon class="cls-4" points="33.5 9.6 19.3 18.4 19.3 9 33.5 .4 33.5 9.6"/>
  <polygon class="cls-3" points="33.5 9.6 45.4 16.3 45.4 7 33.5 .4 33.5 9.6"/>
  <polygon class="cls-1" points="33.5 9.6 45.4 16.3 29.3 24.4 19.3 18.3 33.5 9.6"/>
  <polygon class="cls-2" points="19.4 28.2 28.4 29.8 29.3 24.4 19.3 18.3 19.4 28.2"/>
  <polygon class="cls-4" points="19.4 28.2 11.3 41.6 11.3 23.3 19.3 18.3 19.4 28.2"/>
  <polygon class="cls-4" points="33.5 19.1 11.3 33.3 11.3 41.8 33.5 28.3 33.5 19.1"/>
  <path class="cls-3" d="M33.5,19.1l11.8,6.6v9.4l-11.8-6.8v-9.3Z"/>
  <path class="cls-1" d="M19.3,36.9l11.8,6.9,14.2-8.7-11.8-6.8-14.2,8.6Z"/>
  <path class="cls-2" d="M19.3,36.9l11.8,6.9v8.3l-11.5-6.8-.3-8.5Z"/>
  <path class="cls-1" d="M11.3,50l11.3,6.3,8.5-4.2-11.5-6.8-8.3,4.6Z"/>
</svg>