<?xml version="1.0" encoding="UTF-8"?>
<svg id="Futr" xmlns="http://www.w3.org/2000/svg" version="1.1" viewBox="0 0 56.7 56.7">
  <!-- Generator: Adobe Illustrator 29.6.0, SVG Export Plug-In . SVG Version: 2.1.1 Build 207)  -->
  <defs>
    <style>
      .st0 {
        fill: #fff;
      }

      .st1 {
        fill: #875ffe;
      }
    </style>
  </defs>
  <path class="st0" d="M43.2,29.2c-3.8-.9-9.1-1.4-14.8-1.4s-11,.6-14.8,1.4c-4,.9-6.5,2.2-6.5,3.7s4.1,3.5,10.2,4.4v2.2c0,2,1.6,3.6,3.6,3.6h15c2,0,3.6-1.6,3.6-3.6v-2.2c6.1-.9,10.2-2.5,10.2-4.4s-2.5-2.7-6.5-3.7ZM21.3,38.9c-1.1,0-2-.9-2-2v-2.6c0-1.1.9-2,2-2h13.7c1.1,0,2,.9,2,2v2.6c0,1.1-.9,2-2,2h-13.7Z"/>
  <path class="st0" d="M25.5,35.2c0,1.5,1.2,2.9,2.8,2.9s2.8-1.3,2.9-2.9c0-.8-1.2-.8-1.3,0-.2,2.1-3.1,2.1-3.2,0,0-.8-1.3-.8-1.3,0h.1Z"/>
  <path class="st0" d="M40,25.6l-5.9-15.3c0-.1,0-.2-.2-.3L18.3.8c-.5-.3-1.1.4-.7.8l5.2,8.3c.1.2.2.4,0,.6l-6,15.4c-.2.4.2.8.6.7,3.4-.8,7.3-1.3,11.4-1.3s7.2.4,10.4,1c.4,0,.8-.3.6-.7,0,0,.2,0,.2,0ZM25.9,11.7c1.2-.4,1.7-.9,2.1-2.1,0-.2.4-.2.5,0,.4,1.2.9,1.7,2.1,2.1.2,0,.2.4,0,.5-1.2.4-1.7.9-2.1,2.1,0,.2-.4.2-.5,0-.4-1.2-.9-1.7-2.1-2.1-.2,0-.2-.4,0-.5ZM33.8,19.4c-.5,2.2-2.4,4-5.1,4.2-1.5,0-2.9-.4-3.9-1.5-2.6-2.6-2.1-6.3.3-8.2.2-.2.6,0,.5.3-.2,1.1,0,2.2.6,3.2,1.1,1.9,3.3,2.9,5.5,2.4.7-.1,1.2-.4,1.7-.8.2-.2.6,0,.5.3h0ZM34,16.1c-1.2.4-1.7.9-2.1,2.1,0,.2-.4.2-.5,0-.4-1.2-.9-1.7-2.1-2.1-.2,0-.2-.4,0-.5,1.2-.4,1.7-.9,2.1-2.1,0-.2.4-.2.5,0,.4,1.2.9,1.7,2.1,2.1.2,0,.2.4,0,.5Z"/>
  <path class="st0" d="M22.7,33.2h0c-.6,0-1.2.5-1.2,1.2v1.7c0,.6.5,1.2,1.2,1.2h0c.6,0,1.2-.5,1.2-1.2v-1.7c0-.6-.5-1.2-1.2-1.2Z"/>
  <path class="st0" d="M34.2,33.2h0c-.6,0-1.2.5-1.2,1.2v1.7c0,.6.5,1.2,1.2,1.2h0c.6,0,1.2-.5,1.2-1.2v-1.7c0-.6-.5-1.2-1.2-1.2Z"/>
  <path class="st0" d="M18.7,23.9l6.9-15.5,6.5,1.1,5.5,15.3-18.9-1h0Z"/>
  <path class="st1" d="M28.1,14c0-.1.2-.1.2,0l.9,2.5h0l1.3,1v.2l-1.3,1h0l-.9,2.5c0,.1-.2.1-.2,0l-.9-2.5h0l-1.5-.9v-.2l1.5-.9h0l.9-2.5v-.2Z"/>
  <path class="st1" d="M32.1,17.8l.2.6.6.2-.6.2-.2.6-.2-.6-.6-.2.6-.2.2-.6Z"/>
  <path class="st1" d="M32.1,12.8l.2.6.6.2-.6.2-.2.6-.2-.6-.6-.2.6-.2.2-.6Z"/>
  <path class="st1" d="M23.9,21l.2.6.6.2-.6.2-.2.6-.2-.6-.6-.2.6-.2.2-.6Z"/>
  <path class="st1" d="M24.8,15l.2.6.6.2-.6.2-.2.6-.2-.6-.6-.2.6-.2.2-.6Z"/>
  <path class="st1" d="M43.1,56c-.4,0-.8,0-1.1-.4-.3-.3-.4-.6-.4-1.1s0-.8.4-1.1c.3-.3.6-.4,1.1-.4s.8,0,1,.4c.3.3.4.6.4,1.1s0,.8-.4,1.1c-.3.3-.6.4-1,.4Z"/>
  <path class="st0" d="M15.1,55.8v-9.6h2.7v9.6s-2.7,0-2.7,0ZM17.2,52.4v-2.2h4.7v2.2h-4.7ZM17.2,48.4v-2.2h4.9v2.2h-4.9ZM26.3,56c-.6,0-1.2,0-1.7-.4-.5-.3-.9-.6-1.2-1.1-.3-.5-.4-1-.4-1.5v-3.8h2.6v4.3s.1.2.2.3h.4c.2,0,.3,0,.5-.2.1,0,.2-.3.2-.5v-3.9h2.6v3.8c0,.6-.1,1.1-.4,1.6-.3.4-.7.8-1.2,1-.5.3-1.1.4-1.7.4,0,0,.1,0,.1,0ZM31.6,55.8v-9.4h2.6v9.4s-2.6,0-2.6,0ZM30.2,51.3v-2.2h5.5v2.2h-5.5ZM36.4,55.8v-6.6h2.6v6.6h-2.6ZM39.1,52.2l-1.2-1.1c.3-.7.7-1.2,1.2-1.6.5-.3,1-.5,1.7-.5h.8c.2,0,.4.2.5.3l-1.5,2.1s-.2,0-.3-.2h-.4c-.3,0-.5,0-.6.2s-.2.4-.2.7h0Z"/>
</svg>