<?xml version="1.0" encoding="UTF-8"?>
<svg id="Layer_1" xmlns="http://www.w3.org/2000/svg" version="1.1" xmlns:xlink="http://www.w3.org/1999/xlink" viewBox="0 0 56.7 56.7">
  <!-- Generator: Adobe Illustrator 29.3.1, SVG Export Plug-In . SVG Version: 2.1.0 Build 151)  -->
  <defs>
    <style>
      .st0 {
        fill: #22ad74;
      }
    </style>
  </defs>
  <g id="Gama">
    <path id="_702329584" class="st0" d="M32.8,4l7.2,4.2h0l7.2,4.2h0c1.4.8,2.5,1.9,3.3,3.2h0c.7,1.4,1.2,2.8,1.2,4.4v16.7c0,1.6-.4,3.1-1.2,4.4h0c-.7,1.3-1.8,2.4-3.3,3.2l-7.2,4.2-7.2,4.2c-1.4.8-2.9,1.2-4.4,1.2s-3-.4-4.4-1.2l-7.2-4.2-7.2-4.2c-1.4-.8-2.5-1.9-3.2-3.2h0c-.7-1.3-1.2-2.8-1.2-4.4v-16.7c0-1.6.4-3.1,1.2-4.4h0c.7-1.3,1.8-2.4,3.2-3.2l7.2-4.2,7.2-4.2c1.4-.8,2.9-1.2,4.4-1.2s3,.4,4.4,1.2h0ZM37.9,11.9l-7.2-4.2c-.7-.5-1.6-.6-2.3-.6s-1.6.2-2.3.6l-7.2,4.2-7.2,4.2c-.7.5-1.3,1-1.7,1.6h0c-.4.6-.5,1.5-.5,2.3v16.7c0,.8.2,1.6.5,2.3h0c.4.6.9,1.3,1.7,1.6l7.2,4.2,7.2,4.2c.7.5,1.6.6,2.3.6s1.6-.2,2.3-.6l7.2-4.2,7.2-4.2c.7-.5,1.3-1,1.7-1.6h0c.4-.6.5-1.5.5-2.3v-16.7c0-.8-.2-1.6-.5-2.3h0c-.4-.6-1-1.3-1.7-1.6h0l-7.2-4.2h0ZM30.8,13.1l4.8,2.8h0l4.8,2.8h0c.7.5,1.4,1,1.7,1.7h0c.5.7.6,1.6.6,2.4v1.8h-4.3v-2.1h0s0-.2-.2-.2h0l-4.8-2.8h0l-4.8-2.8h-.5l-4.8,2.8h0l-4.8,2.7h0c0,0-.2,0-.2.2v11.7s0,.2.2.2l4.8,2.8,4.8,2.8h.5l4.8-2.8h0l4.8-2.7h0c0,0,.2,0,.2-.2h0v-2.9h-5.8s-.2,0-.2.2h0l-1.5,2.6h-4.9l2.6-4.7h0c.5-.7,1-1.4,1.7-1.7h0c.7-.5,1.6-.6,2.4-.6h9.9v1.3h0v5.6c0,.8-.2,1.6-.6,2.4h0c-.5.7-1,1.3-1.7,1.7h0l-4.8,2.7h0l-4.8,2.8c-.7.5-1.6.6-2.4.6s-1.6-.2-2.4-.6l-4.8-2.8-4.8-2.8c-.7-.5-1.4-1-1.7-1.7-.5-.7-.6-1.6-.6-2.4v-11.1c0-.8.2-1.6.6-2.4.5-.7,1-1.3,1.7-1.7h0l4.8-2.7h0l4.8-2.8c.7-.5,1.6-.6,2.4-.6s1.6.2,2.4.6h0Z"/>
  </g>
</svg>