<?xml version="1.0" encoding="UTF-8"?>
<svg id="Layer_3" xmlns="http://www.w3.org/2000/svg" version="1.1" viewBox="0 0 56.7 56.7">
  <!-- Generator: Adobe Illustrator 29.6.0, SVG Export Plug-In . SVG Version: 2.1.1 Build 207)  -->
  <defs>
    <style>
      .st0 {
        fill: #fff;
      }

      .st1 {
        fill: #3a6ea5;
      }
    </style>
  </defs>
  <path class="st1" d="M48.9,56.4H8.1C3.7,56.4.1,52.8.1,48.4V7.6C.1,3.2,3.7-.4,8.1-.4h40.7c4.4,0,8,3.6,8,8v40.7c0,4.4-3.6,8-8,8Z"/>
  <path class="st0" d="M44.1,42.7l-2-1.1c-.2,0-.2-.2-.2-.4V12c0-2.9-2.3-5.2-5.2-5.2h-16.4c-2.9,0-5.2,2.3-5.2,5.2v29.2c0,.2,0,.3-.2.4l-1.9,1.2c0,0-.1.1-.1.2v5.1c0,.7.5,1.2,1.2,1.2h29.1c.7,0,1.2-.5,1.2-1.2v-5.2c0,0,0-.2-.1-.2ZM41.6,46.2c0,.1-.1.2-.2.2H15.6c-.1,0-.2-.1-.2-.2v-1.7c0,0,0-.1,0-.2l2.4-.9c.1,0,.2-.2.2-.3V12.2c0-1.3,1.1-2.4,2.4-2.4h16c1.3,0,2.4,1.1,2.4,2.4v30.9c0,.1,0,.3.2.3l2.5.9c0,0,0,0,0,.2v1.8ZM35.4,12.5h-13.7c-.7,0-1.2.5-1.2,1.2v6.4c0,.7.5,1.2,1.2,1.2h13.7c.7,0,1.2-.5,1.2-1.2v-6.4c0-.7-.5-1.2-1.2-1.2ZM34.7,19.7h-12.4v-5.7h12.4v5.7ZM27.3,44.1l.5-8.5h-6.6c0,0,8.6-13.2,8.6-13.2l-.7,8.4h6.7c0,0-8.7,13.2-8.7,13.2ZM23,34.6h5.8c0,0-.4,6-.4,6l5.7-8.7h-6s.4-5.8.4-5.8l-5.7,8.6Z"/>
</svg>