<?xml version="1.0" encoding="UTF-8"?>
<svg id="Gll" xmlns="http://www.w3.org/2000/svg" xmlns:xlink="http://www.w3.org/1999/xlink" viewBox="0 0 106.3 91.3">
  <defs>
    <style>
      .cls-1 {
        fill: url(#linear-gradient-2);
      }

      .cls-2 {
        fill: url(#linear-gradient-4);
      }

      .cls-3 {
        fill: url(#linear-gradient-3);
      }

      .cls-4 {
        fill: url(#linear-gradient-5);
      }

      .cls-5 {
        fill: url(#linear-gradient);
      }
    </style>
    <linearGradient id="linear-gradient" x1="22.5" y1="41.7" x2="46.1" y2="41.7" gradientUnits="userSpaceOnUse">
      <stop offset=".1" stop-color="#1b1133"/>
      <stop offset=".5" stop-color="#992fea"/>
      <stop offset=".8" stop-color="#341e84"/>
    </linearGradient>
    <linearGradient id="linear-gradient-2" x1="34.7" y1="43.6" x2="37.1" y2="40.6" gradientUnits="userSpaceOnUse">
      <stop offset="0" stop-color="#6f2bd2"/>
      <stop offset=".8" stop-color="#a932fe"/>
    </linearGradient>
    <linearGradient id="linear-gradient-3" x1="33" y1="43.2" x2="47.5" y2="48.8" gradientUnits="userSpaceOnUse">
      <stop offset=".2" stop-color="#e531fb"/>
      <stop offset=".5" stop-color="#7a2cdb"/>
    </linearGradient>
    <linearGradient id="linear-gradient-4" x1="49.7" y1="41.9" x2="81.8" y2="26.2" gradientUnits="userSpaceOnUse">
      <stop offset=".3" stop-color="#8733fe"/>
      <stop offset=".8" stop-color="#352057"/>
    </linearGradient>
    <linearGradient id="linear-gradient-5" x1="38.4" y1="30.4" x2="71" y2="60.6" gradientUnits="userSpaceOnUse">
      <stop offset="0" stop-color="#ffde3e"/>
      <stop offset=".3" stop-color="#e730e8"/>
      <stop offset=".8" stop-color="#332660"/>
    </linearGradient>
  </defs>
  <path class="cls-5" d="M46.1,40.9s-6.7-6.3-10.9-5.8-6.5,2.6-6.6,6.7c0,0,0,5.2,6.8,6.2,0,0,3.8-.3,5.5-1.9,0,0,3.8,3.4,1.4,6.3,0,0-2.6,1.7-7.3,1.6s-12-3.2-12.4-12.5,9-11.9,9-11.9c0,0,3.6-.4,5.6,1.9s9,9.4,9,9.4Z"/>
  <path class="cls-1" d="M32.7,39h0v3.1s-.1,2.7,2.8,3h3.7l-6.5-6.1Z"/>
  <path class="cls-3" d="M40.3,53.1s2.7-.9,1.7-4.1c0,0,0-.5-1.9-2.6s-7.4-7.4-7.4-7.4h6.9s1.8-.1,3.2,1.4,4.3,4.3,4.3,4.3c0,0,2.7,2.2,0,4.4s-6.3,4-6.8,4.1Z"/>
  <path class="cls-2" d="M51.6,36.2s6.3-7.3,14.3-7.1,10.9,6,10.9,6c0,0,4.8,7.9-1.7,14.9-6.5,7-16.2,2.5-16.2,2.5,0,0-4.2-2.2-8.3-6.4-4-4.2-11.1-11.2-11.1-11.2,0,0-5.3-7.1-11.2-3.7,0,0,9.2-6.9,20.2,4,11,10.9,10,9.6,10,9.6,0,0,6.6,6.3,12,1.2,0,0,3.2-2.5,1.3-7.2s-9.1-4.6-13.5-.4c0,0-2,2-4.2,0l-2.3-2.3Z"/>
  <path class="cls-4" d="M72.7,52c-6.3,4-13.8.4-13.8.4,0,0-4.2-2.2-8.3-6.4-4-4.2-11.1-11.2-11.1-11.2,0,0-5.3-7.1-11.2-3.7,0,0,9.2-6.8,20.2,4s10.2,10,10.2,10c1.2,1.1,8,10.1,14.1,6.9Z"/>
</svg>