<?xml version="1.0" encoding="UTF-8"?>
<svg id="Layer_2" xmlns="http://www.w3.org/2000/svg" version="1.1" xmlns:xlink="http://www.w3.org/1999/xlink" viewBox="0 0 56.7 56.7">
  <!-- Generator: Adobe Illustrator 29.5.1, SVG Export Plug-In . SVG Version: 2.1.0 Build 141)  -->
  <defs>
    <style>
      .st0 {
        fill: url(#linear-gradient2);
      }

      .st1 {
        fill: url(#linear-gradient1);
      }

      .st2 {
        fill: url(#linear-gradient4);
      }

      .st3 {
        fill: url(#linear-gradient3);
      }

      .st4 {
        fill: url(#linear-gradient);
      }
    </style>
    <linearGradient id="linear-gradient" x1=".3" y1="29.4" x2="23.9" y2="29.4" gradientTransform="translate(0 58) scale(1 -1)" gradientUnits="userSpaceOnUse">
      <stop offset="0" stop-color="#1b1133"/>
      <stop offset=".5" stop-color="#992fea"/>
      <stop offset=".8" stop-color="#341e84"/>
    </linearGradient>
    <linearGradient id="linear-gradient1" x1="12.5" y1="27.5" x2="14.9" y2="30.5" gradientTransform="translate(0 58) scale(1 -1)" gradientUnits="userSpaceOnUse">
      <stop offset="0" stop-color="#6f2bd2"/>
      <stop offset=".8" stop-color="#a932fe"/>
    </linearGradient>
    <linearGradient id="linear-gradient2" x1="10.8" y1="27.9" x2="25.3" y2="22.3" gradientTransform="translate(0 58) scale(1 -1)" gradientUnits="userSpaceOnUse">
      <stop offset=".2" stop-color="#e531fb"/>
      <stop offset=".5" stop-color="#7a2cdb"/>
    </linearGradient>
    <linearGradient id="linear-gradient3" x1="27.5" y1="29.2" x2="59.6" y2="44.9" gradientTransform="translate(0 58) scale(1 -1)" gradientUnits="userSpaceOnUse">
      <stop offset=".3" stop-color="#8733fe"/>
      <stop offset=".8" stop-color="#352057"/>
    </linearGradient>
    <linearGradient id="linear-gradient4" x1="16.3" y1="40.8" x2="48.9" y2="10.6" gradientTransform="translate(0 58) scale(1 -1)" gradientUnits="userSpaceOnUse">
      <stop offset="0" stop-color="#ffde3e"/>
      <stop offset=".3" stop-color="#e730e8"/>
      <stop offset=".8" stop-color="#332660"/>
    </linearGradient>
  </defs>
  <path class="st4" d="M23.9,27.8s-6.7-6.3-10.9-5.8-6.5,2.6-6.6,6.7c0,0,0,5.2,6.8,6.2,0,0,3.8-.3,5.5-1.9,0,0,3.8,3.4,1.4,6.3,0,0-2.6,1.7-7.3,1.6S.8,37.7.4,28.4s9-11.9,9-11.9c0,0,3.6-.4,5.6,1.9s9,9.4,9,9.4h-.1Z"/>
  <path class="st1" d="M10.5,25.9h0v3.1s0,2.7,2.8,3h3.7l-6.5-6.1Z"/>
  <path class="st0" d="M18.1,40s2.7-.9,1.7-4.1c0,0,0-.5-1.9-2.6s-7.4-7.4-7.4-7.4h6.9s1.8,0,3.2,1.4,4.3,4.3,4.3,4.3c0,0,2.7,2.2,0,4.4s-6.3,4-6.8,4.1h0Z"/>
  <path class="st3" d="M29.4,23.1s6.3-7.3,14.3-7.1c8,.2,10.9,6,10.9,6,0,0,4.8,7.9-1.7,14.9s-16.2,2.5-16.2,2.5c0,0-4.2-2.2-8.3-6.4-4-4.2-11.1-11.2-11.1-11.2,0,0-5.3-7.1-11.2-3.7,0,0,9.2-6.9,20.2,4,11,10.9,10,9.6,10,9.6,0,0,6.6,6.3,12,1.2,0,0,3.2-2.5,1.3-7.2s-9.1-4.6-13.5-.4c0,0-2,2-4.2,0l-2.3-2.3h-.2Z"/>
  <path class="st2" d="M50.5,38.9c-6.3,4-13.8.4-13.8.4,0,0-4.2-2.2-8.3-6.4-4-4.2-11.1-11.2-11.1-11.2,0,0-5.3-7.1-11.2-3.7,0,0,9.2-6.8,20.2,4,11,10.8,10.2,10,10.2,10,1.2,1.1,8,10.1,14.1,6.9h-.1Z"/>
</svg>