<?xml version="1.0" encoding="utf-8"?>
<!-- Generator: Adobe Illustrator 25.0.1, SVG Export Plug-In . SVG Version: 6.00 Build 0)  -->
<svg version="1.1" id="Layer_1" xmlns="http://www.w3.org/2000/svg" xmlns:xlink="http://www.w3.org/1999/xlink" x="0px" y="0px"
	 viewBox="0 0 56.7 56.7" style="enable-background:new 0 0 56.7 56.7;" xml:space="preserve">
<style type="text/css">
	.st0{fill-rule:evenodd;clip-rule:evenodd;fill:url(#path0_fill_1_);}
</style>
<g id="Layer_9">
	<g id="guarda">
		<g transform="translate(-1091 3303)">
			
				<linearGradient id="path0_fill_1_" gradientUnits="userSpaceOnUse" x1="541.0231" y1="-3298.8662" x2="541.192" y2="-3298.8662" gradientTransform="matrix(-235.7801 179.1681 -292.7986 -170.5359 -837203.9375 -662801.3125)">
				<stop  offset="0" style="stop-color:#AF6AAC"/>
				<stop  offset="1" style="stop-color:#7293CC"/>
			</linearGradient>
			<path id="path0_fill" class="st0" d="M1137.7-3291.5c0.1,0,0.2,0.1,0.2,0.3l0,0c0.1,0.9,2.1,30.7-18.5,37.8h-0.1h-0.1
				c-20.7-7.1-18.5-37.5-18.5-37.8c0-0.1,0.1-0.2,0.2-0.3l18.4-4.4h0.1L1137.7-3291.5z M1119.3-3257.2
				C1119.4-3257.2,1119.4-3257.2,1119.3-3257.2c17.2-5.8,15.3-30.8,15.3-31c0-0.1-0.1-0.2-0.2-0.2l-15.1-3.7h-0.1l-15.1,3.7
				c-0.1,0-0.2,0.1-0.2,0.2C1104-3288,1102.2-3263,1119.3-3257.2L1119.3-3257.2z M1129-3284c0.1,0,0.1,0.1,0.1,0.1
				c0,0.2,1.2,16.2-9.8,19.9c0,0,0,0-0.1,0c0,0,0,0-0.1,0c-11-3.7-9.8-19.8-9.8-19.9c0-0.1,0.1-0.1,0.1-0.1l9.7-2.4h0.1L1129-3284z"
				/>
		</g>
	</g>
</g>
</svg>
