<?xml version="1.0" encoding="utf-8"?>
<!-- Generator: Adobe Illustrator 25.0.1, SVG Export Plug-In . SVG Version: 6.00 Build 0)  -->
<svg version="1.1" id="Layer_1" xmlns="http://www.w3.org/2000/svg" xmlns:xlink="http://www.w3.org/1999/xlink" x="0px" y="0px"
	 viewBox="0 0 56.7 56.7" style="enable-background:new 0 0 56.7 56.7;" xml:space="preserve">
<style type="text/css">
	.st0{fill:#3E64AF;}
</style>
<g id="Layer_5">
	<g>
		<path class="st0" d="M7.1,42.5c0,0.9,0.2,1.9,0.5,2.7c0.4,0.9,0.9,1.7,1.6,2.3c0.7,0.7,1.5,1.2,2.3,1.5c0.9,0.4,1.8,0.5,2.7,0.5
			h28.2c1.9,0,3.7-0.8,5-2.1s2.1-3.1,2.1-5V14.2c0-1.9-0.8-3.7-2.1-5s-3.2-2.1-5-2.1H14.3c-1.9,0-3.7,0.8-5,2.1s-2.1,3.2-2.1,5
			L7.1,42.5z M44.8,14.2v28.2c0,0.6-0.3,1.2-0.7,1.7c-0.4,0.4-1,0.7-1.7,0.7H14.3c-0.3,0-0.6-0.1-0.9-0.2c-0.3-0.1-0.5-0.3-0.8-0.5
			c-0.2-0.2-0.4-0.5-0.5-0.8s-0.2-0.6-0.2-0.9V14.2c0-0.6,0.2-1.2,0.7-1.7c0.4-0.4,1-0.7,1.7-0.7h28.2c0.6,0,1.2,0.3,1.6,0.7
			C44.6,13,44.8,13.6,44.8,14.2z"/>
		<path class="st0" d="M17.7,24l6.7,4.4l-6.7,4.4v4.8L28,30.9v-5.1l-10.3-6.6V24z"/>
		<path class="st0" d="M29.4,24l6.7,4.4l-6.7,4.4v4.8L39.7,31v-5.1l-10.3-6.6C29.4,19.3,29.4,24,29.4,24z"/>
	</g>
</g>
</svg>
