<?xml version="1.0" encoding="UTF-8"?>
<svg id="Layer_1" xmlns="http://www.w3.org/2000/svg" version="1.1" xmlns:xlink="http://www.w3.org/1999/xlink" viewBox="0 0 56.7 56.7">
  <!-- Generator: Adobe Illustrator 29.3.1, SVG Export Plug-In . SVG Version: 2.1.0 Build 151)  -->
  <defs>
    <style>
      .st0 {
        fill: #fff;
        fill-rule: evenodd;
      }
    </style>
  </defs>
  <g id="Kalp_studio">
    <path d="M48.7,56.7H8c-4.4,0-8-3.6-8-8V8C0,3.6,3.6,0,8,0h40.7C53.1,0,56.7,3.6,56.7,8v40.7c0,4.4-3.6,8-8,8Z"/>
    <path class="st0" d="M50.9,38.6c-.3-1.7-.8-3.6-1.6-5.1-2.6-4.8-5.2-9.6-8.1-14.2-3.6-5.8-11.6-5.5-14.7.4-1.6,3.2-3.5,6.3-5.3,9.4-.8,1.4-1.6,2.8-2.4,4.2s-1.6,1.4-2.6.2c-.9-1.1-.9-2.8,0-4.5,2.2-3.9,4.5-7.8,6.8-11.7.5-.9,1.1-1.7,1.8-2.5,3-3.5,7.2-4.5,11.5-2.8.2,0,.4.1.7.2,0,0,.3,0,.5.1-4.6-6.6-11.5-7-16.6-1.1h0c-.3.4-.7.8-.9,1.3-.9,1.5-1.7,2.9-2.6,4.4h0c-2.1,3.5-4.2,7-6.1,10.6-3,6,1.2,12.5,7.8,12.2,3.3,0,6.6,0,9.9,0s3.9,0,5.8,0c1.4,0,1.4.7,1.2,1.7-.4,1.5-1.6,2.2-2.9,2.2h-3.6c-4.3,0-8.6.2-12.9,0-5.1-.3-8.3-3.8-9.2-8.9,0-.2,0-.3-.2-.5h0c0,0,0-.2-.2-.4-1.1,2.7-1.6,5.3-.9,8,1.1,4.3,4.4,6.4,8.3,6.6,6.5.5,13.1.7,19.6.2,6.6-.5,9.2-7.6,6.1-12.5-1.8-2.9-3.5-5.9-5.1-8.9h0c-.9-1.7-1.8-3.4-2.8-5-.6-1-.2-1.4.7-1.7,1.5-.5,3,.2,4.1,2.1l.7,1.2h0c1.7,2.7,3.3,5.5,4.9,8.3.9,1.6,1.8,3.1,2.4,4.8,1.6,4.4.4,8.4-3.1,11.4-.2,0-.3.3-.5.4l-.3.3h0v.2h0v.2c.5-.2.9-.3,1.4-.4,1-.3,2.1-.6,3.1-1.1,4-1.9,5.8-5.1,5.1-9.5h.2ZM32.9,34.4h-8.8l1-1.8h0c1.1-1.9,2.2-3.8,3.4-5.8l1.4,2.4h0c1,1.8,2,3.5,3,5.2Z"/>
  </g>
</svg>