<?xml version="1.0" encoding="utf-8"?>
<!-- Generator: Adobe Illustrator 25.0.1, SVG Export Plug-In . SVG Version: 6.00 Build 0)  -->
<svg version="1.1" id="Layer_2_1_" xmlns="http://www.w3.org/2000/svg" xmlns:xlink="http://www.w3.org/1999/xlink" x="0px" y="0px"
	 viewBox="0 0 100.8 100.8" style="enable-background:new 0 0 100.8 100.8;" xml:space="preserve">
<style type="text/css">
	.st0{fill:#FFFFFF;}
</style>
<path class="st0" d="M41.4,46.6L27.3,77.2c0,0,0,1.1,1.8,1.2h26.6v12.2H41.5l-1.4,4.3h-4.8l1.4-4.3h-3.4l-1.8,4.3h-4.9l2-4.8
	L9.9,90.6c0,0-4.6-0.5-0.8-5.7l18.1-38.2h14.2V46.6z M80.9,20.2c0.3-2.1,2-3.8,4.1-4.1l4.8-0.7l-4.5-0.6c-2.3-0.3-4.1-2.1-4.4-4.4
	l-0.6-4.5L79.7,10c-0.4,2.6-2.4,4.6-5,5l-4.1,0.6l4.8,0.7c2.1,0.3,3.8,2,4.1,4.1l0.7,4.8L80.9,20.2z M84.5,9.2c0.1-0.5,0.5-0.9,1-1
	L86.6,8h-1.1c-0.5-0.1-1-0.5-1-1l-0.1-1.1l-0.1,0.9C84.1,7.4,83.6,7.9,83,8l-0.9,0.1l1.1,0.2c0.5,0.1,0.9,0.5,1,1l0.2,1.1L84.5,9.2z
	 M88.9,11.5c0.1-0.5,0.5-0.9,1-1l1.1-0.2l-1-0.1c-0.5-0.1-1-0.5-1-1l-0.1-1.1L88.8,9c-0.1,0.6-0.6,1.1-1.2,1.2l-0.9,0.1l1.1,0.2
	C88.3,10.6,88.7,11,88.9,11.5l0.1,1.1L88.9,11.5z M72,39.6c3.8-0.2,7,2.7,7.3,6.2c0.2,3.1-1.8,6.1-5,7c-9,0.1-18,0.2-27,0.4
	c-1.9,3.9-3.8,7.8-5.6,11.7C52,65,62.3,65.1,72.6,65.1c3.5-0.1,6.5,2.5,6.9,6s-2.1,6.8-5.6,7.4c-4.1,0-8.2,0-12.3,0
	c-0.1,4-0.2,8-0.2,12c18,2.9,30.9-5.7,31.9-15.8c0.7-7.3-3.9-13.8-5.6-15.7c0.8-0.8,6.8-7.3,5.5-15.6c-1.4-8.5-10-15.6-20.8-15.6
	c0.5-1.4,0.9-2.9,1.4-4.3c-1.6,0-3.1,0-4.7,0c-0.6,1.5-1.2,3.1-1.8,4.6c-1,0-2-0.1-3.1-0.1c0.4-1.5,0.8-3,1.2-4.5
	c-1.6,0-3.2-0.1-4.8-0.1c-0.6,1.6-1.3,3.1-1.9,4.7c-14.6,0-29.3,0-43.9,0c-2,3.8-4.1,7.5-6.1,11.3C29.8,39.3,50.9,39.4,72,39.6z"/>
</svg>
