<?xml version="1.0" encoding="UTF-8"?>
<svg id="Layer_2" xmlns="http://www.w3.org/2000/svg" version="1.1" viewBox="0 0 56.7 56.7">
  <!-- Generator: Adobe Illustrator 29.6.0, SVG Export Plug-In . SVG Version: 2.1.1 Build 207)  -->
  <defs>
    <style>
      .st0 {
        fill: #fff;
      }
    </style>
  </defs>
  <path d="M48.9,56.7H8.2C3.8,56.7.2,53.1.2,48.7V8C.2,3.6,3.8,0,8.2,0h40.7c4.4,0,8,3.6,8,8v40.7c0,4.4-3.6,8-8,8Z"/>
  <path class="st0" d="M28.5,6.9c-1.6,0-3.2.3-4.6,1-1.5.6-2.8,1.5-3.9,2.7-1.1,1.1-2,2.5-2.6,4s-.9,3.1-.9,4.7v4.1h9.8v-5.9c0-.3,0-.5.2-.8,0-.3.3-.5.5-.7s.4-.4.7-.5.5-.2.8-.2h.4c.3,0,.5,0,.8.2.3.1.5.3.7.5s.3.4.5.7c0,.3.2.5.2.8v15.8c1.3,0,2.6-.3,3.8-.8s2.3-1.2,3.2-2.1c.9-.9,1.6-2,2.1-3.2s.7-2.5.7-3.8v-4.1c0-3.3-1.3-6.4-3.5-8.7-1.1-1.1-2.4-2-3.9-2.7-1.5-.6-3-.9-4.6-.9h-.4ZM28.7,41.1h-.4c-.3,0-.5,0-.8-.2-.3,0-.5-.3-.7-.5s-.3-.4-.5-.7c0-.3-.2-.5-.2-.8v-15.8c-1.3,0-2.6.3-3.8.8s-2.3,1.2-3.2,2.1c-.9.9-1.6,2-2.1,3.2s-.7,2.5-.7,3.8v4c0,1.6.3,3.2.9,4.7s1.5,2.8,2.6,4c1.1,1.1,2.5,2,3.9,2.7,1.5.6,3.1.9,4.7.9s3.2-.3,4.7-.9c1.5-.6,2.8-1.5,3.9-2.7,1.1-1.1,2-2.5,2.6-4s.9-3.1.9-4.7v-4h-9.8v5.9c0,.3,0,.5-.2.8,0,.3-.3.5-.5.7s-.4.4-.7.5-.5.2-.8.2h.2Z"/>
</svg>