<?xml version="1.0" encoding="UTF-8"?>
<svg id="Layer_2" xmlns="http://www.w3.org/2000/svg" version="1.1" viewBox="0 0 56.7 56.7">
  <!-- Generator: Adobe Illustrator 29.6.0, SVG Export Plug-In . SVG Version: 2.1.1 Build 207)  -->
  <defs>
    <style>
      .st0 {
        fill: #f5b5ff;
      }
    </style>
  </defs>
  <path class="st0" d="M48.9,56.4H8.1C3.7,56.4.1,52.8.1,48.4V7.6C.1,3.2,3.7-.4,8.1-.4h40.7c4.4,0,8,3.6,8,8v40.7c0,4.4-3.6,8-8,8Z"/>
  <path d="M43.8,22.1v8c0,.8-.7,1.7-1.5,1.9l-11.5,2.8c-1.1.2-1.6,1.3-1.1,2.3l3.2,6.6c.3.7,0,1.3-.7,1.5l-17.6,4.1c-.7.2-1.3-.3-1.3-1v-8.7c0-.5.3-.9.8-1l12.6-2.9c1.1-.3,1.6-1.3,1.1-2.3l-2.9-6c-.5-1,0-2,1-2.2l16.6-4c.7-.2,1.3.3,1.3,1ZM15.4,34.8l5.7-1.3c.8-.2,1.4-1,1.4-1.7v-7.4c0-1,.9-2.1,1.9-2.3l18.6-4.5c.5-.1.8-.6.8-1V7.8c0-.7-.6-1.2-1.3-1l-23.3,5.6c-.7.2-1,.8-.7,1.5l3.3,6.8c.4.9,0,1.8-1,2l-6.1,1.4c-.8.2-1.4,1-1.4,1.7v7.3c0,1.2,1,2,2.2,1.7Z"/>
</svg>