<?xml version="1.0" encoding="UTF-8"?>
<svg id="Layer_3" xmlns="http://www.w3.org/2000/svg" version="1.1" viewBox="0 0 56.7 56.7">
  <!-- Generator: Adobe Illustrator 29.5.1, SVG Export Plug-In . SVG Version: 2.1.0 Build 141)  -->
  <defs>
    <style>
      .st0 {
        fill: #ffffa0;
      }

      .st1 {
        fill: #ffda00;
      }

      .st2 {
        fill: #d44547;
      }
    </style>
  </defs>
  <path class="st2" d="M28.9,4.5c14.9.4,26,13.7,23.8,28.5-.3,1.7-.7,3.5-1.3,5.1s-.2.5-.3.6,0,0,0,0l-1.7-.3c1.9-4.2,2.4-8.9,1.6-13.4-1.7-9.3-9.1-16.7-18.4-18.4C17.5,3.8,4.1,16.2,5.5,31.4c.2,2.3.8,4.6,1.8,6.8l-1.8.2c-.7-1.8-1.2-3.6-1.5-5.4C1.7,18.2,12.9,4.9,27.8,4.5c14.9-.4.8,0,1.2,0h0Z"/>
  <path class="st2" d="M27.8,8.8c8.6-.1,16.4,5.2,19.4,13.2s1.7,11.1-.8,16.1c0,0-1.4,0-1.6,0-3-.2-6-.4-9-.5-8.6-.3-17.3-.2-25.9.5h0c-.9-2-1.6-4.2-1.8-6.4-1.4-12,7.8-22.6,19.9-22.8h0ZM32.1,31.3h6.2c.3,0,.7-.4.7-.8v-13.3c-.2-.4-.4-.6-.9-.6h-19.1c-.5,0-.8.3-.8.8v13.1c0,.3.4.8.7.8h6.2v-6.9h-5.2v-4.3h7.8v2.6h1.6v-2.6h8.7v4.3h-6v6.9h0ZM29.4,28.7h-1.8v2.6h1.8v-2.6Z"/>
  <path d="M37.8,14.8h-18.8c-1.5,0-2.7,1.2-2.7,2.7v12.8c0,1.5,1.2,2.7,2.7,2.7h18.8c1.5,0,2.7-1.2,2.7-2.7v-12.8c0-1.5-1.2-2.7-2.7-2.7ZM26.7,24.4h-5.2v-1.8h5.2v1.8ZM36.2,24.4h-5.2v-1.8h5.2v1.8Z"/>
  <path class="st0" d="M31.8,31.3v-6.9h6v-4.3h-8.7v2.6h-1.6v-2.6h-7.8v4.3h5.2v6.9h-6.2c-.3,0-.7-.5-.7-.8v-13.1c0-.5.4-.8.8-.8h19.1c.4,0,.7.2.8.6v13.3c0,.3-.4.8-.7.8,0,0-6.2,0-6.2,0ZM27.4,28.7h0v2.6h1.8v-2.6h-1.8Z"/>
  <g>
    <path class="st1" d="M.4,50.9c.4-2.3,1-4.9,1.5-7.2s.4-1.9.6-2.7,0-.3.4-.4c.4,0,.9,0,1.3,0h0c.1,0,.9,1.7,1.1,2s0,0,.2,0l2.1-2.6h.9c.3,0,.8,0,.9,0l-1.4,9.3-2,.4.7-4.8h-.5v.6h-.6c0,0-.1.7-.1.7l-.5.2v.7c-.2,0-.6,0-.6,0s.2-.7.2-.8-.4,0-.5,0v-.7s-.5.2-.5,0,.1-.6.1-.6h-.4l-1.1,5.5h-.1c0,0-1.8.6-1.8.6h-.1c0,0,.2-.2.2-.2Z"/>
    <path class="st1" d="M56.4,50.4c0,.2-.4.6-.7.6s-.8-.3-1.1-.4c-1.1-.3-2.2-.6-3.4-.9h0c0,0,0-.8-.2-1,0-.3-.2-.8-.2-1.1s0,0,0-.2c0,0,2.9.6,3.3.7h0c0-.5,0-1.1-.3-1.5s0,0,0-.2l-3.2-.8-.8-4.5c0-.2.3-.3.5-.4s.3-.3.4-.5h0c1,0,2,.2,2.9.4s.5,0,.6.2l.5,2h-.2c-.5,0-1.2-.2-1.8-.3s-.7,0-1,0c0,0,.3,1.4.3,1.6,1,.3,2,.4,3,.8,0,.2,0,.4.2.6l.9,4.7v.3h.4Z"/>
    <path class="st1" d="M43.1,48.5l-1.8-.2c0,0,0-.3,0-.4-.2-1.3,0-2.8-.3-4.1s0-.2,0-.2h-.4v.6c0,0-.4,0-.5,0s0,.5,0,.5h-.5c0,.2,0,.7,0,.7-.4,0-.4-.4-.5-.7h-.5v-.6h-.5c0-.2,0-.5,0-.7h-.5l.3,4.5h-1.7l-.5-8.7h1.8l1.9,2.2h.2c0,0,1.4-2,1.4-2h1.5c.3,0,0,0,0,0l.9,8.8-.2.3Z"/>
    <path class="st1" d="M47.5,43.8c0,.2.2,1.5.2,1.6s-2-.2-2.2,0c0,.2,0,.4,0,.5s0,.7,0,.8,0,0,.2,0c.6,0,1.5.2,2.2.3s1.7.2,1.8.3l.3,2.1h0c-1.4-.2-2.8-.5-4.2-.7s-1.9-.2-2-.3l-1-8.9h.4c.6,0,1.2,0,1.8.2,1.1,0,2.3,0,3.4.3s.3,0,.3,0c0,0,.2,1.5.3,1.7h0c-1.3,0-2.5-.2-3.8-.2h0l.2,1.7,3.7.4c0,0,0,.2,0,.2h-1.7Z"/>
    <path class="st1" d="M16,41.2l-4,.4-.2,1.5h0c0,0,3.6-.2,3.6-.2.2,0,.2.2,0,.3-.2.2-1.6,0-1.7.2l-.2,1.6-2.2.3-.2,1.4c1.2,0,2.4-.3,3.6-.4s.5,0,.6,0,0,.2,0,.3c0,.4,0,1-.2,1.5s0,.3,0,.3l-6.2.8v-.3c.3-3,.9-5.9,1.3-8.8,0-.2.3-.2.5-.2.6,0,1.1,0,1.7,0,1.2,0,2.4-.2,3.6-.2h0l-.2,1.7h.1Z"/>
    <path class="st1" d="M22.4,47.8h0l-6.2.4.9-8.7c0-.2.8,0,1,0,1.4,0,2.7-.2,4.1-.2s.7,0,.7,0c0,0,0,1.5-.2,1.7l-3.9.2v.6c0,.2,0,1,0,1h2.1c.5,0,1,0,1.3,0s0,0,.2,0v.3h-1.5c0,0,0,.2,0,.2v1.3l-2.2.2v1.2c0,.4,0,0,0,0l3.3-.2h.7v1.9h-.3Z"/>
    <path class="st1" d="M29,41h-3.7v4.9h2v-1.1h-.7c-.2-.2,0-.4,0-.5v-1.3c.7,0,1.5,0,2.3,0s.3,0,.3,0v4.8h-3.6c-1.1,0-1.4,0-2,0s-.2,0-.2,0l.3-7.6c0-.2.4-.3.6-.4s.3-.3.3-.5h4.7v1.7h-.3Z"/>
    <path class="st1" d="M34.5,39.4h0c-1.3-.2-2.5,0-3.8,0,0,.5-.5.7-.9.8v4.5c0,1,0,2.3,0,3.2h0c0,0,1.9,0,1.9,0v-1.8h1.2v1.7h1.8l-.4-8.5h.2ZM31.7,44.2v-3.1h1.1v3.1h-1.1Z"/>
  </g>
</svg>