<?xml version="1.0" encoding="utf-8"?>
<!-- Generator: Adobe Illustrator 25.0.1, SVG Export Plug-In . SVG Version: 6.00 Build 0)  -->
<svg version="1.1" id="Layer_1" xmlns="http://www.w3.org/2000/svg" xmlns:xlink="http://www.w3.org/1999/xlink" x="0px" y="0px"
	 viewBox="0 0 304 304" style="enable-background:new 0 0 304 304;" xml:space="preserve">
<style type="text/css">
	.st0{fill-rule:evenodd;clip-rule:evenodd;fill:#FEFEFE;}
	.st1{fill-rule:evenodd;clip-rule:evenodd;fill:#FFFFFF;}
	.st2{fill-rule:evenodd;clip-rule:evenodd;fill:url(#_391180104_1_);}
</style>
<g id="Layer_x0020_1">
	
		<image style="overflow:visible;opacity:0.75;" width="360" height="360" xlink:href="D30688AA.png"  transform="matrix(1 0 0 1 -27.9732 -27.9717)">
	</image>
	<g>
		<g>
			<g id="_390771048_9_">
				<path id="_391180032_12_" class="st0" d="M152,13.6c-76.4,0-138.4,62-138.4,138.4s62,138.4,138.4,138.4
					c76.4,0,138.4-62,138.4-138.4C290.4,75.6,228.4,13.6,152,13.6z M152,22.5c-71.5,0-129.5,58-129.5,129.5s58,129.5,129.5,129.5
					s129.5-58,129.5-129.5S223.5,22.5,152,22.5z"/>
				<circle class="st1" cx="152" cy="152" r="133.4"/>
				
					<linearGradient id="_391180104_1_" gradientUnits="userSpaceOnUse" x1="-90.5841" y1="465.2133" x2="-83.1914" y2="516.9614" gradientTransform="matrix(5.0413 0 0 -5.0413 590.0239 2627.6997)">
					<stop  offset="0" style="stop-color:#944A95"/>
					<stop  offset="0.4" style="stop-color:#00A0E3"/>
					<stop  offset="0.9882" style="stop-color:#13D2E8"/>
					<stop  offset="1" style="stop-color:#964994"/>
				</linearGradient>
				<path id="_391180104_12_" class="st2" d="M146.2,22.6C77.3,25.7,22.5,82.4,22.5,152c0,55.7,35.1,103.1,84.4,121.4
					c65.1,1.3,94.1-42.7,103.7-60.8c11.4-21.4,4.2-32.4,2.4-34.8c-21.5-27.4-61.8-62.5-61.8-62.5c-10.2-8.6-8.6-15-8.6-15
					c2.3-17.8,43.7-19.5,51.7-19c73.4,3.8,62.4,85.1,62.4,85.1c-13.1,72.3-63.9,102.5-98.8,115.1c68.8-3.1,123.7-59.8,123.7-129.4
					c0-55.7-35.1-103.1-84.4-121.4C132.1,29.2,103,73.3,93.5,91.3c-11.4,21.4-4.2,32.4-2.4,34.8c21.5,27.4,61.8,62.5,61.8,62.5
					c10.2,8.6,8.6,15,8.6,15c-2.3,17.8-43.7,19.5-51.7,19c-73.4-3.8-62.4-85.1-62.4-85.1C60.5,65.3,111.2,35.2,146.2,22.6
					L146.2,22.6z M95.3,180.7c2.9,1.6,3.9,5.3,2.3,8.2c-1.6,2.9-5.3,3.9-8.2,2.3c-2.9-1.6-3.9-5.3-2.3-8.2
					C88.7,180,92.4,179,95.3,180.7L95.3,180.7z M103.5,166.3c2.9,1.6,3.9,5.3,2.3,8.2c-1.6,2.9-5.3,3.9-8.2,2.3
					c-2.9-1.6-3.9-5.3-2.3-8.2C96.9,165.7,100.6,164.7,103.5,166.3L103.5,166.3z M81,172.5c2.9,1.6,3.9,5.3,2.3,8.2
					s-5.3,3.9-8.2,2.3c-2.9-1.6-3.9-5.3-2.3-8.2C74.4,171.8,78.1,170.8,81,172.5L81,172.5z M89.1,158.1c2.9,1.6,3.9,5.3,2.3,8.2
					c-1.6,2.9-5.3,3.9-8.2,2.3c-2.9-1.6-3.9-5.3-2.3-8.2C82.6,157.5,86.3,156.5,89.1,158.1L89.1,158.1z M208.7,123.3
					c-2.9-1.6-3.9-5.3-2.3-8.2c1.6-2.9,5.3-3.9,8.2-2.3c2.9,1.6,3.9,5.3,2.3,8.2C215.3,124,211.6,125,208.7,123.3L208.7,123.3z
					 M200.5,137.7c-2.9-1.6-3.9-5.3-2.3-8.2c1.6-2.9,5.3-3.9,8.2-2.3c2.9,1.6,3.9,5.3,2.3,8.2S203.4,139.3,200.5,137.7L200.5,137.7z
					 M223,131.5c-2.9-1.6-3.9-5.3-2.3-8.2c1.6-2.9,5.3-3.9,8.2-2.3c2.9,1.6,3.9,5.3,2.3,8.2C229.6,132.2,225.9,133.2,223,131.5
					L223,131.5z M214.9,145.9c-2.9-1.6-3.9-5.3-2.3-8.2c1.6-2.9,5.3-3.9,8.2-2.3s3.9,5.3,2.3,8.2
					C221.4,146.5,217.7,147.5,214.9,145.9L214.9,145.9z"/>
			</g>
		</g>
	</g>
</g>
</svg>
