<?xml version="1.0" encoding="UTF-8"?>
<svg id="Orochi" xmlns="http://www.w3.org/2000/svg" viewBox="0 0 56.7 56.7">
  <defs>
    <style>
      .cls-1 {
        fill: #ff4608;
      }
    </style>
  </defs>
  <path class="cls-1" d="M53.4,27.8c-.4-1.2-1.1-2.4-2.1-3.3,0,0,0-.2,0-.3.9.4,1.8,1,2.4,1.8,0-1.3-.4-2.6-1.2-3.6-.8-1-1.8-1.9-3-2.5.7,0,1.4.2,2,.5.6.3,1.2.6,1.8.9-.3-1.4-1.1-2.7-2.2-3.7-1.1-.9-2.5-1.6-3.9-1.7,1.4-.3,2.9,0,4.1.8-.7-1.3-1.8-2.3-3-3.1-1.3-.7-2.7-1.1-4.2-1.1h0c1.4-.3,2.8-.3,4.2,0-.9-.9-1.9-1.5-3.1-1.9-1.1-.4-2.3-.6-3.6-.6.6-.5,1.4-.9,2.2-.9,1-.1,2,0,2.8.6-1.8-1.8-3.1-2.5-5.3-2.4-1.1.1-2.1.5-2.9,1.1,1.4-1.5,2.4-3.3,2.9-5.3-.2.3-.9,1.2-1,1.4-.9,1-2.1,1.8-3.4,2.2-1.3.4-2,.2-3.4.5h0c2.2-2.6,4.8-4.8,7.7-6.4-3.4.9-6.5,2.6-9.2,4.8,1.8-1.8,3.8-3.4,6.1-4.6h-.3c0,0-.2,0-.3,0-3.1.9-6,2.5-8.5,4.6-1.6,1.3-3,2.8-4.2,4.5,0,0-.5,0-.5,0-.4-.4-.2-1.5-.3-1.3-.3.6-.8,3-1.2,3.4-1.6,1.7-2.7,2.7-4.4,4.4-.3.3-.3.8-.4,1.2l-.3,1.5,1.5-1.3c.2-.2.6-.5.9-.7,0-.5.2-.8,1-.9-.1.4-.1.9-.4,1.1-.8.9-1.8,1.5-2.8,1.9-.3,0-.5.2-.8.4-.7.6-1.4,1.3-2.1,1.9-.7.6-.8.5-1-.2,0,0,0-.2,0-.3-.9,1.1-.9,3.6,0,4.1l.5-1.7c.7.4.6.3.1.6-.2.2-.3.4-.4.6,0,.3,0,.6.2.8.3.2.5.3.9.4.3-.4.5-.8.7-1.2.3-.4.5-.8.8-1.1.3-.3.6-.6.9-.9h0c-.3.4-.5.7-.8,1.1-.7,1.1-.8.8,0,1.7,0,0,0,0,0,.1-.2,0-.4,0-.6-.1-.4-.3-.5,0-.7.2-.2.2-.2.5.1.7.8.4,1.7.5,2.5.3.3,0,.5-.1.8-.3l-.4-.3c-1.3-1-1-1.9.5-2.6,1.8-.9,3.9-1.5,5.9-1.8.8-.1,1.7-.2,2.5-.3,0-.2,0-.3-.1-.4-.3-.8-.9-.8,0-.9h1.4s2.5.1,2.5,0h0c0,0,0,0,0,0v-.2s0,0,0,0c-.5-.9-.6-2-.5-3,0-.3,0-.7.1-1,0-.4-.1-.4-.4-.3-.5,0,.2-.3.3-.4h0c0-.2,0-.3,0-.4-.2-.5-.4-1.1-.5-1.7,0-.4,0-.7,0-1,0-.4.3-.6.5-.9-.1.3-.3.6-.4.9,0,.8.1,1.6.6,2.2.2.3.4.7.4,1,0,.4,0,.8-.1,1.1-.2.5-.2,1.2,0,1.7.4-.2.8-.3,1.2-.4,1.9,0,3.9.5,5.4,1.6,2.2,1.8,3.7,4.3,4.2,7.1,0,.4.1.8.1,1.2v2.6c1-3.4.9-7.1-.5-10.5.4.8.7,1.7,1,2.5.8,2.1,1,4.4.7,6.6-.3,2.2-1,4.3-2.2,6.2-3.2,5-8.1,6.7-13.8,6.7,3.6,1.5,7.7,1.6,11.5.2,2.6-.9,4.9-2.5,6.8-4.6-.9,2.6-2.4,5.1-4.3,7.1-1.9,2-4.3,3.6-6.9,4.7-2.6,1-5.4,1.5-8.2,1.4-2.8-.1-5.5-.9-8-2.1h0c-3.2-1.6-6-4.1-7.9-7.2-1.9-3.1-2.9-6.6-3-10.3,0-3.6.9-7.2,2.8-10.3,1.9-3.1,4.5-5.6,7.8-7.3.3-2.5,3.1-5.5,6.6-7.1-4.7.5-9.1,2.2-12.8,5.2-3.7,2.9-6.4,6.8-8,11.2-1.5,4.4-1.8,9.2-.7,13.8,1.1,4.5,3.4,8.7,6.8,12h0c3.2,3.2,7.1,5.4,11.5,6.4,4.4,1,9,.9,13.2-.5,4.3-1.4,8.1-3.9,11.1-7.3,3-3.4,4.9-7.5,5.7-12,0-.2.2-.3.5-.1v-1.9h.1s.6.9.6.9c.1-1.2,0-2.4-.1-3.6.3.4.5.6.7.9.3-1.3.2-2.7-.2-3.9h0Z"/>
</svg>