<?xml version="1.0" encoding="UTF-8"?>
<svg id="oxirio" xmlns="http://www.w3.org/2000/svg" version="1.1" xmlns:xlink="http://www.w3.org/1999/xlink" viewBox="0 0 56.7 56.7">
  <!-- Generator: Adobe Illustrator 29.6.0, SVG Export Plug-In . SVG Version: 2.1.1 Build 207)  -->
  <defs>
    <style>
      .st0 {
        fill: #fff;
      }

      .st1 {
        fill: url(#linear-gradient);
      }
    </style>
    <linearGradient id="linear-gradient" x1="39.9" y1="490.9" x2="39.9" y2="454" gradientTransform="translate(0 -440.3)" gradientUnits="userSpaceOnUse">
      <stop offset="0" stop-color="#ff6c1a" stop-opacity="0"/>
      <stop offset="1" stop-color="#ff6c1a"/>
    </linearGradient>
  </defs>
  <g id="Layer_52">
    <g id="dark1">
      <path class="st1" d="M51,15.6l-22.7,13v26.2l23.1-13.2s-.4-26-.4-26Z"/>
      <path class="st0" d="M28.3,56c-.7,0-1.5-.2-2.1-.6l-20.3-11.7c-1.3-.7-2.1-2.1-2.1-3.6v-23.4c0-1.5.8-2.9,2.1-3.6L26.2,1.3c1.3-.7,2.9-.7,4.2,0l20.3,11.7c1.3.7,2.1,2.1,2.1,3.6v23.4c0,1.5-.8,2.9-2.1,3.6l-20.3,11.7c-.6.4-1.4.6-2.1.6h0ZM28.3,3.5c-.2,0-.5,0-.7.2L7.4,15.4c-.4.2-.7.7-.7,1.2v23.4c0,.5.3,1,.7,1.2l20.3,11.7c.4.2,1,.2,1.4,0l20.3-11.7c.4-.2.7-.7.7-1.2v-23.4c0-.5-.3-1-.7-1.2L29,3.7c-.2,0-.5-.2-.7-.2Z"/>
      <path class="st0" d="M28.3,43.9c-.5,0-1,0-1.5-.4l-10.9-6.3c-.9-.5-1.5-1.5-1.5-2.5v-12.6c0-1,.6-2,1.5-2.5l10.9-6.3c.9-.5,2-.5,2.9,0l10.9,6.3c.9.5,1.5,1.5,1.5,2.5v12.6c0,1-.6,2-1.5,2.5l-10.9,6.3c-.4.3-1,.4-1.5.4h.1ZM28.3,15.7h0l-10.9,6.3h0v12.6h0l10.9,6.3h0l10.9-6.3h0v-12.6h0l-10.9-6.3h0Z"/>
      <path class="st0" d="M26,27.4v2c0,.2.1.5.3.6l1.7,1c.2.1.5.1.7,0l1.7-1c.2-.1.3-.3.3-.6v-2c0-.2-.1-.5-.3-.6l-1.7-1c-.2-.1-.5-.1-.7,0l-1.7,1c-.2.1-.3.3-.3.6Z"/>
      <path class="st0" d="M50.4,14.1l-22.8,13,1.4,2.5,22.8-13-1.4-2.5Z"/>
    </g>
  </g>
</svg>