<?xml version="1.0" encoding="UTF-8"?>
<svg id="Panenka" xmlns="http://www.w3.org/2000/svg" viewBox="0 0 56.7 56.7">
  <defs>
    <style>
      .cls-1 {
        fill: #fff;
      }

      .cls-2 {
        fill: #39c962;
      }
    </style>
  </defs>
  <path class="cls-1" d="M23.7,28l-.3-.4c-2.6-1.9-5.2,1.3-3.9,3.9.9,1.6,3.1,1.9,4.2.4v.8h2v-5.5h-2v.7ZM22.4,31.3c-1.7,0-1.7-2.5,0-2.6,1.7,0,1.8,2.6,0,2.6ZM44.1,32.7v-3.7c0-1.9-2.9-2.6-4.1-1.3,0,0,0,.1-.1.2v-.7h-2v1.6-.3c-.7-1.3-2.2-1.6-3.5-1.4-1,.2-1.9.9-2.1,1.9l-.2-.6c-.6-1.5-2.9-1.8-3.9-.5,0,0,0,.1,0,.1v-.7h-2v5.5h2v-3.2c0,0,.1-.4.2-.5.5-.7,1.6-.7,1.9.1,0,.1,0,.4,0,.5v3.1h2v-1.7l.3.6c.7,1.1,2,1.3,3.3,1.3.7,0,1.4-.3,1.9-.7l-.8-1.3c-.8.7-2.8.9-2.9-.5h3.8v2.3h2v-3.2c0-.3.3-.7.5-.8.7-.5,1.7-.1,1.7.8v3.2h2ZM34.1,29.4c.1-.7.5-.9,1.2-.9.5,0,.8.4.8.9h-2ZM46.5,32.7h-2v-8.8h2v5.2l1.9-1.9h2.3l-2.6,2.6,2.8,2.9h-2.4l-2.1-2.2v2.2ZM17.1,24h-3.6v8.8h2v-3.2c1.4,0,3.1,0,3.9-1.4,1.1-1.9-.1-4.2-2.3-4.2ZM16.4,27.9h-.8v-2.4h.9c.4,0,1,.3,1.1.8.2.8-.3,1.6-1.2,1.6ZM54.3,27.3v.7l-.3-.3c-1.2-1-2.9-.7-3.8.6-1,1.5-.5,3.9,1.3,4.5,1.1.3,2.1,0,2.8-.9v.8h2v-5.5h-2ZM53.1,31.3c-1.7,0-1.7-2.5,0-2.6,1.7,0,1.8,2.6,0,2.6ZM54.7,33.8c.6.1,1.2.4,1.6.7h0c0,0-.9,1.7-.9,1.7-1.2-.8-3.1-.8-4.1.4-.9,1.1-.6,3,.6,3.8,1,.6,2.5.5,3.4-.1l.9,1.7h0c-1,.7-2.4,1-3.6.8-1.9-.3-3.6-1.7-3.9-3.6h-2.8v3.5h-2v-8.8h5.1v1.7h0s-3.1,0-3.1,0v1.8h2.8c.3-1.7,1.7-3.1,3.3-3.5.8-.2,1.8-.2,2.6,0Z"/>
  <path class="cls-2" d="M.4,39.2c0,.1,0,.2,0,.4v1c.6,2,2.2,3.6,4.2,4.1l1,.2h.6c4.4-.3,6.8-5.5,4-9-3.2-3.9-9.5-1.8-9.8,3.3ZM8,41.9c-1.8,1.5-4.6.7-5.3-1.6-.6-2,.8-4.1,2.8-4.3,3.2-.3,4.9,3.7,2.5,5.8ZM25.3,17.1c-1,1.1-2.3,2.1-3.3,3.3-1,.9-2.5-.3-1.7-1.4l1.5-1.5c-5.5-.3-10.7,2.7-13.2,7.5-1,1.9-1.6,4-1.7,6.1,0,.6.1,1.1-.5,1.5-.9.6-1.8-.1-1.7-1.1.1-8.9,7.2-16,16.1-16.3.4,0,.7,0,1.1,0-.5-.6-1.1-1.1-1.6-1.7-.4-.6,0-1.5.8-1.6,0,0,.2,0,.3,0,.2,0,.5.2.6.3,1,1.1,2.4,2.2,3.3,3.3.4.5.4,1.1,0,1.6Z"/>
</svg>