<?xml version="1.0" encoding="UTF-8"?>
<svg id="Popcorncine" xmlns="http://www.w3.org/2000/svg" version="1.1" viewBox="0 0 56.7 56.7">
  <!-- Generator: Adobe Illustrator 29.6.0, SVG Export Plug-In . SVG Version: 2.1.1 Build 207)  -->
  <defs>
    <style>
      .st0 {
        fill: #077ba0;
      }

      .st1 {
        fill: #f8d898;
      }

      .st2 {
        fill: #fb4d06;
      }

      .st3 {
        fill: #d13011;
      }

      .st4 {
        fill: #000e1b;
      }

      .st5 {
        fill: #fbd367;
      }

      .st6 {
        fill: #2a1923;
      }

      .st7 {
        fill: #f47502;
      }

      .st8 {
        fill: #59211f;
      }

      .st9 {
        fill: #fd9a04;
      }

      .st10 {
        fill: #fea401;
      }

      .st11 {
        fill: #362842;
      }

      .st12 {
        fill: #e93b0c;
      }

      .st13 {
        fill: #353535;
      }

      .st14 {
        fill: #1595cb;
      }

      .st15 {
        fill: #fdbf1a;
      }

      .st16 {
        fill: #992010;
      }
    </style>
  </defs>
  <path class="st13" d="M48.7,56.7H8c-4.4,0-8-3.6-8-8V8C0,3.6,3.6,0,8,0h40.7c4.4,0,8,3.6,8,8v40.7c0,4.4-3.6,8-8,8Z"/>
  <g id="Layer_2">
    <g>
      <path class="st0" d="M28.2,6h0s0,0,0,0c0,0,0,0,0,0,.1,0,.3.2.4.2.4.2.8.6,1.1,1,0,0,.1.1.2.2.1.2.3.3.4.5.2.4.4.8.5,1.2,0,0,0,.1.2.1.4,0,.8,0,1.2,0,.3,0,.5.1.7.2.4.1.7.4,1.1.6.2.2.5.4.6.7.3.4.5.8.7,1.2,0,.2.2.5.2.9,0,0,0,.2,0,.3,0,0,0,0,0,0,.1,0,.3.1.5.2.6.3,1,.8,1.5,1.4.1.2.2.4.4.6.1.4.2.6.3.7,0,.1,0,.4.2.9,0,0,0,0,0,0,0,.2,0,.5,0,.9,0,.2,0,.5,0,.6,0,.2,0,.3-.1.4-.1.3-.3.7-.5.9,0,0-.1.2-.2.3-.1.2-.4.5-.8.7,0,0,0,0,0,0,0,.3,0,.5,0,.8,0,.2,0,.3,0,.6,0,.2,0,.4,0,.6,0,0,0,.2,0,.5,0,.1,0,.3,0,.5,0,.3,0,.7,0,1,0,0,0,.3,0,.4,0,0,0,.2,0,.3,0,.2,0,.5,0,.8,0,.4,0,.8-.1,1.2,0,.2,0,.4,0,.6,0,.3,0,.5,0,.6,0,.2,0,.4,0,.6,0,.2,0,.4,0,.6,0,.4-.1.8-.1,1.2,0,0,0,0,0,0,.4.1,1.4.2,1.6-.1.2-.3.5-.6.9-.8,0,0,.2-.2.3-.4-.4-.2-.6-.4-.7-.5-.3-.4-.4-.9-.2-1.4.2-.4.5-1,.9-1.9.7-1.5,1.4-3,2.1-4.6h0s0,0,0,0c.2-.5.5-1,.7-1.5.2-.5.4-.9.6-1.4,0,0,0,0,0,0,.1-.4.3-.7.6-.9.4-.2.7,0,1.1,0,.4.1.6-.3.8-.6.2-.4.6-.6,1-.7.4,0,.8,0,1.2.2.7.2,1.2.6,1.2,1.3,0,.4,0,.6,0,.6.1.7.7,1,1.3,1,.3,0,.5-.2.8-.4.4-.3.8-.3,1.2,0,.2.1.3.2.4.2.2.1.4.3.6.4.3.2.4.3.5.5.2.3.3.6.2,1,0,.2-.2.4-.2.6,0,.5.6.6.8,1,.2.4.3.8,0,1.2-.1.2-.2.4-.2.5-.3.7-.9,1.9-1.8,3.7-.9,1.8-1.6,3.4-2.8,5.8-.2.4-.6.6-1.1.6,0,0,0,0,0,0-.2,0-.3,0-.5-.1-.5,0-.6.3-.8.6,0,0,0,0,0,0-.3.3-.6.3-1,.3-.2,0-.4-.1-.5-.2,0,0,0,0,0,0-.1.2-.2.3-.4.5-1.1,1.1-2.7,1.7-4.2,1.7-.3,0-.5,0-.9-.1,0,0-.1,0-.2,0-1.1.5-2.3.6-3.4.4-.3,0-.5-.1-.7-.2,0,0,0,0,0,0,0,0,0,0,0,0,0,.1,0,.2,0,.3,0,.4,0,.8-.2,1.2,0,.3-.2.6-.5.9-.6.2-1.2.2-1.9.2.2,0,.4-.1.6-.1.2,0,.4,0,.5-.1.7-.3.8-.9.8-1.6,0-.5.1-1,.2-1.5.2,0,.3.1.4.2,0,0,.3.1.7.2.2,0,.4,0,.6,0,.4,0,.5,0,.6,0,.6,0,1.2,0,1.7-.3.2,0,.5-.2.6-.3,0,0,.1,0,.2,0,.5.2,1,.2,1.6.1,1.4-.2,2.6-.8,3.5-1.9,0-.1.1-.2.2-.3,0,0,.1,0,.2,0,.2,0,.4.2.5.2.4.2.7.1.9-.3,0-.1.1-.2.1-.2.3-.3.7-.5,1.1-.4.4.1.9.2,1.1-.2.1-.3.3-.5.3-.6.3-.6.5-1.1.8-1.6.2-.3.3-.6.4-1,.1-.3.3-.5.4-.7.4-.9.8-1.8,1.3-2.7.1-.2.4-.8.8-1.6.1-.3.3-.6.4-.8.2-.3.3-.6.4-.8.1-.3.1-.6,0-.9-.1-.2-.3-.3-.6-.5-.1,0-.2-.2-.3-.5-.1-.3,0-.5,0-.8,0-.2.1-.3,0-.4,0-.2-.1-.4-.3-.5-.3-.2-.5-.3-.7-.5-.3-.2-.7-.4-1-.2-.3.2-.5.3-.5.3-.4.2-.8.2-1.2,0-.6-.2-1-.5-1.2-1-.2-.3-.1-.5-.2-.9,0-.4-.3-.7-.7-.8-.2,0-.4-.1-.6-.2-.4,0-.6,0-.9.2-.2.1-.3.4-.4.6-.2.3-.5.5-.8.5l-.8-.2s0,0,0,0c-.3,0-.5.2-.6.5-.8,1.7-1.2,2.7-1.5,3.2-.4.9-.9,2-1.4,3.1-.1.3-.2.5-.3.7-.1.2-.2.5-.3.7-.2.4-.5,1.2-1.1,2.4-.1.3-.1.6,0,.8.1.2.5.3.7.4.1,0,.2.1.3.2.2.2,0,.6-.2.7-.2.1-.4.2-.5.3-.2,0-.4.3-.6.6,0,0,0,0,0,0v.2c0,0-.1.1-.2.1l-.5.2s0,0,0,0h-.8c0,0-.1,0-.2,0-.2,0-.4-.1-.6-.1,0,0-.1,0-.2,0,0,0,0,0,0,0,0-.6.2-1.1.2-1.6,0-.5,0-.8.1-1.3,0-.2,0-.6.1-1,0-.2,0-.4,0-.5,0-.2,0-.4,0-.7,0-.3,0-.5,0-.7,0-.4,0-.8.1-1.2,0,0,0-.3,0-.7,0,0,0,0,0,0,0,0,0,0,0,0,0-.3.1-.7.1-1,0-.3,0-.5,0-.8,0-.3,0-.5,0-.8,0,0,0,0,0,0,0-.1,0-.3,0-.4,0,0,0,0,0,0,.3-.2.5-.3.7-.6,0,0,0,0,0,0,0,0,0,0,0,0l.3-.4c0,0,0,0,.1,0,.2-.3.4-.7.5-1.1,0-.1,0-.2,0-.4,0,0,0-.2,0-.3,0-.5,0-.9,0-1.3,0-.2,0-.5-.2-.7-.1-.4-.2-.6-.3-.6-.1-.2-.2-.3-.2-.4,0-.1-.2-.3-.3-.4-.2-.2-.3-.3-.5-.5-.2-.1-.4-.3-.6-.5-.2-.1-.5-.2-.8-.3,0,0,0,0,0-.1,0-.2,0-.5,0-.7,0,0,0,0,0,0-.1-.6-.3-1-.6-1.4-.1-.2-.3-.5-.6-.8,0,0,0,0,0,0-.4-.2-.6-.4-.9-.5-.3,0-.5-.2-.7-.2-.2,0-.4,0-.6,0,0,0,0,0-.1,0-.2,0-.4,0-.6,0,0,0-.2,0-.2,0,0,0,0,0,0,0,0,0,0,0,0,0v-.3s0,0,0,0c-.2-.6-.4-1-.4-1.1-.2-.4-.4-.6-.4-.6-.2-.2-.4-.5-.8-.8,0,0-.2-.2-.3-.2,0,0-.2-.1-.3-.2-.1,0-.4-.2-.8-.4-.2-.1-.5-.1-.7-.2-.4-.1-.8-.1-1.1-.2,0,0-.2,0-.4,0-.4,0-.6,0-.9.1-.3,0-.6.2-.8.2-.3,0-.8.4-1,.5-.9.5-1.5,1.3-1.9,2.2,0,0,0,.2-.1.3,0,0,0,0-.1,0,0,0,0,0,0,0-.2,0-.4-.1-.5-.1-.1,0-.3,0-.5,0-.4,0-.8,0-1.3.1-.3,0-.6.2-.8.3-.3.1-.5.3-.7.5-.2.2-.4.4-.6.6-.5.6-.8,1.2-1,2,0,.3,0,.5,0,.8,0,0,0,.2,0,.2,0,0,0,0,0,0-.7,0-1.4.3-2,.8,0,0-.3.2-.5.4,0,0,0,0,0,0-.1.1-.2.3-.3.4,0,0,0,0,0,.2,0,0,0,0,0,0,0,0,0,0,0,0h0s0,0,0,0c0,0,0,0,0,0,0,0,0,0,0,0-.6,1-.8,2.2-.7,3.3,0,.3.1.7.2.9,0,0,0,0,0,0-.4.4-.6.8-.5,1.4.2,1.4.4,2.7.6,4.1,0,.5.1,1,.2,1.7,0,.3,0,.5,0,.6,0,.3,0,.6.1.8.1.9.2,1.5.2,1.7,0,.5.1,1.1.2,1.7,0,.6.2,1.1.2,1.7,0,0,0,.1,0,.2,0,.6.3,2.3.7,4.9,0,0,0,.3,0,.6,0,.2.4.3.6.4,0,0,0,0,0,0,0,0,0,0,0,0h-.6c0,0,0,0,0,0h-.3c-.1-.4-.2-.7-.2-1,0-.3,0-.4,0-.4-.2-1.2-.4-3.1-.8-5.8-.5-3.8-.8-6.2-1-7.1-.3-2.6-.5-4-.6-4.1,0-.2,0-.4,0-.7,0-.4.3-.7.5-1,0,0,0,0,0-.1-.4-1.3-.3-2.6.3-3.8.6-1.2,1.6-2.1,3-2.5,0,0,.1,0,.2,0,0,0,0,0,0,0,.1-1.2.6-2.3,1.4-3.1,1.1-1.1,2.7-1.6,4.2-1.3,0,0,0,0,0,0,1-2,3-3.3,5.2-3.3,1,0,1.9.2,2.8.7Z"/>
      <path class="st14" d="M37.3,19.9c.5-.7.7-1.5.6-2.4,0-1.3-.6-2.4-1.6-3.2-.4-.3-.8-.6-1.3-.7,0,0,0,0,0,0,0-.8-.2-1.6-.6-2.2-.8-1.3-2.3-1.8-3.8-1.4,0,0,0,0,0,0,0,0,0,0,0,0-.2-.9-.6-1.8-1.3-2.5-.7-.7-1.5-1.2-2.5-1.4-2-.4-4,.2-5.3,1.7-.4.5-.7,1-.9,1.5,0,0,0,0,0,0,0,0,0,0,0,0-1.4-.6-2.8-.2-3.9.7-1,.8-1.5,2.1-1.5,3.4,0,0,0,0,0,0-1.2.1-2.2.7-2.9,1.7,0,0,0,0,0,0,0,0,0,0,0,0,0,0,0,0,0,0h0s0,0,0,0c0,0,0,0,0,0,0,0,0-.1,0-.2.1-.1.2-.3.3-.4,0,0,0,0,0,0,.2-.2.4-.3.5-.4.6-.4,1.2-.7,2-.8,0,0,0,0,0,0,0,0,0-.1,0-.2,0-.3,0-.5,0-.8.2-.7.5-1.4,1-2,.2-.2.4-.4.6-.6.2-.2.5-.3.7-.5.2-.1.4-.2.8-.3.5-.1.9-.2,1.3-.1.2,0,.4,0,.5,0,.1,0,.3,0,.5.1,0,0,0,0,.1,0,0,0,0,0,0,0,0-.1,0-.2.1-.3.4-.9,1.1-1.6,1.9-2.2.2-.1.7-.4,1-.5.2,0,.6-.2.8-.2.2,0,.5,0,.9-.1.2,0,.3,0,.4,0,.3,0,.7,0,1.1.2.2,0,.5.1.7.2.4.2.7.3.8.4.1,0,.2.2.3.2.1,0,.2.1.3.2.3.3.6.6.8.8,0,0,.2.3.4.6,0,.1.2.5.4,1.1,0,0,0,0,0,0v.3s0,0,0,0c0,0,0,0,0,0,0,0,.1,0,.2,0,.2,0,.4,0,.6,0,0,0,0,0,.1,0,.2,0,.4,0,.6,0,.2,0,.4.1.7.2.3.1.5.3.9.5,0,0,0,0,0,0,.3.3.5.6.6.8.2.4.4.8.6,1.4,0,0,0,0,0,0,0,.2,0,.5,0,.7,0,0,0,.1,0,.1.3,0,.5.2.8.3.2.1.4.3.6.5.2.1.3.3.5.5,0,0,.2.2.3.4,0,0,.1.2.2.4,0,0,.1.3.3.6,0,.2.1.5.2.7,0,.4,0,.8,0,1.3,0,.1,0,.2,0,.3,0,.1,0,.2,0,.4-.1.4-.3.7-.5,1.1,0,.1,0,.1-.1,0Z"/>
      <path class="st14" d="M28.2,6l.7.4c1,.7,1.6,1.7,2,2.9,0,0,0,0,0,0,1.1-.1,2.1.1,3,.8.4.3.7.6,1,1.1.4.6.6,1.3.7,2.1,0,0,0,0,0,0,1.1.4,2,1.4,2.5,2.5,0,.2.1.4.2.6.5,1.8,0,3.7-1.6,4.8,0,0,0,0,0,0l-1,10.2s0,0,0,0c.3,0,.5,0,.8,0,.3,0,.6,0,.8-.3.3-.4.8-.7,1.2-1.1-.1.2-.2.3-.3.4-.3.2-.6.5-.9.8-.3.4-1.3.3-1.6.1,0,0,0,0,0,0,0-.4,0-.8.1-1.2,0-.1,0-.3,0-.6,0-.2,0-.4,0-.6,0,0,0-.3,0-.6,0-.2,0-.4,0-.6,0-.4.1-.8.1-1.2,0-.3,0-.6,0-.8,0-.2,0-.3,0-.3,0-.1,0-.3,0-.4,0-.4,0-.7,0-1,0-.2,0-.4,0-.5,0-.2,0-.4,0-.5,0-.3,0-.5,0-.6,0-.2,0-.4,0-.6,0-.3,0-.6,0-.8,0,0,0,0,0,0,.4-.3.7-.5.8-.7.1-.2.2-.3.2-.3.2-.3.4-.6.5-.9,0-.1,0-.3.1-.4,0-.1,0-.4,0-.6,0-.4,0-.7,0-.9,0,0,0,0,0,0,0-.5-.2-.8-.2-.9,0,0-.1-.3-.3-.7-.1-.3-.2-.5-.4-.6-.5-.7-.9-1.1-1.5-1.4-.2-.1-.4-.2-.5-.2,0,0,0,0,0,0,0-.1,0-.2,0-.3,0-.4-.1-.7-.2-.9-.2-.4-.4-.8-.7-1.2-.1-.2-.4-.5-.6-.7-.4-.3-.7-.5-1.1-.6-.2,0-.4-.2-.7-.2-.4,0-.8,0-1.2,0,0,0-.2,0-.2-.1-.1-.5-.3-.9-.5-1.2-.1-.2-.3-.3-.4-.5,0,0,0-.1-.2-.2-.3-.4-.7-.8-1.1-1-.1,0-.3-.1-.4-.2,0,0,0,0,0,0,0,0,0,0,0,0h0Z"/>
      <path class="st5" d="M29.3,11.9c0-.1,0-.2,0-.4,0,0,0,0,0,0v-.6s0,0,0,0c0,0,0,0,0,0,0,0,0,0,0,0,0,0,0,0,0,0,0,0,0-.3-.2-.6,0-.2-.1-.4-.3-.6-.2-.3-.3-.5-.4-.7-.7-.9-1.6-1.3-2.8-1.4-.8,0-1.5.3-2.2.7-.2.1-.4.3-.5.5,0,0,0,0,0,0-.4-.2-.6.2-.8.4.3-.6.7-1,1.1-1.4.8-.6,1.9-.9,3-.7.7.1,1.4.4,1.9.8.8.6,1.5,1.8,1.5,2.9,0,.3,0,.5,0,.7,0,0,0,0,0,.1v.3Z"/>
      <path class="st15" d="M34.7,8.3l-.4.8s0,0,0,0h0s0,0,0,0c0,0,0,0,0,0l.4-1.1.3-.7s0,0,0,0h0s0,0,0,0l-.3,1Z"/>
      <path class="st9" d="M25.5,7.5h0c0,0,0,0,0,0-.9.4-1.5,1.2-1.6,2.2,0,.3,0,.5.2.7-.4,0-.8.2-1.2.3-.4.2-.6.4-.9.7,0,0,0,0-.1,0l-.3-.2h0c0-.1,0-.2,0-.2,0-.7,0-1.4.4-2.1.2-.2.4-.6.8-.4,0,0,0,0,0,0,.1-.2.3-.3.5-.5.6-.4,1.3-.7,2.2-.7Z"/>
      <path class="st15" d="M29.3,11.9s0,0,0,0c0,0,0,0,0,0,0,0,0,0,0,0h.1c.1-.1.2-.1.3-.2.2,0,.3,0,.5-.2.5-.3,1.3-.5,1.8-.2.5.3.9.7,1.1,1.2.1.4,0,.8,0,1.3-.1.4-.4.7-.7,1-.1,0-.2.2-.3.3,0,0,0,0,0,0,0,0,0,0,0,0l.8-.4c0,0,.1.2.2.2,0,0,0,0,0,0,.2,0,.4,0,.4,0,.6,0,1.1.2,1.5.5.4.3.6.6.8,1,0,0,.1.3.2.6,0,0,0,0,0,0,.2.2.3.3.5.6,0,.6-.2,1.2-.6,1.6-.5.6-1.2.9-2,.9-.2,0-.4,0-.5-.1.4,0,.7,0,.9,0,.1,0,.4,0,.6-.2.2,0,.4-.2.6-.3.3-.2.5-.5.7-.9,0,0,0,0,0,0-.1-.3-.2-.6-.2-.8,0,0,0,0,0,0,0,0,0,0,0,0-.1.3-.3.6-.6.8-.4.3-.8.6-1.3.5-.3,0-.4-.2-.5-.4,0-.4,0-.8,0-1.2,0-.2-.3-.7-.4-.9,0,0,0,0,0,0,0,0,0,0,0,0,0,.4-.2.6-.4.8-.8.6-2.1,0-1.9-1.1,0-.3.3-.5.3-.8,0,0,0,0,0,0,0,0,0,0,0,0-.7-.1-1.1-.3-1.4-1,0,0-.2-.3-.3-.5-.3-.5-.3-1-.4-1.7,0,0,0,0,0,0h0c0-.1,0-.2,0-.2,0,0,0,0,0,0h0s0,0,0,0c0,0,0,0,0,0-.1.3-.3.6-.6.8-.3.2-.7.2-1,.1-.2,0-.4-.1-.6-.2,0,0,0,0,0,0,0,0,0,0,0,.1-.2-.5-.6-.7-1.1-1-.5-.2-1.1-.2-1.6,0-.2,0-.3.2-.5.2-.2,0-.3.2-.4.3,0,0,0,0,0,0,0,0,0,0,0,0,0,0,0,0,.1,0,.6-.1,1.5-.2,2,0,.3.2.5.4.6.7.2.4.2.8,0,1.2,0,.2-.1.4-.2.5,0,0,0,0,0,0h0s0,0,0,0c0,0,0-.1.1-.1.2-.1.4-.2.5-.3.4-.2,1.1-.2,1.5,0,.3.2.6.5.8.8,0,0,0,0,0,0,.2.2.3.2.5,0,0,.2,0,.4,0,.7,0,.6-.3,1-.8,1.3-.3.2-.5.3-.6.3-1.2.5-2.5,0-2.8-1.3,0,0,0,0,0,0,0,0,0,0,0,0-.3.3-.6.4-1,.5-.3,0-.7,0-1,0-.8-.2-1.4-.8-1.4-1.7,0,0,0,0,0,0,0,0,0,0,0,0,0,.1,0,.2-.1.4,0,0,0,.3-.1.6-.4-.4-.9-.7-1.4-.9-.2-.2-.5-.5-.5-.8,0-.3.1-.6.3-.9.1,0,.2,0,.4.1,0,0,0,0,0,0,0,0,.1,0,.2,0,.5,0,1-.2,1.4,0,.3.1.6.3.7.6,0,0,0,0,0,0,0,0,0,0,0,0,0,0,0-.1,0-.2,0-.3-.2-.5-.2-.8,0,0,0,0,0,0,0,0,0,0,0,0,0-.3,0-.6.1-.8.2-.3.3-.5.3-.5.5-.6,1.2-.9,1.9-.9.3,0,.7,0,1.2.1,0,0,0,0,0,0h0s0,0,0,0c0,0,0,0,0,0-.3-.1-.6-.2-.8-.3-.3-.1-.6-.2-.9-.2,0,0,0,0,0,0-.1,0-.2-.1-.3-.2-.1-.2-.2-.4-.2-.7.1-1,.6-1.8,1.6-2.2,0,0,0,0,0,0h0c1.1,0,2.1.5,2.8,1.4.1.2.3.4.4.7.1.2.2.4.3.6.1.4.2.6.2.6,0,0,0,0,0,0,0,0,0,0,0,0,0,0,0,0,0,0,0,0,0,0,0,0v.6s0,0,0,0c0,.1,0,.3,0,.4ZM25.4,9.3c.1,0,.3,0,.4,0,.9,0,1.6.6,1.9,1.3,0,.1,0,.2.1.4,0,0,0,0,.1,0,0,0,0,0,0,0,.3-.4.3-.9.2-1.4,0-.2-.2-.4-.3-.6-.2-.3-.5-.5-.8-.6-.3,0-.5,0-.7,0-.3.1-.6.3-.8.6,0,0,0,0,0,0,0,0,0,0,0,0,0,0,0,.1-.1.1,0,0,0,0,0,0,0,0,0,0,0,0ZM30.9,12.3c0,.2.2.3.5.3,0,0,.2,0,.2.1.4.2.6.6.6,1,0,0,0,0,0,0,0,.2,0,.4,0,.6,0,0,0,0,0,0,0,0,0,0,0,0,.2-.3.4-.5.4-.8.1-.5.1-1-.2-1.3-.4-.4-1.1-.5-1.5,0,0,0,0,0,0,0ZM34.2,17.1c.2,0,.3,0,.4,0,.3,0,.5.3.5.5,0,0,0,0,0,0,0,0,0,0,0,0,.1-.7-.4-1-1-.7,0,0,0,0,0,0,0,0,0,0,0,0Z"/>
      <path class="st5" d="M25.4,9.3s0,0,0,0c0,0,0,0,0,0,0,0,0,0,.1-.1,0,0,0,0,0,0,0,0,0,0,0,0,.2-.3.5-.5.8-.6.2,0,.5,0,.7,0,.3.1.6.3.8.6.2.2.3.4.3.6.1.5,0,1-.2,1.4,0,0,0,0-.1,0,0,0,0,0,0,0,0-.1,0-.3-.1-.4-.3-.8-1.1-1.3-1.9-1.3-.1,0-.3,0-.4,0Z"/>
      <path class="st9" d="M36.1,9.9c-.1.1-.3.2-.4.2,0,0,0,0,0,0,0,0,0,0,0,0,.2-.2.3-.4.6-.6,0,0,.2-.1.3-.1,0,0,0,0,0,0,0,0,0,0,0,0,0,.1-.3.5-.4.6Z"/>
      <path class="st10" d="M21.6,11.2h0c0,0-.5,0-.5,0,0,0,0,0-.1,0,0,0,0,0,0,0,0,.2,0,.4,0,.5,0,0,0,.1-.1.1l-.7.2s0,0,0,0c-.3.2-.6.3-.9.5,0,0-.2,0-.3,0-.5,0-1-.4-.7-1,.2-.3.3-.5.5-.6,0,0,.3-.2.6-.3,0,0,.1,0,.2,0,0,0,0,0,0,0,0,0,0,0,0,0-.2,0-.4,0-.5,0-.6,0-1.2.2-1.6.7-.3.3-.4.5-.6.9-.2.5-.1,1.1,0,1.5.1.3.2.5.2.7,0,0,0,0,0,0,0,0,0,0,0,0h-.2c0,0,0,0,0,0,0,0,0,0,0,0,0-.1-.1-.2-.2-.4-.2-.4-.3-.9-.3-1.4,0-1.2.8-2.1,1.9-2.5.8-.3,1.5-.2,2.2.2.2.1.4.3.6.5,0,0,.3.1.5.2Z"/>
      <path class="st7" d="M24,10.4c0,.1.2.2.3.2,0,0,0,0,0,0,.3,0,.6,0,.9.2.2,0,.4.2.8.3,0,0,0,0,0,0,0,0,0,0,0,0h0s0,0,0,0c-.5,0-.9-.1-1.2-.1-.8,0-1.4.3-1.9.9,0,0-.1.2-.3.5-.1.3-.2.5-.1.8,0,0,0,0,0,0,0,0,0,0,0,0,0,0-.1-.2-.2-.2-.6-.3-1.1-.2-1.7,0-.2.1-.5.3-.6.5-.2.3-.3.6-.3.9,0,.3.3.6.5.8,0,0,0,0,0,0,0,0,0,0,0,0-.3,0-.7-.1-.9,0-.2.2-.4.3-.5.6-.1.2-.1.5,0,.8.1.6.4,1,1,1.2.6.3,1.3.2,1.9-.2.2-.1.3-.3.3-.4,0,.2.1.3.2.5,0,.1,0,.2.1.3,0,.1.1.2.2.2,0,0,.2.1.4.3.3.2.6.3.9.4,0,0,.1,0,.2,0-.5,0-1.1-.3-1.5-.6,0,0,0,0,0,0,0,0,0,0,0,0-.4.5-1,.8-1.6,1-.3,0-.6,0-.9,0-1.1-.2-1.8-.8-2-1.9,0,0,0,0,0,0,0,0,0,0,0,0,0,0,0,0,0,0-.1.2-.3.4-.5.5-.1,0-.2.2-.2.3-.4.5-1.1.4-1.5,0,0,0,0,0,0,0-.3-.4-.6-.8-.8-1.3,0,0,0-.2,0-.3,0,0,0,0,0,0,0,0,0,0,0,0-.2.3-.2.6-.3.9-.1.7.2,1.3.9,1.5,0,0,0,0,0,0,.4,0,.6,0,.8.3-.3.3-.6.6-1,.6-.3,0-.5,0-.7,0-.1,0-.2,0-.3-.1-.4-.3-.7-.7-.9-1.1,0,0,0,0,0,0,0,0,0,0,0,0,.2,0,.3.1.4.3,0,0,.2.1.2.2,0,0,0,0,0,0,0,0,0,0,0,0,0,0,0,0,0,0,0,0,0,0,0,0-.4-.5-.6-1-.6-1.7,0-1.4,1.1-2.5,2.5-2.8.3,0,.5,0,.7-.1,0,0,0,0,0,0,0,0,0,0,0,0,0,0,.1,0,.2,0,.2.1.3.1.5,0,0,0,0,0,0,0,0,0,0-.2-.1-.3,0,0,0,0,0,0,0,0,0,0,0,0h.2c0,0,0,0,0,0,0,0,0,0,0,0,0-.2,0-.4-.2-.7-.2-.5-.2-1,0-1.5.1-.4.3-.6.6-.9.4-.4,1-.7,1.6-.7.2,0,.3,0,.5,0,0,0,0,0,0,0,0,0,0,0,0,0,0,0-.1,0-.2,0-.3.1-.5.2-.6.3-.2.1-.4.4-.5.6-.3.6.2.9.7,1,.1,0,.2,0,.3,0,.3-.2.6-.4.9-.5,0,0,0,0,0,0l.7-.2c0,0,.1,0,.1-.1,0-.2,0-.3,0-.5,0,0,0,0,0-.1,0,0,0,0,0,0h.5c0,.1.3.3.3.3,0,0,0,0,.1,0,.3-.3.5-.5.9-.7.4-.2.7-.3,1.2-.3ZM17.3,16c0-.2-.2-.5-.4-.6-.1,0-.3-.1-.5-.2-.4,0-.9.2-1.2.5-.2.2-.3.4-.3.6-.2.6,0,1.2.6,1.5.2,0,.5,0,.7,0,.2,0,.6-.2.6-.4,0-.2,0-.3,0-.4.1-.3.3-.7.5-1,0,0,0,0,0-.1Z"/>
      <path class="st5" d="M33.7,13.4v-.8c-.1,0-.2,0-.2,0-.1,0-.2,0-.3.1-.2-.5-.6-1-1.1-1.2-.5-.3-1.3-.1-1.8.2-.2.1-.3.2-.5.2,0,0-.2,0-.3,0,.5-.6,1.3-1,2.1-1,.9,0,1.7.5,2,1.3.2.4.2.8.1,1.2Z"/>
      <path class="st9" d="M38.1,12.4c-.3.1-.5.2-.8.3,0,0,0,0,0,0,0,0,0,0,0-.1,0,0,0,0,0,0,.1-.2.6-.4.8-.5.2,0,.7-.3.9-.2,0,0,0,0,0,.1,0,0,0,0,0,0,0,0,0,0,0,0-.2.1-.5.3-.8.4Z"/>
      <path class="st5" d="M30.9,12.2c.4-.5,1.1-.3,1.5,0,.4.3.3.9.2,1.3,0,.3-.3.5-.4.8,0,0,0,0,0,0,0,0,0,0,0,0,0-.2,0-.4,0-.6,0,0,0,0,0,0,0-.4-.2-.8-.6-1,0,0-.2,0-.2-.1-.2,0-.4-.2-.5-.3,0,0,0,0,0,0Z"/>
      <path class="st5" d="M26.8,13c0,.3,0,.7,0,1,0,0,0,0,0,0,0,0,0,0,0,0,.1,0,.3-.1.4-.2,1.2-.2,2,.6,2.2,1.7-.1.2-.3.2-.5,0,0,0,0,0,0,0-.2-.4-.5-.6-.8-.8-.4-.3-1.1-.2-1.5,0-.2,0-.4.2-.5.3,0,0-.1,0-.1.1,0,0,0,0,0,0h0s0,0,0,0c0-.1.1-.3.2-.5.1-.4.1-.8,0-1.2-.1-.3-.3-.6-.6-.7-.5-.3-1.4-.2-2,0,0,0-.1,0-.1,0,0,0,0,0,0,0,0,0,0,0,0,0,.1-.1.3-.2.4-.3.1,0,.3,0,.5-.2.5-.2,1.1-.2,1.6,0,.5.2.9.5,1.1,1Z"/>
      <path class="st9" d="M33.7,20.1c-.3,0-.5-.2-.6-.5-.1-.2-.1-.3,0-.5,0,0,0,0,0,0,0,0,0,0,0,0-.3.2-.6.3-1,.4,0,0,0,0,0,0,0,0,0,0,0,0,.5-.1.8-.2,1.1-.5,0,0,0,0,0,0h0c0-.1,0-.1,0-.1,0,0,0,0,0,0-.6.2-1.3.3-1.9.2-.3,0-.5-.2-.6-.3-.3-.2-.5-.7-.4-1,0-.2,0-.4.1-.7,0-.2,0-.4-.2-.7,0,0,0,0,0,0h0s0,0,0,0h0s.2.5.2.5c0,0,0,0,0,0-.2.4-.4.7-.4,1.1,0,.1,0,.3-.2.4,0,0-.1.2-.1.2-.3.4-.7.8-1.1,1.1-.3.2-.6.4-1,.5-.4,0-.8,0-1.2-.1-.8-.3-1.3-.9-1.5-1.8,0,0,0,0,0,0,0,0,0,0,0,0-.2,0-.4.2-.6.2-.3,0-.5,0-.7,0-.3,0-.5-.2-.6-.3-.2-.1-.4-.3-.7-.6,0,0-.1-.2-.2-.2,0-.2-.2-.5-.3-.7v-.2c0-.3,0-.5,0-.6,0-.1.1-.2.1-.4,0,0,0,0,0,0,0,0,0,0,0,0,0,.9.6,1.5,1.4,1.7.3,0,.7,0,1,0,.4,0,.7-.2,1-.5,0,0,0,0,0,0,0,0,0,0,0,0,.3,1.3,1.7,1.7,2.8,1.3.1,0,.3-.2.6-.3.5-.3.8-.7.8-1.3,0-.3,0-.5,0-.7-.2-1.1-1.1-1.9-2.2-1.7-.1,0-.3,0-.4.2,0,0,0,0,0,0,0,0,0,0,0,0,0-.3,0-.7,0-1,0,0,0,0,0-.1,0,0,0,0,0,0,.2,0,.4.2.6.2.3,0,.7.1,1-.1.3-.2.5-.5.6-.8,0,0,0,0,0,0,0,0,0,0,0,0h0s0,0,0,.1c0,0,0,0,0,0h0c0,0,0,.1,0,.1,0,.7,0,1.2.4,1.7.2.3.3.4.3.5.3.6.7.8,1.4,1,0,0,0,0,0,0,0,0,0,0,0,0,0,.3-.3.5-.3.8-.1,1,1.1,1.6,1.9,1.1.3-.2.4-.5.4-.8,0,0,0,0,0,0,0,0,0,0,0,0,.2.2.4.6.4.9,0,.5,0,.8,0,1.2,0,.2.2.4.5.4.5.1.9-.2,1.3-.5.3-.2.5-.5.6-.8,0,0,0,0,0,0,0,0,0,0,0,0,0,.2,0,.5.2.8,0,0,0,0,0,0-.1.4-.4.6-.7.9-.2.1-.3.2-.6.3-.3,0-.5.2-.6.2-.1,0-.4,0-.9,0Z"/>
      <path class="st10" d="M33.7,13.4c0,.5-.2,1-.6,1.5,0,0,0,0,0,0l-.8.4s0,0,0,0c0,0,0,0,0,0,0,0,.2-.2.3-.3.3-.3.6-.6.7-1,.1-.4.1-.8,0-1.3,0,0,.2-.1.3-.1,0,0,0,0,0,0v.8Z"/>
      <path class="st5" d="M22.3,13.4c0,.3.2.5.2.8,0,0,0,.1,0,.2,0,0,0,0,0,0,0,0,0,0,0,0-.1-.3-.5-.5-.7-.6-.4-.2-.9-.1-1.4,0,0,0,0,0-.2,0,0,0,0,0,0,0-.1,0-.3,0-.4-.1.2-.2.4-.4.6-.5.5-.3,1.1-.3,1.7,0,0,0,.2.1.2.2Z"/>
      <path class="st9" d="M42.8,14c0,.1,0,.4.1.5.1.5.5.9.9,1.1,0,0,0,0,0,0,0,0,0,0,0,0-.6.2-1,.7-1,1.4,0,0,0,0,0,0h0s0,0,0,0c0-.7-.4-1.2-1-1.5,0,0,0,0,0,0,0,0,0,0,0,0,.7-.2,1-.8,1-1.5,0,0,0,0,0,0,0,0,0,0,0,0Z"/>
      <path class="st15" d="M16.9,14.9c-.1,0-.3,0-.5,0,0,0-.2,0-.2,0,0,0,0,0,0,0,0,0,0,0,0,0-.2,0-.5,0-.7.1-1.4.2-2.4,1.3-2.5,2.8,0,.6.2,1.2.6,1.7,0,0,0,0,0,0,0,0,0,0,0,0,0,0,0,0,0,0,0,0,0,0,0,0,0,0-.1-.1-.2-.2-.1-.1-.2-.2-.4-.3,0,0,0,0,0,0,0,0,0,0,0,0,.2.4.5.8.9,1.1-.6-.3-1-.8-1.2-1.4-.2-.6-.2-1.3,0-1.9.4-1.1,1.4-2.1,2.7-2.2.3,0,.6,0,.6,0,.3,0,.6.1.9.3Z"/>
      <path class="st5" d="M36.7,17.7c-.1-.2-.3-.4-.5-.6,0,0,0,0,0,0,0-.3-.2-.5-.2-.6-.2-.3-.5-.7-.8-1-.4-.3-.9-.5-1.5-.5,0,0-.2,0-.4,0,0,0,0,0,0,0,0,0-.1-.1-.2-.2,0,0,0,0,0,0,1-.3,1.9-.1,2.7.6.6.6,1,1.4,1,2.3Z"/>
      <path class="st10" d="M17.3,16s0,0,0,.1c-.2.3-.3.6-.5,1,0,.1,0,.3,0,.4,0,.3-.4.4-.6.4-.2,0-.5,0-.7,0-.6-.3-.8-.9-.6-1.5,0-.2.2-.4.3-.6.3-.3.8-.6,1.2-.5.2,0,.3,0,.5.2.2.1.3.4.4.6Z"/>
      <path class="st10" d="M20,15.5c.5.3.9.6,1.4.9v.2c0,.3,0,.6.2.9,0,.2-.1.3-.3.4-.6.4-1.3.5-1.9.2-.5-.2-.8-.6-1-1.2,0-.3,0-.5,0-.8.1-.2.3-.4.5-.6.2-.1.7-.1.9,0,0,0,0,0,0,0,0,0,0,0,0,0Z"/>
      <path class="st7" d="M32,19.5c-.2,0-.5,0-.7,0-.3,0-.5,0-.6,0-.5,0-.9-.4-1.1-.9,0,0,0-.2,0-.3,0-.2.1-.3.2-.4,0-.4.2-.7.4-1.1,0,0,0,0,0,0l-.2-.5s0,0,0,0h0s0,0,0,0c0,0,0,0,0,0,.2.2.2.5.2.7,0,.3,0,.5-.1.7,0,.4.2.8.4,1,.2.2.4.3.6.3.6.2,1.3,0,1.9-.2,0,0,0,0,0,0,0,0,0,0,0,0h0c0,.1,0,.1,0,.2-.3.3-.6.4-1.1.5,0,0,0,0,0,0,0,0,0,0,0,0Z"/>
      <path class="st2" d="M27.4,20.1c-.2.1-.4.2-.5.2-.4,0-.7,0-1.1,0-.2,0-.4,0-.5-.1-.6-.1-1.1-.5-1.4-.9,0,0,0,0-.2,0,0,0-.1,0-.2,0-.4,0-.7-.2-.9-.4-.2-.1-.3-.2-.4-.3,0,0-.1-.1-.2-.2,0,0,0-.2-.1-.3,0-.2-.1-.4-.2-.5-.1-.3-.2-.5-.2-.9.1.2.2.4.3.7,0,0,0,.1.2.2.3.3.5.5.7.6.2,0,.4.2.6.3.2,0,.4,0,.7,0,.2,0,.4-.1.6-.2,0,0,0,0,0,0,0,0,0,0,0,0,.2.8.7,1.5,1.5,1.8.4.1.8.2,1.2.1Z"/>
      <path class="st5" d="M34.2,17.1s0,0,0,0c0,0,0,0,0,0,.6-.3,1.1,0,1,.7,0,0,0,0,0,0,0,0,0,0,0,0,0-.3-.3-.4-.5-.5-.1,0-.2,0-.4,0Z"/>
      <path class="st12" d="M17.4,17.7c0,.3,0,.6,0,.8,0,.3.1.5.2.7,0,0,0,0,0,0-.3.4-1,.7-1.5.5-.2,0-.3-.1-.4-.2-.2-.3-.5-.3-.8-.3,0,0,0,0,0,0-.7-.2-1-.8-.9-1.5,0-.4.1-.6.3-.9,0,0,0,0,0,0,0,0,0,0,0,0,0,0,0,.2,0,.3.2.5.5.9.8,1.3,0,0,0,0,0,0,.4.3,1.1.4,1.5,0,0,0,.1-.2.2-.3.2-.1.3-.3.5-.5Z"/>
      <path class="st15" d="M39.9,18.2c-.2.2-.5.4-.7.7,0,0,0,0,0,0,0,0,0,0,0,0,0,0,0,0,0,0,.2-.2.4-.5.7-.7.3-.3.6-.5.8-.6,0,0,0,0,0,0,0,0,0,0,0,0,0,0,0,0,0,0-.3.2-.5.4-.7.6Z"/>
      <path class="st5" d="M52.3,23.8c0,0,0-.1-.1-.1,0,0,0,0,0,0,0,0-.1,0-.2,0-.3-.1-.6-.5-.8-.8-.3-.5-.3-1.1,0-1.6,0,0,0-.1,0-.1,0,0-.2-.1-.3-.1,0,0,0,0,0,0-.3.2-.6.4-1.1.4-.7,0-1.4,0-2-.4-.5-.3-.8-.6-1-1.1-.3-.4-.4-.9-.3-1.4,0,0,0,0,0,0h-.2c0,0-.3-.2-.3-.2,0,0,0,0,0,0l-.3.3.2-.5s0,0,0,0l.7.2s0,0,0,0c0,.4,0,.8.2,1.2.4.9,1.1,1.4,2.1,1.6.2,0,.5,0,.9,0,.4,0,.7-.2,1-.4,0,0,0,0,0,0l.7.5s0,0,0,0c-.2.6-.3,1,0,1.6.2.4.5.8.9,1.1,0,0,0,0,0,.1Z"/>
      <path class="st15" d="M46.1,18.3c0,0-.1,0-.2,0,0,0,0,0,0,0-.3,1-1.3,1.3-2.3,1.2,0,0-.1,0-.1,0l-1.8,4-1.6,3.6-.2.4c-.2,0-.4,0-.5.2-.2.4-.3.7-.3.7,0,0,0,0,0,0,.4.2.8.5.9,1,0,.3,0,.6,0,.8,0-.3,0-.5,0-.6,0-.6-.4-1-1-1.2,0,0,0,0,0,0,0,0,0,0,0,0,1.3-2.8,2.3-4.9,3-6.4.4-.9.9-1.9,1.3-3,0,0,0,0,0,0,.4.1.7.1,1.1,0,.5-.1.8-.4,1-.8l.3-.3s0,0,0,0l.3.2Z"/>
      <path class="st14" d="M44,18.4c-.3,0-.5,0-.8-.1-.3,0-.5.1-.6.4-2.6,5.6-4.1,8.9-4.6,9.9-.1.3-.1.5,0,.7.2.5,1,.4,1.1,1,0,.1,0,.3,0,.4,0,0-.2.2-.3.3-.3.2-.7.4-.9.7,0,.1,0,.2-.2.4,0,0,0,0,0,0-.4.2-.7.2-1.2.2-.4,0-.9,0-1.3-.2,0,0,0,0,0,0l1.1-11.1s0,0,0,0c.3-.2.5-.4.8-.6,0,0,0,0,0,0,0,0,0,0,0,0-.2.2-.5.4-.7.6,0,0,0,0,0,0,0,.1,0,.3,0,.4,0,0,0,0,0,0,0,.3,0,.6,0,.8,0,.3,0,.6,0,.8,0,.3,0,.6-.1,1,0,0,0,0,0,0,0,0,0,0,0,0,0,.4,0,.7,0,.7,0,.4,0,.8-.1,1.2,0,.1,0,.3,0,.7,0,.3,0,.5,0,.7,0,.1,0,.3,0,.5,0,.5,0,.8-.1,1,0,.5-.1.9-.1,1.3,0,.5-.1,1-.2,1.6,0,0,0,0,0,0,0,0,.1,0,.2,0,.2,0,.4,0,.6.1,0,0,.1,0,.2,0h.8s0,0,0,0l.5-.2c0,0,.1,0,.1-.1v-.2c0,0,0,0,.1,0,.2-.3.4-.5.6-.6.2,0,.3-.2.5-.3.2-.1.3-.5.2-.7,0-.1-.2-.2-.3-.2-.2,0-.5-.2-.7-.4-.2-.3-.2-.6,0-.8.5-1.2.9-2,1.1-2.4,0-.2.2-.4.3-.7,0-.2.2-.4.3-.7.5-1.1,1-2.1,1.4-3.1.2-.5.7-1.5,1.5-3.2.1-.2.3-.4.6-.5,0,0,0,0,0,0l.8.2Z"/>
      <path class="st10" d="M46.1,18.3h.2c0,0,0,0,0,.1,0,.5,0,1,.3,1.4.3.4.6.8,1,1.1.6.4,1.3.5,2,.4.5,0,.8-.2,1.1-.4,0,0,0,0,0,0,0,0,.2,0,.3.1,0,0,0,0,0,.1-.2.5-.2,1.2,0,1.6.2.3.5.6.8.8,0,0,.1,0,.2,0,0,0,0,0,0,0,0,0,0,0,.1.1l-4.5,9.3s0,0,0,0c-.9-.2-1.6,0-2.1.8,0,0,0,0,0,0h0c-.3-.2-.6-.4-1-.5,0,0,0,0,0-.1.2-1-.5-1.7-1.3-2.1-.2,0-.4-.1-.7-.1-.5,0-1.1.2-1.6.5,0,0,0,0,0,0-.2-.3-.6-.4-1.1-.5,0,0,0,0,0,0,0,0,0,0,0,0v-.5c.2-.3.3-.5.2-.8-.1-.5-.5-.8-.9-1,0,0,0,0,0,0,0,0,.1-.3.3-.7.1-.2.3-.3.5-.2l-.3.8s0,0,0,0c.7.4,1,1.3.7,2.1,0,0,0,.1,0,.1l.6.3s0,0,.1,0c.7-.4,1.4-.8,2.2-.4.4.2.6.3.8.5.2.2.4.3.5.5.2.3.3.6.4.9,0,.1,0,.2,0,.4,0,0,0,.1,0,.1l.4.2s0,0,0,0c.3-.4.8-.6,1.3-.6.2,0,.3,0,.6,0,0,0,0,0,0,0l3.8-7.8s0,0,0,0c0,0,0,0,0,0,0,0,0,0,0,0-.1,0-.2,0-.2-.1,0,0,0,0,0,0,0,0,0,0,0,0,0,0-.1.1-.2.2-.4.5-.7,1.1-1,1.7l-.6-.9c0-.2,0-.5-.1-.7-.1-.5-.4-.9-.7-1.3-.3-.4-.7-.7-1.1-1h0s0,0,0,0c-.4-.3-.8-.4-1.4-.5-.7-.2-1.3,0-2,.3-.5.2-1,.6-1.3,1-.2.2-.3.4-.5.7-.1-.1-.3-.3-.4-.4l1.8-4c0,0,0,0,.1,0,1,.1,1.9-.2,2.3-1.2,0,0,0,0,0,0,0,0,.1,0,.2,0ZM44.4,21.1c0-.1-.1-.2-.2-.2-.1,0-.2,0-.2.2,0,.1.1.2.2.2.1,0,.2,0,.2-.2ZM49.5,23.5c-.1,0-.2.2,0,.4h0c0,.1.2.2.4,0h0c.1,0,.2-.2,0-.4h0c0-.1-.2-.2-.4,0Z"/>
      <path class="st14" d="M42,18.8c0,0,0,0,0,0-.2.5-.4.9-.6,1.4-.2.5-.5,1-.7,1.5,0,0,0,0,0,0h0s1.4-3,1.4-3Z"/>
      <path class="st16" d="M27.4,21.2c0,0,0,.1-.2.2-1,.3-1.9.5-2.8.2-.5-.2-1-.4-1.5-.8-.3-.2-.6-.3-1-.3-.4,0-.8,0-1.1,0-.4,0-.8.2-1.1.3-.7,0-1.4,0-2-.4l.6-.4s0,0,0,0c.2.1.5.2.7.3.6.1,1.3,0,1.9-.1.3,0,.5-.1.7-.2.4-.1.8,0,1.2,0,0,0,.1,0,.2.1.2.1.5.4.9.6.6.3,1.1.4,1.5.5.6,0,1.3,0,2-.1Z"/>
      <path class="st16" d="M34.9,21.4h0s0,0,0,0c-.1.1-.5.2-.7.2,0,0,0,0-.1,0-.6,0-1.1-.1-1.6-.5-.2-.1-.4-.2-.6-.3,0,0-.2,0-.2,0-.7,0-1.4,0-2.1,0,0,0,0,0-.1,0-.3,0-.6,0-.8,0l.8-.6s0,0,.1,0c.5.3,1.1.5,1.8.4.3,0,.6,0,.9-.1,0,0,.2,0,.2,0,0,.1.2.2.3.3.4.3.8.4,1.2.4.3,0,.6,0,1,0,0,0,0,0,0,0,0,0,0,.1,0,.2Z"/>
      <path class="st0" d="M13.7,21s0,0,0,0c-.2,0-.4,0-.7,0,0,0,0,0,0,0,0,0,0,0,0,0,0,.9.2,1.9.4,3,0,.7.2,1.7.4,2.8.2,1.8.4,3.5.7,5.3,0,.5.1,1,.2,1.5.2,1.5.4,2.9.6,4.4,0,.2,0,.4.1.6-.1,0-.3,0-.4-.1,0,0,0,0,0,0l-.8-6.2s0,0,0,0c0,0,0,0,0,0,0-.2,0-.4,0-.7-.2-1.8-.5-3.5-.7-4.9-.1-.8-.2-1.8-.4-2.9,0-.4,0-.8-.2-1.1,0,0,0,0,0,0,0,0,0,0,0,0,0,0,0,0,0,0,0-.6-.2-1.1-.2-1.7,0-.3,0-.5.1-.7,0,0,0,0,0,0,0,0,0,0,0,0,.2.3.5.5.8.7,0,0,.2,0,.3.1Z"/>
      <path class="st12" d="M24.4,21.7c0,.2,0,.3,0,.5,0,1.1,0,2.1,0,3.2,0,0,0,0,0,0,0,0,0,0-.1,0-.5-.9-1.5-1.7-2.6-1.4-1,.3-1.4,1-1.6,2,0-1,0-1.9-.2-2.9,0-.3,0-.6,0-.9,0-.4,0-.9-.1-1.3.4,0,.8-.2,1.1-.3.3,0,.7-.1,1.1,0,.4,0,.7.1,1,.3.4.3.9.6,1.5.8ZM20,23.3c0,0,.1,0,.1,0,.2-.2.4-.3.7-.5.3-.2.7-.4,1.1-.4.1,0,.3,0,.5,0,.3,0,.5.1.7.2,0,0,.1,0,.2,0,0,0,.1,0,.1-.2,0-.4-.3-.8-.7-1-.8-.3-1.5-.3-2.1.2-.4.3-.6.7-.7,1.1,0,.2,0,.3,0,.5,0,0,0,0,0,0,0,0,0,0,0,0Z"/>
      <path class="st3" d="M17.7,20.6c.6.3,1.3.4,2,.4,0,.4,0,.9.1,1.3,0,.3,0,.6,0,.9,0,.9.1,1.9.2,2.9,0,.6,0,1.3.1,1.9,0,.3.2.5.3.7,0,0,0,0,0,0,0,0,0,0,0,0-.2,0-.4.3-.5.4,0,0,0,0,0,0,0,0,0,0,0,0,0,0,0,0,0,0,0,.2,0,.4,0,.5,0,.2,0,.4,0,.5,0,.8.1,1.5.2,2.3.1,1.6.2,3.1.4,4.7-.3,0-.7,0-1,0-.4,0-.9,0-1.3.2-.2-1.9-.4-3.9-.5-5.8-.5-5-.8-8.4-.9-10,0-.2,0-.5,0-.7,0,0,0-.1,0-.2.2,0,.4-.1.6-.2Z"/>
      <path class="st12" d="M28.5,20.7c.3,0,.6,0,.8,0,0,0,0,0,.1,0,.7.1,1.4.1,2.1,0,0,0,.2,0,.2,0,.2,0,.4.2.6.3-.2,0-.3,0-.4.2-.1.3-.2.4-.2.5-.5-.5-1-.7-1.7-.7-.7,0-1.3.5-1.5,1.3,0,0,0,.2,0,.2,0,0,0,0,.1,0,.2,0,.4-.2.5-.3.5-.2,1.1-.2,1.6,0,.2,0,.5.3,1,.5,0,.1,0,.2,0,.4,0,.5,0,1-.2,1.5-.2-.3-.4-.5-.5-.6-.6-.5-1.3-.6-2-.2-.8.4-1.2,1.1-1.3,1.9h-.2c0-.6.1-1.2.1-1.7,0-.4,0-.9,0-1.3,0-.2,0-.7,0-1.4,0-.3,0-.5.3-.7,0,0,0,0,0,0,0,0,0,0,0,0h.2Z"/>
      <path class="st2" d="M28.3,20.8s0,0,0,0c0,0,0,0,0,0-.2.2-.3.4-.3.7,0,.8,0,1.2,0,1.4,0,.4,0,1,0,1.3,0,.5,0,1-.1,1.5l-.2,5.2c-1,.1-1.9.1-2.8,0,0,0-.2,0-.4,0,0-.8,0-1.7,0-2.5.2-.3.2-.7.3-1.2,0-.7,0-1.3-.4-1.8,0,0,0,0,.1,0,0,0,0,0,0,0,0-1.1,0-2.1,0-3.2,0-.2,0-.3,0-.5,1,.2,1.9,0,2.8-.2.2,0,.2-.1.2-.2.3,0,.6-.2.9-.4Z"/>
      <ellipse class="st5" cx="44.2" cy="21.1" rx=".2" ry=".2" transform="translate(-.5 1.2) rotate(-1.5)"/>
      <path class="st11" d="M13.7,21.1c0,.3,0,.6.1.9.2,1.6.4,2.9.5,3.8.1,1,.2,1.7.3,2.6,0,.4.1,1,.3,2.1.1,1.2.3,2.3.5,3.5.2,1.7.4,2.9.5,3.7,0,.1,0,.2,0,.3,0,.4.1.8.2,1.2l-.9-.4c0-.2,0-.4-.1-.6-.2-1.5-.4-2.9-.6-4.4,0-.5-.1-1-.2-1.5-.2-1.8-.5-3.6-.7-5.3-.1-1.1-.3-2.1-.4-2.8-.1-1.1-.3-2.1-.4-3,0,0,0,0,0,0,0,0,0,0,0,0,.2,0,.5,0,.7,0,0,0,0,0,0,0h0Z"/>
      <path class="st6" d="M15.2,21.3c0,.2,0,.4,0,.6,0,.3,0,.5,0,.6.2,2.1.3,3.3.4,3.6,0,.3,0,.8.2,1.5.2,1.7.3,2.8.3,3.2,0,.4,0,.8.1,1.2,0,.3,0,.6,0,.9,0,.2,0,.5,0,.9,0,.1,0,.2,0,.3.1,1.5.3,3,.4,4.4,0,.3,0,.7,0,1.1l-1-.4c0-.4-.1-.8-.2-1.2,0-.1,0-.2,0-.3-.1-.8-.3-2-.5-3.7-.2-1.2-.3-2.3-.5-3.5-.1-1-.2-1.7-.3-2.1-.1-.9-.2-1.6-.3-2.6-.1-1-.3-2.2-.5-3.8,0-.3,0-.6-.1-.9.2,0,.3.1.5.1.4.1.7.1,1.1,0Z"/>
      <path class="st2" d="M32.4,21.2c.5.3,1,.5,1.6.5,0,0,0,0,.1,0,.2,0,.6,0,.7-.2,0,0,0,0,0,0h0c-.6,5.8-1.2,11.7-1.8,17.5,0,0,0,0,0,0h-.5c-.1,0,0,0,0-.1,0,0,0,0,0,0,0,0,0-.2,0-.3,0-.5.1-1.1.2-1.8,0-.7.1-1.4.2-2,0-.6.1-1.4.2-2,0-.6,0-1,.2-1.6,0-.5.1-1,.1-1.5,0,0,0,0,0,0,0,0,0,0,0,0-.6.7-1.3,1.2-2.1,1.5v-1.8c.1,0,.1,0,.1,0,0,0,0,0,0,0,.3,0,.6,0,.8.2,0-.2-.2-.3-.3-.4,0,0-.2-.1-.2-.2,0,0,0,0,0,0,0,0,0,0,0,0,.4-.5.6-1.1.6-1.8,0-.3,0-.4,0-.5,0-.6-.2-1.1-.4-1.5.1-.5.2-1,.2-1.5,0-.1,0-.3,0-.4,0-.2,0-.4,0-.5,0-.2-.1-.4-.2-.6,0,0,.1-.3.2-.5,0-.1.2-.2.4-.2Z"/>
      <path class="st8" d="M17,39.6c0-.4,0-.8,0-1.1-.2-1.4-.3-2.9-.4-4.4,0-.1,0-.2,0-.3,0-.4,0-.8,0-.9,0-.3,0-.6,0-.9,0-.4,0-.8-.1-1.2,0-.4-.1-1.5-.3-3.2,0-.7-.1-1.2-.2-1.5,0-.3-.2-1.5-.4-3.6,0,0,0-.3,0-.6,0-.2,0-.4,0-.6h1s0,0,0,0c0,.3,0,.5,0,.8.2,2.3.4,4.8.7,7.3,0,0,0,.3,0,.8,0,.4,0,.7,0,1.2.2,2.3.3,3.7.4,4.4.1,1.3.3,2.7.3,4,0,0,0,0,0,0,0,0,0,0,0,0l-.9-.3Z"/>
      <path class="st4" d="M20,23.3s0,0,0,0c0,0,0,0,0,0,0-.2,0-.3,0-.5,0-.5.3-.9.7-1.1.7-.4,1.4-.5,2.1-.2.4.2.6.6.7,1,0,0,0,.1-.1.2,0,0-.1,0-.2,0-.2,0-.4-.1-.7-.2-.2,0-.4,0-.5,0-.4,0-.8.2-1.1.4-.2.1-.4.3-.7.5,0,0,0,0-.1,0Z"/>
      <path class="st4" d="M31.8,21.9c.1.2.2.4.2.6,0,.2,0,.4,0,.5-.5-.3-.9-.5-1-.5-.6-.2-1.1-.2-1.6,0-.2,0-.4.2-.5.3,0,0,0,0-.1,0,0,0,0-.2,0-.2.1-.8.7-1.2,1.5-1.3.7,0,1.2.2,1.7.7Z"/>
      <path class="st15" d="M47.2,22.7c-1-.5-2-.8-3.1-.3-.4.2-.8.4-1.2.7-.7.6-1.2,1.7-1.3,2.6,0,.4,0,.7,0,.8.2,1.2.8,2.3,1.9,2.8.5.3,1,.4,1.5.4,1.1,0,2.1-.3,2.9-1.1.7-.7,1.2-1.8,1.1-2.9,0-.6-.2-1-.4-1.5,0-.2-.2-.4-.3-.6.3.4.5.8.7,1.3,0,.2,0,.5.1.7,0,.7-.1,1.3-.4,1.9-.2.3-.4.7-.6.9-.2.2-.5.4-.6.5-.7.5-1.6.7-2.5.7-.5,0-1.1-.2-1.5-.4-.4-.2-.7-.5-1.1-.9,0,0,0,0,0,0,0,0,0-.1-.1-.2-.2-.2-.3-.5-.4-.8,0,0,0-.2-.1-.5,0-.2,0-.3,0-.5,0,0,0-.2,0-.4,0-.5,0-1,.2-1.4,0-.1.1-.3.3-.6.1-.2.3-.5.5-.7.4-.4.8-.8,1.3-1,.6-.3,1.3-.5,2-.3.6.1,1,.2,1.4.5,0,0,0,0,0,0h0Z"/>
      <path class="st4" d="M47.2,22.7c.4.2.8.6,1.1,1,0,.2.2.4.3.6.3.5.4.9.4,1.5,0,1.1-.4,2.1-1.1,2.9-.7.8-1.8,1.1-2.9,1.1-.5,0-1-.1-1.5-.4-1.1-.6-1.7-1.6-1.9-2.8,0-.1,0-.4,0-.8,0-.9.6-2,1.3-2.6.3-.3.7-.5,1.2-.7,1.1-.5,2.1-.3,3.1.3ZM43,23.6c-.4.5-.7,1.1-.8,1.8-.1.7,0,1.3.2,1.9.2.4.4.7.6.9.5.5,1,.8,1.7.8.8.1,1.6,0,2.3-.6.8-.6,1.3-1.4,1.4-2.3,0-.7,0-1.3-.4-1.9-.5-.9-1.2-1.4-2.2-1.6-.7-.1-1.4,0-2,.3-.3.1-.6.4-.9.6Z"/>
      <path class="st9" d="M38.4,22.5c0,.1,0,.2.1.3,0,.1.2.3.4.3,0,0,0,0,0,0,0,0,0,0,0,0-.2.1-.5.4-.5.6,0,0,0,0,0,0,0,0,0,0,0,0,0-.3-.2-.5-.5-.7,0,0,0,0,0,0,0,0,0,0,0,0,.3-.1.4-.4.5-.7,0,0,0,0,0,0,0,0,0,0,0,0Z"/>
      <path class="st14" d="M34.5,36.8h0c0,0,0-.1,0-.1,0,0,0,0,0,0,.5.3,1,.4,1.5.5,1.1.1,2.2,0,3.1-.5,0,0,0,0,.1,0,1.6.5,3.6-.1,4.8-1.4.3-.3.4-.4.6-.7,0,0,0,0,.1,0,.3.1.5.2.7.3.3.1.5,0,.6,0,0,0,0,0,0,0,.1-.2.2-.3.2-.3.3-.3.6-.5,1-.4.2,0,.4.1.5.1.5,0,.6-.2.8-.6,1.6-3.5,3.2-6.7,4.6-9.6.2-.4.1-.7-.2-.9-.2-.2-.4-.3-.4-.4.2.1.4.3.6.5.2.3.2.5,0,.9-.1.2-.2.5-.4.8-.1.3-.3.6-.4.8-.4.8-.6,1.4-.8,1.6-.4.9-.9,1.7-1.3,2.7,0,.2-.2.5-.4.7-.2.3-.3.6-.4,1-.2.5-.5,1-.8,1.6,0,.2-.2.4-.3.6-.3.5-.7.4-1.1.2-.4-.1-.8,0-1.1.4,0,0,0,0-.1.2-.2.4-.5.4-.9.3-.2,0-.3-.1-.5-.2,0,0-.2,0-.2,0,0,.1,0,.2-.2.3-.9,1.1-2.1,1.7-3.5,1.9-.5,0-1.1,0-1.6-.1,0,0-.1,0-.2,0-.2,0-.4.2-.6.3-.6.2-1.1.3-1.7.3,0,0-.2,0-.6,0-.2,0-.4,0-.6,0-.4,0-.7-.2-.7-.2-.1,0-.3-.1-.4-.2Z"/>
      <path class="st15" d="M48.4,26.2c0-.2,0-.4,0-.6,0-.2,0-.3,0-.4,0-.4-.2-.8-.5-1.1,0,0,0,0,0,0-.1-.1-.3-.2-.5-.2,0,0,0,0,0,0-.3-.3-.6-.5-1-.6-.6-.2-1.3-.3-1.9,0,0,0,0,0,0,0l-.3-.2s0,0,0,0c-.3.2-.6.4-.9.6,0,0,0,0,0,0,0,0,0,0,0,0h0c.3-.4.6-.6.9-.7.6-.3,1.3-.5,2-.3,1,.2,1.7.8,2.2,1.6.3.6.4,1.2.4,1.9Z"/>
      <path class="st14" d="M13.9,32.3l-1.3-9.7s0,0,0,0c0,0,0,0,0,0,0,0,0,0,0,0,0,.4,0,.7.2,1.1.2,1.1.3,2.1.4,2.9.2,1.5.4,3.1.7,4.9,0,.3,0,.6,0,.7,0,0,0,0,0,0,0,0,0,0,0,0Z"/>
      <path class="st9" d="M48.4,26.2c-.1.9-.6,1.7-1.4,2.3,0,0,0,0,0,0,0,0,0,0,0,0-.7.4-1.4.6-2.2.5-.3,0-.4,0-.5,0-.3,0-.6-.2-.7-.3-.2-.1-.4-.3-.5-.4-.3-.2-.5-.5-.6-.9-.3-.6-.4-1.3-.2-1.9.1-.7.4-1.3.8-1.8h0c0,0,0,.1,0,.1,0,0,0,0,0,0,.3-.3.6-.5.9-.6,0,0,0,0,0,0l.3.2s0,0,0,0c.6-.3,1.3-.2,1.9,0,.4.1.7.4,1,.6,0,0,0,0,0,0,.2,0,.4,0,.5.2,0,0,0,0,0,0,.2.3.4.7.5,1.1,0,0,0,.2,0,.4,0,.2,0,.4,0,.6ZM46.9,24.5c.2-.3,0-.6-.2-.8-.4-.3-1-.6-1.3,0,0,0,0,0,0,0,0,.5,0,.9.5,1.1.4.2.8-.2,1-.4ZM43.3,24.7c.1.3.5.4.9.5,0,0,0,0,0,0,.7-.1.8-.9.5-1.4-.1-.2-.3-.3-.5-.2-.3,0-.6.2-.8.4-.2.2-.3.5-.2.7ZM47.3,27c.3,0,.5-.4.5-.7,0-.5,0-1.1-.7-1.1-.7,0-1.1.9-.8,1.5.2.3.6.4.9.3ZM45.6,25.9c0-.2-.2-.4-.4-.4s-.4.2-.4.4c0,.2.2.4.4.4s.4-.2.4-.4ZM43.1,27.4c.4.3.9.1,1.1-.3.1-.2.2-.5,0-.7-.1-.3-.3-.5-.5-.6-.2,0-.3-.1-.5-.1-.4,0-.6.3-.6.8,0,.3.1.8.3.9ZM46.1,27c-.3-.3-.8-.2-1.1,0-.4.3-.6.8-.2,1.2.2.2.4.3.7.3.4,0,.8-.2.9-.5.2-.4,0-.8-.3-1.1Z"/>
      <ellipse class="st5" cx="49.6" cy="23.8" rx=".3" ry=".3" transform="translate(-4.9 30.8) rotate(-32.9)"/>
      <path class="st9" d="M42,24.1c-.1.3-.2.5-.3.6-.1.4-.2.9-.2,1.4,0,.2,0,.3,0,.4,0,.2,0,.3,0,.5,0,.3.1.5.1.5.1.3.2.6.4.8,0,0,0,.1.1.2,0,0,0,0,0,0,.4.4.8.7,1.1.9.4.2,1,.4,1.5.4.9,0,1.8-.2,2.5-.7.2-.1.4-.3.6-.5.2-.3.4-.6.6-.9.3-.6.5-1.2.4-1.9l.6.9c-.2.5-.5,1.1-.7,1.5-.2.5-.5.9-.7,1.4-.2.6-.5,1.2-.8,1.7-.1.2-.2.4-.3.7,0,0,0,0,0,0h0c0,.2,0,.2,0,.2-.3,0-.7-.2-1-.3-.2-.1-.5-.3-.7-.4-.6-.3-1.2-.6-1.6-.8,0,0-.2,0-.3-.1-.7-.4-1.3-.7-2-1.1-.2,0-.4-.3-.7-.5,0,0,0,0,0-.1-.2-.3-.3-.6-.5-1.1,0-.1,0-.3-.2-.5l1.6-3.6c0,.2.2.3.4.4ZM46.6,30.5c0,.1.1.2.2.2.1,0,.3,0,.3-.2h0c0-.1-.1-.2-.2-.2-.1,0-.3,0-.3.2h0Z"/>
      <path class="st4" d="M31.8,24.9c.3.5.4,1,.4,1.5,0,0,0,.2,0,.5,0,.6-.3,1.2-.6,1.8,0,0,0,0,0,0,0,0,0,0,0,0,0,0,.2,0,.2.2.1.1.3.3.3.4-.2-.2-.5-.2-.8-.2-.2,0-.4,0-.7,0-.2,0-.3.2-.5.2-.3.1-.5,0-.8,0-.4,0-.7-.3-.9-.6-.2-.2-.3-.4-.3-.6-.2-.7-.3-1.4-.2-2.2,0-.9.5-1.5,1.3-1.9.7-.3,1.4-.3,2,.2.1,0,.3.3.5.6ZM30.1,29.1s.1,0,.2-.1c.2-.1.4-.2.6-.2,0,0,0,0,.1,0,.7-.9.8-2.2.3-3.3-.5-1-1.5-1.2-2.3-.4-.4.4-.7.9-.8,1.4,0,0,0,0,0,0,0,0,0,0,0,0,0,0,0,0,0,0,.2-.6.9-1.2,1.5-.9.4.2.7.7.8,1.1.2.8,0,1.7-.6,2.3,0,0,0,0,0,0,0,0,0,0,0,0ZM30.2,26c-.2-.2-.4-.1-.6,0h0c-.2.2-.2.4,0,.6,0,0,0,0,0,0,.2.2.4.1.6,0h0c.2-.2.2-.4,0-.6h0ZM24.3,25.4c.3.5.4,1.2.4,1.8,0,.5-.1.9-.3,1.2-.2.4-.5.6-.7.8-.2.1-.5.2-.7.1-.4,0-.9-.3-1.3-.3-.3,0-.6,0-.8,0-.2,0-.4,0-.6.1,0,0,0,0,0,0,0,0,0,0,0,0,0,0,0,0,0,0,0-.2.3-.4.5-.4,0,0,0,0,0,0,0,0,0,0,0,0-.1-.2-.3-.5-.3-.7-.2-.6-.2-1.3-.1-1.9.2-1,.6-1.7,1.6-2,1.1-.3,2.2.4,2.6,1.4ZM23.2,29.1c.7-.3,1-1,1.1-1.7,0-.9-.2-1.9-1-2.5-.7-.6-1.7-.5-2.3.2-.5.6-.7,1.4-.6,2.2,0,.4.3,1,.5,1.3.1.1.3.2.4.2,0,0,0,0,0,0,0,0,0,0,0,0-.7-.9-.6-2.1.1-2.9.4-.4,1-.4,1.3,0,0,0,0,0,0,0,0,0,0,0,0,0-.2,0-.4.2-.5.4,0,.2,0,.5.3.5.3,0,.4,0,.5-.3,0,0,0,0,0,0,0,0,0,0,0,0,.3.8.3,1.8-.3,2.6,0,0,0,0,0,0,0,0,0,0,0,0Z"/>
      <path class="st1" d="M30.1,29.1s0,0,0,0c0,0,0,0,0,0,.6-.6.7-1.5.6-2.3,0-.4-.4-.9-.8-1.1-.7-.3-1.3.3-1.5.9,0,0,0,0,0,0,0,0,0,0,0,0,0,0,0,0,0,0,0-.6.3-1,.8-1.4.8-.8,1.8-.6,2.3.4.5,1.1.4,2.4-.3,3.3,0,0,0,0-.1,0-.3,0-.4,0-.6.2-.1,0-.2.1-.2.1Z"/>
      <path class="st1" d="M23.2,29.1s0,0,0,0c0,0,0,0,0,0,.6-.7.6-1.7.3-2.6,0,0,0,0,0,0,0,0,0,0,0,0-.1.3-.3.4-.5.3-.2,0-.4-.3-.3-.5,0-.2.2-.4.5-.4,0,0,0,0,0,0,0,0,0,0,0,0-.4-.4-1-.4-1.3,0-.8.8-.8,2-.1,2.9,0,0,0,0,0,0,0,0,0,0,0,0-.2,0-.3,0-.4-.2-.3-.3-.5-.9-.5-1.3,0-.8,0-1.6.6-2.2.6-.7,1.5-.7,2.3-.2.7.6,1,1.6,1,2.5,0,.7-.4,1.4-1.1,1.7Z"/>
      <path class="st7" d="M39.9,27.6l.2-.4c0,.1.1.3.2.5.2.6.3.8.5,1.1,0,0,0,0,0,.1.3.2.5.4.7.5.6.3,1.3.7,2,1.1,0,0,.2,0,.3.1.5.3,1,.5,1.6.8.2.1.5.3.7.4.3.2.7.3,1,.3,0,0,0,0,0,0h0c0-.2,0-.2,0-.2,0-.2.2-.5.3-.7.3-.6.5-1.2.8-1.7.2-.5.5-.9.7-1.4.2-.4.5-1,.7-1.5.3-.6.6-1.2,1-1.7,0,0,.1-.1.2-.2,0,0,0,0,0,0,0,0,0,0,0,0,0,0,0,.1.2.1,0,0,0,0,0,0,0,0,0,0,0,0,0,0,0,0,0,0l-3.8,7.8s0,0,0,0c-.2,0-.4,0-.6,0-.5,0-1,.2-1.3.6,0,0,0,0,0,0l-.4-.2c0,0,0,0,0-.1,0-.2,0-.3,0-.4,0-.3-.2-.6-.4-.9-.1-.2-.3-.3-.5-.5-.2-.2-.5-.4-.8-.5-.8-.4-1.5,0-2.2.4,0,0,0,0-.1,0l-.6-.3s0,0,0-.1c.2-.8,0-1.7-.7-2.1,0,0,0,0,0,0l.3-.8Z"/>
      <path class="st15" d="M8.3,24.8s0,0,0,0c0,0,0,0,0,0h0c0,0,.3,0,.6,0,0,0,0,0,0,0l.6.2c.3.1.5.3.5.3h0s0,0,0,0c0,0,0,0,0,0,0,0,0,0,0,0l-1.6-.7Z"/>
      <path class="st3" d="M28,26c-.1.8,0,1.5.2,2.2,0,.2.2.4.3.6.2.3.5.5.9.6.3,0,.6,0,.8,0,.2,0,.3-.2.5-.2.2,0,.4,0,.7,0,0,0,0,0,0,0,0,0,0,0,0,0v1.8c-.2.5-.2,1-.3,1.6,0,1-.1,2.2-.2,3.5,0,.4,0,.9-.1,1.3,0,.1,0,.3,0,.4,0,.1,0,.3,0,.5,0,0,0,0,0,0v.7s0,0,0,0h.1s-3.5.4-3.5.4l.4-.2s0,0,0,0c0-.1,0-.3,0-.4,0-.9,0-1.8,0-2.6,0-.1,0-.4,0-.8.2-.2.5-.5.7-.7.2-.3.4-.6.6-1,.5-.9.8-1.9,1-2.9,0,0,0,0,0,0,0,0,0,0,0,0,.2.1.3.2.4.4,0,0,0,0,0,0,0,0,0,0,0,0v-.4s0,0,0,0c-.3-.5-.8-.6-1.4-.5,0,0,0,0,0,0,0,0,0,0,0,0h.1c0,.1,0,.2,0,.2,0,0,0,0,0,0-.2.3-.7.4-1,.5-.2,0-.6.1-1,.2l.2-5.2h.2Z"/>
      <ellipse class="st1" cx="29.9" cy="26.4" rx=".4" ry=".4" transform="translate(-9.8 30.3) rotate(-47)"/>
      <ellipse class="st14" cx="37" cy="26.7" rx=".3" ry="0" transform="translate(7 61.2) rotate(-84.8)"/>
      <path class="st4" d="M43.3,24.7c0-.2,0-.5.2-.7.2-.2.5-.4.8-.4.2,0,.4,0,.5.2.3.5.2,1.3-.5,1.4,0,0,0,0,0,0-.4,0-.7-.2-.9-.5ZM46.7,23.7c.2.2.4.5.2.8-.2.3-.7.6-1,.4-.5-.2-.6-.6-.5-1.1,0,0,0,0,0,0,.2-.6.9-.4,1.3,0ZM47.3,27c-.3,0-.8,0-.9-.3-.3-.5.1-1.5.8-1.5.6,0,.7.6.7,1.1,0,.3-.2.6-.5.7ZM45.2,25.5c.2,0,.4.2.4.4s-.2.4-.4.4-.4-.2-.4-.4.2-.4.4-.4ZM43.1,27.4c-.2-.2-.3-.6-.3-.9,0-.4.2-.7.6-.8.1,0,.3,0,.5.1.2.1.4.3.5.6,0,.3,0,.5,0,.7-.2.4-.8.5-1.1.3ZM46.1,27c.3.2.5.7.3,1.1-.1.3-.6.4-.9.5-.3,0-.6,0-.7-.3-.3-.4-.1-.9.2-1.2.3-.2.8-.3,1.1,0Z"/>
      <ellipse class="st9" cx="9.7" cy="28" rx=".2" ry=".5" transform="translate(-19.6 32.7) rotate(-79.9)"/>
      <path class="st15" d="M47,28.5c-.7.5-1.5.7-2.3.6-.7,0-1.2-.4-1.7-.8.2.1.4.2.5.4.1.1.4.2.7.3,0,0,.2,0,.5,0,.8.1,1.5,0,2.2-.5,0,0,0,0,0,0,0,0,0,0,0,0Z"/>
      <path class="st3" d="M24.3,28.4c0,.9,0,1.7,0,2.5-.6-.1-1.2-.3-1.8-.6,0,0,0,0,0,0,0,0,0,0,0,0,0,0,.1,0,.2,0,0,0,0,0,0,0,0,0,0,0,0,0-.4-.1-.8,0-1.1.3-.2-.4-.5-.8-.8-1.2,0,0,0,0,0,0-.2,0-.2,0-.1-.1.2,0,.5,0,.8,0,.5,0,.9.2,1.3.3.2,0,.5,0,.7-.1.3-.2.5-.5.7-.8Z"/>
      <path class="st12" d="M20.7,29.1c-.1,0,0,0,.1.1,0,0,0,0,0,0,.3.4.6.8.8,1.2-.1,0-.2.2-.3.3,0,.2-.2.3-.3.2,0,0,0,0,0,0,0,0,0,0,0,0,.2.3.6,0,.8-.2,0,0,0,0,0,0,0,0,0,0,0,0,0,.2,0,.4,0,.6.2.9.6,1.9,1.1,2.7.3.5.7,1,1,1.3.8.6,1.7.9,2.7.7.4,0,.7-.2,1.1-.4,0,0,.2-.1.3-.2,0,.4,0,.7,0,.8,0,.9,0,1.7,0,2.6,0,.1,0,.2,0,.4,0,0,0,0,0,0l-.4.2-2.8.3s0,0-.1,0c0,0,0,0,0,0v-2.6c0,0,0-.1,0-.1,0,0,0,0,0,0,.4,0,.7,0,1.4,0,0,0,0,0,0,0,0,0,0,0,0,0,0,0,0,0,0,0-.5,0-.9-.3-1.3-.6-.1-.1-.2-.3-.1-.5,0-.1,0-.2-.2-.3-.3-.1-.5-.5-.9-.9-.2-.2-.3-.4-.4-.7,0,0,0,0,0,0,0,0,0,0,0,0,0,.4,0,.7,0,1,0,.3,0,.7,0,1.1,0,.9,0,1.6,0,2,0,.7,0,1.3,0,1.8l-2.1.2c0,0,0-.2,0-.3,0-.2,0-.3,0-.3,0-.8-.1-1.5-.2-2.3-.1-1.6-.3-3.1-.4-4.7,0-.8-.1-1.5-.2-2.3,0-.2,0-.3,0-.5,0-.2,0-.4,0-.5.2,0,.4-.1.6-.1Z"/>
      <path class="st12" d="M32.5,38.9h-1.6c0,.1-.1.1-.1.1,0,0,0,0,0,0v-.7s0,0,0,0c0-.2,0-.3,0-.5,0-.1,0-.3,0-.4,0-.4,0-.9.1-1.3,0-1.3.2-2.5.2-3.5,0-.5,0-1,.1-1.6.8-.3,1.5-.8,2.1-1.5,0,0,0,0,0,0,0,0,0,0,0,0,0,.5,0,1-.1,1.5,0,.6,0,1-.2,1.6,0,.6-.1,1.3-.2,2,0,.6-.1,1.3-.2,2,0,.7-.2,1.4-.2,1.8,0,0,0,.2,0,.3,0,0,0,0,0,0-.1,0-.2.1,0,.1Z"/>
      <path class="st4" d="M28.1,35.4c0,0-.2.1-.3.2-.3.2-.7.4-1.1.4-1,.1-1.9,0-2.7-.7-.4-.3-.7-.7-1-1.3-.5-.9-.9-1.8-1.1-2.7,0-.2,0-.3,0-.6,0,0,0,0,0,0,0,0,0,0,0,0-.2.2-.6.5-.8.2,0,0,0,0,0,0,0,0,0,0,0,0,.2.1.3,0,.3-.2,0-.1.2-.3.3-.3.3-.2.8-.4,1.1-.3,0,0,0,0,0,0,0,0,0,0,0,0,0,0-.1,0-.2,0,0,0,0,0,0,0,0,0,0,0,0,0,.6.3,1.2.5,1.8.6.2,0,.4,0,.4,0,.9.1,1.8.1,2.8,0,.4,0,.8-.1,1-.2.3,0,.8-.3,1-.5,0,0,0,0,0,0,0,0,0,0,0,0h-.1c0-.1,0-.1,0-.1,0,0,0,0,0,0,.6,0,1.1,0,1.4.5,0,0,0,0,0,0v.4s0,0,0,0c0,0,0,0,0,0,0-.1-.2-.3-.4-.4,0,0,0,0,0,0,0,0,0,0,0,0-.1,1-.5,2-1,2.9-.2.4-.4.7-.6,1-.2.3-.4.5-.7.7ZM29.2,31.1c-.8.4-1.7.5-2.6.5-.5,0-1.1,0-1.5,0-.8,0-1.5-.2-2.2-.5,0,0,0,0,0,0,0,0,0,0,0,0,0,.2,0,.3.1.5.7.9,1.9,1.2,2.9,1.2.9,0,1.8,0,2.5-.6.4-.2.7-.6.8-1,0,0,0,0,0,0,0,0,0,0,0,0ZM23.8,34.2c0,.2.2.3.4.5.3.3.6.5.9.7.6.2,1.1.3,1.8.1.2,0,.5-.2.4-.5,0-.1,0-.2-.2-.4-.3-.3-.6-.5-1-.6-.5-.2-1.1-.3-1.7-.2-.2,0-.5.1-.7.3,0,0,0,0,0,0Z"/>
      <ellipse class="st5" cx="46.9" cy="30.5" rx=".2" ry=".3" transform="translate(14.9 76.4) rotate(-88.2)"/>
      <ellipse class="st15" cx="9.6" cy="30.9" rx="1.1" ry=".1" transform="translate(-7 3.1) rotate(-13.5)"/>
      <path class="st1" d="M29.2,31.1s0,0,0,0c0,0,0,0,0,0-.1.4-.4.8-.8,1-.8.5-1.6.6-2.5.6-1,0-2.2-.4-2.9-1.2-.1-.1-.2-.3-.1-.5,0,0,0,0,0,0,0,0,0,0,0,0,.7.3,1.5.5,2.2.5.4,0,1,0,1.5,0,.9,0,1.8-.1,2.6-.5Z"/>
      <path class="st3" d="M40,32.8c-.1,0-.2-.2-.3-.2-.2-.2-.4-.3-.7-.3-.2,0-.4,0-.5,0,.2-.3.7-.6,1.1-.6.4,0,.7.3.7.7,0,.1,0,.3-.2.4Z"/>
      <path class="st16" d="M41.6,33.7c0-.2-.2-.5-.4-.7,0,0-.2-.2-.5-.4h0c0,0,0,0,0,0,.5-.2,1-.4,1.5-.4.3,0,.6,0,.8.2,0,0,0,0,0,0,0,0,0,0,0,0,0,0-.1,0-.3.1-.5.3-.9.6-1.2,1,0,0,0,0,0,0Z"/>
      <path class="st12" d="M40,32.8c0,0,.2,0,.3,0,0,0,.2,0,.2,0,0,0,.2,0,.2,0,.2.2.4.3.5.4.2.2.3.4.4.7v.3c0,0,0,0,0,0,0,0,0,0,0,0l.6-.6s0,0,0,0h0c.4-.3.7-.4,1.1-.4,0,0,0,0,0,0,.3,0,.4.3.4.7,0,0-.1,0-.2,0-1,1.3-2.8,1.7-4.3,1.3-.3,0-.6-.2-.9-.3,0,0,0,0,0,0-.8.2-1.5.3-2.3.1-.5-.1-1-.4-1.4-.8,0-.1,0-.3,0-.4,0,0,0,0,0,0v-.5c0,0,0,0,.1,0,0,0,0,0,0,0,.7.2,1.4.2,2.1.1.2,0,.4,0,.6-.2,0,0,0,0,0,0,0,0,0,0,0,0,0,.1,0,.3.1.4,0,0,0,.2.1.3,0,0,0,.1.2.1,0,0,0,0,0,0,0,0,0,0,0,0,0-.2,0-.3-.2-.4,0-.2.1-.4.2-.6.1-.2.2-.4.4-.6.1,0,.3,0,.5,0,.3,0,.5,0,.7.3.1,0,.2.2.3.2Z"/>
      <path class="st8" d="M42.3,33.3h0c0,.1,0,.1,0,.1l-.6.6s0,0,0,0c0,0,0,0,0,0v-.3s0,0,0,0c.2-.2.4-.4.7-.4Z"/>
      <path class="st3" d="M37.9,33.9v-.3c.2,0,.2.2.2.4,0,0,0,0,0,0,0,0,0,0,0,0-.1,0-.2,0-.2-.1Z"/>
      <path class="st16" d="M43.8,33.7c0,.3-.2.6-.4.9-.3.3-.5.5-.9.7-.5.3-1.1.5-1.8.5-.6,0-1,0-1.6-.2,0,0-.1,0-.2,0-1.1.6-2.3.7-3.6.3-.3,0-.5-.2-.7-.3,0,0,0,0,0-.1,0,0,0-.2,0-.3,0,0,0,0,0,0,0-.3,0-.6,0-.9.4.4.9.6,1.4.8.8.2,1.5,0,2.3-.1,0,0,0,0,0,0,.3,0,.6.2.9.3,1.5.4,3.3,0,4.3-1.3,0,0,0,0,.2,0Z"/>
      <path class="st12" d="M23.8,34.2s0,0,0,0c.1-.2.4-.3.7-.3.6,0,1.1,0,1.7.2.4.1.7.3,1,.6.1.1.2.3.2.4,0,.3-.2.4-.4.5-.6.2-1.2,0-1.8-.1-.4-.1-.7-.4-.9-.7-.2-.2-.3-.3-.4-.5ZM27,34.6c0,0,0,0-.1-.1-.2-.2-.5-.4-.7-.5-.2,0-.3,0-.5-.1-.1,0-.2,0-.4,0-.3,0-.8,0-1.1,0,0,0-.1,0-.2.2,0,0,0,0,0,0,0,.1,0,.2.1.2.1,0,.2.2.3.3,0,0,.1.1.2,0,0,0,0,0,0,0,.5-.3,1-.3,1.6-.3.3,0,.6,0,.8.2,0,0,0,0,0,0,0,0,0,0,0,0,0,0,0,0,0,0,0,0,0,0,0,0Z"/>
      <path class="st16" d="M27,34.7s0,0,0,0c0,0,0,0,0,0-.3-.1-.5-.2-.8-.2-.6,0-1.1,0-1.6.3,0,0-.2,0-.2,0,0,0,0,0,0,0,0-.1-.1-.2-.3-.3,0,0,0-.1-.1-.2,0,0,0,0,0,0,.1-.1.2-.2.2-.2.3-.1.8-.1,1.1,0,.1,0,.3,0,.4,0,.1,0,.3,0,.5.1.3.1.5.3.7.5,0,0,0,0,.1.1,0,0,0,0,0,0,0,0,0,0,0,0Z"/>
      <path class="st14" d="M11.2,33.8s0,0,0,0h0c0,0,0,.2-.3.3h0c-.2.1-.3.1-.4,0,0,0,0,0,0,0h0s0,0,0,0l.7-.3Z"/>
      <path class="st3" d="M24.6,39.8l-1.5.2c0-.5,0-1.1,0-1.8,0-.4,0-1.1,0-2,0-.4,0-.7,0-1.1,0-.3,0-.7,0-1,0,0,0,0,0,0,0,0,0,0,0,0,.1.3.2.5.4.7.3.4.5.7.9.9,0,0,.2.1.2.3,0,.2,0,.4.1.5.4.3.8.6,1.3.6,0,0,0,0,0,0,0,0,0,0,0,0,0,0,0,0,0,0-.6,0-.9,0-1.4,0,0,0-.1,0-.1.1,0,0,0,0,0,0v2.6s0,0,0,0c0,0,0,0,.1,0Z"/>
      <path class="st16" d="M20.7,37.3c0,.8.1,1.5.2,2.3,0,0,0,.1,0,.3,0,.1,0,.2,0,.3-.4,0-.9.1-1.3.2-.3,0-.5,0-.8,0-.2,0-.1-.1-.2-.3,0-.8-.2-1.7-.3-2.5.4-.2.8-.3,1.3-.2.3,0,.7,0,1,0Z"/>
      <ellipse class="st14" cx="45.9" cy="37.4" rx="0" ry=".6" transform="translate(-12.6 46.2) rotate(-47.7)"/>
      <path class="st1" d="M11.9,47.5c0,.7,0,1.4,0,2.1-.2,1.3-1,1.9-2.3,1.8-.7,0-1.4-.4-1.7-1.1-.3-.9-.3-1.8-.3-2.8,0-.7,0-1.4,0-2.1.2-1.3,1-1.9,2.3-1.8.7,0,1.4.4,1.7,1.1.3.9.3,1.8.3,2.8ZM9.1,47.5c0,1,0,1.6,0,1.7,0,.5.1.9.7.9.6,0,.7-.4.7-.9,0,0,0-.6,0-1.7,0-1,0-1.6,0-1.7,0-.5-.1-.9-.7-.9-.6,0-.7.4-.7.9,0,0,0,.6,0,1.7ZM21.2,50.8c-.2.3-.5.4-.8.5-.5.1-1,.1-1.5,0-.3,0-.5-.3-.7-.5-.4-.4-.5-1-.5-1.5,0-.6,0-1.2,0-1.7,0-.7,0-1.4,0-2,0-.2,0-.4.1-.7.2-.6.8-1.2,1.4-1.3.4,0,.8,0,1.2,0,.9.2,1.2,1.2,1.2,2,0,.1,0,.2,0,.3,0,0,0,.1-.1.1-.2,0-.5,0-1,0-.2,0-.2,0-.2-.2,0-.3,0-.8-.4-.9-.3,0-.7,0-.7.4,0,.2,0,.5,0,.7,0,1.3,0,2.3,0,2.9,0,0,0,.2,0,.4,0,.2,0,.3.1.4.2.3.6.3.9.1.2-.2.2-.6.2-.9,0,0,0,0,0,0,0,0,0,0,0,0h1.2s0,0,0,0c0,.6,0,1.2-.5,1.8ZM25.5,51.2c-.5.2-1,.2-1.5.1-.3,0-.6-.2-.9-.4-.5-.5-.7-1.2-.7-1.8,0-.9,0-2,0-3.2,0-1.2.5-2.2,1.8-2.3.3,0,.5,0,.7,0,1.4.2,1.7,1.3,1.7,2.5,0,1.1,0,2.1,0,3,0,.9-.4,1.7-1.2,2.1ZM23.8,47.5c0,.7,0,1.1,0,1.3,0,.2,0,.5,0,.7,0,.3.3.5.6.5.3,0,.6-.1.7-.4,0-.2,0-.4,0-.6,0,0,0-.6,0-1.5,0-1,0-1.5,0-1.5,0-.2,0-.4,0-.6-.1-.3-.3-.5-.7-.4-.3,0-.5.2-.6.5,0,.2,0,.5,0,.7,0,.2,0,.7,0,1.3ZM41.7,49.8c-.1.7-.6,1.3-1.3,1.5-.5.1-1,.1-1.5,0-.7-.3-1.1-1-1.1-1.8,0-.2,0-.3,0-.5,0-.8,0-1.7,0-2.7,0-.3,0-.7,0-1,.1-.9.7-1.6,1.7-1.7,0,0,.2,0,.4,0,1,0,1.6.7,1.7,1.6,0,.3,0,.6,0,.8,0,0,0,.1-.2.1,0,0-.4,0-1,0,0,0,0,0,0,0-.1-.1-.1-.5-.1-.7,0-.2-.2-.4-.4-.4,0,0-.2,0-.4,0-.3,0-.4.4-.4.7,0,.1,0,.3,0,.4,0,.9,0,1.9,0,2.7,0,.3,0,.6,0,.8,0,.4.3.6.8.5.4,0,.4-.6.4-.9,0-.1,0-.2.2-.2.4,0,.7,0,1.1,0,0,0,0,0,.1.1,0,.2,0,.5,0,.7ZM35.9,51.3c-.2,0-.3,0-.4-.2-.8-2-1.3-3.3-1.6-4,0,0,0,0,0,0,0,0,0,0,0,0,0,.3,0,.8,0,1.1,0,1,0,2,0,2.9-.3,0-.7,0-1.1,0,0,0-.2,0-.2,0,0,0,0,0,0,0,0-2.9,0-5.4,0-7.3,0,0,0-.1.1-.1.2,0,.5,0,1.1,0,0,0,.1,0,.1,0l1.5,4.1s0,0,0,0h0s0,0,0,0c0,0,0,0,0,0v-.2s0,0,0,0c0-2.3,0-3.6,0-3.8,0-.1,0-.2.2-.2.6,0,1,0,1.1,0,0,0,.1,0,.1.1v7.3c0,0,0,.1,0,.1h-.8ZM49.1,51.3h-1c-.1,0-.2,0-.2-.1-.5-1.3-1-2.7-1.6-4,0,0,0,0,0,0,0,0,0,0,0,0,0,.2,0,.3,0,.4,0,.3,0,1.4,0,3.5,0,.1,0,.2-.2.2-.3,0-.6,0-.9,0,0,0-.2,0-.2,0,0,0,0,0,0-.1v-7.3c0,0,0-.1.1-.1h1.1s0,0,0,0c0,0,0,.1.1.3.5,1.2.9,2.3,1.2,3.2,0,.2.2.4.2.6,0,0,0,0,0,0,0,0,0,0,0,0,0-1.3,0-2.7,0-4,0-.1,0-.2.2-.2.2,0,.5,0,1,0,.1,0,.2,0,.2.2,0,.4,0,2.8,0,7.2,0,.1,0,.2-.1.2ZM51.7,45v1.8s0,0,0,0c0,0,0,0,0,0,.7,0,1.2,0,1.5,0,.1,0,.2,0,.2.1,0,.5,0,.8,0,1.1,0,0,0,.1-.1.1h-1.5s0,0,0,0h0v1.7s0,0,0,0c0,0,0,0,0,0,.6,0,1.1,0,1.8,0,.1,0,.2,0,.2.2,0,.3,0,.6,0,.9,0,.2,0,.2-.2.2-.2,0-.3,0-.3,0-.9,0-1.7,0-2.4,0-.2,0-.4,0-.4-.2,0-1.6,0-4,0-7.2,0-.1.1-.1.2-.1.6,0,1.6,0,3,0,0,0,0,0,0,0h0v1.1c0,0,0,.2-.2.2h-1.7s0,0,0,0ZM4.3,48.7s0,0,0,0c0,0,0,0,0,0v2.3c0,0,0,.2-.2.2-.2,0-.5,0-.8,0-.2,0-.4,0-.4-.3,0-3.1,0-5.5,0-7.2,0-.1,0-.2.2-.2,1,0,1.7,0,2,0,.3,0,.6,0,.8.2.7.3,1,.9,1.1,1.7,0,.9,0,2.4-.9,2.9-.3.2-.6.3-.9.3-.3,0-.6,0-.9,0ZM4.3,45v2.4s0,0,0,0c.2,0,.3,0,.5,0,.6,0,.7-.4.7-.9,0-.3,0-.6,0-.9,0-.4-.2-.6-.5-.6-.2,0-.5,0-.7,0,0,0,0,0,0,0ZM14.9,43.7c.7,0,1.3.3,1.6.8.4.7.4,1.4.4,2.1,0,.9-.6,2-1.6,2.1-.3,0-.7,0-1,0,0,0,0,0,0,0,0,0,0,0,0,0v2.4c0,0-.1.1-.3.1-.5,0-.8,0-.9,0,0,0-.2,0-.2,0,0,0,0,0,0-.1,0-2.4,0-4.8,0-7.3,0-.1,0-.2.2-.2.6,0,1.3,0,1.9,0ZM14.2,45v2.4s0,0,0,0c.2,0,.3,0,.5,0,.6,0,.7-.4.7-.9,0-.3,0-.6,0-.9,0-.4-.2-.6-.5-.6-.2,0-.5,0-.7,0,0,0,0,0,0,0ZM27.7,51.3c-.1,0-.2,0-.2-.2,0-.6,0-1.2,0-1.8,0-2.3,0-4.1,0-5.4,0-.1,0-.2.1-.2.7,0,1.2,0,1.5,0,.5,0,.9,0,1.1.1.9.3,1.3,1.1,1.3,2.1,0,.8-.1,2-.9,2.5,0,0,0,0,0,.1l.9,2.6c0,0,0,.1,0,.2,0,0,0,0,0,0-.3,0-.7,0-1.1,0-.1,0-.2-.1-.2-.2-.3-1.1-.6-1.8-.7-2.3,0,0,0,0,0,0h-.4s0,0,0,0v2.5s0,0,0,0h-1.2ZM29,45v2.4s0,0,0,0h.6c.4,0,.7-.3.7-.7v-1.1c0-.4-.3-.7-.7-.7h-.6s0,0,0,0ZM43.7,43.7h.2c0,0,0,0,0,.1,0,2.6,0,5.1,0,7.3,0,.1,0,.2-.2.2-.4,0-.7,0-1.1,0,0,0-.1,0-.1-.1,0-2.4,0-4.9,0-7.3,0,0,0-.1.1-.1h1Z"/>
    </g>
  </g>
</svg>