<?xml version="1.0" encoding="utf-8"?>
<!-- Generator: Adobe Illustrator 25.0.1, SVG Export Plug-In . SVG Version: 6.00 Build 0)  -->
<svg version="1.1" xmlns="http://www.w3.org/2000/svg" xmlns:xlink="http://www.w3.org/1999/xlink" x="0px" y="0px"
	 viewBox="0 0 56.7 56.7" style="enable-background:new 0 0 56.7 56.7;" xml:space="preserve">
<style type="text/css">
	.st0{display:none;}
	.st1{display:inline;fill:#1C2531;}
	.st2{display:inline;fill:#ED1E6D;}
	.st3{display:inline;}
	.st4{fill:#FFFFFF;}
	.st5{display:inline;fill:#70CCD6;}
	.st6{fill:#0D1426;}
	.st7{fill:#151240;}
	.st8{fill:#020202;}
	.st9{fill:url(#SVGID_1_);}
	.st10{fill:#3F65B0;}
	.st11{display:none;fill:#191B20;}
	.st12{fill:#191B1F;}
	.st13{fill:url(#SVGID_2_);}
	.st14{fill:url(#SVGID_3_);}
	.st15{fill:#D7D7D7;}
	.st16{fill:#2D2D4F;}
	.st17{fill-rule:evenodd;clip-rule:evenodd;fill:url(#path0_fill_1_);}
	.st18{fill:url(#_489313608_2_);}
	.st19{fill-rule:evenodd;clip-rule:evenodd;fill:url(#_489313392_2_);}
	.st20{fill-rule:evenodd;clip-rule:evenodd;fill:#2C2A29;}
	.st21{fill:url(#_489313608_3_);}
	.st22{fill-rule:evenodd;clip-rule:evenodd;fill:url(#_489313392_3_);}
	.st23{fill-rule:evenodd;clip-rule:evenodd;fill:#FFFFFF;}
	.st24{fill:url(#SVGID_4_);}
	.st25{fill-rule:evenodd;clip-rule:evenodd;fill:url(#SVGID_5_);}
	.st26{fill-rule:evenodd;clip-rule:evenodd;fill:url(#SVGID_6_);}
	.st27{fill-rule:evenodd;clip-rule:evenodd;fill:url(#SVGID_7_);}
	.st28{fill-rule:evenodd;clip-rule:evenodd;fill:url(#SVGID_8_);}
	.st29{fill-rule:evenodd;clip-rule:evenodd;fill:url(#SVGID_9_);}
	.st30{fill-rule:evenodd;clip-rule:evenodd;fill:url(#SVGID_10_);}
	.st31{display:inline;fill:#131314;}
	.st32{fill-rule:evenodd;clip-rule:evenodd;fill:#ED7F23;}
	.st33{fill-rule:evenodd;clip-rule:evenodd;fill:#383385;}
	.st34{fill-rule:evenodd;clip-rule:evenodd;fill:url(#SVGID_11_);}
	.st35{fill:#D75096;}
	.st36{fill:url(#SVGID_12_);}
	.st37{fill:url(#SVGID_13_);}
	.st38{fill:#6557A5;}
	.st39{fill:url(#SVGID_14_);}
	.st40{fill:url(#SVGID_15_);}
	.st41{font-family:'NoveoSans-Bold';}
	.st42{font-size:18.1585px;}
	.st43{font-size:3.5145px;}
	.st44{fill-rule:evenodd;clip-rule:evenodd;fill:url(#SVGID_16_);}
	.st45{fill-rule:evenodd;clip-rule:evenodd;fill:url(#SVGID_17_);}
	.st46{fill:#425EAA;}
	.st47{fill-rule:evenodd;clip-rule:evenodd;fill:#2E4EA2;}
	.st48{fill-rule:evenodd;clip-rule:evenodd;fill:#209FDA;fill-opacity:0.502;}
	.st49{fill:url(#SVGID_18_);}
	.st50{fill:#204B83;}
	.st51{fill-rule:evenodd;clip-rule:evenodd;fill:url(#SVGID_19_);}
	.st52{fill-rule:evenodd;clip-rule:evenodd;fill:url(#SVGID_20_);}
	.st53{display:inline;fill:url(#_443267680_1_);}
	.st54{display:inline;fill:url(#SVGID_21_);}
	.st55{fill:#F26C6E;}
	.st56{fill-rule:evenodd;clip-rule:evenodd;fill:#EA5361;}
	.st57{fill-rule:evenodd;clip-rule:evenodd;fill:#00754A;}
	.st58{fill-rule:evenodd;clip-rule:evenodd;fill:#636466;}
	.st59{clip-path:url(#SVGID_23_);fill:url(#SVGID_24_);}
	.st60{clip-path:url(#SVGID_26_);fill:url(#SVGID_27_);}
	.st61{clip-path:url(#SVGID_29_);fill:url(#SVGID_30_);}
	.st62{clip-path:url(#SVGID_32_);fill:url(#SVGID_33_);}
	.st63{clip-path:url(#SVGID_35_);fill:url(#SVGID_36_);}
	.st64{clip-path:url(#SVGID_38_);fill:url(#SVGID_39_);}
	.st65{fill-rule:evenodd;clip-rule:evenodd;fill:#2F76BC;}
	.st66{fill-rule:evenodd;clip-rule:evenodd;fill:#E6E7E7;}
	.st67{fill:#49A8DE;}
	.st68{fill:#4066B0;}
	.st69{fill:#66CEF6;}
	.st70{fill:#4269B2;}
	.st71{fill:#FFFFFF;filter:url(#Adobe_OpacityMaskFilter);}
	.st72{mask:url(#mask0_1693_6086_2_);}
	.st73{fill:#FFFFFF;filter:url(#Adobe_OpacityMaskFilter_1_);}
	.st74{mask:url(#mask1_1693_6086_2_);}
	.st75{fill:#FFFFFF;filter:url(#Adobe_OpacityMaskFilter_2_);}
	.st76{mask:url(#mask2_1693_6086_2_);}
	.st77{fill-rule:evenodd;clip-rule:evenodd;fill:#F8C214;}
	.st78{fill-rule:evenodd;clip-rule:evenodd;fill:#EC8723;}
	.st79{fill-rule:evenodd;clip-rule:evenodd;fill:#E14226;}
	.st80{fill-rule:evenodd;clip-rule:evenodd;fill:#A72F28;}
	.st81{fill-rule:evenodd;clip-rule:evenodd;fill:#ED1C24;}
	.st82{fill-rule:evenodd;clip-rule:evenodd;fill:#3F586E;}
	.st83{fill:#3E6FB6;}
	.st84{fill:#7059A6;}
</style>
<g id="Layer_21" class="st0">
	<rect x="-6.4" y="-6.1" class="st1" width="70.8" height="69.8"/>
</g>
<g id="Globiance" class="st0">
	<path class="st2" d="M48.7,56.7H8c-4.4,0-8-3.6-8-8V8c0-4.4,3.6-8,8-8h40.7c4.4,0,8,3.6,8,8v40.7C56.7,53.1,53.1,56.7,48.7,56.7z"
		/>
	<g id="BDbpbetif1-Kopie" class="st3">
		<g id="Gruppe">
			<g id="g1">
				<path id="Pfad" class="st4" d="M16.5,32.9c0.4-0.3,0.8-0.6,1.2-0.9c1.3-1,2.4-2.2,3.6-3.4c1.8-2,3.5-4.1,5-6.3
					c0.9-1.3,2-2.4,3.3-3.3c0.3-0.2,0.5-0.3,0.8-0.5c0,0,0.1,0,0.1-0.1c0,0,0,0.1,0.1,0.1c0.8,2.5,1.7,5,2.7,7.5
					c0.7,1.7,1.3,3.3,2.2,5c0.3,0.6,0.6,1.1,0.9,1.7c0,0,0,0.1,0.1,0.1C29.8,32.9,23.1,32.9,16.5,32.9z"/>
			</g>
			<g id="g2">
				<path id="path1" class="st4" d="M32.3,18c0.2,0,0.4-0.1,0.5-0.1c1.6-0.1,3,0.5,4.3,1.3c0.3,0.2,0.6,0.5,0.9,0.7
					c0.3,0.3,0.5,0.6,0.8,1c1.7,2.2,3.4,4.4,5.2,6.4c1.4,1.6,2.8,3.1,4.4,4.5c0.3,0.3,0.7,0.6,1,0.9c0,0,0.1,0.1,0.1,0.1
					c-0.1,0-0.1,0-0.1,0c-3.5,0-7.1,0-10.6,0c-0.1,0-0.2,0-0.2-0.1c-0.4-0.4-0.7-0.9-1-1.4c-0.8-1.3-1.4-2.6-1.9-4
					c-1-2.5-1.9-5-2.8-7.6c-0.2-0.6-0.4-1.2-0.6-1.8C32.3,18.1,32.3,18.1,32.3,18z"/>
			</g>
			<g id="g3">
				<path id="path2" class="st4" d="M13.4,34.7c6.4,0,12.9,0,19.3,0c-0.3,0.2-0.6,0.3-0.8,0.4c-2.4,1.3-4.9,2.5-7.5,3.4
					c-1.2,0.5-2.4,0.9-3.7,1.2c-0.4,0.1-0.9,0.2-1.3,0.3c-0.5,0.1-1,0-1.4-0.2c-0.5-0.2-1-0.5-1.2-1c-0.3-0.5-0.6-1-0.9-1.5
					C15.3,36.3,14.5,35.4,13.4,34.7C13.4,34.7,13.4,34.7,13.4,34.7C13.4,34.7,13.4,34.7,13.4,34.7z"/>
			</g>
			<g id="g4">
				<path id="path3" class="st4" d="M29.9,16.8c-0.2,0.1-0.5,0.2-0.7,0.4c-1.1,0.6-2.1,1.5-3,2.4c-0.8,0.8-1.4,1.7-2.1,2.7
					c-0.9,1.2-1.7,2.3-2.7,3.4c0,0,0,0-0.1,0.1c0.1-0.2,0.2-0.5,0.3-0.7c0.9-2.2,1.6-4.5,2.3-6.8c0.3-1.1,0.6-2.3,0.9-3.4
					c0.2-0.8,0.5-1.6,1-2.3c0.1-0.1,0.2-0.2,0.3-0.3c0.3-0.3,0.7-0.4,1.1-0.1c0.3,0.2,0.5,0.4,0.7,0.7c0.6,0.8,1,1.7,1.4,2.5
					c0.2,0.5,0.4,1.1,0.6,1.6C29.9,16.8,29.9,16.8,29.9,16.8z"/>
			</g>
			<g id="g5">
				<path id="path4" class="st4" d="M17.7,41.6c0.5,0.2,1,0.2,1.6,0.2c0.4,0,0.9-0.1,1.3-0.2c2.3-0.4,4.4-1.3,6.5-2.2
					c0.2-0.1,0.4-0.2,0.5-0.2c-0.2,0.2-0.5,0.4-0.7,0.5c-1,0.8-2,1.8-3,2.7c-0.7,0.6-1.4,1.3-2.1,1.8c-0.3,0.2-0.6,0.4-1,0.6
					c-0.4,0.2-0.8,0.1-1.1-0.1c-0.3-0.2-0.6-0.5-0.8-0.8C18.4,43.3,18,42.5,17.7,41.6C17.7,41.7,17.7,41.7,17.7,41.6z"/>
			</g>
			<g id="g6">
				<path id="path5" class="st4" d="M7.1,34.7c1.3,0.1,2.5,0.3,3.6,0.7c1,0.3,1.9,0.9,2.7,1.6c0.4,0.4,0.7,0.9,1,1.4
					c0.1,0.1,0.1,0.2,0.2,0.4C11.9,37.9,9.5,36.4,7.1,34.7z"/>
			</g>
		</g>
	</g>
</g>
<g id="fathom" class="st0">
	<path class="st5" d="M48.7,56.7H8c-4.4,0-8-3.6-8-8V8c0-4.4,3.6-8,8-8h40.7c4.4,0,8,3.6,8,8v40.7C56.7,53.1,53.1,56.7,48.7,56.7z"
		/>
	<g class="st3">
		<rect x="8.5" y="7.1" class="st6" width="39.6" height="8.7"/>
		<g>
			<path class="st6" d="M8.5,31.5c0-2.9,0-5.8,0-8.7c13.7,6.9,25.9-6.9,39.6,0c0,2.9,0,5.8,0,8.7C34.5,24.7,22.2,38.4,8.5,31.5z"/>
		</g>
		<circle class="st6" cx="14.3" cy="43.8" r="5.8"/>
	</g>
</g>
<g id="Layer_6_1_" class="st0">
	<g id="xswap" class="st3">
		<path class="st7" d="M48.7,56.7H8c-4.4,0-8-3.6-8-8V8c0-4.4,3.6-8,8-8h40.7c4.4,0,8,3.6,8,8v40.7C56.7,53.1,53.1,56.7,48.7,56.7z"
			/>
		<g>
			<g>
				<g>
					<g>
						<path class="st8" d="M46.8,9.2C46.6,9,46.3,9,45.9,9c-0.2,0-0.4,0-0.8,0.2l-10.3,6.5l-5.3,1.1l-2.1,0.6l1.9,1.7
							c1.3,1.1,2.1,2.3,2.9,3.6c0.4,0.6,0.8,1.5,1.1,2.3c0.8-1.3,2.1-2.5,3.6-3.4l8.2-5.3c0.6-0.4,1.3-0.8,1.5-1.5
							c0.8-0.6,1.1-1.1,1.1-1.7v-2.9c0-0.2,0-0.4-0.2-0.6C47.2,9.4,47.2,9.4,46.8,9.2z"/>
						<path class="st8" d="M32.7,28.6c0-0.2,0-0.4,0-0.6c-0.2-1.5-0.6-2.9-1.5-4.4c-1.1-1.9-2.9-3.6-5.3-5.1L11.8,9.6
							c-0.2-0.2-0.4-0.2-0.6-0.2c-0.2,0-0.4,0-0.8,0.2C10.2,9.6,10,9.8,10,10c-0.2,0.2-0.2,0.2-0.2,0.4v2.9c0,0.4,0.2,1.1,0.4,1.5
							c0.4,0.4,0.8,1.1,1.5,1.3l8,5.1c1.7,1.1,2.7,2.3,3.6,3.6c0.8,1.3,1.1,2.5,1.1,3.8c0,0.2,0,0.4,0,0.6c0.2,1.5,0.6,2.9,1.5,4.4
							c1.1,1.9,2.9,3.6,5.3,5.1l14.1,8.8c0.2,0.2,0.4,0.2,0.6,0.2c0.2,0,0.4,0,0.8-0.2c0.2-0.2,0.4-0.2,0.4-0.4
							c0.2-0.2,0.2-0.4,0.2-0.6v-2.9c0-0.4-0.2-1.1-0.4-1.5c-0.4-0.4-0.8-0.8-1.5-1.5l-8-5.1c-1.7-1.1-2.9-2.3-3.6-3.6
							C32.9,31.1,32.7,29.8,32.7,28.6z"/>
						<path class="st8" d="M26.8,38c-1.1-1.1-2.1-2.1-2.7-3.2c-0.4-0.6-0.8-1.5-1.1-2.1c-0.8,1.1-1.9,2.1-3.4,3.2l-8,4.8
							c-0.6,0.4-1.3,0.8-1.5,1.5c-0.2,0.4-0.4,0.8-0.4,1.5v2.9c0,0.2,0,0.4,0.2,0.6c0,0,0.2,0.2,0.4,0.2c0.2,0.2,0.4,0.2,0.8,0.2
							c0.2,0,0.4,0,0.6-0.2l14.9-6.9l2.7-1.3C29.5,39.5,26.8,38,26.8,38z"/>
					</g>
					
						<linearGradient id="SVGID_1_" gradientUnits="userSpaceOnUse" x1="11.2406" y1="794.5313" x2="46.6825" y2="831.4497" gradientTransform="matrix(1 0 0 1 0 -783.9969)">
						<stop  offset="0" style="stop-color:#71CDDD"/>
						<stop  offset="1" style="stop-color:#B954A0"/>
					</linearGradient>
					<path class="st9" d="M29.7,16.8l0.2-0.2L44,7.7c0.4-0.4,1.1-0.4,1.7-0.6c0.6,0,1.1,0,1.7,0.4c0.6,0.2,1.1,0.6,1.3,1.1l0,0
						c0.4,0.4,0.4,1.1,0.4,1.7v2.9c0,0.8-0.2,1.7-0.8,2.5c-0.4,0.6-1.3,1.5-2.1,1.9l-8,5.1c-1.5,0.8-2.3,1.9-2.9,2.9
						c-0.4,0.6-0.6,1.5-0.8,2.1c0,0.4,0,0.8,0,1.3c0,0.6,0.4,1.5,0.8,2.1c0.6,1.1,1.7,2.1,2.9,2.9l8,5.1c0.8,0.6,1.7,1.3,2.1,1.9
						c0.4,0.8,0.8,1.7,0.8,2.5v2.9c0,0.6-0.2,1.3-0.4,1.7l0,0c-0.2,0.4-0.8,0.8-1.3,1.1c-0.6,0.2-1.1,0.4-1.7,0.4
						c-0.6,0-1.1-0.2-1.7-0.4l-14.1-8.8c-2.7-1.7-4.6-3.6-5.9-5.7c-0.4-0.6-0.8-1.5-1.1-2.1c-0.8,1.3-1.9,2.3-3.4,3.4l-8,4.8
						c-0.6,0.4-1.3,0.8-1.5,1.5c-0.2,0.4-0.4,0.8-0.4,1.5v2.9c0,0.2,0,0.4,0.2,0.6c0,0,0.2,0.2,0.4,0.2c0.2,0.2,0.4,0.2,0.8,0.2
						c0.2,0,0.4,0,0.6-0.2l13.3-8.4c0.4,0.4,1.1,1.1,1.5,1.5l-13.9,8.6c-0.4,0.2-1.1,0.4-1.7,0.4s-1.1,0-1.7-0.4
						C8.7,49,8.2,48.6,8,48.1l0,0c-0.4-0.4-0.4-1.1-0.4-1.7v-2.9c0-0.8,0.2-1.7,0.8-2.5c0.4-0.8,1.3-1.5,2.1-1.9l8-5.1
						c1.3-0.8,2.3-1.9,2.9-2.9c0.4-0.6,0.6-1.5,0.8-2.1c0-0.4,0-0.8,0-1.3c0-0.6-0.4-1.5-0.8-2.1c-0.6-1.1-1.7-2.1-2.9-2.9l-8-4.6
						C9.7,17.5,9,16.8,8.4,16c-0.4-0.6-0.6-1.5-0.6-2.5v-2.9C7.8,10,8,9.3,8.2,8.9l0,0c0.2-0.4,0.6-0.8,1.3-1.1s1.1-0.4,1.7-0.4
						c0.6,0,1.1,0.2,1.7,0.6L27,16.8c2.5,1.5,4.6,3.4,5.9,5.5c0.4,0.6,0.8,1.5,1.1,2.1c0.8-1.1,1.9-2.1,3.4-3.2l8-5.1
						c0.6-0.4,1.3-0.8,1.5-1.5c0.2-0.4,0.4-0.8,0.4-1.5v-2.7c0-0.2,0-0.4-0.2-0.6c0,0-0.2-0.2-0.4-0.2c-0.2-0.2-0.4-0.2-0.8-0.2
						c-0.2,0-0.4,0-0.6,0.2l-13.7,8.6C30.8,17.6,30.3,17.2,29.7,16.8L29.7,16.8z M24.2,29.2c0.2,1.5,0.6,2.9,1.5,4.4
						c1.1,1.9,2.9,3.6,5.3,5.1l14.1,8.8c0.2,0.2,0.4,0.2,0.6,0.2c0.2,0,0.4,0,0.8-0.2c0.2-0.2,0.4-0.2,0.4-0.4
						c0.2-0.2,0.2-0.4,0.2-0.6v-2.9c0-0.4-0.2-1.1-0.4-1.5c-0.4-0.4-0.8-0.8-1.5-1.5l-8-5.1c-1.7-1.1-2.9-2.3-3.6-3.6
						c-0.8-0.8-1.1-2.1-1.1-3.4c0-0.2,0-0.4,0-0.6c-0.2-1.5-0.6-2.9-1.5-4.4c-1.1-1.9-2.9-3.6-5.3-5.1L11.8,9.6
						c-0.2-0.2-0.4-0.2-0.6-0.2c-0.2,0-0.4,0-0.8,0.2C10.2,9.6,10,9.8,10,10c-0.2,0.2-0.2,0.2-0.2,0.4v2.9c0,0.4,0.2,1.1,0.4,1.5
						c0.4,0.4,0.8,1.1,1.5,1.3l8,5.1c1.7,1.1,2.7,2.3,3.6,3.6c0.8,1.3,1.1,2.5,1.1,3.8C24.2,28.8,24.2,29,24.2,29.2L24.2,29.2z"/>
				</g>
			</g>
		</g>
	</g>
</g>
<g id="Layer_8" class="st0">
	<g id="Layer_5_1_" class="st3">
		<g>
			<path class="st10" d="M7.1,42.5c0,0.9,0.2,1.9,0.5,2.7c0.4,0.9,0.9,1.7,1.6,2.3c0.7,0.7,1.5,1.2,2.3,1.5c0.9,0.4,1.8,0.5,2.7,0.5
				h28.2c1.9,0,3.7-0.8,5-2.1s2.1-3.1,2.1-5V14.2c0-1.9-0.8-3.7-2.1-5s-3.2-2.1-5-2.1H14.3c-1.9,0-3.7,0.8-5,2.1s-2.1,3.2-2.1,5
				L7.1,42.5z M44.8,14.2v28.2c0,0.6-0.3,1.2-0.7,1.7c-0.4,0.4-1,0.7-1.7,0.7H14.3c-0.3,0-0.6-0.1-0.9-0.2c-0.3-0.1-0.5-0.3-0.8-0.5
				c-0.2-0.2-0.4-0.5-0.5-0.8s-0.2-0.6-0.2-0.9V14.2c0-0.6,0.2-1.2,0.7-1.7c0.4-0.4,1-0.7,1.7-0.7h28.2c0.6,0,1.2,0.3,1.6,0.7
				C44.6,13,44.8,13.6,44.8,14.2z"/>
			<path class="st10" d="M17.7,24l6.7,4.4l-6.7,4.4v4.8L28,30.9v-5.1l-10.3-6.6V24z"/>
			<path class="st10" d="M29.4,24l6.7,4.4l-6.7,4.4v4.8L39.7,31v-5.1l-10.3-6.6L29.4,24z"/>
		</g>
	</g>
</g>
<g id="Layer_7_1_" class="st0">
	<g id="Layer_6" class="st3">
		<g>
			<path class="st11" d="M7.1,28.3c0-6.2,5.2-11.2,11.6-11.2h19.4c6.4,0,11.6,5,11.6,11.2l0,0c0,6.2-5.2,11.2-11.6,11.2H18.6
				C12.3,39.6,7.1,34.6,7.1,28.3L7.1,28.3z"/>
			<circle class="st12" cx="28.3" cy="28.3" r="21.3"/>
			
				<linearGradient id="SVGID_2_" gradientUnits="userSpaceOnUse" x1="40.9316" y1="809.0938" x2="15.7321" y2="815.6005" gradientTransform="matrix(1 0 0 1 0 -783.9969)">
				<stop  offset="0" style="stop-color:#7DC791"/>
				<stop  offset="1" style="stop-color:#F7EC35"/>
			</linearGradient>
			<path class="st13" d="M14.9,28.3c0-5.5,4.6-10,10.2-10h6.5c5.6,0,10.2,4.5,10.2,10l0,0c0,5.5-4.6,10-10.2,10h-6.5
				C19.5,38.4,14.9,33.9,14.9,28.3L14.9,28.3z"/>
		</g>
	</g>
</g>
<g id="Layer_9_1_" class="st0">
	<g id="Layer_7" class="st3">
		<g>
			
				<linearGradient id="SVGID_3_" gradientUnits="userSpaceOnUse" x1="36.6152" y1="-954.7301" x2="17.0558" y2="-972.7787" gradientTransform="matrix(1 0 0 -1 0 -933.9969)">
				<stop  offset="0" style="stop-color:#6961AB"/>
				<stop  offset="1" style="stop-color:#5F75B9"/>
			</linearGradient>
			<path class="st14" d="M28.3,7L28.3,7C40,7,49.6,16.5,49.6,28.3l0,0c0,11.7-9.5,21.3-21.3,21.3l0,0C16.6,49.6,7,40.1,7,28.3l0,0
				C7.1,16.5,16.6,7,28.3,7z"/>
			<g>
				<path id="Path_92_00000049182687644418540370000011300672245660524217_" class="st4" d="M46.7,17.6l-7.3,7.3L39,25.3l0.7,0.7
					l0.4-0.4l7.1-7.1C47.1,18.2,46.9,17.9,46.7,17.6L46.7,17.6z"/>
				<path id="Path_93_00000054244528422561519020000005330612572396667778_" class="st4" d="M45.8,16.1l-7.9,7.8l-0.3,0.3l0.7,0.7
					l0.4-0.4l7.7-7.7C46.1,16.6,46,16.3,45.8,16.1L45.8,16.1z"/>
				<path id="Path_94_00000098926657985304337580000015390916663676337830_" class="st4" d="M19.1,42.4l-6.7-0.1
					c0.2,0.2,0.3,0.4,0.5,0.6h9.4v-0.5H19.1L19.1,42.4z"/>
				<path id="Path_95_00000046318147378292337360000009591732871269456306_" class="st15" d="M23.1,22.5c0,0,2-2,3-1.5
					c0-0.9,0.4-1.8,1-2.5l3.6-3.6c1.5-1.6,4.1-1.6,5.6,0l0,0l3,3c1.6,1.6,1.6,4.1,0,5.6L26.7,36.2c-1.6,1.6-4.1,1.6-5.6,0l-3-3
					c-1.6-1.6-1.6-4.1,0-5.6L23.1,22.5L23.1,22.5z"/>
				<path id="Path_96_00000170276157307201310490000011653119909289724077_" class="st4" d="M31.9,16.2c1.6-1.6,4.1-1.6,5.6,0
					l3.3,3.3c1.6,1.6,1.6,4.1,0,5.6L28.2,37.7c-1.6,1.6-4.1,1.6-5.6,0l-3.3-3.3c-1.6-1.6-1.6-4.1,0-5.6L31.9,16.2z"/>
				<path id="Path_97_00000111887192808174199640000010208979585937065642_" class="st15" d="M28.1,39.7c0-1.5-1.2-2.7-2.7-2.7l0,0
					c-1.5,0-2.7,1.2-2.7,2.7l0,0c0,1.5,1.2,2.7,2.7,2.7l0,0C26.9,42.4,28.1,41.2,28.1,39.7L28.1,39.7L28.1,39.7z"/>
				<path id="Path_98_00000159470316325142481960000009368546518287510411_" class="st4" d="M23.6,39.7c0-1,0.8-1.7,1.8-1.8
					c1,0,1.7,0.8,1.8,1.8c0,1-0.8,1.7-1.8,1.8C24.4,41.4,23.6,40.6,23.6,39.7L23.6,39.7z"/>
				<path id="Path_99_00000055671906493169937090000004336400904888301440_" class="st4" d="M23.6,41.9h3v-0.5h-3V41.9z"/>
				<path id="Path_100_00000134930574113043157490000013749949586053729718_" class="st4" d="M16.9,41.9h5.5v-0.5h-5.5V41.9z"/>
				<path id="Path_101_00000072264956515012355700000004192533111297264018_" class="st8" d="M32.7,22.6l0.4-0.4l-0.7-0.7L32,21.9
					l-7.1,7l-0.4,0.4l0.7,0.7l0.4-0.4L32.7,22.6z"/>
				<path id="Path_102_00000125592966103750518490000002119878039598214552_" class="st8" d="M35.1,25.1l0.4-0.4L34.8,24l-0.4,0.4
					l-7.1,7L27,31.8l0.7,0.7l0.4-0.4L35.1,25.1z"/>
			</g>
		</g>
	</g>
</g>
<g id="Layer_10_1_" class="st0">
	<g id="Layer_7_copy" class="st3">
		<g>
			<path class="st16" d="M28.3,7L28.3,7C40,7,49.6,16.5,49.6,28.3l0,0c0,11.7-9.5,21.3-21.3,21.3l0,0C16.6,49.6,7,40.1,7,28.3l0,0
				C7.1,16.5,16.6,7,28.3,7z"/>
			<path class="st4" d="M24.6,21.2h-6.9c-0.1,0-0.2,0-0.3-0.1c-0.1,0-0.2-0.1-0.3-0.2c-0.1-0.1-0.1-0.2-0.2-0.3
				c0-0.1-0.1-0.2-0.1-0.3v-4.6c0-0.1,0-0.2,0.1-0.3c0-0.1,0.1-0.2,0.2-0.3s0.2-0.1,0.3-0.2c0.1,0,0.2-0.1,0.3-0.1h19.6
				c0.6,0,1.2,0.3,1.7,0.7c0.4,0.4,0.7,1,0.7,1.7v3c0,0.1,0,0.2-0.1,0.3c0,0.1-0.1,0.2-0.2,0.3c-0.1,0.1-0.2,0.1-0.3,0.2
				c-0.1,0-0.2,0.1-0.3,0.1H32v19.6c0,0.1,0,0.2-0.1,0.3c0,0.1-0.1,0.2-0.2,0.3s-0.2,0.1-0.3,0.2c-0.1,0-0.2,0.1-0.3,0.1H27
				c-0.6,0-1.2-0.3-1.7-0.7c-0.4-0.4-0.7-1-0.7-1.7C24.6,39.2,24.6,21.2,24.6,21.2z"/>
		</g>
	</g>
</g>
<g id="Layer_11_1_" class="st0">
	<g id="Layer_9" class="st3">
		<g id="guarda">
			<g transform="translate(-1091 3303)">
				
					<linearGradient id="path0_fill_1_" gradientUnits="userSpaceOnUse" x1="541.7331" y1="-3298.8633" x2="541.902" y2="-3298.8633" gradientTransform="matrix(-235.7801 179.1681 -292.7986 -170.5359 -837035.6875 -662928)">
					<stop  offset="0" style="stop-color:#AF6BAC"/>
					<stop  offset="1" style="stop-color:#7293CC"/>
				</linearGradient>
				<path id="path0_fill" class="st17" d="M1137.7-3291.5c0.1,0,0.2,0.1,0.2,0.3l0,0c0.1,0.9,2.1,30.7-18.5,37.8h-0.1h-0.1
					c-20.7-7.1-18.5-37.5-18.5-37.8c0-0.1,0.1-0.2,0.2-0.3l18.4-4.4h0.1L1137.7-3291.5z M1119.3-3257.2
					C1119.4-3257.2,1119.4-3257.2,1119.3-3257.2c17.2-5.8,15.3-30.8,15.3-31c0-0.1-0.1-0.2-0.2-0.2l-15.1-3.7h-0.1l-15.1,3.7
					c-0.1,0-0.2,0.1-0.2,0.2C1104-3288,1102.2-3263,1119.3-3257.2L1119.3-3257.2z M1129-3284c0.1,0,0.1,0.1,0.1,0.1
					c0,0.2,1.2,16.2-9.8,19.9c0,0,0,0-0.1,0c0,0,0,0-0.1,0c-11-3.7-9.8-19.8-9.8-19.9s0.1-0.1,0.1-0.1l9.7-2.4h0.1L1129-3284z"/>
			</g>
		</g>
	</g>
</g>
<g id="Layer_12_1_" class="st0">
	<g id="Layer_10" class="st3">
		<g id="Layer_x0020_1">
			<g id="_489309696">
				<g>
					
						<linearGradient id="_489313608_2_" gradientUnits="userSpaceOnUse" x1="-344.1244" y1="286.8323" x2="-335.0724" y2="286.8323" gradientTransform="matrix(2.8346 0 0 2.8346 988.0952 -783.9782)">
						<stop  offset="0" style="stop-color:#F37764"/>
						<stop  offset="0.502" style="stop-color:#FCB34C"/>
						<stop  offset="1" style="stop-color:#F37764"/>
					</linearGradient>
					<path id="_489313608" class="st18" d="M27.9,16.9l2.6,2.9l2.2-2.5l0.1-0.1l0.1,0.1l0.2,0.2l0.1,0.1L33,17.7L30.9,20l4.1,3.2
						l0,0h0.1h0.1v0.1l0,0l0.1-0.1l0.1,0.1l3.2,1.9l2.9-2.3l0.1-0.1l0.1,0.1l0.2,0.2l0.1,0.1l-0.1,0.1l-2.8,2.2l2.7,3.9l0.1,0.1
						l-0.1,0.1l-0.2,0.2l-0.1,0.1l-0.1-0.1l-2.7-3.9l-3.4-2v4.9v0.1h-0.1H35l0,0L34.8,29l-0.1,0.1V29l-4.6-4.1L30,24.8l0.1-0.1
						l0.2-0.2l0.1-0.1l0.1,0.1l4.4,3.9v-4.9l0,0L31.4,21l-1.8,3.8v0.1h-0.1l-0.3-0.1h-0.1v-0.1l1.8-3.8v-0.1l0,0l0,0l-0.1,0.1
						L30.7,21l-0.1-0.1l-0.2-0.2l0,0l-0.1-0.1l-0.2-0.2L30,20.3l0.1-0.1l-2.6-3c-0.8,0.8-0.5,0.2-0.6,0.2l-2.8,6.2v0.1H24l-0.3-0.1
						h-0.1v-0.1l2.8-6.1C26.4,16.3,27.6,16.1,27.9,16.9L27.9,16.9z M25.3,22.2l3.9,1.5h0.1v0.1L29.1,24v0.1H29l-3.9-1.5H25v-0.1
						l0.1-0.3H25.3L25.3,22.2z M20.7,21.6l3.4,2.4l0.1,0.1l-0.1,0.1l-0.2,0.2l-0.1,0.1l-0.1-0.1L20.4,22h-0.1l0.1-0.1l0.2-0.2
						L20.7,21.6C20.6,21.5,20.7,21.6,20.7,21.6z M9.5,24.4l1.7,2.3l3.2,1.8l-0.1-4.8v-0.1h0.1h0.3l0,0l-1.4-1.2l-0.1-0.1l0.1-0.1
						l0.2-0.2l0.1-0.1l0.1,0.1l4.6,4.1l0.1,0.1l-0.1,0.1l-0.2,0.2l-0.1,0l-0.1-0.1l-3.1-2.8l0,0l0.1,5.3V29h-0.1h-0.2l0,0h-0.1h-0.1
						l0,0L11,27.2l-0.6,0.5l-0.1,0.1l-0.1-0.1L10,27.5v-0.1l0.1-0.1l0.6-0.5l-1.5-2.1l-0.2,0l0.1-0.1l0.2-0.2H9.5L9.5,24.4L9.5,24.4
						z M15.2,28.9l3,2.4l1.6-3.5v-0.1h0.1l0.3,0.1h0.1v0.1l-1.8,3.8v0.1h-0.1h-0.1v0.1L18.2,32l-0.1-0.1l-3.3-2.6l-0.1-0.1l0.1-0.1
						l0.2-0.2L15.2,28.9L15.2,28.9L15.2,28.9z M20.6,27.9l3.8,1.7h0.1v0.1L24.3,30v0.1h-0.1l-3.8-1.7h-0.1v-0.1l0.1-0.3L20.6,27.9
						L20.6,27.9L20.6,27.9z M15.4,22.4l4-1.2h0.1v0.1l0.1,0.3v0.1h-0.1l-4,1.2h-0.1v-0.1l-0.1-0.3v-0.1H15.4L15.4,22.4z M35.2,29.2
						l3.2,2.7l0.1,0.1l-0.1,0.1l-0.2,0.2l0,0l0,0l0.1,0.1l-0.1,0.1l-2.6,2.3l2.6,3.7l0.1,0.1l-0.1,0.1L38,38.9L37.9,39l-0.1-0.1
						L35,34.8l-3.1-2V38v0.1h-0.1h-0.3l0,0l2.3,2.1l0.1,0.1l-0.1,0.1l-0.2,0.2l-0.1,0.1l-0.1-0.1l-2.2-2l0,0h-0.1l-4.6,1.8l0.8,0.8
						l0.1,0.1l-0.1,0.1l-0.2,0.2L27,41.7l0-0.1l-4.4-3.9l-2,2.3l-0.1,0.1V40l-0.2-0.2l-0.1-0.1l0.1-0.1l1.9-2.2l-4.3-1.8h-0.1v-0.1
						l0.1-0.3v-0.1H18l4.1,1.7l0.2-0.2l0.1-0.1l0.1,0.1l0.2,0.2l1.7-1.9l0.1-0.1l0.1,0.1l0.2,0.2l0.1,0.1l-0.1,0.1l-1.8,2l3.1,2.8
						l4.7-1.9L26.2,34l-0.1-0.1l0.1-0.1l0.2-0.2l0.1-0.1l0.1,0.1l4.8,4.4v-0.1v-5.3v-0.1h0.1L29,31l-0.1-0.1v-0.1l0.1-0.1L28,30
						l-1.6,3.4l0,0v0.1l-0.1,0.3v0.1h-0.1l-4.9-2.1h-0.1v-0.1l0.1-0.3v-0.1h0.1l4.5,2l1.6-3.5l-1-0.7l-0.1,0.2l-0.1,0.1l-0.1-0.1
						l-4.6-2.7l-0.1-0.1l0.1-0.1l0.1-0.3l0.1-0.1l0.2,0l4,2.3l0.2-0.2l0.1-0.1l0.1,0.1l3.5,2.5l0.1,0.1l-0.1,0.1l-0.1,0.1l5.5,3.5
						l2.6-2.3l-3-2.5l-0.1-0.1l0.1-0.1L35.2,29.2L35.2,29.2L35.2,29.2L35.2,29.2z M30.1,30.5l4-1.1h0.1v0.1l0.1,0.3v0.1h-0.1l-4,1.1
						h-0.1v-0.1L30,30.6v-0.1H30.1L30.1,30.5z M26,27.7l2.8-3.1l0.1-0.1l0.1,0.1l0.2,0.2l0.1,0.1L29.2,25l-2.8,3l-0.1,0.1L26.2,28
						L26,27.7L26,27.7L26,27.7L26,27.7z"/>
					
						<linearGradient id="_489313392_2_" gradientUnits="userSpaceOnUse" x1="-342.8007" y1="286.6006" x2="-334.7779" y2="286.6006" gradientTransform="matrix(2.8346 0 0 2.8346 988.0952 -783.9782)">
						<stop  offset="0" style="stop-color:#F37764"/>
						<stop  offset="0.502" style="stop-color:#FCB34C"/>
						<stop  offset="1" style="stop-color:#F37764"/>
					</linearGradient>
					<path id="_489313392" class="st19" d="M20.1,26.5c0.6,0,1,0.5,1,1c0,0.6-0.5,1-1,1c-0.6,0-1-0.5-1-1
						C19.1,26.9,19.6,26.5,20.1,26.5z M14.5,21.7c0.7,0,1.3,0.6,1.3,1.3c0,0.7-0.6,1.3-1.3,1.3s-1.3-0.6-1.3-1.3
						C13.2,22.3,13.8,21.7,14.5,21.7z M35,22.4c0.5,0,0.9,0.4,0.9,0.9s-0.4,0.9-0.9,0.9s-0.9-0.4-0.9-0.9C34,22.9,34.5,22.4,35,22.4
						z M25.8,26.8c0.8,0,1.4,0.6,1.4,1.4s-0.6,1.4-1.4,1.4c-0.1,0-0.2,0-0.2,0c0.2,0.2,0.3,0.4,0.3,0.7c0,0.5-0.4,0.9-0.9,0.9
						s-0.9-0.4-0.9-0.9s0.4-0.9,0.9-0.9c0,0,0,0,0.1,0c-0.3-0.2-0.6-0.6-0.6-1.1C24.4,27.4,25,26.8,25.8,26.8z M14.6,27.8
						c0.5,0,0.9,0.4,0.9,0.9s-0.4,0.9-0.9,0.9s-0.9-0.4-0.9-0.9C13.7,28.2,14.1,27.8,14.6,27.8z M23.6,22.8c0.8,0,1.4,0.6,1.4,1.4
						s-0.6,1.4-1.4,1.4s-1.4-0.6-1.4-1.4S22.9,22.8,23.6,22.8z M35,28c0.7,0,1.3,0.6,1.3,1.3s-0.6,1.3-1.3,1.3s-1.3-0.6-1.3-1.3
						S34.2,28,35,28z M22.4,36c0.8,0,1.4,0.6,1.4,1.4s-0.6,1.4-1.4,1.4S21,38.1,21,37.4S21.6,36,22.4,36z M31.6,37.2
						c0.7,0,1.3,0.6,1.3,1.3s-0.6,1.3-1.3,1.3s-1.3-0.6-1.3-1.3S30.8,37.2,31.6,37.2L31.6,37.2z M29.4,23.6c0.5,0,0.9,0.4,0.9,0.9
						s-0.4,0.9-0.9,0.9s-0.9-0.4-0.9-0.9S28.9,23.6,29.4,23.6z M27.2,16c0.5,0,0.9,0.4,0.9,0.9s-0.4,0.9-0.9,0.9s-0.9-0.4-0.9-0.9
						C26.3,16.4,26.7,16,27.2,16z M25.8,38.8c0.6,0,1,0.5,1,1s-0.5,1-1,1s-1-0.5-1-1C24.7,39.3,25.2,38.8,25.8,38.8z M41.6,22.2
						c0.4,0,0.8,0.4,0.8,0.8s-0.4,0.8-0.8,0.8c-0.4,0-0.8-0.4-0.8-0.8C40.8,22.5,41.1,22.2,41.6,22.2z M21.1,30.4
						c0.5,0,0.9,0.4,0.9,0.9s-0.4,0.9-0.9,0.9s-0.9-0.4-0.9-0.9C20.2,30.8,20.6,30.4,21.1,30.4z M38,31.5c0.4,0,0.8,0.4,0.8,0.8
						c0,0.4-0.4,0.8-0.8,0.8c-0.4,0-0.8-0.4-0.8-0.8C37.2,31.8,37.6,31.5,38,31.5z M29.5,29.6c0.6,0,1,0.5,1,1s-0.5,1-1,1
						s-1-0.5-1-1S28.9,29.6,29.5,29.6z M30.7,18.9c0.8,0,1.4,0.6,1.4,1.4s-0.6,1.4-1.4,1.4s-1.4-0.6-1.4-1.4
						C29.4,19.5,30,18.9,30.7,18.9z M17.9,34.6c0.4,0,0.8,0.4,0.8,0.8c0,0.4-0.4,0.8-0.8,0.8s-0.8-0.4-0.8-0.8S17.5,34.6,17.9,34.6z
						 M25.8,32.8c0.6,0,1,0.5,1,1s-0.5,1-1,1s-1-0.5-1-1S25.3,32.8,25.8,32.8z M24.6,20.7c0.6,0,1,0.5,1,1c0,0.6-0.5,1-1,1
						c-0.6,0-1-0.5-1-1C23.6,21.1,24,20.7,24.6,20.7z M31.6,31.7c0.4,0,0.8,0.4,0.8,0.8c0,0.4-0.4,0.8-0.8,0.8
						c-0.4,0-0.8-0.4-0.8-0.8C30.9,32,31.2,31.7,31.6,31.7z M27.9,29c0.3,0,0.5,0.2,0.5,0.5S28.2,30,27.9,30s-0.5-0.2-0.5-0.5
						C27.4,29.3,27.6,29,27.9,29z M20.1,20.6c0.6,0,1,0.5,1,1s-0.5,1-1,1c-0.6,0-1-0.5-1-1S19.6,20.6,20.1,20.6z"/>
				</g>
				<g>
					<path id="_489313416" class="st20" d="M7.6,25L27,14.8c0.7-0.4,2.1-0.3,3,0.2l18.9,9.9c0.9,0.5,1,1.2,0.3,1.6L29.7,36.7
						c-0.7,0.4-2.1,0.3-3-0.2L7.9,26.6C7,26.1,6.8,25.4,7.6,25z M9.2,25.3l18.3-9.7c0.5-0.2,1.3-0.2,1.9,0.1l18,9.5
						c0.6,0.3,0.6,0.7,0.2,1l-18.3,9.7c-0.5,0.2-1.3,0.2-1.9-0.1l-18-9.5C8.8,26,8.7,25.6,9.2,25.3z"/>
					<path id="_489309144" class="st20" d="M16.1,35.9c0.5,4.4,8.1,6.2,11.8,6.2s11.3-1.8,11.8-6.2v-5l-1.1,0.4v4.6
						c-0.3,2.3-3.4,4-6.6,4.7c-3.3,0.7-5,0.7-8.3,0c-3.1-0.7-6.2-2.4-6.6-4.7v-4.6L16,30.9L16.1,35.9L16.1,35.9z"/>
					<path id="_489309768" class="st20" d="M12.5,27.1l14.2-2.7c0.3-0.5,1-0.9,1.9-0.9c1.1,0,2,0.6,2,1.3c0,0.7-0.9,1.3-2,1.3
						c-0.7,0-1.4-0.3-1.7-0.7l0,0l-14.4,2.8V27.1v5.5l0,0l2.1,7.7c-2.5,2.6-5.1,0.6-5.3,0.1l2-7.8l0,0v-5.3L12.5,27.1L12.5,27.1
						L12.5,27.1z M26.6,24.4L26.6,24.4L26.6,24.4z M26.6,24.5L26.6,24.5L26.6,24.5z M26.6,24.6L26.6,24.6L26.6,24.6z M26.6,24.6
						L26.6,24.6L26.6,24.6z M26.6,24.6L26.6,24.6L26.6,24.6z M26.6,24.7C26.6,24.7,26.5,24.7,26.6,24.7
						C26.5,24.7,26.6,24.7,26.6,24.7z M26.5,24.7L26.5,24.7L26.5,24.7z M26.5,24.7C26.5,24.7,26.5,24.8,26.5,24.7
						C26.5,24.8,26.5,24.7,26.5,24.7z M26.5,24.8L26.5,24.8L26.5,24.8z M26.5,24.8L26.5,24.8L26.5,24.8z M26.5,24.9L26.5,24.9
						L26.5,24.9z M26.5,24.9C26.5,24.9,26.5,25,26.5,24.9C26.5,25,26.5,24.9,26.5,24.9z M26.5,25L26.5,25L26.5,25z M26.5,25L26.5,25
						L26.5,25z M26.5,25C26.5,25,26.6,25.1,26.5,25C26.6,25.1,26.5,25,26.5,25z M26.6,25.1L26.6,25.1L26.6,25.1z M26.6,25.1
						L26.6,25.1L26.6,25.1z M26.6,25.1C26.6,25.1,26.6,25.2,26.6,25.1C26.6,25.2,26.6,25.1,26.6,25.1z M26.6,25.2L26.6,25.2
						L26.6,25.2z M26.6,25.2L26.6,25.2L26.6,25.2z M26.6,25.2C26.6,25.2,26.6,25.3,26.6,25.2C26.6,25.3,26.6,25.2,26.6,25.2z
						 M26.6,25.3L26.6,25.3L26.6,25.3z M26.7,25.3L26.7,25.3L26.7,25.3z M10.6,39.9c0.1,0.2,1.4,1.2,2.6-0.1L12,35.1h-0.3L10.6,39.9
						L10.6,39.9z"/>
				</g>
			</g>
		</g>
	</g>
</g>
<g id="Layer_12_copy" class="st0">
	<g id="Layer_10_2_" class="st3">
		<g id="Layer_x0020_1_5_">
			<g id="_489309696_1_">
				<g>
					
						<linearGradient id="_489313608_3_" gradientUnits="userSpaceOnUse" x1="-344.1244" y1="286.8323" x2="-335.0724" y2="286.8323" gradientTransform="matrix(2.8346 0 0 2.8346 988.0952 -783.9782)">
						<stop  offset="0" style="stop-color:#F37764"/>
						<stop  offset="0.502" style="stop-color:#FCB34C"/>
						<stop  offset="1" style="stop-color:#F37764"/>
					</linearGradient>
					<path id="_489313608_1_" class="st21" d="M27.9,16.9l2.6,2.9l2.2-2.5l0.1-0.1l0.1,0.1l0.2,0.2l0.1,0.1L33,17.7L30.9,20l4.1,3.2
						l0,0h0.1h0.1v0.1l0,0l0.1-0.1l0.1,0.1l3.2,1.9l2.9-2.3l0.1-0.1l0.1,0.1l0.2,0.2l0.1,0.1l-0.1,0.1l-2.8,2.2l2.7,3.9l0.1,0.1
						l-0.1,0.1l-0.2,0.2l-0.1,0.1l-0.1-0.1l-2.7-3.9l-3.4-2v4.9v0.1h-0.1H35l0,0L34.8,29l-0.1,0.1V29l-4.6-4.1L30,24.8l0.1-0.1
						l0.2-0.2l0.1-0.1l0.1,0.1l4.4,3.9v-4.9l0,0L31.4,21l-1.8,3.8v0.1h-0.1l-0.3-0.1h-0.1v-0.1l1.8-3.8v-0.1l0,0l0,0l-0.1,0.1
						L30.7,21l-0.1-0.1l-0.2-0.2l0,0l-0.1-0.1l-0.2-0.2L30,20.3l0.1-0.1l-2.6-3c-0.8,0.8-0.5,0.2-0.6,0.2l-2.8,6.2v0.1H24l-0.3-0.1
						h-0.1v-0.1l2.8-6.1C26.4,16.3,27.6,16.1,27.9,16.9L27.9,16.9z M25.3,22.2l3.9,1.5h0.1v0.1L29.1,24v0.1H29l-3.9-1.5H25v-0.1
						l0.1-0.3H25.3L25.3,22.2z M20.7,21.6l3.4,2.4l0.1,0.1l-0.1,0.1l-0.2,0.2l-0.1,0.1l-0.1-0.1L20.4,22h-0.1l0.1-0.1l0.2-0.2
						L20.7,21.6C20.6,21.5,20.7,21.6,20.7,21.6z M9.5,24.4l1.7,2.3l3.2,1.8l-0.1-4.8v-0.1h0.1h0.3l0,0l-1.4-1.2l-0.1-0.1l0.1-0.1
						l0.2-0.2l0.1-0.1l0.1,0.1l4.6,4.1l0.1,0.1l-0.1,0.1l-0.2,0.2l-0.1,0l-0.1-0.1l-3.1-2.8l0,0l0.1,5.3V29h-0.1h-0.2l0,0h-0.1h-0.1
						l0,0L11,27.2l-0.6,0.5l-0.1,0.1l-0.1-0.1L10,27.5v-0.1l0.1-0.1l0.6-0.5l-1.5-2.1l-0.2,0l0.1-0.1l0.2-0.2H9.5L9.5,24.4L9.5,24.4
						z M15.2,28.9l3,2.4l1.6-3.5v-0.1h0.1l0.3,0.1h0.1v0.1l-1.8,3.8v0.1h-0.1h-0.1v0.1L18.2,32l-0.1-0.1l-3.3-2.6l-0.1-0.1l0.1-0.1
						l0.2-0.2L15.2,28.9L15.2,28.9L15.2,28.9z M20.6,27.9l3.8,1.7h0.1v0.1L24.3,30v0.1h-0.1l-3.8-1.7h-0.1v-0.1l0.1-0.3L20.6,27.9
						L20.6,27.9L20.6,27.9z M15.4,22.4l4-1.2h0.1v0.1l0.1,0.3v0.1h-0.1l-4,1.2h-0.1v-0.1l-0.1-0.3v-0.1H15.4L15.4,22.4z M35.2,29.2
						l3.2,2.7l0.1,0.1l-0.1,0.1l-0.2,0.2l0,0l0,0l0.1,0.1l-0.1,0.1l-2.6,2.3l2.6,3.7l0.1,0.1l-0.1,0.1L38,38.9L37.9,39l-0.1-0.1
						L35,34.8l-3.1-2V38v0.1h-0.1h-0.3l0,0l2.3,2.1l0.1,0.1l-0.1,0.1l-0.2,0.2l-0.1,0.1l-0.1-0.1l-2.2-2l0,0h-0.1l-4.6,1.8l0.8,0.8
						l0.1,0.1l-0.1,0.1l-0.2,0.2L27,41.7l0-0.1l-4.4-3.9l-2,2.3l-0.1,0.1V40l-0.2-0.2l-0.1-0.1l0.1-0.1l1.9-2.2l-4.3-1.8h-0.1v-0.1
						l0.1-0.3v-0.1H18l4.1,1.7l0.2-0.2l0.1-0.1l0.1,0.1l0.2,0.2l1.7-1.9l0.1-0.1l0.1,0.1l0.2,0.2l0.1,0.1l-0.1,0.1l-1.8,2l3.1,2.8
						l4.7-1.9L26.2,34l-0.1-0.1l0.1-0.1l0.2-0.2l0.1-0.1l0.1,0.1l4.8,4.4v-0.1v-5.3v-0.1h0.1L29,31l-0.1-0.1v-0.1l0.1-0.1L28,30
						l-1.6,3.4l0,0v0.1l-0.1,0.3v0.1h-0.1l-4.9-2.1h-0.1v-0.1l0.1-0.3v-0.1h0.1l4.5,2l1.6-3.5l-1-0.7l-0.1,0.2l-0.1,0.1l-0.1-0.1
						l-4.6-2.7l-0.1-0.1l0.1-0.1l0.1-0.3l0.1-0.1l0.2,0l4,2.3l0.2-0.2l0.1-0.1l0.1,0.1l3.5,2.5l0.1,0.1l-0.1,0.1l-0.1,0.1l5.5,3.5
						l2.6-2.3l-3-2.5l-0.1-0.1l0.1-0.1L35.2,29.2L35.2,29.2L35.2,29.2L35.2,29.2z M30.1,30.5l4-1.1h0.1v0.1l0.1,0.3v0.1h-0.1l-4,1.1
						h-0.1v-0.1L30,30.6v-0.1H30.1L30.1,30.5z M26,27.7l2.8-3.1l0.1-0.1l0.1,0.1l0.2,0.2l0.1,0.1L29.2,25l-2.8,3l-0.1,0.1L26.2,28
						L26,27.7L26,27.7L26,27.7L26,27.7z"/>
					
						<linearGradient id="_489313392_3_" gradientUnits="userSpaceOnUse" x1="-342.8007" y1="286.6006" x2="-334.7779" y2="286.6006" gradientTransform="matrix(2.8346 0 0 2.8346 988.0952 -783.9782)">
						<stop  offset="0" style="stop-color:#F37764"/>
						<stop  offset="0.502" style="stop-color:#FCB34C"/>
						<stop  offset="1" style="stop-color:#F37764"/>
					</linearGradient>
					<path id="_489313392_1_" class="st22" d="M20.1,26.5c0.6,0,1,0.5,1,1c0,0.6-0.5,1-1,1c-0.6,0-1-0.5-1-1
						C19.1,26.9,19.6,26.5,20.1,26.5z M14.5,21.7c0.7,0,1.3,0.6,1.3,1.3c0,0.7-0.6,1.3-1.3,1.3s-1.3-0.6-1.3-1.3
						C13.2,22.3,13.8,21.7,14.5,21.7z M35,22.4c0.5,0,0.9,0.4,0.9,0.9s-0.4,0.9-0.9,0.9s-0.9-0.4-0.9-0.9C34,22.9,34.5,22.4,35,22.4
						z M25.8,26.8c0.8,0,1.4,0.6,1.4,1.4s-0.6,1.4-1.4,1.4c-0.1,0-0.2,0-0.2,0c0.2,0.2,0.3,0.4,0.3,0.7c0,0.5-0.4,0.9-0.9,0.9
						s-0.9-0.4-0.9-0.9s0.4-0.9,0.9-0.9c0,0,0,0,0.1,0c-0.3-0.2-0.6-0.6-0.6-1.1C24.4,27.4,25,26.8,25.8,26.8z M14.6,27.8
						c0.5,0,0.9,0.4,0.9,0.9s-0.4,0.9-0.9,0.9s-0.9-0.4-0.9-0.9C13.7,28.2,14.1,27.8,14.6,27.8z M23.6,22.8c0.8,0,1.4,0.6,1.4,1.4
						s-0.6,1.4-1.4,1.4s-1.4-0.6-1.4-1.4S22.9,22.8,23.6,22.8z M35,28c0.7,0,1.3,0.6,1.3,1.3s-0.6,1.3-1.3,1.3s-1.3-0.6-1.3-1.3
						S34.2,28,35,28z M22.4,36c0.8,0,1.4,0.6,1.4,1.4s-0.6,1.4-1.4,1.4S21,38.1,21,37.4S21.6,36,22.4,36z M31.6,37.2
						c0.7,0,1.3,0.6,1.3,1.3s-0.6,1.3-1.3,1.3s-1.3-0.6-1.3-1.3S30.8,37.2,31.6,37.2L31.6,37.2z M29.4,23.6c0.5,0,0.9,0.4,0.9,0.9
						s-0.4,0.9-0.9,0.9s-0.9-0.4-0.9-0.9S28.9,23.6,29.4,23.6z M27.2,16c0.5,0,0.9,0.4,0.9,0.9s-0.4,0.9-0.9,0.9s-0.9-0.4-0.9-0.9
						C26.3,16.4,26.7,16,27.2,16z M25.8,38.8c0.6,0,1,0.5,1,1s-0.5,1-1,1s-1-0.5-1-1C24.7,39.3,25.2,38.8,25.8,38.8z M41.6,22.2
						c0.4,0,0.8,0.4,0.8,0.8s-0.4,0.8-0.8,0.8c-0.4,0-0.8-0.4-0.8-0.8C40.8,22.5,41.1,22.2,41.6,22.2z M21.1,30.4
						c0.5,0,0.9,0.4,0.9,0.9s-0.4,0.9-0.9,0.9s-0.9-0.4-0.9-0.9C20.2,30.8,20.6,30.4,21.1,30.4z M38,31.5c0.4,0,0.8,0.4,0.8,0.8
						c0,0.4-0.4,0.8-0.8,0.8c-0.4,0-0.8-0.4-0.8-0.8C37.2,31.8,37.6,31.5,38,31.5z M29.5,29.6c0.6,0,1,0.5,1,1s-0.5,1-1,1
						s-1-0.5-1-1S28.9,29.6,29.5,29.6z M30.7,18.9c0.8,0,1.4,0.6,1.4,1.4s-0.6,1.4-1.4,1.4s-1.4-0.6-1.4-1.4
						C29.4,19.5,30,18.9,30.7,18.9z M17.9,34.6c0.4,0,0.8,0.4,0.8,0.8c0,0.4-0.4,0.8-0.8,0.8s-0.8-0.4-0.8-0.8S17.5,34.6,17.9,34.6z
						 M25.8,32.8c0.6,0,1,0.5,1,1s-0.5,1-1,1s-1-0.5-1-1S25.3,32.8,25.8,32.8z M24.6,20.7c0.6,0,1,0.5,1,1c0,0.6-0.5,1-1,1
						c-0.6,0-1-0.5-1-1C23.6,21.1,24,20.7,24.6,20.7z M31.6,31.7c0.4,0,0.8,0.4,0.8,0.8c0,0.4-0.4,0.8-0.8,0.8
						c-0.4,0-0.8-0.4-0.8-0.8C30.9,32,31.2,31.7,31.6,31.7z M27.9,29c0.3,0,0.5,0.2,0.5,0.5S28.2,30,27.9,30s-0.5-0.2-0.5-0.5
						C27.4,29.3,27.6,29,27.9,29z M20.1,20.6c0.6,0,1,0.5,1,1s-0.5,1-1,1c-0.6,0-1-0.5-1-1S19.6,20.6,20.1,20.6z"/>
				</g>
				<g>
					<path id="_489313416_1_" class="st23" d="M7.6,25L27,14.8c0.7-0.4,2.1-0.3,3,0.2l18.9,9.9c0.9,0.5,1,1.2,0.3,1.6L29.7,36.7
						c-0.7,0.4-2.1,0.3-3-0.2L7.9,26.6C7,26.1,6.8,25.4,7.6,25z M9.2,25.3l18.3-9.7c0.5-0.2,1.3-0.2,1.9,0.1l18,9.5
						c0.6,0.3,0.6,0.7,0.2,1l-18.3,9.7c-0.5,0.2-1.3,0.2-1.9-0.1l-18-9.5C8.8,26,8.7,25.6,9.2,25.3z"/>
					<path id="_489309144_1_" class="st23" d="M16.1,35.9c0.5,4.4,8.1,6.2,11.8,6.2s11.3-1.8,11.8-6.2v-5l-1.1,0.4v4.6
						c-0.3,2.3-3.4,4-6.6,4.7c-3.3,0.7-5,0.7-8.3,0c-3.1-0.7-6.2-2.4-6.6-4.7v-4.6L16,30.9L16.1,35.9L16.1,35.9z"/>
					<path id="_489309768_1_" class="st23" d="M12.5,27.1l14.2-2.7c0.3-0.5,1-0.9,1.9-0.9c1.1,0,2,0.6,2,1.3c0,0.7-0.9,1.3-2,1.3
						c-0.7,0-1.4-0.3-1.7-0.7l0,0l-14.4,2.8V27.1v5.5l0,0l2.1,7.7c-2.5,2.6-5.1,0.6-5.3,0.1l2-7.8l0,0v-5.3L12.5,27.1L12.5,27.1
						L12.5,27.1z M26.6,24.4L26.6,24.4L26.6,24.4z M26.6,24.5L26.6,24.5L26.6,24.5z M26.6,24.6L26.6,24.6L26.6,24.6z M26.6,24.6
						L26.6,24.6L26.6,24.6z M26.6,24.6L26.6,24.6L26.6,24.6z M26.6,24.7C26.6,24.7,26.5,24.7,26.6,24.7
						C26.5,24.7,26.6,24.7,26.6,24.7z M26.5,24.7L26.5,24.7L26.5,24.7z M26.5,24.7C26.5,24.7,26.5,24.8,26.5,24.7
						C26.5,24.8,26.5,24.7,26.5,24.7z M26.5,24.8L26.5,24.8L26.5,24.8z M26.5,24.8L26.5,24.8L26.5,24.8z M26.5,24.9L26.5,24.9
						L26.5,24.9z M26.5,24.9C26.5,24.9,26.5,25,26.5,24.9C26.5,25,26.5,24.9,26.5,24.9z M26.5,25L26.5,25L26.5,25z M26.5,25L26.5,25
						L26.5,25z M26.5,25C26.5,25,26.6,25.1,26.5,25C26.6,25.1,26.5,25,26.5,25z M26.6,25.1L26.6,25.1L26.6,25.1z M26.6,25.1
						L26.6,25.1L26.6,25.1z M26.6,25.1C26.6,25.1,26.6,25.2,26.6,25.1C26.6,25.2,26.6,25.1,26.6,25.1z M26.6,25.2L26.6,25.2
						L26.6,25.2z M26.6,25.2L26.6,25.2L26.6,25.2z M26.6,25.2C26.6,25.2,26.6,25.3,26.6,25.2C26.6,25.3,26.6,25.2,26.6,25.2z
						 M26.6,25.3L26.6,25.3L26.6,25.3z M26.7,25.3L26.7,25.3L26.7,25.3z M10.6,39.9c0.1,0.2,1.4,1.2,2.6-0.1L12,35.1h-0.3L10.6,39.9
						L10.6,39.9z"/>
				</g>
			</g>
		</g>
	</g>
</g>
<g id="Layer_13_1_" class="st0">
	<g id="Layer_11" class="st3">
		
			<linearGradient id="SVGID_4_" gradientUnits="userSpaceOnUse" x1="-3.543688e-03" y1="30.0567" x2="56.6965" y2="30.0567" gradientTransform="matrix(1 0 0 -1 0 58.4031)">
			<stop  offset="0" style="stop-color:#9178B6"/>
			<stop  offset="1" style="stop-color:#6B51A2"/>
		</linearGradient>
		<path class="st24" d="M48.7,56.7H8c-4.4,0-8-3.6-8-8V8c0-4.4,3.6-8,8-8h40.7c4.4,0,8,3.6,8,8v40.7C56.7,53.1,53.1,56.7,48.7,56.7z
			"/>
		<g>
			<g>
				<path class="st4" d="M13.1,22.4l-1,0.7c-0.4-0.7-1-1-1.8-1c-1.2,0-2,0.8-2,2s0.8,2,2,2c0.8,0,1.4-0.4,1.8-1l1,0.7
					c-0.5,0.9-1.5,1.5-2.7,1.5c-1.8,0-3.3-1.4-3.3-3.2c0-1.8,1.5-3.2,3.3-3.2C11.6,20.9,12.6,21.5,13.1,22.4"/>
				<path class="st4" d="M20.6,24.7v2.4h-1.3v-2.4L17.2,21h1.4l1.4,2.5l1.4-2.5h1.4L20.6,24.7z"/>
				<path class="st4" d="M32.4,22.4l-1,0.7c-0.4-0.7-1-1-1.8-1c-1.2,0-2,0.8-2,2s0.8,2,2,2c0.8,0,1.4-0.4,1.8-1l1,0.7
					c-0.5,0.9-1.5,1.5-2.7,1.5c-1.8,0-3.3-1.4-3.3-3.2c0-1.8,1.5-3.2,3.3-3.2C30.9,20.9,31.9,21.5,32.4,22.4 M38.2,26h2.7v1.1h-4V21
					h1.3V26z M49.5,22.1h-2.9v1.3h2.1v1.1h-2.1V26h3v1.1h-4.3V21h4.2V22.1z"/>
			</g>
			<path class="st4" d="M27.6,30.2c0.3,0,1,0,1.5,0c1.3,0,1.8,0.6,1.8,1.4c0,0.7-0.5,1.2-1.1,1.3l0,0c0.8,0.1,1.3,0.6,1.3,1.3
				c0,1.1-0.9,1.6-2,1.6c-0.5,0-1.1,0-1.5,0L27.6,30.2L27.6,30.2z M28.1,30.6v2.1h1.1c0.7,0,1.3-0.4,1.3-1.1s-0.4-1.1-1.3-1.1
				C28.8,30.6,28.3,30.6,28.1,30.6 M28.1,33.1v2.2c0.2,0,0.7,0,1,0c1,0,1.5-0.4,1.5-1.2c0-0.7-0.5-1.1-1.5-1.1L28.1,33.1L28.1,33.1z
				 M38.1,30.2h0.4v5.6h-0.4V30.2z M45,30.2h4.6v0.4h-2.1v5.2h-0.4v-5.2H45V30.2z"/>
		</g>
	</g>
</g>
<g id="Layer_14_1_" class="st0">
	<g id="Layer_12" class="st3">
		<g>
			
				<linearGradient id="SVGID_5_" gradientUnits="userSpaceOnUse" x1="-18.5139" y1="18.8067" x2="62.952" y2="18.8067" gradientTransform="matrix(1 0 0 -1 0 58.4031)">
				<stop  offset="0" style="stop-color:#3871B8"/>
				<stop  offset="0.39" style="stop-color:#3871B8"/>
				<stop  offset="0.67" style="stop-color:#20C3EF"/>
				<stop  offset="1" style="stop-color:#20C3EF"/>
			</linearGradient>
			<path class="st25" d="M49.5,29.6L28.8,41.8c0,0-0.2,0.1-0.5,0.1v7.6c0.4,0,0.8-0.1,1.2-0.3c1.1-0.6,18.6-10.9,18.6-10.9
				s1.4-1,1.5-2.8L49.5,29.6z"/>
			
				<linearGradient id="SVGID_6_" gradientUnits="userSpaceOnUse" x1="33.98" y1="18.8067" x2="1.1921" y2="18.8067" gradientTransform="matrix(1 0 0 -1 0 58.4031)">
				<stop  offset="0" style="stop-color:#3871B8"/>
				<stop  offset="0.55" style="stop-color:#20C3EF"/>
				<stop  offset="1" style="stop-color:#20C3EF"/>
			</linearGradient>
			<path class="st26" d="M28.3,41.9c-0.2,0-0.3,0-0.5-0.1L7.1,29.6v5.9c0,0-0.1,1.5,1.5,2.9s18.5,10.8,18.5,10.8s0.6,0.2,1.3,0.3
				v-7.6H28.3z"/>
			
				<linearGradient id="SVGID_7_" gradientUnits="userSpaceOnUse" x1="43.7135" y1="35.39" x2="13.05" y2="35.39" gradientTransform="matrix(1 0 0 -1 0 58.4031)">
				<stop  offset="0" style="stop-color:#3871B8"/>
				<stop  offset="0.35" style="stop-color:#20C3EF"/>
				<stop  offset="0.65" style="stop-color:#20C3EF"/>
				<stop  offset="1" style="stop-color:#3871B8"/>
			</linearGradient>
			<path class="st27" d="M33.8,28.3l-4.9-2.9c0,0-0.4-0.3-1,0L23,28.3L17.5,25l-1.2-0.7c5.1-3,10.9-6.4,10.9-6.4s1.3-0.6,2.4,0
				c0.6,0.3,6,3.4,11,6.4L33.8,28.3z"/>
			
				<linearGradient id="SVGID_8_" gradientUnits="userSpaceOnUse" x1="-14.7352" y1="35.2567" x2="50.5027" y2="35.2567" gradientTransform="matrix(1 0 0 -1 0 58.4031)">
				<stop  offset="0" style="stop-color:#3871B8"/>
				<stop  offset="0.55" style="stop-color:#20C3EF"/>
				<stop  offset="1" style="stop-color:#20C3EF"/>
			</linearGradient>
			<path class="st28" d="M28.3,31.3c-0.1,0-0.3,0-0.5-0.1L14,23l13.8-8.1c0.2-0.1,0.3-0.1,0.5-0.1V7.2c-0.7,0-1.2,0.3-1.2,0.3
				S10.3,16.9,8.6,18.3c-1.6,1.4-1.5,2.9-1.5,2.9c0,1.9,0,3.8,0,5.7c0,0.1,18.1,10.7,20,11.8c0,0,0.5,0.3,1.2,0.3L28.3,31.3z"/>
			
				<linearGradient id="SVGID_9_" gradientUnits="userSpaceOnUse" x1="22.1395" y1="41.2567" x2="55.7708" y2="41.2567" gradientTransform="matrix(1 0 0 -1 0 58.4031)">
				<stop  offset="0" style="stop-color:#25A0DA"/>
				<stop  offset="0.55" style="stop-color:#20C3EF"/>
				<stop  offset="1" style="stop-color:#20C3EF"/>
			</linearGradient>
			<path class="st29" d="M28.3,14.8c0.3,0,0.6,0.1,0.6,0.1l20.7,12.2v-5.9c-0.1-1.9-1.5-2.8-1.5-2.8S30.7,8,29.5,7.4
				c-0.4-0.2-0.8-0.3-1.2-0.3V14.8z"/>
			
				<linearGradient id="SVGID_10_" gradientUnits="userSpaceOnUse" x1="54.1556" y1="29.8233" x2="2.4744" y2="29.8233" gradientTransform="matrix(1 0 0 -1 0 58.4031)">
				<stop  offset="0" style="stop-color:#3871B8"/>
				<stop  offset="0.55" style="stop-color:#20C3EF"/>
				<stop  offset="1" style="stop-color:#20C3EF"/>
			</linearGradient>
			<path class="st30" d="M42.8,33.6l-2.3-1.3l-11,6.4c-1.1,0.6-2.4,0-2.4,0c-1.9-1.1-20-11.6-20-11.8c0-2,0-4,0-6
				c0-0.5,0.2-1.6,1.5-2.7l0,0l0.1-0.1c-0.6,0.8-0.5,1.5-0.1,1.7l19.2,11.3c0.6,0.3,1,0,1,0l11.7-6.9l6.7,4l0,0l2.2,1.3L42.8,33.6z"
				/>
		</g>
	</g>
</g>
<g id="Layer_15_1_" class="st0">
	<path class="st31" d="M48.7,56.7H8c-4.4,0-8-3.6-8-8V8c0-4.4,3.6-8,8-8h40.7c4.4,0,8,3.6,8,8v40.7C56.7,53.1,53.1,56.7,48.7,56.7z"
		/>
	<g id="Layer_13" class="st3">
		<g id="Layer_x0020_1_1_">
			<g>
				<path class="st32" d="M39.7,16.5c0,0,19.9-5.4,3.4,1.5C43,18,40.3,19.2,39.7,16.5z"/>
				<path class="st33" d="M7.1,26.6c0,0,2.5-8.8,20.3-8.6c0,0,3.7,0.5,5.7-1s2.1-2.6,4.1-2.7c2.1-0.1,3.4,2.7,2.9,4.7
					c-0.4,2-2.6,6.1-11.2,12S18.7,42.4,18.7,42.4s-1.1-4.7,4.2-12.7c0,0,1.6-2.1-0.1-4.1C21.1,23.5,11.6,23.3,7.1,26.6L7.1,26.6z"/>
			</g>
		</g>
	</g>
</g>
<g id="Layer_16_1_" class="st0">
	<g id="Layer_14" class="st3">
		<g id="Layer_x0020_1_2_">
			
				<linearGradient id="SVGID_11_" gradientUnits="userSpaceOnUse" x1="-346.0804" y1="286.5741" x2="-331.0871" y2="286.5741" gradientTransform="matrix(2.8346 0 0 2.8346 988.096 -783.9764)">
				<stop  offset="0" style="stop-color:#7453A2"/>
				<stop  offset="1" style="stop-color:#9D278F"/>
			</linearGradient>
			<path class="st34" d="M23,18.9c2.2,0,4,1.8,4,4s-1.8,4-4,4s-4-1.8-4-4S20.8,18.9,23,18.9z M33.9,29.9c2.2,0,4,1.8,4,4s-1.8,4-4,4
				s-4-1.8-4-4C29.9,31.7,31.7,29.9,33.9,29.9z M43,31c1.2,0,2.3,1,2.3,2.3c0,1.2-1,2.3-2.3,2.3c-1.2,0-2.3-1-2.3-2.3S41.7,31,43,31
				L43,31z M43,21.2c1.2,0,2.3,1,2.3,2.3c0,1.2-1,2.3-2.3,2.3c-1.2,0-2.3-1-2.3-2.3S41.7,21.2,43,21.2z M43,40.8
				c1.2,0,2.3,1,2.3,2.3c0,1.2-1,2.3-2.3,2.3c-1.2,0-2.3-1-2.3-2.3C40.7,41.9,41.7,40.8,43,40.8z M43,11.5c1.2,0,2.3,1,2.3,2.3
				S44.2,16,43,16s-2.3-1-2.3-2.3S41.7,11.5,43,11.5z M13.5,31c1.2,0,2.3,1,2.3,2.3c0,1.2-1,2.3-2.3,2.3s-2.3-1-2.3-2.3
				S12.2,31,13.5,31L13.5,31z M48.5,32.2c0.6,0,1.1,0.5,1.1,1.1s-0.5,1.1-1.1,1.1s-1.1-0.5-1.1-1.1S47.9,32.2,48.5,32.2L48.5,32.2z
				 M8.2,32.2c0.6,0,1.1,0.5,1.1,1.1s-0.5,1.1-1.1,1.1s-1.1-0.5-1.1-1.1S7.6,32.2,8.2,32.2L8.2,32.2z M33.3,47.3
				c0.6,0,1.1,0.5,1.1,1.1s-0.5,1.1-1.1,1.1s-1.1-0.5-1.1-1.1S32.7,47.3,33.3,47.3L33.3,47.3z M33.3,7.1c0.6,0,1.1,0.5,1.1,1.1
				s-0.5,1.1-1.1,1.1s-1.1-0.5-1.1-1.1S32.7,7.1,33.3,7.1z M23.5,47.3c0.6,0,1.1,0.5,1.1,1.1s-0.5,1.1-1.1,1.1s-1.1-0.5-1.1-1.1
				S22.9,47.3,23.5,47.3L23.5,47.3z M23.5,7.1c0.6,0,1.1,0.5,1.1,1.1s-0.5,1.1-1.1,1.1s-1.1-0.5-1.1-1.1S22.9,7.1,23.5,7.1z
				 M48.5,22.3c0.6,0,1.1,0.5,1.1,1.1s-0.5,1.1-1.1,1.1s-1.1-0.5-1.1-1.1S47.9,22.3,48.5,22.3z M8.2,22.3c0.6,0,1.1,0.5,1.1,1.1
				s-0.5,1.1-1.1,1.1S7.1,24,7.1,23.4S7.6,22.3,8.2,22.3z M13.5,21.2c1.2,0,2.3,1,2.3,2.3c0,1.2-1,2.3-2.3,2.3s-2.3-1-2.3-2.3
				S12.2,21.2,13.5,21.2z M13.5,40.8c1.2,0,2.3,1,2.3,2.3c0,1.2-1,2.3-2.3,2.3s-2.3-1-2.3-2.3C11.2,41.9,12.2,40.8,13.5,40.8z
				 M13.5,11.5c1.2,0,2.3,1,2.3,2.3s-1,2.3-2.3,2.3s-2.3-1-2.3-2.3S12.2,11.5,13.5,11.5z M23.5,40.8c1.2,0,2.3,1,2.3,2.3
				c0,1.2-1,2.3-2.3,2.3c-1.2,0-2.3-1-2.3-2.3C21.3,41.9,22.3,40.8,23.5,40.8z M23.5,11.5c1.2,0,2.3,1,2.3,2.3s-1,2.3-2.3,2.3
				c-1.2,0-2.3-1-2.3-2.3S22.3,11.5,23.5,11.5z M33.2,40.8c1.2,0,2.3,1,2.3,2.3c0,1.2-1,2.3-2.3,2.3c-1.2,0-2.3-1-2.3-2.3
				C31,41.9,32,40.8,33.2,40.8z M33.2,11.5c1.2,0,2.3,1,2.3,2.3s-1,2.3-2.3,2.3C32,16,31,15,31,13.7S32,11.5,33.2,11.5z M33.9,18.9
				c2.2,0,4,1.8,4,4s-1.8,4-4,4s-4-1.8-4-4S31.7,18.9,33.9,18.9z M23,29.9c2.2,0,4,1.8,4,4s-1.8,4-4,4s-4-1.8-4-4
				C19.1,31.7,20.8,29.9,23,29.9z"/>
		</g>
	</g>
</g>
<g id="Layer_17" class="st0">
	<g id="Layer_15" class="st3">
		<g id="Layer_x0020_1_3_">
			<path class="st35" d="M48.7,56.7H8c-4.4,0-8-3.6-8-8V8c0-4.4,3.6-8,8-8h40.7c4.4,0,8,3.6,8,8v40.7C56.7,53.1,53.1,56.7,48.7,56.7
				z"/>
			<path class="st23" d="M12.3,34.7l-4.6,2.1l3.5-4.1L7,35.4l2.9-3.7l2.3-7.6l9.2-8.1l18.7,7.3l4.4,2.4l2.4,0.4l1.4-1.1l-0.6-2.2
				L45.2,20l4.1-4.7l-0.7,3.1l-2.1,1.5l1.8,2l1.2,3.4l-2.2,2.2L44,27.4c0,0,1.2,2.5,0.7,4.6l1.8,2l1.4,4.4l0.1,2.9h-2.5
				c0,0-0.1-1.7,0.9-2.2l-0.8-1.8L44.2,36l-3.8-1l-2.9-2.1c0,0-0.1-3.3-1-4.6c0,0,0.6,3.5,0.1,4.2l-8.3-0.4l-0.1-1.4l-0.6,1.5
				l-3.3,2.4l2,2l1.8-2L30,35l-1,1.6h-0.9l-1.3,1.8l-5.5-1.7L20.8,34l1.4-2.8c0,0-1-3.2-0.8-4.6c0,0-0.6,2.8,0.1,4.4L19,30.7
				l-2.8-2.4h-1.7l1.6,0.5l2.5,2.6l1.2,2c0,0,0.1,0.6,0,0.9l-0.7,0.1l0.1,1l-0.8,1.1l-2.7-1.1l-1.8,0.3L12.3,34.7L12.3,34.7z"/>
		</g>
	</g>
</g>
<g id="Layer_18">
	<g id="Layer_16">
		<g>
			
				<linearGradient id="SVGID_12_" gradientUnits="userSpaceOnUse" x1="35.0012" y1="18.6374" x2="9.5622" y2="29.2864" gradientTransform="matrix(1 0 0 -1 0 58.4031)">
				<stop  offset="1.353259e-06" style="stop-color:#514B9F;stop-opacity:0.2"/>
				<stop  offset="1" style="stop-color:#6557A5"/>
			</linearGradient>
			<path class="st36" d="M14.6,20.1c-1.8-0.6-3.7-0.6-5.6,0.1c-3.4,1.2-4.8,4.6-4.8,8.1c0,11,9.4,15,11,15.4
				c4.9,1.4,10-0.2,13.7-3.4c3.2-2.7,5.1-6.1,5.8-10.2c0.1-0.7,0.1-1.4,0-2c0-0.2-0.1-0.5-0.2-0.6c-0.6-0.6-0.9,0.1-1.2,0.6
				c-0.7,0.9-1.1,2-1.8,3.1c-1.1,1.6-2.6,2.6-4.5,2.6c-2,0-4.1-0.8-5.6-2.4c-1-1-1.6-2.4-1.8-3.9s-0.5-3.1-1.2-4.3
				C17.5,21.7,16.2,20.6,14.6,20.1z"/>
			
				<linearGradient id="SVGID_13_" gradientUnits="userSpaceOnUse" x1="21.7806" y1="33.6102" x2="52.4481" y2="33.6102" gradientTransform="matrix(1 0 0 -1 0 58.4031)">
				<stop  offset="1.353259e-06" style="stop-color:#514B9F;stop-opacity:0.2"/>
				<stop  offset="1" style="stop-color:#6557A5"/>
			</linearGradient>
			<path class="st37" d="M42.1,36.6c1.8,0.6,3.7,0.6,5.6-0.1c3.4-1.2,4.8-4.6,4.8-8.1c0-11-9.4-15-11-15.4c-4.9-1.4-10,0.2-13.7,3.4
				c-3.2,2.7-5.1,6.1-5.8,10.2c-0.1,0.7-0.1,1.4,0,2c0,0.2,0.1,0.5,0.2,0.6c0.6,0.6,0.9-0.1,1.2-0.6c0.7-0.9,1.1-2,1.8-3.1
				c1.1-1.6,2.6-2.6,4.5-2.6c2,0,4.1,0.8,5.6,2.4c1,1,1.6,2.4,1.8,3.9c0.2,1.5,0.5,3.1,1.2,4.3C39.2,35.1,40.5,36.2,42.1,36.6z"/>
			<circle class="st38" cx="28.5" cy="28.2" r="2.4"/>
		</g>
	</g>
</g>
<g id="Layer_47" class="st0">
	<g class="st3">
		<g>
			<g id="Shape_1_3_">
				<g>
					<linearGradient id="SVGID_14_" gradientUnits="userSpaceOnUse" x1="4.252" y1="28.3465" x2="52.4409" y2="28.3465">
						<stop  offset="0" style="stop-color:#D8D9D8"/>
						<stop  offset="1" style="stop-color:#9B9B9E"/>
					</linearGradient>
					<path class="st39" d="M52.4,26C46.9-6,5,0.2,4.3,26c2.4,1.3,3.9,2,3.9,2s-1.3,0.8-4,2.5c4.8,31.4,46,26.9,48.2,0
						c-2.6-1.6-4-2.5-4-2.5S49.6,27.5,52.4,26z"/>
				</g>
			</g>
			<g id="Shape_1_2_">
				<g>
					<linearGradient id="SVGID_15_" gradientUnits="userSpaceOnUse" x1="6.2063" y1="28.3287" x2="50.4866" y2="28.3287">
						<stop  offset="0" style="stop-color:#273A8A"/>
						<stop  offset="0.5112" style="stop-color:#3863AE"/>
						<stop  offset="1" style="stop-color:#393389"/>
					</linearGradient>
					<path class="st40" d="M50.5,24.8C43-3.7,8.6,4,6.2,24.8c4.8,2.7,5.9,3.3,5.9,3.3s-1.8,1.2-5.9,3.7c5.1,27.4,42.2,22.1,44.3,0
						c-3.7-2.3-6-3.7-6-3.7S49.6,25.3,50.5,24.8z"/>
				</g>
			</g>
		</g>
		<g>
			<text transform="matrix(1 0 0 1 14.0407 40.8264)" class="st4 st41 st42">SEA</text>
			<g>
				<text transform="matrix(1 0 0 1 41.4469 18.2678)" class="st4 st41 st43">TM</text>
				<text transform="matrix(1.1327 0 0 1 16.3376 26.843)" class="st4 st41 st42">XD</text>
			</g>
		</g>
	</g>
</g>
<g id="Globiance_copy" class="st0">
	<path class="st2" d="M48.7,56.7H8c-4.4,0-8-3.6-8-8V8c0-4.4,3.6-8,8-8h40.7c4.4,0,8,3.6,8,8v40.7C56.7,53.1,53.1,56.7,48.7,56.7z"
		/>
	<g id="BDbpbetif1-Kopie_1_" class="st3">
		<g id="Gruppe_1_">
			<g id="g1_1_">
				<path id="Pfad_1_" class="st4" d="M16.5,32.9c0.4-0.3,0.8-0.6,1.2-0.9c1.3-1,2.4-2.2,3.6-3.4c1.8-2,3.5-4.1,5-6.3
					c0.9-1.3,2-2.4,3.3-3.3c0.3-0.2,0.5-0.3,0.8-0.5c0,0,0.1,0,0.1-0.1c0,0,0,0.1,0.1,0.1c0.8,2.5,1.7,5,2.7,7.5
					c0.7,1.7,1.3,3.3,2.2,5c0.3,0.6,0.6,1.1,0.9,1.7c0,0,0,0.1,0.1,0.1C29.8,32.9,23.1,32.9,16.5,32.9z"/>
			</g>
			<g id="g2_1_">
				<path id="path1_1_" class="st4" d="M32.3,18c0.2,0,0.4-0.1,0.5-0.1c1.6-0.1,3,0.5,4.3,1.3c0.3,0.2,0.6,0.5,0.9,0.7
					c0.3,0.3,0.5,0.6,0.8,1c1.7,2.2,3.4,4.4,5.2,6.4c1.4,1.6,2.8,3.1,4.4,4.5c0.3,0.3,0.7,0.6,1,0.9c0,0,0.1,0.1,0.1,0.1
					c-0.1,0-0.1,0-0.1,0c-3.5,0-7.1,0-10.6,0c-0.1,0-0.2,0-0.2-0.1c-0.4-0.4-0.7-0.9-1-1.4c-0.8-1.3-1.4-2.6-1.9-4
					c-1-2.5-1.9-5-2.8-7.6c-0.2-0.6-0.4-1.2-0.6-1.8C32.3,18.1,32.3,18.1,32.3,18z"/>
			</g>
			<g id="g3_1_">
				<path id="path2_1_" class="st4" d="M13.4,34.7c6.4,0,12.9,0,19.3,0c-0.3,0.2-0.6,0.3-0.8,0.4c-2.4,1.3-4.9,2.5-7.5,3.4
					c-1.2,0.5-2.4,0.9-3.7,1.2c-0.4,0.1-0.9,0.2-1.3,0.3c-0.5,0.1-1,0-1.4-0.2c-0.5-0.2-1-0.5-1.2-1c-0.3-0.5-0.6-1-0.9-1.5
					C15.3,36.3,14.5,35.4,13.4,34.7C13.4,34.7,13.4,34.7,13.4,34.7C13.4,34.7,13.4,34.7,13.4,34.7z"/>
			</g>
			<g id="g4_1_">
				<path id="path3_1_" class="st4" d="M29.9,16.8c-0.2,0.1-0.5,0.2-0.7,0.4c-1.1,0.6-2.1,1.5-3,2.4c-0.8,0.8-1.4,1.7-2.1,2.7
					c-0.9,1.2-1.7,2.3-2.7,3.4c0,0,0,0-0.1,0.1c0.1-0.2,0.2-0.5,0.3-0.7c0.9-2.2,1.6-4.5,2.3-6.8c0.3-1.1,0.6-2.3,0.9-3.4
					c0.2-0.8,0.5-1.6,1-2.3c0.1-0.1,0.2-0.2,0.3-0.3c0.3-0.3,0.7-0.4,1.1-0.1c0.3,0.2,0.5,0.4,0.7,0.7c0.6,0.8,1,1.7,1.4,2.5
					c0.2,0.5,0.4,1.1,0.6,1.6C29.9,16.8,29.9,16.8,29.9,16.8z"/>
			</g>
			<g id="g5_1_">
				<path id="path4_1_" class="st4" d="M17.7,41.6c0.5,0.2,1,0.2,1.6,0.2c0.4,0,0.9-0.1,1.3-0.2c2.3-0.4,4.4-1.3,6.5-2.2
					c0.2-0.1,0.4-0.2,0.5-0.2c-0.2,0.2-0.5,0.4-0.7,0.5c-1,0.8-2,1.8-3,2.7c-0.7,0.6-1.4,1.3-2.1,1.8c-0.3,0.2-0.6,0.4-1,0.6
					c-0.4,0.2-0.8,0.1-1.1-0.1c-0.3-0.2-0.6-0.5-0.8-0.8C18.4,43.3,18,42.5,17.7,41.6C17.7,41.7,17.7,41.7,17.7,41.6z"/>
			</g>
			<g id="g6_1_">
				<path id="path5_1_" class="st4" d="M7.1,34.7c1.3,0.1,2.5,0.3,3.6,0.7c1,0.3,1.9,0.9,2.7,1.6c0.4,0.4,0.7,0.9,1,1.4
					c0.1,0.1,0.1,0.2,0.2,0.4C11.9,37.9,9.5,36.4,7.1,34.7z"/>
			</g>
		</g>
	</g>
</g>
<g id="Layer_23" class="st0">
	<g id="Layer_x0020_1_4_" class="st3">
		
			<linearGradient id="SVGID_16_" gradientUnits="userSpaceOnUse" x1="-182.0648" y1="325.1383" x2="-176.3302" y2="325.1383" gradientTransform="matrix(3.3521 0 0 -3.3521 633.4035 1117.7986)">
			<stop  offset="0" style="stop-color:#74C6A2"/>
			<stop  offset="0.5804" style="stop-color:#98B0C3"/>
			<stop  offset="0.7216" style="stop-color:#EBDAEB"/>
			<stop  offset="0.8392" style="stop-color:#C47AB3"/>
			<stop  offset="1" style="stop-color:#C47AB3"/>
		</linearGradient>
		<path class="st44" d="M31.1,16.6C31.2,16.6,31.2,16.6,31.1,16.6c0.2,0.3,0.3,0.5,0.4,0.7c0.1,0.2,0.2,0.3,0.2,0.4
			c4,8.6-8.3,21.6-8.4,21.6c-0.1,0.1-0.2,0.3-0.2,0.5c0,0.1,0.1,0.3,0.2,0.4c0,0,0,0,0,0l2.6,2.6c0.3,0.2,0.7,0.3,0.9,0
			c2.7-2.4,4.9-5.2,6.7-8.2c1.5-2.7,2.4-5.1,2.7-6.8v0c0.4-1.4,0.3-2.7,1.6-0.4c0.2,0.3,0.3,0.6,0.5,1l0,0l0,0
			c0.2,0.4,0.4,0.8,0.5,1.2c0,0.1,0,0.1,0.1,0.2c0.1,0.1,0.1,0.3,0.1,0.4c0,0,0.1,0.2,0.1,0.4c0.1,0.2,0.2,0.8,0.4,1.5
			c0,0.2,0.2,0.2,0.4,0.2c0.1,0,0.1-0.1,0.2-0.1c0.5-1,1.2-2.2,2-3.7c0.1-0.1,0.1-0.3,0-0.5c-0.3-0.7-0.7-1.7-1.7-3.3
			c-1.2-2.1-2.5-4-3.8-6c-1-1.6-2-3.2-3-4.9c-0.2-0.3-0.4-0.7-0.5-1c-0.1-0.1-0.3-0.2-0.4-0.1c-0.1,0-0.1,0.1-0.1,0.1L31.1,16
			C31,16.2,31.1,16.4,31.1,16.6L31.1,16.6z"/>
		
			<linearGradient id="SVGID_17_" gradientUnits="userSpaceOnUse" x1="-185.199" y1="325.0046" x2="-175.8406" y2="325.0046" gradientTransform="matrix(3.3521 0 0 -3.3521 633.4035 1117.7986)">
			<stop  offset="0" style="stop-color:#74C6A2"/>
			<stop  offset="0.5804" style="stop-color:#98B0C3"/>
			<stop  offset="0.7216" style="stop-color:#EBDAEB"/>
			<stop  offset="0.8392" style="stop-color:#C47AB3"/>
			<stop  offset="1" style="stop-color:#C47AB3"/>
		</linearGradient>
		<path class="st45" d="M43.8,33.8c-0.1-0.6-0.2-1.2-0.3-1.9c0-0.1-0.2-0.9-0.4-1.5c0-0.2-0.2-0.2-0.3-0.2c-0.1,0-0.1,0.1-0.2,0.1
			l-2.2,4.1c0,0.1-0.1,0.2-0.1,0.2c-0.1,3.2-1.1,5.8-1.7,6.9c-1.3,2.2-3.1,3.9-5.5,4.8c-3.3,1.4-6.6,1.3-9.9-0.1
			c-0.3-0.1-0.6-0.3-0.9-0.5c-1.5-0.8-2.7-1.9-3.7-3.3c-0.7-1-1.3-2.2-1.7-3.5c-0.7-2.1-0.5-4.2-0.1-6.3c0.7-3.2,2.3-6.1,4.1-8.9
			c2.4-3.6,4.7-7.2,6.7-11.1c0.1-0.2,0.3-0.5,0.4-0.8l0,0c0-0.1,0.1-0.1,0.1-0.2c0.1-0.2,0.3-0.2,0.4,0c0.1,0.1,0.2,0.3,0.2,0.5
			c0.1,0.1,0.6,1.2,1.2,2.5c0.1,0.1,0.2,0.2,0.4,0.1c0.1,0,0.1-0.1,0.1-0.1l1.7-3.3c0.1-0.2,0.1-0.4,0-0.5c-0.3-0.6-0.6-1.3-1-1.9
			c-0.3-0.7-0.6-1.5-1-2.2c-0.4-0.8-1-1.2-1.9-1.2c-0.9,0-1.5,0.4-1.9,1.1c-0.1,0.1-0.1,0.3-0.2,0.4c-0.5,1-0.9,1.9-1.4,2.9
			c-0.3,0.7-0.7,1.4-1.1,2.1c-0.1,0.2-0.2,0.4-0.3,0.5c-1.4,2.5-3,5-4.5,7.5c-1.4,2.2-2.8,4.3-3.9,6.6c-1.1,2.3-1.8,4.6-2.1,7.1
			c-0.3,2.3-0.1,4.6,0.7,6.8c0.4,1.2,1,2.3,1.6,3.3c0.6,1,1.3,1.8,2.2,2.6c0.3,0.3,0.6,0.6,0.9,0.8c2.8,2.3,6.2,3.5,10.5,3.5
			c1,0.1,2.6-0.2,4.1-0.6c3.5-1,6.3-3,8.3-6c1.6-2.3,2.5-4.9,2.7-7.6C44,35.8,43.9,34.8,43.8,33.8L43.8,33.8z"/>
	</g>
</g>
<g id="Layer_22" class="st0">
	<g class="st3">
		<polygon class="st46" points="11.6,14.2 15,10.9 25.1,10.9 25.1,6.3 24.6,5.7 12.8,5.7 4.3,14.4 17.8,28.4 4.3,42.5 12.6,51 
			24.8,51 25.1,50.6 25.1,45.7 14.8,45.7 11.6,42.4 25.2,28.3 		"/>
		<polygon class="st46" points="45.1,14.2 41.7,10.9 31.6,10.9 31.6,6.3 32.1,5.7 43.9,5.7 52.4,14.4 38.9,28.4 52.4,42.5 44.1,51 
			31.9,51 31.6,50.6 31.6,45.7 41.9,45.7 45.1,42.4 31.5,28.3 		"/>
	</g>
</g>
<g id="Layer_5" class="st0">
	<g id="Layer_x0020_1_6_" class="st3">
		<path class="st47" d="M13.1,5.3h13.4c12.7,0,23.1,10.4,23.1,23.1l0,0c0,12.7-10.4,23.1-23.1,23.1H13.1l-6-10.2h18.7
			c7.1,0,12.9-5.8,12.9-12.9l0,0c0-7.1-5.8-12.9-12.9-12.9H7.1L13.1,5.3z"/>
		<polygon class="st48" points="13.1,5.3 19,15.4 26.3,28.4 19,41.3 13.1,51.4 7.1,41.3 14,28.4 7.1,15.4 		"/>
	</g>
</g>
<g id="Layer_47_copy" class="st0">
	<g class="st3">
		<g>
			<g id="Shape_1_7_">
				<g>
					<linearGradient id="SVGID_18_" gradientUnits="userSpaceOnUse" x1="4.252" y1="28.3465" x2="52.4409" y2="28.3465">
						<stop  offset="0" style="stop-color:#D8D9D8"/>
						<stop  offset="1" style="stop-color:#9B9B9E"/>
					</linearGradient>
					<path class="st49" d="M52.4,26C46.9-6,5,0.2,4.3,26c2.4,1.3,3.9,2,3.9,2s-1.3,0.8-4,2.5c4.8,31.4,46,26.9,48.2,0
						c-2.6-1.6-4-2.5-4-2.5S49.6,27.5,52.4,26z"/>
				</g>
			</g>
			<g id="Shape_1_5_">
				<g>
					<path class="st50" d="M50.5,24.8C43-3.7,8.6,4,6.2,24.8c4.8,2.7,5.9,3.3,5.9,3.3s-1.8,1.2-5.9,3.7c5.1,27.4,42.2,22.1,44.3,0
						c-3.7-2.3-6-3.7-6-3.7S49.6,25.3,50.5,24.8z"/>
				</g>
			</g>
		</g>
		<g>
			<g>
				<g>
					<path class="st4" d="M13.2,32.6c-0.2,0-0.4-0.1-0.6-0.2s-0.3-0.3-0.3-0.5c0-0.2,0.1-0.4,0.3-0.5s0.4-0.2,0.6-0.2
						c0.2,0,0.4,0.1,0.6,0.2c0.2,0.2,0.3,0.3,0.3,0.5c0,0.2-0.1,0.4-0.3,0.5C13.7,32.6,13.4,32.6,13.2,32.6z"/>
					<path class="st4" d="M24,32.5h-1.6l-2.6-3.7c-0.1-0.1-0.2-0.3-0.3-0.5h0c-0.1,0.1-0.1,0.3-0.3,0.5l-2.6,3.7h-1.6l3.7-4.9
						l-3.4-4.9H17l2.3,3.4c0.1,0.2,0.3,0.5,0.4,0.7h0c0.2-0.3,0.3-0.5,0.4-0.7l2.4-3.4H24l-3.5,4.9L24,32.5z"/>
					<path class="st4" d="M24.9,32.5v-9.8H28c3.9,0,5.9,1.6,5.9,4.8c0,1.5-0.5,2.7-1.6,3.6c-1.1,0.9-2.5,1.4-4.4,1.4H24.9z
						 M26.2,23.7v7.7h1.7c1.5,0,2.6-0.3,3.4-1c0.8-0.7,1.2-1.7,1.2-2.9c0-2.5-1.5-3.8-4.5-3.8H26.2z"/>
					<path class="st4" d="M42.9,32.1c-0.8,0.4-1.8,0.6-3.1,0.6c-1.6,0-2.8-0.4-3.8-1.3c-0.9-0.9-1.4-2.1-1.4-3.5
						c0-1.6,0.5-2.8,1.6-3.8c1.1-1,2.4-1.4,4.1-1.4c1.1,0,1.9,0.1,2.6,0.4v1.2c-0.8-0.4-1.7-0.6-2.6-0.6c-1.3,0-2.3,0.4-3.1,1.1
						c-0.8,0.8-1.2,1.8-1.2,3c0,1.2,0.4,2.1,1.1,2.9s1.7,1.1,2.9,1.1c1.1,0,2.1-0.2,2.9-0.7V32.1z"/>
				</g>
			</g>
		</g>
	</g>
</g>
<g id="Layer_24" class="st0">
	<g class="st3">
		<linearGradient id="SVGID_19_" gradientUnits="userSpaceOnUse" x1="19.1174" y1="23.6146" x2="37.22" y2="34.0661">
			<stop  offset="0" style="stop-color:#6EB3C8"/>
			<stop  offset="1" style="stop-color:#D0BA77"/>
		</linearGradient>
		<path class="st51" d="M31.8,37.7l-3.9-6.8l-4,6.8l-3-0.2l5.7-9.6l-5.1-8.3l3.1-0.3l3.6,6.1l3.6-5.9l2.9,0.1l-4.8,8.1l5.3,9.8
			L31.8,37.7z"/>
		<linearGradient id="SVGID_20_" gradientUnits="userSpaceOnUse" x1="6.9274" y1="16.5191" x2="49.3368" y2="41.0042">
			<stop  offset="0" style="stop-color:#6EB3C8"/>
			<stop  offset="1" style="stop-color:#D0BA77"/>
		</linearGradient>
		<path class="st52" d="M52.4,26.5C46.9-5.6,5,0.6,4.2,26.5c2.4,1.3,3.9,2,3.9,2s-1.3,0.8-4,2.5c4.8,31.4,46,26.9,48.2,0
			c-2.6-1.6-4-2.5-4-2.5S49.6,27.9,52.4,26.5z M50.4,32.3c-2,22.2-39.2,27.4-44.3,0c4-2.6,5.9-3.7,5.9-3.7s-1.1-0.6-5.9-3.3
			c2.4-20.8,36.8-28.5,44.3,0c-0.9,0.5-6,3.3-6,3.3S46.7,29.9,50.4,32.3z"/>
	</g>
</g>
<g id="Layer_25" class="st0">
	
		<linearGradient id="_443267680_1_" gradientUnits="userSpaceOnUse" x1="-117.5176" y1="83.5046" x2="-98.947" y2="67.4326" gradientTransform="matrix(2.7414 0 0 -2.7414 324.7789 234.9996)">
		<stop  offset="0" style="stop-color:#F7E887"/>
		<stop  offset="0.1412" style="stop-color:#F7E887"/>
		<stop  offset="0.302" style="stop-color:#B1823A"/>
		<stop  offset="0.502" style="stop-color:#E6B963"/>
		<stop  offset="0.7294" style="stop-color:#B08239"/>
		<stop  offset="0.8" style="stop-color:#C19F56"/>
		<stop  offset="0.8314" style="stop-color:#F5E588"/>
		<stop  offset="0.8784" style="stop-color:#B0823A"/>
		<stop  offset="0.9098" style="stop-color:#8E5C24"/>
		<stop  offset="0.9412" style="stop-color:#864C23"/>
		<stop  offset="1" style="stop-color:#27190E"/>
	</linearGradient>
	<path id="_443267680" class="st53" d="M49.6,21.4c-1.9-1.9-4.3-2.9-7-2.9c-2.6,0-5.1,1-7,2.9L33,24l-0.3-0.3l2.6-2.6
		c3.8-3.8,3.8-10.1,0-13.9c-1.9-1.9-4.3-2.9-7-2.9c-2.6,0-5.1,1-7,2.9c-3.8,3.8-3.8,10.1,0,13.9l2.6,2.6L23.7,24l-2.6-2.6
		c-1.9-1.9-4.3-2.9-7-2.9c-2.6,0-5.1,1-7,2.9c-3.8,3.8-3.8,10.1,0,13.9c1.9,1.9,4.3,2.9,7,2.9c2.6,0,5.1-1,7-2.9l2.6-2.6L24,33
		l-2.6,2.6c-3.8,3.8-3.8,10.1,0,13.9c1.9,1.9,4.3,2.9,7,2.9c2.6,0,5.1-1,7-2.9c3.8-3.8,3.8-10.1,0-13.9L32.7,33l0.3-0.3l2.6,2.6
		c1.9,1.9,4.3,2.9,7,2.9c2.6,0,5.1-1,7-2.9c1.9-1.9,2.9-4.3,2.9-7S51.4,23.2,49.6,21.4L49.6,21.4z M32.4,24.6L32.4,24.6l-0.6,0.6
		l-0.3-0.3l0.6-0.6L32.4,24.6z M31.8,27.7L31.8,27.7l-0.6-0.6l0.6-0.6l0.6,0.6L31.8,27.7z M33,27.7L33,27.7l0.6,0.6L33,29l-0.6-0.6
		L33,27.7z M28.3,37.4L28.3,37.4l2.6,2.6c0.7,0.7,1.1,1.6,1.1,2.6c0,1-0.4,1.9-1.1,2.6c-0.7,0.7-1.6,1.1-2.6,1.1
		c-1,0-1.9-0.4-2.6-1.1c-0.7-0.7-1.1-1.6-1.1-2.6c0-1,0.4-1.9,1.1-2.6L28.3,37.4L28.3,37.4z M25.1,39.4L25.1,39.4
		c-0.9,0.9-1.3,2-1.3,3.2c0,1.2,0.5,2.4,1.3,3.2c0.9,0.9,2,1.3,3.2,1.3c1.2,0,2.4-0.5,3.2-1.3c0.9-0.9,1.3-2,1.3-3.2
		c0-1.2-0.5-2.4-1.3-3.2L29,36.8l0.6-0.6l2.6,2.6c1,1,1.6,2.4,1.6,3.8c0,1.5-0.6,2.8-1.6,3.8c-1,1-2.4,1.6-3.8,1.6
		c-1.5,0-2.8-0.6-3.8-1.6c-1-1-1.6-2.4-1.6-3.8c0-1.5,0.6-2.8,1.6-3.8l2.6-2.6l0.6,0.6L25.1,39.4z M28.3,36.1L28.3,36.1l-0.6-0.6
		l0.6-0.6l0.6,0.6L28.3,36.1z M28.3,33.6L28.3,33.6L27.7,33l0.6-0.6L29,33L28.3,33.6z M28.3,31.2L28.3,31.2l-0.6-0.6l0.6-0.6
		l0.6,0.6L28.3,31.2z M28.3,19.3L28.3,19.3l-2.6-2.6c-0.7-0.7-1.1-1.6-1.1-2.6c0-1,0.4-1.9,1.1-2.6c0.7-0.7,1.6-1.1,2.6-1.1
		c1,0,1.9,0.4,2.6,1.1c0.7,0.7,1.1,1.6,1.1,2.6c0,1-0.4,1.9-1.1,2.6L28.3,19.3L28.3,19.3z M31.6,17.3L31.6,17.3
		c0.9-0.9,1.3-2,1.3-3.2c0-1.2-0.5-2.4-1.3-3.2c-0.9-0.9-2-1.3-3.2-1.3S26,10,25.1,10.9c-0.9,0.9-1.3,2-1.3,3.2
		c0,1.2,0.5,2.4,1.3,3.2l2.6,2.6l-0.6,0.6l-2.6-2.6c-2.1-2.1-2.1-5.6,0-7.7c1-1,2.4-1.6,3.8-1.6c1.5,0,2.8,0.6,3.8,1.6
		c1,1,1.6,2.4,1.6,3.8c0,1.5-0.6,2.8-1.6,3.8l-2.6,2.6L29,19.9L31.6,17.3z M28.3,20.5L28.3,20.5l0.6,0.6l-0.6,0.6l-0.6-0.6
		L28.3,20.5z M28.3,23L28.3,23l0.6,0.6l-0.6,0.6l-0.6-0.6L28.3,23z M28.3,25.5L28.3,25.5l0.6,0.6l-0.6,0.6l-0.6-0.6L28.3,25.5z
		 M28.7,28.3L28.7,28.3l-0.3,0.3L28,28.3l0.3-0.3L28.7,28.3z M29.3,27.7L29.3,27.7L29,27.4l0.6-0.6l0.3,0.3L29.3,27.7z M27.7,27.4
		L27.7,27.4l-0.3,0.3l-0.6-0.6l0.3-0.3L27.7,27.4z M26.8,28.3L26.8,28.3L26.2,29l-0.6-0.6l0.6-0.6L26.8,28.3z M27.4,29L27.4,29
		l0.3,0.3l-0.6,0.6l-0.3-0.3L27.4,29z M29,29.3L29,29.3l0.3-0.3l0.6,0.6l-0.3,0.3L29,29.3z M29.9,28.3L29.9,28.3l0.6-0.6l0.6,0.6
		L30.5,29L29.9,28.3z M30.5,26.5L30.5,26.5l-0.3-0.3l0.6-0.6l0.3,0.3L30.5,26.5z M29.6,25.5L29.6,25.5L29,24.9l0.6-0.6l0.6,0.6
		L29.6,25.5z M30.2,23.7L30.2,23.7l0.6-0.6l0.6,0.6l-0.6,0.6L30.2,23.7z M29.6,23L29.6,23L29,22.4l0.6-0.6l0.6,0.6L29.6,23z
		 M30.2,21.2L30.2,21.2l2.6-2.6c2.5-2.5,2.5-6.5,0-8.9c-1.2-1.2-2.8-1.9-4.5-1.9c-1.7,0-3.3,0.7-4.5,1.9c-2.5,2.5-2.5,6.5,0,8.9
		l2.6,2.6l-0.6,0.6l-2.6-2.6c-2.8-2.8-2.8-7.4,0-10.2c1.4-1.4,3.2-2.1,5.1-2.1c1.8,0,3.7,0.7,5.1,2.1c1.4,1.4,2.1,3.2,2.1,5.1
		c0,1.9-0.7,3.7-2.1,5.1l-2.6,2.6L30.2,21.2L30.2,21.2z M27.1,21.8L27.1,21.8l0.6,0.6L27.1,23l-0.6-0.6L27.1,21.8z M26.5,23.7
		L26.5,23.7l-0.6,0.6l-0.6-0.6l0.6-0.6L26.5,23.7z M27.1,24.3L27.1,24.3l0.6,0.6l-0.6,0.6l-0.6-0.6L27.1,24.3z M26.5,26.2L26.5,26.2
		l-0.3,0.3l-0.6-0.6l0.3-0.3L26.5,26.2z M25.5,27.1L25.5,27.1l-0.6,0.6l-0.6-0.6l0.6-0.6L25.5,27.1z M24.3,28.3L24.3,28.3L23.7,29
		L23,28.3l0.6-0.6L24.3,28.3z M23.7,26.5L23.7,26.5L23,25.9l0.6-0.6l0.6,0.6L23.7,26.5z M23,27.1L23,27.1l-0.6,0.6l-0.6-0.6l0.6-0.6
		L23,27.1z M19.9,27.7L19.9,27.7l-2.6-2.6c-0.9-0.9-2-1.3-3.2-1.3c-1.2,0-2.4,0.5-3.2,1.3c-0.9,0.9-1.3,2-1.3,3.2
		c0,1.2,0.5,2.4,1.3,3.2c0.9,0.9,2,1.3,3.2,1.3c1.2,0,2.4-0.5,3.2-1.3l2.6-2.6l0.6,0.6l-2.6,2.6c-1,1-2.4,1.6-3.8,1.6
		c-1.5,0-2.8-0.6-3.8-1.6c-1-1-1.6-2.4-1.6-3.8c0-1.5,0.6-2.8,1.6-3.8c1-1,2.4-1.6,3.8-1.6s2.8,0.6,3.8,1.6l2.6,2.6L19.9,27.7
		L19.9,27.7z M19.3,28.3L19.3,28.3l-2.6,2.6C16,31.6,15.1,32,14.1,32c-1,0-1.9-0.4-2.6-1.1c-0.7-0.7-1.1-1.6-1.1-2.6
		c0-1,0.4-1.9,1.1-2.6c0.7-0.7,1.6-1.1,2.6-1.1c1,0,1.9,0.4,2.6,1.1L19.3,28.3L19.3,28.3z M20.5,28.3L20.5,28.3l0.6-0.6l0.6,0.6
		L21.2,29L20.5,28.3z M21.2,26.5L21.2,26.5l-2.6-2.6c-1.2-1.2-2.8-1.9-4.5-1.9c-1.7,0-3.3,0.7-4.5,1.9c-1.2,1.2-1.8,2.8-1.8,4.5
		c0,1.7,0.7,3.3,1.8,4.5c1.2,1.2,2.8,1.9,4.5,1.9c1.7,0,3.3-0.7,4.5-1.9l2.6-2.6l0.6,0.6l-2.6,2.6c-1.4,1.4-3.2,2.1-5.1,2.1
		c-1.9,0-3.7-0.7-5.1-2.1c-2.8-2.8-2.8-7.4,0-10.2c1.4-1.4,3.2-2.1,5.1-2.1c1.9,0,3.7,0.7,5.1,2.1l2.6,2.6L21.2,26.5L21.2,26.5z
		 M21.8,29.6L21.8,29.6l0.6-0.6l0.6,0.6l-0.6,0.6L21.8,29.6z M23.7,30.2L23.7,30.2l0.6,0.6l-0.6,0.6L23,30.8L23.7,30.2z M24.3,29.6
		L24.3,29.6l0.6-0.6l0.6,0.6l-0.6,0.6L24.3,29.6z M26.2,30.2L26.2,30.2l0.3,0.3l-0.6,0.6l-0.3-0.3L26.2,30.2z M27.1,31.2L27.1,31.2
		l0.6,0.6l-0.6,0.6l-0.6-0.6L27.1,31.2z M26.5,33L26.5,33l-0.6,0.6L25.2,33l0.6-0.6L26.5,33z M27.1,33.6L27.1,33.6l0.6,0.6l-0.6,0.6
		l-0.6-0.6L27.1,33.6z M26.5,35.5L26.5,35.5l-2.6,2.6c-1.2,1.2-1.8,2.8-1.8,4.5c0,1.7,0.7,3.3,1.8,4.5c1.2,1.2,2.8,1.9,4.5,1.9
		c1.7,0,3.3-0.7,4.5-1.9c1.2-1.2,1.8-2.8,1.8-4.5c0-1.7-0.7-3.3-1.8-4.5l-2.6-2.6l0.6-0.6l2.6,2.6c1.4,1.4,2.1,3.2,2.1,5.1
		c0,1.9-0.7,3.7-2.1,5.1c-2.8,2.8-7.4,2.8-10.2,0c-2.8-2.8-2.8-7.4,0-10.2l2.6-2.6L26.5,35.5L26.5,35.5z M29.6,34.9L29.6,34.9
		L29,34.3l0.6-0.6l0.6,0.6L29.6,34.9z M30.2,33L30.2,33l0.6-0.6l0.6,0.6l-0.6,0.6L30.2,33z M29.6,32.4L29.6,32.4L29,31.8l0.6-0.6
		l0.6,0.6L29.6,32.4z M30.2,30.5L30.2,30.5l0.3-0.3l0.6,0.6l-0.3,0.3L30.2,30.5z M31.2,29.6L31.2,29.6l0.6-0.6l0.6,0.6l-0.6,0.6
		L31.2,29.6z M33,30.2L33,30.2l0.6,0.6L33,31.5l-0.6-0.6L33,30.2z M33.6,29.6L33.6,29.6l0.6-0.6l0.6,0.6l-0.6,0.6L33.6,29.6z
		 M36.8,29L36.8,29l2.6,2.6c0.9,0.9,2,1.3,3.2,1.3c1.2,0,2.4-0.5,3.2-1.3c0.9-0.9,1.3-2,1.3-3.2c0-1.2-0.5-2.4-1.3-3.2
		c-0.9-0.9-2-1.3-3.2-1.3c-1.2,0-2.4,0.5-3.2,1.3l-2.6,2.6l-0.6-0.6l2.6-2.6c1-1,2.4-1.6,3.8-1.6c1.5,0,2.8,0.6,3.8,1.6
		c1,1,1.6,2.4,1.6,3.8c0,1.5-0.6,2.8-1.6,3.8c-1,1-2.4,1.6-3.8,1.6c-1.5,0-2.8-0.6-3.8-1.6l-2.6-2.6L36.8,29L36.8,29z M37.4,28.3
		L37.4,28.3l2.6-2.6c0.7-0.7,1.6-1.1,2.6-1.1c1,0,1.9,0.4,2.6,1.1c0.7,0.7,1.1,1.6,1.1,2.6c0,1-0.4,1.9-1.1,2.6
		c-0.7,0.7-1.6,1.1-2.6,1.1c-1,0-1.9-0.4-2.6-1.1L37.4,28.3L37.4,28.3z M36.1,28.3L36.1,28.3L35.5,29l-0.6-0.6l0.6-0.6L36.1,28.3z
		 M35.5,30.2L35.5,30.2l2.6,2.6c1.2,1.2,2.8,1.9,4.5,1.9c1.7,0,3.3-0.7,4.5-1.9c1.2-1.2,1.9-2.8,1.9-4.5c0-1.7-0.7-3.3-1.9-4.5
		c-1.2-1.2-2.8-1.9-4.5-1.9c-1.7,0-3.3,0.7-4.5,1.9l-2.6,2.6l-0.6-0.6l2.6-2.6c2.8-2.8,7.4-2.8,10.2,0c2.8,2.8,2.8,7.4,0,10.2
		c-2.8,2.8-7.4,2.8-10.2,0l-2.6-2.6L35.5,30.2L35.5,30.2z M34.9,27.1L34.9,27.1l-0.6,0.6l-0.6-0.6l0.6-0.6L34.9,27.1z M33,26.5
		L33,26.5l-0.6-0.6l0.6-0.6l0.6,0.6L33,26.5z M22,20.4L22,20.4c-3.5-3.5-3.5-9.2,0-12.7c1.7-1.7,3.9-2.6,6.3-2.6
		c2.4,0,4.6,0.9,6.3,2.6c3.5,3.5,3.5,9.2,0,12.7L32.1,23l-0.6-0.6l2.6-2.6c3.2-3.2,3.2-8.3,0-11.4c-3.2-3.2-8.3-3.2-11.4,0
		c-3.2,3.2-3.2,8.3,0,11.4l2.6,2.6L24.6,23L22,20.4L22,20.4z M24.6,24.3L24.6,24.3l0.6,0.6l-0.3,0.3l-0.6-0.6L24.6,24.3z M20.4,34.7
		L20.4,34.7c-1.7,1.7-3.9,2.6-6.3,2.6c-2.4,0-4.6-0.9-6.3-2.6c-3.5-3.5-3.5-9.2,0-12.7c1.7-1.7,3.9-2.6,6.3-2.6
		c2.4,0,4.6,0.9,6.3,2.6l2.6,2.6l-0.6,0.6l-2.6-2.6c-1.5-1.5-3.6-2.4-5.7-2.4c-2.2,0-4.2,0.8-5.7,2.4c-3.2,3.2-3.2,8.3,0,11.4
		c1.5,1.5,3.6,2.4,5.7,2.4c2.2,0,4.2-0.8,5.7-2.4l2.6-2.6l0.6,0.6L20.4,34.7L20.4,34.7z M24.3,32.1L24.3,32.1l0.6-0.6l0.3,0.3
		l-0.6,0.6L24.3,32.1z M34.7,36.2L34.7,36.2c3.5,3.5,3.5,9.2,0,12.7c-1.7,1.7-3.9,2.6-6.3,2.6s-4.6-0.9-6.3-2.6
		c-3.5-3.5-3.5-9.2,0-12.7l2.6-2.6l0.6,0.6l-2.6,2.6c-3.2,3.2-3.2,8.3,0,11.4c1.6,1.6,3.6,2.4,5.7,2.4c2.1,0,4.1-0.8,5.7-2.4
		c1.5-1.5,2.4-3.6,2.4-5.7c0-2.2-0.8-4.2-2.4-5.7l-2.6-2.6l0.6-0.6L34.7,36.2L34.7,36.2z M32.1,32.4L32.1,32.4l-0.6-0.6l0.3-0.3
		l0.6,0.6L32.1,32.4z M48.9,34.7L48.9,34.7c-1.7,1.7-3.9,2.6-6.3,2.6c-2.4,0-4.6-0.9-6.3-2.6l-2.6-2.6l0.6-0.6l2.6,2.6
		c1.6,1.6,3.6,2.4,5.7,2.4c2.1,0,4.1-0.8,5.7-2.4c3.2-3.2,3.2-8.3,0-11.4c-3.2-3.2-8.3-3.2-11.4,0l-2.6,2.6l-0.6-0.6l2.6-2.6
		c1.7-1.7,3.9-2.6,6.3-2.6c2.4,0,4.6,0.9,6.3,2.6c1.7,1.7,2.6,3.9,2.6,6.3C51.6,30.7,50.6,33,48.9,34.7L48.9,34.7z"/>
</g>
<g id="Layer_26" class="st0">
	<g class="st3">
		
			<image style="overflow:visible;" width="288" height="288" xlink:href="3E9DA2F3.jpg"  transform="matrix(0.1673 0 0 0.1673 4.252 4.252)">
		</image>
	</g>
</g>
<g id="Layer_27" class="st0">
	
		<linearGradient id="SVGID_21_" gradientUnits="userSpaceOnUse" x1="28.3464" y1="298.1166" x2="28.3464" y2="249.9275" gradientTransform="matrix(1 0 0 1 3.051759e-05 -245.6756)">
		<stop  offset="0" style="stop-color:#CCAE2C"/>
		<stop  offset="0.56" style="stop-color:#F0D237"/>
		<stop  offset="0.58" style="stop-color:#F9DC3C"/>
		<stop  offset="0.62" style="stop-color:#EFD035"/>
		<stop  offset="1" style="stop-color:#CCAE2C"/>
	</linearGradient>
	<path class="st54" d="M29.7,4.3c0.4,0,0.8,0.1,1.2,0.1c3.2,0.3,6.2,1.3,9,2.8c5.8,3.3,9.7,8.1,11.6,14.5c0.5,1.6,0.7,3.2,0.8,4.8
		c0.4,6-1.1,11.4-4.7,16.2c-3.6,4.8-8.3,7.9-14.1,9.1c-1.2,0.3-2.4,0.3-3.6,0.5c-0.1,0-0.2,0-0.2,0.1H27c-0.1,0-0.2,0-0.3-0.1
		c-1-0.1-2-0.2-3-0.4c-6.2-1.3-11.2-4.5-15-9.7c-2.4-3.3-3.8-7-4.2-11c-0.1-0.5-0.1-1.1-0.2-1.6V27c0-0.1,0-0.2,0.1-0.3
		c0.2-1.2,0.3-2.5,0.5-3.7C6.6,15.6,11,10.2,17.8,6.7c2.4-1.2,4.9-1.9,7.6-2.3c0.5-0.1,1.1-0.1,1.6-0.2L29.7,4.3z M6.7,28.3
		c0,11.9,9.6,21.6,21.6,21.6c11.9,0,21.6-9.7,21.6-21.6c0-11.9-9.7-21.6-21.6-21.6C16.5,6.7,6.7,16.4,6.7,28.3z M42.2,42.6
		c8-7.7,8.1-20.5,0.2-28.3c-7.8-7.8-19-7-25.4-2.2c0,0,0.1,0.1,0.1,0.1c2.3,1,4.5,2,6.8,3c0.1,0,0.3,0.1,0.4,0
		c1.8-0.6,3.7-0.7,5.6-0.5c3,0.4,5.6,1.6,7.8,3.7c3.1,3,4.5,6.6,4.3,10.9c0,0.1,0,0.3-0.1,0.5H19c0,0.1,0,0.3,0,0.4
		c0.8,4.2,4.3,7.4,8.5,7.7c3.5,0.2,6.3-1,8.4-3.8c0.1-0.2,0.3-0.2,0.5-0.2c1.4,0,2.8,0,4.2,0c0.1,0,0.2,0,0.3,0c0,0.1,0,0.2-0.1,0.2
		c-2.9,6.3-9.9,9.5-16.5,7.5c-0.2,0-0.4,0-0.5,0c-1.4,0.6-2.9,1.3-4.3,1.9c-0.9,0.4-1.7,0.8-2.6,1.1C23.2,49.3,34.3,50.2,42.2,42.6
		L42.2,42.6z M27.8,18.9c-4.6,0.2-7.8,3.7-8.6,7h18.2C36.7,22.5,33.1,18.6,27.8,18.9z"/>
</g>
<g id="Layer_28" class="st0">
	<g class="st3">
		<rect x="4.3" y="28.3" class="st55" width="9.6" height="9.6"/>
		<rect x="33.2" y="18.7" class="st55" width="9.6" height="9.6"/>
		<rect x="42.8" y="9.1" class="st55" width="9.6" height="9.6"/>
		<rect x="13.9" y="8.9" class="st55" width="9.6" height="19.4"/>
		<rect x="23.5" y="28.4" class="st55" width="9.6" height="19.4"/>
	</g>
</g>
<g id="Layer_29" class="st0">
	<g id="safari-pinned-tab-coral" class="st3">
		<g id="Group-17">
			<polygon id="Fill-11" class="st56" points="5.7,43 18.2,31 18.2,7.1 5.7,7.1 			"/>
			<polygon id="Fill-13" class="st56" points="30.6,7.1 30.6,19.1 43,7.1 			"/>
			<path id="Fill-15" class="st56" d="M45.4,43.9L28.8,20.8L20,29.2l12.1,16.9c1.7,2.4,4.3,3.4,7,3.4H51
				C48.9,48.1,46.8,45.8,45.4,43.9"/>
		</g>
	</g>
</g>
<g id="Layer_30" class="st0">
	<g class="st3">
		<path class="st57" d="M4.3,14.3h48.2L37.1,25.5c0.1-0.6,0.2-1.2,0.2-1.8c0-5-4-9-9-9c-5,0-9,4-9,9c0,0.6,0.1,1.3,0.2,1.8L4.3,14.3
			z"/>
		<path class="st57" d="M42.6,23.7c0,3.3-1.1,6.1-3.2,8.5c-2.6,2.9-6.3,4.3-11,4.3c-4.7,0-8.4-1.4-11-4.3c-2.2-2.4-3.2-5.2-3.2-8.7
			c0-3.1,1.1-5.8,3.3-8.2C20,12.4,23.8,11,28.6,11c4.5,0,8,1.4,10.7,4.3C41.5,17.6,42.6,20.4,42.6,23.7L42.6,23.7z M33.9,23.7
			L33.9,23.7c0-1.5-0.5-2.8-1.6-3.9c-1.1-1.1-2.4-1.6-3.9-1.6c-1.7,0-3.1,0.6-4.2,1.9c-0.9,1-1.3,2.2-1.3,3.6c0,1.4,0.4,2.5,1.3,3.6
			c1.1,1.3,2.5,1.9,4.2,1.9c1.5,0,2.8-0.5,3.9-1.6C33.3,26.6,33.9,25.2,33.9,23.7z"/>
		<rect x="18.6" y="40.5" class="st58" width="19.4" height="5.2"/>
	</g>
</g>
<g id="Layer_31" class="st0">
	<g class="st3">
		<g>
			<defs>
				<path id="SVGID_22_" d="M31.5,34.1L31.5,34.1c0,0,0.1,0,0.1,0c0.3,0.1,0.6,0.2,0.9,0.4c0.8,0.3,1.6,0.6,2.5,0.9
					c0.5,0.2,1.1,0.3,1.6,0.5c0.7,0.2,1.4,0.3,2.1,0.5c0.2,0,0.4,0.1,0.6,0.1c0,0,0-0.1-0.1-0.1c0,0,0,0.1,0.1,0.1
					c0.2,0,0.4,0.1,0.6,0.1c0.1,0,0.3,0,0.4,0c0,0,0-0.1,0-0.1c0,0,0,0.1,0,0.1c0.1,0,0.2,0,0.3,0c0.2,0,0.4,0,0.6,0
					c0,0,0-0.1-0.1-0.1c0,0,0,0.1,0.1,0.1c0.2,0,0.4,0,0.5,0c0.2,0,0.4,0,0.6,0c0,0,0-0.1,0-0.1c0,0,0,0.1,0,0.1c0.2,0,0.5,0,0.7,0
					c0.2,0,0.4,0,0.6,0c0,0,0.1,0,0.1,0c0-0.1,0-0.1-0.1-0.2c0,0.1,0.1,0.1,0.1,0.2c0.3,0,0.6,0,0.8-0.1c0.1,0,0.2,0,0.3,0
					c0-0.1,0-0.1-0.1-0.2c0,0.1,0.1,0.1,0.1,0.2c0.2,0,0.4-0.1,0.6-0.1c0,0,0.1,0,0.1,0c0,0,0-0.1,0-0.1c0,0,0,0.1,0.1,0.1
					c0,0,0.1,0,0.1,0c0.2,0,0.4-0.1,0.6-0.1c0-0.1-0.1-0.1-0.1-0.2c0,0.1,0.1,0.1,0.1,0.2c0.1,0,0.2,0,0.2,0c0.2,0,0.4-0.1,0.6-0.2
					c0,0,0-0.1,0-0.1c0,0,0,0.1,0,0.1c0.1,0,0.2-0.1,0.4-0.1c1-0.3,2-0.6,3-1c0.6-0.2,1.2-0.5,1.8-0.8c0,0,0.1,0,0.1,0
					c0,0,0,0,0-0.1c0,0-0.1,0-0.1-0.1c-0.4-0.2-0.8-0.4-1.2-0.6c-0.7-0.3-1.4-0.6-2.2-0.9c-0.6-0.2-1.3-0.4-2-0.6
					c-0.5-0.1-0.9-0.2-1.4-0.3c-0.3-0.1-0.6-0.1-0.9-0.1c-0.2,0-0.4,0-0.6-0.1c0,0,0,0.1,0.1,0.1c0,0,0-0.1-0.1-0.1
					c-0.1,0-0.3,0-0.4,0c-0.2,0-0.5,0-0.7,0c0,0,0,0.1,0,0.1c0,0,0-0.1,0-0.1c-0.1,0-0.2,0-0.2,0c-0.2,0-0.3,0-0.5,0
					c0,0,0,0.1,0,0.1c0,0,0,0,0-0.1c-0.3,0-0.6,0-0.8,0c0,0,0,0,0,0c0,0,0,0,0,0c0,0,0,0-0.1,0c-0.3,0-0.5,0-0.8,0
					c-0.1,0-0.2,0-0.3,0c0,0,0,0.1,0,0.1c0,0,0-0.1-0.1-0.1c0,0-0.1,0-0.1,0c-0.3,0-0.6,0.1-0.8,0.1c-0.1,0-0.3,0-0.4,0.1
					c0,0,0,0.1,0,0.1c0,0,0-0.1,0-0.1c-0.2,0-0.4,0.1-0.6,0.1c-0.1,0-0.3,0.1-0.4,0.1c0,0,0,0.1,0,0.1c0,0,0-0.1,0-0.1
					c0,0-0.1,0-0.1,0c-0.2,0-0.4,0.1-0.6,0.1c0,0,0,0.1,0,0.1c0,0,0-0.1,0-0.1c-0.1,0-0.2,0-0.3,0.1c-0.2,0-0.3,0.1-0.5,0.1
					c0,0,0,0.1,0,0.1c0,0,0-0.1-0.1-0.1c0,0,0,0,0,0c-0.6,0.2-1.3,0.4-1.9,0.6C33.5,33.1,32.5,33.5,31.5,34.1
					C31.5,34,31.5,34.1,31.5,34.1"/>
			</defs>
			<clipPath id="SVGID_23_">
				<use xlink:href="#SVGID_22_"  style="overflow:visible;"/>
			</clipPath>
			
				<linearGradient id="SVGID_24_" gradientUnits="userSpaceOnUse" x1="-7064.71" y1="447.4556" x2="-7064.6841" y2="447.4556" gradientTransform="matrix(-260.3069 0 0 -64.6104 -1838947.625 28944.2695)">
				<stop  offset="0" style="stop-color:#F36C21"/>
				<stop  offset="1" style="stop-color:#FDE527"/>
			</linearGradient>
			<rect x="31.5" y="31.4" class="st59" width="21" height="5.2"/>
		</g>
		<g>
			<defs>
				<path id="SVGID_25_" d="M20.9,26.6C20.9,26.6,20.9,26.6,20.9,26.6C20.9,26.6,20.9,26.6,20.9,26.6c0.1,0.1,0.3,0.2,0.4,0.2
					c0,0,0.1,0,0.1,0.1c-0.1,0.1-0.3,0.2-0.4,0.3c0.1-0.1,0.3-0.2,0.4-0.3c0.1,0.1,0.3,0.2,0.4,0.3c0.1,0.1,0.3,0.2,0.4,0.3
					c0,0-0.1,0.1-0.1,0.1c0,0,0.1-0.1,0.1-0.1c0.2,0.2,0.4,0.3,0.6,0.5c0.1,0.1,0.2,0.2,0.3,0.3c0,0-0.1,0-0.1,0.1
					c0,0,0.1,0,0.1-0.1c0.1,0.1,0.1,0.1,0.2,0.2c0.2,0.2,0.4,0.3,0.5,0.5c0,0,0,0.1,0.1,0.1c-0.1,0-0.1,0.1-0.2,0.1
					c0.1,0,0.1-0.1,0.2-0.1c0.1,0.1,0.2,0.3,0.4,0.4c0.5,0.6,0.9,1.2,1.3,1.8c0.1,0.2,0.2,0.4,0.4,0.6c0,0-0.1,0-0.1,0
					c-0.4,0-0.7,0-1.1,0c-0.3,0-0.5,0-0.8-0.1c-0.3,0-0.6-0.1-0.9-0.1c-0.5-0.1-1-0.1-1.6-0.3c-0.4-0.1-0.7-0.2-1.1-0.3
					c0,0,0-0.1,0.1-0.1c0,0-0.1,0.1-0.1,0.1c-0.1,0-0.2,0-0.3-0.1c-0.3-0.1-0.6-0.2-1-0.4c0,0,0-0.1,0-0.1c0,0-0.1,0,0,0.1
					c-0.1-0.1-0.3-0.1-0.4-0.2c-0.3-0.1-0.5-0.2-0.8-0.4c0.1-0.1,0.2-0.1,0.2-0.1c-0.1,0-0.2,0.1-0.2,0.1c-0.2-0.1-0.4-0.2-0.6-0.4
					c-0.1,0-0.1-0.1-0.2-0.1c0,0,0-0.1,0.1-0.1c0,0-0.1,0.1-0.1,0.1c-0.2-0.1-0.3-0.2-0.5-0.3c0,0,0.1-0.1,0.1-0.1
					c0,0-0.1,0.1-0.1,0.1c-0.1-0.1-0.3-0.2-0.4-0.3c0-0.1,0-0.1,0.1-0.1c0,0-0.1,0-0.1,0.1c-0.1-0.1-0.2-0.2-0.4-0.3
					c-0.1-0.1-0.2-0.1-0.3-0.2c0,0,0-0.1,0.1-0.1c0,0,0,0-0.1,0.1c-0.2-0.2-0.5-0.4-0.7-0.7c0,0,0,0,0.1-0.1c0,0,0,0-0.1,0.1
					c-0.2-0.1-0.3-0.3-0.5-0.5c-0.1-0.1-0.1-0.1-0.2-0.2c0.2-0.1,0.3-0.2,0.5-0.3c-0.2,0.1-0.3,0.2-0.5,0.3
					c-0.2-0.2-0.4-0.5-0.6-0.7c-0.6-0.7-1-1.5-1.5-2.3c0,0,0,0,0-0.1c0.1,0,0.2,0,0.2,0c0.1,0,0.2,0,0.3,0c0.5,0,1,0.1,1.6,0.1
					c0.8,0.1,1.6,0.3,2.4,0.5c0.3,0.1,0.6,0.2,0.9,0.3c-0.1,0-0.1,0.1-0.2,0.1c0.1,0,0.1-0.1,0.2-0.1c0.4,0.1,0.7,0.3,1.1,0.4
					c0,0,0,0.1,0,0.1c0,0,0,0,0.1-0.1c0.1,0.1,0.3,0.1,0.4,0.2c0.2,0.1,0.4,0.2,0.6,0.3c0,0-0.1,0.1-0.1,0.1c0,0,0.1,0,0.1-0.1
					c0.2,0.1,0.4,0.2,0.6,0.3c0.1,0,0.1,0.1,0.2,0.1c0,0,0,0.1-0.1,0.1c0,0,0.1-0.1,0.1-0.1C20.6,26.4,20.7,26.5,20.9,26.6z"/>
			</defs>
			<clipPath id="SVGID_26_">
				<use xlink:href="#SVGID_25_"  style="overflow:visible;"/>
			</clipPath>
			
				<linearGradient id="SVGID_27_" gradientUnits="userSpaceOnUse" x1="-7047.2383" y1="439.8403" x2="-7047.2109" y2="439.8403" gradientTransform="matrix(155.3298 155.3298 -155.33 155.33 1162983.75 1026352.0625)">
				<stop  offset="0" style="stop-color:#F36C21"/>
				<stop  offset="1" style="stop-color:#FDE527"/>
			</linearGradient>
			<polygon class="st60" points="8.2,28 19,38.8 29.8,28 19,17.2 			"/>
		</g>
		<g>
			<defs>
				<path id="SVGID_28_" d="M29.4,28c0.5,0.1,1,0.2,1.4,0.3C30.4,28.2,29.9,28.1,29.4,28c0-0.1,0-0.3,0-0.4c0-0.1,0-0.3,0-0.4
					c0,0,0,0,0-0.1c0.1,0,0.2,0,0.4,0c-0.1,0-0.2,0-0.4-0.1c0-0.2,0-0.3,0.1-0.5c0-0.1,0-0.2,0.1-0.3c0.1,0,0.2,0,0.3,0.1
					c-0.1,0-0.2,0-0.3-0.1c0-0.2,0.1-0.4,0.1-0.6c0,0,0-0.1,0-0.1c0.2,0,0.4,0.1,0.6,0.1c-0.2,0-0.4-0.1-0.6-0.1
					c0.1-0.3,0.2-0.5,0.3-0.8c0,0,0,0,0,0c0,0,0,0,0,0c0-0.1,0.1-0.2,0.1-0.4c0.1-0.1,0.1-0.2,0.2-0.4c0.2,0,0.5,0.1,0.7,0.1
					c-0.2,0-0.5-0.1-0.7-0.1c0.1-0.2,0.2-0.4,0.3-0.6c0,0,0-0.1,0.1-0.1c0.1,0,0.2,0,0.2,0.1c-0.1,0-0.1,0-0.2-0.1
					c0.2-0.2,0.3-0.5,0.5-0.7c0.2,0,0.4,0.1,0.7,0.1c-0.2,0-0.4-0.1-0.7-0.1c0.1-0.1,0.2-0.2,0.3-0.3c0.2-0.2,0.4-0.4,0.6-0.6
					c0.2,0,0.4,0.1,0.6,0.1c-0.2,0-0.4-0.1-0.6-0.1c0.1-0.1,0.2-0.2,0.4-0.3c0.5-0.4,1.1-0.8,1.7-1.1c0.1-0.1,0.3-0.1,0.4-0.2
					c0,0,0,0,0,0c0,0.3,0,0.7,0,1c0,0.3,0,0.5,0,0.8c0,0.1,0,0.3,0,0.4c-0.1,0-0.1,0-0.2,0c0.1,0,0.1,0,0.2,0c0,0.1,0,0.3,0,0.4
					c0,0.2,0,0.4-0.1,0.6c0,0,0,0,0,0.1c-0.1,0-0.2,0-0.3-0.1c0.1,0,0.2,0,0.3,0.1c0,0,0,0.1,0,0.1c0,0.2-0.1,0.4-0.1,0.7
					c-0.1,0-0.2,0-0.3-0.1c0.1,0,0.2,0,0.3,0.1c-0.1,0.2-0.1,0.5-0.2,0.7c-0.3,0-0.5-0.1-0.8-0.2c0.3,0.1,0.5,0.1,0.8,0.2
					c0,0.1-0.1,0.2-0.1,0.3c-0.1,0.1-0.1,0.3-0.2,0.5c-0.3,0-0.5-0.1-0.8-0.2c0.3,0.1,0.5,0.1,0.8,0.2c0,0.1-0.1,0.1-0.1,0.2
					c0,0.1-0.1,0.2-0.1,0.2c-0.1,0.1-0.1,0.2-0.2,0.3c-0.3-0.1-0.6-0.1-0.8-0.2c0.3,0.1,0.6,0.1,0.8,0.2c0,0.1-0.1,0.2-0.2,0.2
					c-0.1,0.1-0.2,0.3-0.3,0.4c0,0,0,0,0,0c0,0,0,0,0,0c-0.1,0.1-0.1,0.2-0.2,0.2c-0.1,0.1-0.3,0.3-0.4,0.4c0,0-0.1,0-0.1,0
					c0,0,0.1,0,0.1,0c-0.1,0.1-0.2,0.2-0.3,0.3c-0.2,0.2-0.4,0.3-0.5,0.5c0,0-0.1,0-0.1,0c0,0,0,0,0.1,0.1c0,0-0.1,0.1-0.1,0.1
					c-0.3,0.2-0.5,0.4-0.8,0.6c-0.3,0.2-0.7,0.4-1,0.6c0,0,0,0-0.1,0C29.4,29.2,29.4,28.6,29.4,28z"/>
			</defs>
			<clipPath id="SVGID_29_">
				<use xlink:href="#SVGID_28_"  style="overflow:visible;"/>
			</clipPath>
			
				<linearGradient id="SVGID_30_" gradientUnits="userSpaceOnUse" x1="-7058.0132" y1="423.4663" x2="-7057.9844" y2="423.4663" gradientTransform="matrix(-23.0515 130.7372 -97.6823 -17.2233 -121300.1016 930061.25)">
				<stop  offset="0" style="stop-color:#F36C21"/>
				<stop  offset="1" style="stop-color:#FDE527"/>
			</linearGradient>
			<polygon class="st61" points="29.6,19.2 27.7,29.5 34.6,30.7 36.4,20.4 			"/>
		</g>
		<g>
			<defs>
				<path id="SVGID_31_" d="M27.3,28c-0.5,0.1-1,0.2-1.4,0.3C26.3,28.2,26.8,28.1,27.3,28c0-0.1,0-0.3,0-0.4c0-0.1,0-0.3,0-0.4
					c0,0,0,0,0-0.1c-0.1,0-0.2,0-0.4,0c0.1,0,0.2,0,0.4-0.1c0-0.2,0-0.3-0.1-0.5c0-0.1,0-0.2-0.1-0.3c-0.1,0-0.2,0-0.3,0.1
					c0.1,0,0.2,0,0.3-0.1c0-0.2-0.1-0.4-0.1-0.6c0,0,0-0.1,0-0.1c-0.2,0-0.4,0.1-0.6,0.1c0.2,0,0.4-0.1,0.6-0.1
					c-0.1-0.3-0.2-0.5-0.3-0.8c0,0,0,0,0,0c0,0,0,0,0,0c0-0.1-0.1-0.2-0.1-0.4c-0.1-0.1-0.1-0.2-0.2-0.4c-0.2,0-0.5,0.1-0.7,0.1
					c0.2,0,0.5-0.1,0.7-0.1c-0.1-0.2-0.2-0.4-0.3-0.6c0,0,0-0.1-0.1-0.1c-0.1,0-0.2,0-0.2,0.1c0.1,0,0.1,0,0.2-0.1
					c-0.2-0.2-0.3-0.5-0.5-0.7c-0.2,0-0.4,0.1-0.7,0.1c0.2,0,0.4-0.1,0.7-0.1c-0.1-0.1-0.2-0.2-0.3-0.3c-0.2-0.2-0.4-0.4-0.6-0.6
					c-0.2,0-0.4,0.1-0.6,0.1c0.2,0,0.4-0.1,0.6-0.1c-0.1-0.1-0.2-0.2-0.4-0.3c-0.5-0.4-1.1-0.8-1.7-1.1c-0.1-0.1-0.3-0.1-0.4-0.2
					c0,0,0,0,0,0c0,0.3,0,0.7,0,1c0,0.3,0,0.5,0,0.8c0,0.1,0,0.3,0,0.4c0.1,0,0.1,0,0.2,0c-0.1,0-0.1,0-0.2,0c0,0.1,0,0.3,0,0.4
					c0,0.2,0,0.4,0.1,0.6c0,0,0,0,0,0.1c0.1,0,0.2,0,0.3-0.1c-0.1,0-0.2,0-0.3,0.1c0,0,0,0.1,0,0.1c0,0.2,0.1,0.4,0.1,0.7
					c0.1,0,0.2,0,0.3-0.1c-0.1,0-0.2,0-0.3,0.1c0.1,0.2,0.1,0.5,0.2,0.7c0.3,0,0.5-0.1,0.8-0.2c-0.3,0.1-0.5,0.1-0.8,0.2
					c0,0.1,0.1,0.2,0.1,0.3c0.1,0.1,0.1,0.3,0.2,0.5c0.3,0,0.5-0.1,0.8-0.2c-0.3,0.1-0.5,0.1-0.8,0.2c0,0.1,0.1,0.1,0.1,0.2
					c0,0.1,0.1,0.2,0.1,0.2c0.1,0.1,0.1,0.2,0.2,0.3c0.3-0.1,0.6-0.1,0.8-0.2c-0.3,0.1-0.6,0.1-0.8,0.2c0,0.1,0.1,0.2,0.2,0.2
					c0.1,0.1,0.2,0.3,0.3,0.4c0,0,0,0,0,0c0,0,0,0,0,0c0.1,0.1,0.1,0.2,0.2,0.2c0.1,0.1,0.3,0.3,0.4,0.4c0,0,0.1,0,0.1,0
					c0,0-0.1,0-0.1,0c0.1,0.1,0.2,0.2,0.3,0.3c0.2,0.2,0.4,0.3,0.5,0.5c0,0,0.1,0,0.1,0c0,0,0,0-0.1,0.1c0,0,0.1,0.1,0.1,0.1
					c0.3,0.2,0.5,0.4,0.8,0.6c0.3,0.2,0.7,0.4,1,0.6c0,0,0,0,0.1,0C27.3,29.2,27.3,28.6,27.3,28z"/>
			</defs>
			<clipPath id="SVGID_32_">
				<use xlink:href="#SVGID_31_"  style="overflow:visible;"/>
			</clipPath>
			
				<linearGradient id="SVGID_33_" gradientUnits="userSpaceOnUse" x1="-7051.5278" y1="423.1371" x2="-7051.499" y2="423.1371" gradientTransform="matrix(23.0583 130.7708 -97.8737 17.2577 204034.2656 914854.5625)">
				<stop  offset="0" style="stop-color:#F36C21"/>
				<stop  offset="1" style="stop-color:#FDE527"/>
			</linearGradient>
			<polygon class="st62" points="20.3,20.4 22.1,30.7 29,29.5 27.2,19.2 			"/>
		</g>
		<g>
			<defs>
				<path id="SVGID_34_" d="M41.1,28.5c-0.1,0-0.1-0.1-0.2-0.1C41,28.5,41.1,28.5,41.1,28.5c-0.1,0.1-0.2,0.2-0.3,0.3
					c-0.1,0-0.1,0.1-0.2,0.1c0,0,0,0-0.1-0.1c0,0,0,0,0,0.1c-0.2,0.1-0.4,0.3-0.6,0.4c0,0-0.1,0.1-0.1,0.1c0,0,0,0-0.1-0.1
					c0,0,0,0,0,0.1c-0.2,0.2-0.5,0.3-0.7,0.5c-0.1,0.1-0.2,0.1-0.3,0.2c0,0-0.1-0.1-0.1-0.1c0,0,0,0,0.1,0.1
					c-0.1,0.1-0.2,0.1-0.2,0.1c-0.2,0.1-0.5,0.2-0.7,0.3c0,0-0.1-0.1-0.1-0.1c0,0,0,0,0.1,0.1c-0.1,0-0.2,0.1-0.2,0.1
					c-0.2,0.1-0.3,0.1-0.5,0.2c0,0,0,0,0,0c0,0,0,0,0,0C37,31,37,31,36.9,31c-0.2,0.1-0.5,0.2-0.7,0.2c0,0,0,0-0.1-0.1
					c0,0,0,0,0,0.1c-0.3,0.1-0.6,0.2-1,0.2c-0.5,0.1-1.1,0.2-1.6,0.3c-0.2,0-0.5,0.1-0.7,0.1c-0.2,0-0.5,0-0.7,0c-0.4,0-0.8,0-1.2,0
					c0,0,0-0.1,0-0.1c0.5-0.9,1.1-1.7,1.7-2.5c0.1-0.1,0.1-0.2,0.2-0.2c0,0,0,0,0.1,0c0,0,0,0-0.1-0.1c0.1-0.1,0.2-0.3,0.3-0.4
					c0.1-0.1,0.1-0.1,0.2-0.2c0,0,0,0,0.1,0.1c0,0,0,0-0.1-0.1c0.1-0.2,0.3-0.3,0.5-0.5c0.1,0,0.1,0,0.2,0.1c0,0-0.1-0.1-0.2-0.1
					c0.1-0.1,0.2-0.2,0.4-0.3c0.1-0.1,0.2-0.2,0.4-0.3c0.1,0,0.1,0.1,0.2,0.1c-0.1,0-0.1-0.1-0.2-0.1c0.3-0.2,0.5-0.4,0.8-0.6
					c0.1,0,0.1-0.1,0.2-0.1c0,0,0,0,0.1,0.1c0,0,0,0-0.1-0.1c0.2-0.1,0.4-0.2,0.6-0.4c0.1-0.1,0.2-0.1,0.3-0.1c0,0,0,0,0,0
					c0,0,0,0,0,0c0.2-0.1,0.4-0.2,0.6-0.3c0,0.1,0.1,0.1,0.1,0.1c0,0-0.1,0-0.1-0.1c0.1-0.1,0.3-0.2,0.4-0.2c0,0,0,0.1,0.1,0.1
					c0,0,0-0.1-0.1-0.1c0.2-0.1,0.4-0.2,0.6-0.3c0,0,0.1,0,0.1,0c0,0,0,0.1,0.1,0.1c0,0-0.1,0,0-0.1c0.2-0.1,0.4-0.2,0.7-0.3
					c0.1,0,0.2-0.1,0.3-0.1c0.1,0,0.1,0.1,0.1,0.1c0,0-0.1-0.1-0.1-0.1c0.2-0.1,0.5-0.2,0.7-0.2c0.6-0.2,1.2-0.3,1.9-0.4
					c0.3-0.1,0.7-0.1,1-0.2c0.3,0,0.6-0.1,0.9-0.1c0.2,0,0.4,0,0.5,0c0.1,0,0.3,0,0.4,0c0,0,0,0.1,0,0.1c-0.5,1-1.2,1.9-1.9,2.8
					c-0.1,0.1-0.1,0.2-0.2,0.2c-0.1-0.1-0.2-0.1-0.2-0.2c0.1,0.1,0.2,0.1,0.2,0.2c-0.2,0.2-0.4,0.4-0.6,0.6
					c-0.1-0.1-0.2-0.1-0.3-0.2c0.1,0.1,0.2,0.1,0.2,0.2c0,0-0.1,0.1-0.1,0.1c-0.1,0.1-0.2,0.2-0.3,0.3c0,0-0.1-0.1-0.1-0.1
					c0,0,0.1,0.1,0.1,0.1C41.3,28.4,41.2,28.4,41.1,28.5z"/>
			</defs>
			<clipPath id="SVGID_35_">
				<use xlink:href="#SVGID_34_"  style="overflow:visible;"/>
			</clipPath>
			
				<linearGradient id="SVGID_36_" gradientUnits="userSpaceOnUse" x1="-7063.0537" y1="439.9018" x2="-7063.0278" y2="439.9018" gradientTransform="matrix(-155.3579 155.3569 -155.3569 -155.3579 -1028919.25 1165661.625)">
				<stop  offset="0" style="stop-color:#F36C21"/>
				<stop  offset="1" style="stop-color:#FDE527"/>
			</linearGradient>
			<polygon class="st63" points="37.7,17.2 26.9,28 37.7,38.8 48.5,28 			"/>
		</g>
		<g>
			<defs>
				<path id="SVGID_37_" d="M4.3,34.1L4.3,34.1L4.3,34.1L4.3,34.1C4.3,34.1,4.3,34.1,4.3,34.1C4.3,34.1,4.3,34.1,4.3,34.1
					c0.5,0.2,0.8,0.4,1.2,0.6c0.6,0.3,1.3,0.5,2,0.8c0.6,0.2,1.2,0.4,1.8,0.6C9.4,36,9.6,36,9.7,36c0,0,0-0.1,0-0.1c0,0,0,0.1,0,0.1
					c0.2,0.1,0.5,0.1,0.7,0.2c0.1,0,0.2,0,0.3,0.1c0,0,0-0.1,0-0.1c0,0,0,0.1,0,0.1c0.2,0,0.4,0.1,0.5,0.1c0,0,0-0.1,0-0.1
					c0,0,0,0.1,0,0.1c0,0,0.1,0,0.1,0c0.1,0,0.2,0,0.4,0c0,0,0,0,0-0.1c0,0,0,0,0,0.1c0.1,0,0.1,0,0.2,0c0.2,0,0.3,0,0.5,0
					c0,0,0-0.1,0-0.1c0,0,0,0,0,0.1c0,0,0.1,0,0.1,0c0.3,0,0.5,0,0.8,0c0,0,0-0.1,0-0.1c0,0,0,0,0,0.1c0.1,0,0.2,0,0.3,0
					c0.3,0,0.6,0,0.9,0c0.1-0.1,0.1-0.2,0.2-0.3c-0.1,0.1-0.1,0.2-0.1,0.3c0.3,0,0.6,0,1,0c0.1,0,0.3,0,0.4,0c0,0,0-0.1,0-0.1
					c0,0,0,0.1,0,0.1c0,0,0.1,0,0.1,0c0.2,0,0.3,0,0.5-0.1c0.3,0,0.5-0.1,0.8-0.1c0,0,0-0.1,0-0.1c0,0,0,0.1,0,0.1c0,0,0,0,0,0
					c0.6-0.1,1.1-0.2,1.7-0.3c1-0.2,1.9-0.5,2.9-0.8c0.9-0.3,1.8-0.6,2.7-1c0.2-0.1,0.4-0.2,0.6-0.2c0,0-0.1,0-0.1-0.1
					c-0.1-0.1-0.3-0.1-0.4-0.2c-0.5-0.2-0.9-0.4-1.4-0.6c-0.8-0.3-1.6-0.6-2.4-0.9c-0.2-0.1-0.5-0.1-0.7-0.2c0,0,0,0.1,0,0.1
					c0,0,0-0.1,0-0.1c-0.1,0-0.2-0.1-0.3-0.1c-0.2,0-0.4-0.1-0.6-0.1c-0.1,0-0.2,0-0.3-0.1c-0.2,0.3-0.4,0.5-0.6,0.8
					c0.2-0.3,0.4-0.5,0.6-0.8c-0.2-0.1-0.4-0.1-0.6-0.1c-0.2,0-0.4-0.1-0.6-0.1c0,0,0,0.1,0,0.1c0,0,0-0.1,0-0.1
					c-0.4,0-0.7-0.1-1.1-0.1c0,0.1-0.1,0.1-0.1,0.2c0-0.1,0.1-0.1,0.1-0.2c0,0-0.1,0-0.1,0c-0.2,0-0.5,0-0.7-0.1c0,0,0,0.1,0,0.1
					c0,0,0,0,0-0.1c-0.1,0-0.2,0-0.3,0c-0.2,0-0.3,0-0.5,0c0,0.1-0.1,0.1-0.1,0.2c0-0.1,0.1-0.1,0.1-0.2c-0.2,0-0.3,0-0.5,0
					c0,0,0,0.1,0,0.1c0,0,0,0,0-0.1c-0.2,0-0.4,0-0.6,0c0,0,0,0.1-0.1,0.1c0,0,0-0.1,0-0.1c0,0,0,0-0.1,0c-0.3,0-0.6,0-0.9,0
					c-0.1,0-0.2,0-0.3,0c0,0,0,0.1-0.1,0.1c0,0,0-0.1,0.1-0.1c0,0-0.1,0-0.1,0c-0.4,0-0.7,0.1-1.1,0.1c-0.6,0.1-1.3,0.2-1.9,0.4
					c-0.7,0.2-1.5,0.4-2.2,0.7C6.4,33,5.3,33.5,4.3,34.1C4.3,34,4.3,34,4.3,34.1"/>
			</defs>
			<clipPath id="SVGID_38_">
				<use xlink:href="#SVGID_37_"  style="overflow:visible;"/>
			</clipPath>
			
				<linearGradient id="SVGID_39_" gradientUnits="userSpaceOnUse" x1="-7045.7207" y1="448.3483" x2="-7045.6953" y2="448.3483" gradientTransform="matrix(260.7355 0 0 64.5565 1837081.125 -28909.8008)">
				<stop  offset="0" style="stop-color:#F36C21"/>
				<stop  offset="1" style="stop-color:#FDE527"/>
			</linearGradient>
			<rect x="4.3" y="31.4" class="st64" width="21" height="5.2"/>
		</g>
	</g>
</g>
<g id="Layer_32" class="st0">
	<g id="Layer_x0020_1_7_" class="st3">
		<path class="st65" d="M8.7,41.4l0-23l9.9,5.7c1,0.6,9.6,5.6,9.9,5.6c0.1,0,8.9-5.1,9.8-5.6c0.6-0.3,9.3-5.4,9.8-5.6l0,23l1.6-0.8
			v-25c-0.3,0.1-2.3,1.2-2.7,1.5l-4,2.3c-2.9,1.6-6.3,3.8-9.3,5.4c-0.9,0.5-1.8,1-2.7,1.5c-3.1,1.9-2.3,1.8-5.4,0
			c-0.9-0.5-1.8-1-2.6-1.5c-4.3-2.6-9-5.1-13.3-7.7L7,15.6v24.9L8.7,41.4L8.7,41.4z"/>
		<path class="st65" d="M16.2,10.9v1.8c0.5-0.1,3.1-1.6,3.8-2c0.3-0.2,0.4-0.3,0.7-0.4c1.1-0.6,7.3-4.1,7.7-4.1
			c0.3,0,10.5,5.7,12.1,6.5v-2c-0.3-0.1-5.4-2.8-6-3.2L29.9,5c-0.4-0.2-1.2-0.8-1.6-0.7C28.2,4.3,18,9.9,16.2,10.9L16.2,10.9z"/>
		<path class="st65" d="M16.2,45.8l12.1,6.6c0.5,0.1,3.2-1.6,3.8-2l3.8-2.1c0.5-0.3,1-0.5,1.5-0.8c0.3-0.2,0.5-0.2,0.8-0.4l2.3-1.2
			v-2c-0.4,0.1-1.1,0.5-1.5,0.7L33,48.1c-0.6,0.3-4.4,2.4-4.6,2.4c-0.2,0-10.1-5.4-12.2-6.5L16.2,45.8L16.2,45.8z"/>
		<path class="st66" d="M8.7,41.4l14.7-8.6c0.6-0.4,4.7-2.8,5-2.8c0.4,0,6.2,3.5,7.4,4.2l7.4,4.4c1.7,1,3.3,1.9,4.9,2.9l0-23
			c-0.5,0.2-9.2,5.3-9.8,5.6c-0.9,0.5-9.7,5.6-9.8,5.6c-0.3,0-8.8-5-9.9-5.6l-9.9-5.7L8.7,41.4L8.7,41.4z"/>
	</g>
</g>
<g id="Layer_33" class="st0">
	<g class="st3">
		<path class="st67" d="M7.1,28.8v12.3l10.6,6.1l9,5.2V29.7L7.1,18.3V28.8z M9.7,23.4l13.8,7.9v15l-2.8-1.6V32.5L18,30.9v12.2
			l-2.7-1.6V29.3l-2.8-1.6v12.2l-2.7-1.6V23.4z"/>
		<path class="st68" d="M29.9,29.7v22.7l9.1-5.2l10.6-6.1V28.8V18.3L29.9,29.7z M47.1,37.9l-13.9,8V31.3l13.9-8V37.9z"/>
		<path class="st69" d="M39,10.4L28.3,4.3l-10.6,6.1l-9.1,5.2L28.3,27L48,15.6L39,10.4z M15,15.6l6.1-3.5h0l7.2-4.2l7.2,4.2l6.1,3.5
			l-13.3,7.7L15,15.6z"/>
		<polygon class="st68" points="44.2,27.8 36.2,32.4 36.2,35.4 44.2,30.8 		"/>
		<polygon class="st68" points="44.2,33.7 36.2,38.3 36.2,41.2 44.2,36.6 		"/>
		<polygon class="st69" points="32.5,13.6 28.3,11.1 24.2,13.6 24.2,13.6 20.6,15.6 28.3,20.1 36.1,15.6 		"/>
	</g>
</g>
<g id="Layer_34" class="st0">
	<g class="st3">
		<g>
			<path class="st70" d="M28.3,52.4C15,52.4,4.3,41.7,4.3,28.3S15,4.3,28.3,4.3c13.3,0,24.1,10.8,24.1,24.1S41.7,52.4,28.3,52.4z"/>
			<defs>
				<filter id="Adobe_OpacityMaskFilter" filterUnits="userSpaceOnUse" x="17.3" y="25.1" width="22" height="6.5">
					<feColorMatrix  type="matrix" values="1 0 0 0 0  0 1 0 0 0  0 0 1 0 0  0 0 0 1 0"/>
				</filter>
			</defs>
			<mask maskUnits="userSpaceOnUse" x="17.3" y="25.1" width="22" height="6.5" id="mask0_1693_6086_2_">
				<path class="st71" d="M39,31.2H23.4c-3.4,0-5.8-2.6-5.8-5.8h16.5C36.6,25.5,39,28,39,31.2z"/>
			</mask>
			<g class="st72">
				<path class="st23" d="M17.3,25.1h22v6.5h-22V25.1z"/>
			</g>
			<defs>
				<filter id="Adobe_OpacityMaskFilter_1_" filterUnits="userSpaceOnUse" x="17.3" y="14.5" width="22" height="9.4">
					<feColorMatrix  type="matrix" values="1 0 0 0 0  0 1 0 0 0  0 0 1 0 0  0 0 0 1 0"/>
				</filter>
			</defs>
			<mask maskUnits="userSpaceOnUse" x="17.3" y="14.5" width="22" height="9.4" id="mask1_1693_6086_2_">
				<path class="st73" d="M34.1,14.9H23.4c-3.4,0-5.8,2.4-5.8,5.8v2.9h5.8v-2.9H39C39,17.2,36.6,14.9,34.1,14.9z"/>
			</mask>
			<g class="st74">
				<path class="st23" d="M17.3,14.5h22v9.4h-22V14.5z"/>
			</g>
			<defs>
				<filter id="Adobe_OpacityMaskFilter_2_" filterUnits="userSpaceOnUse" x="17.3" y="32.8" width="22" height="9.6">
					<feColorMatrix  type="matrix" values="1 0 0 0 0  0 1 0 0 0  0 0 1 0 0  0 0 0 1 0"/>
				</filter>
			</defs>
			<mask maskUnits="userSpaceOnUse" x="17.3" y="32.8" width="22" height="9.6" id="mask2_1693_6086_2_">
				<path class="st75" d="M33.1,33.2v2.9H17.6c0,3.4,2.4,5.8,5.8,5.8h10.7c2.5,0,4.9-2.4,4.9-5.8v-2.9H33.1z"/>
			</mask>
			<g class="st76">
				<path class="st23" d="M17.3,32.8h22v9.6h-22V32.8z"/>
			</g>
		</g>
	</g>
</g>
<g id="Layer_35" class="st0">
	<g class="st3">
		<polygon class="st77" points="38.8,10.3 28.3,4.3 28.3,16.3 		"/>
		<polygon class="st78" points="49.2,16.3 38.8,10.3 38.8,22.3 		"/>
		<polygon class="st77" points="49.2,28.3 49.2,16.3 38.8,22.3 		"/>
		<polygon class="st79" points="17.9,10.3 17.9,22.3 28.3,16.3 		"/>
		<polygon class="st78" points="28.3,4.3 17.9,10.3 28.3,16.3 		"/>
		<polygon class="st79" points="7.5,16.3 7.5,28.3 17.9,22.3 		"/>
		<polygon class="st80" points="17.9,10.3 7.5,16.3 17.9,22.3 		"/>
		<polygon class="st77" points="28.3,28.3 17.9,22.3 17.9,34.4 		"/>
		<polygon class="st79" points="7.5,28.3 7.5,40.4 17.9,34.4 		"/>
		<polygon class="st78" points="17.9,22.3 7.5,28.3 17.9,34.4 		"/>
		<polygon class="st80" points="17.9,34.4 7.5,40.4 17.9,46.4 		"/>
		<polygon class="st77" points="28.3,52.4 38.8,46.4 28.3,40.4 		"/>
		<polygon class="st78" points="28.3,40.4 17.9,46.4 28.3,52.4 		"/>
		<polygon class="st78" points="49.2,28.3 38.8,22.3 38.8,34.4 		"/>
		<polygon class="st79" points="49.2,40.4 49.2,28.3 38.8,34.4 		"/>
		<polygon class="st80" points="38.8,46.4 49.2,40.4 38.8,34.4 		"/>
		<polygon class="st79" points="38.8,22.3 28.3,28.3 38.8,34.4 		"/>
		<polygon class="st79" points="38.8,34.4 28.3,40.4 38.8,46.4 		"/>
	</g>
</g>
<g id="Layer_36" class="st0">
	<g class="st3">
		<path class="st81" d="M17.2,35.5c-3.6-6.7,0.3-15.8,8.6-20.2c8.3-4.4,18-2.6,21.6,4.1c3.6,6.7-0.3,15.8-8.6,20.2
			C30.4,44.1,20.8,42.2,17.2,35.5 M10.5,40.4c-4.7-8.9,0.4-20.9,11.4-26.7c11-5.9,23.8-3.4,28.6,5.5C55.2,28,50.1,40,39.1,45.9
			C28,51.7,15.2,49.3,10.5,40.4z"/>
		<g>
			<path class="st82" d="M6,20.6c2.6-2.8,6.9-3.1,9.8-0.5c2.8,2.6,3.1,6.9,0.5,9.8c-2.6,2.8-6.9,3.1-9.8,0.5
				C3.7,27.8,3.5,23.5,6,20.6"/>
			<path class="st82" d="M41.6,35.3c2.3-2.6,6.3-2.8,8.8-0.5c2.6,2.3,2.8,6.3,0.5,8.8c-2.3,2.6-6.2,2.8-8.8,0.5
				C39.5,41.8,39.3,37.8,41.6,35.3"/>
			<path class="st82" d="M37.3,9.4c1-1.2,2.5-1.7,3.9-1.8h0c1.3,0,2.5,0.4,3.6,1.4c2.2,2,2.3,5.3,0.4,7.5c-2,2.2-5.3,2.3-7.5,0.4
				C35.5,14.9,35.4,11.6,37.3,9.4"/>
		</g>
	</g>
</g>
<g id="Layer_6_copy" class="st0">
	<g class="st3">
		<path class="st83" d="M9.2,24.9H7.1v-8.5H4.3v-1.8H12v1.8H9.2V24.9z"/>
		<path class="st83" d="M19.1,24.9l-0.3-1h-0.1c-0.2,0.4-0.6,0.7-1,0.9S16.8,25,16.2,25c-0.9,0-1.6-0.2-2.1-0.7s-0.7-1.2-0.7-2.1V17
			h2.2v4.6c0,0.6,0.1,1,0.3,1.3c0.2,0.3,0.5,0.4,1,0.4c0.6,0,1-0.2,1.3-0.6c0.3-0.4,0.4-1.1,0.4-2V17h2.2v7.9H19.1z"/>
		<path class="st83" d="M27.4,16.9c0.3,0,0.5,0,0.7,0.1l-0.2,2c-0.2,0-0.4-0.1-0.6-0.1c-0.7,0-1.2,0.2-1.6,0.5
			c-0.4,0.4-0.6,0.8-0.6,1.5v4H23V17h1.6l0.3,1.3H25c0.2-0.4,0.6-0.8,1-1.1C26.4,17,26.9,16.9,27.4,16.9z"/>
		<path class="st83" d="M34.5,24.9l-0.4-1.1h-0.1c-0.4,0.5-0.7,0.8-1.1,0.9C32.6,25,32.1,25,31.4,25c-0.8,0-1.4-0.2-1.8-0.6
			c-0.4-0.4-0.7-1-0.7-1.8c0-0.8,0.3-1.5,0.9-1.9c0.6-0.4,1.5-0.6,2.7-0.7l1.4,0v-0.3c0-0.8-0.4-1.2-1.2-1.2c-0.6,0-1.4,0.2-2.2,0.6
			l-0.7-1.5c0.9-0.5,1.9-0.7,3-0.7c1.1,0,1.9,0.2,2.4,0.7c0.6,0.5,0.8,1.2,0.8,2.1v5.3H34.5z M33.9,21.2l-0.8,0
			c-0.6,0-1.1,0.1-1.4,0.3c-0.3,0.2-0.5,0.5-0.5,0.9c0,0.6,0.3,0.9,1,0.9c0.5,0,0.9-0.1,1.2-0.4c0.3-0.3,0.4-0.7,0.4-1.1V21.2z"/>
		<path class="st83" d="M45.5,24.9h-2.2v-4.6c0-0.6-0.1-1-0.3-1.3c-0.2-0.3-0.5-0.4-1-0.4c-0.6,0-1,0.2-1.3,0.6
			c-0.3,0.4-0.4,1.1-0.4,2v3.7h-2.2V17h1.6l0.3,1h0.1c0.2-0.4,0.6-0.7,1-0.9s0.9-0.3,1.4-0.3c0.9,0,1.6,0.2,2.1,0.7s0.7,1.2,0.7,2.1
			V24.9z"/>
		<path class="st83" d="M51.1,23.3c0.4,0,0.8-0.1,1.4-0.2v1.6c-0.5,0.2-1.2,0.4-2,0.4c-0.9,0-1.5-0.2-1.9-0.7
			c-0.4-0.4-0.6-1.1-0.6-2v-3.8h-1v-0.9l1.2-0.7l0.6-1.7h1.4V17h2.2v1.6h-2.2v3.8c0,0.3,0.1,0.5,0.3,0.7
			C50.6,23.3,50.8,23.3,51.1,23.3z"/>
		<path class="st83" d="M12.4,31.5c0,1.1-0.3,2-1,2.5c-0.7,0.6-1.7,0.9-3,0.9H7.4v3.7H5.3V28.3h3.3c1.3,0,2.2,0.3,2.9,0.8
			S12.4,30.5,12.4,31.5z M7.4,33.2h0.7c0.7,0,1.2-0.1,1.5-0.4s0.5-0.7,0.5-1.2c0-0.5-0.1-0.9-0.4-1.1c-0.3-0.2-0.7-0.4-1.3-0.4h-1
			V33.2z"/>
		<path class="st83" d="M19.2,38.6l-0.4-1.1h-0.1c-0.4,0.5-0.7,0.8-1.1,0.9c-0.4,0.2-0.9,0.3-1.5,0.3c-0.8,0-1.4-0.2-1.8-0.6
			s-0.7-1-0.7-1.8c0-0.8,0.3-1.5,0.9-1.9c0.6-0.4,1.5-0.6,2.7-0.7l1.4,0v-0.3c0-0.8-0.4-1.2-1.2-1.2c-0.6,0-1.4,0.2-2.2,0.6
			l-0.7-1.5c0.9-0.5,1.9-0.7,3-0.7c1.1,0,1.9,0.2,2.4,0.7c0.6,0.5,0.8,1.2,0.8,2.1v5.3H19.2z M18.5,35l-0.8,0
			c-0.6,0-1.1,0.1-1.4,0.3c-0.3,0.2-0.5,0.5-0.5,0.9c0,0.6,0.3,0.9,1,0.9c0.5,0,0.9-0.1,1.2-0.4c0.3-0.3,0.4-0.7,0.4-1.1V35z"/>
		<path class="st83" d="M21.8,30.7h2.4l1.5,4.4c0.1,0.4,0.2,0.8,0.3,1.4h0c0.1-0.5,0.2-0.9,0.3-1.4l1.5-4.4H30l-3.3,8.9
			c-0.3,0.8-0.7,1.4-1.3,1.8c-0.6,0.4-1.2,0.6-2,0.6c-0.4,0-0.7,0-1.1-0.1v-1.7c0.3,0.1,0.5,0.1,0.8,0.1c0.4,0,0.7-0.1,1-0.3
			c0.3-0.2,0.5-0.6,0.7-1.1l0.1-0.4L21.8,30.7z"/>
	</g>
</g>
<g id="Layer_37" class="st0">
	<g class="st3">
		<path class="st84" d="M8.1,47.9V8.8h8.3v39.1H8.1z"/>
		<path class="st84" d="M34.4,47.9h-8.2V8.8h22.4v6.8H34.4v10.1h13.3v6.8H34.4V47.9z"/>
	</g>
</g>
<g id="Layer_38" class="st0">
	
		<image style="display:inline;overflow:visible;" width="200" height="200" xlink:href="3E9DA2F1.png"  transform="matrix(0.284 0 0 0.284 -4.866142e-02 -4.866142e-02)">
	</image>
</g>
</svg>
