<?xml version="1.0" encoding="UTF-8"?>
<svg id="Rewards_bunny" xmlns="http://www.w3.org/2000/svg" version="1.1" viewBox="0 0 56.7 56.7">
  <!-- Generator: Adobe Illustrator 29.5.1, SVG Export Plug-In . SVG Version: 2.1.0 Build 141)  -->
  <defs>
    <style>
      .st0 {
        fill: #502f90;
        fill-rule: evenodd;
      }
    </style>
  </defs>
  <path class="st0" d="M33.2.5c-2.9.7-6,3.7-8.3,8.1-.7,1.4-1.7,3.8-2,5.2-.1.5-.3,1-.3,1,0,0-.6.3-1.2.5-3.8,1.3-7.5,4-10,7.3-2,2.6-3.5,6.3-4,9.6-.3,2.2-.2,5.6.3,7.7.8,3.7,2.4,6.7,4.8,9.5,2.9,3.3,7.1,5.8,11.6,6.7.9.2,1.7.2,4.3.2s3.3,0,4.3-.2c3.1-.7,6-2,8.4-3.8,9.1-6.8,11.3-19.6,4.8-29.1-1-1.4-3-3.6-4.4-4.6l-1-.7.5-.9c.6-1.2,1.3-2.3,2.4-3.6,3-3.6,4.3-6.1,4.3-8.1s-.2-1.8-.8-2.4c-.6-.7-1.3-1.1-2.2-1.4-1.7-.4-3.4,0-6.1,1.4,0,0-.2-.2-.3-.4-.3-.6-1.1-1.4-1.9-1.7-.8-.3-2.2-.4-3.2-.2h0ZM35.8,1.3c.8.2,1.5.8,1.8,1.4l.3.5-.6.5c-1.6,1.3-3.5,3.4-4.8,5.3l-.6.9-.3-.3c-.5-.5-1.1-.6-1.9-.1-1.9.9-3.6,4.6-4.2,9.1l-.2,1.2-1.1.2c-.6.1-1.3.3-1.4.3h-.3v-.9c.5-6.3,3.2-12.3,6.9-15.9,2.2-2.1,4.4-2.9,6.3-2.4v.2ZM44.6,2.2c1.8.5,2.6,1.9,2.3,3.7-.4,1.7-1.5,3.7-3.9,6.7-2.2,2.8-3.4,5-4.3,8-.2.5-.3,1-.3,1.1s-.4,0-1.1-.3c-.6-.3-1.1-.5-1.1-.6-.3-.3,1.1-4,2.4-6.4,1.5-2.8,1.8-3.9,1.1-4.6-1.1-1.1-3.5.3-5.2,3.1-1,1.7-2.2,4.8-2.5,6.4v.5h-1.5c-.8,0-1.4-.1-1.4-.1,0,0,.8-3.2,1.3-4.5,1.5-3.9,3.4-6.9,6.2-9.6,2.9-2.8,5.8-4,8.1-3.3h0ZM30.9,10.2c.3.3.2.9-.4,2.3-.9,1.9-1.5,3.6-2,5.5l-.4,1.7h-2v-.4c0-1.4,1.1-5.3,1.9-6.8.7-1.4,1.8-2.5,2.5-2.5s.3,0,.4.2ZM39,10.5c.3.4,0,1.1-1.4,3.9-1.2,2.5-1.8,4-2.3,5.7,0,.5-.2.6-.4.5-.2,0-.6-.2-2.2-.5h-.3l.3-1c1-3.8,3-7.2,4.6-8.3.7-.5,1.4-.6,1.6-.2h.1ZM31.9,20.7c3.7.6,6.7,2,8.8,4.2,1.7,1.7,2.7,3.6,3.3,6.2.3,1,.3,1.5.3,3.6s0,2.6-.4,3.9c-.7,2.8-1.8,4.7-3.6,6.5-3.1,3.1-7.7,4.6-14,4.6s-10.4-1.6-12-4.7c-.5-.9-.5-1.1-.5-2.3s0-1.6.2-2.1c.2-.8.2-.9-.1-1.9-1.1-3.9-.6-8.3,1.4-11.7.8-1.3,2.6-3.2,4-4.1,1.7-1.1,3.6-1.8,5.8-2.2,1.3-.2,5-.2,6.7,0h.1Z"/>
  <path class="st0" d="M17.6,30.6c-.3,0-.4.2-.4.4s0,.3.3.2c.6-.2,1.6-.2,2.2,0,.3,0,.8.4,1.1.7s.6.5.7.5c.3,0,.1-.5-.4-.9-.8-.8-2.3-1.1-3.5-.8h0Z"/>
  <path class="st0" d="M29.8,30.6c-.9.3-2.1,1.2-1.9,1.6.1.2.3,0,.7-.2.2-.2.6-.5,1-.7.7-.3,1.1-.3,2.5-.1.5,0,.5-.3,0-.5s-1.6-.2-2.2,0h0Z"/>
  <path class="st0" d="M18.8,35.3c-.7.3-.7.4-.3.7.4.2.7.7.7,1.1s-.2.4-.4.6c-.3.3-.5.4-.9.4h-.5v1.1c0,1.4.4,2.2,1.1,2.5.9.4,1.8,0,2.3-1,.2-.5.3-.9.3-2.2s0-1.7-.3-2.2c-.2-.3-.4-.7-.6-.8-.4-.3-1.1-.4-1.5-.2h0Z"/>
  <path class="st0" d="M30.4,35.3c-.4,0-1,.6-.7.6s.4,0,.6.3c.4.3.5.9.2,1.4-.2.4-.9.7-1.2.6q-.3,0-.3.4c0,.7.2,1.9.5,2.4.6,1.3,2.3,1.3,3,0,.3-.5.3-.7.3-2.3s-.2-2.7-.8-3.1c-.3-.2-1-.3-1.4-.2h-.2Z"/>
  <path class="st0" d="M23.8,41.7c-.9.2-.9.8,0,1l.6.2v.8q0,.8-.4,1c-.5.3-1.2.2-1.7,0-.4-.2-.6,0-.4.2.4.6,1.5.7,2.3.3q.5-.2,1,0c.8.4,2,.3,2.3-.3.2-.3,0-.4-.4-.2-.5.3-1.2.3-1.7,0q-.4-.2-.4-1v-.8l.6-.2c.6-.2.8-.6.4-.9-.4-.2-1.5-.3-2-.2h-.2Z"/>
</svg>