<?xml version="1.0" encoding="UTF-8"?>
<svg id="Layer_2" data-name="Layer 2" xmlns="http://www.w3.org/2000/svg" viewBox="0 0 42.5 56">
  <defs>
    <style>
      .cls-1 {
        fill: #502f90;
      }

      .cls-1, .cls-2, .cls-3, .cls-4 {
        fill-rule: evenodd;
      }

      .cls-2 {
        fill: #fff;
      }

      .cls-3 {
        fill: #962dff;
      }

      .cls-4 {
        fill: #ffc8dd;
      }
    </style>
  </defs>
  <path class="cls-3" d="M26,.1c-3,.7-6,3.7-8.3,8.1-.7,1.4-1.7,3.8-2,5.2-.1.5-.3,1-.3,1s-.6.3-1.2.5c-3.8,1.3-7.5,4-10,7.3-2,2.6-3.5,6.3-4,9.6-.3,2.2-.2,5.6.3,7.7.8,3.7,2.4,6.7,4.9,9.5,2.9,3.3,7.1,5.8,11.6,6.7.9.2,1.7.2,4.3.2s3.3,0,4.3-.2c3.1-.7,6-2,8.4-3.8,9.2-6.8,11.3-19.7,4.8-29.1-1-1.4-3-3.6-4.4-4.6l-1-.7.5-.9c.6-1.2,1.3-2.3,2.4-3.6,3-3.6,4.3-6.1,4.3-8.1s-.2-1.8-.8-2.4c-.6-.7-1.3-1.1-2.2-1.4-1.7-.4-3.4,0-6.1,1.4,0,0-.2-.2-.3-.4-.3-.6-1.1-1.4-1.9-1.7-.8-.3-2.2-.4-3.2-.2ZM28.6.9c.8.2,1.5.8,1.8,1.4l.3.5-.6.5c-1.6,1.3-3.5,3.4-4.8,5.4l-.6.9-.3-.3c-.5-.5-1.1-.6-1.9-.1-1.9.9-3.6,4.6-4.2,9.1l-.2,1.2-1.1.2c-.6.1-1.3.3-1.4.3h-.3c0,0,0-.9,0-.9.5-6.3,3.2-12.3,6.9-15.9,2.2-2.1,4.4-2.9,6.3-2.4ZM37.5,1.9c1.8.5,2.6,1.9,2.3,3.7-.4,1.7-1.5,3.7-3.9,6.7-2.2,2.8-3.4,5-4.3,8-.2.5-.3,1-.3,1.1,0,.1-.4,0-1.1-.3-.6-.3-1.1-.5-1.1-.6-.3-.3,1.1-4,2.4-6.4,1.5-2.8,1.8-3.9,1.1-4.6-1.1-1.1-3.5.3-5.2,3.1-1,1.7-2.2,4.9-2.5,6.4v.5c0,0-1.5,0-1.5,0-.8,0-1.4-.1-1.4-.1,0,0,.8-3.2,1.3-4.5,1.5-3.9,3.4-6.9,6.2-9.6,3-2.8,5.8-4,8.1-3.3ZM23.8,9.9c.3.3.2.9-.4,2.3-.9,1.9-1.5,3.6-2,5.5l-.4,1.7h-1s-1,0-1,0v-.4c0-1.4,1.1-5.3,1.9-6.8.7-1.4,1.8-2.5,2.5-2.5s.3,0,.4.2ZM31.9,10.1c.3.4,0,1.1-1.4,3.9-1.2,2.5-1.8,4-2.3,5.7-.1.5-.2.6-.4.5-.2,0-.6-.2-2.2-.5h-.3c0,0,.3-1,.3-1,1-3.8,3-7.3,4.6-8.3.7-.5,1.4-.6,1.6-.2ZM24.8,20.4c3.7.6,6.7,2,8.8,4.2,1.7,1.7,2.7,3.6,3.3,6.2.3,1,.3,1.5.3,3.6s0,2.6-.4,3.9c-.7,2.8-1.8,4.7-3.6,6.5-3.1,3.1-7.7,4.6-14,4.6s-10.4-1.6-12-4.7c-.5-.9-.5-1.1-.5-2.3,0-.9,0-1.6.2-2.1.2-.8.2-.9-.1-1.9-1.1-3.9-.6-8.3,1.4-11.7.8-1.3,2.6-3.2,4-4.1,1.7-1.1,3.6-1.8,5.8-2.2,1.3-.2,5-.2,6.7,0Z"/>
  <path class="cls-2" d="M28.6.9c.8.2,1.5.8,1.8,1.4l.3.5-.6.5c-1.6,1.3-3.5,3.4-4.8,5.4l-.6.9-.3-.3c-.5-.5-1.1-.6-1.9-.1-1.9.9-3.6,4.6-4.2,9.1l-.2,1.2-1.1.2c-.6.1-1.3.3-1.4.3h-.3c0,0,0-.9,0-.9.5-6.3,3.2-12.3,6.9-15.9,2.2-2.1,4.4-2.9,6.3-2.4ZM37.5,1.9c1.8.5,2.6,1.9,2.3,3.7-.4,1.7-1.5,3.7-3.9,6.7-2.2,2.8-3.4,5-4.3,8-.2.5-.3,1-.3,1.1,0,.1-.4,0-1.1-.3-.6-.3-1.1-.5-1.1-.6-.3-.3,1.1-4,2.4-6.4,1.5-2.8,1.8-3.9,1.1-4.6-1.1-1.1-3.5.3-5.2,3.1-1,1.7-2.2,4.9-2.5,6.4v.5c0,0-1.5,0-1.5,0-.8,0-1.4-.1-1.4-.1,0,0,.8-3.2,1.3-4.5,1.5-3.9,3.4-6.9,6.2-9.6,3-2.8,5.8-4,8.1-3.3ZM23.8,9.9c.3.3.2.9-.4,2.3-.9,1.9-1.5,3.6-2,5.5l-.4,1.7h-1s-1,0-1,0v-.4c0-1.4,1.1-5.3,1.9-6.8.7-1.4,1.8-2.5,2.5-2.5s.3,0,.4.2ZM31.9,10.1c.3.4,0,1.1-1.4,3.9-1.2,2.5-1.8,4-2.3,5.7-.1.5-.2.6-.4.5-.2,0-.6-.2-2.2-.5h-.3c0,0,.3-1,.3-1,1-3.8,3-7.3,4.6-8.3.7-.5,1.4-.6,1.6-.2ZM24.8,20.4c3.7.6,6.7,2,8.8,4.2,1.7,1.7,2.7,3.6,3.3,6.2.3,1,.3,1.5.3,3.6s0,2.6-.4,3.9c-.7,2.8-1.8,4.7-3.6,6.5-3.1,3.1-7.7,4.6-14,4.6s-10.4-1.6-12-4.7c-.5-.9-.5-1.1-.5-2.3,0-.9,0-1.6.2-2.1.2-.8.2-.9-.1-1.9-1.1-3.9-.6-8.3,1.4-11.7.8-1.3,2.6-3.2,4-4.1,1.7-1.1,3.6-1.8,5.8-2.2,1.3-.2,5-.2,6.7,0Z"/>
  <path class="cls-4" d="M23.8,9.9c.3.3.2.9-.4,2.3-.9,1.9-1.5,3.6-2,5.5l-.4,1.7h-1s-1,0-1,0v-.4c0-1.4,1.1-5.3,1.9-6.8.7-1.4,1.8-2.5,2.5-2.5s.3,0,.4.2ZM31.9,10.1c.3.4,0,1.1-1.4,3.9-1.2,2.5-1.8,4-2.3,5.7-.1.5-.2.6-.4.5-.2,0-.6-.2-2.2-.5h-.3c0,0,.3-1,.3-1,1-3.8,3-7.3,4.6-8.3.7-.5,1.4-.6,1.6-.2Z"/>
  <path class="cls-1" d="M10.4,30.3c-.3,0-.4.2-.4.4s0,.3.3.2c.6-.2,1.6-.2,2.2,0,.3,0,.8.4,1.1.7.3.3.6.5.7.5.3,0,.1-.5-.4-.9-.8-.8-2.3-1.1-3.5-.8Z"/>
  <path class="cls-1" d="M22.7,30.2c-.9.3-2.1,1.2-1.9,1.6.1.2.3.1.7-.2.2-.2.6-.5,1-.7.7-.3,1.1-.3,2.5-.1.5,0,.5-.3,0-.5-.5-.2-1.6-.2-2.2,0Z"/>
  <path class="cls-1" d="M11.7,35c-.7.3-.7.4-.3.7.4.2.7.7.7,1.1s-.2.4-.4.6c-.3.3-.5.4-.9.4h-.5s0,1.1,0,1.1c0,1.4.4,2.2,1.1,2.5.9.4,1.8,0,2.3-1,.2-.5.3-.9.3-2.2s0-1.7-.3-2.2c-.2-.3-.4-.7-.6-.8-.4-.3-1.1-.4-1.5-.2Z"/>
  <path class="cls-1" d="M23.3,34.9c-.4,0-1,.6-.7.6.1,0,.4.1.6.3.4.3.5.9.2,1.4-.2.4-.9.7-1.2.6-.3,0-.3,0-.3.4,0,.7.2,1.9.5,2.4.6,1.3,2.3,1.3,3,0,.3-.5.3-.7.3-2.3s-.2-2.7-.8-3.1c-.3-.2-1-.3-1.4-.2Z"/>
  <path class="cls-1" d="M16.7,41.4c-.9.2-.9.8,0,1l.6.2v.8c0,.8,0,.8-.4,1-.5.3-1.2.2-1.7,0-.4-.2-.6-.1-.4.2.4.6,1.5.7,2.3.3.5-.2.5-.2,1,0,.8.4,2,.3,2.3-.3.2-.3,0-.4-.4-.2-.5.3-1.2.3-1.7,0-.4-.2-.4-.2-.4-1v-.8l.6-.2c.6-.2.8-.6.4-.9-.4-.2-1.5-.3-2-.2Z"/>
</svg>