<?xml version="1.0" encoding="UTF-8"?>
<svg id="Layer_3" xmlns="http://www.w3.org/2000/svg" version="1.1" viewBox="0 0 56.7 56.7">
  <!-- Generator: Adobe Illustrator 29.5.1, SVG Export Plug-In . SVG Version: 2.1.0 Build 141)  -->
  <defs>
    <style>
      .st0 {
        fill: #fff;
      }

      .st1 {
        fill: #7759f5;
      }
    </style>
  </defs>
  <circle class="st1" cx="28.4" cy="28.4" r="28"/>
  <path class="st0" d="M15.7,40.5l3.8-10.4h-5.4l6.1-13h12.1s8.3.4,8.2,9.4c0,0,.2,5.6-5.9,8.6l5,5.1h-6.2l-5-5.1,5.2-5s2.8-2.2,2.2-5.2c0,0-.4-3.2-4.2-3.5h-7.8l-2.2,4.7h8.7l-14.6,14.3h0ZM39.5,18.3v-1.7h.6v-.4h-1.6v.4h.6v1.7h.4ZM41.1,18.3v-1.5l.6,1.2h0l.6-1.2v1.5h.4v-2.1h-.5l-.5.9-.5-.9h-.5v2.1h.4Z"/>
</svg>