<?xml version="1.0" encoding="UTF-8"?>
<svg id="Slowmist" xmlns="http://www.w3.org/2000/svg" version="1.1" viewBox="0 0 56.7 56.7">
  <!-- Generator: Adobe Illustrator 29.6.0, SVG Export Plug-In . SVG Version: 2.1.1 Build 207)  -->
  <defs>
    <style>
      .st0 {
        isolation: isolate;
        opacity: .3;
      }

      .st0, .st1 {
        fill: #fff;
      }
    </style>
  </defs>
  <g id="Slowmist1">
    <g id="light2">
      <path class="st1" d="M33.3,42.2c-2.7,3.2-5.9,5.9-9.5,8,0,0-19.9-10.3-19.9-36.8,10.7-.5,18.3-5.3,19.9-6.9.9.9,4,3,8.6,4.6v-3c-3.2-1.1-6.1-2.9-8.6-5.3-1.5,1.5-7.5,7.3-23,8.1-1.5,31.2,23,43,23,43,5.3-2.9,10-6.9,13.6-11.7h-4.1ZM39.2,25.2h-7.2v6.5h7.2v-6.5ZM31.5,32.4h-2.1v1.8h2.1v-1.8ZM36.2,35.6h-3.2v2.9h3.2v-2.9ZM43.9,36.1h-4.7v4.1h4.7v-4.1ZM56,22.3h-5.6v5.1h5.6v-5.1ZM55.5,12.7h-2.6v2.3h2.6v-2.3ZM50.4,14.2h-2.6v2.3h2.6v-2.3ZM50.4,27.9h-3.3v3h3.3v-3ZM48,33.4h-3.5v3.2h3.5v-3.2ZM45.1,8.9h-3.9v3.5h3.9v-3.5ZM37.6,5.8h-3.5v3.1h3.5s0-3.1,0-3.1ZM33.7,11.8h-4.5v4h4.5v-4ZM29.5,13.9h-.3v4h.3v-4ZM36.2,8.7h-.4v4h.4v-4ZM43.9,11.8h-.3v8.8h.3v-8.8ZM53.9,14.5h-.3v8.8h.3s0-8.8,0-8.8ZM53.8,14.7h-4.2v.4h4.2v-.4ZM50.6,23.5h-4.3v.3h4.3v-.3ZM47.7,28.2h-4.3v.3h4.3v-.3ZM42.3,29.5h-4.3v.3h4.3v-.3ZM46.1,36.1h-4.2v.4h4.2v-.4ZM49.9,28.7l-.3-.2,1.2-1.8.3.2-1.1,1.8h-.1ZM31.2,33.1l-.3-.3,1.5-1.5.3.3-1.5,1.5ZM41.8,21.2h-4.2v.3h4.2v-.3ZM34.9,17.6h-4.3v.3h4.3v-.3ZM37.7,14.2h-.4v8.8h.4v-8.8ZM36.2,29h-.4v8.8h.4v-8.8ZM48,28.2h-.4v6.6h.4s0-6.6,0-6.6ZM41.3,12.3h-6.6v6h6.6s0-6,0-6ZM38.3,22.6h-1.7v1.5h1.7v-1.5ZM46.5,19.7h-5v4.4h5v-4.4ZM31,17.6h-5.1v4.7h5.1s0-4.7,0-4.7ZM44.3,27.3h-2.8v2.5h2.8v-2.5Z"/>
      <path class="st0" d="M23.7,50.2V6.5c-1.5,1.5-9.2,6.4-19.9,6.9,0,26.4,19.9,36.8,19.9,36.8Z"/>
    </g>
  </g>
</svg>