<?xml version="1.0" encoding="UTF-8"?>
<svg id="Layer_1" xmlns="http://www.w3.org/2000/svg" version="1.1" xmlns:xlink="http://www.w3.org/1999/xlink" viewBox="0 0 56.7 56.7">
  <!-- Generator: Adobe Illustrator 29.6.0, SVG Export Plug-In . SVG Version: 2.1.1 Build 207)  -->
  <defs>
    <style>
      .st0 {
        fill: url(#linear-gradient);
      }
    </style>
    <linearGradient id="linear-gradient" x1="3.9" y1="54.1" x2="52.8" y2="5.2" gradientTransform="translate(0 58) scale(1 -1)" gradientUnits="userSpaceOnUse">
      <stop offset="0" stop-color="#55fc01"/>
      <stop offset="1" stop-color="#07ecf8"/>
    </linearGradient>
  </defs>
  <g id="Layer_50">
    <path class="st0" d="M53.6,36.8v14c0,1.6-1.3,2.9-2.9,2.9h-14v-5.7h11.1v-11.1h5.8ZM3.1,36.8v14c0,1.6,1.3,2.9,2.9,2.9h14v-5.7h-11.1v-11.1H3.1ZM47.9,19.9v-11.1h-11.1V3.1h14c1.6,0,2.9,1.3,2.9,2.9v14h-5.8ZM8.8,19.9v-11.1h11.1V3.1H5.9c-1.6,0-2.9,1.3-2.9,2.9v14h5.8ZM56,25.5H.7v5.7h55.3v-5.7Z"/>
  </g>
</svg>