<?xml version="1.0" encoding="UTF-8"?>
<svg id="Layer_1" xmlns="http://www.w3.org/2000/svg" version="1.1" xmlns:xlink="http://www.w3.org/1999/xlink" viewBox="0 0 56.7 56.7">
  <!-- Generator: Adobe Illustrator 29.6.0, SVG Export Plug-In . SVG Version: 2.1.1 Build 207)  -->
  <defs>
    <style>
      .st0 {
        fill: #fff;
      }

      .st1 {
        fill: none;
      }

      .st2 {
        fill: #999;
      }

      .st3 {
        clip-path: url(#clippath);
      }
    </style>
    <clipPath id="clippath">
      <rect class="st1" x="3.5" y="3" width="50" height="50"/>
    </clipPath>
  </defs>
  <g class="st3">
    <path class="st2" d="M33.5,4.9l1.3,3.2c2.6,6.1,7.5,11.1,13.6,13.6l3.2,1.3c.8.4,1.4.8,2,1.4-1.5-11.2-10.4-20-21.5-21.5.6.5,1.1,1.2,1.4,1.9h0ZM5.5,23.1l3.2-1.3c6.1-2.6,11.1-7.5,13.6-13.6l1.3-3.2c.4-.8.8-1.4,1.4-2C13.8,4.5,5,13.3,3.5,24.5c.5-.6,1.2-1.1,1.9-1.4h0ZM51.6,32.9l-3.2,1.3c-6.1,2.6-11.1,7.5-13.6,13.6l-1.3,3.1c-.4.8-.8,1.4-1.4,2,11.2-1.5,20-10.4,21.5-21.5-.5.6-1.2,1.2-1.9,1.4h0,0ZM23.6,51l-1.3-3.1c-2.6-6.1-7.5-11.1-13.6-13.6l-3.2-1.3c-.8-.4-1.4-.8-2-1.4,1.5,11.2,10.4,20,21.5,21.5-.6-.5-1.1-1.2-1.4-2h0Z"/>
  </g>
  <path class="st0" d="M17.2,25.6l1.5-.6c3.1-1.3,5.4-3.6,6.7-6.7l.6-1.5c.9-2.1,4-2.1,4.9,0l.6,1.5c1.3,3.1,3.6,5.4,6.7,6.7l1.5.6c2.1.9,2.1,4,0,4.9l-1.5.6c-3.1,1.3-5.4,3.6-6.7,6.7l-.6,1.5c-.9,2.1-4,2.1-4.9,0l-.6-1.5c-1.3-3.1-3.6-5.4-6.7-6.7l-1.5-.6c-2.1-.9-2.1-4,0-4.9Z"/>
</svg>