<?xml version="1.0" encoding="utf-8"?>
<!-- Generator: Adobe Illustrator 25.0.1, SVG Export Plug-In . SVG Version: 6.00 Build 0)  -->
<svg version="1.1" id="Layer_1" xmlns="http://www.w3.org/2000/svg" xmlns:xlink="http://www.w3.org/1999/xlink" x="0px" y="0px"
	 viewBox="0 0 56.7 56.7" style="enable-background:new 0 0 56.7 56.7;" xml:space="preserve">
<style type="text/css">
	.st0{fill:#DE4126;}
</style>
<path class="st0" d="M47.8,15.1l-5.2-3L29.5,4.5c-0.9-0.5-2-0.5-2.9,0L8.2,15.1c-0.9,0.5-1.5,1.5-1.5,2.6l0,21.1
	c0,1.1,0.6,2,1.5,2.6l18.3,10.6c0.9,0.5,2,0.5,2.9,0l18.3-10.5c0.9-0.5,1.5-1.5,1.5-2.6V17.6C49.2,16.6,48.7,15.6,47.8,15.1
	 M42.5,36.6L28,45l-7.8-4.5l2.9-1.7c3.1-1.8,4.9-5,4.9-8.6v-2l-14.5,8.4h0V19.8L28,11.4l7.8,4.5l-2.9,1.7c-3.1,1.8-4.9,5-4.9,8.6v2
	l14.5-8.4V36.6z"/>
</svg>
