<?xml version="1.0" encoding="UTF-8"?>
<svg id="Layer_1" xmlns="http://www.w3.org/2000/svg" version="1.1" xmlns:xlink="http://www.w3.org/1999/xlink" viewBox="0 0 56.7 56.7">
  <!-- Generator: Adobe Illustrator 29.3.1, SVG Export Plug-In . SVG Version: 2.1.0 Build 151)  -->
  <defs>
    <style>
      .st0 {
        fill: #fff;
      }
    </style>
  </defs>
  <g id="Subquery">
    <path class="st0" d="M39,35.4l11,11-3.7,3.7-11-11c-1.1-1.1-2.4-.7-2.8-.5-.4.2-1.6.8-1.6,2.4v15.5h-5.2v-15.5c0-1.6-1.2-2.2-1.6-2.4s-1.7-.6-2.8.5l-11,11-3.7-3.7,11-11,3.9-3.9c1.8-1.8,4.2-2.8,6.7-2.8s4.9,1,6.7,2.8l3.9,3.9h.2ZM46.5,25.8c-2,0-3.8-1.2-4.6-3-.8-1.9-.4-3.9,1-5.4l7-7-3.7-3.7-6.2,6.2c-.5.5-1,.8-1.5,1.3-1.4.8-2.9.9-4.5.3-2-.8-3.2-2.6-3.2-4.8V.4h-5.2v9.3c0,2.2-1.2,3.9-3.2,4.8-1.5.6-3.1.5-4.4-.2-.5-.4-1.1-.8-1.6-1.3l-6.2-6.2-3.7,3.7,6.6,6.6c1.5,1.5,1.9,3.6,1.1,5.6-.8,2-2.6,3.2-4.8,3.2H.4v5.2h9.3c4.2,0,7.9-2.5,9.5-6.3.5-1.1.7-2.2.7-3.3,2.7,1.1,5.6,1.7,8.4,1.7s5.5-.5,8.1-1.6c0,1.1.3,2.2.7,3.3,1.6,3.8,5.1,6.2,9.3,6.2h9.9v-5.2h-9.9,0Z"/>
  </g>
</svg>