<?xml version="1.0" encoding="utf-8"?>
<!-- Generator: Adobe Illustrator 25.0.1, SVG Export Plug-In . SVG Version: 6.00 Build 0)  -->
<svg version="1.1" id="Layer_1" xmlns="http://www.w3.org/2000/svg" xmlns:xlink="http://www.w3.org/1999/xlink" x="0px" y="0px"
	 viewBox="0 0 56.7 56.7" style="enable-background:new 0 0 56.7 56.7;" xml:space="preserve">
<style type="text/css">
	.st0{fill:#D74F96;}
	.st1{fill-rule:evenodd;clip-rule:evenodd;fill:#FFFFFF;}
</style>
<g id="Layer_15">
	<g id="Layer_x0020_1_3_">
		<path class="st0" d="M48.7,56.7H8c-4.4,0-8-3.6-8-8V8c0-4.4,3.6-8,8-8h40.7c4.4,0,8,3.6,8,8v40.7C56.7,53.1,53.1,56.7,48.7,56.7z"
			/>
		<path class="st1" d="M12.3,34.7l-4.6,2.1l3.5-4.1L7,35.4l2.9-3.7l2.3-7.6l9.2-8.1l18.7,7.3l4.4,2.4l2.4,0.4l1.4-1.1l-0.6-2.2
			L45.2,20l4.1-4.7l-0.7,3.1l-2.1,1.5l1.8,2l1.2,3.4l-2.2,2.2L44,27.4c0,0,1.2,2.5,0.7,4.6l1.8,2l1.4,4.4l0.1,2.9h-2.5
			c0,0-0.1-1.7,0.9-2.2l-0.8-1.8L44.2,36l-3.8-1l-2.9-2.1c0,0-0.1-3.3-1-4.6c0,0,0.6,3.5,0.1,4.2l-8.3-0.4l-0.1-1.4l-0.6,1.5
			l-3.3,2.4l2,2l1.8-2L30,35l-1,1.6h-0.9l-1.3,1.8l-5.5-1.7L20.8,34l1.4-2.8c0,0-1-3.2-0.8-4.6c0,0-0.6,2.8,0.1,4.4L19,30.7
			l-2.8-2.4h-1.7l1.6,0.5l2.5,2.6l1.2,2c0,0,0.1,0.6,0,0.9l-0.7,0.1l0.1,1l-0.8,1.1l-2.7-1.1l-1.8,0.3L12.3,34.7L12.3,34.7z"/>
	</g>
</g>
</svg>
