<?xml version="1.0" encoding="UTF-8"?>
<svg id="tokentails" xmlns="http://www.w3.org/2000/svg" version="1.1" viewBox="0 0 56.7 56.7">
  <!-- Generator: Adobe Illustrator 29.6.0, SVG Export Plug-In . SVG Version: 2.1.1 Build 207)  -->
  <defs>
    <style>
      .st0 {
        fill: #bf3063;
      }

      .st1 {
        fill: #fff;
      }

      .st2 {
        fill: #f59b33;
      }

      .st3 {
        fill: #a8b0b9;
      }

      .st4 {
        fill: #9e213b;
      }

      .st5 {
        fill: #837c97;
      }

      .st6 {
        fill: #da712b;
      }

      .st7 {
        fill: #e6eddb;
      }

      .st8 {
        fill: #abb2bb;
      }

      .st9 {
        fill: #fec600;
      }

      .st10 {
        fill: #ffed7a;
      }

      .st11 {
        fill: #f43974;
      }
    </style>
  </defs>
  <polygon class="st1" points="9.8 3 9.8 24.5 7 27.3 7 29.3 8.8 31.1 13.2 35.5 13.2 39.2 14 47 14 55.8 42.6 55.8 42.6 37.7 46.1 34.2 48.4 31.5 49.2 30.1 49.2 28 47.5 25.2 47.5 3.1 41.9 3.1 36.3 9.6 21.1 9.8 13.9 3.1 9.8 3"/>
  <g>
    <g>
      <path class="st8" d="M49.2,25.9h-4.8V5.7h4.8v20.1h0ZM43.1,22.7h1.3V7.4h-1.3v15.3ZM40.6,18h3.8v-9.1h-3.8v9.1ZM40.6,10.2h-1.5v6.2h1.5v-6.2Z"/>
      <path d="M41.9,8.9h2.3v10.6h-2.3v-10.6ZM40.6,17.9h1.3v-7.7h-1.3v7.7ZM40.6,11.5h-1.5v4.9h1.5v-4.9ZM37.7,15h1.4v-2.9h-1.4v2.9Z"/>
      <path class="st0" d="M40.6,11.7h1.3v4.7h-1.3v-4.7ZM40.6,13.1h-1.5v1.8h1.5v-1.8ZM41.9,10.4h1.3v9.1h-1.3v-9.1ZM43.1,19.5h1.1V7.4h-1.1v12.1Z"/>
      <rect class="st11" x="40.6" y="12.5" width="1.3" height="3.9"/>
    </g>
    <g>
      <path class="st8" d="M7.5,5.7h4.8v20.1h-4.8V5.7ZM13.6,7.4h-1.3v15.3h1.3V7.4ZM16.1,8.8h-3.8v9.1h3.8v-9.1ZM16.1,16.4h1.5v-6.2h-1.5v6.2Z"/>
      <path d="M14.8,19.5h-2.3v-10.6h2.3v10.6ZM16.1,10.2h-1.3v7.7h1.3v-7.7ZM16.1,16.4h1.5v-4.9h-1.5v4.9ZM19,12.1h-1.4v2.9h1.4v-2.9Z"/>
      <rect class="st0" x="14.8" y="11.7" width="1.3" height="4.7"/>
      <rect class="st0" x="16.1" y="13" width="1.5" height="1.8"/>
      <rect class="st0" x="13.6" y="10.4" width="1.3" height="9.1"/>
      <rect x="12.5" y="7.4" width="1.1" height="12.1"/>
      <rect class="st11" x="14.8" y="12.5" width="1.3" height="3.9"/>
    </g>
    <path class="st3" d="M24,12h-2.7v-1.8h2.7v1.8ZM35.4,10.2h-2.7v1.8h2.7v-1.8Z"/>
    <path d="M45.7.8h3.6v23.6h-3.6V.8ZM42.5,4h-4.9v1.8h4.9v-1.8ZM40.7,7.4h-3.1v-1.7h3.1v1.7ZM39.1,9h-4.2v-2.3h4.2v2.3ZM37.3,10.6h-9.2v-2.1h9.2v2.1ZM45.7,25.9h3.6v-1.4h-3.6v1.4ZM46.9,27.6h2.4v-1.8h-2.4v1.8ZM49,30.4h1.7v-4.3h-1.7v4.3ZM51.9,29h-1.3v1.4h1.3v-1.4ZM41.3,4.4h4.4V.8h-4.4v3.6ZM11,24.5h-3.6V.8h3.6v23.6h0ZM14.2,5.7h4.9v-1.8h-4.9s0,1.8,0,1.8ZM16,5.7h3.1v1.7h-3.1v-1.7ZM17.6,6.8h4.2v2.3h-4.2s0-2.3,0-2.3ZM19.4,8.5h9.2v2.1h-9.2s0-2.1,0-2.1ZM11,24.5h-3.6v1.4h3.6v-1.4ZM9.8,25.9h-2.4v1.8h2.4v-1.8ZM7.7,26.1h-1.7v4.3h1.7v-4.3ZM4.8,30.4h1.3v-1.4h-1.3v1.4ZM15.4.8h-4.4v3.6h4.4V.8Z"/>
    <g>
      <rect x="26" y="27.7" width="4.8" height="1.6"/>
      <rect x="27.2" y="29.3" width="2.3" height="2.7"/>
      <rect x="26" y="32" width="4.8" height="4.6"/>
      <rect x="23.3" y="36.5" width="10.1" height="1.5"/>
      <rect x="21.8" y="37.8" width="13.2" height="1.6"/>
      <path d="M22,30.7h1.3v1.1s.1,1,1.1,1.3h1.8v1.3h-3v-1.1h-1.2v-2.5h0ZM34.6,30.7h-1.3v1.1s0,1-1.1,1.3h-1.8v1.3h3v-1.1h1.2v-2.5h0Z"/>
      <polygon class="st0" points="30 34.3 28.3 32.6 26.9 34.3 26.9 36.4 30 36.4 30 34.3"/>
    </g>
    <g>
      <g>
        <path d="M21.6,27.8h-4v-1.3h4v1.3ZM21.6,21.1h-4v1.3h4v-1.3ZM16.2,22.4v4h6.7v-4h-6.7Z"/>
        <path class="st0" d="M21.6,25.3v1.1h-1.1v-1.1h1.1ZM17.6,25.3v1.1h1.1v-1.1h-1.1Z"/>
        <circle class="st0" cx="20.4" cy="23.4" r="1.1"/>
      </g>
      <g>
        <path d="M39.1,27.8h-4v-1.3h4v1.3ZM39.1,21.1h-4v1.3h4v-1.3ZM33.7,22.4v4h6.7v-4h-6.7Z"/>
        <path class="st0" d="M39.1,25.3v1.1h-1.1v-1.1h1.1ZM35,25.3v1.1h1.1v-1.1h-1.1Z"/>
        <circle class="st0" cx="37.9" cy="23.4" r="1.1"/>
      </g>
    </g>
    <path class="st0" d="M21.6,25.3v1.1h-1.1v-1.1h1.1ZM17.6,25.3v1.1h1.1v-1.1h-1.1Z"/>
    <rect class="st0" x="7.5" y=".8" width="1.4" height="23.6"/>
    <rect class="st0" x="47.8" y=".8" width="1.4" height="23.6"/>
    <path class="st0" d="M16.2.8v1.4H7.5V.8h8.7ZM17.6,4v-1.7h-2.3v1.7h2.3ZM19.1,4v1.5h-1.5v-1.5h1.5ZM19.1,6.9v-1.4h1.8v1.4h-1.8ZM22.3,6.5v.9h-1.4v-.9h1.4ZM20.9,8.8v-1.4h14.9v1.4h-14.9ZM49.2.8v1.4h-8.7V.8s8.7,0,8.7,0ZM41.4,4v-1.7h-2.3v1.7h2.3ZM39.1,4v1.5h-1.5v-1.5h1.5ZM35.8,6.9v-1.4h1.8v1.4h-1.8ZM35.8,6.5v.9h-1.4v-.9h1.4ZM20.9,8.8v-1.4h14.9v1.4h-14.9Z"/>
    <g>
      <path class="st7" d="M15.2,39.4h2.5v16h-2.5s0-16,0-16ZM18.9,33.6h-3.7v1.5h3.7v-1.5ZM17.5,35.1h2.9v1.4h-2.9v-1.4ZM23.3,38h-2.9v-1.5h2.9v1.5Z"/>
      <path d="M36.7,41h-18.7v-1.6h18.7v1.6ZM19.5,37.9h-6v1.5h6v-1.5ZM16.6,36.4h-5.5v1.4h5.5v-1.4ZM15.3,34.9h-4.2v1.5h4.2v-1.5ZM14,33.4h-5.1v1.5h5.1v-1.5ZM12.5,31h-5.1v2.4h5.1v-2.4Z"/>
      <rect class="st5" x="15.2" y="39.3" width=".9" height="16.4"/>
      <rect class="st5" x="16.1" y="39.4" width="1.5" height="1.3"/>
      <rect x="13.4" y="39.4" width="1.7" height="16.4"/>
      <rect x="13.4" y="39.4" width="1.7" height="16.4"/>
      <path class="st0" d="M12.3,37.7h1.2v9.9h-1.2s0-9.9,0-9.9ZM12.3,37.7h-1.2v1.3h1.2v-1.3ZM11.1,36.2h-1.2v-1.3h1.2v1.3ZM8.9,34.9h-1.3v-1.5h1.3v1.5Z"/>
      <path class="st8" d="M19,42h-2.9v-1.3h2.9v1.3ZM37.7,38h-18.7v1.6h18.7v-1.6ZM20.4,38h-5.6v-1.5h5.6v1.5ZM17.6,36.5h-4v-1.4h4v1.4ZM16.2,35.1h-3.8v-1.5h3.8v1.5ZM15,33.6h-5.1v-1.5h5.1v1.5ZM13.5,32.1h-5.7v-2.4h5.7v2.4Z"/>
      <path d="M36.7,40.7h-19.1v-1.3h19.1v1.3ZM19.5,37.9h-6v1.5h6v-1.5ZM16.6,36.4h-5.5v1.4h5.5v-1.4ZM15.3,34.9h-4.2v1.5h4.2v-1.5ZM14,33.4h-5.1v1.5h5.1v-1.5ZM9.8,30.1h-2.4v3.3h2.4v-3.3ZM9.8,30.1h-2.4v3.3h2.4v-3.3ZM9.8,31.6h1.1v1.9h-1.1v-1.9Z"/>
    </g>
    <g>
      <path class="st7" d="M41.5,55.3h-2.5v-16h2.5v16ZM37.8,35.1h3.7v-1.5h-3.7v1.5ZM39.2,36.5h-2.9v-1.4h2.9v1.4ZM33.4,36.5h2.9v1.5h-2.9v-1.5Z"/>
      <path d="M20,39.4h18.7v1.6h-18.7v-1.6ZM37.2,39.4h6v-1.5h-6v1.5ZM40.1,37.9h5.5v-1.4h-5.5v1.4ZM41.4,36.4h4.2v-1.5h-4.2v1.5ZM42.7,34.9h5.1v-1.5h-5.1v1.5ZM44.2,33.4h5.1v-2.4h-5.1v2.4Z"/>
      <rect class="st5" x="40.6" y="39.4" width=".9" height="16.4"/>
      <rect class="st5" x="39.1" y="39.4" width="1.5" height="1.3"/>
      <rect x="41.5" y="39.3" width="1.7" height="16.4"/>
      <rect x="41.5" y="39.3" width="1.7" height="16.4"/>
      <path class="st0" d="M44.4,47.6h-1.2v-9.9h1.2v9.9ZM44.4,39h1.2v-1.3h-1.2v1.3ZM45.5,34.9h1.2v1.3h-1.2v-1.3ZM47.8,33.4h1.3v1.5h-1.3v-1.5Z"/>
      <path class="st8" d="M37.7,40.7h2.9v1.3h-2.9v-1.3ZM20,39.6h17.7v-1.6h-17.7v1.6ZM36.2,36.5h5.6v1.5h-5.6v-1.5ZM39.1,35.1h4v1.4h-4v-1.4ZM40.4,33.6h3.8v1.5h-3.8v-1.5ZM41.7,32.1h5.1v1.5h-5.1v-1.5ZM43.2,29.7h5.7v2.4h-5.7v-2.4Z"/>
      <path d="M20,39.4h19.1v1.3h-19.1s0-1.3,0-1.3ZM37.2,39.4h6v-1.5h-6v1.5ZM40.1,37.9h5.5v-1.4h-5.5v1.4ZM41.4,36.4h4.2v-1.5h-4.2v1.5ZM42.7,34.9h5.1v-1.5h-5.1v1.5ZM46.8,33.4h2.4v-3.3h-2.4v3.3ZM46.8,33.4h2.4v-3.3h-2.4v3.3ZM46.8,33.4h-1.1v-1.9h1.1v1.9Z"/>
    </g>
  </g>
  <g>
    <path d="M33.4,55.9h-10v-.5h10v.5ZM38.9,42h-21.2v13.4h21.2v-13.4ZM37.2,41.5h-17.9v-1.2h17.9v1.2Z"/>
    <rect class="st9" x="19.7" y="43.9" width="17" height="7.1"/>
    <rect class="st9" x="23.1" y="39.4" width="10.2" height="4.6"/>
    <rect class="st9" x="24" y="51" width="9" height="3.2"/>
    <g>
      <rect class="st9" x="19.6" y="42.1" width="8.7" height="1.8"/>
      <rect class="st1" x="20.6" y="40.8" width="1.5" height="1.5"/>
      <rect class="st1" x="24.6" y="38" width="1.5" height="1.5"/>
      <rect class="st10" x="26.2" y="37.9" width="2.5" height="1.5"/>
      <rect class="st2" x="24.6" y="39.3" width="1.5" height="1.5"/>
      <path class="st2" d="M21.9,49.6h-1.4v-1.3h1.4v1.3ZM24.7,40.7h-1.4v1.3h1.4v-1.3ZM21.2,44h-.7v4.3h.7v-4.3Z"/>
      <path class="st6" d="M28.4,55.3h-5.1v-1.3h5.1v1.3ZM27.4,52.5h-5.4v1.5h5.4v-1.5ZM24.7,51h-3.6v1.5h3.6v-1.5ZM23.3,49.6h-3.6v1.4h3.6v-1.4ZM20.5,44h-.8v7.1h.8v-7.1ZM22,42.3h-1.4v1.6h1.4v-1.6ZM22,42.3h1.3v-1.3h-1.3v1.3Z"/>
      <path class="st0" d="M25.9,55.3h-1.4v-1.3h1.4v1.3ZM24.6,52.5h-1.3v1.5h1.3v-1.5ZM23.3,51h-1.4v1.5h1.4v-1.5ZM21.9,49.6h-1.4v1.4h1.4v-1.4Z"/>
    </g>
    <g>
      <rect class="st9" x="28.1" y="42.2" width="8.7" height="1.8"/>
      <rect class="st1" x="34.3" y="40.9" width="1.5" height="1.5"/>
      <rect class="st1" x="30.3" y="37.9" width="1.5" height="1.5"/>
      <rect class="st10" x="27.8" y="38" width="2.5" height="1.5"/>
      <rect class="st2" x="30.3" y="39.2" width="1.5" height="1.5"/>
      <path class="st2" d="M34.5,48.3h1.4v1.3h-1.4v-1.3ZM31.8,42h1.4v-1.3h-1.4s0,1.3,0,1.3ZM35.2,48.3h.7v-4.3h-.7v4.3Z"/>
      <path class="st6" d="M28,54h5.1v1.3h-5.1s0-1.3,0-1.3ZM29.1,54h5.4v-1.5h-5.4v1.5ZM31.8,52.5h3.6v-1.5h-3.6s0,1.5,0,1.5ZM33.1,51h3.6v-1.4h-3.6v1.4ZM35.9,51h.8v-7.1h-.8v7.1ZM34.5,44h1.4v-1.6h-1.4v1.6ZM34.5,41h-1.3v1.3h1.3v-1.3Z"/>
      <path class="st0" d="M30.5,54h1.4v1.3h-1.4v-1.3ZM31.8,54h1.3v-1.5h-1.3v1.5ZM33.1,52.5h1.4v-1.5h-1.4v1.5ZM34.5,51h1.4v-1.4h-1.4v1.4Z"/>
    </g>
  </g>
  <rect class="st2" x="26" y="38.9" width="4.6" height="1.1"/>
  <path class="st1" d="M23.3,41h-1.4v-1.6h1.4v1.6ZM34.7,39.3h-1.4v1.6h1.4v-1.6Z"/>
  <path d="M20.6,42.6h-1.6v-2.1h1.6v2.1ZM37.7,40.5h-1.8v2.1h1.8v-2.1ZM24.6,39.4h-2.9v-1.7h2.9v1.7ZM34.9,37.7h-2.9v1.7h2.9v-1.7Z"/>
  <path d="M26.7,45.2c0,.7-.6,1.3-1.3,1.3s-1.3-.6-1.3-1.3.6-1.3,1.3-1.3,1.3.6,1.3,1.3ZM31.3,43.9c-.7,0-1.3.6-1.3,1.3s.6,1.3,1.3,1.3,1.3-.6,1.3-1.3-.6-1.3-1.3-1.3ZM24.5,47.2v2.5l1.1,1.4h5.3l1.2-1.3v-2.6h-1v1.8l-.5.7h-.7l-.4-.5v-2.2h-2.1v2.1l-.3.5h-.8l-.5-.4v-2h-1.3Z"/>
  <path class="st4" d="M28.3,49.4s-.3.8-.9,1v.7h1.8v-.7s-.8-.5-.9-1Z"/>
</svg>