<?xml version="1.0" encoding="UTF-8"?>
<svg id="TraceyAI" xmlns="http://www.w3.org/2000/svg" version="1.1" xmlns:xlink="http://www.w3.org/1999/xlink" viewBox="0 0 56.7 56.7">
  <!-- Generator: Adobe Illustrator 29.6.1, SVG Export Plug-In . SVG Version: 2.1.1 Build 9)  -->
  <defs>
    <style>
      .st0 {
        fill: url(#linear-gradient);
        fill-rule: evenodd;
      }
    </style>
    <linearGradient id="linear-gradient" x1="7.1" y1="41.9" x2="48.8" y2="17.9" gradientTransform="translate(0 58) scale(1 -1)" gradientUnits="userSpaceOnUse">
      <stop offset="0" stop-color="#4417fe"/>
      <stop offset=".8" stop-color="#1b94fe"/>
    </linearGradient>
  </defs>
  <g id="Layer_58">
    <path class="st0" d="M22.6,24.4c0-2.5-2-4.5-4.5-4.5H7.5c-2.5,0-4.5,2-4.5,4.5v6.1c0,2.5,2,4.5,4.5,4.5h9c2.5,0,4.5,2,4.5,4.5v12c0,2.5,2,4.5,4.5,4.5h6.7c2.5,0,4.5-2,4.5-4.5v-13.2c0-2.5-2-4.5-4.5-4.5h-5c-2.5,0-4.5-2-4.5-4.5v-4.9h-.1ZM35.7,5.2c0-2.5-2-4.5-4.5-4.5h-7.3c-2.5,0-4.5,2-4.5,4.5v8.6c0,2.5,2,4.5,4.5,4.5h6.1c2.5,0,4.5,2,4.5,4.5v7.8c0,2.5,2,4.5,4.5,4.5h10.2c2.5,0,4.5-2,4.5-4.5v-8.2c0-2.5-2-4.5-4.5-4.5h-9c-2.5,0-4.5-2-4.5-4.5V5.2Z"/>
  </g>
</svg>