<?xml version="1.0" encoding="UTF-8"?>
<svg id="Layer_9" data-name="Layer 9" xmlns="http://www.w3.org/2000/svg" xmlns:xlink="http://www.w3.org/1999/xlink" viewBox="0 0 56.7 56.7">
  <defs>
    <style>
      .cls-1 {
        fill: url(#linear-gradient-2);
      }

      .cls-2 {
        fill: url(#linear-gradient-4);
      }

      .cls-3 {
        fill: url(#linear-gradient-3);
      }

      .cls-4 {
        fill: url(#linear-gradient);
      }
    </style>
    <linearGradient id="linear-gradient" x1="5.5" y1="38.1" x2="24.5" y2="5.3" gradientUnits="userSpaceOnUse">
      <stop offset=".4" stop-color="#0a0935"/>
      <stop offset="1" stop-color="#272793"/>
    </linearGradient>
    <linearGradient id="linear-gradient-2" x1="47.7" y1="39" x2="25" y2="-.2" gradientUnits="userSpaceOnUse">
      <stop offset="0" stop-color="#64ff01"/>
      <stop offset="1" stop-color="#00b5ca"/>
    </linearGradient>
    <linearGradient id="linear-gradient-3" x1="10.4" y1="21.9" x2="30.6" y2="54.4" gradientUnits="userSpaceOnUse">
      <stop offset=".1" stop-color="#e1fd00"/>
      <stop offset=".7" stop-color="#00b5ca"/>
    </linearGradient>
    <linearGradient id="linear-gradient-4" x1="34.2" y1="48.1" x2="47.4" y2="25.1" gradientUnits="userSpaceOnUse">
      <stop offset=".1" stop-color="#096d99"/>
      <stop offset=".5" stop-color="#113260"/>
      <stop offset=".7" stop-color="#161645"/>
    </linearGradient>
  </defs>
  <path class="cls-4" d="M1.1,34.2L18.4,4.8s1.5-1.7,3.6-.9,3,2.8,3,2.8l2.5,4.1-10.8,19.5s-5.2,5.5-13.9,5.9c0,0-2.4-.2-1.6-2Z"/>
  <path class="cls-1" d="M18.5,4.6s3.5-6.1,12.9-3.7c0,0,2.8.9,4.7,3.3s18,29.7,18,29.7c0,0,1.2,1.9-1.9,1.7s-9-1.6-13.3-6.6c0,0-2.9-3.9-4.8-7.3s-9.6-15.7-9.6-15.7c0,0-1.9-3.7-6-1.4Z"/>
  <path class="cls-3" d="M2.5,22.6l13.5,22.9,3.3,5.2s3.2,6.3,10.7,5.6c0,0,5.5-.3,8.1-4.3,0,0-3,2-5.3-.3,0,0-2.6-4.1-3.9-6.2l-9.9-16.2s-4.3-7.8-15.4-8.2c0,0-1.9-.1-1.1,1.5Z"/>
  <path class="cls-2" d="M55.4,22.7l-17.2,29.4s-2.6,1.6-4.5.1-4.4-6.5-4.4-6.5l11-19.7s6.4-5.6,13.5-5.7c0,0,3.1-.1,1.7,2.3Z"/>
</svg>