<?xml version="1.0" encoding="utf-8"?>
<!-- Generator: Adobe Illustrator 25.0.1, SVG Export Plug-In . SVG Version: 6.00 Build 0)  -->
<svg version="1.1" xmlns="http://www.w3.org/2000/svg" xmlns:xlink="http://www.w3.org/1999/xlink" x="0px" y="0px"
	 viewBox="0 0 56.7 56.7" style="enable-background:new 0 0 56.7 56.7;" xml:space="preserve">
<style type="text/css">
	.st0{display:none;}
	.st1{display:inline;fill:#1C2531;}
	.st2{display:inline;fill:#ED1E6D;}
	.st3{display:inline;}
	.st4{fill:#FFFFFF;}
	.st5{display:inline;fill:#0F0F3F;}
	.st6{fill:#010101;}
	.st7{fill:url(#SVGID_1_);}
	.st8{display:inline;fill:#70CCD6;}
	.st9{fill:#0D1426;}
	.st10{fill:#3E64AF;}
	.st11{display:none;fill:#191B20;}
	.st12{fill:#191B1F;}
	.st13{fill:url(#SVGID_2_);}
	.st14{fill:url(#SVGID_3_);}
	.st15{fill:#D7D7D7;}
</style>
<g id="Layer_21" class="st0">
	<rect x="-6.4" y="-6.1" class="st1" width="70.8" height="69.8"/>
</g>
<g id="Globiance" class="st0">
	<path class="st2" d="M48.7,56.7H8c-4.4,0-8-3.6-8-8V8c0-4.4,3.6-8,8-8h40.7c4.4,0,8,3.6,8,8v40.7C56.7,53.1,53.1,56.7,48.7,56.7z"
		/>
	<g id="BDbpbetif1-Kopie" class="st3">
		<g id="Gruppe">
			<g id="g1">
				<path id="Pfad" class="st4" d="M16.5,32.9c0.4-0.3,0.8-0.6,1.2-0.9c1.3-1,2.4-2.2,3.6-3.4c1.8-2,3.5-4.1,5-6.3
					c0.9-1.3,2-2.4,3.3-3.3c0.3-0.2,0.5-0.3,0.8-0.5c0,0,0.1,0,0.1-0.1c0,0,0,0.1,0.1,0.1c0.8,2.5,1.7,5,2.7,7.5
					c0.7,1.7,1.3,3.3,2.2,5c0.3,0.6,0.6,1.1,0.9,1.7c0,0,0,0.1,0.1,0.1C29.8,32.9,23.1,32.9,16.5,32.9z"/>
			</g>
			<g id="g2">
				<path id="path1" class="st4" d="M32.3,18c0.2,0,0.4-0.1,0.5-0.1c1.6-0.1,3,0.5,4.3,1.3c0.3,0.2,0.6,0.5,0.9,0.7
					c0.3,0.3,0.5,0.6,0.8,1c1.7,2.2,3.4,4.4,5.2,6.4c1.4,1.6,2.8,3.1,4.4,4.5c0.3,0.3,0.7,0.6,1,0.9c0,0,0.1,0.1,0.1,0.1
					c-0.1,0-0.1,0-0.1,0c-3.5,0-7.1,0-10.6,0c-0.1,0-0.2,0-0.2-0.1c-0.4-0.4-0.7-0.9-1-1.4c-0.8-1.3-1.4-2.6-1.9-4
					c-1-2.5-1.9-5-2.8-7.6c-0.2-0.6-0.4-1.2-0.6-1.8C32.3,18.1,32.3,18.1,32.3,18z"/>
			</g>
			<g id="g3">
				<path id="path2" class="st4" d="M13.4,34.7c6.4,0,12.9,0,19.3,0c-0.3,0.2-0.6,0.3-0.8,0.4c-2.4,1.3-4.9,2.5-7.5,3.4
					c-1.2,0.5-2.4,0.9-3.7,1.2c-0.4,0.1-0.9,0.2-1.3,0.3c-0.5,0.1-1,0-1.4-0.2c-0.5-0.2-1-0.5-1.2-1c-0.3-0.5-0.6-1-0.9-1.5
					C15.3,36.3,14.5,35.4,13.4,34.7C13.4,34.7,13.4,34.7,13.4,34.7C13.4,34.7,13.4,34.7,13.4,34.7z"/>
			</g>
			<g id="g4">
				<path id="path3" class="st4" d="M29.9,16.8c-0.2,0.1-0.5,0.2-0.7,0.4c-1.1,0.6-2.1,1.5-3,2.4c-0.8,0.8-1.4,1.7-2.1,2.7
					c-0.9,1.2-1.7,2.3-2.7,3.4c0,0,0,0-0.1,0.1c0.1-0.2,0.2-0.5,0.3-0.7c0.9-2.2,1.6-4.5,2.3-6.8c0.3-1.1,0.6-2.3,0.9-3.4
					c0.2-0.8,0.5-1.6,1-2.3c0.1-0.1,0.2-0.2,0.3-0.3c0.3-0.3,0.7-0.4,1.1-0.1c0.3,0.2,0.5,0.4,0.7,0.7c0.6,0.8,1,1.7,1.4,2.5
					c0.2,0.5,0.4,1.1,0.6,1.6C29.9,16.8,29.9,16.8,29.9,16.8z"/>
			</g>
			<g id="g5">
				<path id="path4" class="st4" d="M17.7,41.6c0.5,0.2,1,0.2,1.6,0.2c0.4,0,0.9-0.1,1.3-0.2c2.3-0.4,4.4-1.3,6.5-2.2
					c0.2-0.1,0.4-0.2,0.5-0.2c-0.2,0.2-0.5,0.4-0.7,0.5c-1,0.8-2,1.8-3,2.7c-0.7,0.6-1.4,1.3-2.1,1.8c-0.3,0.2-0.6,0.4-1,0.6
					c-0.4,0.2-0.8,0.1-1.1-0.1c-0.3-0.2-0.6-0.5-0.8-0.8C18.4,43.3,18,42.5,17.7,41.6C17.7,41.7,17.7,41.7,17.7,41.6z"/>
			</g>
			<g id="g6">
				<path id="path5" class="st4" d="M7.1,34.7c1.3,0.1,2.5,0.3,3.6,0.7c1,0.3,1.9,0.9,2.7,1.6c0.4,0.4,0.7,0.9,1,1.4
					c0.1,0.1,0.1,0.2,0.2,0.4C11.9,37.9,9.5,36.4,7.1,34.7z"/>
			</g>
		</g>
	</g>
</g>
<g id="xswap" class="st0">
	<path class="st5" d="M48.7,56.7H8c-4.4,0-8-3.6-8-8V8c0-4.4,3.6-8,8-8h40.7c4.4,0,8,3.6,8,8v40.7C56.7,53.1,53.1,56.7,48.7,56.7z"
		/>
	<g class="st3">
		<g>
			<g>
				<g>
					<path class="st6" d="M46.8,9.2C46.6,9,46.3,9,45.9,9c-0.2,0-0.4,0-0.8,0.2l-10.3,6.5l-5.3,1.1l-2.1,0.6l1.9,1.7
						c1.3,1.1,2.1,2.3,2.9,3.6c0.4,0.6,0.8,1.5,1.1,2.3c0.8-1.3,2.1-2.5,3.6-3.4l8.2-5.3c0.6-0.4,1.3-0.8,1.5-1.5
						c0.8-0.6,1.1-1.1,1.1-1.7v-2.9c0-0.2,0-0.4-0.2-0.6C47.2,9.4,47.2,9.4,46.8,9.2z"/>
					<path class="st6" d="M32.7,28.6c0-0.2,0-0.4,0-0.6c-0.2-1.5-0.6-2.9-1.5-4.4c-1.1-1.9-2.9-3.6-5.3-5.1L11.8,9.6
						c-0.2-0.2-0.4-0.2-0.6-0.2c-0.2,0-0.4,0-0.8,0.2c-0.2,0-0.4,0.2-0.4,0.4c-0.2,0.2-0.2,0.2-0.2,0.4v2.9c0,0.4,0.2,1.1,0.4,1.5
						c0.4,0.4,0.8,1.1,1.5,1.3l8,5.1c1.7,1.1,2.7,2.3,3.6,3.6c0.8,1.3,1.1,2.5,1.1,3.8c0,0.2,0,0.4,0,0.6c0.2,1.5,0.6,2.9,1.5,4.4
						c1.1,1.9,2.9,3.6,5.3,5.1l14.1,8.8c0.2,0.2,0.4,0.2,0.6,0.2c0.2,0,0.4,0,0.8-0.2c0.2-0.2,0.4-0.2,0.4-0.4
						c0.2-0.2,0.2-0.4,0.2-0.6v-2.9c0-0.4-0.2-1.1-0.4-1.5c-0.4-0.4-0.8-0.8-1.5-1.5l-8-5.1c-1.7-1.1-2.9-2.3-3.6-3.6
						C32.9,31.1,32.7,29.8,32.7,28.6z"/>
					<path class="st6" d="M26.8,38c-1.1-1.1-2.1-2.1-2.7-3.2c-0.4-0.6-0.8-1.5-1.1-2.1c-0.8,1.1-1.9,2.1-3.4,3.2l-8,4.8
						c-0.6,0.4-1.3,0.8-1.5,1.5c-0.2,0.4-0.4,0.8-0.4,1.5v2.9c0,0.2,0,0.4,0.2,0.6c0,0,0.2,0.2,0.4,0.2c0.2,0.2,0.4,0.2,0.8,0.2
						c0.2,0,0.4,0,0.6-0.2l14.9-6.9l2.7-1.3C29.5,39.5,26.8,38,26.8,38z"/>
				</g>
				
					<linearGradient id="SVGID_1_" gradientUnits="userSpaceOnUse" x1="11.2473" y1="47.8682" x2="46.6892" y2="10.9498" gradientTransform="matrix(1 0 0 -1 0 58.4031)">
					<stop  offset="0" style="stop-color:#70CDDD"/>
					<stop  offset="1" style="stop-color:#B9539F"/>
				</linearGradient>
				<path class="st7" d="M29.7,16.8l0.2-0.2L44,7.7c0.4-0.4,1.1-0.4,1.7-0.6c0.6,0,1.1,0,1.7,0.4c0.6,0.2,1.1,0.6,1.3,1.1l0,0
					c0.4,0.4,0.4,1.1,0.4,1.7v2.9c0,0.8-0.2,1.7-0.8,2.5c-0.4,0.6-1.3,1.5-2.1,1.9l-8,5.1c-1.5,0.8-2.3,1.9-2.9,2.9
					c-0.4,0.6-0.6,1.5-0.8,2.1c0,0.4,0,0.8,0,1.3c0,0.6,0.4,1.5,0.8,2.1c0.6,1.1,1.7,2.1,2.9,2.9l8,5.1c0.8,0.6,1.7,1.3,2.1,1.9
					c0.4,0.8,0.8,1.7,0.8,2.5v2.9c0,0.6-0.2,1.3-0.4,1.7l0,0c-0.2,0.4-0.8,0.8-1.3,1.1c-0.6,0.2-1.1,0.4-1.7,0.4
					c-0.6,0-1.1-0.2-1.7-0.4l-14.1-8.8c-2.7-1.7-4.6-3.6-5.9-5.7c-0.4-0.6-0.8-1.5-1.1-2.1c-0.8,1.3-1.9,2.3-3.4,3.4l-8,4.8
					c-0.6,0.4-1.3,0.8-1.5,1.5c-0.2,0.4-0.4,0.8-0.4,1.5v2.9c0,0.2,0,0.4,0.2,0.6c0,0,0.2,0.2,0.4,0.2c0.2,0.2,0.4,0.2,0.8,0.2
					c0.2,0,0.4,0,0.6-0.2l13.3-8.4c0.4,0.4,1.1,1.1,1.5,1.5l-13.9,8.6c-0.4,0.2-1.1,0.4-1.7,0.4s-1.1,0-1.7-0.4
					C8.7,49,8.2,48.6,8,48.1l0,0c-0.4-0.4-0.4-1.1-0.4-1.7v-2.9c0-0.8,0.2-1.7,0.8-2.5c0.4-0.8,1.3-1.5,2.1-1.9l8-5.1
					c1.3-0.8,2.3-1.9,2.9-2.9c0.4-0.6,0.6-1.5,0.8-2.1c0-0.4,0-0.8,0-1.3c0-0.6-0.4-1.5-0.8-2.1c-0.6-1.1-1.7-2.1-2.9-2.9l-8-4.6
					c-0.8-0.6-1.5-1.3-2.1-2.1c-0.4-0.6-0.6-1.5-0.6-2.5v-2.9c0-0.6,0.2-1.3,0.4-1.7l0,0c0.2-0.4,0.6-0.8,1.3-1.1s1.1-0.4,1.7-0.4
					c0.6,0,1.1,0.2,1.7,0.6L27,16.8c2.5,1.5,4.6,3.4,5.9,5.5c0.4,0.6,0.8,1.5,1.1,2.1c0.8-1.1,1.9-2.1,3.4-3.2l8-5.1
					c0.6-0.4,1.3-0.8,1.5-1.5c0.2-0.4,0.4-0.8,0.4-1.5v-2.7c0-0.2,0-0.4-0.2-0.6c0,0-0.2-0.2-0.4-0.2c-0.2-0.2-0.4-0.2-0.8-0.2
					c-0.2,0-0.4,0-0.6,0.2l-13.7,8.6C30.8,17.6,30.3,17.2,29.7,16.8L29.7,16.8z M24.2,29.2c0.2,1.5,0.6,2.9,1.5,4.4
					c1.1,1.9,2.9,3.6,5.3,5.1l14.1,8.8c0.2,0.2,0.4,0.2,0.6,0.2c0.2,0,0.4,0,0.8-0.2c0.2-0.2,0.4-0.2,0.4-0.4
					c0.2-0.2,0.2-0.4,0.2-0.6v-2.9c0-0.4-0.2-1.1-0.4-1.5c-0.4-0.4-0.8-0.8-1.5-1.5l-8-5.1c-1.7-1.1-2.9-2.3-3.6-3.6
					c-0.8-0.8-1.1-2.1-1.1-3.4c0-0.2,0-0.4,0-0.6c-0.2-1.5-0.6-2.9-1.5-4.4c-1.1-1.9-2.9-3.6-5.3-5.1L11.8,9.6
					c-0.2-0.2-0.4-0.2-0.6-0.2c-0.2,0-0.4,0-0.8,0.2c-0.2,0-0.4,0.2-0.4,0.4c-0.2,0.2-0.2,0.2-0.2,0.4v2.9c0,0.4,0.2,1.1,0.4,1.5
					c0.4,0.4,0.8,1.1,1.5,1.3l8,5.1c1.7,1.1,2.7,2.3,3.6,3.6c0.8,1.3,1.1,2.5,1.1,3.8C24.2,28.8,24.2,29,24.2,29.2L24.2,29.2z"/>
			</g>
		</g>
	</g>
</g>
<g id="fathom" class="st0">
	<path class="st8" d="M48.7,56.7H8c-4.4,0-8-3.6-8-8V8c0-4.4,3.6-8,8-8h40.7c4.4,0,8,3.6,8,8v40.7C56.7,53.1,53.1,56.7,48.7,56.7z"
		/>
	<g class="st3">
		<rect x="8.5" y="7.1" class="st9" width="39.6" height="8.7"/>
		<g>
			<path class="st9" d="M8.5,31.5c0-2.9,0-5.8,0-8.7c13.7,6.9,25.9-6.9,39.6,0c0,2.9,0,5.8,0,8.7C34.5,24.7,22.2,38.4,8.5,31.5z"/>
		</g>
		<circle class="st9" cx="14.3" cy="43.8" r="5.8"/>
	</g>
</g>
<g id="Layer_5" class="st0">
	<g class="st3">
		<path class="st10" d="M7.1,42.5c0,0.9,0.2,1.9,0.5,2.7c0.4,0.9,0.9,1.7,1.6,2.3c0.7,0.7,1.5,1.2,2.3,1.5c0.9,0.4,1.8,0.5,2.7,0.5
			h28.2c1.9,0,3.7-0.8,5-2.1c1.3-1.3,2.1-3.1,2.1-5V14.2c0-1.9-0.8-3.7-2.1-5c-1.3-1.3-3.2-2.1-5-2.1H14.3c-1.9,0-3.7,0.8-5,2.1
			c-1.3,1.3-2.1,3.2-2.1,5L7.1,42.5z M44.8,14.2v28.2c0,0.6-0.3,1.2-0.7,1.7c-0.4,0.4-1,0.7-1.7,0.7H14.3c-0.3,0-0.6-0.1-0.9-0.2
			c-0.3-0.1-0.5-0.3-0.8-0.5c-0.2-0.2-0.4-0.5-0.5-0.8c-0.1-0.3-0.2-0.6-0.2-0.9V14.2c0-0.6,0.2-1.2,0.7-1.7c0.4-0.4,1-0.7,1.7-0.7
			h28.2c0.6,0,1.2,0.3,1.6,0.7C44.6,13,44.8,13.6,44.8,14.2z"/>
		<path class="st10" d="M17.7,24l6.7,4.4l-6.7,4.4v4.8L28,30.9v-5.1l-10.3-6.6V24z"/>
		<path class="st10" d="M29.4,24l6.7,4.4l-6.7,4.4v4.8l10.3-6.6v-5.1l-10.3-6.6V24z"/>
	</g>
</g>
<g id="Layer_6" class="st0">
	<g class="st3">
		<path class="st11" d="M7.1,28.3c0-6.2,5.2-11.2,11.6-11.2h19.4c6.4,0,11.6,5,11.6,11.2l0,0c0,6.2-5.2,11.2-11.6,11.2H18.6
			C12.3,39.6,7.1,34.6,7.1,28.3L7.1,28.3z"/>
		<circle class="st12" cx="28.3" cy="28.3" r="21.3"/>
		
			<linearGradient id="SVGID_2_" gradientUnits="userSpaceOnUse" x1="40.9462" y1="33.3101" x2="15.7467" y2="26.8033" gradientTransform="matrix(1 0 0 -1 0 58.4031)">
			<stop  offset="0" style="stop-color:#7DC790"/>
			<stop  offset="1" style="stop-color:#F8ED33"/>
		</linearGradient>
		<path class="st13" d="M14.9,28.3c0-5.5,4.6-10,10.2-10h6.5c5.6,0,10.2,4.5,10.2,10l0,0c0,5.5-4.6,10-10.2,10h-6.5
			C19.5,38.4,14.9,33.9,14.9,28.3L14.9,28.3z"/>
	</g>
</g>
<g id="Layer_7">
	<g>
		
			<linearGradient id="SVGID_3_" gradientUnits="userSpaceOnUse" x1="36.555" y1="1013.1719" x2="16.9956" y2="1031.2205" gradientTransform="matrix(1 0 0 1 0 -992.4)">
			<stop  offset="0" style="stop-color:#6860AA"/>
			<stop  offset="1" style="stop-color:#5F74B8"/>
		</linearGradient>
		<path class="st14" d="M28.3,7.1L28.3,7.1c11.7,0,21.3,9.5,21.3,21.3l0,0c0,11.7-9.5,21.3-21.3,21.3l0,0
			c-11.7,0-21.3-9.5-21.3-21.3l0,0C7.1,16.6,16.6,7.1,28.3,7.1z"/>
		<g>
			<path id="Path_92_00000049182687644418540370000011300672245660524217_" class="st4" d="M46.7,17.7L39.4,25l-0.4,0.4l0.7,0.7
				l0.4-0.4l7.1-7.1C47.1,18.3,46.9,18,46.7,17.7L46.7,17.7z"/>
			<path id="Path_93_00000054244528422561519020000005330612572396667778_" class="st4" d="M45.8,16.2L37.9,24l-0.3,0.3l0.7,0.7
				l0.4-0.4l7.7-7.7C46.1,16.7,46,16.4,45.8,16.2L45.8,16.2z"/>
			<path id="Path_94_00000098926657985304337580000015390916663676337830_" class="st4" d="M19.1,42.5l-6.7-0.1
				c0.2,0.2,0.3,0.4,0.5,0.6l9.4,0v-0.5L19.1,42.5L19.1,42.5z"/>
			<path id="Path_95_00000046318147378292337360000009591732871269456306_" class="st15" d="M23.1,22.6c0,0,2-2,3-1.5
				c0-0.9,0.4-1.8,1-2.5l3.6-3.6c1.5-1.6,4.1-1.6,5.6,0c0,0,0,0,0,0l3,3c1.6,1.6,1.6,4.1,0,5.6L26.7,36.3c-1.6,1.6-4.1,1.6-5.6,0
				l-3-3c-1.6-1.6-1.6-4.1,0-5.6L23.1,22.6L23.1,22.6z"/>
			<path id="Path_96_00000170276157307201310490000011653119909289724077_" class="st4" d="M31.9,16.3c1.6-1.6,4.1-1.6,5.6,0
				l3.3,3.3c1.6,1.6,1.6,4.1,0,5.6L28.2,37.8c-1.6,1.6-4.1,1.6-5.6,0l-3.3-3.3c-1.6-1.6-1.6-4.1,0-5.6L31.9,16.3z"/>
			<path id="Path_97_00000111887192808174199640000010208979585937065642_" class="st15" d="M28.1,39.8c0-1.5-1.2-2.7-2.7-2.7
				c0,0,0,0,0,0c-1.5,0-2.7,1.2-2.7,2.7c0,0,0,0,0,0c0,1.5,1.2,2.7,2.7,2.7c0,0,0,0,0,0C26.9,42.5,28.1,41.3,28.1,39.8
				C28.1,39.8,28.1,39.8,28.1,39.8L28.1,39.8z"/>
			<path id="Path_98_00000159470316325142481960000009368546518287510411_" class="st4" d="M23.6,39.8c0-1,0.8-1.7,1.8-1.8
				c1,0,1.7,0.8,1.8,1.8c0,1-0.8,1.7-1.8,1.8C24.4,41.5,23.6,40.7,23.6,39.8C23.6,39.8,23.6,39.8,23.6,39.8z"/>
			<path id="Path_99_00000055671906493169937090000004336400904888301440_" class="st4" d="M23.6,42h3v-0.5h-3V42z"/>
			<path id="Path_100_00000134930574113043157490000013749949586053729718_" class="st4" d="M16.9,42h5.5v-0.5h-5.5V42z"/>
			<path id="Path_101_00000072264956515012355700000004192533111297264018_" class="st6" d="M32.7,22.7l0.4-0.4l-0.7-0.7L32,22
				l-7.1,7l-0.4,0.4l0.7,0.7l0.4-0.4L32.7,22.7z"/>
			<path id="Path_102_00000125592966103750518490000002119878039598214552_" class="st6" d="M35.1,25.2l0.4-0.4l-0.7-0.7l-0.4,0.4
				l-7.1,7L27,31.9l0.7,0.7l0.4-0.4L35.1,25.2z"/>
		</g>
	</g>
</g>
</svg>
