<?xml version="1.0" encoding="utf-8"?>
<!-- Generator: Adobe Illustrator 25.0.1, SVG Export Plug-In . SVG Version: 6.00 Build 0)  -->
<svg version="1.1" id="Layer_1" xmlns="http://www.w3.org/2000/svg" xmlns:xlink="http://www.w3.org/1999/xlink" x="0px" y="0px"
	 viewBox="0 0 56.7 56.7" style="enable-background:new 0 0 56.7 56.7;" xml:space="preserve">
<style type="text/css">
	.st0{fill:url(#SVGID_1_);}
	.st1{fill:#FFFFFF;}
	.st2{fill:#D7D7D7;}
	.st3{fill:#010101;}
</style>
<g id="Layer_7">
	<g>
		
			<linearGradient id="SVGID_1_" gradientUnits="userSpaceOnUse" x1="36.5688" y1="-954.7868" x2="17.0094" y2="-972.8354" gradientTransform="matrix(1 0 0 -1 0 -934.0001)">
			<stop  offset="0" style="stop-color:#6860AA"/>
			<stop  offset="1" style="stop-color:#5F74B8"/>
		</linearGradient>
		<path class="st0" d="M28.3,7.1L28.3,7.1c11.7,0,21.3,9.5,21.3,21.3l0,0c0,11.7-9.5,21.3-21.3,21.3l0,0C16.6,49.7,7,40.2,7,28.4
			l0,0C7.1,16.6,16.6,7.1,28.3,7.1z"/>
		<g>
			<path id="Path_92_00000049182687644418540370000011300672245660524217_" class="st1" d="M46.7,17.7L39.4,25L39,25.4l0.7,0.7
				l0.4-0.4l7.1-7.1C47.1,18.3,46.9,18,46.7,17.7L46.7,17.7z"/>
			<path id="Path_93_00000054244528422561519020000005330612572396667778_" class="st1" d="M45.8,16.2L37.9,24l-0.3,0.3l0.7,0.7
				l0.4-0.4l7.7-7.7C46.1,16.7,46,16.4,45.8,16.2L45.8,16.2z"/>
			<path id="Path_94_00000098926657985304337580000015390916663676337830_" class="st1" d="M19.1,42.5l-6.7-0.1
				c0.2,0.2,0.3,0.4,0.5,0.6h9.4v-0.5H19.1L19.1,42.5z"/>
			<path id="Path_95_00000046318147378292337360000009591732871269456306_" class="st2" d="M23.1,22.6c0,0,2-2,3-1.5
				c0-0.9,0.4-1.8,1-2.5l3.6-3.6c1.5-1.6,4.1-1.6,5.6,0l0,0l3,3c1.6,1.6,1.6,4.1,0,5.6L26.7,36.3c-1.6,1.6-4.1,1.6-5.6,0l-3-3
				c-1.6-1.6-1.6-4.1,0-5.6L23.1,22.6L23.1,22.6z"/>
			<path id="Path_96_00000170276157307201310490000011653119909289724077_" class="st1" d="M31.9,16.3c1.6-1.6,4.1-1.6,5.6,0
				l3.3,3.3c1.6,1.6,1.6,4.1,0,5.6L28.2,37.8c-1.6,1.6-4.1,1.6-5.6,0l-3.3-3.3c-1.6-1.6-1.6-4.1,0-5.6L31.9,16.3z"/>
			<path id="Path_97_00000111887192808174199640000010208979585937065642_" class="st2" d="M28.1,39.8c0-1.5-1.2-2.7-2.7-2.7l0,0
				c-1.5,0-2.7,1.2-2.7,2.7l0,0c0,1.5,1.2,2.7,2.7,2.7l0,0C26.9,42.5,28.1,41.3,28.1,39.8L28.1,39.8L28.1,39.8z"/>
			<path id="Path_98_00000159470316325142481960000009368546518287510411_" class="st1" d="M23.6,39.8c0-1,0.8-1.7,1.8-1.8
				c1,0,1.7,0.8,1.8,1.8c0,1-0.8,1.7-1.8,1.8C24.4,41.5,23.6,40.7,23.6,39.8L23.6,39.8z"/>
			<path id="Path_99_00000055671906493169937090000004336400904888301440_" class="st1" d="M23.6,42h3v-0.5h-3V42z"/>
			<path id="Path_100_00000134930574113043157490000013749949586053729718_" class="st1" d="M16.9,42h5.5v-0.5h-5.5V42z"/>
			<path id="Path_101_00000072264956515012355700000004192533111297264018_" class="st3" d="M32.7,22.7l0.4-0.4l-0.7-0.7L32,22
				l-7.1,7l-0.4,0.4l0.7,0.7l0.4-0.4L32.7,22.7z"/>
			<path id="Path_102_00000125592966103750518490000002119878039598214552_" class="st3" d="M35.1,25.2l0.4-0.4l-0.7-0.7l-0.4,0.4
				l-7.1,7L27,31.9l0.7,0.7l0.4-0.4L35.1,25.2z"/>
		</g>
	</g>
</g>
</svg>
