<?xml version="1.0" encoding="utf-8"?>
<!-- Generator: Adobe Illustrator 25.0.1, SVG Export Plug-In . SVG Version: 6.00 Build 0)  -->
<svg version="1.1" id="Layer_1" xmlns="http://www.w3.org/2000/svg" xmlns:xlink="http://www.w3.org/1999/xlink" x="0px" y="0px"
	 viewBox="0 0 56.7 56.7" style="enable-background:new 0 0 56.7 56.7;" xml:space="preserve">
<style type="text/css">
	.st0{fill-rule:evenodd;clip-rule:evenodd;fill:url(#SVGID_1_);}
</style>
<g id="Layer_14">
	<g id="Layer_x0020_1_2_">
		
			<linearGradient id="SVGID_1_" gradientUnits="userSpaceOnUse" x1="-346.5378" y1="286.5567" x2="-331.5445" y2="286.5567" gradientTransform="matrix(2.8346 0 0 2.8346 989.3961 -783.9736)">
			<stop  offset="0" style="stop-color:#7352A2"/>
			<stop  offset="1" style="stop-color:#9D248F"/>
		</linearGradient>
		<path class="st0" d="M23,18.9c2.2,0,4,1.8,4,4s-1.8,4-4,4s-4-1.8-4-4S20.8,18.9,23,18.9z M33.9,29.9c2.2,0,4,1.8,4,4
			c0,2.2-1.8,4-4,4s-4-1.8-4-4C29.9,31.7,31.7,29.9,33.9,29.9z M43,31c1.2,0,2.3,1,2.3,2.3c0,1.2-1,2.3-2.3,2.3
			c-1.2,0-2.3-1-2.3-2.3C40.7,32,41.7,31,43,31L43,31z M43,21.2c1.2,0,2.3,1,2.3,2.3c0,1.2-1,2.3-2.3,2.3c-1.2,0-2.3-1-2.3-2.3
			S41.7,21.2,43,21.2z M43,40.8c1.2,0,2.3,1,2.3,2.3c0,1.2-1,2.3-2.3,2.3c-1.2,0-2.3-1-2.3-2.3C40.7,41.9,41.7,40.8,43,40.8z
			 M43,11.5c1.2,0,2.3,1,2.3,2.3S44.2,16,43,16s-2.3-1-2.3-2.3S41.7,11.5,43,11.5z M13.5,31c1.2,0,2.3,1,2.3,2.3
			c0,1.2-1,2.3-2.3,2.3s-2.3-1-2.3-2.3C11.2,32,12.2,31,13.5,31L13.5,31z M48.5,32.2c0.6,0,1.1,0.5,1.1,1.1s-0.5,1.1-1.1,1.1
			s-1.1-0.5-1.1-1.1S47.9,32.2,48.5,32.2L48.5,32.2z M8.2,32.2c0.6,0,1.1,0.5,1.1,1.1s-0.5,1.1-1.1,1.1s-1.1-0.5-1.1-1.1
			S7.6,32.2,8.2,32.2L8.2,32.2z M33.3,47.3c0.6,0,1.1,0.5,1.1,1.1s-0.5,1.1-1.1,1.1s-1.1-0.5-1.1-1.1S32.7,47.3,33.3,47.3L33.3,47.3
			z M33.3,7.1c0.6,0,1.1,0.5,1.1,1.1s-0.5,1.1-1.1,1.1s-1.1-0.5-1.1-1.1S32.7,7.1,33.3,7.1z M23.5,47.3c0.6,0,1.1,0.5,1.1,1.1
			s-0.5,1.1-1.1,1.1s-1.1-0.5-1.1-1.1S22.9,47.3,23.5,47.3L23.5,47.3z M23.5,7.1c0.6,0,1.1,0.5,1.1,1.1s-0.5,1.1-1.1,1.1
			s-1.1-0.5-1.1-1.1S22.9,7.1,23.5,7.1z M48.5,22.3c0.6,0,1.1,0.5,1.1,1.1s-0.5,1.1-1.1,1.1s-1.1-0.5-1.1-1.1S47.9,22.3,48.5,22.3z
			 M8.2,22.3c0.6,0,1.1,0.5,1.1,1.1s-0.5,1.1-1.1,1.1S7.1,24,7.1,23.4S7.6,22.3,8.2,22.3z M13.5,21.2c1.2,0,2.3,1,2.3,2.3
			c0,1.2-1,2.3-2.3,2.3s-2.3-1-2.3-2.3S12.2,21.2,13.5,21.2z M13.5,40.8c1.2,0,2.3,1,2.3,2.3c0,1.2-1,2.3-2.3,2.3s-2.3-1-2.3-2.3
			C11.2,41.9,12.2,40.8,13.5,40.8z M13.5,11.5c1.2,0,2.3,1,2.3,2.3s-1,2.3-2.3,2.3s-2.3-1-2.3-2.3S12.2,11.5,13.5,11.5z M23.5,40.8
			c1.2,0,2.3,1,2.3,2.3c0,1.2-1,2.3-2.3,2.3c-1.2,0-2.3-1-2.3-2.3C21.3,41.9,22.3,40.8,23.5,40.8z M23.5,11.5c1.2,0,2.3,1,2.3,2.3
			s-1,2.3-2.3,2.3c-1.2,0-2.3-1-2.3-2.3S22.3,11.5,23.5,11.5z M33.2,40.8c1.2,0,2.3,1,2.3,2.3c0,1.2-1,2.3-2.3,2.3
			c-1.2,0-2.3-1-2.3-2.3C31,41.9,32,40.8,33.2,40.8z M33.2,11.5c1.2,0,2.3,1,2.3,2.3s-1,2.3-2.3,2.3C32,16,31,15,31,13.7
			S32,11.5,33.2,11.5z M33.9,18.9c2.2,0,4,1.8,4,4s-1.8,4-4,4s-4-1.8-4-4S31.7,18.9,33.9,18.9z M23,29.9c2.2,0,4,1.8,4,4
			c0,2.2-1.8,4-4,4s-4-1.8-4-4C19.1,31.7,20.8,29.9,23,29.9z"/>
	</g>
</g>
</svg>
