<?xml version="1.0" encoding="utf-8"?>
<!-- Generator: Adobe Illustrator 25.0.1, SVG Export Plug-In . SVG Version: 6.00 Build 0)  -->
<svg version="1.1" id="Layer_1" xmlns="http://www.w3.org/2000/svg" xmlns:xlink="http://www.w3.org/1999/xlink" x="0px" y="0px"
	 viewBox="0 0 56.7 56.7" style="enable-background:new 0 0 56.7 56.7;" xml:space="preserve">
<style type="text/css">
	.st0{fill:#B8B5B1;}
	.st1{fill:#FFFFFF;}
	.st2{fill:#254C82;}
</style>
<g id="Layer_55">
	<g id="Shape_1_10_">
		<g>
			<path class="st0" d="M52.4,26C46.9-6,5,0.2,4.3,26c2.4,1.3,3.9,2,3.9,2s-1.3,0.8-4,2.5c4.8,31.4,46,26.9,48.2,0
				c-2.6-1.6-4-2.5-4-2.5S49.6,27.5,52.4,26z M31.8,37.2l-3.9-6.8l-4,6.8l-3-0.2l5.7-9.6l-5.1-8.3l3.1-0.3l3.6,6.1l3.6-5.9l2.9,0.1
				l-4.8,8.1l5.3,9.8L31.8,37.2z"/>
		</g>
	</g>
	<rect x="15.5" y="15.8" class="st1" width="25.6" height="28.3"/>
	<g id="Shape_1_9_">
		<g>
			<path class="st2" d="M50.5,24.8C43-3.7,8.6,4,6.2,24.8c4.8,2.7,5.9,3.3,5.9,3.3s-1.8,1.2-5.9,3.7c5.1,27.4,42.2,22.1,44.3,0
				c-3.7-2.3-6-3.7-6-3.7S49.6,25.3,50.5,24.8z M31.8,37.3l-3.9-6.8l-4,6.8l-3-0.2l5.7-9.6l-5.1-8.3l3.1-0.3l3.6,6.1l3.6-5.9
				l2.9,0.1l-4.8,8.1l5.3,9.8L31.8,37.3z"/>
		</g>
	</g>
</g>
</svg>
