<?xml version="1.0" encoding="utf-8"?>
<!-- Generator: Adobe Illustrator 25.0.1, SVG Export Plug-In . SVG Version: 6.00 Build 0)  -->
<svg version="1.1" id="Layer_1" xmlns="http://www.w3.org/2000/svg" xmlns:xlink="http://www.w3.org/1999/xlink" x="0px" y="0px"
	 viewBox="0 0 56.7 56.7" style="enable-background:new 0 0 56.7 56.7;" xml:space="preserve">
<style type="text/css">
	.st0{fill:#0F0F3F;}
	.st1{fill:#010101;}
	.st2{fill:url(#SVGID_1_);}
</style>
<g id="xswap">
	<path class="st0" d="M48.7,56.7H8c-4.4,0-8-3.6-8-8V8c0-4.4,3.6-8,8-8h40.7c4.4,0,8,3.6,8,8v40.7C56.7,53.1,53.1,56.7,48.7,56.7z"
		/>
	<g>
		<g>
			<g>
				<g>
					<path class="st1" d="M46.8,9.2C46.6,9,46.3,9,45.9,9c-0.2,0-0.4,0-0.8,0.2l-10.3,6.5l-5.3,1.1l-2.1,0.6l1.9,1.7
						c1.3,1.1,2.1,2.3,2.9,3.6c0.4,0.6,0.8,1.5,1.1,2.3c0.8-1.3,2.1-2.5,3.6-3.4l8.2-5.3c0.6-0.4,1.3-0.8,1.5-1.5
						c0.8-0.6,1.1-1.1,1.1-1.7v-2.9c0-0.2,0-0.4-0.2-0.6C47.2,9.4,47.2,9.4,46.8,9.2z"/>
					<path class="st1" d="M32.7,28.6c0-0.2,0-0.4,0-0.6c-0.2-1.5-0.6-2.9-1.5-4.4c-1.1-1.9-2.9-3.6-5.3-5.1L11.8,9.6
						c-0.2-0.2-0.4-0.2-0.6-0.2c-0.2,0-0.4,0-0.8,0.2C10.2,9.6,10,9.8,10,10c-0.2,0.2-0.2,0.2-0.2,0.4v2.9c0,0.4,0.2,1.1,0.4,1.5
						c0.4,0.4,0.8,1.1,1.5,1.3l8,5.1c1.7,1.1,2.7,2.3,3.6,3.6c0.8,1.3,1.1,2.5,1.1,3.8c0,0.2,0,0.4,0,0.6c0.2,1.5,0.6,2.9,1.5,4.4
						c1.1,1.9,2.9,3.6,5.3,5.1l14.1,8.8c0.2,0.2,0.4,0.2,0.6,0.2c0.2,0,0.4,0,0.8-0.2c0.2-0.2,0.4-0.2,0.4-0.4
						c0.2-0.2,0.2-0.4,0.2-0.6v-2.9c0-0.4-0.2-1.1-0.4-1.5c-0.4-0.4-0.8-0.8-1.5-1.5l-8-5.1c-1.7-1.1-2.9-2.3-3.6-3.6
						C32.9,31.1,32.7,29.8,32.7,28.6z"/>
					<path class="st1" d="M26.8,38c-1.1-1.1-2.1-2.1-2.7-3.2c-0.4-0.6-0.8-1.5-1.1-2.1c-0.8,1.1-1.9,2.1-3.4,3.2l-8,4.8
						c-0.6,0.4-1.3,0.8-1.5,1.5c-0.2,0.4-0.4,0.8-0.4,1.5v2.9c0,0.2,0,0.4,0.2,0.6c0,0,0.2,0.2,0.4,0.2c0.2,0.2,0.4,0.2,0.8,0.2
						c0.2,0,0.4,0,0.6-0.2l14.9-6.9l2.7-1.3C29.5,39.5,26.8,38,26.8,38z"/>
				</g>
				
					<linearGradient id="SVGID_1_" gradientUnits="userSpaceOnUse" x1="11.2441" y1="794.5349" x2="46.686" y2="831.4532" gradientTransform="matrix(1 0 0 1 0 -783.9969)">
					<stop  offset="0" style="stop-color:#70CDDD"/>
					<stop  offset="1" style="stop-color:#B9539F"/>
				</linearGradient>
				<path class="st2" d="M29.7,16.8l0.2-0.2L44,7.7c0.4-0.4,1.1-0.4,1.7-0.6c0.6,0,1.1,0,1.7,0.4c0.6,0.2,1.1,0.6,1.3,1.1l0,0
					c0.4,0.4,0.4,1.1,0.4,1.7v2.9c0,0.8-0.2,1.7-0.8,2.5c-0.4,0.6-1.3,1.5-2.1,1.9l-8,5.1c-1.5,0.8-2.3,1.9-2.9,2.9
					c-0.4,0.6-0.6,1.5-0.8,2.1c0,0.4,0,0.8,0,1.3c0,0.6,0.4,1.5,0.8,2.1c0.6,1.1,1.7,2.1,2.9,2.9l8,5.1c0.8,0.6,1.7,1.3,2.1,1.9
					c0.4,0.8,0.8,1.7,0.8,2.5v2.9c0,0.6-0.2,1.3-0.4,1.7l0,0c-0.2,0.4-0.8,0.8-1.3,1.1c-0.6,0.2-1.1,0.4-1.7,0.4
					c-0.6,0-1.1-0.2-1.7-0.4l-14.1-8.8c-2.7-1.7-4.6-3.6-5.9-5.7c-0.4-0.6-0.8-1.5-1.1-2.1c-0.8,1.3-1.9,2.3-3.4,3.4l-8,4.8
					c-0.6,0.4-1.3,0.8-1.5,1.5c-0.2,0.4-0.4,0.8-0.4,1.5v2.9c0,0.2,0,0.4,0.2,0.6c0,0,0.2,0.2,0.4,0.2c0.2,0.2,0.4,0.2,0.8,0.2
					c0.2,0,0.4,0,0.6-0.2l13.3-8.4c0.4,0.4,1.1,1.1,1.5,1.5l-13.9,8.6c-0.4,0.2-1.1,0.4-1.7,0.4s-1.1,0-1.7-0.4
					C8.7,49,8.2,48.6,8,48.1l0,0c-0.4-0.4-0.4-1.1-0.4-1.7v-2.9c0-0.8,0.2-1.7,0.8-2.5c0.4-0.8,1.3-1.5,2.1-1.9l8-5.1
					c1.3-0.8,2.3-1.9,2.9-2.9c0.4-0.6,0.6-1.5,0.8-2.1c0-0.4,0-0.8,0-1.3c0-0.6-0.4-1.5-0.8-2.1c-0.6-1.1-1.7-2.1-2.9-2.9l-8-4.6
					C9.7,17.5,9,16.8,8.4,16c-0.4-0.6-0.6-1.5-0.6-2.5v-2.9C7.8,10,8,9.3,8.2,8.9l0,0c0.2-0.4,0.6-0.8,1.3-1.1
					c0.7-0.3,1.1-0.4,1.7-0.4c0.6,0,1.1,0.2,1.7,0.6L27,16.8c2.5,1.5,4.6,3.4,5.9,5.5c0.4,0.6,0.8,1.5,1.1,2.1
					c0.8-1.1,1.9-2.1,3.4-3.2l8-5.1c0.6-0.4,1.3-0.8,1.5-1.5c0.2-0.4,0.4-0.8,0.4-1.5v-2.7c0-0.2,0-0.4-0.2-0.6c0,0-0.2-0.2-0.4-0.2
					c-0.2-0.2-0.4-0.2-0.8-0.2c-0.2,0-0.4,0-0.6,0.2l-13.7,8.6C30.8,17.6,30.3,17.2,29.7,16.8L29.7,16.8z M24.2,29.2
					c0.2,1.5,0.6,2.9,1.5,4.4c1.1,1.9,2.9,3.6,5.3,5.1l14.1,8.8c0.2,0.2,0.4,0.2,0.6,0.2c0.2,0,0.4,0,0.8-0.2
					c0.2-0.2,0.4-0.2,0.4-0.4c0.2-0.2,0.2-0.4,0.2-0.6v-2.9c0-0.4-0.2-1.1-0.4-1.5c-0.4-0.4-0.8-0.8-1.5-1.5l-8-5.1
					c-1.7-1.1-2.9-2.3-3.6-3.6c-0.8-0.8-1.1-2.1-1.1-3.4c0-0.2,0-0.4,0-0.6c-0.2-1.5-0.6-2.9-1.5-4.4c-1.1-1.9-2.9-3.6-5.3-5.1
					L11.8,9.6c-0.2-0.2-0.4-0.2-0.6-0.2c-0.2,0-0.4,0-0.8,0.2C10.2,9.6,10,9.8,10,10c-0.2,0.2-0.2,0.2-0.2,0.4v2.9
					c0,0.4,0.2,1.1,0.4,1.5c0.4,0.4,0.8,1.1,1.5,1.3l8,5.1c1.7,1.1,2.7,2.3,3.6,3.6c0.8,1.3,1.1,2.5,1.1,3.8
					C24.2,28.8,24.2,29,24.2,29.2L24.2,29.2z"/>
			</g>
		</g>
	</g>
</g>
</svg>
