<?xml version="1.0" encoding="UTF-8"?>
<svg id="Zyan" xmlns="http://www.w3.org/2000/svg" xmlns:xlink="http://www.w3.org/1999/xlink" viewBox="0 0 56.7 56.7">
  <defs>
    <style>
      .cls-1 {
        fill: #974df5;
      }

      .cls-2 {
        fill: #f54d6a;
      }

      .cls-3 {
        fill: url(#linear-gradient);
      }
    </style>
    <linearGradient id="linear-gradient" x1="35.6" y1="-93" x2="20.8" y2="-53.3" gradientTransform="translate(-46.8 52.1) rotate(51.5)" gradientUnits="userSpaceOnUse">
      <stop offset="0" stop-color="#5a11b7"/>
      <stop offset="1" stop-color="#f54d6a"/>
    </linearGradient>
  </defs>
  <rect class="cls-3" x=".3" y="22.3" width="55.9" height="12.6" transform="translate(-11.7 32.9) rotate(-51.5)"/>
  <path class="cls-2" d="M43.5,56.3c-5.9-4.2-12-5.9-18.2-5.1-4.9.7-8.9,2.9-10.9,4.7l-8.4-9.3c4.4-4,11-6.9,17.7-7.8,9.2-1.2,18.6,1.3,27.1,7.3l-7.3,10.3Z"/>
  <path class="cls-1" d="M28.2,18.3c-1.5,0-3,0-4.5-.3-6.6-.9-13.2-3.8-17.7-7.8L14.4.8c1.9,1.7,5.9,4,10.9,4.7,6.1.8,12.2-.9,18.2-5.1l7.3,10.3c-7.1,5-14.8,7.6-22.6,7.6Z"/>
</svg>